<?xml version="1.0" encoding="utf-8" standalone="no"?>
<!DOCTYPE svg PUBLIC "-//W3C//DTD SVG 1.1//EN"
  "http://www.w3.org/Graphics/SVG/1.1/DTD/svg11.dtd">
<svg xmlns:xlink="http://www.w3.org/1999/xlink" width="412.8025pt" height="234.152188pt" viewBox="0 0 412.8025 234.152188" xmlns="http://www.w3.org/2000/svg" version="1.1">
 <metadata>
  <rdf:RDF xmlns:dc="http://purl.org/dc/elements/1.1/" xmlns:cc="http://creativecommons.org/ns#" xmlns:rdf="http://www.w3.org/1999/02/22-rdf-syntax-ns#">
   <cc:Work>
    <dc:type rdf:resource="http://purl.org/dc/dcmitype/StillImage"/>
    <dc:date>2025-01-26T10:49:15.459739</dc:date>
    <dc:format>image/svg+xml</dc:format>
    <dc:creator>
     <cc:Agent>
      <dc:title>Matplotlib v3.5.2, https://matplotlib.org/</dc:title>
     </cc:Agent>
    </dc:creator>
   </cc:Work>
  </rdf:RDF>
 </metadata>
 <defs>
  <style type="text/css">*{stroke-linejoin: round; stroke-linecap: butt}</style>
 </defs>
 <g id="figure_1">
  <g id="patch_1">
   <path d="M 0 234.152188 
L 412.8025 234.152188 
L 412.8025 -0 
L 0 -0 
L 0 234.152188 
z
" style="fill: none"/>
  </g>
  <g id="axes_1">
   <g id="patch_2">
    <path d="M 57.591563 185.398125 
L 224.991563 185.398125 
L 224.991563 22.318125 
L 57.591563 22.318125 
z
" style="fill: #ffffff"/>
   </g>
   <g id="PathCollection_1">
    <path d="M 198.987977 53.165225 
C 200.313992 53.165225 201.585876 52.638393 202.52351 51.700759 
C 203.461145 50.763124 203.987977 49.491241 203.987977 48.165225 
C 203.987977 46.83921 203.461145 45.567326 202.52351 44.629691 
C 201.585876 43.692057 200.313992 43.165225 198.987977 43.165225 
C 197.661961 43.165225 196.390077 43.692057 195.452443 44.629691 
C 194.514808 45.567326 193.987977 46.83921 193.987977 48.165225 
C 193.987977 49.491241 194.514808 50.763124 195.452443 51.700759 
C 196.390077 52.638393 197.661961 53.165225 198.987977 53.165225 
z
" clip-path="url(#p1e656a1e72)" style="fill: #1f77b4; stroke: #ffffff; stroke-width: 0.8"/>
    <path d="M 179.725522 78.612725 
L 182.225522 76.112725 
L 184.725522 78.612725 
L 187.225522 76.112725 
L 184.725522 73.612725 
L 187.225522 71.112725 
L 184.725522 68.612725 
L 182.225522 71.112725 
L 179.725522 68.612725 
L 177.225522 71.112725 
L 179.725522 73.612725 
L 177.225522 76.112725 
z
" clip-path="url(#p1e656a1e72)" style="fill: #1f77b4; stroke: #ffffff; stroke-width: 0.8"/>
    <path d="M 198.262548 68.006291 
L 198.262548 75.077359 
L 205.333616 75.077359 
L 205.333616 68.006291 
z
" clip-path="url(#p1e656a1e72)" style="fill: #1f77b4; stroke: #ffffff; stroke-width: 0.8"/>
    <path d="M 200.498732 96.643325 
L 203.832065 96.643325 
L 203.832065 93.309992 
L 207.165398 93.309992 
L 207.165398 89.976658 
L 203.832065 89.976658 
L 203.832065 86.643325 
L 200.498732 86.643325 
L 200.498732 89.976658 
L 197.165398 89.976658 
L 197.165398 93.309992 
L 200.498732 93.309992 
z
" clip-path="url(#p1e656a1e72)" style="fill: #1f77b4; stroke: #ffffff; stroke-width: 0.8"/>
    <path d="M 163.958704 133.519925 
C 165.28472 133.519925 166.556604 132.993093 167.494238 132.055459 
C 168.431873 131.117824 168.958704 129.845941 168.958704 128.519925 
C 168.958704 127.19391 168.431873 125.922026 167.494238 124.984391 
C 166.556604 124.046757 165.28472 123.519925 163.958704 123.519925 
C 162.632689 123.519925 161.360805 124.046757 160.42317 124.984391 
C 159.485536 125.922026 158.958704 127.19391 158.958704 128.519925 
C 158.958704 129.845941 159.485536 131.117824 160.42317 132.055459 
C 161.360805 132.993093 162.632689 133.519925 163.958704 133.519925 
z
" clip-path="url(#p1e656a1e72)" style="fill: #ff7f0e; stroke: #ffffff; stroke-width: 0.8"/>
    <path d="M 148.340698 137.370125 
L 150.840698 134.870125 
L 153.340698 137.370125 
L 155.840698 134.870125 
L 153.340698 132.370125 
L 155.840698 129.870125 
L 153.340698 127.370125 
L 150.840698 129.870125 
L 148.340698 127.370125 
L 145.840698 129.870125 
L 148.340698 132.370125 
L 145.840698 134.870125 
z
" clip-path="url(#p1e656a1e72)" style="fill: #ff7f0e; stroke: #ffffff; stroke-width: 0.8"/>
    <path d="M 143.606186 150.407591 
L 143.606186 157.478659 
L 150.677254 157.478659 
L 150.677254 150.407591 
z
" clip-path="url(#p1e656a1e72)" style="fill: #ff7f0e; stroke: #ffffff; stroke-width: 0.8"/>
    <path d="M 159.34492 155.757125 
L 162.678253 155.757125 
L 162.678253 152.423792 
L 166.011587 152.423792 
L 166.011587 149.090458 
L 162.678253 149.090458 
L 162.678253 145.757125 
L 159.34492 145.757125 
L 159.34492 149.090458 
L 156.011587 149.090458 
L 156.011587 152.423792 
L 159.34492 152.423792 
z
" clip-path="url(#p1e656a1e72)" style="fill: #ff7f0e; stroke: #ffffff; stroke-width: 0.8"/>
    <path d="M 109.191308 164.912825 
C 110.517324 164.912825 111.789208 164.385993 112.726842 163.448359 
C 113.664477 162.510724 114.191308 161.238841 114.191308 159.912825 
C 114.191308 158.58681 113.664477 157.314926 112.726842 156.377291 
C 111.789208 155.439657 110.517324 154.912825 109.191308 154.912825 
C 107.865293 154.912825 106.593409 155.439657 105.655774 156.377291 
C 104.71814 157.314926 104.191308 158.58681 104.191308 159.912825 
C 104.191308 161.238841 104.71814 162.510724 105.655774 163.448359 
C 106.593409 164.385993 107.865293 164.912825 109.191308 164.912825 
z
" clip-path="url(#p1e656a1e72)" style="fill: #808080; stroke: #ffffff; stroke-width: 0.8"/>
    <path d="M 106.58614 162.644825 
L 109.08614 160.144825 
L 111.58614 162.644825 
L 114.08614 160.144825 
L 111.58614 157.644825 
L 114.08614 155.144825 
L 111.58614 152.644825 
L 109.08614 155.144825 
L 106.58614 152.644825 
L 104.08614 155.144825 
L 106.58614 157.644825 
L 104.08614 160.144825 
z
" clip-path="url(#p1e656a1e72)" style="fill: #808080; stroke: #ffffff; stroke-width: 0.8"/>
    <path d="M 105.498012 158.785691 
L 105.498012 165.856759 
L 112.56908 165.856759 
L 112.56908 158.785691 
z
" clip-path="url(#p1e656a1e72)" style="fill: #808080; stroke: #ffffff; stroke-width: 0.8"/>
    <path d="M 106.988493 169.826825 
L 110.321826 169.826825 
L 110.321826 166.493492 
L 113.655159 166.493492 
L 113.655159 163.160158 
L 110.321826 163.160158 
L 110.321826 159.826825 
L 106.988493 159.826825 
L 106.988493 163.160158 
L 103.655159 163.160158 
L 103.655159 166.493492 
L 106.988493 166.493492 
z
" clip-path="url(#p1e656a1e72)" style="fill: #808080; stroke: #ffffff; stroke-width: 0.8"/>
    <path d="M 201.014767 86.642525 
C 202.340783 86.642525 203.612667 86.115693 204.550301 85.178059 
C 205.487936 84.240424 206.014767 82.968541 206.014767 81.642525 
C 206.014767 80.31651 205.487936 79.044626 204.550301 78.106991 
C 203.612667 77.169357 202.340783 76.642525 201.014767 76.642525 
C 199.688752 76.642525 198.416868 77.169357 197.479234 78.106991 
C 196.541599 79.044626 196.014767 80.31651 196.014767 81.642525 
C 196.014767 82.968541 196.541599 84.240424 197.479234 85.178059 
C 198.416868 86.115693 199.688752 86.642525 201.014767 86.642525 
z
" clip-path="url(#p1e656a1e72)" style="fill: #d62728; stroke: #ffffff; stroke-width: 0.8"/>
    <path d="M 166.070854 119.836325 
L 168.570854 117.336325 
L 171.070854 119.836325 
L 173.570854 117.336325 
L 171.070854 114.836325 
L 173.570854 112.336325 
L 171.070854 109.836325 
L 168.570854 112.336325 
L 166.070854 109.836325 
L 163.570854 112.336325 
L 166.070854 114.836325 
L 163.570854 117.336325 
z
" clip-path="url(#p1e656a1e72)" style="fill: #d62728; stroke: #ffffff; stroke-width: 0.8"/>
    <path d="M 188.851116 84.838091 
L 188.851116 91.909159 
L 195.922183 91.909159 
L 195.922183 84.838091 
z
" clip-path="url(#p1e656a1e72)" style="fill: #d62728; stroke: #ffffff; stroke-width: 0.8"/>
    <path d="M 190.73298 119.142425 
L 194.066314 119.142425 
L 194.066314 115.809092 
L 197.399647 115.809092 
L 197.399647 112.475758 
L 194.066314 112.475758 
L 194.066314 109.142425 
L 190.73298 109.142425 
L 190.73298 112.475758 
L 187.399647 112.475758 
L 187.399647 115.809092 
L 190.73298 115.809092 
z
" clip-path="url(#p1e656a1e72)" style="fill: #d62728; stroke: #ffffff; stroke-width: 0.8"/>
   </g>
   <g id="PathCollection_2"/>
   <g id="PathCollection_3"/>
   <g id="PathCollection_4"/>
   <g id="PathCollection_5"/>
   <g id="PathCollection_6"/>
   <g id="PathCollection_7"/>
   <g id="PathCollection_8"/>
   <g id="PathCollection_9"/>
   <g id="PolyCollection_1">
    <path d="M 57.591563 162.281303 
L 57.591563 205.487923 
L 62.847449 201.436878 
L 68.103336 197.696184 
L 73.359223 193.600878 
L 78.61511 189.748731 
L 83.870997 185.974874 
L 89.126884 182.210479 
L 94.382771 178.713761 
L 99.638658 175.529763 
L 104.894545 172.436121 
L 110.150432 169.408776 
L 115.406319 166.299223 
L 120.662206 163.332106 
L 125.918093 160.643939 
L 131.17398 158.528922 
L 136.429867 156.145167 
L 141.685754 153.999515 
L 146.941641 151.539607 
L 152.197528 148.680069 
L 157.453415 145.394928 
L 162.709302 141.593909 
L 167.965189 136.960197 
L 173.221076 131.421535 
L 178.476963 124.806094 
L 183.73285 117.093008 
L 188.988737 108.619671 
L 194.244624 99.576228 
L 199.500511 91.264084 
L 204.756398 83.785145 
L 210.012285 77.217349 
L 215.268172 70.763213 
L 220.524059 64.568174 
L 225.779946 58.640575 
L 231.035833 52.847531 
L 236.291719 46.91769 
L 241.547606 41.096223 
L 246.803493 35.162876 
L 252.05938 29.479818 
L 257.315267 23.640891 
L 262.571154 17.848479 
L 267.827041 11.794371 
L 273.082928 6.013467 
L 278.338815 0.166913 
L 283.594702 -5.701113 
L 288.850589 -11.601675 
L 294.106476 -17.103155 
L 299.362363 -23.318489 
L 304.61825 -29.174445 
L 309.874137 -35.186661 
L 315.130024 -41.348198 
L 315.130024 -6870.385031 
L 315.130024 -6870.385031 
L 309.874137 -5612.164685 
L 304.61825 -4581.951577 
L 299.362363 -3724.57665 
L 294.106476 -3025.198813 
L 288.850589 -2434.780114 
L 283.594702 -1972.795332 
L 278.338815 -1591.212117 
L 273.082928 -1287.459313 
L 267.827041 -1028.833147 
L 262.571154 -814.128596 
L 257.315267 -640.050223 
L 252.05938 -495.374337 
L 246.803493 -379.33468 
L 241.547606 -281.659961 
L 236.291719 -203.280157 
L 231.035833 -140.053334 
L 225.779946 -87.533043 
L 220.524059 -44.415967 
L 215.268172 -9.71539 
L 210.012285 18.816734 
L 204.756398 41.307608 
L 199.500511 58.649487 
L 194.244624 72.318569 
L 188.988737 82.693626 
L 183.73285 90.867328 
L 178.476963 97.735036 
L 173.221076 103.764602 
L 167.965189 109.357913 
L 162.709302 114.462173 
L 157.453415 119.527135 
L 152.197528 124.454229 
L 146.941641 129.313213 
L 141.685754 133.950652 
L 136.429867 138.629223 
L 131.17398 143.133305 
L 125.918093 147.504424 
L 120.662206 151.79453 
L 115.406319 155.537284 
L 110.150432 158.114897 
L 104.894545 159.279136 
L 99.638658 160.026519 
L 94.382771 160.538939 
L 89.126884 160.962154 
L 83.870997 161.344478 
L 78.61511 161.653337 
L 73.359223 161.892581 
L 68.103336 162.037695 
L 62.847449 162.17137 
L 57.591563 162.281303 
z
" clip-path="url(#p1e656a1e72)" style="fill: #808080; fill-opacity: 0.1; stroke: #808080; stroke-opacity: 0.1"/>
   </g>
   <g id="matplotlib.axis_1">
    <g id="xtick_1">
     <g id="line2d_1">
      <defs>
       <path id="mdbc61dc300" d="M 0 0 
L 0 3.5 
" style="stroke: #000000; stroke-width: 0.8"/>
      </defs>
      <g>
       <use xlink:href="#mdbc61dc300" x="57.591563" y="185.398125" style="stroke: #000000; stroke-width: 0.8"/>
      </g>
     </g>
     <g id="text_1">
      <!-- 0 -->
      <g transform="translate(54.410313 199.996563)scale(0.1 -0.1)">
       <defs>
        <path id="DejaVuSans-30" d="M 2034 4250 
Q 1547 4250 1301 3770 
Q 1056 3291 1056 2328 
Q 1056 1369 1301 889 
Q 1547 409 2034 409 
Q 2525 409 2770 889 
Q 3016 1369 3016 2328 
Q 3016 3291 2770 3770 
Q 2525 4250 2034 4250 
z
M 2034 4750 
Q 2819 4750 3233 4129 
Q 3647 3509 3647 2328 
Q 3647 1150 3233 529 
Q 2819 -91 2034 -91 
Q 1250 -91 836 529 
Q 422 1150 422 2328 
Q 422 3509 836 4129 
Q 1250 4750 2034 4750 
z
" transform="scale(0.015625)"/>
       </defs>
       <use xlink:href="#DejaVuSans-30"/>
      </g>
     </g>
    </g>
    <g id="xtick_2">
     <g id="line2d_2">
      <g>
       <use xlink:href="#mdbc61dc300" x="109.099255" y="185.398125" style="stroke: #000000; stroke-width: 0.8"/>
      </g>
     </g>
     <g id="text_2">
      <!-- 20 -->
      <g transform="translate(102.736755 199.996563)scale(0.1 -0.1)">
       <defs>
        <path id="DejaVuSans-32" d="M 1228 531 
L 3431 531 
L 3431 0 
L 469 0 
L 469 531 
Q 828 903 1448 1529 
Q 2069 2156 2228 2338 
Q 2531 2678 2651 2914 
Q 2772 3150 2772 3378 
Q 2772 3750 2511 3984 
Q 2250 4219 1831 4219 
Q 1534 4219 1204 4116 
Q 875 4013 500 3803 
L 500 4441 
Q 881 4594 1212 4672 
Q 1544 4750 1819 4750 
Q 2544 4750 2975 4387 
Q 3406 4025 3406 3419 
Q 3406 3131 3298 2873 
Q 3191 2616 2906 2266 
Q 2828 2175 2409 1742 
Q 1991 1309 1228 531 
z
" transform="scale(0.015625)"/>
       </defs>
       <use xlink:href="#DejaVuSans-32"/>
       <use xlink:href="#DejaVuSans-30" x="63.623047"/>
      </g>
     </g>
    </g>
    <g id="xtick_3">
     <g id="line2d_3">
      <g>
       <use xlink:href="#mdbc61dc300" x="160.606947" y="185.398125" style="stroke: #000000; stroke-width: 0.8"/>
      </g>
     </g>
     <g id="text_3">
      <!-- 40 -->
      <g transform="translate(154.244447 199.996563)scale(0.1 -0.1)">
       <defs>
        <path id="DejaVuSans-34" d="M 2419 4116 
L 825 1625 
L 2419 1625 
L 2419 4116 
z
M 2253 4666 
L 3047 4666 
L 3047 1625 
L 3713 1625 
L 3713 1100 
L 3047 1100 
L 3047 0 
L 2419 0 
L 2419 1100 
L 313 1100 
L 313 1709 
L 2253 4666 
z
" transform="scale(0.015625)"/>
       </defs>
       <use xlink:href="#DejaVuSans-34"/>
       <use xlink:href="#DejaVuSans-30" x="63.623047"/>
      </g>
     </g>
    </g>
    <g id="xtick_4">
     <g id="line2d_4">
      <g>
       <use xlink:href="#mdbc61dc300" x="212.114639" y="185.398125" style="stroke: #000000; stroke-width: 0.8"/>
      </g>
     </g>
     <g id="text_4">
      <!-- 60 -->
      <g transform="translate(205.752139 199.996563)scale(0.1 -0.1)">
       <defs>
        <path id="DejaVuSans-36" d="M 2113 2584 
Q 1688 2584 1439 2293 
Q 1191 2003 1191 1497 
Q 1191 994 1439 701 
Q 1688 409 2113 409 
Q 2538 409 2786 701 
Q 3034 994 3034 1497 
Q 3034 2003 2786 2293 
Q 2538 2584 2113 2584 
z
M 3366 4563 
L 3366 3988 
Q 3128 4100 2886 4159 
Q 2644 4219 2406 4219 
Q 1781 4219 1451 3797 
Q 1122 3375 1075 2522 
Q 1259 2794 1537 2939 
Q 1816 3084 2150 3084 
Q 2853 3084 3261 2657 
Q 3669 2231 3669 1497 
Q 3669 778 3244 343 
Q 2819 -91 2113 -91 
Q 1303 -91 875 529 
Q 447 1150 447 2328 
Q 447 3434 972 4092 
Q 1497 4750 2381 4750 
Q 2619 4750 2861 4703 
Q 3103 4656 3366 4563 
z
" transform="scale(0.015625)"/>
       </defs>
       <use xlink:href="#DejaVuSans-36"/>
       <use xlink:href="#DejaVuSans-30" x="63.623047"/>
      </g>
     </g>
    </g>
    <g id="text_5">
     <!-- (%) HyperP -->
     <g transform="translate(113.009531 213.674688)scale(0.1 -0.1)">
      <defs>
       <path id="DejaVuSans-28" d="M 1984 4856 
Q 1566 4138 1362 3434 
Q 1159 2731 1159 2009 
Q 1159 1288 1364 580 
Q 1569 -128 1984 -844 
L 1484 -844 
Q 1016 -109 783 600 
Q 550 1309 550 2009 
Q 550 2706 781 3412 
Q 1013 4119 1484 4856 
L 1984 4856 
z
" transform="scale(0.015625)"/>
       <path id="DejaVuSans-25" d="M 4653 2053 
Q 4381 2053 4226 1822 
Q 4072 1591 4072 1178 
Q 4072 772 4226 539 
Q 4381 306 4653 306 
Q 4919 306 5073 539 
Q 5228 772 5228 1178 
Q 5228 1588 5073 1820 
Q 4919 2053 4653 2053 
z
M 4653 2450 
Q 5147 2450 5437 2106 
Q 5728 1763 5728 1178 
Q 5728 594 5436 251 
Q 5144 -91 4653 -91 
Q 4153 -91 3862 251 
Q 3572 594 3572 1178 
Q 3572 1766 3864 2108 
Q 4156 2450 4653 2450 
z
M 1428 4353 
Q 1159 4353 1004 4120 
Q 850 3888 850 3481 
Q 850 3069 1003 2837 
Q 1156 2606 1428 2606 
Q 1700 2606 1854 2837 
Q 2009 3069 2009 3481 
Q 2009 3884 1853 4118 
Q 1697 4353 1428 4353 
z
M 4250 4750 
L 4750 4750 
L 1831 -91 
L 1331 -91 
L 4250 4750 
z
M 1428 4750 
Q 1922 4750 2215 4408 
Q 2509 4066 2509 3481 
Q 2509 2891 2217 2550 
Q 1925 2209 1428 2209 
Q 931 2209 642 2551 
Q 353 2894 353 3481 
Q 353 4063 643 4406 
Q 934 4750 1428 4750 
z
" transform="scale(0.015625)"/>
       <path id="DejaVuSans-29" d="M 513 4856 
L 1013 4856 
Q 1481 4119 1714 3412 
Q 1947 2706 1947 2009 
Q 1947 1309 1714 600 
Q 1481 -109 1013 -844 
L 513 -844 
Q 928 -128 1133 580 
Q 1338 1288 1338 2009 
Q 1338 2731 1133 3434 
Q 928 4138 513 4856 
z
" transform="scale(0.015625)"/>
       <path id="DejaVuSans-20" transform="scale(0.015625)"/>
       <path id="DejaVuSans-48" d="M 628 4666 
L 1259 4666 
L 1259 2753 
L 3553 2753 
L 3553 4666 
L 4184 4666 
L 4184 0 
L 3553 0 
L 3553 2222 
L 1259 2222 
L 1259 0 
L 628 0 
L 628 4666 
z
" transform="scale(0.015625)"/>
       <path id="DejaVuSans-79" d="M 2059 -325 
Q 1816 -950 1584 -1140 
Q 1353 -1331 966 -1331 
L 506 -1331 
L 506 -850 
L 844 -850 
Q 1081 -850 1212 -737 
Q 1344 -625 1503 -206 
L 1606 56 
L 191 3500 
L 800 3500 
L 1894 763 
L 2988 3500 
L 3597 3500 
L 2059 -325 
z
" transform="scale(0.015625)"/>
       <path id="DejaVuSans-70" d="M 1159 525 
L 1159 -1331 
L 581 -1331 
L 581 3500 
L 1159 3500 
L 1159 2969 
Q 1341 3281 1617 3432 
Q 1894 3584 2278 3584 
Q 2916 3584 3314 3078 
Q 3713 2572 3713 1747 
Q 3713 922 3314 415 
Q 2916 -91 2278 -91 
Q 1894 -91 1617 61 
Q 1341 213 1159 525 
z
M 3116 1747 
Q 3116 2381 2855 2742 
Q 2594 3103 2138 3103 
Q 1681 3103 1420 2742 
Q 1159 2381 1159 1747 
Q 1159 1113 1420 752 
Q 1681 391 2138 391 
Q 2594 391 2855 752 
Q 3116 1113 3116 1747 
z
" transform="scale(0.015625)"/>
       <path id="DejaVuSans-65" d="M 3597 1894 
L 3597 1613 
L 953 1613 
Q 991 1019 1311 708 
Q 1631 397 2203 397 
Q 2534 397 2845 478 
Q 3156 559 3463 722 
L 3463 178 
Q 3153 47 2828 -22 
Q 2503 -91 2169 -91 
Q 1331 -91 842 396 
Q 353 884 353 1716 
Q 353 2575 817 3079 
Q 1281 3584 2069 3584 
Q 2775 3584 3186 3129 
Q 3597 2675 3597 1894 
z
M 3022 2063 
Q 3016 2534 2758 2815 
Q 2500 3097 2075 3097 
Q 1594 3097 1305 2825 
Q 1016 2553 972 2059 
L 3022 2063 
z
" transform="scale(0.015625)"/>
       <path id="DejaVuSans-72" d="M 2631 2963 
Q 2534 3019 2420 3045 
Q 2306 3072 2169 3072 
Q 1681 3072 1420 2755 
Q 1159 2438 1159 1844 
L 1159 0 
L 581 0 
L 581 3500 
L 1159 3500 
L 1159 2956 
Q 1341 3275 1631 3429 
Q 1922 3584 2338 3584 
Q 2397 3584 2469 3576 
Q 2541 3569 2628 3553 
L 2631 2963 
z
" transform="scale(0.015625)"/>
       <path id="DejaVuSans-50" d="M 1259 4147 
L 1259 2394 
L 2053 2394 
Q 2494 2394 2734 2622 
Q 2975 2850 2975 3272 
Q 2975 3691 2734 3919 
Q 2494 4147 2053 4147 
L 1259 4147 
z
M 628 4666 
L 2053 4666 
Q 2838 4666 3239 4311 
Q 3641 3956 3641 3272 
Q 3641 2581 3239 2228 
Q 2838 1875 2053 1875 
L 1259 1875 
L 1259 0 
L 628 0 
L 628 4666 
z
" transform="scale(0.015625)"/>
      </defs>
      <use xlink:href="#DejaVuSans-28"/>
      <use xlink:href="#DejaVuSans-25" x="39.013672"/>
      <use xlink:href="#DejaVuSans-29" x="134.033203"/>
      <use xlink:href="#DejaVuSans-20" x="173.046875"/>
      <use xlink:href="#DejaVuSans-48" x="204.833984"/>
      <use xlink:href="#DejaVuSans-79" x="280.029297"/>
      <use xlink:href="#DejaVuSans-70" x="339.208984"/>
      <use xlink:href="#DejaVuSans-65" x="402.685547"/>
      <use xlink:href="#DejaVuSans-72" x="464.208984"/>
      <use xlink:href="#DejaVuSans-50" x="505.322266"/>
     </g>
     <!-- at 4 dpi -->
     <g transform="translate(122.170469 224.8725)scale(0.1 -0.1)">
      <defs>
       <path id="DejaVuSans-61" d="M 2194 1759 
Q 1497 1759 1228 1600 
Q 959 1441 959 1056 
Q 959 750 1161 570 
Q 1363 391 1709 391 
Q 2188 391 2477 730 
Q 2766 1069 2766 1631 
L 2766 1759 
L 2194 1759 
z
M 3341 1997 
L 3341 0 
L 2766 0 
L 2766 531 
Q 2569 213 2275 61 
Q 1981 -91 1556 -91 
Q 1019 -91 701 211 
Q 384 513 384 1019 
Q 384 1609 779 1909 
Q 1175 2209 1959 2209 
L 2766 2209 
L 2766 2266 
Q 2766 2663 2505 2880 
Q 2244 3097 1772 3097 
Q 1472 3097 1187 3025 
Q 903 2953 641 2809 
L 641 3341 
Q 956 3463 1253 3523 
Q 1550 3584 1831 3584 
Q 2591 3584 2966 3190 
Q 3341 2797 3341 1997 
z
" transform="scale(0.015625)"/>
       <path id="DejaVuSans-74" d="M 1172 4494 
L 1172 3500 
L 2356 3500 
L 2356 3053 
L 1172 3053 
L 1172 1153 
Q 1172 725 1289 603 
Q 1406 481 1766 481 
L 2356 481 
L 2356 0 
L 1766 0 
Q 1100 0 847 248 
Q 594 497 594 1153 
L 594 3053 
L 172 3053 
L 172 3500 
L 594 3500 
L 594 4494 
L 1172 4494 
z
" transform="scale(0.015625)"/>
       <path id="DejaVuSans-64" d="M 2906 2969 
L 2906 4863 
L 3481 4863 
L 3481 0 
L 2906 0 
L 2906 525 
Q 2725 213 2448 61 
Q 2172 -91 1784 -91 
Q 1150 -91 751 415 
Q 353 922 353 1747 
Q 353 2572 751 3078 
Q 1150 3584 1784 3584 
Q 2172 3584 2448 3432 
Q 2725 3281 2906 2969 
z
M 947 1747 
Q 947 1113 1208 752 
Q 1469 391 1925 391 
Q 2381 391 2643 752 
Q 2906 1113 2906 1747 
Q 2906 2381 2643 2742 
Q 2381 3103 1925 3103 
Q 1469 3103 1208 2742 
Q 947 2381 947 1747 
z
" transform="scale(0.015625)"/>
       <path id="DejaVuSans-69" d="M 603 3500 
L 1178 3500 
L 1178 0 
L 603 0 
L 603 3500 
z
M 603 4863 
L 1178 4863 
L 1178 4134 
L 603 4134 
L 603 4863 
z
" transform="scale(0.015625)"/>
      </defs>
      <use xlink:href="#DejaVuSans-61"/>
      <use xlink:href="#DejaVuSans-74" x="61.279297"/>
      <use xlink:href="#DejaVuSans-20" x="100.488281"/>
      <use xlink:href="#DejaVuSans-34" x="132.275391"/>
      <use xlink:href="#DejaVuSans-20" x="195.898438"/>
      <use xlink:href="#DejaVuSans-64" x="227.685547"/>
      <use xlink:href="#DejaVuSans-70" x="291.162109"/>
      <use xlink:href="#DejaVuSans-69" x="354.638672"/>
     </g>
    </g>
   </g>
   <g id="matplotlib.axis_2">
    <g id="ytick_1">
     <g id="line2d_5">
      <defs>
       <path id="m3d8fbc3151" d="M 0 0 
L -3.5 0 
" style="stroke: #000000; stroke-width: 0.8"/>
      </defs>
      <g>
       <use xlink:href="#m3d8fbc3151" x="57.591563" y="184.318125" style="stroke: #000000; stroke-width: 0.8"/>
      </g>
     </g>
     <g id="text_6">
      <!-- 0 -->
      <g transform="translate(44.229062 188.117344)scale(0.1 -0.1)">
       <use xlink:href="#DejaVuSans-30"/>
      </g>
     </g>
    </g>
    <g id="ytick_2">
     <g id="line2d_6">
      <g>
       <use xlink:href="#m3d8fbc3151" x="57.591563" y="130.318125" style="stroke: #000000; stroke-width: 0.8"/>
      </g>
     </g>
     <g id="text_7">
      <!-- 5k -->
      <g transform="translate(38.438437 134.117344)scale(0.1 -0.1)">
       <defs>
        <path id="DejaVuSans-35" d="M 691 4666 
L 3169 4666 
L 3169 4134 
L 1269 4134 
L 1269 2991 
Q 1406 3038 1543 3061 
Q 1681 3084 1819 3084 
Q 2600 3084 3056 2656 
Q 3513 2228 3513 1497 
Q 3513 744 3044 326 
Q 2575 -91 1722 -91 
Q 1428 -91 1123 -41 
Q 819 9 494 109 
L 494 744 
Q 775 591 1075 516 
Q 1375 441 1709 441 
Q 2250 441 2565 725 
Q 2881 1009 2881 1497 
Q 2881 1984 2565 2268 
Q 2250 2553 1709 2553 
Q 1456 2553 1204 2497 
Q 953 2441 691 2322 
L 691 4666 
z
" transform="scale(0.015625)"/>
        <path id="DejaVuSans-6b" d="M 581 4863 
L 1159 4863 
L 1159 1991 
L 2875 3500 
L 3609 3500 
L 1753 1863 
L 3688 0 
L 2938 0 
L 1159 1709 
L 1159 0 
L 581 0 
L 581 4863 
z
" transform="scale(0.015625)"/>
       </defs>
       <use xlink:href="#DejaVuSans-35"/>
       <use xlink:href="#DejaVuSans-6b" x="63.623047"/>
      </g>
     </g>
    </g>
    <g id="ytick_3">
     <g id="line2d_7">
      <g>
       <use xlink:href="#m3d8fbc3151" x="57.591563" y="76.318125" style="stroke: #000000; stroke-width: 0.8"/>
      </g>
     </g>
     <g id="text_8">
      <!-- 10k -->
      <g transform="translate(32.075938 80.117344)scale(0.1 -0.1)">
       <defs>
        <path id="DejaVuSans-31" d="M 794 531 
L 1825 531 
L 1825 4091 
L 703 3866 
L 703 4441 
L 1819 4666 
L 2450 4666 
L 2450 531 
L 3481 531 
L 3481 0 
L 794 0 
L 794 531 
z
" transform="scale(0.015625)"/>
       </defs>
       <use xlink:href="#DejaVuSans-31"/>
       <use xlink:href="#DejaVuSans-30" x="63.623047"/>
       <use xlink:href="#DejaVuSans-6b" x="127.246094"/>
      </g>
     </g>
    </g>
    <g id="ytick_4">
     <g id="line2d_8">
      <g>
       <use xlink:href="#m3d8fbc3151" x="57.591563" y="22.318125" style="stroke: #000000; stroke-width: 0.8"/>
      </g>
     </g>
     <g id="text_9">
      <!-- 15k -->
      <g transform="translate(32.075938 26.117344)scale(0.1 -0.1)">
       <use xlink:href="#DejaVuSans-31"/>
       <use xlink:href="#DejaVuSans-35" x="63.623047"/>
       <use xlink:href="#DejaVuSans-6b" x="127.246094"/>
      </g>
     </g>
    </g>
    <g id="text_10">
     <!-- (#) Total hyperP -->
     <g transform="translate(14.798438 144.253438)rotate(-90)scale(0.1 -0.1)">
      <defs>
       <path id="DejaVuSans-23" d="M 3272 2816 
L 2363 2816 
L 2100 1772 
L 3016 1772 
L 3272 2816 
z
M 2803 4594 
L 2478 3297 
L 3391 3297 
L 3719 4594 
L 4219 4594 
L 3897 3297 
L 4872 3297 
L 4872 2816 
L 3775 2816 
L 3519 1772 
L 4513 1772 
L 4513 1294 
L 3397 1294 
L 3072 0 
L 2572 0 
L 2894 1294 
L 1978 1294 
L 1656 0 
L 1153 0 
L 1478 1294 
L 494 1294 
L 494 1772 
L 1594 1772 
L 1856 2816 
L 850 2816 
L 850 3297 
L 1978 3297 
L 2297 4594 
L 2803 4594 
z
" transform="scale(0.015625)"/>
       <path id="DejaVuSans-54" d="M -19 4666 
L 3928 4666 
L 3928 4134 
L 2272 4134 
L 2272 0 
L 1638 0 
L 1638 4134 
L -19 4134 
L -19 4666 
z
" transform="scale(0.015625)"/>
       <path id="DejaVuSans-6f" d="M 1959 3097 
Q 1497 3097 1228 2736 
Q 959 2375 959 1747 
Q 959 1119 1226 758 
Q 1494 397 1959 397 
Q 2419 397 2687 759 
Q 2956 1122 2956 1747 
Q 2956 2369 2687 2733 
Q 2419 3097 1959 3097 
z
M 1959 3584 
Q 2709 3584 3137 3096 
Q 3566 2609 3566 1747 
Q 3566 888 3137 398 
Q 2709 -91 1959 -91 
Q 1206 -91 779 398 
Q 353 888 353 1747 
Q 353 2609 779 3096 
Q 1206 3584 1959 3584 
z
" transform="scale(0.015625)"/>
       <path id="DejaVuSans-6c" d="M 603 4863 
L 1178 4863 
L 1178 0 
L 603 0 
L 603 4863 
z
" transform="scale(0.015625)"/>
       <path id="DejaVuSans-68" d="M 3513 2113 
L 3513 0 
L 2938 0 
L 2938 2094 
Q 2938 2591 2744 2837 
Q 2550 3084 2163 3084 
Q 1697 3084 1428 2787 
Q 1159 2491 1159 1978 
L 1159 0 
L 581 0 
L 581 4863 
L 1159 4863 
L 1159 2956 
Q 1366 3272 1645 3428 
Q 1925 3584 2291 3584 
Q 2894 3584 3203 3211 
Q 3513 2838 3513 2113 
z
" transform="scale(0.015625)"/>
      </defs>
      <use xlink:href="#DejaVuSans-28"/>
      <use xlink:href="#DejaVuSans-23" x="39.013672"/>
      <use xlink:href="#DejaVuSans-29" x="122.802734"/>
      <use xlink:href="#DejaVuSans-20" x="161.816406"/>
      <use xlink:href="#DejaVuSans-54" x="193.603516"/>
      <use xlink:href="#DejaVuSans-6f" x="237.6875"/>
      <use xlink:href="#DejaVuSans-74" x="298.869141"/>
      <use xlink:href="#DejaVuSans-61" x="338.078125"/>
      <use xlink:href="#DejaVuSans-6c" x="399.357422"/>
      <use xlink:href="#DejaVuSans-20" x="427.140625"/>
      <use xlink:href="#DejaVuSans-68" x="458.927734"/>
      <use xlink:href="#DejaVuSans-79" x="522.306641"/>
      <use xlink:href="#DejaVuSans-70" x="581.486328"/>
      <use xlink:href="#DejaVuSans-65" x="644.962891"/>
      <use xlink:href="#DejaVuSans-72" x="706.486328"/>
      <use xlink:href="#DejaVuSans-50" x="747.599609"/>
     </g>
     <!-- at 4 dpi -->
     <g transform="translate(25.99625 122.979219)rotate(-90)scale(0.1 -0.1)">
      <use xlink:href="#DejaVuSans-61"/>
      <use xlink:href="#DejaVuSans-74" x="61.279297"/>
      <use xlink:href="#DejaVuSans-20" x="100.488281"/>
      <use xlink:href="#DejaVuSans-34" x="132.275391"/>
      <use xlink:href="#DejaVuSans-20" x="195.898438"/>
      <use xlink:href="#DejaVuSans-64" x="227.685547"/>
      <use xlink:href="#DejaVuSans-70" x="291.162109"/>
      <use xlink:href="#DejaVuSans-69" x="354.638672"/>
     </g>
    </g>
   </g>
   <g id="LineCollection_1">
    <path d="M 196.998455 48.165225 
L 200.977498 48.165225 
" clip-path="url(#p1e656a1e72)" style="fill: none; stroke: #000000; stroke-width: 0.5"/>
    <path d="M 179.454284 73.612725 
L 184.996759 73.612725 
" clip-path="url(#p1e656a1e72)" style="fill: none; stroke: #000000; stroke-width: 0.5"/>
    <path d="M 200.077374 71.541825 
L 203.51879 71.541825 
" clip-path="url(#p1e656a1e72)" style="fill: none; stroke: #000000; stroke-width: 0.5"/>
    <path d="M 198.313173 91.643325 
L 206.017624 91.643325 
" clip-path="url(#p1e656a1e72)" style="fill: none; stroke: #000000; stroke-width: 0.5"/>
    <path d="M 161.771833 128.519925 
L 166.145575 128.519925 
" clip-path="url(#p1e656a1e72)" style="fill: none; stroke: #000000; stroke-width: 0.5"/>
    <path d="M 148.52062 132.370125 
L 153.160775 132.370125 
" clip-path="url(#p1e656a1e72)" style="fill: none; stroke: #000000; stroke-width: 0.5"/>
    <path d="M 145.778084 153.943125 
L 148.505356 153.943125 
" clip-path="url(#p1e656a1e72)" style="fill: none; stroke: #000000; stroke-width: 0.5"/>
    <path d="M 158.807445 150.757125 
L 163.215728 150.757125 
" clip-path="url(#p1e656a1e72)" style="fill: none; stroke: #000000; stroke-width: 0.5"/>
    <path d="M 106.781993 159.912825 
L 111.600624 159.912825 
" clip-path="url(#p1e656a1e72)" style="fill: none; stroke: #000000; stroke-width: 0.5"/>
    <path d="M 106.683137 157.644825 
L 111.489144 157.644825 
" clip-path="url(#p1e656a1e72)" style="fill: none; stroke: #000000; stroke-width: 0.5"/>
    <path d="M 107.425029 162.321225 
L 110.642064 162.321225 
" clip-path="url(#p1e656a1e72)" style="fill: none; stroke: #000000; stroke-width: 0.5"/>
    <path d="M 105.956572 164.826825 
L 111.353746 164.826825 
" clip-path="url(#p1e656a1e72)" style="fill: none; stroke: #000000; stroke-width: 0.5"/>
    <path d="M 195.770241 81.642525 
L 206.259294 81.642525 
" clip-path="url(#p1e656a1e72)" style="fill: none; stroke: #000000; stroke-width: 0.5"/>
    <path d="M 164.900613 114.836325 
L 172.241096 114.836325 
" clip-path="url(#p1e656a1e72)" style="fill: none; stroke: #000000; stroke-width: 0.5"/>
    <path d="M 189.998991 88.373625 
L 194.774308 88.373625 
" clip-path="url(#p1e656a1e72)" style="fill: none; stroke: #000000; stroke-width: 0.5"/>
    <path d="M 190.970338 114.142425 
L 193.828956 114.142425 
" clip-path="url(#p1e656a1e72)" style="fill: none; stroke: #000000; stroke-width: 0.5"/>
   </g>
   <g id="LineCollection_2">
    <path d="M 198.987977 57.470157 
L 198.987977 38.860293 
" clip-path="url(#p1e656a1e72)" style="fill: none; stroke: #000000; stroke-width: 0.5"/>
    <path d="M 182.225522 77.803305 
L 182.225522 69.422145 
" clip-path="url(#p1e656a1e72)" style="fill: none; stroke: #000000; stroke-width: 0.5"/>
    <path d="M 201.798082 81.797488 
L 201.798082 61.286162 
" clip-path="url(#p1e656a1e72)" style="fill: none; stroke: #000000; stroke-width: 0.5"/>
    <path d="M 202.165398 94.446173 
L 202.165398 88.840477 
" clip-path="url(#p1e656a1e72)" style="fill: none; stroke: #000000; stroke-width: 0.5"/>
    <path d="M 163.958704 130.866743 
L 163.958704 126.173107 
" clip-path="url(#p1e656a1e72)" style="fill: none; stroke: #000000; stroke-width: 0.5"/>
    <path d="M 150.840698 133.510007 
L 150.840698 131.230243 
" clip-path="url(#p1e656a1e72)" style="fill: none; stroke: #000000; stroke-width: 0.5"/>
    <path d="M 147.14172 157.345212 
L 147.14172 150.541038 
" clip-path="url(#p1e656a1e72)" style="fill: none; stroke: #000000; stroke-width: 0.5"/>
    <path d="M 161.011587 154.218806 
L 161.011587 147.295444 
" clip-path="url(#p1e656a1e72)" style="fill: none; stroke: #000000; stroke-width: 0.5"/>
    <path d="M 109.191308 160.895134 
L 109.191308 158.930516 
" clip-path="url(#p1e656a1e72)" style="fill: none; stroke: #000000; stroke-width: 0.5"/>
    <path d="M 109.08614 159.222552 
L 109.08614 156.067098 
" clip-path="url(#p1e656a1e72)" style="fill: none; stroke: #000000; stroke-width: 0.5"/>
    <path d="M 109.033546 163.679647 
L 109.033546 160.962803 
" clip-path="url(#p1e656a1e72)" style="fill: none; stroke: #000000; stroke-width: 0.5"/>
    <path d="M 108.655159 167.049887 
L 108.655159 162.603763 
" clip-path="url(#p1e656a1e72)" style="fill: none; stroke: #000000; stroke-width: 0.5"/>
    <path d="M 201.014767 87.546779 
L 201.014767 75.738271 
" clip-path="url(#p1e656a1e72)" style="fill: none; stroke: #000000; stroke-width: 0.5"/>
    <path d="M 168.570854 117.600508 
L 168.570854 112.072142 
" clip-path="url(#p1e656a1e72)" style="fill: none; stroke: #000000; stroke-width: 0.5"/>
    <path d="M 192.386649 93.161917 
L 192.386649 83.585333 
" clip-path="url(#p1e656a1e72)" style="fill: none; stroke: #000000; stroke-width: 0.5"/>
    <path d="M 192.399647 121.315601 
L 192.399647 106.969249 
" clip-path="url(#p1e656a1e72)" style="fill: none; stroke: #000000; stroke-width: 0.5"/>
   </g>
   <g id="line2d_9">
    <path d="M 57.591563 176.742111 
L 66.271477 175.154143 
L 74.38475 173.446069 
L 81.982894 171.621848 
L 89.168936 169.669489 
L 95.968631 167.592851 
L 102.433493 165.386797 
L 108.589278 163.052328 
L 114.487498 160.578222 
L 120.128155 157.97238 
L 125.56276 155.217986 
L 130.81707 152.305853 
L 135.891085 149.239837 
L 140.810561 146.00797 
L 145.601256 142.594337 
L 150.263168 138.999078 
L 154.822055 135.201282 
L 159.277916 131.198497 
L 163.630751 126.989175 
L 167.906317 122.545025 
L 172.104614 117.860541 
L 176.251398 112.898884 
L 180.346669 107.648994 
L 184.390427 102.099791 
L 188.382672 96.240216 
L 192.323405 90.059271 
L 196.238381 83.501498 
L 200.101844 76.594785 
L 203.939551 69.27743 
L 207.751502 61.528709 
L 211.537696 53.327103 
L 215.32389 44.588953 
L 219.084327 35.344504 
L 222.819008 25.569093 
L 225.008304 19.548084 
L 225.008304 19.548084 
" clip-path="url(#p1e656a1e72)" style="fill: none; stroke-dasharray: 5.55,2.4; stroke-dashoffset: 0; stroke: #808080; stroke-width: 1.5"/>
   </g>
   <g id="line2d_10">
    <path d="M 198.987977 48.165225 
L 182.225522 73.612725 
L 201.798082 71.541825 
L 202.165398 91.643325 
L 163.958704 128.519925 
L 150.840698 132.370125 
L 147.14172 153.943125 
L 161.011587 150.757125 
L 109.191308 159.912825 
L 109.08614 157.644825 
L 109.033546 162.321225 
L 108.655159 164.826825 
L 201.014767 81.642525 
L 168.570854 114.836325 
L 192.386649 88.373625 
L 192.399647 114.142425 
" clip-path="url(#p1e656a1e72)" style="fill: none; stroke: #000000; stroke-opacity: 0; stroke-width: 1.5; stroke-linecap: square"/>
   </g>
   <g id="patch_3">
    <path d="M 57.591563 185.398125 
L 57.591563 22.318125 
" style="fill: none; stroke: #000000; stroke-width: 0.8; stroke-linejoin: miter; stroke-linecap: square"/>
   </g>
   <g id="patch_4">
    <path d="M 224.991563 185.398125 
L 224.991563 22.318125 
" style="fill: none; stroke: #000000; stroke-width: 0.8; stroke-linejoin: miter; stroke-linecap: square"/>
   </g>
   <g id="patch_5">
    <path d="M 57.591563 185.398125 
L 224.991563 185.398125 
" style="fill: none; stroke: #000000; stroke-width: 0.8; stroke-linejoin: miter; stroke-linecap: square"/>
   </g>
   <g id="patch_6">
    <path d="M 57.591563 22.318125 
L 224.991563 22.318125 
" style="fill: none; stroke: #000000; stroke-width: 0.8; stroke-linejoin: miter; stroke-linecap: square"/>
   </g>
   <g id="text_11">
    <!-- R$^2$ = 0.83 -->
    <g style="fill: #808080" transform="translate(66.771563 38.626125)scale(0.1 -0.1)">
     <defs>
      <path id="DejaVuSans-52" d="M 2841 2188 
Q 3044 2119 3236 1894 
Q 3428 1669 3622 1275 
L 4263 0 
L 3584 0 
L 2988 1197 
Q 2756 1666 2539 1819 
Q 2322 1972 1947 1972 
L 1259 1972 
L 1259 0 
L 628 0 
L 628 4666 
L 2053 4666 
Q 2853 4666 3247 4331 
Q 3641 3997 3641 3322 
Q 3641 2881 3436 2590 
Q 3231 2300 2841 2188 
z
M 1259 4147 
L 1259 2491 
L 2053 2491 
Q 2509 2491 2742 2702 
Q 2975 2913 2975 3322 
Q 2975 3731 2742 3939 
Q 2509 4147 2053 4147 
L 1259 4147 
z
" transform="scale(0.015625)"/>
      <path id="DejaVuSans-3d" d="M 678 2906 
L 4684 2906 
L 4684 2381 
L 678 2381 
L 678 2906 
z
M 678 1631 
L 4684 1631 
L 4684 1100 
L 678 1100 
L 678 1631 
z
" transform="scale(0.015625)"/>
      <path id="DejaVuSans-2e" d="M 684 794 
L 1344 794 
L 1344 0 
L 684 0 
L 684 794 
z
" transform="scale(0.015625)"/>
      <path id="DejaVuSans-38" d="M 2034 2216 
Q 1584 2216 1326 1975 
Q 1069 1734 1069 1313 
Q 1069 891 1326 650 
Q 1584 409 2034 409 
Q 2484 409 2743 651 
Q 3003 894 3003 1313 
Q 3003 1734 2745 1975 
Q 2488 2216 2034 2216 
z
M 1403 2484 
Q 997 2584 770 2862 
Q 544 3141 544 3541 
Q 544 4100 942 4425 
Q 1341 4750 2034 4750 
Q 2731 4750 3128 4425 
Q 3525 4100 3525 3541 
Q 3525 3141 3298 2862 
Q 3072 2584 2669 2484 
Q 3125 2378 3379 2068 
Q 3634 1759 3634 1313 
Q 3634 634 3220 271 
Q 2806 -91 2034 -91 
Q 1263 -91 848 271 
Q 434 634 434 1313 
Q 434 1759 690 2068 
Q 947 2378 1403 2484 
z
M 1172 3481 
Q 1172 3119 1398 2916 
Q 1625 2713 2034 2713 
Q 2441 2713 2670 2916 
Q 2900 3119 2900 3481 
Q 2900 3844 2670 4047 
Q 2441 4250 2034 4250 
Q 1625 4250 1398 4047 
Q 1172 3844 1172 3481 
z
" transform="scale(0.015625)"/>
      <path id="DejaVuSans-33" d="M 2597 2516 
Q 3050 2419 3304 2112 
Q 3559 1806 3559 1356 
Q 3559 666 3084 287 
Q 2609 -91 1734 -91 
Q 1441 -91 1130 -33 
Q 819 25 488 141 
L 488 750 
Q 750 597 1062 519 
Q 1375 441 1716 441 
Q 2309 441 2620 675 
Q 2931 909 2931 1356 
Q 2931 1769 2642 2001 
Q 2353 2234 1838 2234 
L 1294 2234 
L 1294 2753 
L 1863 2753 
Q 2328 2753 2575 2939 
Q 2822 3125 2822 3475 
Q 2822 3834 2567 4026 
Q 2313 4219 1838 4219 
Q 1578 4219 1281 4162 
Q 984 4106 628 3988 
L 628 4550 
Q 988 4650 1302 4700 
Q 1616 4750 1894 4750 
Q 2613 4750 3031 4423 
Q 3450 4097 3450 3541 
Q 3450 3153 3228 2886 
Q 3006 2619 2597 2516 
z
" transform="scale(0.015625)"/>
     </defs>
     <use xlink:href="#DejaVuSans-52" transform="translate(0 0.765625)"/>
     <use xlink:href="#DejaVuSans-32" transform="translate(70.439453 39.046875)scale(0.7)"/>
     <use xlink:href="#DejaVuSans-20" transform="translate(117.709961 0.765625)"/>
     <use xlink:href="#DejaVuSans-3d" transform="translate(149.49707 0.765625)"/>
     <use xlink:href="#DejaVuSans-20" transform="translate(233.286133 0.765625)"/>
     <use xlink:href="#DejaVuSans-30" transform="translate(265.073242 0.765625)"/>
     <use xlink:href="#DejaVuSans-2e" transform="translate(328.696289 0.765625)"/>
     <use xlink:href="#DejaVuSans-38" transform="translate(357.858398 0.765625)"/>
     <use xlink:href="#DejaVuSans-33" transform="translate(421.481445 0.765625)"/>
    </g>
   </g>
   <g id="text_12">
    <!-- 4 dpi -->
    <g transform="translate(126.282187 16.318125)scale(0.12 -0.12)">
     <use xlink:href="#DejaVuSans-34"/>
     <use xlink:href="#DejaVuSans-20" x="63.623047"/>
     <use xlink:href="#DejaVuSans-64" x="95.410156"/>
     <use xlink:href="#DejaVuSans-70" x="158.886719"/>
     <use xlink:href="#DejaVuSans-69" x="222.363281"/>
    </g>
   </g>
   <g id="legend_1">
    <g id="text_13">
     <!-- cond -->
     <g transform="translate(261.991562 38.916562)scale(0.1 -0.1)">
      <defs>
       <path id="DejaVuSans-63" d="M 3122 3366 
L 3122 2828 
Q 2878 2963 2633 3030 
Q 2388 3097 2138 3097 
Q 1578 3097 1268 2742 
Q 959 2388 959 1747 
Q 959 1106 1268 751 
Q 1578 397 2138 397 
Q 2388 397 2633 464 
Q 2878 531 3122 666 
L 3122 134 
Q 2881 22 2623 -34 
Q 2366 -91 2075 -91 
Q 1284 -91 818 406 
Q 353 903 353 1747 
Q 353 2603 823 3093 
Q 1294 3584 2113 3584 
Q 2378 3584 2631 3529 
Q 2884 3475 3122 3366 
z
" transform="scale(0.015625)"/>
       <path id="DejaVuSans-6e" d="M 3513 2113 
L 3513 0 
L 2938 0 
L 2938 2094 
Q 2938 2591 2744 2837 
Q 2550 3084 2163 3084 
Q 1697 3084 1428 2787 
Q 1159 2491 1159 1978 
L 1159 0 
L 581 0 
L 581 3500 
L 1159 3500 
L 1159 2956 
Q 1366 3272 1645 3428 
Q 1925 3584 2291 3584 
Q 2894 3584 3203 3211 
Q 3513 2838 3513 2113 
z
" transform="scale(0.015625)"/>
      </defs>
      <use xlink:href="#DejaVuSans-63"/>
      <use xlink:href="#DejaVuSans-6f" x="54.980469"/>
      <use xlink:href="#DejaVuSans-6e" x="116.162109"/>
      <use xlink:href="#DejaVuSans-64" x="179.541016"/>
     </g>
    </g>
    <g id="PathCollection_10">
     <defs>
      <path id="mdc50cad0c3" d="M 0 3 
C 0.795609 3 1.55874 2.683901 2.12132 2.12132 
C 2.683901 1.55874 3 0.795609 3 0 
C 3 -0.795609 2.683901 -1.55874 2.12132 -2.12132 
C 1.55874 -2.683901 0.795609 -3 0 -3 
C -0.795609 -3 -1.55874 -2.683901 -2.12132 -2.12132 
C -2.683901 -1.55874 -3 -0.795609 -3 0 
C -3 0.795609 -2.683901 1.55874 -2.12132 2.12132 
C -1.55874 2.683901 -0.795609 3 0 3 
z
" style="stroke: #808080"/>
     </defs>
     <g>
      <use xlink:href="#mdc50cad0c3" x="243.991563" y="50.969688" style="fill: #808080; stroke: #808080"/>
     </g>
    </g>
    <g id="text_14">
     <!-- Ctrl-puro -->
     <g transform="translate(261.991562 53.594688)scale(0.1 -0.1)">
      <defs>
       <path id="DejaVuSans-43" d="M 4122 4306 
L 4122 3641 
Q 3803 3938 3442 4084 
Q 3081 4231 2675 4231 
Q 1875 4231 1450 3742 
Q 1025 3253 1025 2328 
Q 1025 1406 1450 917 
Q 1875 428 2675 428 
Q 3081 428 3442 575 
Q 3803 722 4122 1019 
L 4122 359 
Q 3791 134 3420 21 
Q 3050 -91 2638 -91 
Q 1578 -91 968 557 
Q 359 1206 359 2328 
Q 359 3453 968 4101 
Q 1578 4750 2638 4750 
Q 3056 4750 3426 4639 
Q 3797 4528 4122 4306 
z
" transform="scale(0.015625)"/>
       <path id="DejaVuSans-2d" d="M 313 2009 
L 1997 2009 
L 1997 1497 
L 313 1497 
L 313 2009 
z
" transform="scale(0.015625)"/>
       <path id="DejaVuSans-75" d="M 544 1381 
L 544 3500 
L 1119 3500 
L 1119 1403 
Q 1119 906 1312 657 
Q 1506 409 1894 409 
Q 2359 409 2629 706 
Q 2900 1003 2900 1516 
L 2900 3500 
L 3475 3500 
L 3475 0 
L 2900 0 
L 2900 538 
Q 2691 219 2414 64 
Q 2138 -91 1772 -91 
Q 1169 -91 856 284 
Q 544 659 544 1381 
z
M 1991 3584 
L 1991 3584 
z
" transform="scale(0.015625)"/>
      </defs>
      <use xlink:href="#DejaVuSans-43"/>
      <use xlink:href="#DejaVuSans-74" x="69.824219"/>
      <use xlink:href="#DejaVuSans-72" x="109.033203"/>
      <use xlink:href="#DejaVuSans-6c" x="150.146484"/>
      <use xlink:href="#DejaVuSans-2d" x="177.929688"/>
      <use xlink:href="#DejaVuSans-70" x="214.013672"/>
      <use xlink:href="#DejaVuSans-75" x="277.490234"/>
      <use xlink:href="#DejaVuSans-72" x="340.869141"/>
      <use xlink:href="#DejaVuSans-6f" x="379.732422"/>
     </g>
    </g>
    <g id="PathCollection_11">
     <defs>
      <path id="md283d45a3d" d="M 0 3 
C 0.795609 3 1.55874 2.683901 2.12132 2.12132 
C 2.683901 1.55874 3 0.795609 3 0 
C 3 -0.795609 2.683901 -1.55874 2.12132 -2.12132 
C 1.55874 -2.683901 0.795609 -3 0 -3 
C -0.795609 -3 -1.55874 -2.683901 -2.12132 -2.12132 
C -2.683901 -1.55874 -3 -0.795609 -3 0 
C -3 0.795609 -2.683901 1.55874 -2.12132 2.12132 
C -1.55874 2.683901 -0.795609 3 0 3 
z
" style="stroke: #d62728"/>
     </defs>
     <g>
      <use xlink:href="#md283d45a3d" x="243.991563" y="65.647813" style="fill: #d62728; stroke: #d62728"/>
     </g>
    </g>
    <g id="text_15">
     <!-- mRuby2 -->
     <g transform="translate(261.991562 68.272813)scale(0.1 -0.1)">
      <defs>
       <path id="DejaVuSans-6d" d="M 3328 2828 
Q 3544 3216 3844 3400 
Q 4144 3584 4550 3584 
Q 5097 3584 5394 3201 
Q 5691 2819 5691 2113 
L 5691 0 
L 5113 0 
L 5113 2094 
Q 5113 2597 4934 2840 
Q 4756 3084 4391 3084 
Q 3944 3084 3684 2787 
Q 3425 2491 3425 1978 
L 3425 0 
L 2847 0 
L 2847 2094 
Q 2847 2600 2669 2842 
Q 2491 3084 2119 3084 
Q 1678 3084 1418 2786 
Q 1159 2488 1159 1978 
L 1159 0 
L 581 0 
L 581 3500 
L 1159 3500 
L 1159 2956 
Q 1356 3278 1631 3431 
Q 1906 3584 2284 3584 
Q 2666 3584 2933 3390 
Q 3200 3197 3328 2828 
z
" transform="scale(0.015625)"/>
       <path id="DejaVuSans-62" d="M 3116 1747 
Q 3116 2381 2855 2742 
Q 2594 3103 2138 3103 
Q 1681 3103 1420 2742 
Q 1159 2381 1159 1747 
Q 1159 1113 1420 752 
Q 1681 391 2138 391 
Q 2594 391 2855 752 
Q 3116 1113 3116 1747 
z
M 1159 2969 
Q 1341 3281 1617 3432 
Q 1894 3584 2278 3584 
Q 2916 3584 3314 3078 
Q 3713 2572 3713 1747 
Q 3713 922 3314 415 
Q 2916 -91 2278 -91 
Q 1894 -91 1617 61 
Q 1341 213 1159 525 
L 1159 0 
L 581 0 
L 581 4863 
L 1159 4863 
L 1159 2969 
z
" transform="scale(0.015625)"/>
      </defs>
      <use xlink:href="#DejaVuSans-6d"/>
      <use xlink:href="#DejaVuSans-52" x="97.412109"/>
      <use xlink:href="#DejaVuSans-75" x="162.394531"/>
      <use xlink:href="#DejaVuSans-62" x="225.773438"/>
      <use xlink:href="#DejaVuSans-79" x="289.25"/>
      <use xlink:href="#DejaVuSans-32" x="348.429688"/>
     </g>
    </g>
    <g id="PathCollection_12">
     <defs>
      <path id="m6378847c63" d="M 0 3 
C 0.795609 3 1.55874 2.683901 2.12132 2.12132 
C 2.683901 1.55874 3 0.795609 3 0 
C 3 -0.795609 2.683901 -1.55874 2.12132 -2.12132 
C 1.55874 -2.683901 0.795609 -3 0 -3 
C -0.795609 -3 -1.55874 -2.683901 -2.12132 -2.12132 
C -2.683901 -1.55874 -3 -0.795609 -3 0 
C -3 0.795609 -2.683901 1.55874 -2.12132 2.12132 
C -1.55874 2.683901 -0.795609 3 0 3 
z
" style="stroke: #1f77b4"/>
     </defs>
     <g>
      <use xlink:href="#m6378847c63" x="243.991563" y="80.325938" style="fill: #1f77b4; stroke: #1f77b4"/>
     </g>
    </g>
    <g id="text_16">
     <!-- Brn2-2A-mRuby2 (MOI=0.1) -->
     <g transform="translate(261.991562 82.950938)scale(0.1 -0.1)">
      <defs>
       <path id="DejaVuSans-42" d="M 1259 2228 
L 1259 519 
L 2272 519 
Q 2781 519 3026 730 
Q 3272 941 3272 1375 
Q 3272 1813 3026 2020 
Q 2781 2228 2272 2228 
L 1259 2228 
z
M 1259 4147 
L 1259 2741 
L 2194 2741 
Q 2656 2741 2882 2914 
Q 3109 3088 3109 3444 
Q 3109 3797 2882 3972 
Q 2656 4147 2194 4147 
L 1259 4147 
z
M 628 4666 
L 2241 4666 
Q 2963 4666 3353 4366 
Q 3744 4066 3744 3513 
Q 3744 3084 3544 2831 
Q 3344 2578 2956 2516 
Q 3422 2416 3680 2098 
Q 3938 1781 3938 1306 
Q 3938 681 3513 340 
Q 3088 0 2303 0 
L 628 0 
L 628 4666 
z
" transform="scale(0.015625)"/>
       <path id="DejaVuSans-41" d="M 2188 4044 
L 1331 1722 
L 3047 1722 
L 2188 4044 
z
M 1831 4666 
L 2547 4666 
L 4325 0 
L 3669 0 
L 3244 1197 
L 1141 1197 
L 716 0 
L 50 0 
L 1831 4666 
z
" transform="scale(0.015625)"/>
       <path id="DejaVuSans-4d" d="M 628 4666 
L 1569 4666 
L 2759 1491 
L 3956 4666 
L 4897 4666 
L 4897 0 
L 4281 0 
L 4281 4097 
L 3078 897 
L 2444 897 
L 1241 4097 
L 1241 0 
L 628 0 
L 628 4666 
z
" transform="scale(0.015625)"/>
       <path id="DejaVuSans-4f" d="M 2522 4238 
Q 1834 4238 1429 3725 
Q 1025 3213 1025 2328 
Q 1025 1447 1429 934 
Q 1834 422 2522 422 
Q 3209 422 3611 934 
Q 4013 1447 4013 2328 
Q 4013 3213 3611 3725 
Q 3209 4238 2522 4238 
z
M 2522 4750 
Q 3503 4750 4090 4092 
Q 4678 3434 4678 2328 
Q 4678 1225 4090 567 
Q 3503 -91 2522 -91 
Q 1538 -91 948 565 
Q 359 1222 359 2328 
Q 359 3434 948 4092 
Q 1538 4750 2522 4750 
z
" transform="scale(0.015625)"/>
       <path id="DejaVuSans-49" d="M 628 4666 
L 1259 4666 
L 1259 0 
L 628 0 
L 628 4666 
z
" transform="scale(0.015625)"/>
      </defs>
      <use xlink:href="#DejaVuSans-42"/>
      <use xlink:href="#DejaVuSans-72" x="68.603516"/>
      <use xlink:href="#DejaVuSans-6e" x="107.966797"/>
      <use xlink:href="#DejaVuSans-32" x="171.345703"/>
      <use xlink:href="#DejaVuSans-2d" x="234.96875"/>
      <use xlink:href="#DejaVuSans-32" x="271.052734"/>
      <use xlink:href="#DejaVuSans-41" x="334.675781"/>
      <use xlink:href="#DejaVuSans-2d" x="400.833984"/>
      <use xlink:href="#DejaVuSans-6d" x="436.917969"/>
      <use xlink:href="#DejaVuSans-52" x="534.330078"/>
      <use xlink:href="#DejaVuSans-75" x="599.3125"/>
      <use xlink:href="#DejaVuSans-62" x="662.691406"/>
      <use xlink:href="#DejaVuSans-79" x="726.167969"/>
      <use xlink:href="#DejaVuSans-32" x="785.347656"/>
      <use xlink:href="#DejaVuSans-20" x="848.970703"/>
      <use xlink:href="#DejaVuSans-28" x="880.757812"/>
      <use xlink:href="#DejaVuSans-4d" x="919.771484"/>
      <use xlink:href="#DejaVuSans-4f" x="1006.050781"/>
      <use xlink:href="#DejaVuSans-49" x="1084.761719"/>
      <use xlink:href="#DejaVuSans-3d" x="1114.253906"/>
      <use xlink:href="#DejaVuSans-30" x="1198.042969"/>
      <use xlink:href="#DejaVuSans-2e" x="1261.666016"/>
      <use xlink:href="#DejaVuSans-31" x="1293.453125"/>
      <use xlink:href="#DejaVuSans-29" x="1357.076172"/>
     </g>
    </g>
    <g id="PathCollection_13">
     <defs>
      <path id="m3174055cf8" d="M 0 3 
C 0.795609 3 1.55874 2.683901 2.12132 2.12132 
C 2.683901 1.55874 3 0.795609 3 0 
C 3 -0.795609 2.683901 -1.55874 2.12132 -2.12132 
C 1.55874 -2.683901 0.795609 -3 0 -3 
C -0.795609 -3 -1.55874 -2.683901 -2.12132 -2.12132 
C -2.683901 -1.55874 -3 -0.795609 -3 0 
C -3 0.795609 -2.683901 1.55874 -2.12132 2.12132 
C -1.55874 2.683901 -0.795609 3 0 3 
z
" style="stroke: #ff7f0e"/>
     </defs>
     <g>
      <use xlink:href="#m3174055cf8" x="243.991563" y="95.004063" style="fill: #ff7f0e; stroke: #ff7f0e"/>
     </g>
    </g>
    <g id="text_17">
     <!-- Brn2-2A-mRuby2 (MOI=5) -->
     <g transform="translate(261.991562 97.629063)scale(0.1 -0.1)">
      <use xlink:href="#DejaVuSans-42"/>
      <use xlink:href="#DejaVuSans-72" x="68.603516"/>
      <use xlink:href="#DejaVuSans-6e" x="107.966797"/>
      <use xlink:href="#DejaVuSans-32" x="171.345703"/>
      <use xlink:href="#DejaVuSans-2d" x="234.96875"/>
      <use xlink:href="#DejaVuSans-32" x="271.052734"/>
      <use xlink:href="#DejaVuSans-41" x="334.675781"/>
      <use xlink:href="#DejaVuSans-2d" x="400.833984"/>
      <use xlink:href="#DejaVuSans-6d" x="436.917969"/>
      <use xlink:href="#DejaVuSans-52" x="534.330078"/>
      <use xlink:href="#DejaVuSans-75" x="599.3125"/>
      <use xlink:href="#DejaVuSans-62" x="662.691406"/>
      <use xlink:href="#DejaVuSans-79" x="726.167969"/>
      <use xlink:href="#DejaVuSans-32" x="785.347656"/>
      <use xlink:href="#DejaVuSans-20" x="848.970703"/>
      <use xlink:href="#DejaVuSans-28" x="880.757812"/>
      <use xlink:href="#DejaVuSans-4d" x="919.771484"/>
      <use xlink:href="#DejaVuSans-4f" x="1006.050781"/>
      <use xlink:href="#DejaVuSans-49" x="1084.761719"/>
      <use xlink:href="#DejaVuSans-3d" x="1114.253906"/>
      <use xlink:href="#DejaVuSans-35" x="1198.042969"/>
      <use xlink:href="#DejaVuSans-29" x="1261.666016"/>
     </g>
    </g>
    <g id="text_18">
     <!-- rep -->
     <g transform="translate(261.991562 112.307188)scale(0.1 -0.1)">
      <use xlink:href="#DejaVuSans-72"/>
      <use xlink:href="#DejaVuSans-65" x="38.863281"/>
      <use xlink:href="#DejaVuSans-70" x="100.386719"/>
     </g>
    </g>
    <g id="PathCollection_14">
     <defs>
      <path id="m929c428061" d="M 0 3 
C 0.795609 3 1.55874 2.683901 2.12132 2.12132 
C 2.683901 1.55874 3 0.795609 3 0 
C 3 -0.795609 2.683901 -1.55874 2.12132 -2.12132 
C 1.55874 -2.683901 0.795609 -3 0 -3 
C -0.795609 -3 -1.55874 -2.683901 -2.12132 -2.12132 
C -2.683901 -1.55874 -3 -0.795609 -3 0 
C -3 0.795609 -2.683901 1.55874 -2.12132 2.12132 
C -1.55874 2.683901 -0.795609 3 0 3 
z
" style="stroke: #333333"/>
     </defs>
     <g>
      <use xlink:href="#m929c428061" x="243.991563" y="124.360313" style="fill: #333333; stroke: #333333"/>
     </g>
    </g>
    <g id="text_19">
     <!-- 1 -->
     <g transform="translate(261.991562 126.985313)scale(0.1 -0.1)">
      <use xlink:href="#DejaVuSans-31"/>
     </g>
    </g>
    <g id="PathCollection_15">
     <defs>
      <path id="m0dee39731b" d="M -1.5 3 
L 0 1.5 
L 1.5 3 
L 3 1.5 
L 1.5 0 
L 3 -1.5 
L 1.5 -3 
L 0 -1.5 
L -1.5 -3 
L -3 -1.5 
L -1.5 0 
L -3 1.5 
z
" style="stroke: #333333"/>
     </defs>
     <g>
      <use xlink:href="#m0dee39731b" x="243.991563" y="139.038437" style="fill: #333333; stroke: #333333"/>
     </g>
    </g>
    <g id="text_20">
     <!-- 2 -->
     <g transform="translate(261.991562 141.663437)scale(0.1 -0.1)">
      <use xlink:href="#DejaVuSans-32"/>
     </g>
    </g>
    <g id="PathCollection_16">
     <defs>
      <path id="m7fa2f86518" d="M -2.12132 -2.12132 
L -2.12132 2.12132 
L 2.12132 2.12132 
L 2.12132 -2.12132 
z
" style="stroke: #333333"/>
     </defs>
     <g>
      <use xlink:href="#m7fa2f86518" x="243.991563" y="153.716563" style="fill: #333333; stroke: #333333"/>
     </g>
    </g>
    <g id="text_21">
     <!-- 3 -->
     <g transform="translate(261.991562 156.341563)scale(0.1 -0.1)">
      <use xlink:href="#DejaVuSans-33"/>
     </g>
    </g>
    <g id="PathCollection_17">
     <defs>
      <path id="m923239a6dc" d="M -1 3 
L 1 3 
L 1 1 
L 3 1 
L 3 -1 
L 1 -1 
L 1 -3 
L -1 -3 
L -1 -1 
L -3 -1 
L -3 1 
L -1 1 
z
" style="stroke: #333333"/>
     </defs>
     <g>
      <use xlink:href="#m923239a6dc" x="243.991563" y="168.394687" style="fill: #333333; stroke: #333333"/>
     </g>
    </g>
    <g id="text_22">
     <!-- 4 -->
     <g transform="translate(261.991562 171.019687)scale(0.1 -0.1)">
      <use xlink:href="#DejaVuSans-34"/>
     </g>
    </g>
   </g>
  </g>
 </g>
 <defs>
  <clipPath id="p1e656a1e72">
   <rect x="57.591563" y="22.318125" width="167.4" height="163.08"/>
  </clipPath>
 </defs>
</svg>
