<?xml version="1.0" encoding="utf-8" standalone="no"?>
<!DOCTYPE svg PUBLIC "-//W3C//DTD SVG 1.1//EN"
  "http://www.w3.org/Graphics/SVG/1.1/DTD/svg11.dtd">
<svg xmlns:xlink="http://www.w3.org/1999/xlink" width="336.867188pt" height="166.114062pt" viewBox="0 0 336.867188 166.114062" xmlns="http://www.w3.org/2000/svg" version="1.1">
 <metadata>
  <rdf:RDF xmlns:dc="http://purl.org/dc/elements/1.1/" xmlns:cc="http://creativecommons.org/ns#" xmlns:rdf="http://www.w3.org/1999/02/22-rdf-syntax-ns#">
   <cc:Work>
    <dc:type rdf:resource="http://purl.org/dc/dcmitype/StillImage"/>
    <dc:date>2025-01-26T10:51:45.957678</dc:date>
    <dc:format>image/svg+xml</dc:format>
    <dc:creator>
     <cc:Agent>
      <dc:title>Matplotlib v3.5.2, https://matplotlib.org/</dc:title>
     </cc:Agent>
    </dc:creator>
   </cc:Work>
  </rdf:RDF>
 </metadata>
 <defs>
  <style type="text/css">*{stroke-linejoin: round; stroke-linecap: butt}</style>
 </defs>
 <g id="figure_1">
  <g id="patch_1">
   <path d="M 0 166.114062 
L 336.867188 166.114062 
L 336.867188 0 
L 0 0 
L 0 166.114062 
z
" style="fill: none"/>
  </g>
  <g id="axes_1">
   <g id="patch_2">
    <path d="M 43.78125 131.038125 
L 239.08125 131.038125 
L 239.08125 22.318125 
L 43.78125 22.318125 
z
" style="fill: #ffffff"/>
   </g>
   <g id="patch_3">
    <path d="M 61.243368 78.199373 
L 83.760309 78.199373 
L 83.760309 71.076867 
L 61.243368 71.076867 
L 61.243368 78.199373 
z
" clip-path="url(#pa364d1b6bb)" style="fill: #ffffff; stroke: #4c4c4c; stroke-width: 1.5; stroke-linejoin: miter"/>
   </g>
   <g id="patch_4">
    <path d="M 84.219838 44.840431 
L 106.736779 44.840431 
L 106.736779 36.341671 
L 84.219838 36.341671 
L 84.219838 44.840431 
z
" clip-path="url(#pa364d1b6bb)" style="fill: #c03d3e; stroke: #4c4c4c; stroke-width: 1.5; stroke-linejoin: miter"/>
   </g>
   <g id="patch_5">
    <path d="M 118.684544 126.023886 
L 141.201485 126.023886 
L 141.201485 125.855168 
L 118.684544 125.855168 
L 118.684544 126.023886 
z
" clip-path="url(#pa364d1b6bb)" style="fill: #ffffff; stroke: #4c4c4c; stroke-width: 1.5; stroke-linejoin: miter"/>
   </g>
   <g id="patch_6">
    <path d="M 141.661015 111.245233 
L 164.177956 111.245233 
L 164.177956 109.995001 
L 141.661015 109.995001 
L 141.661015 111.245233 
z
" clip-path="url(#pa364d1b6bb)" style="fill: #c03d3e; stroke: #4c4c4c; stroke-width: 1.5; stroke-linejoin: miter"/>
   </g>
   <g id="patch_7">
    <path d="M 176.125721 112.435673 
L 198.642662 112.435673 
L 198.642662 108.289662 
L 176.125721 108.289662 
L 176.125721 112.435673 
z
" clip-path="url(#pa364d1b6bb)" style="fill: #ffffff; stroke: #4c4c4c; stroke-width: 1.5; stroke-linejoin: miter"/>
   </g>
   <g id="patch_8">
    <path d="M 199.102191 89.01922 
L 221.619132 89.01922 
L 221.619132 84.0132 
L 199.102191 84.0132 
L 199.102191 89.01922 
z
" clip-path="url(#pa364d1b6bb)" style="fill: #c03d3e; stroke: #4c4c4c; stroke-width: 1.5; stroke-linejoin: miter"/>
   </g>
   <g id="PathCollection_1"/>
   <g id="PathCollection_2"/>
   <g id="PathCollection_3"/>
   <g id="PathCollection_4"/>
   <g id="PathCollection_5"/>
   <g id="PathCollection_6"/>
   <g id="PathCollection_7"/>
   <g id="PathCollection_8"/>
   <g id="patch_9">
    <path d="M 83.990074 128.264985 
L 83.990074 128.264985 
L 83.990074 128.264985 
L 83.990074 128.264985 
z
" clip-path="url(#pa364d1b6bb)" style="fill: #ffffff; stroke: #4c4c4c; stroke-width: 0.75; stroke-linejoin: miter"/>
   </g>
   <g id="patch_10">
    <path d="M 83.990074 128.264985 
L 83.990074 128.264985 
L 83.990074 128.264985 
L 83.990074 128.264985 
z
" clip-path="url(#pa364d1b6bb)" style="fill: #c03d3e; stroke: #4c4c4c; stroke-width: 0.75; stroke-linejoin: miter"/>
   </g>
   <g id="matplotlib.axis_1">
    <g id="xtick_1">
     <g id="line2d_1">
      <defs>
       <path id="me781399854" d="M 0 0 
L 0 3.5 
" style="stroke: #000000; stroke-width: 0.8"/>
      </defs>
      <g>
       <use xlink:href="#me781399854" x="83.990074" y="131.038125" style="stroke: #000000; stroke-width: 0.8"/>
      </g>
     </g>
     <g id="text_1">
      <!-- mRuby2 -->
      <g transform="translate(63.386949 145.636562)scale(0.1 -0.1)">
       <defs>
        <path id="DejaVuSans-6d" d="M 3328 2828 
Q 3544 3216 3844 3400 
Q 4144 3584 4550 3584 
Q 5097 3584 5394 3201 
Q 5691 2819 5691 2113 
L 5691 0 
L 5113 0 
L 5113 2094 
Q 5113 2597 4934 2840 
Q 4756 3084 4391 3084 
Q 3944 3084 3684 2787 
Q 3425 2491 3425 1978 
L 3425 0 
L 2847 0 
L 2847 2094 
Q 2847 2600 2669 2842 
Q 2491 3084 2119 3084 
Q 1678 3084 1418 2786 
Q 1159 2488 1159 1978 
L 1159 0 
L 581 0 
L 581 3500 
L 1159 3500 
L 1159 2956 
Q 1356 3278 1631 3431 
Q 1906 3584 2284 3584 
Q 2666 3584 2933 3390 
Q 3200 3197 3328 2828 
z
" transform="scale(0.015625)"/>
        <path id="DejaVuSans-52" d="M 2841 2188 
Q 3044 2119 3236 1894 
Q 3428 1669 3622 1275 
L 4263 0 
L 3584 0 
L 2988 1197 
Q 2756 1666 2539 1819 
Q 2322 1972 1947 1972 
L 1259 1972 
L 1259 0 
L 628 0 
L 628 4666 
L 2053 4666 
Q 2853 4666 3247 4331 
Q 3641 3997 3641 3322 
Q 3641 2881 3436 2590 
Q 3231 2300 2841 2188 
z
M 1259 4147 
L 1259 2491 
L 2053 2491 
Q 2509 2491 2742 2702 
Q 2975 2913 2975 3322 
Q 2975 3731 2742 3939 
Q 2509 4147 2053 4147 
L 1259 4147 
z
" transform="scale(0.015625)"/>
        <path id="DejaVuSans-75" d="M 544 1381 
L 544 3500 
L 1119 3500 
L 1119 1403 
Q 1119 906 1312 657 
Q 1506 409 1894 409 
Q 2359 409 2629 706 
Q 2900 1003 2900 1516 
L 2900 3500 
L 3475 3500 
L 3475 0 
L 2900 0 
L 2900 538 
Q 2691 219 2414 64 
Q 2138 -91 1772 -91 
Q 1169 -91 856 284 
Q 544 659 544 1381 
z
M 1991 3584 
L 1991 3584 
z
" transform="scale(0.015625)"/>
        <path id="DejaVuSans-62" d="M 3116 1747 
Q 3116 2381 2855 2742 
Q 2594 3103 2138 3103 
Q 1681 3103 1420 2742 
Q 1159 2381 1159 1747 
Q 1159 1113 1420 752 
Q 1681 391 2138 391 
Q 2594 391 2855 752 
Q 3116 1113 3116 1747 
z
M 1159 2969 
Q 1341 3281 1617 3432 
Q 1894 3584 2278 3584 
Q 2916 3584 3314 3078 
Q 3713 2572 3713 1747 
Q 3713 922 3314 415 
Q 2916 -91 2278 -91 
Q 1894 -91 1617 61 
Q 1341 213 1159 525 
L 1159 0 
L 581 0 
L 581 4863 
L 1159 4863 
L 1159 2969 
z
" transform="scale(0.015625)"/>
        <path id="DejaVuSans-79" d="M 2059 -325 
Q 1816 -950 1584 -1140 
Q 1353 -1331 966 -1331 
L 506 -1331 
L 506 -850 
L 844 -850 
Q 1081 -850 1212 -737 
Q 1344 -625 1503 -206 
L 1606 56 
L 191 3500 
L 800 3500 
L 1894 763 
L 2988 3500 
L 3597 3500 
L 2059 -325 
z
" transform="scale(0.015625)"/>
        <path id="DejaVuSans-32" d="M 1228 531 
L 3431 531 
L 3431 0 
L 469 0 
L 469 531 
Q 828 903 1448 1529 
Q 2069 2156 2228 2338 
Q 2531 2678 2651 2914 
Q 2772 3150 2772 3378 
Q 2772 3750 2511 3984 
Q 2250 4219 1831 4219 
Q 1534 4219 1204 4116 
Q 875 4013 500 3803 
L 500 4441 
Q 881 4594 1212 4672 
Q 1544 4750 1819 4750 
Q 2544 4750 2975 4387 
Q 3406 4025 3406 3419 
Q 3406 3131 3298 2873 
Q 3191 2616 2906 2266 
Q 2828 2175 2409 1742 
Q 1991 1309 1228 531 
z
" transform="scale(0.015625)"/>
       </defs>
       <use xlink:href="#DejaVuSans-6d"/>
       <use xlink:href="#DejaVuSans-52" x="97.412109"/>
       <use xlink:href="#DejaVuSans-75" x="162.394531"/>
       <use xlink:href="#DejaVuSans-62" x="225.773438"/>
       <use xlink:href="#DejaVuSans-79" x="289.25"/>
       <use xlink:href="#DejaVuSans-32" x="348.429688"/>
      </g>
     </g>
    </g>
    <g id="xtick_2">
     <g id="line2d_2">
      <g>
       <use xlink:href="#me781399854" x="141.43125" y="131.038125" style="stroke: #000000; stroke-width: 0.8"/>
      </g>
     </g>
     <g id="text_2">
      <!-- Brn2-2A-mRuby2 -->
      <g transform="translate(98.982812 145.636562)scale(0.1 -0.1)">
       <defs>
        <path id="DejaVuSans-42" d="M 1259 2228 
L 1259 519 
L 2272 519 
Q 2781 519 3026 730 
Q 3272 941 3272 1375 
Q 3272 1813 3026 2020 
Q 2781 2228 2272 2228 
L 1259 2228 
z
M 1259 4147 
L 1259 2741 
L 2194 2741 
Q 2656 2741 2882 2914 
Q 3109 3088 3109 3444 
Q 3109 3797 2882 3972 
Q 2656 4147 2194 4147 
L 1259 4147 
z
M 628 4666 
L 2241 4666 
Q 2963 4666 3353 4366 
Q 3744 4066 3744 3513 
Q 3744 3084 3544 2831 
Q 3344 2578 2956 2516 
Q 3422 2416 3680 2098 
Q 3938 1781 3938 1306 
Q 3938 681 3513 340 
Q 3088 0 2303 0 
L 628 0 
L 628 4666 
z
" transform="scale(0.015625)"/>
        <path id="DejaVuSans-72" d="M 2631 2963 
Q 2534 3019 2420 3045 
Q 2306 3072 2169 3072 
Q 1681 3072 1420 2755 
Q 1159 2438 1159 1844 
L 1159 0 
L 581 0 
L 581 3500 
L 1159 3500 
L 1159 2956 
Q 1341 3275 1631 3429 
Q 1922 3584 2338 3584 
Q 2397 3584 2469 3576 
Q 2541 3569 2628 3553 
L 2631 2963 
z
" transform="scale(0.015625)"/>
        <path id="DejaVuSans-6e" d="M 3513 2113 
L 3513 0 
L 2938 0 
L 2938 2094 
Q 2938 2591 2744 2837 
Q 2550 3084 2163 3084 
Q 1697 3084 1428 2787 
Q 1159 2491 1159 1978 
L 1159 0 
L 581 0 
L 581 3500 
L 1159 3500 
L 1159 2956 
Q 1366 3272 1645 3428 
Q 1925 3584 2291 3584 
Q 2894 3584 3203 3211 
Q 3513 2838 3513 2113 
z
" transform="scale(0.015625)"/>
        <path id="DejaVuSans-2d" d="M 313 2009 
L 1997 2009 
L 1997 1497 
L 313 1497 
L 313 2009 
z
" transform="scale(0.015625)"/>
        <path id="DejaVuSans-41" d="M 2188 4044 
L 1331 1722 
L 3047 1722 
L 2188 4044 
z
M 1831 4666 
L 2547 4666 
L 4325 0 
L 3669 0 
L 3244 1197 
L 1141 1197 
L 716 0 
L 50 0 
L 1831 4666 
z
" transform="scale(0.015625)"/>
       </defs>
       <use xlink:href="#DejaVuSans-42"/>
       <use xlink:href="#DejaVuSans-72" x="68.603516"/>
       <use xlink:href="#DejaVuSans-6e" x="107.966797"/>
       <use xlink:href="#DejaVuSans-32" x="171.345703"/>
       <use xlink:href="#DejaVuSans-2d" x="234.96875"/>
       <use xlink:href="#DejaVuSans-32" x="271.052734"/>
       <use xlink:href="#DejaVuSans-41" x="334.675781"/>
       <use xlink:href="#DejaVuSans-2d" x="400.833984"/>
       <use xlink:href="#DejaVuSans-6d" x="436.917969"/>
       <use xlink:href="#DejaVuSans-52" x="534.330078"/>
       <use xlink:href="#DejaVuSans-75" x="599.3125"/>
       <use xlink:href="#DejaVuSans-62" x="662.691406"/>
       <use xlink:href="#DejaVuSans-79" x="726.167969"/>
       <use xlink:href="#DejaVuSans-32" x="785.347656"/>
      </g>
      <!-- (MOI=0.1) -->
      <g transform="translate(115.663281 156.834375)scale(0.1 -0.1)">
       <defs>
        <path id="DejaVuSans-28" d="M 1984 4856 
Q 1566 4138 1362 3434 
Q 1159 2731 1159 2009 
Q 1159 1288 1364 580 
Q 1569 -128 1984 -844 
L 1484 -844 
Q 1016 -109 783 600 
Q 550 1309 550 2009 
Q 550 2706 781 3412 
Q 1013 4119 1484 4856 
L 1984 4856 
z
" transform="scale(0.015625)"/>
        <path id="DejaVuSans-4d" d="M 628 4666 
L 1569 4666 
L 2759 1491 
L 3956 4666 
L 4897 4666 
L 4897 0 
L 4281 0 
L 4281 4097 
L 3078 897 
L 2444 897 
L 1241 4097 
L 1241 0 
L 628 0 
L 628 4666 
z
" transform="scale(0.015625)"/>
        <path id="DejaVuSans-4f" d="M 2522 4238 
Q 1834 4238 1429 3725 
Q 1025 3213 1025 2328 
Q 1025 1447 1429 934 
Q 1834 422 2522 422 
Q 3209 422 3611 934 
Q 4013 1447 4013 2328 
Q 4013 3213 3611 3725 
Q 3209 4238 2522 4238 
z
M 2522 4750 
Q 3503 4750 4090 4092 
Q 4678 3434 4678 2328 
Q 4678 1225 4090 567 
Q 3503 -91 2522 -91 
Q 1538 -91 948 565 
Q 359 1222 359 2328 
Q 359 3434 948 4092 
Q 1538 4750 2522 4750 
z
" transform="scale(0.015625)"/>
        <path id="DejaVuSans-49" d="M 628 4666 
L 1259 4666 
L 1259 0 
L 628 0 
L 628 4666 
z
" transform="scale(0.015625)"/>
        <path id="DejaVuSans-3d" d="M 678 2906 
L 4684 2906 
L 4684 2381 
L 678 2381 
L 678 2906 
z
M 678 1631 
L 4684 1631 
L 4684 1100 
L 678 1100 
L 678 1631 
z
" transform="scale(0.015625)"/>
        <path id="DejaVuSans-30" d="M 2034 4250 
Q 1547 4250 1301 3770 
Q 1056 3291 1056 2328 
Q 1056 1369 1301 889 
Q 1547 409 2034 409 
Q 2525 409 2770 889 
Q 3016 1369 3016 2328 
Q 3016 3291 2770 3770 
Q 2525 4250 2034 4250 
z
M 2034 4750 
Q 2819 4750 3233 4129 
Q 3647 3509 3647 2328 
Q 3647 1150 3233 529 
Q 2819 -91 2034 -91 
Q 1250 -91 836 529 
Q 422 1150 422 2328 
Q 422 3509 836 4129 
Q 1250 4750 2034 4750 
z
" transform="scale(0.015625)"/>
        <path id="DejaVuSans-2e" d="M 684 794 
L 1344 794 
L 1344 0 
L 684 0 
L 684 794 
z
" transform="scale(0.015625)"/>
        <path id="DejaVuSans-31" d="M 794 531 
L 1825 531 
L 1825 4091 
L 703 3866 
L 703 4441 
L 1819 4666 
L 2450 4666 
L 2450 531 
L 3481 531 
L 3481 0 
L 794 0 
L 794 531 
z
" transform="scale(0.015625)"/>
        <path id="DejaVuSans-29" d="M 513 4856 
L 1013 4856 
Q 1481 4119 1714 3412 
Q 1947 2706 1947 2009 
Q 1947 1309 1714 600 
Q 1481 -109 1013 -844 
L 513 -844 
Q 928 -128 1133 580 
Q 1338 1288 1338 2009 
Q 1338 2731 1133 3434 
Q 928 4138 513 4856 
z
" transform="scale(0.015625)"/>
       </defs>
       <use xlink:href="#DejaVuSans-28"/>
       <use xlink:href="#DejaVuSans-4d" x="39.013672"/>
       <use xlink:href="#DejaVuSans-4f" x="125.292969"/>
       <use xlink:href="#DejaVuSans-49" x="204.003906"/>
       <use xlink:href="#DejaVuSans-3d" x="233.496094"/>
       <use xlink:href="#DejaVuSans-30" x="317.285156"/>
       <use xlink:href="#DejaVuSans-2e" x="380.908203"/>
       <use xlink:href="#DejaVuSans-31" x="412.695312"/>
       <use xlink:href="#DejaVuSans-29" x="476.318359"/>
      </g>
     </g>
    </g>
    <g id="xtick_3">
     <g id="line2d_3">
      <g>
       <use xlink:href="#me781399854" x="198.872426" y="131.038125" style="stroke: #000000; stroke-width: 0.8"/>
      </g>
     </g>
     <g id="text_3">
      <!--  -->
      <g transform="translate(198.872426 145.636562)scale(0.1 -0.1)"/>
      <!-- (MOI=5) -->
      <g transform="translate(177.87477 156.834375)scale(0.1 -0.1)">
       <defs>
        <path id="DejaVuSans-35" d="M 691 4666 
L 3169 4666 
L 3169 4134 
L 1269 4134 
L 1269 2991 
Q 1406 3038 1543 3061 
Q 1681 3084 1819 3084 
Q 2600 3084 3056 2656 
Q 3513 2228 3513 1497 
Q 3513 744 3044 326 
Q 2575 -91 1722 -91 
Q 1428 -91 1123 -41 
Q 819 9 494 109 
L 494 744 
Q 775 591 1075 516 
Q 1375 441 1709 441 
Q 2250 441 2565 725 
Q 2881 1009 2881 1497 
Q 2881 1984 2565 2268 
Q 2250 2553 1709 2553 
Q 1456 2553 1204 2497 
Q 953 2441 691 2322 
L 691 4666 
z
" transform="scale(0.015625)"/>
       </defs>
       <use xlink:href="#DejaVuSans-28"/>
       <use xlink:href="#DejaVuSans-4d" x="39.013672"/>
       <use xlink:href="#DejaVuSans-4f" x="125.292969"/>
       <use xlink:href="#DejaVuSans-49" x="204.003906"/>
       <use xlink:href="#DejaVuSans-3d" x="233.496094"/>
       <use xlink:href="#DejaVuSans-35" x="317.285156"/>
       <use xlink:href="#DejaVuSans-29" x="380.908203"/>
      </g>
     </g>
    </g>
   </g>
   <g id="matplotlib.axis_2">
    <g id="ytick_1">
     <g id="line2d_4">
      <defs>
       <path id="mb54db6f5c0" d="M 0 0 
L -3.5 0 
" style="stroke: #000000; stroke-width: 0.8"/>
      </defs>
      <g>
       <use xlink:href="#mb54db6f5c0" x="43.78125" y="128.264985" style="stroke: #000000; stroke-width: 0.8"/>
      </g>
     </g>
     <g id="text_4">
      <!-- 0.0 -->
      <g transform="translate(20.878125 132.064204)scale(0.1 -0.1)">
       <use xlink:href="#DejaVuSans-30"/>
       <use xlink:href="#DejaVuSans-2e" x="63.623047"/>
       <use xlink:href="#DejaVuSans-30" x="95.410156"/>
      </g>
     </g>
    </g>
    <g id="ytick_2">
     <g id="line2d_5">
      <g>
       <use xlink:href="#mb54db6f5c0" x="43.78125" y="104.241814" style="stroke: #000000; stroke-width: 0.8"/>
      </g>
     </g>
     <g id="text_5">
      <!-- 0.5 -->
      <g transform="translate(20.878125 108.041033)scale(0.1 -0.1)">
       <use xlink:href="#DejaVuSans-30"/>
       <use xlink:href="#DejaVuSans-2e" x="63.623047"/>
       <use xlink:href="#DejaVuSans-35" x="95.410156"/>
      </g>
     </g>
    </g>
    <g id="ytick_3">
     <g id="line2d_6">
      <g>
       <use xlink:href="#mb54db6f5c0" x="43.78125" y="80.218644" style="stroke: #000000; stroke-width: 0.8"/>
      </g>
     </g>
     <g id="text_6">
      <!-- 1.0 -->
      <g transform="translate(20.878125 84.017862)scale(0.1 -0.1)">
       <use xlink:href="#DejaVuSans-31"/>
       <use xlink:href="#DejaVuSans-2e" x="63.623047"/>
       <use xlink:href="#DejaVuSans-30" x="95.410156"/>
      </g>
     </g>
    </g>
    <g id="ytick_4">
     <g id="line2d_7">
      <g>
       <use xlink:href="#mb54db6f5c0" x="43.78125" y="56.195473" style="stroke: #000000; stroke-width: 0.8"/>
      </g>
     </g>
     <g id="text_7">
      <!-- 1.5 -->
      <g transform="translate(20.878125 59.994692)scale(0.1 -0.1)">
       <use xlink:href="#DejaVuSans-31"/>
       <use xlink:href="#DejaVuSans-2e" x="63.623047"/>
       <use xlink:href="#DejaVuSans-35" x="95.410156"/>
      </g>
     </g>
    </g>
    <g id="ytick_5">
     <g id="line2d_8">
      <g>
       <use xlink:href="#mb54db6f5c0" x="43.78125" y="32.172302" style="stroke: #000000; stroke-width: 0.8"/>
      </g>
     </g>
     <g id="text_8">
      <!-- 2.0 -->
      <g transform="translate(20.878125 35.971521)scale(0.1 -0.1)">
       <use xlink:href="#DejaVuSans-32"/>
       <use xlink:href="#DejaVuSans-2e" x="63.623047"/>
       <use xlink:href="#DejaVuSans-30" x="95.410156"/>
      </g>
     </g>
    </g>
    <g id="text_9">
     <!-- mRuby2 (gmean) -->
     <g transform="translate(14.798438 120.125781)rotate(-90)scale(0.1 -0.1)">
      <defs>
       <path id="DejaVuSans-20" transform="scale(0.015625)"/>
       <path id="DejaVuSans-67" d="M 2906 1791 
Q 2906 2416 2648 2759 
Q 2391 3103 1925 3103 
Q 1463 3103 1205 2759 
Q 947 2416 947 1791 
Q 947 1169 1205 825 
Q 1463 481 1925 481 
Q 2391 481 2648 825 
Q 2906 1169 2906 1791 
z
M 3481 434 
Q 3481 -459 3084 -895 
Q 2688 -1331 1869 -1331 
Q 1566 -1331 1297 -1286 
Q 1028 -1241 775 -1147 
L 775 -588 
Q 1028 -725 1275 -790 
Q 1522 -856 1778 -856 
Q 2344 -856 2625 -561 
Q 2906 -266 2906 331 
L 2906 616 
Q 2728 306 2450 153 
Q 2172 0 1784 0 
Q 1141 0 747 490 
Q 353 981 353 1791 
Q 353 2603 747 3093 
Q 1141 3584 1784 3584 
Q 2172 3584 2450 3431 
Q 2728 3278 2906 2969 
L 2906 3500 
L 3481 3500 
L 3481 434 
z
" transform="scale(0.015625)"/>
       <path id="DejaVuSans-65" d="M 3597 1894 
L 3597 1613 
L 953 1613 
Q 991 1019 1311 708 
Q 1631 397 2203 397 
Q 2534 397 2845 478 
Q 3156 559 3463 722 
L 3463 178 
Q 3153 47 2828 -22 
Q 2503 -91 2169 -91 
Q 1331 -91 842 396 
Q 353 884 353 1716 
Q 353 2575 817 3079 
Q 1281 3584 2069 3584 
Q 2775 3584 3186 3129 
Q 3597 2675 3597 1894 
z
M 3022 2063 
Q 3016 2534 2758 2815 
Q 2500 3097 2075 3097 
Q 1594 3097 1305 2825 
Q 1016 2553 972 2059 
L 3022 2063 
z
" transform="scale(0.015625)"/>
       <path id="DejaVuSans-61" d="M 2194 1759 
Q 1497 1759 1228 1600 
Q 959 1441 959 1056 
Q 959 750 1161 570 
Q 1363 391 1709 391 
Q 2188 391 2477 730 
Q 2766 1069 2766 1631 
L 2766 1759 
L 2194 1759 
z
M 3341 1997 
L 3341 0 
L 2766 0 
L 2766 531 
Q 2569 213 2275 61 
Q 1981 -91 1556 -91 
Q 1019 -91 701 211 
Q 384 513 384 1019 
Q 384 1609 779 1909 
Q 1175 2209 1959 2209 
L 2766 2209 
L 2766 2266 
Q 2766 2663 2505 2880 
Q 2244 3097 1772 3097 
Q 1472 3097 1187 3025 
Q 903 2953 641 2809 
L 641 3341 
Q 956 3463 1253 3523 
Q 1550 3584 1831 3584 
Q 2591 3584 2966 3190 
Q 3341 2797 3341 1997 
z
" transform="scale(0.015625)"/>
      </defs>
      <use xlink:href="#DejaVuSans-6d"/>
      <use xlink:href="#DejaVuSans-52" x="97.412109"/>
      <use xlink:href="#DejaVuSans-75" x="162.394531"/>
      <use xlink:href="#DejaVuSans-62" x="225.773438"/>
      <use xlink:href="#DejaVuSans-79" x="289.25"/>
      <use xlink:href="#DejaVuSans-32" x="348.429688"/>
      <use xlink:href="#DejaVuSans-20" x="412.052734"/>
      <use xlink:href="#DejaVuSans-28" x="443.839844"/>
      <use xlink:href="#DejaVuSans-67" x="482.853516"/>
      <use xlink:href="#DejaVuSans-6d" x="546.330078"/>
      <use xlink:href="#DejaVuSans-65" x="643.742188"/>
      <use xlink:href="#DejaVuSans-61" x="705.265625"/>
      <use xlink:href="#DejaVuSans-6e" x="766.544922"/>
      <use xlink:href="#DejaVuSans-29" x="829.923828"/>
     </g>
    </g>
    <g id="text_10">
     <!-- 1e4 -->
     <g transform="translate(43.78125 19.318125)scale(0.1 -0.1)">
      <defs>
       <path id="DejaVuSans-34" d="M 2419 4116 
L 825 1625 
L 2419 1625 
L 2419 4116 
z
M 2253 4666 
L 3047 4666 
L 3047 1625 
L 3713 1625 
L 3713 1100 
L 3047 1100 
L 3047 0 
L 2419 0 
L 2419 1100 
L 313 1100 
L 313 1709 
L 2253 4666 
z
" transform="scale(0.015625)"/>
      </defs>
      <use xlink:href="#DejaVuSans-31"/>
      <use xlink:href="#DejaVuSans-65" x="63.623047"/>
      <use xlink:href="#DejaVuSans-34" x="125.146484"/>
     </g>
    </g>
   </g>
   <g id="line2d_9">
    <path d="M 72.501838 78.199373 
L 72.501838 78.199373 
" clip-path="url(#pa364d1b6bb)" style="fill: none; stroke: #4c4c4c; stroke-width: 1.5; stroke-linecap: square"/>
   </g>
   <g id="line2d_10">
    <path d="M 72.501838 71.076867 
L 72.501838 71.076867 
" clip-path="url(#pa364d1b6bb)" style="fill: none; stroke: #4c4c4c; stroke-width: 1.5; stroke-linecap: square"/>
   </g>
   <g id="line2d_11">
    <path d="M 66.872603 78.199373 
L 78.131074 78.199373 
" clip-path="url(#pa364d1b6bb)" style="fill: none; stroke: #4c4c4c; stroke-width: 1.5; stroke-linecap: square"/>
   </g>
   <g id="line2d_12">
    <path d="M 66.872603 71.076867 
L 78.131074 71.076867 
" clip-path="url(#pa364d1b6bb)" style="fill: none; stroke: #4c4c4c; stroke-width: 1.5; stroke-linecap: square"/>
   </g>
   <g id="line2d_13">
    <path d="M 95.478309 44.840431 
L 95.478309 44.840431 
" clip-path="url(#pa364d1b6bb)" style="fill: none; stroke: #4c4c4c; stroke-width: 1.5; stroke-linecap: square"/>
   </g>
   <g id="line2d_14">
    <path d="M 95.478309 36.341671 
L 95.478309 36.341671 
" clip-path="url(#pa364d1b6bb)" style="fill: none; stroke: #4c4c4c; stroke-width: 1.5; stroke-linecap: square"/>
   </g>
   <g id="line2d_15">
    <path d="M 89.849074 44.840431 
L 101.107544 44.840431 
" clip-path="url(#pa364d1b6bb)" style="fill: none; stroke: #4c4c4c; stroke-width: 1.5; stroke-linecap: square"/>
   </g>
   <g id="line2d_16">
    <path d="M 89.849074 36.341671 
L 101.107544 36.341671 
" clip-path="url(#pa364d1b6bb)" style="fill: none; stroke: #4c4c4c; stroke-width: 1.5; stroke-linecap: square"/>
   </g>
   <g id="line2d_17">
    <path d="M 129.943015 126.023886 
L 129.943015 126.023886 
" clip-path="url(#pa364d1b6bb)" style="fill: none; stroke: #4c4c4c; stroke-width: 1.5; stroke-linecap: square"/>
   </g>
   <g id="line2d_18">
    <path d="M 129.943015 125.855168 
L 129.943015 125.855168 
" clip-path="url(#pa364d1b6bb)" style="fill: none; stroke: #4c4c4c; stroke-width: 1.5; stroke-linecap: square"/>
   </g>
   <g id="line2d_19">
    <path d="M 124.313779 126.023886 
L 135.57225 126.023886 
" clip-path="url(#pa364d1b6bb)" style="fill: none; stroke: #4c4c4c; stroke-width: 1.5; stroke-linecap: square"/>
   </g>
   <g id="line2d_20">
    <path d="M 124.313779 125.855168 
L 135.57225 125.855168 
" clip-path="url(#pa364d1b6bb)" style="fill: none; stroke: #4c4c4c; stroke-width: 1.5; stroke-linecap: square"/>
   </g>
   <g id="line2d_21">
    <path d="M 152.919485 111.245233 
L 152.919485 111.245233 
" clip-path="url(#pa364d1b6bb)" style="fill: none; stroke: #4c4c4c; stroke-width: 1.5; stroke-linecap: square"/>
   </g>
   <g id="line2d_22">
    <path d="M 152.919485 109.995001 
L 152.919485 109.995001 
" clip-path="url(#pa364d1b6bb)" style="fill: none; stroke: #4c4c4c; stroke-width: 1.5; stroke-linecap: square"/>
   </g>
   <g id="line2d_23">
    <path d="M 147.29025 111.245233 
L 158.548721 111.245233 
" clip-path="url(#pa364d1b6bb)" style="fill: none; stroke: #4c4c4c; stroke-width: 1.5; stroke-linecap: square"/>
   </g>
   <g id="line2d_24">
    <path d="M 147.29025 109.995001 
L 158.548721 109.995001 
" clip-path="url(#pa364d1b6bb)" style="fill: none; stroke: #4c4c4c; stroke-width: 1.5; stroke-linecap: square"/>
   </g>
   <g id="line2d_25">
    <path d="M 187.384191 112.435673 
L 187.384191 112.435673 
" clip-path="url(#pa364d1b6bb)" style="fill: none; stroke: #4c4c4c; stroke-width: 1.5; stroke-linecap: square"/>
   </g>
   <g id="line2d_26">
    <path d="M 187.384191 108.289662 
L 187.384191 108.289662 
" clip-path="url(#pa364d1b6bb)" style="fill: none; stroke: #4c4c4c; stroke-width: 1.5; stroke-linecap: square"/>
   </g>
   <g id="line2d_27">
    <path d="M 181.754956 112.435673 
L 193.013426 112.435673 
" clip-path="url(#pa364d1b6bb)" style="fill: none; stroke: #4c4c4c; stroke-width: 1.5; stroke-linecap: square"/>
   </g>
   <g id="line2d_28">
    <path d="M 181.754956 108.289662 
L 193.013426 108.289662 
" clip-path="url(#pa364d1b6bb)" style="fill: none; stroke: #4c4c4c; stroke-width: 1.5; stroke-linecap: square"/>
   </g>
   <g id="line2d_29">
    <path d="M 210.360662 89.01922 
L 210.360662 89.01922 
" clip-path="url(#pa364d1b6bb)" style="fill: none; stroke: #4c4c4c; stroke-width: 1.5; stroke-linecap: square"/>
   </g>
   <g id="line2d_30">
    <path d="M 210.360662 84.0132 
L 210.360662 84.0132 
" clip-path="url(#pa364d1b6bb)" style="fill: none; stroke: #4c4c4c; stroke-width: 1.5; stroke-linecap: square"/>
   </g>
   <g id="line2d_31">
    <path d="M 204.731426 89.01922 
L 215.989897 89.01922 
" clip-path="url(#pa364d1b6bb)" style="fill: none; stroke: #4c4c4c; stroke-width: 1.5; stroke-linecap: square"/>
   </g>
   <g id="line2d_32">
    <path d="M 204.731426 84.0132 
L 215.989897 84.0132 
" clip-path="url(#pa364d1b6bb)" style="fill: none; stroke: #4c4c4c; stroke-width: 1.5; stroke-linecap: square"/>
   </g>
   <g id="line2d_33">
    <path d="M 152.919485 71.296208 
L 152.919485 69.121808 
L 210.360662 69.121808 
L 210.360662 71.296208 
" clip-path="url(#pa364d1b6bb)" style="fill: none; stroke: #333333; stroke-width: 1.5; stroke-linecap: square"/>
   </g>
   <g id="line2d_34">
    <path d="M 61.243368 75.735459 
L 83.760309 75.735459 
" clip-path="url(#pa364d1b6bb)" style="fill: none; stroke: #4c4c4c; stroke-width: 1.5; stroke-linecap: square"/>
   </g>
   <g id="line2d_35">
    <path d="M 84.219838 41.776066 
L 106.736779 41.776066 
" clip-path="url(#pa364d1b6bb)" style="fill: none; stroke: #4c4c4c; stroke-width: 1.5; stroke-linecap: square"/>
   </g>
   <g id="line2d_36">
    <path d="M 118.684544 125.967485 
L 141.201485 125.967485 
" clip-path="url(#pa364d1b6bb)" style="fill: none; stroke: #4c4c4c; stroke-width: 1.5; stroke-linecap: square"/>
   </g>
   <g id="line2d_37">
    <path d="M 141.661015 110.752181 
L 164.177956 110.752181 
" clip-path="url(#pa364d1b6bb)" style="fill: none; stroke: #4c4c4c; stroke-width: 1.5; stroke-linecap: square"/>
   </g>
   <g id="line2d_38">
    <path d="M 176.125721 109.630507 
L 198.642662 109.630507 
" clip-path="url(#pa364d1b6bb)" style="fill: none; stroke: #4c4c4c; stroke-width: 1.5; stroke-linecap: square"/>
   </g>
   <g id="line2d_39">
    <path d="M 199.102191 86.197719 
L 221.619132 86.197719 
" clip-path="url(#pa364d1b6bb)" style="fill: none; stroke: #4c4c4c; stroke-width: 1.5; stroke-linecap: square"/>
   </g>
   <g id="patch_11">
    <path d="M 43.78125 131.038125 
L 43.78125 22.318125 
" style="fill: none; stroke: #000000; stroke-width: 0.8; stroke-linejoin: miter; stroke-linecap: square"/>
   </g>
   <g id="patch_12">
    <path d="M 239.08125 131.038125 
L 239.08125 22.318125 
" style="fill: none; stroke: #000000; stroke-width: 0.8; stroke-linejoin: miter; stroke-linecap: square"/>
   </g>
   <g id="patch_13">
    <path d="M 43.78125 131.038125 
L 239.08125 131.038125 
" style="fill: none; stroke: #000000; stroke-width: 0.8; stroke-linejoin: miter; stroke-linecap: square"/>
   </g>
   <g id="patch_14">
    <path d="M 43.78125 22.318125 
L 239.08125 22.318125 
" style="fill: none; stroke: #000000; stroke-width: 0.8; stroke-linejoin: miter; stroke-linecap: square"/>
   </g>
   <g id="PathCollection_9">
    <defs>
     <path id="C0_0_1ed3102006" d="M 0 2.5 
C 0.663008 2.5 1.29895 2.236584 1.767767 1.767767 
C 2.236584 1.29895 2.5 0.663008 2.5 -0 
C 2.5 -0.663008 2.236584 -1.29895 1.767767 -1.767767 
C 1.29895 -2.236584 0.663008 -2.5 0 -2.5 
C -0.663008 -2.5 -1.29895 -2.236584 -1.767767 -1.767767 
C -2.236584 -1.29895 -2.5 -0.663008 -2.5 0 
C -2.5 0.663008 -2.236584 1.29895 -1.767767 1.767767 
C -1.29895 2.236584 -0.663008 2.5 0 2.5 
z
"/>
    </defs>
    <g clip-path="url(#pa364d1b6bb)">
     <use xlink:href="#C0_0_1ed3102006" x="71.676603" y="73.466961" style="fill: #ffffff; stroke: #000000; stroke-width: 0.4"/>
    </g>
    <g clip-path="url(#pa364d1b6bb)">
     <use xlink:href="#C0_0_1ed3102006" x="72.0029" y="75.332647" style="fill: #ffffff; stroke: #000000; stroke-width: 0.4"/>
    </g>
    <g clip-path="url(#pa364d1b6bb)">
     <use xlink:href="#C0_0_1ed3102006" x="73.069561" y="76.17912" style="fill: #ffffff; stroke: #000000; stroke-width: 0.4"/>
    </g>
    <g clip-path="url(#pa364d1b6bb)">
     <use xlink:href="#C0_0_1ed3102006" x="74.995134" y="81.498547" style="fill: #ffffff; stroke: #000000; stroke-width: 0.4"/>
    </g>
   </g>
   <g id="PathCollection_10">
    <defs>
     <path id="C1_0_6cd323f8b4" d="M 0 2.5 
C 0.663008 2.5 1.29895 2.236584 1.767767 1.767767 
C 2.236584 1.29895 2.5 0.663008 2.5 -0 
C 2.5 -0.663008 2.236584 -1.29895 1.767767 -1.767767 
C 1.29895 -2.236584 0.663008 -2.5 0 -2.5 
C -0.663008 -2.5 -1.29895 -2.236584 -1.767767 -1.767767 
C -2.236584 -1.29895 -2.5 -0.663008 -2.5 0 
C -2.5 0.663008 -2.236584 1.29895 -1.767767 1.767767 
C -1.29895 2.236584 -0.663008 2.5 0 2.5 
z
"/>
    </defs>
    <g clip-path="url(#pa364d1b6bb)">
     <use xlink:href="#C1_0_6cd323f8b4" x="96.401662" y="33.889358" style="fill: #ffffff; stroke: #000000; stroke-width: 0.4"/>
    </g>
    <g clip-path="url(#pa364d1b6bb)">
     <use xlink:href="#C1_0_6cd323f8b4" x="95.769484" y="37.553295" style="fill: #ffffff; stroke: #000000; stroke-width: 0.4"/>
    </g>
    <g clip-path="url(#pa364d1b6bb)">
     <use xlink:href="#C1_0_6cd323f8b4" x="94.382489" y="44.019231" style="fill: #ffffff; stroke: #000000; stroke-width: 0.4"/>
    </g>
    <g clip-path="url(#pa364d1b6bb)">
     <use xlink:href="#C1_0_6cd323f8b4" x="97.831778" y="48.020861" style="fill: #ffffff; stroke: #000000; stroke-width: 0.4"/>
    </g>
   </g>
   <g id="PathCollection_11">
    <defs>
     <path id="C2_0_50b22c03e9" d="M 0 2.5 
C 0.663008 2.5 1.29895 2.236584 1.767767 1.767767 
C 2.236584 1.29895 2.5 0.663008 2.5 -0 
C 2.5 -0.663008 2.236584 -1.29895 1.767767 -1.767767 
C 1.29895 -2.236584 0.663008 -2.5 0 -2.5 
C -0.663008 -2.5 -1.29895 -2.236584 -1.767767 -1.767767 
C -2.236584 -1.29895 -2.5 -0.663008 -2.5 0 
C -2.5 0.663008 -2.236584 1.29895 -1.767767 1.767767 
C -1.29895 2.236584 -0.663008 2.5 0 2.5 
z
"/>
    </defs>
    <g clip-path="url(#pa364d1b6bb)">
     <use xlink:href="#C2_0_50b22c03e9" x="130.99779" y="126.058767" style="fill: #ffffff; stroke: #000000; stroke-width: 0.4"/>
    </g>
    <g clip-path="url(#pa364d1b6bb)">
     <use xlink:href="#C2_0_50b22c03e9" x="129.491923" y="126.096307" style="fill: #ffffff; stroke: #000000; stroke-width: 0.4"/>
    </g>
    <g clip-path="url(#pa364d1b6bb)">
     <use xlink:href="#C2_0_50b22c03e9" x="131.269958" y="126.019897" style="fill: #ffffff; stroke: #000000; stroke-width: 0.4"/>
    </g>
    <g clip-path="url(#pa364d1b6bb)">
     <use xlink:href="#C2_0_50b22c03e9" x="128.218057" y="126.068732" style="fill: #ffffff; stroke: #000000; stroke-width: 0.4"/>
    </g>
   </g>
   <g id="PathCollection_12">
    <defs>
     <path id="C3_0_23e00f8b8d" d="M 0 2.5 
C 0.663008 2.5 1.29895 2.236584 1.767767 1.767767 
C 2.236584 1.29895 2.5 0.663008 2.5 -0 
C 2.5 -0.663008 2.236584 -1.29895 1.767767 -1.767767 
C 1.29895 -2.236584 0.663008 -2.5 0 -2.5 
C -0.663008 -2.5 -1.29895 -2.236584 -1.767767 -1.767767 
C -2.236584 -1.29895 -2.5 -0.663008 -2.5 0 
C -2.5 0.663008 -2.236584 1.29895 -1.767767 1.767767 
C -1.29895 2.236584 -0.663008 2.5 0 2.5 
z
"/>
    </defs>
    <g clip-path="url(#pa364d1b6bb)">
     <use xlink:href="#C3_0_23e00f8b8d" x="152.065911" y="111.102964" style="fill: #ffffff; stroke: #000000; stroke-width: 0.4"/>
    </g>
    <g clip-path="url(#pa364d1b6bb)">
     <use xlink:href="#C3_0_23e00f8b8d" x="154.312244" y="112.497459" style="fill: #ffffff; stroke: #000000; stroke-width: 0.4"/>
    </g>
    <g clip-path="url(#pa364d1b6bb)">
     <use xlink:href="#C3_0_23e00f8b8d" x="150.646742" y="110.523473" style="fill: #ffffff; stroke: #000000; stroke-width: 0.4"/>
    </g>
    <g clip-path="url(#pa364d1b6bb)">
     <use xlink:href="#C3_0_23e00f8b8d" x="155.226899" y="114.37231" style="fill: #ffffff; stroke: #000000; stroke-width: 0.4"/>
    </g>
   </g>
   <g id="PathCollection_13">
    <defs>
     <path id="C4_0_f4c9bc0582" d="M 0 2.5 
C 0.663008 2.5 1.29895 2.236584 1.767767 1.767767 
C 2.236584 1.29895 2.5 0.663008 2.5 -0 
C 2.5 -0.663008 2.236584 -1.29895 1.767767 -1.767767 
C 1.29895 -2.236584 0.663008 -2.5 0 -2.5 
C -0.663008 -2.5 -1.29895 -2.236584 -1.767767 -1.767767 
C -2.236584 -1.29895 -2.5 -0.663008 -2.5 0 
C -2.5 0.663008 -2.236584 1.29895 -1.767767 1.767767 
C -1.29895 2.236584 -0.663008 2.5 0 2.5 
z
"/>
    </defs>
    <g clip-path="url(#pa364d1b6bb)">
     <use xlink:href="#C4_0_f4c9bc0582" x="184.635651" y="116.600988" style="fill: #ffffff; stroke: #000000; stroke-width: 0.4"/>
    </g>
    <g clip-path="url(#pa364d1b6bb)">
     <use xlink:href="#C4_0_f4c9bc0582" x="189.301918" y="117.014836" style="fill: #ffffff; stroke: #000000; stroke-width: 0.4"/>
    </g>
    <g clip-path="url(#pa364d1b6bb)">
     <use xlink:href="#C4_0_f4c9bc0582" x="186.285803" y="115.751033" style="fill: #ffffff; stroke: #000000; stroke-width: 0.4"/>
    </g>
    <g clip-path="url(#pa364d1b6bb)">
     <use xlink:href="#C4_0_f4c9bc0582" x="188.201604" y="115.323778" style="fill: #ffffff; stroke: #000000; stroke-width: 0.4"/>
    </g>
   </g>
   <g id="PathCollection_14">
    <defs>
     <path id="C5_0_b8d02368eb" d="M 0 2.5 
C 0.663008 2.5 1.29895 2.236584 1.767767 1.767767 
C 2.236584 1.29895 2.5 0.663008 2.5 -0 
C 2.5 -0.663008 2.236584 -1.29895 1.767767 -1.767767 
C 1.29895 -2.236584 0.663008 -2.5 0 -2.5 
C -0.663008 -2.5 -1.29895 -2.236584 -1.767767 -1.767767 
C -2.236584 -1.29895 -2.5 -0.663008 -2.5 0 
C -2.5 0.663008 -2.236584 1.29895 -1.767767 1.767767 
C -1.29895 2.236584 -0.663008 2.5 0 2.5 
z
"/>
    </defs>
    <g clip-path="url(#pa364d1b6bb)">
     <use xlink:href="#C5_0_b8d02368eb" x="212.770361" y="90.666751" style="fill: #ffffff; stroke: #000000; stroke-width: 0.4"/>
    </g>
    <g clip-path="url(#pa364d1b6bb)">
     <use xlink:href="#C5_0_b8d02368eb" x="211.858681" y="89.734826" style="fill: #ffffff; stroke: #000000; stroke-width: 0.4"/>
    </g>
    <g clip-path="url(#pa364d1b6bb)">
     <use xlink:href="#C5_0_b8d02368eb" x="212.238509" y="93.581845" style="fill: #ffffff; stroke: #000000; stroke-width: 0.4"/>
    </g>
    <g clip-path="url(#pa364d1b6bb)">
     <use xlink:href="#C5_0_b8d02368eb" x="212.177986" y="91.670532" style="fill: #ffffff; stroke: #000000; stroke-width: 0.4"/>
    </g>
   </g>
   <g id="PathCollection_15">
    <path d="M 69.099082 76.395786 
L 74.099082 76.395786 
L 74.099082 71.395786 
L 69.099082 71.395786 
z
" clip-path="url(#pa364d1b6bb)" style="fill: #ffffff; stroke: #000000; stroke-width: 0.4"/>
    <path d="M 71.990174 71.724121 
L 76.990174 71.724121 
L 76.990174 66.724121 
L 71.990174 66.724121 
z
" clip-path="url(#pa364d1b6bb)" style="fill: #ffffff; stroke: #000000; stroke-width: 0.4"/>
    <path d="M 70.959609 72.742097 
L 75.959609 72.742097 
L 75.959609 67.742097 
L 70.959609 67.742097 
z
" clip-path="url(#pa364d1b6bb)" style="fill: #ffffff; stroke: #000000; stroke-width: 0.4"/>
    <path d="M 72.586866 69.817663 
L 77.586866 69.817663 
L 77.586866 64.817663 
L 72.586866 64.817663 
z
" clip-path="url(#pa364d1b6bb)" style="fill: #ffffff; stroke: #000000; stroke-width: 0.4"/>
   </g>
   <g id="PathCollection_16">
    <path d="M 95.031153 39.659108 
L 100.031153 39.659108 
L 100.031153 34.659108 
L 95.031153 34.659108 
z
" clip-path="url(#pa364d1b6bb)" style="fill: #ffffff; stroke: #000000; stroke-width: 0.4"/>
    <path d="M 90.835015 35.725329 
L 95.835015 35.725329 
L 95.835015 30.725329 
L 90.835015 30.725329 
z
" clip-path="url(#pa364d1b6bb)" style="fill: #ffffff; stroke: #000000; stroke-width: 0.4"/>
    <path d="M 91.183647 35.678915 
L 96.183647 35.678915 
L 96.183647 30.678915 
L 91.183647 30.678915 
z
" clip-path="url(#pa364d1b6bb)" style="fill: #ffffff; stroke: #000000; stroke-width: 0.4"/>
    <path d="M 94.432551 29.759943 
L 99.432551 29.759943 
L 99.432551 24.759943 
L 94.432551 24.759943 
z
" clip-path="url(#pa364d1b6bb)" style="fill: #ffffff; stroke: #000000; stroke-width: 0.4"/>
   </g>
   <g id="PathCollection_17">
    <path d="M 127.700315 128.096833 
L 132.700315 128.096833 
L 132.700315 123.096833 
L 127.700315 123.096833 
z
" clip-path="url(#pa364d1b6bb)" style="fill: #ffffff; stroke: #000000; stroke-width: 0.4"/>
    <path d="M 127.474703 128.209638 
L 132.474703 128.209638 
L 132.474703 123.209638 
L 127.474703 123.209638 
z
" clip-path="url(#pa364d1b6bb)" style="fill: #ffffff; stroke: #000000; stroke-width: 0.4"/>
    <path d="M 129.566913 128.181842 
L 134.566913 128.181842 
L 134.566913 123.181842 
L 129.566913 123.181842 
z
" clip-path="url(#pa364d1b6bb)" style="fill: #ffffff; stroke: #000000; stroke-width: 0.4"/>
    <path d="M 128.887317 128.13091 
L 133.887317 128.13091 
L 133.887317 123.13091 
L 128.887317 123.13091 
z
" clip-path="url(#pa364d1b6bb)" style="fill: #ffffff; stroke: #000000; stroke-width: 0.4"/>
   </g>
   <g id="PathCollection_18">
    <path d="M 151.774144 112.293473 
L 156.774144 112.293473 
L 156.774144 107.293473 
L 151.774144 107.293473 
z
" clip-path="url(#pa364d1b6bb)" style="fill: #ffffff; stroke: #000000; stroke-width: 0.4"/>
    <path d="M 149.851837 113.247732 
L 154.851837 113.247732 
L 154.851837 108.247732 
L 149.851837 108.247732 
z
" clip-path="url(#pa364d1b6bb)" style="fill: #ffffff; stroke: #000000; stroke-width: 0.4"/>
    <path d="M 150.920135 112.540117 
L 155.920135 112.540117 
L 155.920135 107.540117 
L 150.920135 107.540117 
z
" clip-path="url(#pa364d1b6bb)" style="fill: #ffffff; stroke: #000000; stroke-width: 0.4"/>
    <path d="M 147.928034 111.660918 
L 152.928034 111.660918 
L 152.928034 106.660918 
L 147.928034 106.660918 
z
" clip-path="url(#pa364d1b6bb)" style="fill: #ffffff; stroke: #000000; stroke-width: 0.4"/>
   </g>
   <g id="PathCollection_19">
    <path d="M 183.880827 113.107153 
L 188.880827 113.107153 
L 188.880827 108.107153 
L 183.880827 108.107153 
z
" clip-path="url(#pa364d1b6bb)" style="fill: #ffffff; stroke: #000000; stroke-width: 0.4"/>
    <path d="M 183.098507 113.972971 
L 188.098507 113.972971 
L 188.098507 108.972971 
L 183.098507 108.972971 
z
" clip-path="url(#pa364d1b6bb)" style="fill: #ffffff; stroke: #000000; stroke-width: 0.4"/>
    <path d="M 184.033095 111.620241 
L 189.033095 111.620241 
L 189.033095 106.620241 
L 184.033095 106.620241 
z
" clip-path="url(#pa364d1b6bb)" style="fill: #ffffff; stroke: #000000; stroke-width: 0.4"/>
    <path d="M 182.921329 109.640852 
L 187.921329 109.640852 
L 187.921329 104.640852 
L 182.921329 104.640852 
z
" clip-path="url(#pa364d1b6bb)" style="fill: #ffffff; stroke: #000000; stroke-width: 0.4"/>
   </g>
   <g id="PathCollection_20">
    <path d="M 207.242214 89.871456 
L 212.242214 89.871456 
L 212.242214 84.871456 
L 207.242214 84.871456 
z
" clip-path="url(#pa364d1b6bb)" style="fill: #ffffff; stroke: #000000; stroke-width: 0.4"/>
    <path d="M 210.230693 91.280684 
L 215.230693 91.280684 
L 215.230693 86.280684 
L 210.230693 86.280684 
z
" clip-path="url(#pa364d1b6bb)" style="fill: #ffffff; stroke: #000000; stroke-width: 0.4"/>
    <path d="M 207.506239 86.706686 
L 212.506239 86.706686 
L 212.506239 81.706686 
L 207.506239 81.706686 
z
" clip-path="url(#pa364d1b6bb)" style="fill: #ffffff; stroke: #000000; stroke-width: 0.4"/>
    <path d="M 208.48467 85.37928 
L 213.48467 85.37928 
L 213.48467 80.37928 
L 208.48467 80.37928 
z
" clip-path="url(#pa364d1b6bb)" style="fill: #ffffff; stroke: #000000; stroke-width: 0.4"/>
   </g>
   <g id="PathCollection_21">
    <path d="M 74.487719 67.975781 
L 71.987719 72.975781 
L 76.987719 72.975781 
z
" clip-path="url(#pa364d1b6bb)" style="fill: #ffffff; stroke: #000000; stroke-width: 0.4"/>
    <path d="M 72.705894 73.638271 
L 70.205894 78.638271 
L 75.205894 78.638271 
z
" clip-path="url(#pa364d1b6bb)" style="fill: #ffffff; stroke: #000000; stroke-width: 0.4"/>
    <path d="M 69.900413 77.753886 
L 67.400413 82.753886 
L 72.400413 82.753886 
z
" clip-path="url(#pa364d1b6bb)" style="fill: #ffffff; stroke: #000000; stroke-width: 0.4"/>
    <path d="M 70.666324 75.736708 
L 68.166324 80.736708 
L 73.166324 80.736708 
z
" clip-path="url(#pa364d1b6bb)" style="fill: #ffffff; stroke: #000000; stroke-width: 0.4"/>
   </g>
   <g id="PathCollection_22">
    <path d="M 96.840798 37.502311 
L 94.340798 42.502311 
L 99.340798 42.502311 
z
" clip-path="url(#pa364d1b6bb)" style="fill: #ffffff; stroke: #000000; stroke-width: 0.4"/>
    <path d="M 94.812079 43.581149 
L 92.312079 48.581149 
L 97.312079 48.581149 
z
" clip-path="url(#pa364d1b6bb)" style="fill: #ffffff; stroke: #000000; stroke-width: 0.4"/>
    <path d="M 94.215377 46.478788 
L 91.715377 51.478788 
L 96.715377 51.478788 
z
" clip-path="url(#pa364d1b6bb)" style="fill: #ffffff; stroke: #000000; stroke-width: 0.4"/>
    <path d="M 96.217242 46.848182 
L 93.717242 51.848182 
L 98.717242 51.848182 
z
" clip-path="url(#pa364d1b6bb)" style="fill: #ffffff; stroke: #000000; stroke-width: 0.4"/>
   </g>
   <g id="PathCollection_23">
    <path d="M 132.790638 123.44744 
L 130.290638 128.44744 
L 135.290638 128.44744 
z
" clip-path="url(#pa364d1b6bb)" style="fill: #ffffff; stroke: #000000; stroke-width: 0.4"/>
    <path d="M 130.924311 123.52013 
L 128.424311 128.52013 
L 133.424311 128.52013 
z
" clip-path="url(#pa364d1b6bb)" style="fill: #ffffff; stroke: #000000; stroke-width: 0.4"/>
    <path d="M 131.331181 123.471258 
L 128.831181 128.471258 
L 133.831181 128.471258 
z
" clip-path="url(#pa364d1b6bb)" style="fill: #ffffff; stroke: #000000; stroke-width: 0.4"/>
    <path d="M 132.393235 123.463713 
L 129.893235 128.463713 
L 134.893235 128.463713 
z
" clip-path="url(#pa364d1b6bb)" style="fill: #ffffff; stroke: #000000; stroke-width: 0.4"/>
   </g>
   <g id="PathCollection_24">
    <path d="M 153.435015 108.849862 
L 150.935015 113.849862 
L 155.935015 113.849862 
z
" clip-path="url(#pa364d1b6bb)" style="fill: #ffffff; stroke: #000000; stroke-width: 0.4"/>
    <path d="M 151.504369 108.869728 
L 149.004369 113.869728 
L 154.004369 113.869728 
z
" clip-path="url(#pa364d1b6bb)" style="fill: #ffffff; stroke: #000000; stroke-width: 0.4"/>
    <path d="M 153.847571 108.478019 
L 151.347571 113.478019 
L 156.347571 113.478019 
z
" clip-path="url(#pa364d1b6bb)" style="fill: #ffffff; stroke: #000000; stroke-width: 0.4"/>
    <path d="M 152.910409 108.256631 
L 150.410409 113.256631 
L 155.410409 113.256631 
z
" clip-path="url(#pa364d1b6bb)" style="fill: #ffffff; stroke: #000000; stroke-width: 0.4"/>
   </g>
   <g id="PathCollection_25">
    <path d="M 189.675488 105.157844 
L 187.175488 110.157844 
L 192.175488 110.157844 
z
" clip-path="url(#pa364d1b6bb)" style="fill: #ffffff; stroke: #000000; stroke-width: 0.4"/>
    <path d="M 190.193529 107.501311 
L 187.693529 112.501311 
L 192.693529 112.501311 
z
" clip-path="url(#pa364d1b6bb)" style="fill: #ffffff; stroke: #000000; stroke-width: 0.4"/>
    <path d="M 189.842619 105.946317 
L 187.342619 110.946317 
L 192.342619 110.946317 
z
" clip-path="url(#pa364d1b6bb)" style="fill: #ffffff; stroke: #000000; stroke-width: 0.4"/>
    <path d="M 187.091538 106.759703 
L 184.591538 111.759703 
L 189.591538 111.759703 
z
" clip-path="url(#pa364d1b6bb)" style="fill: #ffffff; stroke: #000000; stroke-width: 0.4"/>
   </g>
   <g id="PathCollection_26">
    <path d="M 208.208329 82.50854 
L 205.708329 87.50854 
L 210.708329 87.50854 
z
" clip-path="url(#pa364d1b6bb)" style="fill: #ffffff; stroke: #000000; stroke-width: 0.4"/>
    <path d="M 210.311866 85.336649 
L 207.811866 90.336649 
L 212.811866 90.336649 
z
" clip-path="url(#pa364d1b6bb)" style="fill: #ffffff; stroke: #000000; stroke-width: 0.4"/>
    <path d="M 211.114547 80.238017 
L 208.614547 85.238017 
L 213.614547 85.238017 
z
" clip-path="url(#pa364d1b6bb)" style="fill: #ffffff; stroke: #000000; stroke-width: 0.4"/>
    <path d="M 209.120143 83.581098 
L 206.620143 88.581098 
L 211.620143 88.581098 
z
" clip-path="url(#pa364d1b6bb)" style="fill: #ffffff; stroke: #000000; stroke-width: 0.4"/>
   </g>
   <g id="PathCollection_27">
    <path d="M 74.468919 81.989639 
L 78.004453 78.454105 
L 74.468919 74.918571 
L 70.933386 78.454105 
z
" clip-path="url(#pa364d1b6bb)" style="fill: #ffffff; stroke: #000000; stroke-width: 0.4"/>
    <path d="M 74.057754 74.812764 
L 77.593287 71.27723 
L 74.057754 67.741696 
L 70.52222 71.27723 
z
" clip-path="url(#pa364d1b6bb)" style="fill: #ffffff; stroke: #000000; stroke-width: 0.4"/>
    <path d="M 70.58606 80.021911 
L 74.121594 76.486377 
L 70.58606 72.950843 
L 67.050526 76.486377 
z
" clip-path="url(#pa364d1b6bb)" style="fill: #ffffff; stroke: #000000; stroke-width: 0.4"/>
    <path d="M 71.258713 81.722462 
L 74.794247 78.186928 
L 71.258713 74.651395 
L 67.723179 78.186928 
z
" clip-path="url(#pa364d1b6bb)" style="fill: #ffffff; stroke: #000000; stroke-width: 0.4"/>
   </g>
   <g id="PathCollection_28">
    <path d="M 95.860019 47.962392 
L 99.395553 44.426858 
L 95.860019 40.891324 
L 92.324485 44.426858 
z
" clip-path="url(#pa364d1b6bb)" style="fill: #ffffff; stroke: #000000; stroke-width: 0.4"/>
    <path d="M 96.088186 42.468149 
L 99.623719 38.932615 
L 96.088186 35.397081 
L 92.552652 38.932615 
z
" clip-path="url(#pa364d1b6bb)" style="fill: #ffffff; stroke: #000000; stroke-width: 0.4"/>
    <path d="M 96.11278 47.085355 
L 99.648314 43.549821 
L 96.11278 40.014287 
L 92.577246 43.549821 
z
" clip-path="url(#pa364d1b6bb)" style="fill: #ffffff; stroke: #000000; stroke-width: 0.4"/>
    <path d="M 94.194507 47.198751 
L 97.730041 43.663217 
L 94.194507 40.127683 
L 90.658973 43.663217 
z
" clip-path="url(#pa364d1b6bb)" style="fill: #ffffff; stroke: #000000; stroke-width: 0.4"/>
   </g>
   <g id="PathCollection_29">
    <path d="M 131.974213 129.570689 
L 135.509747 126.035156 
L 131.974213 122.499622 
L 128.438679 126.035156 
z
" clip-path="url(#pa364d1b6bb)" style="fill: #ffffff; stroke: #000000; stroke-width: 0.4"/>
    <path d="M 128.525084 129.439212 
L 132.060618 125.903678 
L 128.525084 122.368144 
L 124.98955 125.903678 
z
" clip-path="url(#pa364d1b6bb)" style="fill: #ffffff; stroke: #000000; stroke-width: 0.4"/>
    <path d="M 132.157013 129.441043 
L 135.692546 125.905509 
L 132.157013 122.369975 
L 128.621479 125.905509 
z
" clip-path="url(#pa364d1b6bb)" style="fill: #ffffff; stroke: #000000; stroke-width: 0.4"/>
    <path d="M 131.495701 129.548914 
L 135.031235 126.01338 
L 131.495701 122.477846 
L 127.960167 126.01338 
z
" clip-path="url(#pa364d1b6bb)" style="fill: #ffffff; stroke: #000000; stroke-width: 0.4"/>
   </g>
   <g id="PathCollection_30">
    <path d="M 152.360887 113.799408 
L 155.896421 110.263874 
L 152.360887 106.728341 
L 148.825353 110.263874 
z
" clip-path="url(#pa364d1b6bb)" style="fill: #ffffff; stroke: #000000; stroke-width: 0.4"/>
    <path d="M 153.069975 114.74589 
L 156.605509 111.210356 
L 153.069975 107.674822 
L 149.534441 111.210356 
z
" clip-path="url(#pa364d1b6bb)" style="fill: #ffffff; stroke: #000000; stroke-width: 0.4"/>
    <path d="M 155.053928 113.395186 
L 158.589462 109.859652 
L 155.053928 106.324119 
L 151.518394 109.859652 
z
" clip-path="url(#pa364d1b6bb)" style="fill: #ffffff; stroke: #000000; stroke-width: 0.4"/>
    <path d="M 150.940468 112.75181 
L 154.476002 109.216276 
L 150.940468 105.680742 
L 147.404934 109.216276 
z
" clip-path="url(#pa364d1b6bb)" style="fill: #ffffff; stroke: #000000; stroke-width: 0.4"/>
   </g>
   <g id="PathCollection_31">
    <path d="M 187.968163 114.141944 
L 191.503696 110.60641 
L 187.968163 107.070877 
L 184.432629 110.60641 
z
" clip-path="url(#pa364d1b6bb)" style="fill: #ffffff; stroke: #000000; stroke-width: 0.4"/>
    <path d="M 189.780053 112.170238 
L 193.315587 108.634704 
L 189.780053 105.09917 
L 186.244519 108.634704 
z
" clip-path="url(#pa364d1b6bb)" style="fill: #ffffff; stroke: #000000; stroke-width: 0.4"/>
    <path d="M 186.626877 111.345257 
L 190.162411 107.809723 
L 186.626877 104.274189 
L 183.091344 107.809723 
z
" clip-path="url(#pa364d1b6bb)" style="fill: #ffffff; stroke: #000000; stroke-width: 0.4"/>
    <path d="M 186.373096 111.355231 
L 189.90863 107.819697 
L 186.373096 104.284163 
L 182.837562 107.819697 
z
" clip-path="url(#pa364d1b6bb)" style="fill: #ffffff; stroke: #000000; stroke-width: 0.4"/>
   </g>
   <g id="PathCollection_32">
    <path d="M 207.814482 89.261305 
L 211.350016 85.725771 
L 207.814482 82.190237 
L 204.278948 85.725771 
z
" clip-path="url(#pa364d1b6bb)" style="fill: #ffffff; stroke: #000000; stroke-width: 0.4"/>
    <path d="M 212.01453 89.849875 
L 215.550063 86.314341 
L 212.01453 82.778807 
L 208.478996 86.314341 
z
" clip-path="url(#pa364d1b6bb)" style="fill: #ffffff; stroke: #000000; stroke-width: 0.4"/>
    <path d="M 210.945601 86.968276 
L 214.481135 83.432742 
L 210.945601 79.897208 
L 207.410067 83.432742 
z
" clip-path="url(#pa364d1b6bb)" style="fill: #ffffff; stroke: #000000; stroke-width: 0.4"/>
    <path d="M 211.683708 85.703742 
L 215.219242 82.168208 
L 211.683708 78.632674 
L 208.148174 82.168208 
z
" clip-path="url(#pa364d1b6bb)" style="fill: #ffffff; stroke: #000000; stroke-width: 0.4"/>
   </g>
   <g id="text_11">
    <!-- **** -->
    <g transform="translate(171.640074 66.04212)scale(0.1 -0.1)">
     <defs>
      <path id="DejaVuSans-2a" d="M 3009 3897 
L 1888 3291 
L 3009 2681 
L 2828 2375 
L 1778 3009 
L 1778 1831 
L 1422 1831 
L 1422 3009 
L 372 2375 
L 191 2681 
L 1313 3291 
L 191 3897 
L 372 4206 
L 1422 3572 
L 1422 4750 
L 1778 4750 
L 1778 3572 
L 2828 4206 
L 3009 3897 
z
" transform="scale(0.015625)"/>
     </defs>
     <use xlink:href="#DejaVuSans-2a"/>
     <use xlink:href="#DejaVuSans-2a" x="50"/>
     <use xlink:href="#DejaVuSans-2a" x="100"/>
     <use xlink:href="#DejaVuSans-2a" x="150"/>
    </g>
   </g>
   <g id="text_12">
    <!-- 4 dpi -->
    <g transform="translate(126.421875 16.318125)scale(0.12 -0.12)">
     <defs>
      <path id="DejaVuSans-64" d="M 2906 2969 
L 2906 4863 
L 3481 4863 
L 3481 0 
L 2906 0 
L 2906 525 
Q 2725 213 2448 61 
Q 2172 -91 1784 -91 
Q 1150 -91 751 415 
Q 353 922 353 1747 
Q 353 2572 751 3078 
Q 1150 3584 1784 3584 
Q 2172 3584 2448 3432 
Q 2725 3281 2906 2969 
z
M 947 1747 
Q 947 1113 1208 752 
Q 1469 391 1925 391 
Q 2381 391 2643 752 
Q 2906 1113 2906 1747 
Q 2906 2381 2643 2742 
Q 2381 3103 1925 3103 
Q 1469 3103 1208 2742 
Q 947 2381 947 1747 
z
" transform="scale(0.015625)"/>
      <path id="DejaVuSans-70" d="M 1159 525 
L 1159 -1331 
L 581 -1331 
L 581 3500 
L 1159 3500 
L 1159 2969 
Q 1341 3281 1617 3432 
Q 1894 3584 2278 3584 
Q 2916 3584 3314 3078 
Q 3713 2572 3713 1747 
Q 3713 922 3314 415 
Q 2916 -91 2278 -91 
Q 1894 -91 1617 61 
Q 1341 213 1159 525 
z
M 3116 1747 
Q 3116 2381 2855 2742 
Q 2594 3103 2138 3103 
Q 1681 3103 1420 2742 
Q 1159 2381 1159 1747 
Q 1159 1113 1420 752 
Q 1681 391 2138 391 
Q 2594 391 2855 752 
Q 3116 1113 3116 1747 
z
" transform="scale(0.015625)"/>
      <path id="DejaVuSans-69" d="M 603 3500 
L 1178 3500 
L 1178 0 
L 603 0 
L 603 3500 
z
M 603 4863 
L 1178 4863 
L 1178 4134 
L 603 4134 
L 603 4863 
z
" transform="scale(0.015625)"/>
     </defs>
     <use xlink:href="#DejaVuSans-34"/>
     <use xlink:href="#DejaVuSans-20" x="63.623047"/>
     <use xlink:href="#DejaVuSans-64" x="95.410156"/>
     <use xlink:href="#DejaVuSans-70" x="158.886719"/>
     <use xlink:href="#DejaVuSans-69" x="222.363281"/>
    </g>
   </g>
   <g id="legend_1">
    <g id="patch_15">
     <path d="M 248.08125 38.916562 
L 268.08125 38.916562 
L 268.08125 31.916562 
L 248.08125 31.916562 
z
" style="fill: #ffffff; stroke: #4c4c4c; stroke-width: 0.75; stroke-linejoin: miter"/>
    </g>
    <g id="text_13">
     <!-- Bulk -->
     <g transform="translate(276.08125 38.916562)scale(0.1 -0.1)">
      <defs>
       <path id="DejaVuSans-6c" d="M 603 4863 
L 1178 4863 
L 1178 0 
L 603 0 
L 603 4863 
z
" transform="scale(0.015625)"/>
       <path id="DejaVuSans-6b" d="M 581 4863 
L 1159 4863 
L 1159 1991 
L 2875 3500 
L 3609 3500 
L 1753 1863 
L 3688 0 
L 2938 0 
L 1159 1709 
L 1159 0 
L 581 0 
L 581 4863 
z
" transform="scale(0.015625)"/>
      </defs>
      <use xlink:href="#DejaVuSans-42"/>
      <use xlink:href="#DejaVuSans-75" x="68.603516"/>
      <use xlink:href="#DejaVuSans-6c" x="131.982422"/>
      <use xlink:href="#DejaVuSans-6b" x="159.765625"/>
     </g>
    </g>
    <g id="patch_16">
     <path d="M 248.08125 53.594687 
L 268.08125 53.594687 
L 268.08125 46.594687 
L 248.08125 46.594687 
z
" style="fill: #c03d3e; stroke: #4c4c4c; stroke-width: 0.75; stroke-linejoin: miter"/>
    </g>
    <g id="text_14">
     <!-- mRuby2+ -->
     <g transform="translate(276.08125 53.594687)scale(0.1 -0.1)">
      <defs>
       <path id="DejaVuSans-2b" d="M 2944 4013 
L 2944 2272 
L 4684 2272 
L 4684 1741 
L 2944 1741 
L 2944 0 
L 2419 0 
L 2419 1741 
L 678 1741 
L 678 2272 
L 2419 2272 
L 2419 4013 
L 2944 4013 
z
" transform="scale(0.015625)"/>
      </defs>
      <use xlink:href="#DejaVuSans-6d"/>
      <use xlink:href="#DejaVuSans-52" x="97.412109"/>
      <use xlink:href="#DejaVuSans-75" x="162.394531"/>
      <use xlink:href="#DejaVuSans-62" x="225.773438"/>
      <use xlink:href="#DejaVuSans-79" x="289.25"/>
      <use xlink:href="#DejaVuSans-32" x="348.429688"/>
      <use xlink:href="#DejaVuSans-2b" x="412.052734"/>
     </g>
    </g>
   </g>
  </g>
 </g>
 <defs>
  <clipPath id="pa364d1b6bb">
   <rect x="43.78125" y="22.318125" width="195.3" height="108.72"/>
  </clipPath>
 </defs>
</svg>
