<?xml version="1.0" encoding="utf-8" standalone="no"?>
<!DOCTYPE svg PUBLIC "-//W3C//DTD SVG 1.1//EN"
  "http://www.w3.org/Graphics/SVG/1.1/DTD/svg11.dtd">
<svg xmlns:xlink="http://www.w3.org/1999/xlink" width="405.354687pt" height="168.646875pt" viewBox="0 0 405.354687 168.646875" xmlns="http://www.w3.org/2000/svg" version="1.1">
 <metadata>
  <rdf:RDF xmlns:dc="http://purl.org/dc/elements/1.1/" xmlns:cc="http://creativecommons.org/ns#" xmlns:rdf="http://www.w3.org/1999/02/22-rdf-syntax-ns#">
   <cc:Work>
    <dc:type rdf:resource="http://purl.org/dc/dcmitype/StillImage"/>
    <dc:date>2025-01-26T10:49:50.996907</dc:date>
    <dc:format>image/svg+xml</dc:format>
    <dc:creator>
     <cc:Agent>
      <dc:title>Matplotlib v3.5.2, https://matplotlib.org/</dc:title>
     </cc:Agent>
    </dc:creator>
   </cc:Work>
  </rdf:RDF>
 </metadata>
 <defs>
  <style type="text/css">*{stroke-linejoin: round; stroke-linecap: butt}</style>
 </defs>
 <g id="figure_1">
  <g id="patch_1">
   <path d="M 0 168.646875 
L 405.354687 168.646875 
L 405.354687 0 
L 0 0 
L 0 168.646875 
z
" style="fill: none"/>
  </g>
  <g id="axes_1">
   <g id="patch_2">
    <path d="M 50.14375 131.090625 
L 217.54375 131.090625 
L 217.54375 22.370625 
L 50.14375 22.370625 
z
" style="fill: #ffffff"/>
   </g>
   <g id="PolyCollection_1">
    <defs>
     <path id="md7858197cb" d="M -9.910361 -37.556501 
L -9.910361 -37.55625 
L -8.813134 -37.55625 
L -7.715907 -37.55625 
L -6.618681 -37.55625 
L -5.521454 -37.55625 
L -4.424227 -37.55625 
L -3.327 -37.55625 
L -2.229773 -37.55625 
L -1.132546 -37.55625 
L -0.03532 -37.55625 
L 1.061907 -37.55625 
L 2.159134 -37.55625 
L 3.256361 -37.55625 
L 4.353588 -37.55625 
L 5.450814 -37.55625 
L 6.548041 -37.55625 
L 7.645268 -37.55625 
L 8.742495 -37.55625 
L 9.839722 -37.55625 
L 10.936948 -37.55625 
L 12.034175 -37.55625 
L 13.131402 -37.55625 
L 14.228629 -37.55625 
L 15.325856 -37.55625 
L 16.423083 -37.55625 
L 17.520309 -37.55625 
L 18.617536 -37.55625 
L 19.714763 -37.55625 
L 20.81199 -37.55625 
L 21.909217 -37.55625 
L 23.006443 -37.55625 
L 24.10367 -37.55625 
L 25.200897 -37.55625 
L 26.298124 -37.55625 
L 27.395351 -37.55625 
L 28.492578 -37.55625 
L 29.589804 -37.55625 
L 30.687031 -37.55625 
L 31.784258 -37.55625 
L 32.881485 -37.55625 
L 33.978712 -37.55625 
L 35.075938 -37.55625 
L 36.173165 -37.55625 
L 37.270392 -37.55625 
L 38.367619 -37.55625 
L 39.464846 -37.55625 
L 40.562072 -37.55625 
L 41.659299 -37.55625 
L 42.756526 -37.55625 
L 43.853753 -37.55625 
L 44.95098 -37.55625 
L 46.048207 -37.55625 
L 47.145433 -37.55625 
L 48.24266 -37.55625 
L 49.339887 -37.55625 
L 50.437114 -37.55625 
L 51.534341 -37.55625 
L 52.631567 -37.55625 
L 53.728794 -37.55625 
L 54.826021 -37.55625 
L 55.923248 -37.55625 
L 57.020475 -37.55625 
L 58.117701 -37.55625 
L 59.214928 -37.55625 
L 60.312155 -37.55625 
L 61.409382 -37.55625 
L 62.506609 -37.55625 
L 63.603836 -37.55625 
L 64.701062 -37.55625 
L 65.798289 -37.55625 
L 66.895516 -37.55625 
L 67.992743 -37.55625 
L 69.08997 -37.55625 
L 70.187196 -37.55625 
L 71.284423 -37.55625 
L 72.38165 -37.55625 
L 73.478877 -37.55625 
L 74.576104 -37.55625 
L 75.67333 -37.55625 
L 76.770557 -37.55625 
L 77.867784 -37.55625 
L 78.965011 -37.55625 
L 80.062238 -37.55625 
L 81.159465 -37.55625 
L 82.256691 -37.55625 
L 83.353918 -37.55625 
L 84.451145 -37.55625 
L 85.548372 -37.55625 
L 86.645599 -37.55625 
L 87.742825 -37.55625 
L 88.840052 -37.55625 
L 89.937279 -37.55625 
L 91.034506 -37.55625 
L 92.131733 -37.55625 
L 93.22896 -37.55625 
L 94.326186 -37.55625 
L 95.423413 -37.55625 
L 96.52064 -37.55625 
L 97.617867 -37.55625 
L 98.715094 -37.55625 
L 99.81232 -37.55625 
L 100.909547 -37.55625 
L 102.006774 -37.55625 
L 103.104001 -37.55625 
L 104.201228 -37.55625 
L 105.298454 -37.55625 
L 106.395681 -37.55625 
L 107.492908 -37.55625 
L 108.590135 -37.55625 
L 109.687362 -37.55625 
L 110.784589 -37.55625 
L 111.881815 -37.55625 
L 112.979042 -37.55625 
L 114.076269 -37.55625 
L 115.173496 -37.55625 
L 116.270723 -37.55625 
L 117.367949 -37.55625 
L 118.465176 -37.55625 
L 119.562403 -37.55625 
L 120.65963 -37.55625 
L 121.756857 -37.55625 
L 122.854083 -37.55625 
L 123.95131 -37.55625 
L 125.048537 -37.55625 
L 126.145764 -37.55625 
L 127.242991 -37.55625 
L 128.340218 -37.55625 
L 129.437444 -37.55625 
L 130.534671 -37.55625 
L 131.631898 -37.55625 
L 132.729125 -37.55625 
L 133.826352 -37.55625 
L 134.923578 -37.55625 
L 136.020805 -37.55625 
L 137.118032 -37.55625 
L 138.215259 -37.55625 
L 139.312486 -37.55625 
L 140.409713 -37.55625 
L 141.506939 -37.55625 
L 142.604166 -37.55625 
L 143.701393 -37.55625 
L 144.79862 -37.55625 
L 145.895847 -37.55625 
L 146.993073 -37.55625 
L 148.0903 -37.55625 
L 149.187527 -37.55625 
L 150.284754 -37.55625 
L 151.381981 -37.55625 
L 152.479207 -37.55625 
L 153.576434 -37.55625 
L 154.673661 -37.55625 
L 155.770888 -37.55625 
L 156.868115 -37.55625 
L 157.965342 -37.55625 
L 159.062568 -37.55625 
L 160.159795 -37.55625 
L 161.257022 -37.55625 
L 162.354249 -37.55625 
L 163.451476 -37.55625 
L 164.548702 -37.55625 
L 165.645929 -37.55625 
L 166.743156 -37.55625 
L 167.840383 -37.55625 
L 168.93761 -37.55625 
L 170.034836 -37.55625 
L 171.132063 -37.55625 
L 172.22929 -37.55625 
L 173.326517 -37.55625 
L 174.423744 -37.55625 
L 175.520971 -37.55625 
L 176.618197 -37.55625 
L 177.715424 -37.55625 
L 178.812651 -37.55625 
L 179.909878 -37.55625 
L 181.007105 -37.55625 
L 182.104331 -37.55625 
L 183.201558 -37.55625 
L 184.298785 -37.55625 
L 185.396012 -37.55625 
L 186.493239 -37.55625 
L 187.590465 -37.55625 
L 188.687692 -37.55625 
L 189.784919 -37.55625 
L 190.882146 -37.55625 
L 191.979373 -37.55625 
L 193.0766 -37.55625 
L 194.173826 -37.55625 
L 195.271053 -37.55625 
L 196.36828 -37.55625 
L 197.465507 -37.55625 
L 198.562734 -37.55625 
L 199.65996 -37.55625 
L 200.757187 -37.55625 
L 201.854414 -37.55625 
L 202.951641 -37.55625 
L 204.048868 -37.55625 
L 205.146095 -37.55625 
L 206.243321 -37.55625 
L 207.340548 -37.55625 
L 208.437775 -37.55625 
L 208.437775 -37.556633 
L 208.437775 -37.556633 
L 207.340548 -37.557397 
L 206.243321 -37.559311 
L 205.146095 -37.563543 
L 204.048868 -37.571861 
L 202.951641 -37.586504 
L 201.854414 -37.609885 
L 200.757187 -37.644362 
L 199.65996 -37.692277 
L 198.562734 -37.756151 
L 197.465507 -37.838562 
L 196.36828 -37.941591 
L 195.271053 -38.066649 
L 194.173826 -38.215782 
L 193.0766 -38.39446 
L 191.979373 -38.614278 
L 190.882146 -38.893773 
L 189.784919 -39.256596 
L 188.687692 -39.727196 
L 187.590465 -40.324348 
L 186.493239 -41.053937 
L 185.396012 -41.904603 
L 184.298785 -42.850544 
L 183.201558 -43.862529 
L 182.104331 -44.922669 
L 181.007105 -46.03545 
L 179.909878 -47.229383 
L 178.812651 -48.548838 
L 177.715424 -50.040446 
L 176.618197 -51.740246 
L 175.520971 -53.66563 
L 174.423744 -55.812423 
L 173.326517 -58.15559 
L 172.22929 -60.65319 
L 171.132063 -63.253824 
L 170.034836 -65.905803 
L 168.93761 -68.564098 
L 167.840383 -71.192883 
L 166.743156 -73.765681 
L 165.645929 -76.266914 
L 164.548702 -78.695808 
L 163.451476 -81.069164 
L 162.354249 -83.41761 
L 161.257022 -85.772506 
L 160.159795 -88.146515 
L 159.062568 -90.517356 
L 157.965342 -92.826978 
L 156.868115 -95.002544 
L 155.770888 -96.990844 
L 154.673661 -98.784378 
L 153.576434 -100.419658 
L 152.479207 -101.946943 
L 151.381981 -103.389768 
L 150.284754 -104.71787 
L 149.187527 -105.850661 
L 148.0903 -106.696767 
L 146.993073 -107.21593 
L 145.895847 -107.465254 
L 144.79862 -107.586098 
L 143.701393 -107.724106 
L 142.604166 -107.933746 
L 141.506939 -108.142887 
L 140.409713 -108.208456 
L 139.312486 -108.017825 
L 138.215259 -107.555754 
L 137.118032 -106.893928 
L 136.020805 -106.126938 
L 134.923578 -105.312032 
L 133.826352 -104.451392 
L 132.729125 -103.515128 
L 131.631898 -102.476508 
L 130.534671 -101.330975 
L 129.437444 -100.089959 
L 128.340218 -98.762835 
L 127.242991 -97.348053 
L 126.145764 -95.842331 
L 125.048537 -94.257914 
L 123.95131 -92.630778 
L 122.854083 -91.011746 
L 121.756857 -89.447555 
L 120.65963 -87.965455 
L 119.562403 -86.568293 
L 118.465176 -85.236095 
L 117.367949 -83.928627 
L 116.270723 -82.59162 
L 115.173496 -81.17329 
L 114.076269 -79.648711 
L 112.979042 -78.037341 
L 111.881815 -76.399143 
L 110.784589 -74.808594 
L 109.687362 -73.320933 
L 108.590135 -71.949776 
L 107.492908 -70.667904 
L 106.395681 -69.429424 
L 105.298454 -68.199662 
L 104.201228 -66.975263 
L 103.104001 -65.782972 
L 102.006774 -64.658187 
L 100.909547 -63.616417 
L 99.81232 -62.634412 
L 98.715094 -61.651194 
L 97.617867 -60.588606 
L 96.52064 -59.382797 
L 95.423413 -58.013205 
L 94.326186 -56.514111 
L 93.22896 -54.960324 
L 92.131733 -53.434179 
L 91.034506 -51.994632 
L 89.937279 -50.666465 
L 88.840052 -49.449898 
L 87.742825 -48.335728 
L 86.645599 -47.312243 
L 85.548372 -46.363347 
L 84.451145 -45.467562 
L 83.353918 -44.605335 
L 82.256691 -43.771139 
L 81.159465 -42.979203 
L 80.062238 -42.256007 
L 78.965011 -41.624656 
L 77.867784 -41.093058 
L 76.770557 -40.652809 
L 75.67333 -40.285729 
L 74.576104 -39.97099 
L 73.478877 -39.689484 
L 72.38165 -39.426528 
L 71.284423 -39.174073 
L 70.187196 -38.931452 
L 69.08997 -38.703413 
L 67.992743 -38.496388 
L 66.895516 -38.31555 
L 65.798289 -38.164048 
L 64.701062 -38.043426 
L 63.603836 -37.953392 
L 62.506609 -37.890671 
L 61.409382 -37.848569 
L 60.312155 -37.818649 
L 59.214928 -37.79392 
L 58.117701 -37.771233 
L 57.020475 -37.751021 
L 55.923248 -37.734721 
L 54.826021 -37.722133 
L 53.728794 -37.710892 
L 52.631567 -37.698323 
L 51.534341 -37.683824 
L 50.437114 -37.669556 
L 49.339887 -37.658752 
L 48.24266 -37.653038 
L 47.145433 -37.650977 
L 46.048207 -37.648941 
L 44.95098 -37.643534 
L 43.853753 -37.633685 
L 42.756526 -37.62106 
L 41.659299 -37.608792 
L 40.562072 -37.599608 
L 39.464846 -37.594567 
L 38.367619 -37.592958 
L 37.270392 -37.593097 
L 36.173165 -37.593262 
L 35.075938 -37.592223 
L 33.978712 -37.58935 
L 32.881485 -37.584611 
L 31.784258 -37.578575 
L 30.687031 -37.572279 
L 29.589804 -37.566893 
L 28.492578 -37.563353 
L 27.395351 -37.562166 
L 26.298124 -37.56341 
L 25.200897 -37.566736 
L 24.10367 -37.571279 
L 23.006443 -37.57568 
L 21.909217 -37.57842 
L 20.81199 -37.578465 
L 19.714763 -37.575773 
L 18.617536 -37.571295 
L 17.520309 -37.566416 
L 16.423083 -37.562275 
L 15.325856 -37.559391 
L 14.228629 -37.557726 
L 13.131402 -37.556989 
L 12.034175 -37.556946 
L 10.936948 -37.557584 
L 9.839722 -37.559132 
L 8.742495 -37.561937 
L 7.645268 -37.566211 
L 6.548041 -37.571747 
L 5.450814 -37.577826 
L 4.353588 -37.583423 
L 3.256361 -37.587638 
L 2.159134 -37.589986 
L 1.061907 -37.590337 
L -0.03532 -37.588684 
L -1.132546 -37.58509 
L -2.229773 -37.579893 
L -3.327 -37.573864 
L -4.424227 -37.568031 
L -5.521454 -37.563264 
L -6.618681 -37.559944 
L -7.715907 -37.557966 
L -8.813134 -37.556951 
L -9.910361 -37.556501 
z
" style="stroke: #1f77b4"/>
    </defs>
    <g clip-path="url(#p8e4c148508)">
     <use xlink:href="#md7858197cb" x="0" y="168.646875" style="fill: #1f77b4; fill-opacity: 0.25; stroke: #1f77b4"/>
    </g>
   </g>
   <g id="PolyCollection_2">
    <defs>
     <path id="m50a7ca0ba5" d="M -35.04536 -37.556336 
L -35.04536 -37.55625 
L -33.771587 -37.55625 
L -32.497813 -37.55625 
L -31.22404 -37.55625 
L -29.950267 -37.55625 
L -28.676493 -37.55625 
L -27.40272 -37.55625 
L -26.128947 -37.55625 
L -24.855173 -37.55625 
L -23.5814 -37.55625 
L -22.307627 -37.55625 
L -21.033853 -37.55625 
L -19.76008 -37.55625 
L -18.486307 -37.55625 
L -17.212533 -37.55625 
L -15.93876 -37.55625 
L -14.664987 -37.55625 
L -13.391213 -37.55625 
L -12.11744 -37.55625 
L -10.843667 -37.55625 
L -9.569893 -37.55625 
L -8.29612 -37.55625 
L -7.022347 -37.55625 
L -5.748574 -37.55625 
L -4.4748 -37.55625 
L -3.201027 -37.55625 
L -1.927254 -37.55625 
L -0.65348 -37.55625 
L 0.620293 -37.55625 
L 1.894066 -37.55625 
L 3.16784 -37.55625 
L 4.441613 -37.55625 
L 5.715386 -37.55625 
L 6.98916 -37.55625 
L 8.262933 -37.55625 
L 9.536706 -37.55625 
L 10.81048 -37.55625 
L 12.084253 -37.55625 
L 13.358026 -37.55625 
L 14.6318 -37.55625 
L 15.905573 -37.55625 
L 17.179346 -37.55625 
L 18.45312 -37.55625 
L 19.726893 -37.55625 
L 21.000666 -37.55625 
L 22.27444 -37.55625 
L 23.548213 -37.55625 
L 24.821986 -37.55625 
L 26.095759 -37.55625 
L 27.369533 -37.55625 
L 28.643306 -37.55625 
L 29.917079 -37.55625 
L 31.190853 -37.55625 
L 32.464626 -37.55625 
L 33.738399 -37.55625 
L 35.012173 -37.55625 
L 36.285946 -37.55625 
L 37.559719 -37.55625 
L 38.833493 -37.55625 
L 40.107266 -37.55625 
L 41.381039 -37.55625 
L 42.654813 -37.55625 
L 43.928586 -37.55625 
L 45.202359 -37.55625 
L 46.476133 -37.55625 
L 47.749906 -37.55625 
L 49.023679 -37.55625 
L 50.297453 -37.55625 
L 51.571226 -37.55625 
L 52.844999 -37.55625 
L 54.118773 -37.55625 
L 55.392546 -37.55625 
L 56.666319 -37.55625 
L 57.940092 -37.55625 
L 59.213866 -37.55625 
L 60.487639 -37.55625 
L 61.761412 -37.55625 
L 63.035186 -37.55625 
L 64.308959 -37.55625 
L 65.582732 -37.55625 
L 66.856506 -37.55625 
L 68.130279 -37.55625 
L 69.404052 -37.55625 
L 70.677826 -37.55625 
L 71.951599 -37.55625 
L 73.225372 -37.55625 
L 74.499146 -37.55625 
L 75.772919 -37.55625 
L 77.046692 -37.55625 
L 78.320466 -37.55625 
L 79.594239 -37.55625 
L 80.868012 -37.55625 
L 82.141786 -37.55625 
L 83.415559 -37.55625 
L 84.689332 -37.55625 
L 85.963106 -37.55625 
L 87.236879 -37.55625 
L 88.510652 -37.55625 
L 89.784425 -37.55625 
L 91.058199 -37.55625 
L 92.331972 -37.55625 
L 93.605745 -37.55625 
L 94.879519 -37.55625 
L 96.153292 -37.55625 
L 97.427065 -37.55625 
L 98.700839 -37.55625 
L 99.974612 -37.55625 
L 101.248385 -37.55625 
L 102.522159 -37.55625 
L 103.795932 -37.55625 
L 105.069705 -37.55625 
L 106.343479 -37.55625 
L 107.617252 -37.55625 
L 108.891025 -37.55625 
L 110.164799 -37.55625 
L 111.438572 -37.55625 
L 112.712345 -37.55625 
L 113.986119 -37.55625 
L 115.259892 -37.55625 
L 116.533665 -37.55625 
L 117.807439 -37.55625 
L 119.081212 -37.55625 
L 120.354985 -37.55625 
L 121.628758 -37.55625 
L 122.902532 -37.55625 
L 124.176305 -37.55625 
L 125.450078 -37.55625 
L 126.723852 -37.55625 
L 127.997625 -37.55625 
L 129.271398 -37.55625 
L 130.545172 -37.55625 
L 131.818945 -37.55625 
L 133.092718 -37.55625 
L 134.366492 -37.55625 
L 135.640265 -37.55625 
L 136.914038 -37.55625 
L 138.187812 -37.55625 
L 139.461585 -37.55625 
L 140.735358 -37.55625 
L 142.009132 -37.55625 
L 143.282905 -37.55625 
L 144.556678 -37.55625 
L 145.830452 -37.55625 
L 147.104225 -37.55625 
L 148.377998 -37.55625 
L 149.651772 -37.55625 
L 150.925545 -37.55625 
L 152.199318 -37.55625 
L 153.473091 -37.55625 
L 154.746865 -37.55625 
L 156.020638 -37.55625 
L 157.294411 -37.55625 
L 158.568185 -37.55625 
L 159.841958 -37.55625 
L 161.115731 -37.55625 
L 162.389505 -37.55625 
L 163.663278 -37.55625 
L 164.937051 -37.55625 
L 166.210825 -37.55625 
L 167.484598 -37.55625 
L 168.758371 -37.55625 
L 170.032145 -37.55625 
L 171.305918 -37.55625 
L 172.579691 -37.55625 
L 173.853465 -37.55625 
L 175.127238 -37.55625 
L 176.401011 -37.55625 
L 177.674785 -37.55625 
L 178.948558 -37.55625 
L 180.222331 -37.55625 
L 181.496105 -37.55625 
L 182.769878 -37.55625 
L 184.043651 -37.55625 
L 185.317424 -37.55625 
L 186.591198 -37.55625 
L 187.864971 -37.55625 
L 189.138744 -37.55625 
L 190.412518 -37.55625 
L 191.686291 -37.55625 
L 192.960064 -37.55625 
L 194.233838 -37.55625 
L 195.507611 -37.55625 
L 196.781384 -37.55625 
L 198.055158 -37.55625 
L 199.328931 -37.55625 
L 200.602704 -37.55625 
L 201.876478 -37.55625 
L 203.150251 -37.55625 
L 204.424024 -37.55625 
L 205.697798 -37.55625 
L 206.971571 -37.55625 
L 208.245344 -37.55625 
L 209.519118 -37.55625 
L 210.792891 -37.55625 
L 212.066664 -37.55625 
L 213.340438 -37.55625 
L 214.614211 -37.55625 
L 215.887984 -37.55625 
L 217.161757 -37.55625 
L 218.435531 -37.55625 
L 218.435531 -37.556293 
L 218.435531 -37.556293 
L 217.161757 -37.556476 
L 215.887984 -37.557072 
L 214.614211 -37.558348 
L 213.340438 -37.56019 
L 212.066664 -37.562233 
L 210.792891 -37.564613 
L 209.519118 -37.567489 
L 208.245344 -37.569692 
L 206.971571 -37.569521 
L 205.697798 -37.567111 
L 204.424024 -37.5654 
L 203.150251 -37.569084 
L 201.876478 -37.582295 
L 200.602704 -37.607123 
L 199.328931 -37.645063 
L 198.055158 -37.6976 
L 196.781384 -37.764869 
L 195.507611 -37.850403 
L 194.233838 -37.963412 
L 192.960064 -38.106553 
L 191.686291 -38.275616 
L 190.412518 -38.48336 
L 189.138744 -38.764044 
L 187.864971 -39.143738 
L 186.591198 -39.625394 
L 185.317424 -40.211481 
L 184.043651 -40.922296 
L 182.769878 -41.781169 
L 181.496105 -42.796676 
L 180.222331 -43.973905 
L 178.948558 -45.33737 
L 177.674785 -46.920935 
L 176.401011 -48.726443 
L 175.127238 -50.713276 
L 173.853465 -52.850024 
L 172.579691 -55.167321 
L 171.305918 -57.701708 
L 170.032145 -60.378902 
L 168.758371 -63.052401 
L 167.484598 -65.671332 
L 166.210825 -68.300152 
L 164.937051 -70.989581 
L 163.663278 -73.720165 
L 162.389505 -76.414813 
L 161.115731 -78.963611 
L 159.841958 -81.295139 
L 158.568185 -83.425609 
L 157.294411 -85.411639 
L 156.020638 -87.2723 
L 154.746865 -88.993777 
L 153.473091 -90.602157 
L 152.199318 -92.164616 
L 150.925545 -93.715059 
L 149.651772 -95.221514 
L 148.377998 -96.614506 
L 147.104225 -97.845115 
L 145.830452 -98.926027 
L 144.556678 -99.895239 
L 143.282905 -100.751473 
L 142.009132 -101.472807 
L 140.735358 -102.052048 
L 139.461585 -102.443485 
L 138.187812 -102.573155 
L 136.914038 -102.462128 
L 135.640265 -102.217367 
L 134.366492 -101.897357 
L 133.092718 -101.498202 
L 131.818945 -101.025169 
L 130.545172 -100.48236 
L 129.271398 -99.852288 
L 127.997625 -99.164178 
L 126.723852 -98.473042 
L 125.450078 -97.714695 
L 124.176305 -96.751373 
L 122.902532 -95.602935 
L 121.628758 -94.452124 
L 120.354985 -93.351784 
L 119.081212 -92.132327 
L 117.807439 -90.723621 
L 116.533665 -89.292837 
L 115.259892 -87.927813 
L 113.986119 -86.47951 
L 112.712345 -84.844272 
L 111.438572 -83.185438 
L 110.164799 -81.730227 
L 108.891025 -80.47819 
L 107.617252 -79.248974 
L 106.343479 -77.898949 
L 105.069705 -76.40407 
L 103.795932 -74.837566 
L 102.522159 -73.300102 
L 101.248385 -71.8264 
L 99.974612 -70.352069 
L 98.700839 -68.789331 
L 97.427065 -67.14108 
L 96.153292 -65.481031 
L 94.879519 -63.807023 
L 93.605745 -62.033863 
L 92.331972 -60.178726 
L 91.058199 -58.409101 
L 89.784425 -56.822548 
L 88.510652 -55.322192 
L 87.236879 -53.784176 
L 85.963106 -52.210021 
L 84.689332 -50.671507 
L 83.415559 -49.218673 
L 82.141786 -47.874867 
L 80.868012 -46.652108 
L 79.594239 -45.541469 
L 78.320466 -44.518774 
L 77.046692 -43.573776 
L 75.772919 -42.725511 
L 74.499146 -41.998383 
L 73.225372 -41.384741 
L 71.951599 -40.8532 
L 70.677826 -40.384836 
L 69.404052 -39.977625 
L 68.130279 -39.63057 
L 66.856506 -39.335457 
L 65.582732 -39.076925 
L 64.308959 -38.842712 
L 63.035186 -38.637785 
L 61.761412 -38.478422 
L 60.487639 -38.36606 
L 59.213866 -38.281542 
L 57.940092 -38.207088 
L 56.666319 -38.134763 
L 55.392546 -38.06039 
L 54.118773 -37.988363 
L 52.844999 -37.927524 
L 51.571226 -37.874907 
L 50.297453 -37.823194 
L 49.023679 -37.778682 
L 47.749906 -37.752796 
L 46.476133 -37.742544 
L 45.202359 -37.73288 
L 43.928586 -37.715776 
L 42.654813 -37.697354 
L 41.381039 -37.684182 
L 40.107266 -37.671905 
L 38.833493 -37.654288 
L 37.559719 -37.635054 
L 36.285946 -37.622701 
L 35.012173 -37.618574 
L 33.738399 -37.615459 
L 32.464626 -37.607426 
L 31.190853 -37.597573 
L 29.917079 -37.592591 
L 28.643306 -37.592852 
L 27.369533 -37.592969 
L 26.095759 -37.589378 
L 24.821986 -37.583391 
L 23.548213 -37.578512 
L 22.27444 -37.576702 
L 21.000666 -37.577149 
L 19.726893 -37.578652 
L 18.45312 -37.581243 
L 17.179346 -37.584378 
L 15.905573 -37.586231 
L 14.6318 -37.585827 
L 13.358026 -37.584165 
L 12.084253 -37.582416 
L 10.81048 -37.57992 
L 9.536706 -37.575416 
L 8.262933 -37.569744 
L 6.98916 -37.565148 
L 5.715386 -37.562678 
L 4.441613 -37.56172 
L 3.16784 -37.561172 
L 1.894066 -37.560711 
L 0.620293 -37.56064 
L -0.65348 -37.560626 
L -1.927254 -37.560029 
L -3.201027 -37.559281 
L -4.4748 -37.559343 
L -5.748574 -37.560028 
L -7.022347 -37.560116 
L -8.29612 -37.559109 
L -9.569893 -37.557845 
L -10.843667 -37.557371 
L -12.11744 -37.558032 
L -13.391213 -37.559331 
L -14.664987 -37.560123 
L -15.93876 -37.559611 
L -17.212533 -37.558254 
L -18.486307 -37.55707 
L -19.76008 -37.556481 
L -21.033853 -37.556301 
L -22.307627 -37.556314 
L -23.5814 -37.556576 
L -24.855173 -37.557514 
L -26.128947 -37.55962 
L -27.40272 -37.562416 
L -28.676493 -37.563998 
L -29.950267 -37.562934 
L -31.22404 -37.56021 
L -32.497813 -37.557861 
L -33.771587 -37.5567 
L -35.04536 -37.556336 
z
" style="stroke: #d62728"/>
    </defs>
    <g clip-path="url(#p8e4c148508)">
     <use xlink:href="#m50a7ca0ba5" x="0" y="168.646875" style="fill: #d62728; fill-opacity: 0.25; stroke: #d62728"/>
    </g>
   </g>
   <g id="PolyCollection_3">
    <defs>
     <path id="m3a47c549ef" d="M 23.595034 -37.556319 
L 23.595034 -37.55625 
L 24.58781 -37.55625 
L 25.580587 -37.55625 
L 26.573364 -37.55625 
L 27.56614 -37.55625 
L 28.558917 -37.55625 
L 29.551694 -37.55625 
L 30.54447 -37.55625 
L 31.537247 -37.55625 
L 32.530024 -37.55625 
L 33.5228 -37.55625 
L 34.515577 -37.55625 
L 35.508354 -37.55625 
L 36.50113 -37.55625 
L 37.493907 -37.55625 
L 38.486684 -37.55625 
L 39.47946 -37.55625 
L 40.472237 -37.55625 
L 41.465014 -37.55625 
L 42.45779 -37.55625 
L 43.450567 -37.55625 
L 44.443344 -37.55625 
L 45.43612 -37.55625 
L 46.428897 -37.55625 
L 47.421674 -37.55625 
L 48.41445 -37.55625 
L 49.407227 -37.55625 
L 50.400004 -37.55625 
L 51.39278 -37.55625 
L 52.385557 -37.55625 
L 53.378334 -37.55625 
L 54.37111 -37.55625 
L 55.363887 -37.55625 
L 56.356664 -37.55625 
L 57.34944 -37.55625 
L 58.342217 -37.55625 
L 59.334994 -37.55625 
L 60.32777 -37.55625 
L 61.320547 -37.55625 
L 62.313324 -37.55625 
L 63.3061 -37.55625 
L 64.298877 -37.55625 
L 65.291654 -37.55625 
L 66.28443 -37.55625 
L 67.277207 -37.55625 
L 68.269984 -37.55625 
L 69.26276 -37.55625 
L 70.255537 -37.55625 
L 71.248314 -37.55625 
L 72.24109 -37.55625 
L 73.233867 -37.55625 
L 74.226644 -37.55625 
L 75.21942 -37.55625 
L 76.212197 -37.55625 
L 77.204974 -37.55625 
L 78.19775 -37.55625 
L 79.190527 -37.55625 
L 80.183304 -37.55625 
L 81.17608 -37.55625 
L 82.168857 -37.55625 
L 83.161634 -37.55625 
L 84.15441 -37.55625 
L 85.147187 -37.55625 
L 86.139963 -37.55625 
L 87.13274 -37.55625 
L 88.125517 -37.55625 
L 89.118293 -37.55625 
L 90.11107 -37.55625 
L 91.103847 -37.55625 
L 92.096623 -37.55625 
L 93.0894 -37.55625 
L 94.082177 -37.55625 
L 95.074953 -37.55625 
L 96.06773 -37.55625 
L 97.060507 -37.55625 
L 98.053283 -37.55625 
L 99.04606 -37.55625 
L 100.038837 -37.55625 
L 101.031613 -37.55625 
L 102.02439 -37.55625 
L 103.017167 -37.55625 
L 104.009943 -37.55625 
L 105.00272 -37.55625 
L 105.995497 -37.55625 
L 106.988273 -37.55625 
L 107.98105 -37.55625 
L 108.973827 -37.55625 
L 109.966603 -37.55625 
L 110.95938 -37.55625 
L 111.952157 -37.55625 
L 112.944933 -37.55625 
L 113.93771 -37.55625 
L 114.930487 -37.55625 
L 115.923263 -37.55625 
L 116.91604 -37.55625 
L 117.908817 -37.55625 
L 118.901593 -37.55625 
L 119.89437 -37.55625 
L 120.887147 -37.55625 
L 121.879923 -37.55625 
L 122.8727 -37.55625 
L 123.865477 -37.55625 
L 124.858253 -37.55625 
L 125.85103 -37.55625 
L 126.843807 -37.55625 
L 127.836583 -37.55625 
L 128.82936 -37.55625 
L 129.822137 -37.55625 
L 130.814913 -37.55625 
L 131.80769 -37.55625 
L 132.800467 -37.55625 
L 133.793243 -37.55625 
L 134.78602 -37.55625 
L 135.778797 -37.55625 
L 136.771573 -37.55625 
L 137.76435 -37.55625 
L 138.757127 -37.55625 
L 139.749903 -37.55625 
L 140.74268 -37.55625 
L 141.735457 -37.55625 
L 142.728233 -37.55625 
L 143.72101 -37.55625 
L 144.713787 -37.55625 
L 145.706563 -37.55625 
L 146.69934 -37.55625 
L 147.692117 -37.55625 
L 148.684893 -37.55625 
L 149.67767 -37.55625 
L 150.670447 -37.55625 
L 151.663223 -37.55625 
L 152.656 -37.55625 
L 153.648777 -37.55625 
L 154.641553 -37.55625 
L 155.63433 -37.55625 
L 156.627107 -37.55625 
L 157.619883 -37.55625 
L 158.61266 -37.55625 
L 159.605437 -37.55625 
L 160.598213 -37.55625 
L 161.59099 -37.55625 
L 162.583767 -37.55625 
L 163.576543 -37.55625 
L 164.56932 -37.55625 
L 165.562097 -37.55625 
L 166.554873 -37.55625 
L 167.54765 -37.55625 
L 168.540427 -37.55625 
L 169.533203 -37.55625 
L 170.52598 -37.55625 
L 171.518756 -37.55625 
L 172.511533 -37.55625 
L 173.50431 -37.55625 
L 174.497086 -37.55625 
L 175.489863 -37.55625 
L 176.48264 -37.55625 
L 177.475416 -37.55625 
L 178.468193 -37.55625 
L 179.46097 -37.55625 
L 180.453746 -37.55625 
L 181.446523 -37.55625 
L 182.4393 -37.55625 
L 183.432076 -37.55625 
L 184.424853 -37.55625 
L 185.41763 -37.55625 
L 186.410406 -37.55625 
L 187.403183 -37.55625 
L 188.39596 -37.55625 
L 189.388736 -37.55625 
L 190.381513 -37.55625 
L 191.37429 -37.55625 
L 192.367066 -37.55625 
L 193.359843 -37.55625 
L 194.35262 -37.55625 
L 195.345396 -37.55625 
L 196.338173 -37.55625 
L 197.33095 -37.55625 
L 198.323726 -37.55625 
L 199.316503 -37.55625 
L 200.30928 -37.55625 
L 201.302056 -37.55625 
L 202.294833 -37.55625 
L 203.28761 -37.55625 
L 204.280386 -37.55625 
L 205.273163 -37.55625 
L 206.26594 -37.55625 
L 207.258716 -37.55625 
L 208.251493 -37.55625 
L 209.24427 -37.55625 
L 210.237046 -37.55625 
L 211.229823 -37.55625 
L 212.2226 -37.55625 
L 213.215376 -37.55625 
L 214.208153 -37.55625 
L 215.20093 -37.55625 
L 216.193706 -37.55625 
L 217.186483 -37.55625 
L 218.17926 -37.55625 
L 219.172036 -37.55625 
L 220.164813 -37.55625 
L 221.15759 -37.55625 
L 221.15759 -37.556319 
L 221.15759 -37.556319 
L 220.164813 -37.556618 
L 219.172036 -37.557586 
L 218.17926 -37.559565 
L 217.186483 -37.56198 
L 216.193706 -37.56366 
L 215.20093 -37.56484 
L 214.208153 -37.567109 
L 213.215376 -37.570332 
L 212.2226 -37.572548 
L 211.229823 -37.573806 
L 210.237046 -37.577246 
L 209.24427 -37.585599 
L 208.251493 -37.598365 
L 207.258716 -37.614004 
L 206.26594 -37.633806 
L 205.273163 -37.660254 
L 204.280386 -37.692017 
L 203.28761 -37.724372 
L 202.294833 -37.755311 
L 201.302056 -37.789131 
L 200.30928 -37.835375 
L 199.316503 -37.910533 
L 198.323726 -38.037578 
L 197.33095 -38.232697 
L 196.338173 -38.496649 
L 195.345396 -38.829411 
L 194.35262 -39.244677 
L 193.359843 -39.754371 
L 192.367066 -40.349597 
L 191.37429 -41.015466 
L 190.381513 -41.753232 
L 189.388736 -42.585001 
L 188.39596 -43.542354 
L 187.403183 -44.647545 
L 186.410406 -45.926622 
L 185.41763 -47.426225 
L 184.424853 -49.183631 
L 183.432076 -51.200605 
L 182.4393 -53.438944 
L 181.446523 -55.823055 
L 180.453746 -58.32093 
L 179.46097 -61.0378 
L 178.468193 -64.089444 
L 177.475416 -67.393082 
L 176.48264 -70.775073 
L 175.489863 -74.22924 
L 174.497086 -77.897063 
L 173.50431 -81.854743 
L 172.511533 -85.999609 
L 171.518756 -90.141618 
L 170.52598 -94.154931 
L 169.533203 -97.970764 
L 168.540427 -101.546605 
L 167.54765 -104.959566 
L 166.554873 -108.380549 
L 165.562097 -111.869921 
L 164.56932 -115.269512 
L 163.576543 -118.270463 
L 162.583767 -120.616308 
L 161.59099 -122.344141 
L 160.598213 -123.789384 
L 159.605437 -125.269892 
L 158.61266 -126.795756 
L 157.619883 -128.107565 
L 156.627107 -128.941152 
L 155.63433 -129.282025 
L 154.641553 -129.358302 
L 153.648777 -129.330645 
L 152.656 -129.117358 
L 151.663223 -128.648887 
L 150.670447 -128.037895 
L 149.67767 -127.3291 
L 148.684893 -126.41001 
L 147.692117 -125.235473 
L 146.69934 -123.897775 
L 145.706563 -122.507108 
L 144.713787 -121.063176 
L 143.72101 -119.419946 
L 142.728233 -117.468927 
L 141.735457 -115.325555 
L 140.74268 -113.17805 
L 139.749903 -111.061497 
L 138.757127 -108.933897 
L 137.76435 -106.776892 
L 136.771573 -104.499471 
L 135.778797 -101.972772 
L 134.78602 -99.167435 
L 133.793243 -96.130292 
L 132.800467 -92.957605 
L 131.80769 -89.793949 
L 130.814913 -86.788101 
L 129.822137 -84.092233 
L 128.82936 -81.783069 
L 127.836583 -79.714665 
L 126.843807 -77.613218 
L 125.85103 -75.368997 
L 124.858253 -73.110673 
L 123.865477 -70.973952 
L 122.8727 -68.908469 
L 121.879923 -66.742608 
L 120.887147 -64.407762 
L 119.89437 -62.037694 
L 118.901593 -59.811418 
L 117.908817 -57.824311 
L 116.91604 -56.125947 
L 115.923263 -54.694215 
L 114.930487 -53.400945 
L 113.93771 -52.155393 
L 112.944933 -50.976751 
L 111.952157 -49.856463 
L 110.95938 -48.70819 
L 109.966603 -47.497592 
L 108.973827 -46.306318 
L 107.98105 -45.226275 
L 106.988273 -44.266694 
L 105.995497 -43.400127 
L 105.00272 -42.627851 
L 104.009943 -41.966044 
L 103.017167 -41.402838 
L 102.02439 -40.901119 
L 101.031613 -40.447002 
L 100.038837 -40.058327 
L 99.04606 -39.73525 
L 98.053283 -39.448008 
L 97.060507 -39.179288 
L 96.06773 -38.942411 
L 95.074953 -38.756329 
L 94.082177 -38.622942 
L 93.0894 -38.528266 
L 92.096623 -38.450987 
L 91.103847 -38.37086 
L 90.11107 -38.279773 
L 89.118293 -38.18187 
L 88.125517 -38.083966 
L 87.13274 -37.992399 
L 86.139963 -37.914336 
L 85.147187 -37.854703 
L 84.15441 -37.808833 
L 83.161634 -37.766279 
L 82.168857 -37.724976 
L 81.17608 -37.690754 
L 80.183304 -37.663986 
L 79.190527 -37.638153 
L 78.19775 -37.612177 
L 77.204974 -37.594233 
L 76.212197 -37.590385 
L 75.21942 -37.596268 
L 74.226644 -37.603244 
L 73.233867 -37.608212 
L 72.24109 -37.612437 
L 71.248314 -37.615075 
L 70.255537 -37.613601 
L 69.26276 -37.607169 
L 68.269984 -37.596717 
L 67.277207 -37.584557 
L 66.28443 -37.57372 
L 65.291654 -37.565935 
L 64.298877 -37.561542 
L 63.3061 -37.560769 
L 62.313324 -37.563204 
L 61.320547 -37.566689 
L 60.32777 -37.568355 
L 59.334994 -37.567435 
L 58.342217 -37.565731 
L 57.34944 -37.564551 
L 56.356664 -37.563448 
L 55.363887 -37.562502 
L 54.37111 -37.56258 
L 53.378334 -37.563122 
L 52.385557 -37.562911 
L 51.39278 -37.562641 
L 50.400004 -37.563832 
L 49.407227 -37.565981 
L 48.41445 -37.566945 
L 47.421674 -37.565455 
L 46.428897 -37.56224 
L 45.43612 -37.559146 
L 44.443344 -37.557497 
L 43.450567 -37.55758 
L 42.45779 -37.559181 
L 41.465014 -37.561414 
L 40.472237 -37.562589 
L 39.47946 -37.561997 
L 38.486684 -37.561203 
L 37.493907 -37.56193 
L 36.50113 -37.563692 
L 35.508354 -37.564945 
L 34.515577 -37.565089 
L 33.5228 -37.56404 
L 32.530024 -37.561903 
L 31.537247 -37.559923 
L 30.54447 -37.559705 
L 29.551694 -37.561199 
L 28.558917 -37.562433 
L 27.56614 -37.561698 
L 26.573364 -37.55952 
L 25.580587 -37.557581 
L 24.58781 -37.556617 
L 23.595034 -37.556319 
z
" style="stroke: #808080"/>
    </defs>
    <g clip-path="url(#p8e4c148508)">
     <use xlink:href="#m3a47c549ef" x="0" y="168.646875" style="fill: #808080; fill-opacity: 0.25; stroke: #808080"/>
    </g>
   </g>
   <g id="matplotlib.axis_1">
    <g id="xtick_1">
     <g id="line2d_1">
      <defs>
       <path id="mdac2033d29" d="M 0 0 
L 0 3.5 
" style="stroke: #000000; stroke-width: 0.8"/>
      </defs>
      <g>
       <use xlink:href="#mdac2033d29" x="64.13364" y="131.090625" style="stroke: #000000; stroke-width: 0.8"/>
      </g>
     </g>
     <g id="text_1">
      <!-- $\mathdefault{10^{2}}$ -->
      <g transform="translate(55.33364 145.689062)scale(0.1 -0.1)">
       <defs>
        <path id="DejaVuSans-31" d="M 794 531 
L 1825 531 
L 1825 4091 
L 703 3866 
L 703 4441 
L 1819 4666 
L 2450 4666 
L 2450 531 
L 3481 531 
L 3481 0 
L 794 0 
L 794 531 
z
" transform="scale(0.015625)"/>
        <path id="DejaVuSans-30" d="M 2034 4250 
Q 1547 4250 1301 3770 
Q 1056 3291 1056 2328 
Q 1056 1369 1301 889 
Q 1547 409 2034 409 
Q 2525 409 2770 889 
Q 3016 1369 3016 2328 
Q 3016 3291 2770 3770 
Q 2525 4250 2034 4250 
z
M 2034 4750 
Q 2819 4750 3233 4129 
Q 3647 3509 3647 2328 
Q 3647 1150 3233 529 
Q 2819 -91 2034 -91 
Q 1250 -91 836 529 
Q 422 1150 422 2328 
Q 422 3509 836 4129 
Q 1250 4750 2034 4750 
z
" transform="scale(0.015625)"/>
        <path id="DejaVuSans-32" d="M 1228 531 
L 3431 531 
L 3431 0 
L 469 0 
L 469 531 
Q 828 903 1448 1529 
Q 2069 2156 2228 2338 
Q 2531 2678 2651 2914 
Q 2772 3150 2772 3378 
Q 2772 3750 2511 3984 
Q 2250 4219 1831 4219 
Q 1534 4219 1204 4116 
Q 875 4013 500 3803 
L 500 4441 
Q 881 4594 1212 4672 
Q 1544 4750 1819 4750 
Q 2544 4750 2975 4387 
Q 3406 4025 3406 3419 
Q 3406 3131 3298 2873 
Q 3191 2616 2906 2266 
Q 2828 2175 2409 1742 
Q 1991 1309 1228 531 
z
" transform="scale(0.015625)"/>
       </defs>
       <use xlink:href="#DejaVuSans-31" transform="translate(0 0.765625)"/>
       <use xlink:href="#DejaVuSans-30" transform="translate(63.623047 0.765625)"/>
       <use xlink:href="#DejaVuSans-32" transform="translate(128.203125 39.046875)scale(0.7)"/>
      </g>
     </g>
    </g>
    <g id="xtick_2">
     <g id="line2d_2">
      <g>
       <use xlink:href="#mdac2033d29" x="110.607047" y="131.090625" style="stroke: #000000; stroke-width: 0.8"/>
      </g>
     </g>
     <g id="text_2">
      <!-- $\mathdefault{10^{3}}$ -->
      <g transform="translate(101.807047 145.689062)scale(0.1 -0.1)">
       <defs>
        <path id="DejaVuSans-33" d="M 2597 2516 
Q 3050 2419 3304 2112 
Q 3559 1806 3559 1356 
Q 3559 666 3084 287 
Q 2609 -91 1734 -91 
Q 1441 -91 1130 -33 
Q 819 25 488 141 
L 488 750 
Q 750 597 1062 519 
Q 1375 441 1716 441 
Q 2309 441 2620 675 
Q 2931 909 2931 1356 
Q 2931 1769 2642 2001 
Q 2353 2234 1838 2234 
L 1294 2234 
L 1294 2753 
L 1863 2753 
Q 2328 2753 2575 2939 
Q 2822 3125 2822 3475 
Q 2822 3834 2567 4026 
Q 2313 4219 1838 4219 
Q 1578 4219 1281 4162 
Q 984 4106 628 3988 
L 628 4550 
Q 988 4650 1302 4700 
Q 1616 4750 1894 4750 
Q 2613 4750 3031 4423 
Q 3450 4097 3450 3541 
Q 3450 3153 3228 2886 
Q 3006 2619 2597 2516 
z
" transform="scale(0.015625)"/>
       </defs>
       <use xlink:href="#DejaVuSans-31" transform="translate(0 0.765625)"/>
       <use xlink:href="#DejaVuSans-30" transform="translate(63.623047 0.765625)"/>
       <use xlink:href="#DejaVuSans-33" transform="translate(128.203125 39.046875)scale(0.7)"/>
      </g>
     </g>
    </g>
    <g id="xtick_3">
     <g id="line2d_3">
      <g>
       <use xlink:href="#mdac2033d29" x="157.080453" y="131.090625" style="stroke: #000000; stroke-width: 0.8"/>
      </g>
     </g>
     <g id="text_3">
      <!-- $\mathdefault{10^{4}}$ -->
      <g transform="translate(148.280453 145.689062)scale(0.1 -0.1)">
       <defs>
        <path id="DejaVuSans-34" d="M 2419 4116 
L 825 1625 
L 2419 1625 
L 2419 4116 
z
M 2253 4666 
L 3047 4666 
L 3047 1625 
L 3713 1625 
L 3713 1100 
L 3047 1100 
L 3047 0 
L 2419 0 
L 2419 1100 
L 313 1100 
L 313 1709 
L 2253 4666 
z
" transform="scale(0.015625)"/>
       </defs>
       <use xlink:href="#DejaVuSans-31" transform="translate(0 0.684375)"/>
       <use xlink:href="#DejaVuSans-30" transform="translate(63.623047 0.684375)"/>
       <use xlink:href="#DejaVuSans-34" transform="translate(128.203125 38.965625)scale(0.7)"/>
      </g>
     </g>
    </g>
    <g id="xtick_4">
     <g id="line2d_4">
      <g>
       <use xlink:href="#mdac2033d29" x="203.55386" y="131.090625" style="stroke: #000000; stroke-width: 0.8"/>
      </g>
     </g>
     <g id="text_4">
      <!-- $\mathdefault{10^{5}}$ -->
      <g transform="translate(194.75386 145.689062)scale(0.1 -0.1)">
       <defs>
        <path id="DejaVuSans-35" d="M 691 4666 
L 3169 4666 
L 3169 4134 
L 1269 4134 
L 1269 2991 
Q 1406 3038 1543 3061 
Q 1681 3084 1819 3084 
Q 2600 3084 3056 2656 
Q 3513 2228 3513 1497 
Q 3513 744 3044 326 
Q 2575 -91 1722 -91 
Q 1428 -91 1123 -41 
Q 819 9 494 109 
L 494 744 
Q 775 591 1075 516 
Q 1375 441 1709 441 
Q 2250 441 2565 725 
Q 2881 1009 2881 1497 
Q 2881 1984 2565 2268 
Q 2250 2553 1709 2553 
Q 1456 2553 1204 2497 
Q 953 2441 691 2322 
L 691 4666 
z
" transform="scale(0.015625)"/>
       </defs>
       <use xlink:href="#DejaVuSans-31" transform="translate(0 0.684375)"/>
       <use xlink:href="#DejaVuSans-30" transform="translate(63.623047 0.684375)"/>
       <use xlink:href="#DejaVuSans-35" transform="translate(128.203125 38.965625)scale(0.7)"/>
      </g>
     </g>
    </g>
    <g id="xtick_5">
     <g id="line2d_5">
      <defs>
       <path id="m4507ca1dd2" d="M 0 0 
L 0 2 
" style="stroke: #000000; stroke-width: 0.6"/>
      </defs>
      <g>
       <use xlink:href="#m4507ca1dd2" x="50.14375" y="131.090625" style="stroke: #000000; stroke-width: 0.6"/>
      </g>
     </g>
    </g>
    <g id="xtick_6">
     <g id="line2d_6">
      <g>
       <use xlink:href="#m4507ca1dd2" x="53.823572" y="131.090625" style="stroke: #000000; stroke-width: 0.6"/>
      </g>
     </g>
    </g>
    <g id="xtick_7">
     <g id="line2d_7">
      <g>
       <use xlink:href="#m4507ca1dd2" x="56.934818" y="131.090625" style="stroke: #000000; stroke-width: 0.6"/>
      </g>
     </g>
    </g>
    <g id="xtick_8">
     <g id="line2d_8">
      <g>
       <use xlink:href="#m4507ca1dd2" x="59.629901" y="131.090625" style="stroke: #000000; stroke-width: 0.6"/>
      </g>
     </g>
    </g>
    <g id="xtick_9">
     <g id="line2d_9">
      <g>
       <use xlink:href="#m4507ca1dd2" x="62.007133" y="131.090625" style="stroke: #000000; stroke-width: 0.6"/>
      </g>
     </g>
    </g>
    <g id="xtick_10">
     <g id="line2d_10">
      <g>
       <use xlink:href="#m4507ca1dd2" x="78.123529" y="131.090625" style="stroke: #000000; stroke-width: 0.6"/>
      </g>
     </g>
    </g>
    <g id="xtick_11">
     <g id="line2d_11">
      <g>
       <use xlink:href="#m4507ca1dd2" x="86.30709" y="131.090625" style="stroke: #000000; stroke-width: 0.6"/>
      </g>
     </g>
    </g>
    <g id="xtick_12">
     <g id="line2d_12">
      <g>
       <use xlink:href="#m4507ca1dd2" x="92.113419" y="131.090625" style="stroke: #000000; stroke-width: 0.6"/>
      </g>
     </g>
    </g>
    <g id="xtick_13">
     <g id="line2d_13">
      <g>
       <use xlink:href="#m4507ca1dd2" x="96.617157" y="131.090625" style="stroke: #000000; stroke-width: 0.6"/>
      </g>
     </g>
    </g>
    <g id="xtick_14">
     <g id="line2d_14">
      <g>
       <use xlink:href="#m4507ca1dd2" x="100.296979" y="131.090625" style="stroke: #000000; stroke-width: 0.6"/>
      </g>
     </g>
    </g>
    <g id="xtick_15">
     <g id="line2d_15">
      <g>
       <use xlink:href="#m4507ca1dd2" x="103.408225" y="131.090625" style="stroke: #000000; stroke-width: 0.6"/>
      </g>
     </g>
    </g>
    <g id="xtick_16">
     <g id="line2d_16">
      <g>
       <use xlink:href="#m4507ca1dd2" x="106.103308" y="131.090625" style="stroke: #000000; stroke-width: 0.6"/>
      </g>
     </g>
    </g>
    <g id="xtick_17">
     <g id="line2d_17">
      <g>
       <use xlink:href="#m4507ca1dd2" x="108.48054" y="131.090625" style="stroke: #000000; stroke-width: 0.6"/>
      </g>
     </g>
    </g>
    <g id="xtick_18">
     <g id="line2d_18">
      <g>
       <use xlink:href="#m4507ca1dd2" x="124.596936" y="131.090625" style="stroke: #000000; stroke-width: 0.6"/>
      </g>
     </g>
    </g>
    <g id="xtick_19">
     <g id="line2d_19">
      <g>
       <use xlink:href="#m4507ca1dd2" x="132.780497" y="131.090625" style="stroke: #000000; stroke-width: 0.6"/>
      </g>
     </g>
    </g>
    <g id="xtick_20">
     <g id="line2d_20">
      <g>
       <use xlink:href="#m4507ca1dd2" x="138.586826" y="131.090625" style="stroke: #000000; stroke-width: 0.6"/>
      </g>
     </g>
    </g>
    <g id="xtick_21">
     <g id="line2d_21">
      <g>
       <use xlink:href="#m4507ca1dd2" x="143.090564" y="131.090625" style="stroke: #000000; stroke-width: 0.6"/>
      </g>
     </g>
    </g>
    <g id="xtick_22">
     <g id="line2d_22">
      <g>
       <use xlink:href="#m4507ca1dd2" x="146.770386" y="131.090625" style="stroke: #000000; stroke-width: 0.6"/>
      </g>
     </g>
    </g>
    <g id="xtick_23">
     <g id="line2d_23">
      <g>
       <use xlink:href="#m4507ca1dd2" x="149.881632" y="131.090625" style="stroke: #000000; stroke-width: 0.6"/>
      </g>
     </g>
    </g>
    <g id="xtick_24">
     <g id="line2d_24">
      <g>
       <use xlink:href="#m4507ca1dd2" x="152.576715" y="131.090625" style="stroke: #000000; stroke-width: 0.6"/>
      </g>
     </g>
    </g>
    <g id="xtick_25">
     <g id="line2d_25">
      <g>
       <use xlink:href="#m4507ca1dd2" x="154.953947" y="131.090625" style="stroke: #000000; stroke-width: 0.6"/>
      </g>
     </g>
    </g>
    <g id="xtick_26">
     <g id="line2d_26">
      <g>
       <use xlink:href="#m4507ca1dd2" x="171.070343" y="131.090625" style="stroke: #000000; stroke-width: 0.6"/>
      </g>
     </g>
    </g>
    <g id="xtick_27">
     <g id="line2d_27">
      <g>
       <use xlink:href="#m4507ca1dd2" x="179.253904" y="131.090625" style="stroke: #000000; stroke-width: 0.6"/>
      </g>
     </g>
    </g>
    <g id="xtick_28">
     <g id="line2d_28">
      <g>
       <use xlink:href="#m4507ca1dd2" x="185.060233" y="131.090625" style="stroke: #000000; stroke-width: 0.6"/>
      </g>
     </g>
    </g>
    <g id="xtick_29">
     <g id="line2d_29">
      <g>
       <use xlink:href="#m4507ca1dd2" x="189.563971" y="131.090625" style="stroke: #000000; stroke-width: 0.6"/>
      </g>
     </g>
    </g>
    <g id="xtick_30">
     <g id="line2d_30">
      <g>
       <use xlink:href="#m4507ca1dd2" x="193.243793" y="131.090625" style="stroke: #000000; stroke-width: 0.6"/>
      </g>
     </g>
    </g>
    <g id="xtick_31">
     <g id="line2d_31">
      <g>
       <use xlink:href="#m4507ca1dd2" x="196.355039" y="131.090625" style="stroke: #000000; stroke-width: 0.6"/>
      </g>
     </g>
    </g>
    <g id="xtick_32">
     <g id="line2d_32">
      <g>
       <use xlink:href="#m4507ca1dd2" x="199.050122" y="131.090625" style="stroke: #000000; stroke-width: 0.6"/>
      </g>
     </g>
    </g>
    <g id="xtick_33">
     <g id="line2d_33">
      <g>
       <use xlink:href="#m4507ca1dd2" x="201.427354" y="131.090625" style="stroke: #000000; stroke-width: 0.6"/>
      </g>
     </g>
    </g>
    <g id="xtick_34">
     <g id="line2d_34">
      <g>
       <use xlink:href="#m4507ca1dd2" x="217.54375" y="131.090625" style="stroke: #000000; stroke-width: 0.6"/>
      </g>
     </g>
    </g>
    <g id="text_5">
     <!-- CellTrace™ Violet-A -->
     <g transform="translate(85.353125 159.367188)scale(0.1 -0.1)">
      <defs>
       <path id="DejaVuSans-43" d="M 4122 4306 
L 4122 3641 
Q 3803 3938 3442 4084 
Q 3081 4231 2675 4231 
Q 1875 4231 1450 3742 
Q 1025 3253 1025 2328 
Q 1025 1406 1450 917 
Q 1875 428 2675 428 
Q 3081 428 3442 575 
Q 3803 722 4122 1019 
L 4122 359 
Q 3791 134 3420 21 
Q 3050 -91 2638 -91 
Q 1578 -91 968 557 
Q 359 1206 359 2328 
Q 359 3453 968 4101 
Q 1578 4750 2638 4750 
Q 3056 4750 3426 4639 
Q 3797 4528 4122 4306 
z
" transform="scale(0.015625)"/>
       <path id="DejaVuSans-65" d="M 3597 1894 
L 3597 1613 
L 953 1613 
Q 991 1019 1311 708 
Q 1631 397 2203 397 
Q 2534 397 2845 478 
Q 3156 559 3463 722 
L 3463 178 
Q 3153 47 2828 -22 
Q 2503 -91 2169 -91 
Q 1331 -91 842 396 
Q 353 884 353 1716 
Q 353 2575 817 3079 
Q 1281 3584 2069 3584 
Q 2775 3584 3186 3129 
Q 3597 2675 3597 1894 
z
M 3022 2063 
Q 3016 2534 2758 2815 
Q 2500 3097 2075 3097 
Q 1594 3097 1305 2825 
Q 1016 2553 972 2059 
L 3022 2063 
z
" transform="scale(0.015625)"/>
       <path id="DejaVuSans-6c" d="M 603 4863 
L 1178 4863 
L 1178 0 
L 603 0 
L 603 4863 
z
" transform="scale(0.015625)"/>
       <path id="DejaVuSans-54" d="M -19 4666 
L 3928 4666 
L 3928 4134 
L 2272 4134 
L 2272 0 
L 1638 0 
L 1638 4134 
L -19 4134 
L -19 4666 
z
" transform="scale(0.015625)"/>
       <path id="DejaVuSans-72" d="M 2631 2963 
Q 2534 3019 2420 3045 
Q 2306 3072 2169 3072 
Q 1681 3072 1420 2755 
Q 1159 2438 1159 1844 
L 1159 0 
L 581 0 
L 581 3500 
L 1159 3500 
L 1159 2956 
Q 1341 3275 1631 3429 
Q 1922 3584 2338 3584 
Q 2397 3584 2469 3576 
Q 2541 3569 2628 3553 
L 2631 2963 
z
" transform="scale(0.015625)"/>
       <path id="DejaVuSans-61" d="M 2194 1759 
Q 1497 1759 1228 1600 
Q 959 1441 959 1056 
Q 959 750 1161 570 
Q 1363 391 1709 391 
Q 2188 391 2477 730 
Q 2766 1069 2766 1631 
L 2766 1759 
L 2194 1759 
z
M 3341 1997 
L 3341 0 
L 2766 0 
L 2766 531 
Q 2569 213 2275 61 
Q 1981 -91 1556 -91 
Q 1019 -91 701 211 
Q 384 513 384 1019 
Q 384 1609 779 1909 
Q 1175 2209 1959 2209 
L 2766 2209 
L 2766 2266 
Q 2766 2663 2505 2880 
Q 2244 3097 1772 3097 
Q 1472 3097 1187 3025 
Q 903 2953 641 2809 
L 641 3341 
Q 956 3463 1253 3523 
Q 1550 3584 1831 3584 
Q 2591 3584 2966 3190 
Q 3341 2797 3341 1997 
z
" transform="scale(0.015625)"/>
       <path id="DejaVuSans-63" d="M 3122 3366 
L 3122 2828 
Q 2878 2963 2633 3030 
Q 2388 3097 2138 3097 
Q 1578 3097 1268 2742 
Q 959 2388 959 1747 
Q 959 1106 1268 751 
Q 1578 397 2138 397 
Q 2388 397 2633 464 
Q 2878 531 3122 666 
L 3122 134 
Q 2881 22 2623 -34 
Q 2366 -91 2075 -91 
Q 1284 -91 818 406 
Q 353 903 353 1747 
Q 353 2603 823 3093 
Q 1294 3584 2113 3584 
Q 2378 3584 2631 3529 
Q 2884 3475 3122 3366 
z
" transform="scale(0.015625)"/>
       <path id="DejaVuSans-2122" d="M 3431 4666 
L 3975 3866 
L 4488 4666 
L 5019 4666 
L 5019 2859 
L 4666 2859 
L 4666 4372 
L 4056 3425 
L 3884 3425 
L 3250 4372 
L 3250 2859 
L 2894 2859 
L 2894 4666 
L 3431 4666 
z
M 2541 4666 
L 2541 4372 
L 1906 4372 
L 1906 2859 
L 1550 2859 
L 1550 4372 
L 922 4372 
L 922 4666 
L 2541 4666 
z
" transform="scale(0.015625)"/>
       <path id="DejaVuSans-20" transform="scale(0.015625)"/>
       <path id="DejaVuSans-56" d="M 1831 0 
L 50 4666 
L 709 4666 
L 2188 738 
L 3669 4666 
L 4325 4666 
L 2547 0 
L 1831 0 
z
" transform="scale(0.015625)"/>
       <path id="DejaVuSans-69" d="M 603 3500 
L 1178 3500 
L 1178 0 
L 603 0 
L 603 3500 
z
M 603 4863 
L 1178 4863 
L 1178 4134 
L 603 4134 
L 603 4863 
z
" transform="scale(0.015625)"/>
       <path id="DejaVuSans-6f" d="M 1959 3097 
Q 1497 3097 1228 2736 
Q 959 2375 959 1747 
Q 959 1119 1226 758 
Q 1494 397 1959 397 
Q 2419 397 2687 759 
Q 2956 1122 2956 1747 
Q 2956 2369 2687 2733 
Q 2419 3097 1959 3097 
z
M 1959 3584 
Q 2709 3584 3137 3096 
Q 3566 2609 3566 1747 
Q 3566 888 3137 398 
Q 2709 -91 1959 -91 
Q 1206 -91 779 398 
Q 353 888 353 1747 
Q 353 2609 779 3096 
Q 1206 3584 1959 3584 
z
" transform="scale(0.015625)"/>
       <path id="DejaVuSans-74" d="M 1172 4494 
L 1172 3500 
L 2356 3500 
L 2356 3053 
L 1172 3053 
L 1172 1153 
Q 1172 725 1289 603 
Q 1406 481 1766 481 
L 2356 481 
L 2356 0 
L 1766 0 
Q 1100 0 847 248 
Q 594 497 594 1153 
L 594 3053 
L 172 3053 
L 172 3500 
L 594 3500 
L 594 4494 
L 1172 4494 
z
" transform="scale(0.015625)"/>
       <path id="DejaVuSans-2d" d="M 313 2009 
L 1997 2009 
L 1997 1497 
L 313 1497 
L 313 2009 
z
" transform="scale(0.015625)"/>
       <path id="DejaVuSans-41" d="M 2188 4044 
L 1331 1722 
L 3047 1722 
L 2188 4044 
z
M 1831 4666 
L 2547 4666 
L 4325 0 
L 3669 0 
L 3244 1197 
L 1141 1197 
L 716 0 
L 50 0 
L 1831 4666 
z
" transform="scale(0.015625)"/>
      </defs>
      <use xlink:href="#DejaVuSans-43"/>
      <use xlink:href="#DejaVuSans-65" x="69.824219"/>
      <use xlink:href="#DejaVuSans-6c" x="131.347656"/>
      <use xlink:href="#DejaVuSans-6c" x="159.130859"/>
      <use xlink:href="#DejaVuSans-54" x="186.914062"/>
      <use xlink:href="#DejaVuSans-72" x="233.248047"/>
      <use xlink:href="#DejaVuSans-61" x="274.361328"/>
      <use xlink:href="#DejaVuSans-63" x="335.640625"/>
      <use xlink:href="#DejaVuSans-65" x="390.621094"/>
      <use xlink:href="#DejaVuSans-2122" x="452.144531"/>
      <use xlink:href="#DejaVuSans-20" x="552.144531"/>
      <use xlink:href="#DejaVuSans-56" x="583.931641"/>
      <use xlink:href="#DejaVuSans-69" x="650.089844"/>
      <use xlink:href="#DejaVuSans-6f" x="677.873047"/>
      <use xlink:href="#DejaVuSans-6c" x="739.054688"/>
      <use xlink:href="#DejaVuSans-65" x="766.837891"/>
      <use xlink:href="#DejaVuSans-74" x="828.361328"/>
      <use xlink:href="#DejaVuSans-2d" x="867.570312"/>
      <use xlink:href="#DejaVuSans-41" x="901.404297"/>
     </g>
    </g>
   </g>
   <g id="matplotlib.axis_2">
    <g id="ytick_1">
     <g id="line2d_35">
      <defs>
       <path id="mc613753476" d="M 0 0 
L -3.5 0 
" style="stroke: #000000; stroke-width: 0.8"/>
      </defs>
      <g>
       <use xlink:href="#mc613753476" x="50.14375" y="131.090625" style="stroke: #000000; stroke-width: 0.8"/>
      </g>
     </g>
     <g id="text_6">
      <!-- 0.00 -->
      <g transform="translate(20.878125 134.889844)scale(0.1 -0.1)">
       <defs>
        <path id="DejaVuSans-2e" d="M 684 794 
L 1344 794 
L 1344 0 
L 684 0 
L 684 794 
z
" transform="scale(0.015625)"/>
       </defs>
       <use xlink:href="#DejaVuSans-30"/>
       <use xlink:href="#DejaVuSans-2e" x="63.623047"/>
       <use xlink:href="#DejaVuSans-30" x="95.410156"/>
       <use xlink:href="#DejaVuSans-30" x="159.033203"/>
      </g>
     </g>
    </g>
    <g id="ytick_2">
     <g id="line2d_36">
      <g>
       <use xlink:href="#mc613753476" x="50.14375" y="108.347475" style="stroke: #000000; stroke-width: 0.8"/>
      </g>
     </g>
     <g id="text_7">
      <!-- 0.25 -->
      <g transform="translate(20.878125 112.146694)scale(0.1 -0.1)">
       <use xlink:href="#DejaVuSans-30"/>
       <use xlink:href="#DejaVuSans-2e" x="63.623047"/>
       <use xlink:href="#DejaVuSans-32" x="95.410156"/>
       <use xlink:href="#DejaVuSans-35" x="159.033203"/>
      </g>
     </g>
    </g>
    <g id="ytick_3">
     <g id="line2d_37">
      <g>
       <use xlink:href="#mc613753476" x="50.14375" y="85.604325" style="stroke: #000000; stroke-width: 0.8"/>
      </g>
     </g>
     <g id="text_8">
      <!-- 0.50 -->
      <g transform="translate(20.878125 89.403544)scale(0.1 -0.1)">
       <use xlink:href="#DejaVuSans-30"/>
       <use xlink:href="#DejaVuSans-2e" x="63.623047"/>
       <use xlink:href="#DejaVuSans-35" x="95.410156"/>
       <use xlink:href="#DejaVuSans-30" x="159.033203"/>
      </g>
     </g>
    </g>
    <g id="ytick_4">
     <g id="line2d_38">
      <g>
       <use xlink:href="#mc613753476" x="50.14375" y="62.861176" style="stroke: #000000; stroke-width: 0.8"/>
      </g>
     </g>
     <g id="text_9">
      <!-- 0.75 -->
      <g transform="translate(20.878125 66.660394)scale(0.1 -0.1)">
       <defs>
        <path id="DejaVuSans-37" d="M 525 4666 
L 3525 4666 
L 3525 4397 
L 1831 0 
L 1172 0 
L 2766 4134 
L 525 4134 
L 525 4666 
z
" transform="scale(0.015625)"/>
       </defs>
       <use xlink:href="#DejaVuSans-30"/>
       <use xlink:href="#DejaVuSans-2e" x="63.623047"/>
       <use xlink:href="#DejaVuSans-37" x="95.410156"/>
       <use xlink:href="#DejaVuSans-35" x="159.033203"/>
      </g>
     </g>
    </g>
    <g id="ytick_5">
     <g id="line2d_39">
      <g>
       <use xlink:href="#mc613753476" x="50.14375" y="40.118026" style="stroke: #000000; stroke-width: 0.8"/>
      </g>
     </g>
     <g id="text_10">
      <!-- 1.00 -->
      <g transform="translate(20.878125 43.917245)scale(0.1 -0.1)">
       <use xlink:href="#DejaVuSans-31"/>
       <use xlink:href="#DejaVuSans-2e" x="63.623047"/>
       <use xlink:href="#DejaVuSans-30" x="95.410156"/>
       <use xlink:href="#DejaVuSans-30" x="159.033203"/>
      </g>
     </g>
    </g>
    <g id="text_11">
     <!-- Density -->
     <g transform="translate(14.798437 95.739219)rotate(-90)scale(0.1 -0.1)">
      <defs>
       <path id="DejaVuSans-44" d="M 1259 4147 
L 1259 519 
L 2022 519 
Q 2988 519 3436 956 
Q 3884 1394 3884 2338 
Q 3884 3275 3436 3711 
Q 2988 4147 2022 4147 
L 1259 4147 
z
M 628 4666 
L 1925 4666 
Q 3281 4666 3915 4102 
Q 4550 3538 4550 2338 
Q 4550 1131 3912 565 
Q 3275 0 1925 0 
L 628 0 
L 628 4666 
z
" transform="scale(0.015625)"/>
       <path id="DejaVuSans-6e" d="M 3513 2113 
L 3513 0 
L 2938 0 
L 2938 2094 
Q 2938 2591 2744 2837 
Q 2550 3084 2163 3084 
Q 1697 3084 1428 2787 
Q 1159 2491 1159 1978 
L 1159 0 
L 581 0 
L 581 3500 
L 1159 3500 
L 1159 2956 
Q 1366 3272 1645 3428 
Q 1925 3584 2291 3584 
Q 2894 3584 3203 3211 
Q 3513 2838 3513 2113 
z
" transform="scale(0.015625)"/>
       <path id="DejaVuSans-73" d="M 2834 3397 
L 2834 2853 
Q 2591 2978 2328 3040 
Q 2066 3103 1784 3103 
Q 1356 3103 1142 2972 
Q 928 2841 928 2578 
Q 928 2378 1081 2264 
Q 1234 2150 1697 2047 
L 1894 2003 
Q 2506 1872 2764 1633 
Q 3022 1394 3022 966 
Q 3022 478 2636 193 
Q 2250 -91 1575 -91 
Q 1294 -91 989 -36 
Q 684 19 347 128 
L 347 722 
Q 666 556 975 473 
Q 1284 391 1588 391 
Q 1994 391 2212 530 
Q 2431 669 2431 922 
Q 2431 1156 2273 1281 
Q 2116 1406 1581 1522 
L 1381 1569 
Q 847 1681 609 1914 
Q 372 2147 372 2553 
Q 372 3047 722 3315 
Q 1072 3584 1716 3584 
Q 2034 3584 2315 3537 
Q 2597 3491 2834 3397 
z
" transform="scale(0.015625)"/>
       <path id="DejaVuSans-79" d="M 2059 -325 
Q 1816 -950 1584 -1140 
Q 1353 -1331 966 -1331 
L 506 -1331 
L 506 -850 
L 844 -850 
Q 1081 -850 1212 -737 
Q 1344 -625 1503 -206 
L 1606 56 
L 191 3500 
L 800 3500 
L 1894 763 
L 2988 3500 
L 3597 3500 
L 2059 -325 
z
" transform="scale(0.015625)"/>
      </defs>
      <use xlink:href="#DejaVuSans-44"/>
      <use xlink:href="#DejaVuSans-65" x="77.001953"/>
      <use xlink:href="#DejaVuSans-6e" x="138.525391"/>
      <use xlink:href="#DejaVuSans-73" x="201.904297"/>
      <use xlink:href="#DejaVuSans-69" x="254.003906"/>
      <use xlink:href="#DejaVuSans-74" x="281.787109"/>
      <use xlink:href="#DejaVuSans-79" x="320.996094"/>
     </g>
    </g>
   </g>
   <g id="line2d_40">
    <path d="M -1 127.060425 
L -0.565765 126.881038 
L 1.889666 126.845849 
L 4.345096 125.976497 
L 6.800527 125.276857 
L 12.939103 122.931446 
L 15.394533 121.48433 
L 17.849964 120.090712 
L 20.305394 118.661319 
L 25.216255 115.007174 
L 26.443971 113.934391 
L 28.899401 111.398259 
L 31.354832 108.482738 
L 33.810262 104.839144 
L 38.721123 96.834066 
L 41.176554 91.771427 
L 43.631984 86.119979 
L 44.8597 82.989922 
L 46.087415 79.448476 
L 59.592283 35.065005 
L 60.819998 31.790724 
L 62.047713 29.367952 
L 63.275428 27.990106 
L 64.503144 27.547768 
L 65.730859 27.730991 
L 66.958574 28.272737 
L 68.186289 29.202764 
L 69.414005 30.929587 
L 70.64172 33.855709 
L 71.869435 37.948859 
L 73.09715 42.862308 
L 75.552581 54.051263 
L 78.008011 66.345085 
L 82.918872 92.108854 
L 84.146588 97.272464 
L 85.374303 101.755813 
L 86.602018 105.749595 
L 87.829733 109.338394 
L 89.057449 112.508314 
L 90.285164 115.257414 
L 91.512879 117.620085 
L 92.740594 119.630678 
L 93.96831 121.321562 
L 95.196025 122.733703 
L 96.42374 123.915524 
L 97.651456 124.909607 
L 98.879171 125.739708 
L 101.334601 127.033463 
L 105.017747 128.661466 
L 107.473178 129.361736 
L 111.156323 129.951439 
L 117.2949 130.575445 
L 119.75033 130.755718 
L 134.482913 130.980488 
L 209.373544 131.090542 
L 209.373544 131.090542 
" clip-path="url(#p8e4c148508)" style="fill: none; stroke-dasharray: 5.55,2.4; stroke-dashoffset: 0; stroke: #808080; stroke-width: 1.5"/>
   </g>
   <g id="line2d_41">
    <path d="M 136.964163 131.090625 
L 136.964163 22.370625 
" clip-path="url(#p8e4c148508)" style="fill: none; stroke: #000000; stroke-width: 1.5; stroke-linecap: square"/>
   </g>
   <g id="patch_3">
    <path d="M 50.14375 131.090625 
L 50.14375 22.370625 
" style="fill: none; stroke: #000000; stroke-width: 0.8; stroke-linejoin: miter; stroke-linecap: square"/>
   </g>
   <g id="patch_4">
    <path d="M 217.54375 131.090625 
L 217.54375 22.370625 
" style="fill: none; stroke: #000000; stroke-width: 0.8; stroke-linejoin: miter; stroke-linecap: square"/>
   </g>
   <g id="patch_5">
    <path d="M 50.14375 131.090625 
L 217.54375 131.090625 
" style="fill: none; stroke: #000000; stroke-width: 0.8; stroke-linejoin: miter; stroke-linecap: square"/>
   </g>
   <g id="patch_6">
    <path d="M 50.14375 22.370625 
L 217.54375 22.370625 
" style="fill: none; stroke: #000000; stroke-width: 0.8; stroke-linejoin: miter; stroke-linecap: square"/>
   </g>
   <g id="text_12">
    <!-- Neg -->
    <g style="fill: #808080" transform="translate(73.632344 33.242625)scale(0.1 -0.1)">
     <defs>
      <path id="DejaVuSans-4e" d="M 628 4666 
L 1478 4666 
L 3547 763 
L 3547 4666 
L 4159 4666 
L 4159 0 
L 3309 0 
L 1241 3903 
L 1241 0 
L 628 0 
L 628 4666 
z
" transform="scale(0.015625)"/>
      <path id="DejaVuSans-67" d="M 2906 1791 
Q 2906 2416 2648 2759 
Q 2391 3103 1925 3103 
Q 1463 3103 1205 2759 
Q 947 2416 947 1791 
Q 947 1169 1205 825 
Q 1463 481 1925 481 
Q 2391 481 2648 825 
Q 2906 1169 2906 1791 
z
M 3481 434 
Q 3481 -459 3084 -895 
Q 2688 -1331 1869 -1331 
Q 1566 -1331 1297 -1286 
Q 1028 -1241 775 -1147 
L 775 -588 
Q 1028 -725 1275 -790 
Q 1522 -856 1778 -856 
Q 2344 -856 2625 -561 
Q 2906 -266 2906 331 
L 2906 616 
Q 2728 306 2450 153 
Q 2172 0 1784 0 
Q 1141 0 747 490 
Q 353 981 353 1791 
Q 353 2603 747 3093 
Q 1141 3584 1784 3584 
Q 2172 3584 2450 3431 
Q 2728 3278 2906 2969 
L 2906 3500 
L 3481 3500 
L 3481 434 
z
" transform="scale(0.015625)"/>
     </defs>
     <use xlink:href="#DejaVuSans-4e"/>
     <use xlink:href="#DejaVuSans-65" x="74.804688"/>
     <use xlink:href="#DejaVuSans-67" x="136.328125"/>
    </g>
   </g>
   <g id="text_13">
    <!-- Ctrl-puro -->
    <g style="fill: #808080" transform="translate(162.018438 32.916812)scale(0.1 -0.1)">
     <defs>
      <path id="DejaVuSans-70" d="M 1159 525 
L 1159 -1331 
L 581 -1331 
L 581 3500 
L 1159 3500 
L 1159 2969 
Q 1341 3281 1617 3432 
Q 1894 3584 2278 3584 
Q 2916 3584 3314 3078 
Q 3713 2572 3713 1747 
Q 3713 922 3314 415 
Q 2916 -91 2278 -91 
Q 1894 -91 1617 61 
Q 1341 213 1159 525 
z
M 3116 1747 
Q 3116 2381 2855 2742 
Q 2594 3103 2138 3103 
Q 1681 3103 1420 2742 
Q 1159 2381 1159 1747 
Q 1159 1113 1420 752 
Q 1681 391 2138 391 
Q 2594 391 2855 752 
Q 3116 1113 3116 1747 
z
" transform="scale(0.015625)"/>
      <path id="DejaVuSans-75" d="M 544 1381 
L 544 3500 
L 1119 3500 
L 1119 1403 
Q 1119 906 1312 657 
Q 1506 409 1894 409 
Q 2359 409 2629 706 
Q 2900 1003 2900 1516 
L 2900 3500 
L 3475 3500 
L 3475 0 
L 2900 0 
L 2900 538 
Q 2691 219 2414 64 
Q 2138 -91 1772 -91 
Q 1169 -91 856 284 
Q 544 659 544 1381 
z
M 1991 3584 
L 1991 3584 
z
" transform="scale(0.015625)"/>
     </defs>
     <use xlink:href="#DejaVuSans-43"/>
     <use xlink:href="#DejaVuSans-74" x="69.824219"/>
     <use xlink:href="#DejaVuSans-72" x="109.033203"/>
     <use xlink:href="#DejaVuSans-6c" x="150.146484"/>
     <use xlink:href="#DejaVuSans-2d" x="177.929688"/>
     <use xlink:href="#DejaVuSans-70" x="214.013672"/>
     <use xlink:href="#DejaVuSans-75" x="277.490234"/>
     <use xlink:href="#DejaVuSans-72" x="340.869141"/>
     <use xlink:href="#DejaVuSans-6f" x="379.732422"/>
    </g>
    <!-- (singlets) -->
    <g style="fill: #808080" transform="translate(160.795 44.114625)scale(0.1 -0.1)">
     <defs>
      <path id="DejaVuSans-28" d="M 1984 4856 
Q 1566 4138 1362 3434 
Q 1159 2731 1159 2009 
Q 1159 1288 1364 580 
Q 1569 -128 1984 -844 
L 1484 -844 
Q 1016 -109 783 600 
Q 550 1309 550 2009 
Q 550 2706 781 3412 
Q 1013 4119 1484 4856 
L 1984 4856 
z
" transform="scale(0.015625)"/>
      <path id="DejaVuSans-29" d="M 513 4856 
L 1013 4856 
Q 1481 4119 1714 3412 
Q 1947 2706 1947 2009 
Q 1947 1309 1714 600 
Q 1481 -109 1013 -844 
L 513 -844 
Q 928 -128 1133 580 
Q 1338 1288 1338 2009 
Q 1338 2731 1133 3434 
Q 928 4138 513 4856 
z
" transform="scale(0.015625)"/>
     </defs>
     <use xlink:href="#DejaVuSans-28"/>
     <use xlink:href="#DejaVuSans-73" x="39.013672"/>
     <use xlink:href="#DejaVuSans-69" x="91.113281"/>
     <use xlink:href="#DejaVuSans-6e" x="118.896484"/>
     <use xlink:href="#DejaVuSans-67" x="182.275391"/>
     <use xlink:href="#DejaVuSans-6c" x="245.751953"/>
     <use xlink:href="#DejaVuSans-65" x="273.535156"/>
     <use xlink:href="#DejaVuSans-74" x="335.058594"/>
     <use xlink:href="#DejaVuSans-73" x="374.267578"/>
     <use xlink:href="#DejaVuSans-29" x="426.367188"/>
    </g>
   </g>
   <g id="text_14">
    <!-- 4 dpi | mRuby2+ -->
    <g transform="translate(83.247813 16.370625)scale(0.12 -0.12)">
     <defs>
      <path id="DejaVuSans-64" d="M 2906 2969 
L 2906 4863 
L 3481 4863 
L 3481 0 
L 2906 0 
L 2906 525 
Q 2725 213 2448 61 
Q 2172 -91 1784 -91 
Q 1150 -91 751 415 
Q 353 922 353 1747 
Q 353 2572 751 3078 
Q 1150 3584 1784 3584 
Q 2172 3584 2448 3432 
Q 2725 3281 2906 2969 
z
M 947 1747 
Q 947 1113 1208 752 
Q 1469 391 1925 391 
Q 2381 391 2643 752 
Q 2906 1113 2906 1747 
Q 2906 2381 2643 2742 
Q 2381 3103 1925 3103 
Q 1469 3103 1208 2742 
Q 947 2381 947 1747 
z
" transform="scale(0.015625)"/>
      <path id="DejaVuSans-7c" d="M 1344 4891 
L 1344 -1509 
L 813 -1509 
L 813 4891 
L 1344 4891 
z
" transform="scale(0.015625)"/>
      <path id="DejaVuSans-6d" d="M 3328 2828 
Q 3544 3216 3844 3400 
Q 4144 3584 4550 3584 
Q 5097 3584 5394 3201 
Q 5691 2819 5691 2113 
L 5691 0 
L 5113 0 
L 5113 2094 
Q 5113 2597 4934 2840 
Q 4756 3084 4391 3084 
Q 3944 3084 3684 2787 
Q 3425 2491 3425 1978 
L 3425 0 
L 2847 0 
L 2847 2094 
Q 2847 2600 2669 2842 
Q 2491 3084 2119 3084 
Q 1678 3084 1418 2786 
Q 1159 2488 1159 1978 
L 1159 0 
L 581 0 
L 581 3500 
L 1159 3500 
L 1159 2956 
Q 1356 3278 1631 3431 
Q 1906 3584 2284 3584 
Q 2666 3584 2933 3390 
Q 3200 3197 3328 2828 
z
" transform="scale(0.015625)"/>
      <path id="DejaVuSans-52" d="M 2841 2188 
Q 3044 2119 3236 1894 
Q 3428 1669 3622 1275 
L 4263 0 
L 3584 0 
L 2988 1197 
Q 2756 1666 2539 1819 
Q 2322 1972 1947 1972 
L 1259 1972 
L 1259 0 
L 628 0 
L 628 4666 
L 2053 4666 
Q 2853 4666 3247 4331 
Q 3641 3997 3641 3322 
Q 3641 2881 3436 2590 
Q 3231 2300 2841 2188 
z
M 1259 4147 
L 1259 2491 
L 2053 2491 
Q 2509 2491 2742 2702 
Q 2975 2913 2975 3322 
Q 2975 3731 2742 3939 
Q 2509 4147 2053 4147 
L 1259 4147 
z
" transform="scale(0.015625)"/>
      <path id="DejaVuSans-62" d="M 3116 1747 
Q 3116 2381 2855 2742 
Q 2594 3103 2138 3103 
Q 1681 3103 1420 2742 
Q 1159 2381 1159 1747 
Q 1159 1113 1420 752 
Q 1681 391 2138 391 
Q 2594 391 2855 752 
Q 3116 1113 3116 1747 
z
M 1159 2969 
Q 1341 3281 1617 3432 
Q 1894 3584 2278 3584 
Q 2916 3584 3314 3078 
Q 3713 2572 3713 1747 
Q 3713 922 3314 415 
Q 2916 -91 2278 -91 
Q 1894 -91 1617 61 
Q 1341 213 1159 525 
L 1159 0 
L 581 0 
L 581 4863 
L 1159 4863 
L 1159 2969 
z
" transform="scale(0.015625)"/>
      <path id="DejaVuSans-2b" d="M 2944 4013 
L 2944 2272 
L 4684 2272 
L 4684 1741 
L 2944 1741 
L 2944 0 
L 2419 0 
L 2419 1741 
L 678 1741 
L 678 2272 
L 2419 2272 
L 2419 4013 
L 2944 4013 
z
" transform="scale(0.015625)"/>
     </defs>
     <use xlink:href="#DejaVuSans-34"/>
     <use xlink:href="#DejaVuSans-20" x="63.623047"/>
     <use xlink:href="#DejaVuSans-64" x="95.410156"/>
     <use xlink:href="#DejaVuSans-70" x="158.886719"/>
     <use xlink:href="#DejaVuSans-69" x="222.363281"/>
     <use xlink:href="#DejaVuSans-20" x="250.146484"/>
     <use xlink:href="#DejaVuSans-7c" x="281.933594"/>
     <use xlink:href="#DejaVuSans-20" x="315.625"/>
     <use xlink:href="#DejaVuSans-6d" x="347.412109"/>
     <use xlink:href="#DejaVuSans-52" x="444.824219"/>
     <use xlink:href="#DejaVuSans-75" x="509.806641"/>
     <use xlink:href="#DejaVuSans-62" x="573.185547"/>
     <use xlink:href="#DejaVuSans-79" x="636.662109"/>
     <use xlink:href="#DejaVuSans-32" x="695.841797"/>
     <use xlink:href="#DejaVuSans-2b" x="759.464844"/>
    </g>
   </g>
   <g id="legend_1">
    <g id="patch_7">
     <path d="M 226.54375 38.969062 
L 246.54375 38.969062 
L 246.54375 31.969062 
L 226.54375 31.969062 
z
" style="fill: #d62728; fill-opacity: 0.25; stroke: #d62728; stroke-linejoin: miter"/>
    </g>
    <g id="text_15">
     <!-- mRuby2 -->
     <g transform="translate(254.54375 38.969062)scale(0.1 -0.1)">
      <use xlink:href="#DejaVuSans-6d"/>
      <use xlink:href="#DejaVuSans-52" x="97.412109"/>
      <use xlink:href="#DejaVuSans-75" x="162.394531"/>
      <use xlink:href="#DejaVuSans-62" x="225.773438"/>
      <use xlink:href="#DejaVuSans-79" x="289.25"/>
      <use xlink:href="#DejaVuSans-32" x="348.429688"/>
     </g>
    </g>
    <g id="patch_8">
     <path d="M 226.54375 53.647187 
L 246.54375 53.647187 
L 246.54375 46.647187 
L 226.54375 46.647187 
z
" style="fill: #1f77b4; fill-opacity: 0.25; stroke: #1f77b4; stroke-linejoin: miter"/>
    </g>
    <g id="text_16">
     <!-- Brn2-2A-mRuby2 (MOI=0.1) -->
     <g transform="translate(254.54375 53.647187)scale(0.1 -0.1)">
      <defs>
       <path id="DejaVuSans-42" d="M 1259 2228 
L 1259 519 
L 2272 519 
Q 2781 519 3026 730 
Q 3272 941 3272 1375 
Q 3272 1813 3026 2020 
Q 2781 2228 2272 2228 
L 1259 2228 
z
M 1259 4147 
L 1259 2741 
L 2194 2741 
Q 2656 2741 2882 2914 
Q 3109 3088 3109 3444 
Q 3109 3797 2882 3972 
Q 2656 4147 2194 4147 
L 1259 4147 
z
M 628 4666 
L 2241 4666 
Q 2963 4666 3353 4366 
Q 3744 4066 3744 3513 
Q 3744 3084 3544 2831 
Q 3344 2578 2956 2516 
Q 3422 2416 3680 2098 
Q 3938 1781 3938 1306 
Q 3938 681 3513 340 
Q 3088 0 2303 0 
L 628 0 
L 628 4666 
z
" transform="scale(0.015625)"/>
       <path id="DejaVuSans-4d" d="M 628 4666 
L 1569 4666 
L 2759 1491 
L 3956 4666 
L 4897 4666 
L 4897 0 
L 4281 0 
L 4281 4097 
L 3078 897 
L 2444 897 
L 1241 4097 
L 1241 0 
L 628 0 
L 628 4666 
z
" transform="scale(0.015625)"/>
       <path id="DejaVuSans-4f" d="M 2522 4238 
Q 1834 4238 1429 3725 
Q 1025 3213 1025 2328 
Q 1025 1447 1429 934 
Q 1834 422 2522 422 
Q 3209 422 3611 934 
Q 4013 1447 4013 2328 
Q 4013 3213 3611 3725 
Q 3209 4238 2522 4238 
z
M 2522 4750 
Q 3503 4750 4090 4092 
Q 4678 3434 4678 2328 
Q 4678 1225 4090 567 
Q 3503 -91 2522 -91 
Q 1538 -91 948 565 
Q 359 1222 359 2328 
Q 359 3434 948 4092 
Q 1538 4750 2522 4750 
z
" transform="scale(0.015625)"/>
       <path id="DejaVuSans-49" d="M 628 4666 
L 1259 4666 
L 1259 0 
L 628 0 
L 628 4666 
z
" transform="scale(0.015625)"/>
       <path id="DejaVuSans-3d" d="M 678 2906 
L 4684 2906 
L 4684 2381 
L 678 2381 
L 678 2906 
z
M 678 1631 
L 4684 1631 
L 4684 1100 
L 678 1100 
L 678 1631 
z
" transform="scale(0.015625)"/>
      </defs>
      <use xlink:href="#DejaVuSans-42"/>
      <use xlink:href="#DejaVuSans-72" x="68.603516"/>
      <use xlink:href="#DejaVuSans-6e" x="107.966797"/>
      <use xlink:href="#DejaVuSans-32" x="171.345703"/>
      <use xlink:href="#DejaVuSans-2d" x="234.96875"/>
      <use xlink:href="#DejaVuSans-32" x="271.052734"/>
      <use xlink:href="#DejaVuSans-41" x="334.675781"/>
      <use xlink:href="#DejaVuSans-2d" x="400.833984"/>
      <use xlink:href="#DejaVuSans-6d" x="436.917969"/>
      <use xlink:href="#DejaVuSans-52" x="534.330078"/>
      <use xlink:href="#DejaVuSans-75" x="599.3125"/>
      <use xlink:href="#DejaVuSans-62" x="662.691406"/>
      <use xlink:href="#DejaVuSans-79" x="726.167969"/>
      <use xlink:href="#DejaVuSans-32" x="785.347656"/>
      <use xlink:href="#DejaVuSans-20" x="848.970703"/>
      <use xlink:href="#DejaVuSans-28" x="880.757812"/>
      <use xlink:href="#DejaVuSans-4d" x="919.771484"/>
      <use xlink:href="#DejaVuSans-4f" x="1006.050781"/>
      <use xlink:href="#DejaVuSans-49" x="1084.761719"/>
      <use xlink:href="#DejaVuSans-3d" x="1114.253906"/>
      <use xlink:href="#DejaVuSans-30" x="1198.042969"/>
      <use xlink:href="#DejaVuSans-2e" x="1261.666016"/>
      <use xlink:href="#DejaVuSans-31" x="1293.453125"/>
      <use xlink:href="#DejaVuSans-29" x="1357.076172"/>
     </g>
    </g>
   </g>
  </g>
 </g>
 <defs>
  <clipPath id="p8e4c148508">
   <rect x="50.14375" y="22.370625" width="167.4" height="108.72"/>
  </clipPath>
 </defs>
</svg>
