<?xml version="1.0" encoding="utf-8" standalone="no"?>
<!DOCTYPE svg PUBLIC "-//W3C//DTD SVG 1.1//EN"
  "http://www.w3.org/Graphics/SVG/1.1/DTD/svg11.dtd">
<svg xmlns:xlink="http://www.w3.org/1999/xlink" width="351.249375pt" height="168.660072pt" viewBox="0 0 351.249375 168.660072" xmlns="http://www.w3.org/2000/svg" version="1.1">
 <metadata>
  <rdf:RDF xmlns:dc="http://purl.org/dc/elements/1.1/" xmlns:cc="http://creativecommons.org/ns#" xmlns:rdf="http://www.w3.org/1999/02/22-rdf-syntax-ns#">
   <cc:Work>
    <dc:type rdf:resource="http://purl.org/dc/dcmitype/StillImage"/>
    <dc:date>2025-01-26T10:42:41.662300</dc:date>
    <dc:format>image/svg+xml</dc:format>
    <dc:creator>
     <cc:Agent>
      <dc:title>Matplotlib v3.5.2, https://matplotlib.org/</dc:title>
     </cc:Agent>
    </dc:creator>
   </cc:Work>
  </rdf:RDF>
 </metadata>
 <defs>
  <style type="text/css">*{stroke-linejoin: round; stroke-linecap: butt}</style>
 </defs>
 <g id="figure_1">
  <g id="patch_1">
   <path d="M 0 168.660072 
L 351.249375 168.660072 
L 351.249375 0 
L 0 0 
L 0 168.660072 
z
" style="fill: none"/>
  </g>
  <g id="axes_1">
   <g id="patch_2">
    <path d="M 58.163438 133.584135 
L 253.463437 133.584135 
L 253.463437 24.864135 
L 58.163438 24.864135 
z
" style="fill: #ffffff"/>
   </g>
   <g id="PathCollection_1"/>
   <g id="PathCollection_2"/>
   <g id="PathCollection_3"/>
   <g id="PathCollection_4"/>
   <g id="PathCollection_5"/>
   <g id="PathCollection_6"/>
   <g id="PathCollection_7"/>
   <g id="PathCollection_8"/>
   <g id="patch_3">
    <path d="M 67.04071 133.584135 
L 92.404347 133.584135 
L 92.404347 83.309299 
L 67.04071 83.309299 
z
" clip-path="url(#p74e291765d)" style="fill: #d3d3d3; opacity: 0.75"/>
   </g>
   <g id="patch_4">
    <path d="M 130.449801 133.584135 
L 155.813438 133.584135 
L 155.813438 80.35376 
L 130.449801 80.35376 
z
" clip-path="url(#p74e291765d)" style="fill: #d3d3d3; opacity: 0.75"/>
   </g>
   <g id="patch_5">
    <path d="M 193.858892 133.584135 
L 219.222528 133.584135 
L 219.222528 95.918093 
L 193.858892 95.918093 
z
" clip-path="url(#p74e291765d)" style="fill: #d3d3d3; opacity: 0.75"/>
   </g>
   <g id="patch_6">
    <path d="M 92.404347 133.584135 
L 117.767983 133.584135 
L 117.767983 81.009655 
L 92.404347 81.009655 
z
" clip-path="url(#p74e291765d)" style="fill: #c03d3e; opacity: 0.75"/>
   </g>
   <g id="patch_7">
    <path d="M 155.813437 133.584135 
L 181.177074 133.584135 
L 181.177074 88.043451 
L 155.813437 88.043451 
z
" clip-path="url(#p74e291765d)" style="fill: #c03d3e; opacity: 0.75"/>
   </g>
   <g id="patch_8">
    <path d="M 219.222528 133.584135 
L 244.586165 133.584135 
L 244.586165 97.473385 
L 219.222528 97.473385 
z
" clip-path="url(#p74e291765d)" style="fill: #c03d3e; opacity: 0.75"/>
   </g>
   <g id="matplotlib.axis_1">
    <g id="xtick_1">
     <g id="line2d_1">
      <defs>
       <path id="mfaa15e0e1c" d="M 0 0 
L 0 3.5 
" style="stroke: #000000; stroke-width: 0.8"/>
      </defs>
      <g>
       <use xlink:href="#mfaa15e0e1c" x="92.404347" y="133.584135" style="stroke: #000000; stroke-width: 0.8"/>
      </g>
     </g>
     <g id="text_1">
      <!-- mRuby2 -->
      <g transform="translate(71.801222 148.182572)scale(0.1 -0.1)">
       <defs>
        <path id="DejaVuSans-6d" d="M 3328 2828 
Q 3544 3216 3844 3400 
Q 4144 3584 4550 3584 
Q 5097 3584 5394 3201 
Q 5691 2819 5691 2113 
L 5691 0 
L 5113 0 
L 5113 2094 
Q 5113 2597 4934 2840 
Q 4756 3084 4391 3084 
Q 3944 3084 3684 2787 
Q 3425 2491 3425 1978 
L 3425 0 
L 2847 0 
L 2847 2094 
Q 2847 2600 2669 2842 
Q 2491 3084 2119 3084 
Q 1678 3084 1418 2786 
Q 1159 2488 1159 1978 
L 1159 0 
L 581 0 
L 581 3500 
L 1159 3500 
L 1159 2956 
Q 1356 3278 1631 3431 
Q 1906 3584 2284 3584 
Q 2666 3584 2933 3390 
Q 3200 3197 3328 2828 
z
" transform="scale(0.015625)"/>
        <path id="DejaVuSans-52" d="M 2841 2188 
Q 3044 2119 3236 1894 
Q 3428 1669 3622 1275 
L 4263 0 
L 3584 0 
L 2988 1197 
Q 2756 1666 2539 1819 
Q 2322 1972 1947 1972 
L 1259 1972 
L 1259 0 
L 628 0 
L 628 4666 
L 2053 4666 
Q 2853 4666 3247 4331 
Q 3641 3997 3641 3322 
Q 3641 2881 3436 2590 
Q 3231 2300 2841 2188 
z
M 1259 4147 
L 1259 2491 
L 2053 2491 
Q 2509 2491 2742 2702 
Q 2975 2913 2975 3322 
Q 2975 3731 2742 3939 
Q 2509 4147 2053 4147 
L 1259 4147 
z
" transform="scale(0.015625)"/>
        <path id="DejaVuSans-75" d="M 544 1381 
L 544 3500 
L 1119 3500 
L 1119 1403 
Q 1119 906 1312 657 
Q 1506 409 1894 409 
Q 2359 409 2629 706 
Q 2900 1003 2900 1516 
L 2900 3500 
L 3475 3500 
L 3475 0 
L 2900 0 
L 2900 538 
Q 2691 219 2414 64 
Q 2138 -91 1772 -91 
Q 1169 -91 856 284 
Q 544 659 544 1381 
z
M 1991 3584 
L 1991 3584 
z
" transform="scale(0.015625)"/>
        <path id="DejaVuSans-62" d="M 3116 1747 
Q 3116 2381 2855 2742 
Q 2594 3103 2138 3103 
Q 1681 3103 1420 2742 
Q 1159 2381 1159 1747 
Q 1159 1113 1420 752 
Q 1681 391 2138 391 
Q 2594 391 2855 752 
Q 3116 1113 3116 1747 
z
M 1159 2969 
Q 1341 3281 1617 3432 
Q 1894 3584 2278 3584 
Q 2916 3584 3314 3078 
Q 3713 2572 3713 1747 
Q 3713 922 3314 415 
Q 2916 -91 2278 -91 
Q 1894 -91 1617 61 
Q 1341 213 1159 525 
L 1159 0 
L 581 0 
L 581 4863 
L 1159 4863 
L 1159 2969 
z
" transform="scale(0.015625)"/>
        <path id="DejaVuSans-79" d="M 2059 -325 
Q 1816 -950 1584 -1140 
Q 1353 -1331 966 -1331 
L 506 -1331 
L 506 -850 
L 844 -850 
Q 1081 -850 1212 -737 
Q 1344 -625 1503 -206 
L 1606 56 
L 191 3500 
L 800 3500 
L 1894 763 
L 2988 3500 
L 3597 3500 
L 2059 -325 
z
" transform="scale(0.015625)"/>
        <path id="DejaVuSans-32" d="M 1228 531 
L 3431 531 
L 3431 0 
L 469 0 
L 469 531 
Q 828 903 1448 1529 
Q 2069 2156 2228 2338 
Q 2531 2678 2651 2914 
Q 2772 3150 2772 3378 
Q 2772 3750 2511 3984 
Q 2250 4219 1831 4219 
Q 1534 4219 1204 4116 
Q 875 4013 500 3803 
L 500 4441 
Q 881 4594 1212 4672 
Q 1544 4750 1819 4750 
Q 2544 4750 2975 4387 
Q 3406 4025 3406 3419 
Q 3406 3131 3298 2873 
Q 3191 2616 2906 2266 
Q 2828 2175 2409 1742 
Q 1991 1309 1228 531 
z
" transform="scale(0.015625)"/>
       </defs>
       <use xlink:href="#DejaVuSans-6d"/>
       <use xlink:href="#DejaVuSans-52" x="97.412109"/>
       <use xlink:href="#DejaVuSans-75" x="162.394531"/>
       <use xlink:href="#DejaVuSans-62" x="225.773438"/>
       <use xlink:href="#DejaVuSans-79" x="289.25"/>
       <use xlink:href="#DejaVuSans-32" x="348.429688"/>
      </g>
     </g>
    </g>
    <g id="xtick_2">
     <g id="line2d_2">
      <g>
       <use xlink:href="#mfaa15e0e1c" x="155.813437" y="133.584135" style="stroke: #000000; stroke-width: 0.8"/>
      </g>
     </g>
     <g id="text_2">
      <!-- Brn2-2A-mRuby2 -->
      <g transform="translate(113.365 148.182572)scale(0.1 -0.1)">
       <defs>
        <path id="DejaVuSans-42" d="M 1259 2228 
L 1259 519 
L 2272 519 
Q 2781 519 3026 730 
Q 3272 941 3272 1375 
Q 3272 1813 3026 2020 
Q 2781 2228 2272 2228 
L 1259 2228 
z
M 1259 4147 
L 1259 2741 
L 2194 2741 
Q 2656 2741 2882 2914 
Q 3109 3088 3109 3444 
Q 3109 3797 2882 3972 
Q 2656 4147 2194 4147 
L 1259 4147 
z
M 628 4666 
L 2241 4666 
Q 2963 4666 3353 4366 
Q 3744 4066 3744 3513 
Q 3744 3084 3544 2831 
Q 3344 2578 2956 2516 
Q 3422 2416 3680 2098 
Q 3938 1781 3938 1306 
Q 3938 681 3513 340 
Q 3088 0 2303 0 
L 628 0 
L 628 4666 
z
" transform="scale(0.015625)"/>
        <path id="DejaVuSans-72" d="M 2631 2963 
Q 2534 3019 2420 3045 
Q 2306 3072 2169 3072 
Q 1681 3072 1420 2755 
Q 1159 2438 1159 1844 
L 1159 0 
L 581 0 
L 581 3500 
L 1159 3500 
L 1159 2956 
Q 1341 3275 1631 3429 
Q 1922 3584 2338 3584 
Q 2397 3584 2469 3576 
Q 2541 3569 2628 3553 
L 2631 2963 
z
" transform="scale(0.015625)"/>
        <path id="DejaVuSans-6e" d="M 3513 2113 
L 3513 0 
L 2938 0 
L 2938 2094 
Q 2938 2591 2744 2837 
Q 2550 3084 2163 3084 
Q 1697 3084 1428 2787 
Q 1159 2491 1159 1978 
L 1159 0 
L 581 0 
L 581 3500 
L 1159 3500 
L 1159 2956 
Q 1366 3272 1645 3428 
Q 1925 3584 2291 3584 
Q 2894 3584 3203 3211 
Q 3513 2838 3513 2113 
z
" transform="scale(0.015625)"/>
        <path id="DejaVuSans-2d" d="M 313 2009 
L 1997 2009 
L 1997 1497 
L 313 1497 
L 313 2009 
z
" transform="scale(0.015625)"/>
        <path id="DejaVuSans-41" d="M 2188 4044 
L 1331 1722 
L 3047 1722 
L 2188 4044 
z
M 1831 4666 
L 2547 4666 
L 4325 0 
L 3669 0 
L 3244 1197 
L 1141 1197 
L 716 0 
L 50 0 
L 1831 4666 
z
" transform="scale(0.015625)"/>
       </defs>
       <use xlink:href="#DejaVuSans-42"/>
       <use xlink:href="#DejaVuSans-72" x="68.603516"/>
       <use xlink:href="#DejaVuSans-6e" x="107.966797"/>
       <use xlink:href="#DejaVuSans-32" x="171.345703"/>
       <use xlink:href="#DejaVuSans-2d" x="234.96875"/>
       <use xlink:href="#DejaVuSans-32" x="271.052734"/>
       <use xlink:href="#DejaVuSans-41" x="334.675781"/>
       <use xlink:href="#DejaVuSans-2d" x="400.833984"/>
       <use xlink:href="#DejaVuSans-6d" x="436.917969"/>
       <use xlink:href="#DejaVuSans-52" x="534.330078"/>
       <use xlink:href="#DejaVuSans-75" x="599.3125"/>
       <use xlink:href="#DejaVuSans-62" x="662.691406"/>
       <use xlink:href="#DejaVuSans-79" x="726.167969"/>
       <use xlink:href="#DejaVuSans-32" x="785.347656"/>
      </g>
      <!-- (MOI=0.1) -->
      <g transform="translate(130.045469 159.380385)scale(0.1 -0.1)">
       <defs>
        <path id="DejaVuSans-28" d="M 1984 4856 
Q 1566 4138 1362 3434 
Q 1159 2731 1159 2009 
Q 1159 1288 1364 580 
Q 1569 -128 1984 -844 
L 1484 -844 
Q 1016 -109 783 600 
Q 550 1309 550 2009 
Q 550 2706 781 3412 
Q 1013 4119 1484 4856 
L 1984 4856 
z
" transform="scale(0.015625)"/>
        <path id="DejaVuSans-4d" d="M 628 4666 
L 1569 4666 
L 2759 1491 
L 3956 4666 
L 4897 4666 
L 4897 0 
L 4281 0 
L 4281 4097 
L 3078 897 
L 2444 897 
L 1241 4097 
L 1241 0 
L 628 0 
L 628 4666 
z
" transform="scale(0.015625)"/>
        <path id="DejaVuSans-4f" d="M 2522 4238 
Q 1834 4238 1429 3725 
Q 1025 3213 1025 2328 
Q 1025 1447 1429 934 
Q 1834 422 2522 422 
Q 3209 422 3611 934 
Q 4013 1447 4013 2328 
Q 4013 3213 3611 3725 
Q 3209 4238 2522 4238 
z
M 2522 4750 
Q 3503 4750 4090 4092 
Q 4678 3434 4678 2328 
Q 4678 1225 4090 567 
Q 3503 -91 2522 -91 
Q 1538 -91 948 565 
Q 359 1222 359 2328 
Q 359 3434 948 4092 
Q 1538 4750 2522 4750 
z
" transform="scale(0.015625)"/>
        <path id="DejaVuSans-49" d="M 628 4666 
L 1259 4666 
L 1259 0 
L 628 0 
L 628 4666 
z
" transform="scale(0.015625)"/>
        <path id="DejaVuSans-3d" d="M 678 2906 
L 4684 2906 
L 4684 2381 
L 678 2381 
L 678 2906 
z
M 678 1631 
L 4684 1631 
L 4684 1100 
L 678 1100 
L 678 1631 
z
" transform="scale(0.015625)"/>
        <path id="DejaVuSans-30" d="M 2034 4250 
Q 1547 4250 1301 3770 
Q 1056 3291 1056 2328 
Q 1056 1369 1301 889 
Q 1547 409 2034 409 
Q 2525 409 2770 889 
Q 3016 1369 3016 2328 
Q 3016 3291 2770 3770 
Q 2525 4250 2034 4250 
z
M 2034 4750 
Q 2819 4750 3233 4129 
Q 3647 3509 3647 2328 
Q 3647 1150 3233 529 
Q 2819 -91 2034 -91 
Q 1250 -91 836 529 
Q 422 1150 422 2328 
Q 422 3509 836 4129 
Q 1250 4750 2034 4750 
z
" transform="scale(0.015625)"/>
        <path id="DejaVuSans-2e" d="M 684 794 
L 1344 794 
L 1344 0 
L 684 0 
L 684 794 
z
" transform="scale(0.015625)"/>
        <path id="DejaVuSans-31" d="M 794 531 
L 1825 531 
L 1825 4091 
L 703 3866 
L 703 4441 
L 1819 4666 
L 2450 4666 
L 2450 531 
L 3481 531 
L 3481 0 
L 794 0 
L 794 531 
z
" transform="scale(0.015625)"/>
        <path id="DejaVuSans-29" d="M 513 4856 
L 1013 4856 
Q 1481 4119 1714 3412 
Q 1947 2706 1947 2009 
Q 1947 1309 1714 600 
Q 1481 -109 1013 -844 
L 513 -844 
Q 928 -128 1133 580 
Q 1338 1288 1338 2009 
Q 1338 2731 1133 3434 
Q 928 4138 513 4856 
z
" transform="scale(0.015625)"/>
       </defs>
       <use xlink:href="#DejaVuSans-28"/>
       <use xlink:href="#DejaVuSans-4d" x="39.013672"/>
       <use xlink:href="#DejaVuSans-4f" x="125.292969"/>
       <use xlink:href="#DejaVuSans-49" x="204.003906"/>
       <use xlink:href="#DejaVuSans-3d" x="233.496094"/>
       <use xlink:href="#DejaVuSans-30" x="317.285156"/>
       <use xlink:href="#DejaVuSans-2e" x="380.908203"/>
       <use xlink:href="#DejaVuSans-31" x="412.695312"/>
       <use xlink:href="#DejaVuSans-29" x="476.318359"/>
      </g>
     </g>
    </g>
    <g id="xtick_3">
     <g id="line2d_3">
      <g>
       <use xlink:href="#mfaa15e0e1c" x="219.222528" y="133.584135" style="stroke: #000000; stroke-width: 0.8"/>
      </g>
     </g>
     <g id="text_3">
      <!--  -->
      <g transform="translate(219.222528 148.182572)scale(0.1 -0.1)"/>
      <!-- (MOI=5) -->
      <g transform="translate(198.224872 159.380385)scale(0.1 -0.1)">
       <defs>
        <path id="DejaVuSans-35" d="M 691 4666 
L 3169 4666 
L 3169 4134 
L 1269 4134 
L 1269 2991 
Q 1406 3038 1543 3061 
Q 1681 3084 1819 3084 
Q 2600 3084 3056 2656 
Q 3513 2228 3513 1497 
Q 3513 744 3044 326 
Q 2575 -91 1722 -91 
Q 1428 -91 1123 -41 
Q 819 9 494 109 
L 494 744 
Q 775 591 1075 516 
Q 1375 441 1709 441 
Q 2250 441 2565 725 
Q 2881 1009 2881 1497 
Q 2881 1984 2565 2268 
Q 2250 2553 1709 2553 
Q 1456 2553 1204 2497 
Q 953 2441 691 2322 
L 691 4666 
z
" transform="scale(0.015625)"/>
       </defs>
       <use xlink:href="#DejaVuSans-28"/>
       <use xlink:href="#DejaVuSans-4d" x="39.013672"/>
       <use xlink:href="#DejaVuSans-4f" x="125.292969"/>
       <use xlink:href="#DejaVuSans-49" x="204.003906"/>
       <use xlink:href="#DejaVuSans-3d" x="233.496094"/>
       <use xlink:href="#DejaVuSans-35" x="317.285156"/>
       <use xlink:href="#DejaVuSans-29" x="380.908203"/>
      </g>
     </g>
    </g>
   </g>
   <g id="matplotlib.axis_2">
    <g id="ytick_1">
     <g id="line2d_4">
      <defs>
       <path id="mdc113034f2" d="M 0 0 
L -3.5 0 
" style="stroke: #000000; stroke-width: 0.8"/>
      </defs>
      <g>
       <use xlink:href="#mdc113034f2" x="58.163438" y="133.584135" style="stroke: #000000; stroke-width: 0.8"/>
      </g>
     </g>
     <g id="text_4">
      <!-- 0 -->
      <g transform="translate(44.800938 137.383353)scale(0.1 -0.1)">
       <use xlink:href="#DejaVuSans-30"/>
      </g>
     </g>
    </g>
    <g id="ytick_2">
     <g id="line2d_5">
      <g>
       <use xlink:href="#mdc113034f2" x="58.163438" y="113.816862" style="stroke: #000000; stroke-width: 0.8"/>
      </g>
     </g>
     <g id="text_5">
      <!-- 20 -->
      <g transform="translate(38.438437 117.616081)scale(0.1 -0.1)">
       <use xlink:href="#DejaVuSans-32"/>
       <use xlink:href="#DejaVuSans-30" x="63.623047"/>
      </g>
     </g>
    </g>
    <g id="ytick_3">
     <g id="line2d_6">
      <g>
       <use xlink:href="#mdc113034f2" x="58.163438" y="94.049589" style="stroke: #000000; stroke-width: 0.8"/>
      </g>
     </g>
     <g id="text_6">
      <!-- 40 -->
      <g transform="translate(38.438437 97.848808)scale(0.1 -0.1)">
       <defs>
        <path id="DejaVuSans-34" d="M 2419 4116 
L 825 1625 
L 2419 1625 
L 2419 4116 
z
M 2253 4666 
L 3047 4666 
L 3047 1625 
L 3713 1625 
L 3713 1100 
L 3047 1100 
L 3047 0 
L 2419 0 
L 2419 1100 
L 313 1100 
L 313 1709 
L 2253 4666 
z
" transform="scale(0.015625)"/>
       </defs>
       <use xlink:href="#DejaVuSans-34"/>
       <use xlink:href="#DejaVuSans-30" x="63.623047"/>
      </g>
     </g>
    </g>
    <g id="ytick_4">
     <g id="line2d_7">
      <g>
       <use xlink:href="#mdc113034f2" x="58.163438" y="74.282316" style="stroke: #000000; stroke-width: 0.8"/>
      </g>
     </g>
     <g id="text_7">
      <!-- 60 -->
      <g transform="translate(38.438437 78.081535)scale(0.1 -0.1)">
       <defs>
        <path id="DejaVuSans-36" d="M 2113 2584 
Q 1688 2584 1439 2293 
Q 1191 2003 1191 1497 
Q 1191 994 1439 701 
Q 1688 409 2113 409 
Q 2538 409 2786 701 
Q 3034 994 3034 1497 
Q 3034 2003 2786 2293 
Q 2538 2584 2113 2584 
z
M 3366 4563 
L 3366 3988 
Q 3128 4100 2886 4159 
Q 2644 4219 2406 4219 
Q 1781 4219 1451 3797 
Q 1122 3375 1075 2522 
Q 1259 2794 1537 2939 
Q 1816 3084 2150 3084 
Q 2853 3084 3261 2657 
Q 3669 2231 3669 1497 
Q 3669 778 3244 343 
Q 2819 -91 2113 -91 
Q 1303 -91 875 529 
Q 447 1150 447 2328 
Q 447 3434 972 4092 
Q 1497 4750 2381 4750 
Q 2619 4750 2861 4703 
Q 3103 4656 3366 4563 
z
" transform="scale(0.015625)"/>
       </defs>
       <use xlink:href="#DejaVuSans-36"/>
       <use xlink:href="#DejaVuSans-30" x="63.623047"/>
      </g>
     </g>
    </g>
    <g id="ytick_5">
     <g id="line2d_8">
      <g>
       <use xlink:href="#mdc113034f2" x="58.163438" y="54.515044" style="stroke: #000000; stroke-width: 0.8"/>
      </g>
     </g>
     <g id="text_8">
      <!-- 80 -->
      <g transform="translate(38.438437 58.314262)scale(0.1 -0.1)">
       <defs>
        <path id="DejaVuSans-38" d="M 2034 2216 
Q 1584 2216 1326 1975 
Q 1069 1734 1069 1313 
Q 1069 891 1326 650 
Q 1584 409 2034 409 
Q 2484 409 2743 651 
Q 3003 894 3003 1313 
Q 3003 1734 2745 1975 
Q 2488 2216 2034 2216 
z
M 1403 2484 
Q 997 2584 770 2862 
Q 544 3141 544 3541 
Q 544 4100 942 4425 
Q 1341 4750 2034 4750 
Q 2731 4750 3128 4425 
Q 3525 4100 3525 3541 
Q 3525 3141 3298 2862 
Q 3072 2584 2669 2484 
Q 3125 2378 3379 2068 
Q 3634 1759 3634 1313 
Q 3634 634 3220 271 
Q 2806 -91 2034 -91 
Q 1263 -91 848 271 
Q 434 634 434 1313 
Q 434 1759 690 2068 
Q 947 2378 1403 2484 
z
M 1172 3481 
Q 1172 3119 1398 2916 
Q 1625 2713 2034 2713 
Q 2441 2713 2670 2916 
Q 2900 3119 2900 3481 
Q 2900 3844 2670 4047 
Q 2441 4250 2034 4250 
Q 1625 4250 1398 4047 
Q 1172 3844 1172 3481 
z
" transform="scale(0.015625)"/>
       </defs>
       <use xlink:href="#DejaVuSans-38"/>
       <use xlink:href="#DejaVuSans-30" x="63.623047"/>
      </g>
     </g>
    </g>
    <g id="ytick_6">
     <g id="line2d_9">
      <g>
       <use xlink:href="#mdc113034f2" x="58.163438" y="34.747771" style="stroke: #000000; stroke-width: 0.8"/>
      </g>
     </g>
     <g id="text_9">
      <!-- 100 -->
      <g transform="translate(32.075937 38.54699)scale(0.1 -0.1)">
       <use xlink:href="#DejaVuSans-31"/>
       <use xlink:href="#DejaVuSans-30" x="63.623047"/>
       <use xlink:href="#DejaVuSans-30" x="127.246094"/>
      </g>
     </g>
    </g>
    <g id="text_10">
     <!-- (%) HyperP -->
     <g transform="translate(14.798437 107.506166)rotate(-90)scale(0.1 -0.1)">
      <defs>
       <path id="DejaVuSans-25" d="M 4653 2053 
Q 4381 2053 4226 1822 
Q 4072 1591 4072 1178 
Q 4072 772 4226 539 
Q 4381 306 4653 306 
Q 4919 306 5073 539 
Q 5228 772 5228 1178 
Q 5228 1588 5073 1820 
Q 4919 2053 4653 2053 
z
M 4653 2450 
Q 5147 2450 5437 2106 
Q 5728 1763 5728 1178 
Q 5728 594 5436 251 
Q 5144 -91 4653 -91 
Q 4153 -91 3862 251 
Q 3572 594 3572 1178 
Q 3572 1766 3864 2108 
Q 4156 2450 4653 2450 
z
M 1428 4353 
Q 1159 4353 1004 4120 
Q 850 3888 850 3481 
Q 850 3069 1003 2837 
Q 1156 2606 1428 2606 
Q 1700 2606 1854 2837 
Q 2009 3069 2009 3481 
Q 2009 3884 1853 4118 
Q 1697 4353 1428 4353 
z
M 4250 4750 
L 4750 4750 
L 1831 -91 
L 1331 -91 
L 4250 4750 
z
M 1428 4750 
Q 1922 4750 2215 4408 
Q 2509 4066 2509 3481 
Q 2509 2891 2217 2550 
Q 1925 2209 1428 2209 
Q 931 2209 642 2551 
Q 353 2894 353 3481 
Q 353 4063 643 4406 
Q 934 4750 1428 4750 
z
" transform="scale(0.015625)"/>
       <path id="DejaVuSans-20" transform="scale(0.015625)"/>
       <path id="DejaVuSans-48" d="M 628 4666 
L 1259 4666 
L 1259 2753 
L 3553 2753 
L 3553 4666 
L 4184 4666 
L 4184 0 
L 3553 0 
L 3553 2222 
L 1259 2222 
L 1259 0 
L 628 0 
L 628 4666 
z
" transform="scale(0.015625)"/>
       <path id="DejaVuSans-70" d="M 1159 525 
L 1159 -1331 
L 581 -1331 
L 581 3500 
L 1159 3500 
L 1159 2969 
Q 1341 3281 1617 3432 
Q 1894 3584 2278 3584 
Q 2916 3584 3314 3078 
Q 3713 2572 3713 1747 
Q 3713 922 3314 415 
Q 2916 -91 2278 -91 
Q 1894 -91 1617 61 
Q 1341 213 1159 525 
z
M 3116 1747 
Q 3116 2381 2855 2742 
Q 2594 3103 2138 3103 
Q 1681 3103 1420 2742 
Q 1159 2381 1159 1747 
Q 1159 1113 1420 752 
Q 1681 391 2138 391 
Q 2594 391 2855 752 
Q 3116 1113 3116 1747 
z
" transform="scale(0.015625)"/>
       <path id="DejaVuSans-65" d="M 3597 1894 
L 3597 1613 
L 953 1613 
Q 991 1019 1311 708 
Q 1631 397 2203 397 
Q 2534 397 2845 478 
Q 3156 559 3463 722 
L 3463 178 
Q 3153 47 2828 -22 
Q 2503 -91 2169 -91 
Q 1331 -91 842 396 
Q 353 884 353 1716 
Q 353 2575 817 3079 
Q 1281 3584 2069 3584 
Q 2775 3584 3186 3129 
Q 3597 2675 3597 1894 
z
M 3022 2063 
Q 3016 2534 2758 2815 
Q 2500 3097 2075 3097 
Q 1594 3097 1305 2825 
Q 1016 2553 972 2059 
L 3022 2063 
z
" transform="scale(0.015625)"/>
       <path id="DejaVuSans-50" d="M 1259 4147 
L 1259 2394 
L 2053 2394 
Q 2494 2394 2734 2622 
Q 2975 2850 2975 3272 
Q 2975 3691 2734 3919 
Q 2494 4147 2053 4147 
L 1259 4147 
z
M 628 4666 
L 2053 4666 
Q 2838 4666 3239 4311 
Q 3641 3956 3641 3272 
Q 3641 2581 3239 2228 
Q 2838 1875 2053 1875 
L 1259 1875 
L 1259 0 
L 628 0 
L 628 4666 
z
" transform="scale(0.015625)"/>
      </defs>
      <use xlink:href="#DejaVuSans-28"/>
      <use xlink:href="#DejaVuSans-25" x="39.013672"/>
      <use xlink:href="#DejaVuSans-29" x="134.033203"/>
      <use xlink:href="#DejaVuSans-20" x="173.046875"/>
      <use xlink:href="#DejaVuSans-48" x="204.833984"/>
      <use xlink:href="#DejaVuSans-79" x="280.029297"/>
      <use xlink:href="#DejaVuSans-70" x="339.208984"/>
      <use xlink:href="#DejaVuSans-65" x="402.685547"/>
      <use xlink:href="#DejaVuSans-72" x="464.208984"/>
      <use xlink:href="#DejaVuSans-50" x="505.322266"/>
     </g>
     <!-- at 4 dpi -->
     <g transform="translate(25.99625 98.345228)rotate(-90)scale(0.1 -0.1)">
      <defs>
       <path id="DejaVuSans-61" d="M 2194 1759 
Q 1497 1759 1228 1600 
Q 959 1441 959 1056 
Q 959 750 1161 570 
Q 1363 391 1709 391 
Q 2188 391 2477 730 
Q 2766 1069 2766 1631 
L 2766 1759 
L 2194 1759 
z
M 3341 1997 
L 3341 0 
L 2766 0 
L 2766 531 
Q 2569 213 2275 61 
Q 1981 -91 1556 -91 
Q 1019 -91 701 211 
Q 384 513 384 1019 
Q 384 1609 779 1909 
Q 1175 2209 1959 2209 
L 2766 2209 
L 2766 2266 
Q 2766 2663 2505 2880 
Q 2244 3097 1772 3097 
Q 1472 3097 1187 3025 
Q 903 2953 641 2809 
L 641 3341 
Q 956 3463 1253 3523 
Q 1550 3584 1831 3584 
Q 2591 3584 2966 3190 
Q 3341 2797 3341 1997 
z
" transform="scale(0.015625)"/>
       <path id="DejaVuSans-74" d="M 1172 4494 
L 1172 3500 
L 2356 3500 
L 2356 3053 
L 1172 3053 
L 1172 1153 
Q 1172 725 1289 603 
Q 1406 481 1766 481 
L 2356 481 
L 2356 0 
L 1766 0 
Q 1100 0 847 248 
Q 594 497 594 1153 
L 594 3053 
L 172 3053 
L 172 3500 
L 594 3500 
L 594 4494 
L 1172 4494 
z
" transform="scale(0.015625)"/>
       <path id="DejaVuSans-64" d="M 2906 2969 
L 2906 4863 
L 3481 4863 
L 3481 0 
L 2906 0 
L 2906 525 
Q 2725 213 2448 61 
Q 2172 -91 1784 -91 
Q 1150 -91 751 415 
Q 353 922 353 1747 
Q 353 2572 751 3078 
Q 1150 3584 1784 3584 
Q 2172 3584 2448 3432 
Q 2725 3281 2906 2969 
z
M 947 1747 
Q 947 1113 1208 752 
Q 1469 391 1925 391 
Q 2381 391 2643 752 
Q 2906 1113 2906 1747 
Q 2906 2381 2643 2742 
Q 2381 3103 1925 3103 
Q 1469 3103 1208 2742 
Q 947 2381 947 1747 
z
" transform="scale(0.015625)"/>
       <path id="DejaVuSans-69" d="M 603 3500 
L 1178 3500 
L 1178 0 
L 603 0 
L 603 3500 
z
M 603 4863 
L 1178 4863 
L 1178 4134 
L 603 4134 
L 603 4863 
z
" transform="scale(0.015625)"/>
      </defs>
      <use xlink:href="#DejaVuSans-61"/>
      <use xlink:href="#DejaVuSans-74" x="61.279297"/>
      <use xlink:href="#DejaVuSans-20" x="100.488281"/>
      <use xlink:href="#DejaVuSans-34" x="132.275391"/>
      <use xlink:href="#DejaVuSans-20" x="195.898438"/>
      <use xlink:href="#DejaVuSans-64" x="227.685547"/>
      <use xlink:href="#DejaVuSans-70" x="291.162109"/>
      <use xlink:href="#DejaVuSans-69" x="354.638672"/>
     </g>
    </g>
   </g>
   <g id="line2d_10">
    <path d="M 79.722528 85.790454 
L 79.722528 80.76776 
" clip-path="url(#p74e291765d)" style="fill: none; stroke: #424242; stroke-width: 2.7; stroke-linecap: square"/>
   </g>
   <g id="line2d_11">
    <path d="M 143.131619 82.218124 
L 143.131619 78.718658 
" clip-path="url(#p74e291765d)" style="fill: none; stroke: #424242; stroke-width: 2.7; stroke-linecap: square"/>
   </g>
   <g id="line2d_12">
    <path d="M 206.54071 97.291861 
L 206.54071 94.434247 
" clip-path="url(#p74e291765d)" style="fill: none; stroke: #424242; stroke-width: 2.7; stroke-linecap: square"/>
   </g>
   <g id="line2d_13">
    <path d="M 105.086165 83.662582 
L 105.086165 78.460097 
" clip-path="url(#p74e291765d)" style="fill: none; stroke: #424242; stroke-width: 2.7; stroke-linecap: square"/>
   </g>
   <g id="line2d_14">
    <path d="M 168.495256 90.450419 
L 168.495256 85.700099 
" clip-path="url(#p74e291765d)" style="fill: none; stroke: #424242; stroke-width: 2.7; stroke-linecap: square"/>
   </g>
   <g id="line2d_15">
    <path d="M 231.904347 98.737534 
L 231.904347 96.259824 
" clip-path="url(#p74e291765d)" style="fill: none; stroke: #424242; stroke-width: 2.7; stroke-linecap: square"/>
   </g>
   <g id="line2d_16">
    <path d="M 143.131619 63.808307 
L 143.131619 61.83158 
L 168.495256 61.83158 
L 168.495256 63.808307 
" clip-path="url(#p74e291765d)" style="fill: none; stroke: #333333; stroke-width: 1.5; stroke-linecap: square"/>
   </g>
   <g id="line2d_17">
    <path d="M 79.722528 61.213749 
L 79.722528 59.237022 
L 105.086165 59.237022 
L 105.086165 61.213749 
" clip-path="url(#p74e291765d)" style="fill: none; stroke: #333333; stroke-width: 1.5; stroke-linecap: square"/>
   </g>
   <g id="line2d_18">
    <path d="M 206.54071 81.013804 
L 206.54071 79.037077 
L 231.904347 79.037077 
L 231.904347 81.013804 
" clip-path="url(#p74e291765d)" style="fill: none; stroke: #333333; stroke-width: 1.5; stroke-linecap: square"/>
   </g>
   <g id="line2d_19">
    <path d="M 168.495256 41.83158 
L 168.495256 39.854852 
L 231.904347 39.854852 
L 231.904347 41.83158 
" clip-path="url(#p74e291765d)" style="fill: none; stroke: #333333; stroke-width: 1.5; stroke-linecap: square"/>
   </g>
   <g id="line2d_20">
    <path d="M 105.086165 19.854852 
L 105.086165 17.878125 
L 231.904347 17.878125 
L 231.904347 19.854852 
" clip-path="url(#p74e291765d)" style="fill: none; stroke: #333333; stroke-width: 1.5; stroke-linecap: square"/>
   </g>
   <g id="patch_9">
    <path d="M 58.163438 133.584135 
L 58.163438 24.864135 
" style="fill: none; stroke: #000000; stroke-width: 0.8; stroke-linejoin: miter; stroke-linecap: square"/>
   </g>
   <g id="patch_10">
    <path d="M 253.463437 133.584135 
L 253.463437 24.864135 
" style="fill: none; stroke: #000000; stroke-width: 0.8; stroke-linejoin: miter; stroke-linecap: square"/>
   </g>
   <g id="patch_11">
    <path d="M 58.163437 133.584135 
L 253.463437 133.584135 
" style="fill: none; stroke: #000000; stroke-width: 0.8; stroke-linejoin: miter; stroke-linecap: square"/>
   </g>
   <g id="patch_12">
    <path d="M 58.163437 24.864135 
L 253.463437 24.864135 
" style="fill: none; stroke: #000000; stroke-width: 0.8; stroke-linejoin: miter; stroke-linecap: square"/>
   </g>
   <g id="PathCollection_9">
    <defs>
     <path id="C0_0_d4daaa07fe" d="M 0 2.5 
C 0.663008 2.5 1.29895 2.236584 1.767767 1.767767 
C 2.236584 1.29895 2.5 0.663008 2.5 -0 
C 2.5 -0.663008 2.236584 -1.29895 1.767767 -1.767767 
C 1.29895 -2.236584 0.663008 -2.5 0 -2.5 
C -0.663008 -2.5 -1.29895 -2.236584 -1.767767 -1.767767 
C -2.236584 -1.29895 -2.5 -0.663008 -2.5 0 
C -2.5 0.663008 -2.236584 1.29895 -1.767767 1.767767 
C -1.29895 2.236584 -0.663008 2.5 0 2.5 
z
"/>
    </defs>
    <g clip-path="url(#p74e291765d)">
     <use xlink:href="#C0_0_d4daaa07fe" x="80.14323" y="81.463546" style="fill: #ffffff; stroke: #000000; stroke-width: 0.4"/>
    </g>
    <g clip-path="url(#p74e291765d)">
     <use xlink:href="#C0_0_d4daaa07fe" x="78.175767" y="81.681136" style="fill: #ffffff; stroke: #000000; stroke-width: 0.4"/>
    </g>
    <g clip-path="url(#p74e291765d)">
     <use xlink:href="#C0_0_d4daaa07fe" x="82.443445" y="77.947125" style="fill: #ffffff; stroke: #000000; stroke-width: 0.4"/>
    </g>
    <g clip-path="url(#p74e291765d)">
     <use xlink:href="#C0_0_d4daaa07fe" x="81.199814" y="73.076793" style="fill: #ffffff; stroke: #000000; stroke-width: 0.4"/>
    </g>
   </g>
   <g id="PathCollection_10">
    <defs>
     <path id="C1_0_f8770ec77b" d="M 0 2.5 
C 0.663008 2.5 1.29895 2.236584 1.767767 1.767767 
C 2.236584 1.29895 2.5 0.663008 2.5 -0 
C 2.5 -0.663008 2.236584 -1.29895 1.767767 -1.767767 
C 1.29895 -2.236584 0.663008 -2.5 0 -2.5 
C -0.663008 -2.5 -1.29895 -2.236584 -1.767767 -1.767767 
C -2.236584 -1.29895 -2.5 -0.663008 -2.5 0 
C -2.5 0.663008 -2.236584 1.29895 -1.767767 1.767767 
C -1.29895 2.236584 -0.663008 2.5 0 2.5 
z
"/>
    </defs>
    <g clip-path="url(#p74e291765d)">
     <use xlink:href="#C1_0_f8770ec77b" x="106.188851" y="79.11145" style="fill: #ffffff; stroke: #000000; stroke-width: 0.4"/>
    </g>
    <g clip-path="url(#p74e291765d)">
     <use xlink:href="#C1_0_f8770ec77b" x="102.882829" y="79.355073" style="fill: #ffffff; stroke: #000000; stroke-width: 0.4"/>
    </g>
    <g clip-path="url(#p74e291765d)">
     <use xlink:href="#C1_0_f8770ec77b" x="107.20554" y="75.663323" style="fill: #ffffff; stroke: #000000; stroke-width: 0.4"/>
    </g>
    <g clip-path="url(#p74e291765d)">
     <use xlink:href="#C1_0_f8770ec77b" x="102.997404" y="71.097385" style="fill: #ffffff; stroke: #000000; stroke-width: 0.4"/>
    </g>
   </g>
   <g id="PathCollection_11">
    <defs>
     <path id="C2_0_2020b81ba1" d="M 0 2.5 
C 0.663008 2.5 1.29895 2.236584 1.767767 1.767767 
C 2.236584 1.29895 2.5 0.663008 2.5 -0 
C 2.5 -0.663008 2.236584 -1.29895 1.767767 -1.767767 
C 1.29895 -2.236584 0.663008 -2.5 0 -2.5 
C -0.663008 -2.5 -1.29895 -2.236584 -1.767767 -1.767767 
C -2.236584 -1.29895 -2.5 -0.663008 -2.5 0 
C -2.5 0.663008 -2.236584 1.29895 -1.767767 1.767767 
C -1.29895 2.236584 -0.663008 2.5 0 2.5 
z
"/>
    </defs>
    <g clip-path="url(#p74e291765d)">
     <use xlink:href="#C2_0_2020b81ba1" x="144.067781" y="78.04076" style="fill: #ffffff; stroke: #000000; stroke-width: 0.4"/>
    </g>
    <g clip-path="url(#p74e291765d)">
     <use xlink:href="#C2_0_2020b81ba1" x="145.177863" y="81.514309" style="fill: #ffffff; stroke: #000000; stroke-width: 0.4"/>
    </g>
    <g clip-path="url(#p74e291765d)">
     <use xlink:href="#C2_0_2020b81ba1" x="142.339492" y="79.112865" style="fill: #ffffff; stroke: #000000; stroke-width: 0.4"/>
    </g>
    <g clip-path="url(#p74e291765d)">
     <use xlink:href="#C2_0_2020b81ba1" x="141.576314" y="78.611978" style="fill: #ffffff; stroke: #000000; stroke-width: 0.4"/>
    </g>
   </g>
   <g id="PathCollection_12">
    <defs>
     <path id="C3_0_3b3afc2abe" d="M 0 2.5 
C 0.663008 2.5 1.29895 2.236584 1.767767 1.767767 
C 2.236584 1.29895 2.5 0.663008 2.5 -0 
C 2.5 -0.663008 2.236584 -1.29895 1.767767 -1.767767 
C 1.29895 -2.236584 0.663008 -2.5 0 -2.5 
C -0.663008 -2.5 -1.29895 -2.236584 -1.767767 -1.767767 
C -2.236584 -1.29895 -2.5 -0.663008 -2.5 0 
C -2.5 0.663008 -2.236584 1.29895 -1.767767 1.767767 
C -1.29895 2.236584 -0.663008 2.5 0 2.5 
z
"/>
    </defs>
    <g clip-path="url(#p74e291765d)">
     <use xlink:href="#C3_0_3b3afc2abe" x="168.315961" y="90.073082" style="fill: #ffffff; stroke: #000000; stroke-width: 0.4"/>
    </g>
    <g clip-path="url(#p74e291765d)">
     <use xlink:href="#C3_0_3b3afc2abe" x="165.452702" y="92.113054" style="fill: #ffffff; stroke: #000000; stroke-width: 0.4"/>
    </g>
    <g clip-path="url(#p74e291765d)">
     <use xlink:href="#C3_0_3b3afc2abe" x="170.54105" y="90.798124" style="fill: #ffffff; stroke: #000000; stroke-width: 0.4"/>
    </g>
    <g clip-path="url(#p74e291765d)">
     <use xlink:href="#C3_0_3b3afc2abe" x="167.36399" y="85.069599" style="fill: #ffffff; stroke: #000000; stroke-width: 0.4"/>
    </g>
   </g>
   <g id="PathCollection_13">
    <defs>
     <path id="C4_0_e0c7fe3af3" d="M 0 2.5 
C 0.663008 2.5 1.29895 2.236584 1.767767 1.767767 
C 2.236584 1.29895 2.5 0.663008 2.5 -0 
C 2.5 -0.663008 2.236584 -1.29895 1.767767 -1.767767 
C 1.29895 -2.236584 0.663008 -2.5 0 -2.5 
C -0.663008 -2.5 -1.29895 -2.236584 -1.767767 -1.767767 
C -2.236584 -1.29895 -2.5 -0.663008 -2.5 0 
C -2.5 0.663008 -2.236584 1.29895 -1.767767 1.767767 
C -1.29895 2.236584 -0.663008 2.5 0 2.5 
z
"/>
    </defs>
    <g clip-path="url(#p74e291765d)">
     <use xlink:href="#C4_0_e0c7fe3af3" x="206.25298" y="90.897441" style="fill: #ffffff; stroke: #000000; stroke-width: 0.4"/>
    </g>
    <g clip-path="url(#p74e291765d)">
     <use xlink:href="#C4_0_e0c7fe3af3" x="208.416138" y="93.006208" style="fill: #ffffff; stroke: #000000; stroke-width: 0.4"/>
    </g>
    <g clip-path="url(#p74e291765d)">
     <use xlink:href="#C4_0_e0c7fe3af3" x="207.760329" y="92.234001" style="fill: #ffffff; stroke: #000000; stroke-width: 0.4"/>
    </g>
    <g clip-path="url(#p74e291765d)">
     <use xlink:href="#C4_0_e0c7fe3af3" x="208.066293" y="94.915449" style="fill: #ffffff; stroke: #000000; stroke-width: 0.4"/>
    </g>
   </g>
   <g id="PathCollection_14">
    <defs>
     <path id="C5_0_9b9f3bc4e3" d="M 0 2.5 
C 0.663008 2.5 1.29895 2.236584 1.767767 1.767767 
C 2.236584 1.29895 2.5 0.663008 2.5 -0 
C 2.5 -0.663008 2.236584 -1.29895 1.767767 -1.767767 
C 1.29895 -2.236584 0.663008 -2.5 0 -2.5 
C -0.663008 -2.5 -1.29895 -2.236584 -1.767767 -1.767767 
C -2.236584 -1.29895 -2.5 -0.663008 -2.5 0 
C -2.5 0.663008 -2.236584 1.29895 -1.767767 1.767767 
C -1.29895 2.236584 -0.663008 2.5 0 2.5 
z
"/>
    </defs>
    <g clip-path="url(#p74e291765d)">
     <use xlink:href="#C5_0_9b9f3bc4e3" x="231.112404" y="93.861879" style="fill: #ffffff; stroke: #000000; stroke-width: 0.4"/>
    </g>
    <g clip-path="url(#p74e291765d)">
     <use xlink:href="#C5_0_9b9f3bc4e3" x="230.894969" y="97.278896" style="fill: #ffffff; stroke: #000000; stroke-width: 0.4"/>
    </g>
    <g clip-path="url(#p74e291765d)">
     <use xlink:href="#C5_0_9b9f3bc4e3" x="233.909935" y="93.500903" style="fill: #ffffff; stroke: #000000; stroke-width: 0.4"/>
    </g>
    <g clip-path="url(#p74e291765d)">
     <use xlink:href="#C5_0_9b9f3bc4e3" x="231.952881" y="97.188724" style="fill: #ffffff; stroke: #000000; stroke-width: 0.4"/>
    </g>
   </g>
   <g id="PathCollection_15">
    <path d="M 76.729626 93.546548 
L 81.729626 93.546548 
L 81.729626 88.546548 
L 76.729626 88.546548 
z
" clip-path="url(#p74e291765d)" style="fill: #ffffff; stroke: #000000; stroke-width: 0.4"/>
    <path d="M 78.603659 90.613804 
L 83.603659 90.613804 
L 83.603659 85.613804 
L 78.603659 85.613804 
z
" clip-path="url(#p74e291765d)" style="fill: #ffffff; stroke: #000000; stroke-width: 0.4"/>
    <path d="M 78.616842 92.506317 
L 83.616842 92.506317 
L 83.616842 87.506317 
L 78.616842 87.506317 
z
" clip-path="url(#p74e291765d)" style="fill: #ffffff; stroke: #000000; stroke-width: 0.4"/>
    <path d="M 78.494046 97.306351 
L 83.494046 97.306351 
L 83.494046 92.306351 
L 78.494046 92.306351 
z
" clip-path="url(#p74e291765d)" style="fill: #ffffff; stroke: #000000; stroke-width: 0.4"/>
   </g>
   <g id="PathCollection_16">
    <path d="M 99.441179 91.425265 
L 104.441179 91.425265 
L 104.441179 86.425265 
L 99.441179 86.425265 
z
" clip-path="url(#p74e291765d)" style="fill: #ffffff; stroke: #000000; stroke-width: 0.4"/>
    <path d="M 105.609263 88.104955 
L 110.609263 88.104955 
L 110.609263 83.104955 
L 105.609263 83.104955 
z
" clip-path="url(#p74e291765d)" style="fill: #ffffff; stroke: #000000; stroke-width: 0.4"/>
    <path d="M 99.420155 90.852328 
L 104.420155 90.852328 
L 104.420155 85.852328 
L 99.420155 85.852328 
z
" clip-path="url(#p74e291765d)" style="fill: #ffffff; stroke: #000000; stroke-width: 0.4"/>
    <path d="M 104.585314 95.547799 
L 109.585314 95.547799 
L 109.585314 90.547799 
L 104.585314 90.547799 
z
" clip-path="url(#p74e291765d)" style="fill: #ffffff; stroke: #000000; stroke-width: 0.4"/>
   </g>
   <g id="PathCollection_17">
    <path d="M 138.903608 91.082208 
L 143.903608 91.082208 
L 143.903608 86.082208 
L 138.903608 86.082208 
z
" clip-path="url(#p74e291765d)" style="fill: #ffffff; stroke: #000000; stroke-width: 0.4"/>
    <path d="M 137.556236 87.443999 
L 142.556236 87.443999 
L 142.556236 82.443999 
L 137.556236 82.443999 
z
" clip-path="url(#p74e291765d)" style="fill: #ffffff; stroke: #000000; stroke-width: 0.4"/>
    <path d="M 141.736684 86.044229 
L 146.736684 86.044229 
L 146.736684 81.044229 
L 141.736684 81.044229 
z
" clip-path="url(#p74e291765d)" style="fill: #ffffff; stroke: #000000; stroke-width: 0.4"/>
    <path d="M 141.203823 88.441401 
L 146.203823 88.441401 
L 146.203823 83.441401 
L 141.203823 83.441401 
z
" clip-path="url(#p74e291765d)" style="fill: #ffffff; stroke: #000000; stroke-width: 0.4"/>
   </g>
   <g id="PathCollection_18">
    <path d="M 168.252877 101.23101 
L 173.252877 101.23101 
L 173.252877 96.23101 
L 168.252877 96.23101 
z
" clip-path="url(#p74e291765d)" style="fill: #ffffff; stroke: #000000; stroke-width: 0.4"/>
    <path d="M 165.432478 94.973058 
L 170.432478 94.973058 
L 170.432478 89.973058 
L 165.432478 89.973058 
z
" clip-path="url(#p74e291765d)" style="fill: #ffffff; stroke: #000000; stroke-width: 0.4"/>
    <path d="M 165.136983 93.231236 
L 170.136983 93.231236 
L 170.136983 88.231236 
L 165.136983 88.231236 
z
" clip-path="url(#p74e291765d)" style="fill: #ffffff; stroke: #000000; stroke-width: 0.4"/>
    <path d="M 163.960892 95.340096 
L 168.960892 95.340096 
L 168.960892 90.340096 
L 163.960892 90.340096 
z
" clip-path="url(#p74e291765d)" style="fill: #ffffff; stroke: #000000; stroke-width: 0.4"/>
   </g>
   <g id="PathCollection_19">
    <path d="M 205.784347 101.413858 
L 210.784347 101.413858 
L 210.784347 96.413858 
L 205.784347 96.413858 
z
" clip-path="url(#p74e291765d)" style="fill: #ffffff; stroke: #000000; stroke-width: 0.4"/>
    <path d="M 205.18255 97.644635 
L 210.18255 97.644635 
L 210.18255 92.644635 
L 205.18255 92.644635 
z
" clip-path="url(#p74e291765d)" style="fill: #ffffff; stroke: #000000; stroke-width: 0.4"/>
    <path d="M 204.78692 100.910545 
L 209.78692 100.910545 
L 209.78692 95.910545 
L 204.78692 95.910545 
z
" clip-path="url(#p74e291765d)" style="fill: #ffffff; stroke: #000000; stroke-width: 0.4"/>
    <path d="M 204.828462 101.221418 
L 209.828462 101.221418 
L 209.828462 96.221418 
L 204.828462 96.221418 
z
" clip-path="url(#p74e291765d)" style="fill: #ffffff; stroke: #000000; stroke-width: 0.4"/>
   </g>
   <g id="PathCollection_20">
    <path d="M 231.233244 102.609861 
L 236.233244 102.609861 
L 236.233244 97.609861 
L 231.233244 97.609861 
z
" clip-path="url(#p74e291765d)" style="fill: #ffffff; stroke: #000000; stroke-width: 0.4"/>
    <path d="M 230.443798 99.423027 
L 235.443798 99.423027 
L 235.443798 94.423027 
L 230.443798 94.423027 
z
" clip-path="url(#p74e291765d)" style="fill: #ffffff; stroke: #000000; stroke-width: 0.4"/>
    <path d="M 226.610956 103.249235 
L 231.610956 103.249235 
L 231.610956 98.249235 
L 226.610956 98.249235 
z
" clip-path="url(#p74e291765d)" style="fill: #ffffff; stroke: #000000; stroke-width: 0.4"/>
    <path d="M 228.523745 101.445271 
L 233.523745 101.445271 
L 233.523745 96.445271 
L 228.523745 96.445271 
z
" clip-path="url(#p74e291765d)" style="fill: #ffffff; stroke: #000000; stroke-width: 0.4"/>
   </g>
   <g id="PathCollection_21">
    <path d="M 76.644893 80.658971 
L 74.144893 85.658971 
L 79.144893 85.658971 
z
" clip-path="url(#p74e291765d)" style="fill: #ffffff; stroke: #000000; stroke-width: 0.4"/>
    <path d="M 79.58722 79.472618 
L 77.08722 84.472618 
L 82.08722 84.472618 
z
" clip-path="url(#p74e291765d)" style="fill: #ffffff; stroke: #000000; stroke-width: 0.4"/>
    <path d="M 80.538264 80.556958 
L 78.038264 85.556958 
L 83.038264 85.556958 
z
" clip-path="url(#p74e291765d)" style="fill: #ffffff; stroke: #000000; stroke-width: 0.4"/>
    <path d="M 82.304986 76.725014 
L 79.804986 81.725014 
L 84.804986 81.725014 
z
" clip-path="url(#p74e291765d)" style="fill: #ffffff; stroke: #000000; stroke-width: 0.4"/>
   </g>
   <g id="PathCollection_22">
    <path d="M 106.176417 78.131938 
L 103.676417 83.131938 
L 108.676417 83.131938 
z
" clip-path="url(#p74e291765d)" style="fill: #ffffff; stroke: #000000; stroke-width: 0.4"/>
    <path d="M 106.786572 76.422131 
L 104.286572 81.422131 
L 109.286572 81.422131 
z
" clip-path="url(#p74e291765d)" style="fill: #ffffff; stroke: #000000; stroke-width: 0.4"/>
    <path d="M 102.872654 77.278531 
L 100.372654 82.278531 
L 105.372654 82.278531 
z
" clip-path="url(#p74e291765d)" style="fill: #ffffff; stroke: #000000; stroke-width: 0.4"/>
    <path d="M 103.392898 73.503463 
L 100.892898 78.503463 
L 105.892898 78.503463 
z
" clip-path="url(#p74e291765d)" style="fill: #ffffff; stroke: #000000; stroke-width: 0.4"/>
   </g>
   <g id="PathCollection_23">
    <path d="M 142.189238 77.6039 
L 139.689238 82.6039 
L 144.689238 82.6039 
z
" clip-path="url(#p74e291765d)" style="fill: #ffffff; stroke: #000000; stroke-width: 0.4"/>
    <path d="M 142.974685 75.421872 
L 140.474685 80.421872 
L 145.474685 80.421872 
z
" clip-path="url(#p74e291765d)" style="fill: #ffffff; stroke: #000000; stroke-width: 0.4"/>
    <path d="M 141.011649 74.48419 
L 138.511649 79.48419 
L 143.511649 79.48419 
z
" clip-path="url(#p74e291765d)" style="fill: #ffffff; stroke: #000000; stroke-width: 0.4"/>
    <path d="M 144.169657 75.456177 
L 141.669657 80.456177 
L 146.669657 80.456177 
z
" clip-path="url(#p74e291765d)" style="fill: #ffffff; stroke: #000000; stroke-width: 0.4"/>
   </g>
   <g id="PathCollection_24">
    <path d="M 169.012766 82.562793 
L 166.512766 87.562793 
L 171.512766 87.562793 
z
" clip-path="url(#p74e291765d)" style="fill: #ffffff; stroke: #000000; stroke-width: 0.4"/>
    <path d="M 168.794197 78.99894 
L 166.294197 83.99894 
L 171.294197 83.99894 
z
" clip-path="url(#p74e291765d)" style="fill: #ffffff; stroke: #000000; stroke-width: 0.4"/>
    <path d="M 169.430433 79.070353 
L 166.930433 84.070353 
L 171.930433 84.070353 
z
" clip-path="url(#p74e291765d)" style="fill: #ffffff; stroke: #000000; stroke-width: 0.4"/>
    <path d="M 165.336153 80.612842 
L 162.836153 85.612842 
L 167.836153 85.612842 
z
" clip-path="url(#p74e291765d)" style="fill: #ffffff; stroke: #000000; stroke-width: 0.4"/>
   </g>
   <g id="PathCollection_25">
    <path d="M 205.129615 97.185265 
L 202.629615 102.185265 
L 207.629615 102.185265 
z
" clip-path="url(#p74e291765d)" style="fill: #ffffff; stroke: #000000; stroke-width: 0.4"/>
    <path d="M 209.072464 95.335426 
L 206.572464 100.335426 
L 211.572464 100.335426 
z
" clip-path="url(#p74e291765d)" style="fill: #ffffff; stroke: #000000; stroke-width: 0.4"/>
    <path d="M 206.603231 97.782584 
L 204.103231 102.782584 
L 209.103231 102.782584 
z
" clip-path="url(#p74e291765d)" style="fill: #ffffff; stroke: #000000; stroke-width: 0.4"/>
    <path d="M 209.023945 96.565455 
L 206.523945 101.565455 
L 211.523945 101.565455 
z
" clip-path="url(#p74e291765d)" style="fill: #ffffff; stroke: #000000; stroke-width: 0.4"/>
   </g>
   <g id="PathCollection_26">
    <path d="M 229.306629 96.844924 
L 226.806629 101.844924 
L 231.806629 101.844924 
z
" clip-path="url(#p74e291765d)" style="fill: #ffffff; stroke: #000000; stroke-width: 0.4"/>
    <path d="M 232.344352 95.785433 
L 229.844352 100.785433 
L 234.844352 100.785433 
z
" clip-path="url(#p74e291765d)" style="fill: #ffffff; stroke: #000000; stroke-width: 0.4"/>
    <path d="M 232.161366 99.061976 
L 229.661366 104.061976 
L 234.661366 104.061976 
z
" clip-path="url(#p74e291765d)" style="fill: #ffffff; stroke: #000000; stroke-width: 0.4"/>
    <path d="M 232.772808 95.618623 
L 230.272808 100.618623 
L 235.272808 100.618623 
z
" clip-path="url(#p74e291765d)" style="fill: #ffffff; stroke: #000000; stroke-width: 0.4"/>
   </g>
   <g id="PathCollection_27">
    <path d="M 76.761283 83.819407 
L 80.296817 80.283873 
L 76.761283 76.748339 
L 73.225749 80.283873 
z
" clip-path="url(#p74e291765d)" style="fill: #ffffff; stroke: #000000; stroke-width: 0.4"/>
    <path d="M 76.650636 85.612815 
L 80.18617 82.077281 
L 76.650636 78.541747 
L 73.115102 82.077281 
z
" clip-path="url(#p74e291765d)" style="fill: #ffffff; stroke: #000000; stroke-width: 0.4"/>
    <path d="M 82.227126 86.382298 
L 85.76266 82.846764 
L 82.227126 79.31123 
L 78.691592 82.846764 
z
" clip-path="url(#p74e291765d)" style="fill: #ffffff; stroke: #000000; stroke-width: 0.4"/>
    <path d="M 80.86983 85.721226 
L 84.405364 82.185692 
L 80.86983 78.650158 
L 77.334296 82.185692 
z
" clip-path="url(#p74e291765d)" style="fill: #ffffff; stroke: #000000; stroke-width: 0.4"/>
   </g>
   <g id="PathCollection_28">
    <path d="M 105.157401 81.969597 
L 108.692935 78.434063 
L 105.157401 74.898529 
L 101.621867 78.434063 
z
" clip-path="url(#p74e291765d)" style="fill: #ffffff; stroke: #000000; stroke-width: 0.4"/>
    <path d="M 101.922537 83.49682 
L 105.458071 79.961286 
L 101.922537 76.425752 
L 98.387003 79.961286 
z
" clip-path="url(#p74e291765d)" style="fill: #ffffff; stroke: #000000; stroke-width: 0.4"/>
    <path d="M 104.591968 85.002132 
L 108.127501 81.466598 
L 104.591968 77.931064 
L 101.056434 81.466598 
z
" clip-path="url(#p74e291765d)" style="fill: #ffffff; stroke: #000000; stroke-width: 0.4"/>
    <path d="M 105.18108 83.33442 
L 108.716614 79.798886 
L 105.18108 76.263352 
L 101.645546 79.798886 
z
" clip-path="url(#p74e291765d)" style="fill: #ffffff; stroke: #000000; stroke-width: 0.4"/>
   </g>
   <g id="PathCollection_29">
    <path d="M 142.263636 77.227477 
L 145.79917 73.691943 
L 142.263636 70.156409 
L 138.728102 73.691943 
z
" clip-path="url(#p74e291765d)" style="fill: #ffffff; stroke: #000000; stroke-width: 0.4"/>
    <path d="M 140.903056 83.380771 
L 144.43859 79.845237 
L 140.903056 76.309703 
L 137.367522 79.845237 
z
" clip-path="url(#p74e291765d)" style="fill: #ffffff; stroke: #000000; stroke-width: 0.4"/>
    <path d="M 141.081904 82.652529 
L 144.617437 79.116995 
L 141.081904 75.581461 
L 137.54637 79.116995 
z
" clip-path="url(#p74e291765d)" style="fill: #ffffff; stroke: #000000; stroke-width: 0.4"/>
    <path d="M 140.722926 83.283633 
L 144.258459 79.748099 
L 140.722926 76.212565 
L 137.187392 79.748099 
z
" clip-path="url(#p74e291765d)" style="fill: #ffffff; stroke: #000000; stroke-width: 0.4"/>
   </g>
   <g id="PathCollection_30">
    <path d="M 169.632522 84.050774 
L 173.168056 80.51524 
L 169.632522 76.979706 
L 166.096988 80.51524 
z
" clip-path="url(#p74e291765d)" style="fill: #ffffff; stroke: #000000; stroke-width: 0.4"/>
    <path d="M 165.854228 91.212068 
L 169.389762 87.676534 
L 165.854228 84.141 
L 162.318694 87.676534 
z
" clip-path="url(#p74e291765d)" style="fill: #ffffff; stroke: #000000; stroke-width: 0.4"/>
    <path d="M 168.260191 89.697827 
L 171.795725 86.162293 
L 168.260191 82.626759 
L 164.724658 86.162293 
z
" clip-path="url(#p74e291765d)" style="fill: #ffffff; stroke: #000000; stroke-width: 0.4"/>
    <path d="M 165.97561 93.802497 
L 169.511144 90.266963 
L 165.97561 86.731429 
L 162.440076 90.266963 
z
" clip-path="url(#p74e291765d)" style="fill: #ffffff; stroke: #000000; stroke-width: 0.4"/>
   </g>
   <g id="PathCollection_31">
    <path d="M 207.403796 97.359763 
L 210.93933 93.824229 
L 207.403796 90.288695 
L 203.868263 93.824229 
z
" clip-path="url(#p74e291765d)" style="fill: #ffffff; stroke: #000000; stroke-width: 0.4"/>
    <path d="M 204.37304 95.164833 
L 207.908574 91.629299 
L 204.37304 88.093765 
L 200.837506 91.629299 
z
" clip-path="url(#p74e291765d)" style="fill: #ffffff; stroke: #000000; stroke-width: 0.4"/>
    <path d="M 203.779722 97.995308 
L 207.315256 94.459774 
L 203.779722 90.92424 
L 200.244189 94.459774 
z
" clip-path="url(#p74e291765d)" style="fill: #ffffff; stroke: #000000; stroke-width: 0.4"/>
    <path d="M 206.144623 99.199428 
L 209.680157 95.663895 
L 206.144623 92.128361 
L 202.60909 95.663895 
z
" clip-path="url(#p74e291765d)" style="fill: #ffffff; stroke: #000000; stroke-width: 0.4"/>
   </g>
   <g id="PathCollection_32">
    <path d="M 233.384292 101.467231 
L 236.919826 97.931697 
L 233.384292 94.396163 
L 229.848758 97.931697 
z
" clip-path="url(#p74e291765d)" style="fill: #ffffff; stroke: #000000; stroke-width: 0.4"/>
    <path d="M 231.568573 95.92521 
L 235.104107 92.389676 
L 231.568573 88.854142 
L 228.033039 92.389676 
z
" clip-path="url(#p74e291765d)" style="fill: #ffffff; stroke: #000000; stroke-width: 0.4"/>
    <path d="M 230.34639 99.341417 
L 233.881924 95.805884 
L 230.34639 92.27035 
L 226.810856 95.805884 
z
" clip-path="url(#p74e291765d)" style="fill: #ffffff; stroke: #000000; stroke-width: 0.4"/>
    <path d="M 233.445477 101.113683 
L 236.981011 97.578149 
L 233.445477 94.042616 
L 229.909943 97.578149 
z
" clip-path="url(#p74e291765d)" style="fill: #ffffff; stroke: #000000; stroke-width: 0.4"/>
   </g>
   <g id="text_11">
    <g id="patch_13">
     <path d="M 72.360028 119.309299 
L 87.085028 119.309299 
L 87.085028 107.631174 
L 72.360028 107.631174 
z
" style="fill: #ffffff; opacity: 0.75"/>
    </g>
    <!-- 51 -->
    <g transform="translate(73.360028 116.229612)scale(0.1 -0.1)">
     <use xlink:href="#DejaVuSans-35"/>
     <use xlink:href="#DejaVuSans-31" x="63.623047"/>
    </g>
   </g>
   <g id="text_12">
    <g id="patch_14">
     <path d="M 135.769119 116.35376 
L 150.494119 116.35376 
L 150.494119 104.675635 
L 135.769119 104.675635 
z
" style="fill: #ffffff; opacity: 0.75"/>
    </g>
    <!-- 54 -->
    <g transform="translate(136.769119 113.274073)scale(0.1 -0.1)">
     <use xlink:href="#DejaVuSans-35"/>
     <use xlink:href="#DejaVuSans-34" x="63.623047"/>
    </g>
   </g>
   <g id="text_13">
    <g id="patch_15">
     <path d="M 199.17821 131.918093 
L 213.90321 131.918093 
L 213.90321 120.239968 
L 199.17821 120.239968 
z
" style="fill: #ffffff; opacity: 0.75"/>
    </g>
    <!-- 38 -->
    <g transform="translate(200.17821 128.838405)scale(0.1 -0.1)">
     <defs>
      <path id="DejaVuSans-33" d="M 2597 2516 
Q 3050 2419 3304 2112 
Q 3559 1806 3559 1356 
Q 3559 666 3084 287 
Q 2609 -91 1734 -91 
Q 1441 -91 1130 -33 
Q 819 25 488 141 
L 488 750 
Q 750 597 1062 519 
Q 1375 441 1716 441 
Q 2309 441 2620 675 
Q 2931 909 2931 1356 
Q 2931 1769 2642 2001 
Q 2353 2234 1838 2234 
L 1294 2234 
L 1294 2753 
L 1863 2753 
Q 2328 2753 2575 2939 
Q 2822 3125 2822 3475 
Q 2822 3834 2567 4026 
Q 2313 4219 1838 4219 
Q 1578 4219 1281 4162 
Q 984 4106 628 3988 
L 628 4550 
Q 988 4650 1302 4700 
Q 1616 4750 1894 4750 
Q 2613 4750 3031 4423 
Q 3450 4097 3450 3541 
Q 3450 3153 3228 2886 
Q 3006 2619 2597 2516 
z
" transform="scale(0.015625)"/>
     </defs>
     <use xlink:href="#DejaVuSans-33"/>
     <use xlink:href="#DejaVuSans-38" x="63.623047"/>
    </g>
   </g>
   <g id="text_14">
    <g id="patch_16">
     <path d="M 97.723665 117.009655 
L 112.448665 117.009655 
L 112.448665 105.33153 
L 97.723665 105.33153 
z
" style="fill: #ffffff; opacity: 0.75"/>
    </g>
    <!-- 53 -->
    <g transform="translate(98.723665 113.929967)scale(0.1 -0.1)">
     <use xlink:href="#DejaVuSans-35"/>
     <use xlink:href="#DejaVuSans-33" x="63.623047"/>
    </g>
   </g>
   <g id="text_15">
    <g id="patch_17">
     <path d="M 161.132756 124.043451 
L 175.857756 124.043451 
L 175.857756 112.365326 
L 161.132756 112.365326 
z
" style="fill: #ffffff; opacity: 0.75"/>
    </g>
    <!-- 46 -->
    <g transform="translate(162.132756 120.963764)scale(0.1 -0.1)">
     <use xlink:href="#DejaVuSans-34"/>
     <use xlink:href="#DejaVuSans-36" x="63.623047"/>
    </g>
   </g>
   <g id="text_16">
    <g id="patch_18">
     <path d="M 224.541847 133.473385 
L 239.266847 133.473385 
L 239.266847 121.79526 
L 224.541847 121.79526 
z
" style="fill: #ffffff; opacity: 0.75"/>
    </g>
    <!-- 37 -->
    <g transform="translate(225.541847 130.393697)scale(0.1 -0.1)">
     <defs>
      <path id="DejaVuSans-37" d="M 525 4666 
L 3525 4666 
L 3525 4397 
L 1831 0 
L 1172 0 
L 2766 4134 
L 525 4134 
L 525 4666 
z
" transform="scale(0.015625)"/>
     </defs>
     <use xlink:href="#DejaVuSans-33"/>
     <use xlink:href="#DejaVuSans-37" x="63.623047"/>
    </g>
   </g>
   <g id="text_17">
    <!-- * -->
    <g transform="translate(153.313437 58.751892)scale(0.1 -0.1)">
     <defs>
      <path id="DejaVuSans-2a" d="M 3009 3897 
L 1888 3291 
L 3009 2681 
L 2828 2375 
L 1778 3009 
L 1778 1831 
L 1422 1831 
L 1422 3009 
L 372 2375 
L 191 2681 
L 1313 3291 
L 191 3897 
L 372 4206 
L 1422 3572 
L 1422 4750 
L 1778 4750 
L 1778 3572 
L 2828 4206 
L 3009 3897 
z
" transform="scale(0.015625)"/>
     </defs>
     <use xlink:href="#DejaVuSans-2a"/>
    </g>
   </g>
   <g id="text_18">
    <!-- ns -->
    <g transform="translate(86.630909 56.157334)scale(0.1 -0.1)">
     <defs>
      <path id="DejaVuSans-73" d="M 2834 3397 
L 2834 2853 
Q 2591 2978 2328 3040 
Q 2066 3103 1784 3103 
Q 1356 3103 1142 2972 
Q 928 2841 928 2578 
Q 928 2378 1081 2264 
Q 1234 2150 1697 2047 
L 1894 2003 
Q 2506 1872 2764 1633 
Q 3022 1394 3022 966 
Q 3022 478 2636 193 
Q 2250 -91 1575 -91 
Q 1294 -91 989 -36 
Q 684 19 347 128 
L 347 722 
Q 666 556 975 473 
Q 1284 391 1588 391 
Q 1994 391 2212 530 
Q 2431 669 2431 922 
Q 2431 1156 2273 1281 
Q 2116 1406 1581 1522 
L 1381 1569 
Q 847 1681 609 1914 
Q 372 2147 372 2553 
Q 372 3047 722 3315 
Q 1072 3584 1716 3584 
Q 2034 3584 2315 3537 
Q 2597 3491 2834 3397 
z
" transform="scale(0.015625)"/>
     </defs>
     <use xlink:href="#DejaVuSans-6e"/>
     <use xlink:href="#DejaVuSans-73" x="63.378906"/>
    </g>
   </g>
   <g id="text_19">
    <!-- ns -->
    <g transform="translate(213.449091 75.957389)scale(0.1 -0.1)">
     <use xlink:href="#DejaVuSans-6e"/>
     <use xlink:href="#DejaVuSans-73" x="63.378906"/>
    </g>
   </g>
   <g id="text_20">
    <!-- * -->
    <g transform="translate(197.699801 36.775165)scale(0.1 -0.1)">
     <use xlink:href="#DejaVuSans-2a"/>
    </g>
   </g>
   <g id="text_21">
    <!-- ** -->
    <g transform="translate(163.495256 14.798437)scale(0.1 -0.1)">
     <use xlink:href="#DejaVuSans-2a"/>
     <use xlink:href="#DejaVuSans-2a" x="50"/>
    </g>
   </g>
   <g id="text_22">
    <!-- 4 dpi -->
    <g transform="translate(140.804063 18.864135)scale(0.12 -0.12)">
     <use xlink:href="#DejaVuSans-34"/>
     <use xlink:href="#DejaVuSans-20" x="63.623047"/>
     <use xlink:href="#DejaVuSans-64" x="95.410156"/>
     <use xlink:href="#DejaVuSans-70" x="158.886719"/>
     <use xlink:href="#DejaVuSans-69" x="222.363281"/>
    </g>
   </g>
   <g id="legend_1">
    <g id="patch_19">
     <path d="M 262.463437 41.462572 
L 282.463437 41.462572 
L 282.463437 34.462572 
L 262.463437 34.462572 
z
" style="fill: #d3d3d3; opacity: 0.75"/>
    </g>
    <g id="text_23">
     <!-- Bulk -->
     <g transform="translate(290.463437 41.462572)scale(0.1 -0.1)">
      <defs>
       <path id="DejaVuSans-6c" d="M 603 4863 
L 1178 4863 
L 1178 0 
L 603 0 
L 603 4863 
z
" transform="scale(0.015625)"/>
       <path id="DejaVuSans-6b" d="M 581 4863 
L 1159 4863 
L 1159 1991 
L 2875 3500 
L 3609 3500 
L 1753 1863 
L 3688 0 
L 2938 0 
L 1159 1709 
L 1159 0 
L 581 0 
L 581 4863 
z
" transform="scale(0.015625)"/>
      </defs>
      <use xlink:href="#DejaVuSans-42"/>
      <use xlink:href="#DejaVuSans-75" x="68.603516"/>
      <use xlink:href="#DejaVuSans-6c" x="131.982422"/>
      <use xlink:href="#DejaVuSans-6b" x="159.765625"/>
     </g>
    </g>
    <g id="patch_20">
     <path d="M 262.463437 56.140697 
L 282.463437 56.140697 
L 282.463437 49.140697 
L 262.463437 49.140697 
z
" style="fill: #c03d3e; opacity: 0.75"/>
    </g>
    <g id="text_24">
     <!-- mRuby2+ -->
     <g transform="translate(290.463437 56.140697)scale(0.1 -0.1)">
      <defs>
       <path id="DejaVuSans-2b" d="M 2944 4013 
L 2944 2272 
L 4684 2272 
L 4684 1741 
L 2944 1741 
L 2944 0 
L 2419 0 
L 2419 1741 
L 678 1741 
L 678 2272 
L 2419 2272 
L 2419 4013 
L 2944 4013 
z
" transform="scale(0.015625)"/>
      </defs>
      <use xlink:href="#DejaVuSans-6d"/>
      <use xlink:href="#DejaVuSans-52" x="97.412109"/>
      <use xlink:href="#DejaVuSans-75" x="162.394531"/>
      <use xlink:href="#DejaVuSans-62" x="225.773438"/>
      <use xlink:href="#DejaVuSans-79" x="289.25"/>
      <use xlink:href="#DejaVuSans-32" x="348.429688"/>
      <use xlink:href="#DejaVuSans-2b" x="412.052734"/>
     </g>
    </g>
   </g>
  </g>
 </g>
 <defs>
  <clipPath id="p74e291765d">
   <rect x="58.163438" y="24.864135" width="195.3" height="108.72"/>
  </clipPath>
 </defs>
</svg>
