<?xml version="1.0" encoding="utf-8" standalone="no"?>
<!DOCTYPE svg PUBLIC "-//W3C//DTD SVG 1.1//EN"
  "http://www.w3.org/Graphics/SVG/1.1/DTD/svg11.dtd">
<svg xmlns:xlink="http://www.w3.org/1999/xlink" width="232.763437pt" height="234.152188pt" viewBox="0 0 232.763437 234.152188" xmlns="http://www.w3.org/2000/svg" version="1.1">
 <metadata>
  <rdf:RDF xmlns:dc="http://purl.org/dc/elements/1.1/" xmlns:cc="http://creativecommons.org/ns#" xmlns:rdf="http://www.w3.org/1999/02/22-rdf-syntax-ns#">
   <cc:Work>
    <dc:type rdf:resource="http://purl.org/dc/dcmitype/StillImage"/>
    <dc:date>2025-01-26T16:00:43.756279</dc:date>
    <dc:format>image/svg+xml</dc:format>
    <dc:creator>
     <cc:Agent>
      <dc:title>Matplotlib v3.5.2, https://matplotlib.org/</dc:title>
     </cc:Agent>
    </dc:creator>
   </cc:Work>
  </rdf:RDF>
 </metadata>
 <defs>
  <style type="text/css">*{stroke-linejoin: round; stroke-linecap: butt}</style>
 </defs>
 <g id="figure_1">
  <g id="patch_1">
   <path d="M 0 234.152188 
L 232.763437 234.152188 
L 232.763437 -0 
L 0 -0 
L 0 234.152188 
z
" style="fill: none"/>
  </g>
  <g id="axes_1">
   <g id="patch_2">
    <path d="M 58.163438 185.398125 
L 225.563438 185.398125 
L 225.563438 22.318125 
L 58.163438 22.318125 
z
" style="fill: #ffffff"/>
   </g>
   <g id="PathCollection_1">
    <defs>
     <path id="m700605a539" d="M 0 3 
C 0.795609 3 1.55874 2.683901 2.12132 2.12132 
C 2.683901 1.55874 3 0.795609 3 0 
C 3 -0.795609 2.683901 -1.55874 2.12132 -2.12132 
C 1.55874 -2.683901 0.795609 -3 0 -3 
C -0.795609 -3 -1.55874 -2.683901 -2.12132 -2.12132 
C -2.683901 -1.55874 -3 -0.795609 -3 0 
C -3 0.795609 -2.683901 1.55874 -2.12132 2.12132 
C -1.55874 2.683901 -0.795609 3 0 3 
z
" style="stroke: #068583; stroke-opacity: 0.8"/>
    </defs>
    <g clip-path="url(#p5459ec670e)">
     <use xlink:href="#m700605a539" x="158.253738" y="88.454634" style="fill: #068583; fill-opacity: 0.8; stroke: #068583; stroke-opacity: 0.8"/>
     <use xlink:href="#m700605a539" x="117.093703" y="90.800251" style="fill: #068583; fill-opacity: 0.8; stroke: #068583; stroke-opacity: 0.8"/>
     <use xlink:href="#m700605a539" x="179.011892" y="65.493136" style="fill: #068583; fill-opacity: 0.8; stroke: #068583; stroke-opacity: 0.8"/>
     <use xlink:href="#m700605a539" x="180.404328" y="40.633919" style="fill: #068583; fill-opacity: 0.8; stroke: #068583; stroke-opacity: 0.8"/>
     <use xlink:href="#m700605a539" x="143.396075" y="86.686428" style="fill: #068583; fill-opacity: 0.8; stroke: #068583; stroke-opacity: 0.8"/>
     <use xlink:href="#m700605a539" x="120.644481" y="112.040311" style="fill: #068583; fill-opacity: 0.8; stroke: #068583; stroke-opacity: 0.8"/>
     <use xlink:href="#m700605a539" x="196.90892" y="70.756383" style="fill: #068583; fill-opacity: 0.8; stroke: #068583; stroke-opacity: 0.8"/>
     <use xlink:href="#m700605a539" x="178.48508" y="42.420113" style="fill: #068583; fill-opacity: 0.8; stroke: #068583; stroke-opacity: 0.8"/>
     <use xlink:href="#m700605a539" x="151.053508" y="104.836175" style="fill: #068583; fill-opacity: 0.8; stroke: #068583; stroke-opacity: 0.8"/>
     <use xlink:href="#m700605a539" x="108.248991" y="96.088681" style="fill: #068583; fill-opacity: 0.8; stroke: #068583; stroke-opacity: 0.8"/>
     <use xlink:href="#m700605a539" x="186.097675" y="66.131705" style="fill: #068583; fill-opacity: 0.8; stroke: #068583; stroke-opacity: 0.8"/>
     <use xlink:href="#m700605a539" x="169.668001" y="39.428732" style="fill: #068583; fill-opacity: 0.8; stroke: #068583; stroke-opacity: 0.8"/>
     <use xlink:href="#m700605a539" x="135.679749" y="88.015731" style="fill: #068583; fill-opacity: 0.8; stroke: #068583; stroke-opacity: 0.8"/>
     <use xlink:href="#m700605a539" x="104.007214" y="114.385928" style="fill: #068583; fill-opacity: 0.8; stroke: #068583; stroke-opacity: 0.8"/>
     <use xlink:href="#m700605a539" x="175.89655" y="93.471447" style="fill: #068583; fill-opacity: 0.8; stroke: #068583; stroke-opacity: 0.8"/>
     <use xlink:href="#m700605a539" x="139.199408" y="80.530984" style="fill: #068583; fill-opacity: 0.8; stroke: #068583; stroke-opacity: 0.8"/>
     <use xlink:href="#m700605a539" x="119.991211" y="104.086081" style="fill: #068583; fill-opacity: 0.8; stroke: #068583; stroke-opacity: 0.8"/>
     <use xlink:href="#m700605a539" x="101.712122" y="122.075736" style="fill: #068583; fill-opacity: 0.8; stroke: #068583; stroke-opacity: 0.8"/>
     <use xlink:href="#m700605a539" x="179.706054" y="95.74871" style="fill: #068583; fill-opacity: 0.8; stroke: #068583; stroke-opacity: 0.8"/>
     <use xlink:href="#m700605a539" x="128.131381" y="89.810919" style="fill: #068583; fill-opacity: 0.8; stroke: #068583; stroke-opacity: 0.8"/>
     <use xlink:href="#m700605a539" x="156.399381" y="94.428401" style="fill: #068583; fill-opacity: 0.8; stroke: #068583; stroke-opacity: 0.8"/>
     <use xlink:href="#m700605a539" x="114.631006" y="106.7249" style="fill: #068583; fill-opacity: 0.8; stroke: #068583; stroke-opacity: 0.8"/>
     <use xlink:href="#m700605a539" x="214.666658" y="66.356553" style="fill: #068583; fill-opacity: 0.8; stroke: #068583; stroke-opacity: 0.8"/>
     <use xlink:href="#m700605a539" x="96.001458" y="86.893288" style="fill: #068583; fill-opacity: 0.8; stroke: #068583; stroke-opacity: 0.8"/>
    </g>
   </g>
   <g id="PolyCollection_1">
    <path d="M 96.001458 100.096403 
L 96.001458 119.512311 
L 97.200097 118.718667 
L 98.398735 117.893911 
L 99.597373 117.08752 
L 100.796012 116.365666 
L 101.99465 115.638193 
L 103.193289 114.778543 
L 104.391927 114.017884 
L 105.590565 113.260542 
L 106.789204 112.47815 
L 107.987842 111.771106 
L 109.186481 110.976638 
L 110.385119 110.255869 
L 111.583757 109.662424 
L 112.782396 108.921551 
L 113.981034 108.28145 
L 115.179672 107.497468 
L 116.378311 106.748938 
L 117.576949 105.995433 
L 118.775588 105.359524 
L 119.974226 104.723615 
L 121.172864 103.950029 
L 122.371503 103.410243 
L 123.570141 102.854906 
L 124.76878 102.243593 
L 125.967418 101.572416 
L 127.166056 100.978338 
L 128.364695 100.340101 
L 129.563333 99.705489 
L 130.761971 99.257594 
L 131.96061 98.683866 
L 133.159248 98.076862 
L 134.357887 97.436746 
L 135.556525 96.915784 
L 136.755163 96.377476 
L 137.953802 95.833132 
L 139.15244 95.39786 
L 140.351079 94.784436 
L 141.549717 94.310617 
L 142.748355 93.838887 
L 143.946994 93.365409 
L 145.145632 92.818012 
L 146.34427 92.323121 
L 147.542909 91.741669 
L 148.741547 91.299563 
L 149.940186 90.798514 
L 151.138824 90.327544 
L 152.337462 89.773414 
L 153.536101 89.324132 
L 154.734739 88.826908 
L 155.933378 88.400006 
L 157.132016 87.934978 
L 158.330654 87.545131 
L 159.529293 87.157757 
L 160.727931 86.767687 
L 161.926569 86.383008 
L 163.125208 85.985124 
L 164.323846 85.516648 
L 165.522485 85.092766 
L 166.721123 84.689198 
L 167.919761 84.323156 
L 169.1184 84.011468 
L 170.317038 83.667025 
L 171.515677 83.278503 
L 172.714315 82.871407 
L 173.912953 82.413054 
L 175.111592 82.061276 
L 176.31023 81.603189 
L 177.508868 81.126791 
L 178.707507 80.730248 
L 179.906145 80.290625 
L 181.104784 79.841042 
L 182.303422 79.437353 
L 183.50206 79.043868 
L 184.700699 78.692234 
L 185.899337 78.321455 
L 187.097976 77.932671 
L 188.296614 77.567318 
L 189.495252 77.201506 
L 190.693891 76.835695 
L 191.892529 76.47091 
L 193.091167 76.107207 
L 194.289806 75.742772 
L 195.488444 75.375943 
L 196.687083 74.986096 
L 197.885721 74.556676 
L 199.084359 74.127257 
L 200.282998 73.720206 
L 201.481636 73.371117 
L 202.680275 73.035715 
L 203.878913 72.699858 
L 205.077551 72.363459 
L 206.27619 71.991206 
L 207.474828 71.585216 
L 208.673467 71.138137 
L 209.872105 70.689949 
L 211.070743 70.339782 
L 212.269382 69.965524 
L 213.46802 69.56186 
L 214.666658 69.158196 
L 214.666658 34.750656 
L 214.666658 34.750656 
L 213.46802 35.63561 
L 212.269382 36.586199 
L 211.070743 37.403928 
L 209.872105 38.162278 
L 208.673467 38.926447 
L 207.474828 39.682001 
L 206.27619 40.488728 
L 205.077551 41.349792 
L 203.878913 42.064356 
L 202.680275 42.750138 
L 201.481636 43.459766 
L 200.282998 44.215319 
L 199.084359 44.970873 
L 197.885721 45.726426 
L 196.687083 46.481979 
L 195.488444 47.237532 
L 194.289806 47.993085 
L 193.091167 48.748638 
L 191.892529 49.504191 
L 190.693891 50.332771 
L 189.495252 51.197055 
L 188.296614 52.062353 
L 187.097976 52.928692 
L 185.899337 53.845904 
L 184.700699 54.657099 
L 183.50206 55.519272 
L 182.303422 56.383756 
L 181.104784 57.249319 
L 179.906145 58.114882 
L 178.707507 58.980445 
L 177.508868 59.805385 
L 176.31023 60.697872 
L 175.111592 61.573548 
L 173.912953 62.376501 
L 172.714315 63.053048 
L 171.515677 63.882228 
L 170.317038 64.73425 
L 169.1184 65.508833 
L 167.919761 66.369915 
L 166.721123 67.230996 
L 165.522485 68.043266 
L 164.323846 68.563597 
L 163.125208 69.335972 
L 161.926569 70.140993 
L 160.727931 70.770545 
L 159.529293 71.436796 
L 158.330654 72.091175 
L 157.132016 72.78734 
L 155.933378 73.606362 
L 154.734739 74.207539 
L 153.536101 74.798655 
L 152.337462 75.379908 
L 151.138824 75.988784 
L 149.940186 76.770125 
L 148.741547 77.361427 
L 147.542909 78.033396 
L 146.34427 78.706864 
L 145.145632 79.370606 
L 143.946994 79.950411 
L 142.748355 80.589433 
L 141.549717 81.237423 
L 140.351079 81.838383 
L 139.15244 82.488351 
L 137.953802 83.053648 
L 136.755163 83.6345 
L 135.556525 84.325351 
L 134.357887 84.79933 
L 133.159248 85.342209 
L 131.96061 85.851681 
L 130.761971 86.36182 
L 129.563333 86.87196 
L 128.364695 87.408889 
L 127.166056 87.886624 
L 125.967418 88.396219 
L 124.76878 88.849458 
L 123.570141 89.39119 
L 122.371503 89.932942 
L 121.172864 90.474884 
L 119.974226 91.014568 
L 118.775588 91.553475 
L 117.576949 92.093653 
L 116.378311 92.633831 
L 115.179672 93.054252 
L 113.981034 93.485735 
L 112.782396 94.049895 
L 111.583757 94.617056 
L 110.385119 95.100177 
L 109.186481 95.521342 
L 107.987842 96.028619 
L 106.789204 96.458556 
L 105.590565 96.858407 
L 104.391927 97.298215 
L 103.193289 97.6734 
L 101.99465 98.052661 
L 100.796012 98.474408 
L 99.597373 98.806204 
L 98.398735 99.181369 
L 97.200097 99.630322 
L 96.001458 100.096403 
z
" clip-path="url(#p5459ec670e)" style="fill: #068583; fill-opacity: 0.15"/>
   </g>
   <g id="PathCollection_2">
    <defs>
     <path id="m73e670369b" d="M 0 3.162278 
C 0.838646 3.162278 1.643056 2.82908 2.236068 2.236068 
C 2.82908 1.643056 3.162278 0.838646 3.162278 0 
C 3.162278 -0.838646 2.82908 -1.643056 2.236068 -2.236068 
C 1.643056 -2.82908 0.838646 -3.162278 0 -3.162278 
C -0.838646 -3.162278 -1.643056 -2.82908 -2.236068 -2.236068 
C -2.82908 -1.643056 -3.162278 -0.838646 -3.162278 0 
C -3.162278 0.838646 -2.82908 1.643056 -2.236068 2.236068 
C -1.643056 2.82908 -0.838646 3.162278 0 3.162278 
z
" style="stroke: #068583; stroke-width: 2"/>
    </defs>
    <g clip-path="url(#p5459ec670e)">
     <use xlink:href="#m73e670369b" x="69.75271" y="177.449553" style="fill: #ffffff; stroke: #068583; stroke-width: 2"/>
     <use xlink:href="#m73e670369b" x="67.046206" y="176.219184" style="fill: #ffffff; stroke: #068583; stroke-width: 2"/>
     <use xlink:href="#m73e670369b" x="67.679309" y="177.877664" style="fill: #ffffff; stroke: #068583; stroke-width: 2"/>
     <use xlink:href="#m73e670369b" x="65.8083" y="177.960408" style="fill: #ffffff; stroke: #068583; stroke-width: 2"/>
    </g>
   </g>
   <g id="matplotlib.axis_1">
    <g id="xtick_1">
     <g id="line2d_1">
      <defs>
       <path id="me30846c6a7" d="M 0 0 
L 0 3.5 
" style="stroke: #000000; stroke-width: 0.8"/>
      </defs>
      <g>
       <use xlink:href="#me30846c6a7" x="58.872961" y="185.398125" style="stroke: #000000; stroke-width: 0.8"/>
      </g>
     </g>
     <g id="text_1">
      <!-- 0 -->
      <g transform="translate(55.691711 199.996563)scale(0.1 -0.1)">
       <defs>
        <path id="DejaVuSans-30" d="M 2034 4250 
Q 1547 4250 1301 3770 
Q 1056 3291 1056 2328 
Q 1056 1369 1301 889 
Q 1547 409 2034 409 
Q 2525 409 2770 889 
Q 3016 1369 3016 2328 
Q 3016 3291 2770 3770 
Q 2525 4250 2034 4250 
z
M 2034 4750 
Q 2819 4750 3233 4129 
Q 3647 3509 3647 2328 
Q 3647 1150 3233 529 
Q 2819 -91 2034 -91 
Q 1250 -91 836 529 
Q 422 1150 422 2328 
Q 422 3509 836 4129 
Q 1250 4750 2034 4750 
z
" transform="scale(0.015625)"/>
       </defs>
       <use xlink:href="#DejaVuSans-30"/>
      </g>
     </g>
    </g>
    <g id="xtick_2">
     <g id="line2d_2">
      <g>
       <use xlink:href="#me30846c6a7" x="104.851535" y="185.398125" style="stroke: #000000; stroke-width: 0.8"/>
      </g>
     </g>
     <g id="text_2">
      <!-- 1000 -->
      <g transform="translate(92.126535 199.996563)scale(0.1 -0.1)">
       <defs>
        <path id="DejaVuSans-31" d="M 794 531 
L 1825 531 
L 1825 4091 
L 703 3866 
L 703 4441 
L 1819 4666 
L 2450 4666 
L 2450 531 
L 3481 531 
L 3481 0 
L 794 0 
L 794 531 
z
" transform="scale(0.015625)"/>
       </defs>
       <use xlink:href="#DejaVuSans-31"/>
       <use xlink:href="#DejaVuSans-30" x="63.623047"/>
       <use xlink:href="#DejaVuSans-30" x="127.246094"/>
       <use xlink:href="#DejaVuSans-30" x="190.869141"/>
      </g>
     </g>
    </g>
    <g id="xtick_3">
     <g id="line2d_3">
      <g>
       <use xlink:href="#me30846c6a7" x="150.830109" y="185.398125" style="stroke: #000000; stroke-width: 0.8"/>
      </g>
     </g>
     <g id="text_3">
      <!-- 2000 -->
      <g transform="translate(138.105109 199.996563)scale(0.1 -0.1)">
       <defs>
        <path id="DejaVuSans-32" d="M 1228 531 
L 3431 531 
L 3431 0 
L 469 0 
L 469 531 
Q 828 903 1448 1529 
Q 2069 2156 2228 2338 
Q 2531 2678 2651 2914 
Q 2772 3150 2772 3378 
Q 2772 3750 2511 3984 
Q 2250 4219 1831 4219 
Q 1534 4219 1204 4116 
Q 875 4013 500 3803 
L 500 4441 
Q 881 4594 1212 4672 
Q 1544 4750 1819 4750 
Q 2544 4750 2975 4387 
Q 3406 4025 3406 3419 
Q 3406 3131 3298 2873 
Q 3191 2616 2906 2266 
Q 2828 2175 2409 1742 
Q 1991 1309 1228 531 
z
" transform="scale(0.015625)"/>
       </defs>
       <use xlink:href="#DejaVuSans-32"/>
       <use xlink:href="#DejaVuSans-30" x="63.623047"/>
       <use xlink:href="#DejaVuSans-30" x="127.246094"/>
       <use xlink:href="#DejaVuSans-30" x="190.869141"/>
      </g>
     </g>
    </g>
    <g id="xtick_4">
     <g id="line2d_4">
      <g>
       <use xlink:href="#me30846c6a7" x="196.808683" y="185.398125" style="stroke: #000000; stroke-width: 0.8"/>
      </g>
     </g>
     <g id="text_4">
      <!-- 3000 -->
      <g transform="translate(184.083683 199.996563)scale(0.1 -0.1)">
       <defs>
        <path id="DejaVuSans-33" d="M 2597 2516 
Q 3050 2419 3304 2112 
Q 3559 1806 3559 1356 
Q 3559 666 3084 287 
Q 2609 -91 1734 -91 
Q 1441 -91 1130 -33 
Q 819 25 488 141 
L 488 750 
Q 750 597 1062 519 
Q 1375 441 1716 441 
Q 2309 441 2620 675 
Q 2931 909 2931 1356 
Q 2931 1769 2642 2001 
Q 2353 2234 1838 2234 
L 1294 2234 
L 1294 2753 
L 1863 2753 
Q 2328 2753 2575 2939 
Q 2822 3125 2822 3475 
Q 2822 3834 2567 4026 
Q 2313 4219 1838 4219 
Q 1578 4219 1281 4162 
Q 984 4106 628 3988 
L 628 4550 
Q 988 4650 1302 4700 
Q 1616 4750 1894 4750 
Q 2613 4750 3031 4423 
Q 3450 4097 3450 3541 
Q 3450 3153 3228 2886 
Q 3006 2619 2597 2516 
z
" transform="scale(0.015625)"/>
       </defs>
       <use xlink:href="#DejaVuSans-33"/>
       <use xlink:href="#DejaVuSans-30" x="63.623047"/>
       <use xlink:href="#DejaVuSans-30" x="127.246094"/>
       <use xlink:href="#DejaVuSans-30" x="190.869141"/>
      </g>
     </g>
    </g>
    <g id="text_5">
     <!-- mRuby2, 4 dpi -->
     <g transform="translate(105.574375 213.674688)scale(0.1 -0.1)">
      <defs>
       <path id="DejaVuSans-6d" d="M 3328 2828 
Q 3544 3216 3844 3400 
Q 4144 3584 4550 3584 
Q 5097 3584 5394 3201 
Q 5691 2819 5691 2113 
L 5691 0 
L 5113 0 
L 5113 2094 
Q 5113 2597 4934 2840 
Q 4756 3084 4391 3084 
Q 3944 3084 3684 2787 
Q 3425 2491 3425 1978 
L 3425 0 
L 2847 0 
L 2847 2094 
Q 2847 2600 2669 2842 
Q 2491 3084 2119 3084 
Q 1678 3084 1418 2786 
Q 1159 2488 1159 1978 
L 1159 0 
L 581 0 
L 581 3500 
L 1159 3500 
L 1159 2956 
Q 1356 3278 1631 3431 
Q 1906 3584 2284 3584 
Q 2666 3584 2933 3390 
Q 3200 3197 3328 2828 
z
" transform="scale(0.015625)"/>
       <path id="DejaVuSans-52" d="M 2841 2188 
Q 3044 2119 3236 1894 
Q 3428 1669 3622 1275 
L 4263 0 
L 3584 0 
L 2988 1197 
Q 2756 1666 2539 1819 
Q 2322 1972 1947 1972 
L 1259 1972 
L 1259 0 
L 628 0 
L 628 4666 
L 2053 4666 
Q 2853 4666 3247 4331 
Q 3641 3997 3641 3322 
Q 3641 2881 3436 2590 
Q 3231 2300 2841 2188 
z
M 1259 4147 
L 1259 2491 
L 2053 2491 
Q 2509 2491 2742 2702 
Q 2975 2913 2975 3322 
Q 2975 3731 2742 3939 
Q 2509 4147 2053 4147 
L 1259 4147 
z
" transform="scale(0.015625)"/>
       <path id="DejaVuSans-75" d="M 544 1381 
L 544 3500 
L 1119 3500 
L 1119 1403 
Q 1119 906 1312 657 
Q 1506 409 1894 409 
Q 2359 409 2629 706 
Q 2900 1003 2900 1516 
L 2900 3500 
L 3475 3500 
L 3475 0 
L 2900 0 
L 2900 538 
Q 2691 219 2414 64 
Q 2138 -91 1772 -91 
Q 1169 -91 856 284 
Q 544 659 544 1381 
z
M 1991 3584 
L 1991 3584 
z
" transform="scale(0.015625)"/>
       <path id="DejaVuSans-62" d="M 3116 1747 
Q 3116 2381 2855 2742 
Q 2594 3103 2138 3103 
Q 1681 3103 1420 2742 
Q 1159 2381 1159 1747 
Q 1159 1113 1420 752 
Q 1681 391 2138 391 
Q 2594 391 2855 752 
Q 3116 1113 3116 1747 
z
M 1159 2969 
Q 1341 3281 1617 3432 
Q 1894 3584 2278 3584 
Q 2916 3584 3314 3078 
Q 3713 2572 3713 1747 
Q 3713 922 3314 415 
Q 2916 -91 2278 -91 
Q 1894 -91 1617 61 
Q 1341 213 1159 525 
L 1159 0 
L 581 0 
L 581 4863 
L 1159 4863 
L 1159 2969 
z
" transform="scale(0.015625)"/>
       <path id="DejaVuSans-79" d="M 2059 -325 
Q 1816 -950 1584 -1140 
Q 1353 -1331 966 -1331 
L 506 -1331 
L 506 -850 
L 844 -850 
Q 1081 -850 1212 -737 
Q 1344 -625 1503 -206 
L 1606 56 
L 191 3500 
L 800 3500 
L 1894 763 
L 2988 3500 
L 3597 3500 
L 2059 -325 
z
" transform="scale(0.015625)"/>
       <path id="DejaVuSans-2c" d="M 750 794 
L 1409 794 
L 1409 256 
L 897 -744 
L 494 -744 
L 750 256 
L 750 794 
z
" transform="scale(0.015625)"/>
       <path id="DejaVuSans-20" transform="scale(0.015625)"/>
       <path id="DejaVuSans-34" d="M 2419 4116 
L 825 1625 
L 2419 1625 
L 2419 4116 
z
M 2253 4666 
L 3047 4666 
L 3047 1625 
L 3713 1625 
L 3713 1100 
L 3047 1100 
L 3047 0 
L 2419 0 
L 2419 1100 
L 313 1100 
L 313 1709 
L 2253 4666 
z
" transform="scale(0.015625)"/>
       <path id="DejaVuSans-64" d="M 2906 2969 
L 2906 4863 
L 3481 4863 
L 3481 0 
L 2906 0 
L 2906 525 
Q 2725 213 2448 61 
Q 2172 -91 1784 -91 
Q 1150 -91 751 415 
Q 353 922 353 1747 
Q 353 2572 751 3078 
Q 1150 3584 1784 3584 
Q 2172 3584 2448 3432 
Q 2725 3281 2906 2969 
z
M 947 1747 
Q 947 1113 1208 752 
Q 1469 391 1925 391 
Q 2381 391 2643 752 
Q 2906 1113 2906 1747 
Q 2906 2381 2643 2742 
Q 2381 3103 1925 3103 
Q 1469 3103 1208 2742 
Q 947 2381 947 1747 
z
" transform="scale(0.015625)"/>
       <path id="DejaVuSans-70" d="M 1159 525 
L 1159 -1331 
L 581 -1331 
L 581 3500 
L 1159 3500 
L 1159 2969 
Q 1341 3281 1617 3432 
Q 1894 3584 2278 3584 
Q 2916 3584 3314 3078 
Q 3713 2572 3713 1747 
Q 3713 922 3314 415 
Q 2916 -91 2278 -91 
Q 1894 -91 1617 61 
Q 1341 213 1159 525 
z
M 3116 1747 
Q 3116 2381 2855 2742 
Q 2594 3103 2138 3103 
Q 1681 3103 1420 2742 
Q 1159 2381 1159 1747 
Q 1159 1113 1420 752 
Q 1681 391 2138 391 
Q 2594 391 2855 752 
Q 3116 1113 3116 1747 
z
" transform="scale(0.015625)"/>
       <path id="DejaVuSans-69" d="M 603 3500 
L 1178 3500 
L 1178 0 
L 603 0 
L 603 3500 
z
M 603 4863 
L 1178 4863 
L 1178 4134 
L 603 4134 
L 603 4863 
z
" transform="scale(0.015625)"/>
      </defs>
      <use xlink:href="#DejaVuSans-6d"/>
      <use xlink:href="#DejaVuSans-52" x="97.412109"/>
      <use xlink:href="#DejaVuSans-75" x="162.394531"/>
      <use xlink:href="#DejaVuSans-62" x="225.773438"/>
      <use xlink:href="#DejaVuSans-79" x="289.25"/>
      <use xlink:href="#DejaVuSans-32" x="348.429688"/>
      <use xlink:href="#DejaVuSans-2c" x="412.052734"/>
      <use xlink:href="#DejaVuSans-20" x="443.839844"/>
      <use xlink:href="#DejaVuSans-34" x="475.626953"/>
      <use xlink:href="#DejaVuSans-20" x="539.25"/>
      <use xlink:href="#DejaVuSans-64" x="571.037109"/>
      <use xlink:href="#DejaVuSans-70" x="634.513672"/>
      <use xlink:href="#DejaVuSans-69" x="697.990234"/>
     </g>
     <!-- (gmean) -->
     <g transform="translate(120.607969 224.8725)scale(0.1 -0.1)">
      <defs>
       <path id="DejaVuSans-28" d="M 1984 4856 
Q 1566 4138 1362 3434 
Q 1159 2731 1159 2009 
Q 1159 1288 1364 580 
Q 1569 -128 1984 -844 
L 1484 -844 
Q 1016 -109 783 600 
Q 550 1309 550 2009 
Q 550 2706 781 3412 
Q 1013 4119 1484 4856 
L 1984 4856 
z
" transform="scale(0.015625)"/>
       <path id="DejaVuSans-67" d="M 2906 1791 
Q 2906 2416 2648 2759 
Q 2391 3103 1925 3103 
Q 1463 3103 1205 2759 
Q 947 2416 947 1791 
Q 947 1169 1205 825 
Q 1463 481 1925 481 
Q 2391 481 2648 825 
Q 2906 1169 2906 1791 
z
M 3481 434 
Q 3481 -459 3084 -895 
Q 2688 -1331 1869 -1331 
Q 1566 -1331 1297 -1286 
Q 1028 -1241 775 -1147 
L 775 -588 
Q 1028 -725 1275 -790 
Q 1522 -856 1778 -856 
Q 2344 -856 2625 -561 
Q 2906 -266 2906 331 
L 2906 616 
Q 2728 306 2450 153 
Q 2172 0 1784 0 
Q 1141 0 747 490 
Q 353 981 353 1791 
Q 353 2603 747 3093 
Q 1141 3584 1784 3584 
Q 2172 3584 2450 3431 
Q 2728 3278 2906 2969 
L 2906 3500 
L 3481 3500 
L 3481 434 
z
" transform="scale(0.015625)"/>
       <path id="DejaVuSans-65" d="M 3597 1894 
L 3597 1613 
L 953 1613 
Q 991 1019 1311 708 
Q 1631 397 2203 397 
Q 2534 397 2845 478 
Q 3156 559 3463 722 
L 3463 178 
Q 3153 47 2828 -22 
Q 2503 -91 2169 -91 
Q 1331 -91 842 396 
Q 353 884 353 1716 
Q 353 2575 817 3079 
Q 1281 3584 2069 3584 
Q 2775 3584 3186 3129 
Q 3597 2675 3597 1894 
z
M 3022 2063 
Q 3016 2534 2758 2815 
Q 2500 3097 2075 3097 
Q 1594 3097 1305 2825 
Q 1016 2553 972 2059 
L 3022 2063 
z
" transform="scale(0.015625)"/>
       <path id="DejaVuSans-61" d="M 2194 1759 
Q 1497 1759 1228 1600 
Q 959 1441 959 1056 
Q 959 750 1161 570 
Q 1363 391 1709 391 
Q 2188 391 2477 730 
Q 2766 1069 2766 1631 
L 2766 1759 
L 2194 1759 
z
M 3341 1997 
L 3341 0 
L 2766 0 
L 2766 531 
Q 2569 213 2275 61 
Q 1981 -91 1556 -91 
Q 1019 -91 701 211 
Q 384 513 384 1019 
Q 384 1609 779 1909 
Q 1175 2209 1959 2209 
L 2766 2209 
L 2766 2266 
Q 2766 2663 2505 2880 
Q 2244 3097 1772 3097 
Q 1472 3097 1187 3025 
Q 903 2953 641 2809 
L 641 3341 
Q 956 3463 1253 3523 
Q 1550 3584 1831 3584 
Q 2591 3584 2966 3190 
Q 3341 2797 3341 1997 
z
" transform="scale(0.015625)"/>
       <path id="DejaVuSans-6e" d="M 3513 2113 
L 3513 0 
L 2938 0 
L 2938 2094 
Q 2938 2591 2744 2837 
Q 2550 3084 2163 3084 
Q 1697 3084 1428 2787 
Q 1159 2491 1159 1978 
L 1159 0 
L 581 0 
L 581 3500 
L 1159 3500 
L 1159 2956 
Q 1366 3272 1645 3428 
Q 1925 3584 2291 3584 
Q 2894 3584 3203 3211 
Q 3513 2838 3513 2113 
z
" transform="scale(0.015625)"/>
       <path id="DejaVuSans-29" d="M 513 4856 
L 1013 4856 
Q 1481 4119 1714 3412 
Q 1947 2706 1947 2009 
Q 1947 1309 1714 600 
Q 1481 -109 1013 -844 
L 513 -844 
Q 928 -128 1133 580 
Q 1338 1288 1338 2009 
Q 1338 2731 1133 3434 
Q 928 4138 513 4856 
z
" transform="scale(0.015625)"/>
      </defs>
      <use xlink:href="#DejaVuSans-28"/>
      <use xlink:href="#DejaVuSans-67" x="39.013672"/>
      <use xlink:href="#DejaVuSans-6d" x="102.490234"/>
      <use xlink:href="#DejaVuSans-65" x="199.902344"/>
      <use xlink:href="#DejaVuSans-61" x="261.425781"/>
      <use xlink:href="#DejaVuSans-6e" x="322.705078"/>
      <use xlink:href="#DejaVuSans-29" x="386.083984"/>
     </g>
    </g>
   </g>
   <g id="matplotlib.axis_2">
    <g id="ytick_1">
     <g id="line2d_5">
      <defs>
       <path id="m7db6991bf8" d="M 0 0 
L -3.5 0 
" style="stroke: #000000; stroke-width: 0.8"/>
      </defs>
      <g>
       <use xlink:href="#m7db6991bf8" x="58.163438" y="178.012573" style="stroke: #000000; stroke-width: 0.8"/>
      </g>
     </g>
     <g id="text_6">
      <!-- 0 -->
      <g transform="translate(44.800938 181.811792)scale(0.1 -0.1)">
       <use xlink:href="#DejaVuSans-30"/>
      </g>
     </g>
    </g>
    <g id="ytick_2">
     <g id="line2d_6">
      <g>
       <use xlink:href="#m7db6991bf8" x="58.163438" y="151.030789" style="stroke: #000000; stroke-width: 0.8"/>
      </g>
     </g>
     <g id="text_7">
      <!-- 50 -->
      <g transform="translate(38.438437 154.830007)scale(0.1 -0.1)">
       <defs>
        <path id="DejaVuSans-35" d="M 691 4666 
L 3169 4666 
L 3169 4134 
L 1269 4134 
L 1269 2991 
Q 1406 3038 1543 3061 
Q 1681 3084 1819 3084 
Q 2600 3084 3056 2656 
Q 3513 2228 3513 1497 
Q 3513 744 3044 326 
Q 2575 -91 1722 -91 
Q 1428 -91 1123 -41 
Q 819 9 494 109 
L 494 744 
Q 775 591 1075 516 
Q 1375 441 1709 441 
Q 2250 441 2565 725 
Q 2881 1009 2881 1497 
Q 2881 1984 2565 2268 
Q 2250 2553 1709 2553 
Q 1456 2553 1204 2497 
Q 953 2441 691 2322 
L 691 4666 
z
" transform="scale(0.015625)"/>
       </defs>
       <use xlink:href="#DejaVuSans-35"/>
       <use xlink:href="#DejaVuSans-30" x="63.623047"/>
      </g>
     </g>
    </g>
    <g id="ytick_3">
     <g id="line2d_7">
      <g>
       <use xlink:href="#m7db6991bf8" x="58.163438" y="124.049004" style="stroke: #000000; stroke-width: 0.8"/>
      </g>
     </g>
     <g id="text_8">
      <!-- 100 -->
      <g transform="translate(32.075937 127.848223)scale(0.1 -0.1)">
       <use xlink:href="#DejaVuSans-31"/>
       <use xlink:href="#DejaVuSans-30" x="63.623047"/>
       <use xlink:href="#DejaVuSans-30" x="127.246094"/>
      </g>
     </g>
    </g>
    <g id="ytick_4">
     <g id="line2d_8">
      <g>
       <use xlink:href="#m7db6991bf8" x="58.163438" y="97.06722" style="stroke: #000000; stroke-width: 0.8"/>
      </g>
     </g>
     <g id="text_9">
      <!-- 150 -->
      <g transform="translate(32.075937 100.866439)scale(0.1 -0.1)">
       <use xlink:href="#DejaVuSans-31"/>
       <use xlink:href="#DejaVuSans-35" x="63.623047"/>
       <use xlink:href="#DejaVuSans-30" x="127.246094"/>
      </g>
     </g>
    </g>
    <g id="ytick_5">
     <g id="line2d_9">
      <g>
       <use xlink:href="#m7db6991bf8" x="58.163438" y="70.085436" style="stroke: #000000; stroke-width: 0.8"/>
      </g>
     </g>
     <g id="text_10">
      <!-- 200 -->
      <g transform="translate(32.075937 73.884654)scale(0.1 -0.1)">
       <use xlink:href="#DejaVuSans-32"/>
       <use xlink:href="#DejaVuSans-30" x="63.623047"/>
       <use xlink:href="#DejaVuSans-30" x="127.246094"/>
      </g>
     </g>
    </g>
    <g id="ytick_6">
     <g id="line2d_10">
      <g>
       <use xlink:href="#m7db6991bf8" x="58.163438" y="43.103651" style="stroke: #000000; stroke-width: 0.8"/>
      </g>
     </g>
     <g id="text_11">
      <!-- 250 -->
      <g transform="translate(32.075937 46.90287)scale(0.1 -0.1)">
       <use xlink:href="#DejaVuSans-32"/>
       <use xlink:href="#DejaVuSans-35" x="63.623047"/>
       <use xlink:href="#DejaVuSans-30" x="127.246094"/>
      </g>
     </g>
    </g>
    <g id="text_12">
     <!-- (%) iMN yield -->
     <g transform="translate(14.798437 137.120625)rotate(-90)scale(0.1 -0.1)">
      <defs>
       <path id="DejaVuSans-25" d="M 4653 2053 
Q 4381 2053 4226 1822 
Q 4072 1591 4072 1178 
Q 4072 772 4226 539 
Q 4381 306 4653 306 
Q 4919 306 5073 539 
Q 5228 772 5228 1178 
Q 5228 1588 5073 1820 
Q 4919 2053 4653 2053 
z
M 4653 2450 
Q 5147 2450 5437 2106 
Q 5728 1763 5728 1178 
Q 5728 594 5436 251 
Q 5144 -91 4653 -91 
Q 4153 -91 3862 251 
Q 3572 594 3572 1178 
Q 3572 1766 3864 2108 
Q 4156 2450 4653 2450 
z
M 1428 4353 
Q 1159 4353 1004 4120 
Q 850 3888 850 3481 
Q 850 3069 1003 2837 
Q 1156 2606 1428 2606 
Q 1700 2606 1854 2837 
Q 2009 3069 2009 3481 
Q 2009 3884 1853 4118 
Q 1697 4353 1428 4353 
z
M 4250 4750 
L 4750 4750 
L 1831 -91 
L 1331 -91 
L 4250 4750 
z
M 1428 4750 
Q 1922 4750 2215 4408 
Q 2509 4066 2509 3481 
Q 2509 2891 2217 2550 
Q 1925 2209 1428 2209 
Q 931 2209 642 2551 
Q 353 2894 353 3481 
Q 353 4063 643 4406 
Q 934 4750 1428 4750 
z
" transform="scale(0.015625)"/>
       <path id="DejaVuSans-4d" d="M 628 4666 
L 1569 4666 
L 2759 1491 
L 3956 4666 
L 4897 4666 
L 4897 0 
L 4281 0 
L 4281 4097 
L 3078 897 
L 2444 897 
L 1241 4097 
L 1241 0 
L 628 0 
L 628 4666 
z
" transform="scale(0.015625)"/>
       <path id="DejaVuSans-4e" d="M 628 4666 
L 1478 4666 
L 3547 763 
L 3547 4666 
L 4159 4666 
L 4159 0 
L 3309 0 
L 1241 3903 
L 1241 0 
L 628 0 
L 628 4666 
z
" transform="scale(0.015625)"/>
       <path id="DejaVuSans-6c" d="M 603 4863 
L 1178 4863 
L 1178 0 
L 603 0 
L 603 4863 
z
" transform="scale(0.015625)"/>
      </defs>
      <use xlink:href="#DejaVuSans-28"/>
      <use xlink:href="#DejaVuSans-25" x="39.013672"/>
      <use xlink:href="#DejaVuSans-29" x="134.033203"/>
      <use xlink:href="#DejaVuSans-20" x="173.046875"/>
      <use xlink:href="#DejaVuSans-69" x="204.833984"/>
      <use xlink:href="#DejaVuSans-4d" x="232.617188"/>
      <use xlink:href="#DejaVuSans-4e" x="318.896484"/>
      <use xlink:href="#DejaVuSans-20" x="393.701172"/>
      <use xlink:href="#DejaVuSans-79" x="425.488281"/>
      <use xlink:href="#DejaVuSans-69" x="484.667969"/>
      <use xlink:href="#DejaVuSans-65" x="512.451172"/>
      <use xlink:href="#DejaVuSans-6c" x="573.974609"/>
      <use xlink:href="#DejaVuSans-64" x="601.757812"/>
     </g>
     <!-- per MEF plated -->
     <g transform="translate(25.99625 141.53)rotate(-90)scale(0.1 -0.1)">
      <defs>
       <path id="DejaVuSans-72" d="M 2631 2963 
Q 2534 3019 2420 3045 
Q 2306 3072 2169 3072 
Q 1681 3072 1420 2755 
Q 1159 2438 1159 1844 
L 1159 0 
L 581 0 
L 581 3500 
L 1159 3500 
L 1159 2956 
Q 1341 3275 1631 3429 
Q 1922 3584 2338 3584 
Q 2397 3584 2469 3576 
Q 2541 3569 2628 3553 
L 2631 2963 
z
" transform="scale(0.015625)"/>
       <path id="DejaVuSans-45" d="M 628 4666 
L 3578 4666 
L 3578 4134 
L 1259 4134 
L 1259 2753 
L 3481 2753 
L 3481 2222 
L 1259 2222 
L 1259 531 
L 3634 531 
L 3634 0 
L 628 0 
L 628 4666 
z
" transform="scale(0.015625)"/>
       <path id="DejaVuSans-46" d="M 628 4666 
L 3309 4666 
L 3309 4134 
L 1259 4134 
L 1259 2759 
L 3109 2759 
L 3109 2228 
L 1259 2228 
L 1259 0 
L 628 0 
L 628 4666 
z
" transform="scale(0.015625)"/>
       <path id="DejaVuSans-74" d="M 1172 4494 
L 1172 3500 
L 2356 3500 
L 2356 3053 
L 1172 3053 
L 1172 1153 
Q 1172 725 1289 603 
Q 1406 481 1766 481 
L 2356 481 
L 2356 0 
L 1766 0 
Q 1100 0 847 248 
Q 594 497 594 1153 
L 594 3053 
L 172 3053 
L 172 3500 
L 594 3500 
L 594 4494 
L 1172 4494 
z
" transform="scale(0.015625)"/>
      </defs>
      <use xlink:href="#DejaVuSans-70"/>
      <use xlink:href="#DejaVuSans-65" x="63.476562"/>
      <use xlink:href="#DejaVuSans-72" x="125"/>
      <use xlink:href="#DejaVuSans-20" x="166.113281"/>
      <use xlink:href="#DejaVuSans-4d" x="197.900391"/>
      <use xlink:href="#DejaVuSans-45" x="284.179688"/>
      <use xlink:href="#DejaVuSans-46" x="347.363281"/>
      <use xlink:href="#DejaVuSans-20" x="404.882812"/>
      <use xlink:href="#DejaVuSans-70" x="436.669922"/>
      <use xlink:href="#DejaVuSans-6c" x="500.146484"/>
      <use xlink:href="#DejaVuSans-61" x="527.929688"/>
      <use xlink:href="#DejaVuSans-74" x="589.208984"/>
      <use xlink:href="#DejaVuSans-65" x="628.417969"/>
      <use xlink:href="#DejaVuSans-64" x="689.941406"/>
     </g>
    </g>
   </g>
   <g id="line2d_11">
    <path d="M 96.001458 109.19763 
L 97.200097 108.647341 
L 98.398735 108.097052 
L 99.597373 107.546764 
L 100.796012 106.996475 
L 101.99465 106.446187 
L 103.193289 105.895898 
L 104.391927 105.345609 
L 105.590565 104.795321 
L 106.789204 104.245032 
L 107.987842 103.694744 
L 109.186481 103.144455 
L 110.385119 102.594166 
L 111.583757 102.043878 
L 112.782396 101.493589 
L 113.981034 100.943301 
L 115.179672 100.393012 
L 116.378311 99.842723 
L 117.576949 99.292435 
L 118.775588 98.742146 
L 119.974226 98.191858 
L 121.172864 97.641569 
L 122.371503 97.09128 
L 123.570141 96.540992 
L 124.76878 95.990703 
L 125.967418 95.440415 
L 127.166056 94.890126 
L 128.364695 94.339837 
L 129.563333 93.789549 
L 130.761971 93.23926 
L 131.96061 92.688972 
L 133.159248 92.138683 
L 134.357887 91.588394 
L 135.556525 91.038106 
L 136.755163 90.487817 
L 137.953802 89.937529 
L 139.15244 89.38724 
L 140.351079 88.836951 
L 141.549717 88.286663 
L 142.748355 87.736374 
L 143.946994 87.186086 
L 145.145632 86.635797 
L 146.34427 86.085508 
L 147.542909 85.53522 
L 148.741547 84.984931 
L 149.940186 84.434643 
L 151.138824 83.884354 
L 152.337462 83.334065 
L 153.536101 82.783777 
L 154.734739 82.233488 
L 155.933378 81.6832 
L 157.132016 81.132911 
L 158.330654 80.582622 
L 159.529293 80.032334 
L 160.727931 79.482045 
L 161.926569 78.931757 
L 163.125208 78.381468 
L 164.323846 77.831179 
L 165.522485 77.280891 
L 166.721123 76.730602 
L 167.919761 76.180314 
L 169.1184 75.630025 
L 170.317038 75.079736 
L 171.515677 74.529448 
L 172.714315 73.979159 
L 173.912953 73.428871 
L 175.111592 72.878582 
L 176.31023 72.328293 
L 177.508868 71.778005 
L 178.707507 71.227716 
L 179.906145 70.677428 
L 181.104784 70.127139 
L 182.303422 69.57685 
L 183.50206 69.026562 
L 184.700699 68.476273 
L 185.899337 67.925985 
L 187.097976 67.375696 
L 188.296614 66.825407 
L 189.495252 66.275119 
L 190.693891 65.72483 
L 191.892529 65.174542 
L 193.091167 64.624253 
L 194.289806 64.073964 
L 195.488444 63.523676 
L 196.687083 62.973387 
L 197.885721 62.423099 
L 199.084359 61.87281 
L 200.282998 61.322521 
L 201.481636 60.772233 
L 202.680275 60.221944 
L 203.878913 59.671656 
L 205.077551 59.121367 
L 206.27619 58.571078 
L 207.474828 58.02079 
L 208.673467 57.470501 
L 209.872105 56.920213 
L 211.070743 56.369924 
L 212.269382 55.819635 
L 213.46802 55.269347 
L 214.666658 54.719058 
" clip-path="url(#p5459ec670e)" style="fill: none; stroke: #068583; stroke-width: 2.25; stroke-linecap: square"/>
   </g>
   <g id="LineCollection_1">
    <path d="M 148.719441 88.454634 
L 167.788035 88.454634 
" clip-path="url(#p5459ec670e)" style="fill: none; stroke: #000000; stroke-width: 0.5"/>
    <path d="M 111.761272 90.800251 
L 122.426134 90.800251 
" clip-path="url(#p5459ec670e)" style="fill: none; stroke: #000000; stroke-width: 0.5"/>
    <path d="M 170.163108 65.493136 
L 187.860677 65.493136 
" clip-path="url(#p5459ec670e)" style="fill: none; stroke: #000000; stroke-width: 0.5"/>
    <path d="M 168.081138 40.633919 
L 192.727517 40.633919 
" clip-path="url(#p5459ec670e)" style="fill: none; stroke: #000000; stroke-width: 0.5"/>
    <path d="M 137.085209 86.686428 
L 149.706942 86.686428 
" clip-path="url(#p5459ec670e)" style="fill: none; stroke: #000000; stroke-width: 0.5"/>
    <path d="M 118.808783 112.040311 
L 122.480178 112.040311 
" clip-path="url(#p5459ec670e)" style="fill: none; stroke: #000000; stroke-width: 0.5"/>
    <path d="M 186.566686 70.756383 
L 207.251154 70.756383 
" clip-path="url(#p5459ec670e)" style="fill: none; stroke: #000000; stroke-width: 0.5"/>
    <path d="M 165.582241 42.420113 
L 191.38792 42.420113 
" clip-path="url(#p5459ec670e)" style="fill: none; stroke: #000000; stroke-width: 0.5"/>
    <path d="M 146.086296 104.836175 
L 156.02072 104.836175 
" clip-path="url(#p5459ec670e)" style="fill: none; stroke: #000000; stroke-width: 0.5"/>
    <path d="M 103.044398 96.088681 
L 113.453585 96.088681 
" clip-path="url(#p5459ec670e)" style="fill: none; stroke: #000000; stroke-width: 0.5"/>
    <path d="M 178.250178 66.131705 
L 193.945171 66.131705 
" clip-path="url(#p5459ec670e)" style="fill: none; stroke: #000000; stroke-width: 0.5"/>
    <path d="M 151.776078 39.428732 
L 187.559924 39.428732 
" clip-path="url(#p5459ec670e)" style="fill: none; stroke: #000000; stroke-width: 0.5"/>
    <path d="M 133.235083 88.015731 
L 138.124414 88.015731 
" clip-path="url(#p5459ec670e)" style="fill: none; stroke: #000000; stroke-width: 0.5"/>
    <path d="M 99.42422 114.385928 
L 108.590207 114.385928 
" clip-path="url(#p5459ec670e)" style="fill: none; stroke: #000000; stroke-width: 0.5"/>
    <path d="M 166.44334 93.471447 
L 185.349761 93.471447 
" clip-path="url(#p5459ec670e)" style="fill: none; stroke: #000000; stroke-width: 0.5"/>
    <path d="M 130.916716 80.530984 
L 147.482101 80.530984 
" clip-path="url(#p5459ec670e)" style="fill: none; stroke: #000000; stroke-width: 0.5"/>
    <path d="M 114.447848 104.086081 
L 125.534574 104.086081 
" clip-path="url(#p5459ec670e)" style="fill: none; stroke: #000000; stroke-width: 0.5"/>
    <path d="M 95.421233 122.075736 
L 108.00301 122.075736 
" clip-path="url(#p5459ec670e)" style="fill: none; stroke: #000000; stroke-width: 0.5"/>
    <path d="M 175.843011 95.74871 
L 183.569096 95.74871 
" clip-path="url(#p5459ec670e)" style="fill: none; stroke: #000000; stroke-width: 0.5"/>
    <path d="M 118.496619 89.810919 
L 137.766143 89.810919 
" clip-path="url(#p5459ec670e)" style="fill: none; stroke: #000000; stroke-width: 0.5"/>
    <path d="M 146.476869 94.428401 
L 166.321893 94.428401 
" clip-path="url(#p5459ec670e)" style="fill: none; stroke: #000000; stroke-width: 0.5"/>
    <path d="M 109.764534 106.7249 
L 119.497477 106.7249 
" clip-path="url(#p5459ec670e)" style="fill: none; stroke: #000000; stroke-width: 0.5"/>
    <path d="M 211.37897 66.356553 
L 217.954347 66.356553 
" clip-path="url(#p5459ec670e)" style="fill: none; stroke: #000000; stroke-width: 0.5"/>
    <path d="M 92.359623 86.893288 
L 99.643293 86.893288 
" clip-path="url(#p5459ec670e)" style="fill: none; stroke: #000000; stroke-width: 0.5"/>
   </g>
   <g id="LineCollection_2">
    <path d="M 158.253738 92.237677 
L 158.253738 84.671592 
" clip-path="url(#p5459ec670e)" style="fill: none; stroke: #000000; stroke-width: 0.5"/>
    <path d="M 117.093703 95.779304 
L 117.093703 85.821198 
" clip-path="url(#p5459ec670e)" style="fill: none; stroke: #000000; stroke-width: 0.5"/>
    <path d="M 179.011892 67.914164 
L 179.011892 63.072107 
" clip-path="url(#p5459ec670e)" style="fill: none; stroke: #000000; stroke-width: 0.5"/>
    <path d="M 180.404328 47.957102 
L 180.404328 33.310735 
" clip-path="url(#p5459ec670e)" style="fill: none; stroke: #000000; stroke-width: 0.5"/>
    <path d="M 143.396075 95.220878 
L 143.396075 78.151978 
" clip-path="url(#p5459ec670e)" style="fill: none; stroke: #000000; stroke-width: 0.5"/>
    <path d="M 120.644481 115.636624 
L 120.644481 108.443999 
" clip-path="url(#p5459ec670e)" style="fill: none; stroke: #000000; stroke-width: 0.5"/>
    <path d="M 196.90892 75.157647 
L 196.90892 66.355118 
" clip-path="url(#p5459ec670e)" style="fill: none; stroke: #000000; stroke-width: 0.5"/>
    <path d="M 178.48508 46.00831 
L 178.48508 38.831915 
" clip-path="url(#p5459ec670e)" style="fill: none; stroke: #000000; stroke-width: 0.5"/>
    <path d="M 151.053508 109.08201 
L 151.053508 100.59034 
" clip-path="url(#p5459ec670e)" style="fill: none; stroke: #000000; stroke-width: 0.5"/>
    <path d="M 108.248991 112.90278 
L 108.248991 79.274581 
" clip-path="url(#p5459ec670e)" style="fill: none; stroke: #000000; stroke-width: 0.5"/>
    <path d="M 186.097675 66.60312 
L 186.097675 65.660289 
" clip-path="url(#p5459ec670e)" style="fill: none; stroke: #000000; stroke-width: 0.5"/>
    <path d="M 169.668001 49.126612 
L 169.668001 29.730852 
" clip-path="url(#p5459ec670e)" style="fill: none; stroke: #000000; stroke-width: 0.5"/>
    <path d="M 135.679749 90.625798 
L 135.679749 85.405663 
" clip-path="url(#p5459ec670e)" style="fill: none; stroke: #000000; stroke-width: 0.5"/>
    <path d="M 104.007214 124.432971 
L 104.007214 104.338885 
" clip-path="url(#p5459ec670e)" style="fill: none; stroke: #000000; stroke-width: 0.5"/>
    <path d="M 175.89655 99.183005 
L 175.89655 87.75989 
" clip-path="url(#p5459ec670e)" style="fill: none; stroke: #000000; stroke-width: 0.5"/>
    <path d="M 139.199408 86.455368 
L 139.199408 74.606599 
" clip-path="url(#p5459ec670e)" style="fill: none; stroke: #000000; stroke-width: 0.5"/>
    <path d="M 119.991211 105.307715 
L 119.991211 102.864448 
" clip-path="url(#p5459ec670e)" style="fill: none; stroke: #000000; stroke-width: 0.5"/>
    <path d="M 101.712122 130.19798 
L 101.712122 113.953493 
" clip-path="url(#p5459ec670e)" style="fill: none; stroke: #000000; stroke-width: 0.5"/>
    <path d="M 179.706054 99.49844 
L 179.706054 91.998981 
" clip-path="url(#p5459ec670e)" style="fill: none; stroke: #000000; stroke-width: 0.5"/>
    <path d="M 128.131381 92.010917 
L 128.131381 87.61092 
" clip-path="url(#p5459ec670e)" style="fill: none; stroke: #000000; stroke-width: 0.5"/>
    <path d="M 156.399381 98.491132 
L 156.399381 90.365671 
" clip-path="url(#p5459ec670e)" style="fill: none; stroke: #000000; stroke-width: 0.5"/>
    <path d="M 114.631006 115.471273 
L 114.631006 97.978527 
" clip-path="url(#p5459ec670e)" style="fill: none; stroke: #000000; stroke-width: 0.5"/>
    <path d="M 214.666658 67.108688 
L 214.666658 65.604417 
" clip-path="url(#p5459ec670e)" style="fill: none; stroke: #000000; stroke-width: 0.5"/>
    <path d="M 96.001458 93.16973 
L 96.001458 80.616846 
" clip-path="url(#p5459ec670e)" style="fill: none; stroke: #000000; stroke-width: 0.5"/>
   </g>
   <g id="LineCollection_3">
    <path d="M 69.684867 177.449553 
L 69.820553 177.449553 
" clip-path="url(#p5459ec670e)" style="fill: none; stroke: #000000; stroke-width: 0.5"/>
    <path d="M 66.987002 176.219184 
L 67.105411 176.219184 
" clip-path="url(#p5459ec670e)" style="fill: none; stroke: #000000; stroke-width: 0.5"/>
    <path d="M 67.580388 177.877664 
L 67.77823 177.877664 
" clip-path="url(#p5459ec670e)" style="fill: none; stroke: #000000; stroke-width: 0.5"/>
    <path d="M 65.772528 177.960408 
L 65.844072 177.960408 
" clip-path="url(#p5459ec670e)" style="fill: none; stroke: #000000; stroke-width: 0.5"/>
   </g>
   <g id="LineCollection_4">
    <path d="M 69.75271 177.506691 
L 69.75271 177.392415 
" clip-path="url(#p5459ec670e)" style="fill: none; stroke: #000000; stroke-width: 0.5"/>
    <path d="M 67.046206 176.694557 
L 67.046206 175.743811 
" clip-path="url(#p5459ec670e)" style="fill: none; stroke: #000000; stroke-width: 0.5"/>
    <path d="M 67.679309 177.90771 
L 67.679309 177.847618 
" clip-path="url(#p5459ec670e)" style="fill: none; stroke: #000000; stroke-width: 0.5"/>
    <path d="M 65.8083 177.985398 
L 65.8083 177.935419 
" clip-path="url(#p5459ec670e)" style="fill: none; stroke: #000000; stroke-width: 0.5"/>
   </g>
   <g id="line2d_12">
    <path d="M 158.253738 88.454634 
L 117.093703 90.800251 
L 179.011892 65.493136 
L 180.404328 40.633919 
L 143.396075 86.686428 
L 120.644481 112.040311 
L 196.90892 70.756383 
L 178.48508 42.420113 
L 151.053508 104.836175 
L 108.248991 96.088681 
L 186.097675 66.131705 
L 169.668001 39.428732 
L 135.679749 88.015731 
L 104.007214 114.385928 
L 175.89655 93.471447 
L 139.199408 80.530984 
L 119.991211 104.086081 
L 101.712122 122.075736 
L 179.706054 95.74871 
L 128.131381 89.810919 
L 156.399381 94.428401 
L 114.631006 106.7249 
L 214.666658 66.356553 
L 96.001458 86.893288 
" clip-path="url(#p5459ec670e)" style="fill: none; stroke: #000000; stroke-opacity: 0; stroke-width: 1.5; stroke-linecap: square"/>
   </g>
   <g id="line2d_13">
    <path d="M 69.75271 177.449553 
L 67.046206 176.219184 
L 67.679309 177.877664 
L 65.8083 177.960408 
" clip-path="url(#p5459ec670e)" style="fill: none; stroke: #000000; stroke-opacity: 0; stroke-width: 1.5; stroke-linecap: square"/>
   </g>
   <g id="patch_3">
    <path d="M 58.163438 185.398125 
L 58.163438 22.318125 
" style="fill: none; stroke: #000000; stroke-width: 0.8; stroke-linejoin: miter; stroke-linecap: square"/>
   </g>
   <g id="patch_4">
    <path d="M 225.563438 185.398125 
L 225.563438 22.318125 
" style="fill: none; stroke: #000000; stroke-width: 0.8; stroke-linejoin: miter; stroke-linecap: square"/>
   </g>
   <g id="patch_5">
    <path d="M 58.163438 185.398125 
L 225.563438 185.398125 
" style="fill: none; stroke: #000000; stroke-width: 0.8; stroke-linejoin: miter; stroke-linecap: square"/>
   </g>
   <g id="patch_6">
    <path d="M 58.163438 22.318125 
L 225.563438 22.318125 
" style="fill: none; stroke: #000000; stroke-width: 0.8; stroke-linejoin: miter; stroke-linecap: square"/>
   </g>
   <g id="text_13">
    <!-- No -->
    <g transform="translate(74.903438 166.046312)scale(0.1 -0.1)">
     <defs>
      <path id="DejaVuSans-6f" d="M 1959 3097 
Q 1497 3097 1228 2736 
Q 959 2375 959 1747 
Q 959 1119 1226 758 
Q 1494 397 1959 397 
Q 2419 397 2687 759 
Q 2956 1122 2956 1747 
Q 2956 2369 2687 2733 
Q 2419 3097 1959 3097 
z
M 1959 3584 
Q 2709 3584 3137 3096 
Q 3566 2609 3566 1747 
Q 3566 888 3137 398 
Q 2709 -91 1959 -91 
Q 1206 -91 779 398 
Q 353 888 353 1747 
Q 353 2609 779 3096 
Q 1206 3584 1959 3584 
z
" transform="scale(0.015625)"/>
     </defs>
     <use xlink:href="#DejaVuSans-4e"/>
     <use xlink:href="#DejaVuSans-6f" x="74.804688"/>
    </g>
    <!-- Ngn2x3HA -->
    <g transform="translate(74.903438 177.244125)scale(0.1 -0.1)">
     <defs>
      <path id="DejaVuSans-78" d="M 3513 3500 
L 2247 1797 
L 3578 0 
L 2900 0 
L 1881 1375 
L 863 0 
L 184 0 
L 1544 1831 
L 300 3500 
L 978 3500 
L 1906 2253 
L 2834 3500 
L 3513 3500 
z
" transform="scale(0.015625)"/>
      <path id="DejaVuSans-48" d="M 628 4666 
L 1259 4666 
L 1259 2753 
L 3553 2753 
L 3553 4666 
L 4184 4666 
L 4184 0 
L 3553 0 
L 3553 2222 
L 1259 2222 
L 1259 0 
L 628 0 
L 628 4666 
z
" transform="scale(0.015625)"/>
      <path id="DejaVuSans-41" d="M 2188 4044 
L 1331 1722 
L 3047 1722 
L 2188 4044 
z
M 1831 4666 
L 2547 4666 
L 4325 0 
L 3669 0 
L 3244 1197 
L 1141 1197 
L 716 0 
L 50 0 
L 1831 4666 
z
" transform="scale(0.015625)"/>
     </defs>
     <use xlink:href="#DejaVuSans-4e"/>
     <use xlink:href="#DejaVuSans-67" x="74.804688"/>
     <use xlink:href="#DejaVuSans-6e" x="138.28125"/>
     <use xlink:href="#DejaVuSans-32" x="201.660156"/>
     <use xlink:href="#DejaVuSans-78" x="265.283203"/>
     <use xlink:href="#DejaVuSans-33" x="324.462891"/>
     <use xlink:href="#DejaVuSans-48" x="388.085938"/>
     <use xlink:href="#DejaVuSans-41" x="463.28125"/>
    </g>
   </g>
   <g id="text_14">
    <!-- r = 0.68 -->
    <g transform="translate(66.533438 38.626125)scale(0.1 -0.1)">
     <defs>
      <path id="DejaVuSans-3d" d="M 678 2906 
L 4684 2906 
L 4684 2381 
L 678 2381 
L 678 2906 
z
M 678 1631 
L 4684 1631 
L 4684 1100 
L 678 1100 
L 678 1631 
z
" transform="scale(0.015625)"/>
      <path id="DejaVuSans-2e" d="M 684 794 
L 1344 794 
L 1344 0 
L 684 0 
L 684 794 
z
" transform="scale(0.015625)"/>
      <path id="DejaVuSans-36" d="M 2113 2584 
Q 1688 2584 1439 2293 
Q 1191 2003 1191 1497 
Q 1191 994 1439 701 
Q 1688 409 2113 409 
Q 2538 409 2786 701 
Q 3034 994 3034 1497 
Q 3034 2003 2786 2293 
Q 2538 2584 2113 2584 
z
M 3366 4563 
L 3366 3988 
Q 3128 4100 2886 4159 
Q 2644 4219 2406 4219 
Q 1781 4219 1451 3797 
Q 1122 3375 1075 2522 
Q 1259 2794 1537 2939 
Q 1816 3084 2150 3084 
Q 2853 3084 3261 2657 
Q 3669 2231 3669 1497 
Q 3669 778 3244 343 
Q 2819 -91 2113 -91 
Q 1303 -91 875 529 
Q 447 1150 447 2328 
Q 447 3434 972 4092 
Q 1497 4750 2381 4750 
Q 2619 4750 2861 4703 
Q 3103 4656 3366 4563 
z
" transform="scale(0.015625)"/>
      <path id="DejaVuSans-38" d="M 2034 2216 
Q 1584 2216 1326 1975 
Q 1069 1734 1069 1313 
Q 1069 891 1326 650 
Q 1584 409 2034 409 
Q 2484 409 2743 651 
Q 3003 894 3003 1313 
Q 3003 1734 2745 1975 
Q 2488 2216 2034 2216 
z
M 1403 2484 
Q 997 2584 770 2862 
Q 544 3141 544 3541 
Q 544 4100 942 4425 
Q 1341 4750 2034 4750 
Q 2731 4750 3128 4425 
Q 3525 4100 3525 3541 
Q 3525 3141 3298 2862 
Q 3072 2584 2669 2484 
Q 3125 2378 3379 2068 
Q 3634 1759 3634 1313 
Q 3634 634 3220 271 
Q 2806 -91 2034 -91 
Q 1263 -91 848 271 
Q 434 634 434 1313 
Q 434 1759 690 2068 
Q 947 2378 1403 2484 
z
M 1172 3481 
Q 1172 3119 1398 2916 
Q 1625 2713 2034 2713 
Q 2441 2713 2670 2916 
Q 2900 3119 2900 3481 
Q 2900 3844 2670 4047 
Q 2441 4250 2034 4250 
Q 1625 4250 1398 4047 
Q 1172 3844 1172 3481 
z
" transform="scale(0.015625)"/>
     </defs>
     <use xlink:href="#DejaVuSans-72"/>
     <use xlink:href="#DejaVuSans-20" x="41.113281"/>
     <use xlink:href="#DejaVuSans-3d" x="72.900391"/>
     <use xlink:href="#DejaVuSans-20" x="156.689453"/>
     <use xlink:href="#DejaVuSans-30" x="188.476562"/>
     <use xlink:href="#DejaVuSans-2e" x="252.099609"/>
     <use xlink:href="#DejaVuSans-36" x="283.886719"/>
     <use xlink:href="#DejaVuSans-38" x="347.509766"/>
    </g>
   </g>
   <g id="text_15">
    <!-- Ngn2x3HA -->
    <g transform="translate(109.960313 16.318125)scale(0.12 -0.12)">
     <use xlink:href="#DejaVuSans-4e"/>
     <use xlink:href="#DejaVuSans-67" x="74.804688"/>
     <use xlink:href="#DejaVuSans-6e" x="138.28125"/>
     <use xlink:href="#DejaVuSans-32" x="201.660156"/>
     <use xlink:href="#DejaVuSans-78" x="265.283203"/>
     <use xlink:href="#DejaVuSans-33" x="324.462891"/>
     <use xlink:href="#DejaVuSans-48" x="388.085938"/>
     <use xlink:href="#DejaVuSans-41" x="463.28125"/>
    </g>
   </g>
  </g>
 </g>
 <defs>
  <clipPath id="p5459ec670e">
   <rect x="58.163438" y="22.318125" width="167.4" height="163.08"/>
  </clipPath>
 </defs>
</svg>
