<?xml version="1.0" encoding="utf-8" standalone="no"?>
<!DOCTYPE svg PUBLIC "-//W3C//DTD SVG 1.1//EN"
  "http://www.w3.org/Graphics/SVG/1.1/DTD/svg11.dtd">
<svg xmlns:xlink="http://www.w3.org/1999/xlink" width="232.763437pt" height="234.152188pt" viewBox="0 0 232.763437 234.152188" xmlns="http://www.w3.org/2000/svg" version="1.1">
 <metadata>
  <rdf:RDF xmlns:dc="http://purl.org/dc/elements/1.1/" xmlns:cc="http://creativecommons.org/ns#" xmlns:rdf="http://www.w3.org/1999/02/22-rdf-syntax-ns#">
   <cc:Work>
    <dc:type rdf:resource="http://purl.org/dc/dcmitype/StillImage"/>
    <dc:date>2025-01-26T16:00:44.097735</dc:date>
    <dc:format>image/svg+xml</dc:format>
    <dc:creator>
     <cc:Agent>
      <dc:title>Matplotlib v3.5.2, https://matplotlib.org/</dc:title>
     </cc:Agent>
    </dc:creator>
   </cc:Work>
  </rdf:RDF>
 </metadata>
 <defs>
  <style type="text/css">*{stroke-linejoin: round; stroke-linecap: butt}</style>
 </defs>
 <g id="figure_1">
  <g id="patch_1">
   <path d="M 0 234.152188 
L 232.763437 234.152188 
L 232.763437 -0 
L 0 -0 
L 0 234.152188 
z
" style="fill: none"/>
  </g>
  <g id="axes_1">
   <g id="patch_2">
    <path d="M 58.163438 185.398125 
L 225.563438 185.398125 
L 225.563438 22.318125 
L 58.163438 22.318125 
z
" style="fill: #ffffff"/>
   </g>
   <g id="PathCollection_1">
    <defs>
     <path id="m1e7c7b4e3a" d="M 0 3 
C 0.795609 3 1.55874 2.683901 2.12132 2.12132 
C 2.683901 1.55874 3 0.795609 3 0 
C 3 -0.795609 2.683901 -1.55874 2.12132 -2.12132 
C 1.55874 -2.683901 0.795609 -3 0 -3 
C -0.795609 -3 -1.55874 -2.683901 -2.12132 -2.12132 
C -2.683901 -1.55874 -3 -0.795609 -3 0 
C -3 0.795609 -2.683901 1.55874 -2.12132 2.12132 
C -1.55874 2.683901 -0.795609 3 0 3 
z
" style="stroke: #498ac6; stroke-opacity: 0.8"/>
    </defs>
    <g clip-path="url(#p1b781d79e1)">
     <use xlink:href="#m1e7c7b4e3a" x="157.608267" y="96.398927" style="fill: #498ac6; fill-opacity: 0.8; stroke: #498ac6; stroke-opacity: 0.8"/>
     <use xlink:href="#m1e7c7b4e3a" x="131.097399" y="68.876206" style="fill: #498ac6; fill-opacity: 0.8; stroke: #498ac6; stroke-opacity: 0.8"/>
     <use xlink:href="#m1e7c7b4e3a" x="120.67954" y="57.234133" style="fill: #498ac6; fill-opacity: 0.8; stroke: #498ac6; stroke-opacity: 0.8"/>
     <use xlink:href="#m1e7c7b4e3a" x="129.984559" y="105.868031" style="fill: #498ac6; fill-opacity: 0.8; stroke: #498ac6; stroke-opacity: 0.8"/>
     <use xlink:href="#m1e7c7b4e3a" x="119.14014" y="61.036245" style="fill: #498ac6; fill-opacity: 0.8; stroke: #498ac6; stroke-opacity: 0.8"/>
     <use xlink:href="#m1e7c7b4e3a" x="103.05719" y="33.914975" style="fill: #498ac6; fill-opacity: 0.8; stroke: #498ac6; stroke-opacity: 0.8"/>
     <use xlink:href="#m1e7c7b4e3a" x="108.531732" y="50.012686" style="fill: #498ac6; fill-opacity: 0.8; stroke: #498ac6; stroke-opacity: 0.8"/>
     <use xlink:href="#m1e7c7b4e3a" x="113.057963" y="92.10667" style="fill: #498ac6; fill-opacity: 0.8; stroke: #498ac6; stroke-opacity: 0.8"/>
     <use xlink:href="#m1e7c7b4e3a" x="151.170367" y="98.436523" style="fill: #498ac6; fill-opacity: 0.8; stroke: #498ac6; stroke-opacity: 0.8"/>
     <use xlink:href="#m1e7c7b4e3a" x="135.795048" y="79.664029" style="fill: #498ac6; fill-opacity: 0.8; stroke: #498ac6; stroke-opacity: 0.8"/>
     <use xlink:href="#m1e7c7b4e3a" x="153.906479" y="73.404198" style="fill: #498ac6; fill-opacity: 0.8; stroke: #498ac6; stroke-opacity: 0.8"/>
     <use xlink:href="#m1e7c7b4e3a" x="161.755009" y="121.081149" style="fill: #498ac6; fill-opacity: 0.8; stroke: #498ac6; stroke-opacity: 0.8"/>
     <use xlink:href="#m1e7c7b4e3a" x="153.408946" y="82.124083" style="fill: #498ac6; fill-opacity: 0.8; stroke: #498ac6; stroke-opacity: 0.8"/>
     <use xlink:href="#m1e7c7b4e3a" x="135.861021" y="65.244477" style="fill: #498ac6; fill-opacity: 0.8; stroke: #498ac6; stroke-opacity: 0.8"/>
     <use xlink:href="#m1e7c7b4e3a" x="191.514551" y="82.765937" style="fill: #498ac6; fill-opacity: 0.8; stroke: #498ac6; stroke-opacity: 0.8"/>
     <use xlink:href="#m1e7c7b4e3a" x="205.482681" y="134.807499" style="fill: #498ac6; fill-opacity: 0.8; stroke: #498ac6; stroke-opacity: 0.8"/>
     <use xlink:href="#m1e7c7b4e3a" x="140.900571" y="86.558714" style="fill: #498ac6; fill-opacity: 0.8; stroke: #498ac6; stroke-opacity: 0.8"/>
     <use xlink:href="#m1e7c7b4e3a" x="115.939577" y="59.379094" style="fill: #498ac6; fill-opacity: 0.8; stroke: #498ac6; stroke-opacity: 0.8"/>
     <use xlink:href="#m1e7c7b4e3a" x="127.811991" y="81.991044" style="fill: #498ac6; fill-opacity: 0.8; stroke: #498ac6; stroke-opacity: 0.8"/>
     <use xlink:href="#m1e7c7b4e3a" x="143.236617" y="108.202047" style="fill: #498ac6; fill-opacity: 0.8; stroke: #498ac6; stroke-opacity: 0.8"/>
     <use xlink:href="#m1e7c7b4e3a" x="158.764975" y="100.994605" style="fill: #498ac6; fill-opacity: 0.8; stroke: #498ac6; stroke-opacity: 0.8"/>
     <use xlink:href="#m1e7c7b4e3a" x="139.884591" y="111.098561" style="fill: #498ac6; fill-opacity: 0.8; stroke: #498ac6; stroke-opacity: 0.8"/>
     <use xlink:href="#m1e7c7b4e3a" x="109.092172" y="106.173787" style="fill: #498ac6; fill-opacity: 0.8; stroke: #498ac6; stroke-opacity: 0.8"/>
     <use xlink:href="#m1e7c7b4e3a" x="112.949387" y="145.303571" style="fill: #498ac6; fill-opacity: 0.8; stroke: #498ac6; stroke-opacity: 0.8"/>
    </g>
   </g>
   <g id="PolyCollection_1">
    <path d="M 103.05719 51.785558 
L 103.05719 96.640578 
L 104.091791 96.635946 
L 105.126392 96.684395 
L 106.160993 96.570532 
L 107.195594 96.541928 
L 108.230195 96.512009 
L 109.264796 96.500093 
L 110.299397 96.536888 
L 111.333998 96.456023 
L 112.368598 96.433988 
L 113.403199 96.502589 
L 114.4378 96.592421 
L 115.472401 96.50603 
L 116.507002 96.41964 
L 117.541603 96.515541 
L 118.576204 96.690257 
L 119.610805 96.712844 
L 120.645406 96.726781 
L 121.680007 96.742927 
L 122.714608 96.763068 
L 123.749209 96.778831 
L 124.783809 96.738642 
L 125.81841 96.91206 
L 126.853011 96.875126 
L 127.887612 96.855409 
L 128.922213 96.94903 
L 129.956814 97.070124 
L 130.991415 97.191805 
L 132.026016 97.361985 
L 133.060617 97.541006 
L 134.095218 97.72468 
L 135.129819 97.904519 
L 136.16442 98.08312 
L 137.199021 98.2359 
L 138.233621 98.390762 
L 139.268222 98.635081 
L 140.302823 98.861128 
L 141.337424 98.994121 
L 142.372025 99.309402 
L 143.406626 99.346052 
L 144.441227 99.685238 
L 145.475828 100.131274 
L 146.510429 100.487797 
L 147.54503 100.869981 
L 148.579631 101.15408 
L 149.614232 101.415234 
L 150.648832 101.793761 
L 151.683433 102.076611 
L 152.718034 102.575702 
L 153.752635 103.167389 
L 154.787236 103.664684 
L 155.821837 104.305539 
L 156.856438 104.939946 
L 157.891039 105.532014 
L 158.92564 106.177069 
L 159.960241 106.965978 
L 160.994842 107.850977 
L 162.029443 108.724676 
L 163.064044 109.335954 
L 164.098644 110.069126 
L 165.133245 110.848731 
L 166.167846 111.627539 
L 167.202447 112.40811 
L 168.237048 113.199041 
L 169.271649 113.990072 
L 170.30625 114.770148 
L 171.340851 115.626864 
L 172.375452 116.495334 
L 173.410053 117.314518 
L 174.444654 118.196654 
L 175.479255 119.052448 
L 176.513855 119.888081 
L 177.548456 120.718871 
L 178.583057 121.571069 
L 179.617658 122.457795 
L 180.652259 123.261486 
L 181.68686 124.052719 
L 182.721461 124.870281 
L 183.756062 125.701 
L 184.790663 126.59606 
L 185.825264 127.462335 
L 186.859865 128.4036 
L 187.894466 129.306921 
L 188.929067 130.186798 
L 189.963667 131.044431 
L 190.998268 131.902064 
L 192.032869 132.770008 
L 193.06747 133.754465 
L 194.102071 134.728657 
L 195.136672 135.632986 
L 196.171273 136.536405 
L 197.205874 137.439824 
L 198.240475 138.343243 
L 199.275076 139.246662 
L 200.309677 140.141505 
L 201.344278 141.035601 
L 202.378878 141.929696 
L 203.413479 142.823792 
L 204.44808 143.717696 
L 205.482681 144.611387 
L 205.482681 86.638627 
L 205.482681 86.638627 
L 204.44808 86.59242 
L 203.413479 86.546213 
L 202.378878 86.624417 
L 201.344278 86.728231 
L 200.309677 86.832046 
L 199.275076 86.93586 
L 198.240475 87.013361 
L 197.205874 87.012584 
L 196.171273 87.016768 
L 195.136672 87.023024 
L 194.102071 87.02928 
L 193.06747 87.176161 
L 192.032869 87.419515 
L 190.998268 87.341456 
L 189.963667 87.26061 
L 188.929067 87.395855 
L 187.894466 87.47225 
L 186.859865 87.365158 
L 185.825264 87.290952 
L 184.790663 87.397998 
L 183.756062 87.505049 
L 182.721461 87.614913 
L 181.68686 87.724778 
L 180.652259 87.788793 
L 179.617658 87.783152 
L 178.583057 87.778845 
L 177.548456 87.739825 
L 176.513855 87.667796 
L 175.479255 87.500429 
L 174.444654 87.512619 
L 173.410053 87.361444 
L 172.375452 87.247611 
L 171.340851 87.171368 
L 170.30625 87.005258 
L 169.271649 86.861848 
L 168.237048 86.728643 
L 167.202447 86.579266 
L 166.167846 86.821256 
L 165.133245 86.370721 
L 164.098644 86.584515 
L 163.064044 86.514882 
L 162.029443 86.349063 
L 160.994842 86.116822 
L 159.960241 85.814545 
L 158.92564 85.827037 
L 157.891039 85.733897 
L 156.856438 85.548291 
L 155.821837 85.369608 
L 154.787236 85.404799 
L 153.752635 85.324618 
L 152.718034 85.07484 
L 151.683433 84.835459 
L 150.648832 84.53023 
L 149.614232 84.289606 
L 148.579631 83.916419 
L 147.54503 83.44066 
L 146.510429 82.9441 
L 145.475828 82.421072 
L 144.441227 81.644098 
L 143.406626 80.950463 
L 142.372025 80.448665 
L 141.337424 80.154579 
L 140.302823 79.781998 
L 139.268222 79.317129 
L 138.233621 78.710473 
L 137.199021 78.049756 
L 136.16442 77.445865 
L 135.129819 76.770742 
L 134.095218 76.021864 
L 133.060617 75.339804 
L 132.026016 74.545387 
L 130.991415 73.779205 
L 129.956814 73.160984 
L 128.922213 72.255065 
L 127.887612 71.442931 
L 126.853011 70.62806 
L 125.81841 69.860538 
L 124.783809 69.078615 
L 123.749209 68.204043 
L 122.714608 67.375013 
L 121.680007 66.747852 
L 120.645406 65.93543 
L 119.610805 65.010314 
L 118.576204 64.314293 
L 117.541603 63.618271 
L 116.507002 62.868495 
L 115.472401 61.982655 
L 114.4378 61.100218 
L 113.403199 60.096639 
L 112.368598 59.325825 
L 111.333998 58.502264 
L 110.299397 57.705511 
L 109.264796 56.883149 
L 108.230195 56.02381 
L 107.195594 55.173079 
L 106.160993 54.358418 
L 105.126392 53.537935 
L 104.091791 52.596355 
L 103.05719 51.785558 
z
" clip-path="url(#p1b781d79e1)" style="fill: #498ac6; fill-opacity: 0.15"/>
   </g>
   <g id="PathCollection_2">
    <defs>
     <path id="md416cd6fda" d="M 0 3.162278 
C 0.838646 3.162278 1.643056 2.82908 2.236068 2.236068 
C 2.82908 1.643056 3.162278 0.838646 3.162278 0 
C 3.162278 -0.838646 2.82908 -1.643056 2.236068 -2.236068 
C 1.643056 -2.82908 0.838646 -3.162278 0 -3.162278 
C -0.838646 -3.162278 -1.643056 -2.82908 -2.236068 -2.236068 
C -2.82908 -1.643056 -3.162278 -0.838646 -3.162278 0 
C -3.162278 0.838646 -2.82908 1.643056 -2.236068 2.236068 
C -1.643056 2.82908 -0.838646 3.162278 0 3.162278 
z
" style="stroke: #498ac6; stroke-width: 2"/>
    </defs>
    <g clip-path="url(#p1b781d79e1)">
     <use xlink:href="#md416cd6fda" x="67.817268" y="166.403078" style="fill: #ffffff; stroke: #498ac6; stroke-width: 2"/>
     <use xlink:href="#md416cd6fda" x="65.927652" y="176.070574" style="fill: #ffffff; stroke: #498ac6; stroke-width: 2"/>
     <use xlink:href="#md416cd6fda" x="68.352267" y="160.771097" style="fill: #ffffff; stroke: #498ac6; stroke-width: 2"/>
     <use xlink:href="#md416cd6fda" x="68.684852" y="176.9575" style="fill: #ffffff; stroke: #498ac6; stroke-width: 2"/>
    </g>
   </g>
   <g id="matplotlib.axis_1">
    <g id="xtick_1">
     <g id="line2d_1">
      <defs>
       <path id="m0b0140fa06" d="M 0 0 
L 0 3.5 
" style="stroke: #000000; stroke-width: 0.8"/>
      </defs>
      <g>
       <use xlink:href="#m0b0140fa06" x="59.102879" y="185.398125" style="stroke: #000000; stroke-width: 0.8"/>
      </g>
     </g>
     <g id="text_1">
      <!-- 0 -->
      <g transform="translate(55.921629 199.996563)scale(0.1 -0.1)">
       <defs>
        <path id="DejaVuSans-30" d="M 2034 4250 
Q 1547 4250 1301 3770 
Q 1056 3291 1056 2328 
Q 1056 1369 1301 889 
Q 1547 409 2034 409 
Q 2525 409 2770 889 
Q 3016 1369 3016 2328 
Q 3016 3291 2770 3770 
Q 2525 4250 2034 4250 
z
M 2034 4750 
Q 2819 4750 3233 4129 
Q 3647 3509 3647 2328 
Q 3647 1150 3233 529 
Q 2819 -91 2034 -91 
Q 1250 -91 836 529 
Q 422 1150 422 2328 
Q 422 3509 836 4129 
Q 1250 4750 2034 4750 
z
" transform="scale(0.015625)"/>
       </defs>
       <use xlink:href="#DejaVuSans-30"/>
      </g>
     </g>
    </g>
    <g id="xtick_2">
     <g id="line2d_2">
      <g>
       <use xlink:href="#m0b0140fa06" x="110.300779" y="185.398125" style="stroke: #000000; stroke-width: 0.8"/>
      </g>
     </g>
     <g id="text_2">
      <!-- 1000 -->
      <g transform="translate(97.575779 199.996563)scale(0.1 -0.1)">
       <defs>
        <path id="DejaVuSans-31" d="M 794 531 
L 1825 531 
L 1825 4091 
L 703 3866 
L 703 4441 
L 1819 4666 
L 2450 4666 
L 2450 531 
L 3481 531 
L 3481 0 
L 794 0 
L 794 531 
z
" transform="scale(0.015625)"/>
       </defs>
       <use xlink:href="#DejaVuSans-31"/>
       <use xlink:href="#DejaVuSans-30" x="63.623047"/>
       <use xlink:href="#DejaVuSans-30" x="127.246094"/>
       <use xlink:href="#DejaVuSans-30" x="190.869141"/>
      </g>
     </g>
    </g>
    <g id="xtick_3">
     <g id="line2d_3">
      <g>
       <use xlink:href="#m0b0140fa06" x="161.498678" y="185.398125" style="stroke: #000000; stroke-width: 0.8"/>
      </g>
     </g>
     <g id="text_3">
      <!-- 2000 -->
      <g transform="translate(148.773678 199.996563)scale(0.1 -0.1)">
       <defs>
        <path id="DejaVuSans-32" d="M 1228 531 
L 3431 531 
L 3431 0 
L 469 0 
L 469 531 
Q 828 903 1448 1529 
Q 2069 2156 2228 2338 
Q 2531 2678 2651 2914 
Q 2772 3150 2772 3378 
Q 2772 3750 2511 3984 
Q 2250 4219 1831 4219 
Q 1534 4219 1204 4116 
Q 875 4013 500 3803 
L 500 4441 
Q 881 4594 1212 4672 
Q 1544 4750 1819 4750 
Q 2544 4750 2975 4387 
Q 3406 4025 3406 3419 
Q 3406 3131 3298 2873 
Q 3191 2616 2906 2266 
Q 2828 2175 2409 1742 
Q 1991 1309 1228 531 
z
" transform="scale(0.015625)"/>
       </defs>
       <use xlink:href="#DejaVuSans-32"/>
       <use xlink:href="#DejaVuSans-30" x="63.623047"/>
       <use xlink:href="#DejaVuSans-30" x="127.246094"/>
       <use xlink:href="#DejaVuSans-30" x="190.869141"/>
      </g>
     </g>
    </g>
    <g id="xtick_4">
     <g id="line2d_4">
      <g>
       <use xlink:href="#m0b0140fa06" x="212.696578" y="185.398125" style="stroke: #000000; stroke-width: 0.8"/>
      </g>
     </g>
     <g id="text_4">
      <!-- 3000 -->
      <g transform="translate(199.971578 199.996563)scale(0.1 -0.1)">
       <defs>
        <path id="DejaVuSans-33" d="M 2597 2516 
Q 3050 2419 3304 2112 
Q 3559 1806 3559 1356 
Q 3559 666 3084 287 
Q 2609 -91 1734 -91 
Q 1441 -91 1130 -33 
Q 819 25 488 141 
L 488 750 
Q 750 597 1062 519 
Q 1375 441 1716 441 
Q 2309 441 2620 675 
Q 2931 909 2931 1356 
Q 2931 1769 2642 2001 
Q 2353 2234 1838 2234 
L 1294 2234 
L 1294 2753 
L 1863 2753 
Q 2328 2753 2575 2939 
Q 2822 3125 2822 3475 
Q 2822 3834 2567 4026 
Q 2313 4219 1838 4219 
Q 1578 4219 1281 4162 
Q 984 4106 628 3988 
L 628 4550 
Q 988 4650 1302 4700 
Q 1616 4750 1894 4750 
Q 2613 4750 3031 4423 
Q 3450 4097 3450 3541 
Q 3450 3153 3228 2886 
Q 3006 2619 2597 2516 
z
" transform="scale(0.015625)"/>
       </defs>
       <use xlink:href="#DejaVuSans-33"/>
       <use xlink:href="#DejaVuSans-30" x="63.623047"/>
       <use xlink:href="#DejaVuSans-30" x="127.246094"/>
       <use xlink:href="#DejaVuSans-30" x="190.869141"/>
      </g>
     </g>
    </g>
    <g id="text_5">
     <!-- mRuby2, 4 dpi -->
     <g transform="translate(105.574375 213.674688)scale(0.1 -0.1)">
      <defs>
       <path id="DejaVuSans-6d" d="M 3328 2828 
Q 3544 3216 3844 3400 
Q 4144 3584 4550 3584 
Q 5097 3584 5394 3201 
Q 5691 2819 5691 2113 
L 5691 0 
L 5113 0 
L 5113 2094 
Q 5113 2597 4934 2840 
Q 4756 3084 4391 3084 
Q 3944 3084 3684 2787 
Q 3425 2491 3425 1978 
L 3425 0 
L 2847 0 
L 2847 2094 
Q 2847 2600 2669 2842 
Q 2491 3084 2119 3084 
Q 1678 3084 1418 2786 
Q 1159 2488 1159 1978 
L 1159 0 
L 581 0 
L 581 3500 
L 1159 3500 
L 1159 2956 
Q 1356 3278 1631 3431 
Q 1906 3584 2284 3584 
Q 2666 3584 2933 3390 
Q 3200 3197 3328 2828 
z
" transform="scale(0.015625)"/>
       <path id="DejaVuSans-52" d="M 2841 2188 
Q 3044 2119 3236 1894 
Q 3428 1669 3622 1275 
L 4263 0 
L 3584 0 
L 2988 1197 
Q 2756 1666 2539 1819 
Q 2322 1972 1947 1972 
L 1259 1972 
L 1259 0 
L 628 0 
L 628 4666 
L 2053 4666 
Q 2853 4666 3247 4331 
Q 3641 3997 3641 3322 
Q 3641 2881 3436 2590 
Q 3231 2300 2841 2188 
z
M 1259 4147 
L 1259 2491 
L 2053 2491 
Q 2509 2491 2742 2702 
Q 2975 2913 2975 3322 
Q 2975 3731 2742 3939 
Q 2509 4147 2053 4147 
L 1259 4147 
z
" transform="scale(0.015625)"/>
       <path id="DejaVuSans-75" d="M 544 1381 
L 544 3500 
L 1119 3500 
L 1119 1403 
Q 1119 906 1312 657 
Q 1506 409 1894 409 
Q 2359 409 2629 706 
Q 2900 1003 2900 1516 
L 2900 3500 
L 3475 3500 
L 3475 0 
L 2900 0 
L 2900 538 
Q 2691 219 2414 64 
Q 2138 -91 1772 -91 
Q 1169 -91 856 284 
Q 544 659 544 1381 
z
M 1991 3584 
L 1991 3584 
z
" transform="scale(0.015625)"/>
       <path id="DejaVuSans-62" d="M 3116 1747 
Q 3116 2381 2855 2742 
Q 2594 3103 2138 3103 
Q 1681 3103 1420 2742 
Q 1159 2381 1159 1747 
Q 1159 1113 1420 752 
Q 1681 391 2138 391 
Q 2594 391 2855 752 
Q 3116 1113 3116 1747 
z
M 1159 2969 
Q 1341 3281 1617 3432 
Q 1894 3584 2278 3584 
Q 2916 3584 3314 3078 
Q 3713 2572 3713 1747 
Q 3713 922 3314 415 
Q 2916 -91 2278 -91 
Q 1894 -91 1617 61 
Q 1341 213 1159 525 
L 1159 0 
L 581 0 
L 581 4863 
L 1159 4863 
L 1159 2969 
z
" transform="scale(0.015625)"/>
       <path id="DejaVuSans-79" d="M 2059 -325 
Q 1816 -950 1584 -1140 
Q 1353 -1331 966 -1331 
L 506 -1331 
L 506 -850 
L 844 -850 
Q 1081 -850 1212 -737 
Q 1344 -625 1503 -206 
L 1606 56 
L 191 3500 
L 800 3500 
L 1894 763 
L 2988 3500 
L 3597 3500 
L 2059 -325 
z
" transform="scale(0.015625)"/>
       <path id="DejaVuSans-2c" d="M 750 794 
L 1409 794 
L 1409 256 
L 897 -744 
L 494 -744 
L 750 256 
L 750 794 
z
" transform="scale(0.015625)"/>
       <path id="DejaVuSans-20" transform="scale(0.015625)"/>
       <path id="DejaVuSans-34" d="M 2419 4116 
L 825 1625 
L 2419 1625 
L 2419 4116 
z
M 2253 4666 
L 3047 4666 
L 3047 1625 
L 3713 1625 
L 3713 1100 
L 3047 1100 
L 3047 0 
L 2419 0 
L 2419 1100 
L 313 1100 
L 313 1709 
L 2253 4666 
z
" transform="scale(0.015625)"/>
       <path id="DejaVuSans-64" d="M 2906 2969 
L 2906 4863 
L 3481 4863 
L 3481 0 
L 2906 0 
L 2906 525 
Q 2725 213 2448 61 
Q 2172 -91 1784 -91 
Q 1150 -91 751 415 
Q 353 922 353 1747 
Q 353 2572 751 3078 
Q 1150 3584 1784 3584 
Q 2172 3584 2448 3432 
Q 2725 3281 2906 2969 
z
M 947 1747 
Q 947 1113 1208 752 
Q 1469 391 1925 391 
Q 2381 391 2643 752 
Q 2906 1113 2906 1747 
Q 2906 2381 2643 2742 
Q 2381 3103 1925 3103 
Q 1469 3103 1208 2742 
Q 947 2381 947 1747 
z
" transform="scale(0.015625)"/>
       <path id="DejaVuSans-70" d="M 1159 525 
L 1159 -1331 
L 581 -1331 
L 581 3500 
L 1159 3500 
L 1159 2969 
Q 1341 3281 1617 3432 
Q 1894 3584 2278 3584 
Q 2916 3584 3314 3078 
Q 3713 2572 3713 1747 
Q 3713 922 3314 415 
Q 2916 -91 2278 -91 
Q 1894 -91 1617 61 
Q 1341 213 1159 525 
z
M 3116 1747 
Q 3116 2381 2855 2742 
Q 2594 3103 2138 3103 
Q 1681 3103 1420 2742 
Q 1159 2381 1159 1747 
Q 1159 1113 1420 752 
Q 1681 391 2138 391 
Q 2594 391 2855 752 
Q 3116 1113 3116 1747 
z
" transform="scale(0.015625)"/>
       <path id="DejaVuSans-69" d="M 603 3500 
L 1178 3500 
L 1178 0 
L 603 0 
L 603 3500 
z
M 603 4863 
L 1178 4863 
L 1178 4134 
L 603 4134 
L 603 4863 
z
" transform="scale(0.015625)"/>
      </defs>
      <use xlink:href="#DejaVuSans-6d"/>
      <use xlink:href="#DejaVuSans-52" x="97.412109"/>
      <use xlink:href="#DejaVuSans-75" x="162.394531"/>
      <use xlink:href="#DejaVuSans-62" x="225.773438"/>
      <use xlink:href="#DejaVuSans-79" x="289.25"/>
      <use xlink:href="#DejaVuSans-32" x="348.429688"/>
      <use xlink:href="#DejaVuSans-2c" x="412.052734"/>
      <use xlink:href="#DejaVuSans-20" x="443.839844"/>
      <use xlink:href="#DejaVuSans-34" x="475.626953"/>
      <use xlink:href="#DejaVuSans-20" x="539.25"/>
      <use xlink:href="#DejaVuSans-64" x="571.037109"/>
      <use xlink:href="#DejaVuSans-70" x="634.513672"/>
      <use xlink:href="#DejaVuSans-69" x="697.990234"/>
     </g>
     <!-- (gmean) -->
     <g transform="translate(120.607969 224.8725)scale(0.1 -0.1)">
      <defs>
       <path id="DejaVuSans-28" d="M 1984 4856 
Q 1566 4138 1362 3434 
Q 1159 2731 1159 2009 
Q 1159 1288 1364 580 
Q 1569 -128 1984 -844 
L 1484 -844 
Q 1016 -109 783 600 
Q 550 1309 550 2009 
Q 550 2706 781 3412 
Q 1013 4119 1484 4856 
L 1984 4856 
z
" transform="scale(0.015625)"/>
       <path id="DejaVuSans-67" d="M 2906 1791 
Q 2906 2416 2648 2759 
Q 2391 3103 1925 3103 
Q 1463 3103 1205 2759 
Q 947 2416 947 1791 
Q 947 1169 1205 825 
Q 1463 481 1925 481 
Q 2391 481 2648 825 
Q 2906 1169 2906 1791 
z
M 3481 434 
Q 3481 -459 3084 -895 
Q 2688 -1331 1869 -1331 
Q 1566 -1331 1297 -1286 
Q 1028 -1241 775 -1147 
L 775 -588 
Q 1028 -725 1275 -790 
Q 1522 -856 1778 -856 
Q 2344 -856 2625 -561 
Q 2906 -266 2906 331 
L 2906 616 
Q 2728 306 2450 153 
Q 2172 0 1784 0 
Q 1141 0 747 490 
Q 353 981 353 1791 
Q 353 2603 747 3093 
Q 1141 3584 1784 3584 
Q 2172 3584 2450 3431 
Q 2728 3278 2906 2969 
L 2906 3500 
L 3481 3500 
L 3481 434 
z
" transform="scale(0.015625)"/>
       <path id="DejaVuSans-65" d="M 3597 1894 
L 3597 1613 
L 953 1613 
Q 991 1019 1311 708 
Q 1631 397 2203 397 
Q 2534 397 2845 478 
Q 3156 559 3463 722 
L 3463 178 
Q 3153 47 2828 -22 
Q 2503 -91 2169 -91 
Q 1331 -91 842 396 
Q 353 884 353 1716 
Q 353 2575 817 3079 
Q 1281 3584 2069 3584 
Q 2775 3584 3186 3129 
Q 3597 2675 3597 1894 
z
M 3022 2063 
Q 3016 2534 2758 2815 
Q 2500 3097 2075 3097 
Q 1594 3097 1305 2825 
Q 1016 2553 972 2059 
L 3022 2063 
z
" transform="scale(0.015625)"/>
       <path id="DejaVuSans-61" d="M 2194 1759 
Q 1497 1759 1228 1600 
Q 959 1441 959 1056 
Q 959 750 1161 570 
Q 1363 391 1709 391 
Q 2188 391 2477 730 
Q 2766 1069 2766 1631 
L 2766 1759 
L 2194 1759 
z
M 3341 1997 
L 3341 0 
L 2766 0 
L 2766 531 
Q 2569 213 2275 61 
Q 1981 -91 1556 -91 
Q 1019 -91 701 211 
Q 384 513 384 1019 
Q 384 1609 779 1909 
Q 1175 2209 1959 2209 
L 2766 2209 
L 2766 2266 
Q 2766 2663 2505 2880 
Q 2244 3097 1772 3097 
Q 1472 3097 1187 3025 
Q 903 2953 641 2809 
L 641 3341 
Q 956 3463 1253 3523 
Q 1550 3584 1831 3584 
Q 2591 3584 2966 3190 
Q 3341 2797 3341 1997 
z
" transform="scale(0.015625)"/>
       <path id="DejaVuSans-6e" d="M 3513 2113 
L 3513 0 
L 2938 0 
L 2938 2094 
Q 2938 2591 2744 2837 
Q 2550 3084 2163 3084 
Q 1697 3084 1428 2787 
Q 1159 2491 1159 1978 
L 1159 0 
L 581 0 
L 581 3500 
L 1159 3500 
L 1159 2956 
Q 1366 3272 1645 3428 
Q 1925 3584 2291 3584 
Q 2894 3584 3203 3211 
Q 3513 2838 3513 2113 
z
" transform="scale(0.015625)"/>
       <path id="DejaVuSans-29" d="M 513 4856 
L 1013 4856 
Q 1481 4119 1714 3412 
Q 1947 2706 1947 2009 
Q 1947 1309 1714 600 
Q 1481 -109 1013 -844 
L 513 -844 
Q 928 -128 1133 580 
Q 1338 1288 1338 2009 
Q 1338 2731 1133 3434 
Q 928 4138 513 4856 
z
" transform="scale(0.015625)"/>
      </defs>
      <use xlink:href="#DejaVuSans-28"/>
      <use xlink:href="#DejaVuSans-67" x="39.013672"/>
      <use xlink:href="#DejaVuSans-6d" x="102.490234"/>
      <use xlink:href="#DejaVuSans-65" x="199.902344"/>
      <use xlink:href="#DejaVuSans-61" x="261.425781"/>
      <use xlink:href="#DejaVuSans-6e" x="322.705078"/>
      <use xlink:href="#DejaVuSans-29" x="386.083984"/>
     </g>
    </g>
   </g>
   <g id="matplotlib.axis_2">
    <g id="ytick_1">
     <g id="line2d_5">
      <defs>
       <path id="m024598f83b" d="M 0 0 
L -3.5 0 
" style="stroke: #000000; stroke-width: 0.8"/>
      </defs>
      <g>
       <use xlink:href="#m024598f83b" x="58.163438" y="153.53798" style="stroke: #000000; stroke-width: 0.8"/>
      </g>
     </g>
     <g id="text_6">
      <!-- 50 -->
      <g transform="translate(38.438437 157.337199)scale(0.1 -0.1)">
       <defs>
        <path id="DejaVuSans-35" d="M 691 4666 
L 3169 4666 
L 3169 4134 
L 1269 4134 
L 1269 2991 
Q 1406 3038 1543 3061 
Q 1681 3084 1819 3084 
Q 2600 3084 3056 2656 
Q 3513 2228 3513 1497 
Q 3513 744 3044 326 
Q 2575 -91 1722 -91 
Q 1428 -91 1123 -41 
Q 819 9 494 109 
L 494 744 
Q 775 591 1075 516 
Q 1375 441 1709 441 
Q 2250 441 2565 725 
Q 2881 1009 2881 1497 
Q 2881 1984 2565 2268 
Q 2250 2553 1709 2553 
Q 1456 2553 1204 2497 
Q 953 2441 691 2322 
L 691 4666 
z
" transform="scale(0.015625)"/>
       </defs>
       <use xlink:href="#DejaVuSans-35"/>
       <use xlink:href="#DejaVuSans-30" x="63.623047"/>
      </g>
     </g>
    </g>
    <g id="ytick_2">
     <g id="line2d_6">
      <g>
       <use xlink:href="#m024598f83b" x="58.163438" y="118.527735" style="stroke: #000000; stroke-width: 0.8"/>
      </g>
     </g>
     <g id="text_7">
      <!-- 100 -->
      <g transform="translate(32.075937 122.326954)scale(0.1 -0.1)">
       <use xlink:href="#DejaVuSans-31"/>
       <use xlink:href="#DejaVuSans-30" x="63.623047"/>
       <use xlink:href="#DejaVuSans-30" x="127.246094"/>
      </g>
     </g>
    </g>
    <g id="ytick_3">
     <g id="line2d_7">
      <g>
       <use xlink:href="#m024598f83b" x="58.163438" y="83.51749" style="stroke: #000000; stroke-width: 0.8"/>
      </g>
     </g>
     <g id="text_8">
      <!-- 150 -->
      <g transform="translate(32.075937 87.316709)scale(0.1 -0.1)">
       <use xlink:href="#DejaVuSans-31"/>
       <use xlink:href="#DejaVuSans-35" x="63.623047"/>
       <use xlink:href="#DejaVuSans-30" x="127.246094"/>
      </g>
     </g>
    </g>
    <g id="ytick_4">
     <g id="line2d_8">
      <g>
       <use xlink:href="#m024598f83b" x="58.163438" y="48.507246" style="stroke: #000000; stroke-width: 0.8"/>
      </g>
     </g>
     <g id="text_9">
      <!-- 200 -->
      <g transform="translate(32.075937 52.306464)scale(0.1 -0.1)">
       <use xlink:href="#DejaVuSans-32"/>
       <use xlink:href="#DejaVuSans-30" x="63.623047"/>
       <use xlink:href="#DejaVuSans-30" x="127.246094"/>
      </g>
     </g>
    </g>
    <g id="text_10">
     <!-- (%) iMN yield -->
     <g transform="translate(14.798437 137.120625)rotate(-90)scale(0.1 -0.1)">
      <defs>
       <path id="DejaVuSans-25" d="M 4653 2053 
Q 4381 2053 4226 1822 
Q 4072 1591 4072 1178 
Q 4072 772 4226 539 
Q 4381 306 4653 306 
Q 4919 306 5073 539 
Q 5228 772 5228 1178 
Q 5228 1588 5073 1820 
Q 4919 2053 4653 2053 
z
M 4653 2450 
Q 5147 2450 5437 2106 
Q 5728 1763 5728 1178 
Q 5728 594 5436 251 
Q 5144 -91 4653 -91 
Q 4153 -91 3862 251 
Q 3572 594 3572 1178 
Q 3572 1766 3864 2108 
Q 4156 2450 4653 2450 
z
M 1428 4353 
Q 1159 4353 1004 4120 
Q 850 3888 850 3481 
Q 850 3069 1003 2837 
Q 1156 2606 1428 2606 
Q 1700 2606 1854 2837 
Q 2009 3069 2009 3481 
Q 2009 3884 1853 4118 
Q 1697 4353 1428 4353 
z
M 4250 4750 
L 4750 4750 
L 1831 -91 
L 1331 -91 
L 4250 4750 
z
M 1428 4750 
Q 1922 4750 2215 4408 
Q 2509 4066 2509 3481 
Q 2509 2891 2217 2550 
Q 1925 2209 1428 2209 
Q 931 2209 642 2551 
Q 353 2894 353 3481 
Q 353 4063 643 4406 
Q 934 4750 1428 4750 
z
" transform="scale(0.015625)"/>
       <path id="DejaVuSans-4d" d="M 628 4666 
L 1569 4666 
L 2759 1491 
L 3956 4666 
L 4897 4666 
L 4897 0 
L 4281 0 
L 4281 4097 
L 3078 897 
L 2444 897 
L 1241 4097 
L 1241 0 
L 628 0 
L 628 4666 
z
" transform="scale(0.015625)"/>
       <path id="DejaVuSans-4e" d="M 628 4666 
L 1478 4666 
L 3547 763 
L 3547 4666 
L 4159 4666 
L 4159 0 
L 3309 0 
L 1241 3903 
L 1241 0 
L 628 0 
L 628 4666 
z
" transform="scale(0.015625)"/>
       <path id="DejaVuSans-6c" d="M 603 4863 
L 1178 4863 
L 1178 0 
L 603 0 
L 603 4863 
z
" transform="scale(0.015625)"/>
      </defs>
      <use xlink:href="#DejaVuSans-28"/>
      <use xlink:href="#DejaVuSans-25" x="39.013672"/>
      <use xlink:href="#DejaVuSans-29" x="134.033203"/>
      <use xlink:href="#DejaVuSans-20" x="173.046875"/>
      <use xlink:href="#DejaVuSans-69" x="204.833984"/>
      <use xlink:href="#DejaVuSans-4d" x="232.617188"/>
      <use xlink:href="#DejaVuSans-4e" x="318.896484"/>
      <use xlink:href="#DejaVuSans-20" x="393.701172"/>
      <use xlink:href="#DejaVuSans-79" x="425.488281"/>
      <use xlink:href="#DejaVuSans-69" x="484.667969"/>
      <use xlink:href="#DejaVuSans-65" x="512.451172"/>
      <use xlink:href="#DejaVuSans-6c" x="573.974609"/>
      <use xlink:href="#DejaVuSans-64" x="601.757812"/>
     </g>
     <!-- per MEF plated -->
     <g transform="translate(25.99625 141.53)rotate(-90)scale(0.1 -0.1)">
      <defs>
       <path id="DejaVuSans-72" d="M 2631 2963 
Q 2534 3019 2420 3045 
Q 2306 3072 2169 3072 
Q 1681 3072 1420 2755 
Q 1159 2438 1159 1844 
L 1159 0 
L 581 0 
L 581 3500 
L 1159 3500 
L 1159 2956 
Q 1341 3275 1631 3429 
Q 1922 3584 2338 3584 
Q 2397 3584 2469 3576 
Q 2541 3569 2628 3553 
L 2631 2963 
z
" transform="scale(0.015625)"/>
       <path id="DejaVuSans-45" d="M 628 4666 
L 3578 4666 
L 3578 4134 
L 1259 4134 
L 1259 2753 
L 3481 2753 
L 3481 2222 
L 1259 2222 
L 1259 531 
L 3634 531 
L 3634 0 
L 628 0 
L 628 4666 
z
" transform="scale(0.015625)"/>
       <path id="DejaVuSans-46" d="M 628 4666 
L 3309 4666 
L 3309 4134 
L 1259 4134 
L 1259 2759 
L 3109 2759 
L 3109 2228 
L 1259 2228 
L 1259 0 
L 628 0 
L 628 4666 
z
" transform="scale(0.015625)"/>
       <path id="DejaVuSans-74" d="M 1172 4494 
L 1172 3500 
L 2356 3500 
L 2356 3053 
L 1172 3053 
L 1172 1153 
Q 1172 725 1289 603 
Q 1406 481 1766 481 
L 2356 481 
L 2356 0 
L 1766 0 
Q 1100 0 847 248 
Q 594 497 594 1153 
L 594 3053 
L 172 3053 
L 172 3500 
L 594 3500 
L 594 4494 
L 1172 4494 
z
" transform="scale(0.015625)"/>
      </defs>
      <use xlink:href="#DejaVuSans-70"/>
      <use xlink:href="#DejaVuSans-65" x="63.476562"/>
      <use xlink:href="#DejaVuSans-72" x="125"/>
      <use xlink:href="#DejaVuSans-20" x="166.113281"/>
      <use xlink:href="#DejaVuSans-4d" x="197.900391"/>
      <use xlink:href="#DejaVuSans-45" x="284.179688"/>
      <use xlink:href="#DejaVuSans-46" x="347.363281"/>
      <use xlink:href="#DejaVuSans-20" x="404.882812"/>
      <use xlink:href="#DejaVuSans-70" x="436.669922"/>
      <use xlink:href="#DejaVuSans-6c" x="500.146484"/>
      <use xlink:href="#DejaVuSans-61" x="527.929688"/>
      <use xlink:href="#DejaVuSans-74" x="589.208984"/>
      <use xlink:href="#DejaVuSans-65" x="628.417969"/>
      <use xlink:href="#DejaVuSans-64" x="689.941406"/>
     </g>
    </g>
   </g>
   <g id="line2d_9">
    <path d="M 103.05719 71.654907 
L 104.091791 72.122545 
L 105.126392 72.590183 
L 106.160993 73.057821 
L 107.195594 73.525459 
L 108.230195 73.993097 
L 109.264796 74.460735 
L 110.299397 74.928373 
L 111.333998 75.396011 
L 112.368598 75.863649 
L 113.403199 76.331287 
L 114.4378 76.798925 
L 115.472401 77.266563 
L 116.507002 77.734202 
L 117.541603 78.20184 
L 118.576204 78.669478 
L 119.610805 79.137116 
L 120.645406 79.604754 
L 121.680007 80.072392 
L 122.714608 80.54003 
L 123.749209 81.007668 
L 124.783809 81.475306 
L 125.81841 81.942944 
L 126.853011 82.410582 
L 127.887612 82.87822 
L 128.922213 83.345858 
L 129.956814 83.813496 
L 130.991415 84.281134 
L 132.026016 84.748772 
L 133.060617 85.21641 
L 134.095218 85.684048 
L 135.129819 86.151686 
L 136.16442 86.619324 
L 137.199021 87.086962 
L 138.233621 87.5546 
L 139.268222 88.022238 
L 140.302823 88.489876 
L 141.337424 88.957515 
L 142.372025 89.425153 
L 143.406626 89.892791 
L 144.441227 90.360429 
L 145.475828 90.828067 
L 146.510429 91.295705 
L 147.54503 91.763343 
L 148.579631 92.230981 
L 149.614232 92.698619 
L 150.648832 93.166257 
L 151.683433 93.633895 
L 152.718034 94.101533 
L 153.752635 94.569171 
L 154.787236 95.036809 
L 155.821837 95.504447 
L 156.856438 95.972085 
L 157.891039 96.439723 
L 158.92564 96.907361 
L 159.960241 97.374999 
L 160.994842 97.842637 
L 162.029443 98.310275 
L 163.064044 98.777913 
L 164.098644 99.245551 
L 165.133245 99.713189 
L 166.167846 100.180827 
L 167.202447 100.648466 
L 168.237048 101.116104 
L 169.271649 101.583742 
L 170.30625 102.05138 
L 171.340851 102.519018 
L 172.375452 102.986656 
L 173.410053 103.454294 
L 174.444654 103.921932 
L 175.479255 104.38957 
L 176.513855 104.857208 
L 177.548456 105.324846 
L 178.583057 105.792484 
L 179.617658 106.260122 
L 180.652259 106.72776 
L 181.68686 107.195398 
L 182.721461 107.663036 
L 183.756062 108.130674 
L 184.790663 108.598312 
L 185.825264 109.06595 
L 186.859865 109.533588 
L 187.894466 110.001226 
L 188.929067 110.468864 
L 189.963667 110.936502 
L 190.998268 111.40414 
L 192.032869 111.871779 
L 193.06747 112.339417 
L 194.102071 112.807055 
L 195.136672 113.274693 
L 196.171273 113.742331 
L 197.205874 114.209969 
L 198.240475 114.677607 
L 199.275076 115.145245 
L 200.309677 115.612883 
L 201.344278 116.080521 
L 202.378878 116.548159 
L 203.413479 117.015797 
L 204.44808 117.483435 
L 205.482681 117.951073 
" clip-path="url(#p1b781d79e1)" style="fill: none; stroke: #498ac6; stroke-width: 2.25; stroke-linecap: square"/>
   </g>
   <g id="LineCollection_1">
    <path d="M 145.996719 96.398927 
L 169.219816 96.398927 
" clip-path="url(#p1b781d79e1)" style="fill: none; stroke: #000000; stroke-width: 0.5"/>
    <path d="M 114.475886 68.876206 
L 147.718912 68.876206 
" clip-path="url(#p1b781d79e1)" style="fill: none; stroke: #000000; stroke-width: 0.5"/>
    <path d="M 116.029746 57.234133 
L 125.329335 57.234133 
" clip-path="url(#p1b781d79e1)" style="fill: none; stroke: #000000; stroke-width: 0.5"/>
    <path d="M 126.749524 105.868031 
L 133.219594 105.868031 
" clip-path="url(#p1b781d79e1)" style="fill: none; stroke: #000000; stroke-width: 0.5"/>
    <path d="M 118.78609 61.036245 
L 119.49419 61.036245 
" clip-path="url(#p1b781d79e1)" style="fill: none; stroke: #000000; stroke-width: 0.5"/>
    <path d="M 96.912941 33.914975 
L 109.20144 33.914975 
" clip-path="url(#p1b781d79e1)" style="fill: none; stroke: #000000; stroke-width: 0.5"/>
    <path d="M 105.281994 50.012686 
L 111.78147 50.012686 
" clip-path="url(#p1b781d79e1)" style="fill: none; stroke: #000000; stroke-width: 0.5"/>
    <path d="M 107.811425 92.10667 
L 118.304502 92.10667 
" clip-path="url(#p1b781d79e1)" style="fill: none; stroke: #000000; stroke-width: 0.5"/>
    <path d="M 141.292659 98.436523 
L 161.048074 98.436523 
" clip-path="url(#p1b781d79e1)" style="fill: none; stroke: #000000; stroke-width: 0.5"/>
    <path d="M 119.284103 79.664029 
L 152.305993 79.664029 
" clip-path="url(#p1b781d79e1)" style="fill: none; stroke: #000000; stroke-width: 0.5"/>
    <path d="M 142.055988 73.404198 
L 165.756971 73.404198 
" clip-path="url(#p1b781d79e1)" style="fill: none; stroke: #000000; stroke-width: 0.5"/>
    <path d="M 150.027982 121.081149 
L 173.482037 121.081149 
" clip-path="url(#p1b781d79e1)" style="fill: none; stroke: #000000; stroke-width: 0.5"/>
    <path d="M 147.979491 82.124083 
L 158.838401 82.124083 
" clip-path="url(#p1b781d79e1)" style="fill: none; stroke: #000000; stroke-width: 0.5"/>
    <path d="M 118.308094 65.244477 
L 153.413947 65.244477 
" clip-path="url(#p1b781d79e1)" style="fill: none; stroke: #000000; stroke-width: 0.5"/>
    <path d="M 180.530861 82.765937 
L 202.498242 82.765937 
" clip-path="url(#p1b781d79e1)" style="fill: none; stroke: #000000; stroke-width: 0.5"/>
    <path d="M 193.011016 134.807499 
L 217.954347 134.807499 
" clip-path="url(#p1b781d79e1)" style="fill: none; stroke: #000000; stroke-width: 0.5"/>
    <path d="M 130.971443 86.558714 
L 150.829698 86.558714 
" clip-path="url(#p1b781d79e1)" style="fill: none; stroke: #000000; stroke-width: 0.5"/>
    <path d="M 105.076963 59.379094 
L 126.802191 59.379094 
" clip-path="url(#p1b781d79e1)" style="fill: none; stroke: #000000; stroke-width: 0.5"/>
    <path d="M 122.154552 81.991044 
L 133.46943 81.991044 
" clip-path="url(#p1b781d79e1)" style="fill: none; stroke: #000000; stroke-width: 0.5"/>
    <path d="M 134.632375 108.202047 
L 151.84086 108.202047 
" clip-path="url(#p1b781d79e1)" style="fill: none; stroke: #000000; stroke-width: 0.5"/>
    <path d="M 152.651196 100.994605 
L 164.878753 100.994605 
" clip-path="url(#p1b781d79e1)" style="fill: none; stroke: #000000; stroke-width: 0.5"/>
    <path d="M 133.774051 111.098561 
L 145.995132 111.098561 
" clip-path="url(#p1b781d79e1)" style="fill: none; stroke: #000000; stroke-width: 0.5"/>
    <path d="M 106.402235 106.173787 
L 111.782109 106.173787 
" clip-path="url(#p1b781d79e1)" style="fill: none; stroke: #000000; stroke-width: 0.5"/>
    <path d="M 110.037263 145.303571 
L 115.86151 145.303571 
" clip-path="url(#p1b781d79e1)" style="fill: none; stroke: #000000; stroke-width: 0.5"/>
   </g>
   <g id="LineCollection_2">
    <path d="M 157.608267 104.242755 
L 157.608267 88.555098 
" clip-path="url(#p1b781d79e1)" style="fill: none; stroke: #000000; stroke-width: 0.5"/>
    <path d="M 131.097399 77.168415 
L 131.097399 60.583997 
" clip-path="url(#p1b781d79e1)" style="fill: none; stroke: #000000; stroke-width: 0.5"/>
    <path d="M 120.67954 68.717645 
L 120.67954 45.75062 
" clip-path="url(#p1b781d79e1)" style="fill: none; stroke: #000000; stroke-width: 0.5"/>
    <path d="M 129.984559 110.404645 
L 129.984559 101.331416 
" clip-path="url(#p1b781d79e1)" style="fill: none; stroke: #000000; stroke-width: 0.5"/>
    <path d="M 119.14014 75.613658 
L 119.14014 46.458832 
" clip-path="url(#p1b781d79e1)" style="fill: none; stroke: #000000; stroke-width: 0.5"/>
    <path d="M 103.05719 38.099099 
L 103.05719 29.730852 
" clip-path="url(#p1b781d79e1)" style="fill: none; stroke: #000000; stroke-width: 0.5"/>
    <path d="M 108.531732 58.457564 
L 108.531732 41.567808 
" clip-path="url(#p1b781d79e1)" style="fill: none; stroke: #000000; stroke-width: 0.5"/>
    <path d="M 113.057963 106.814541 
L 113.057963 77.3988 
" clip-path="url(#p1b781d79e1)" style="fill: none; stroke: #000000; stroke-width: 0.5"/>
    <path d="M 151.170367 107.379775 
L 151.170367 89.49327 
" clip-path="url(#p1b781d79e1)" style="fill: none; stroke: #000000; stroke-width: 0.5"/>
    <path d="M 135.795048 83.163376 
L 135.795048 76.164683 
" clip-path="url(#p1b781d79e1)" style="fill: none; stroke: #000000; stroke-width: 0.5"/>
    <path d="M 153.906479 85.11494 
L 153.906479 61.693455 
" clip-path="url(#p1b781d79e1)" style="fill: none; stroke: #000000; stroke-width: 0.5"/>
    <path d="M 161.755009 123.682924 
L 161.755009 118.479374 
" clip-path="url(#p1b781d79e1)" style="fill: none; stroke: #000000; stroke-width: 0.5"/>
    <path d="M 153.408946 88.912854 
L 153.408946 75.335312 
" clip-path="url(#p1b781d79e1)" style="fill: none; stroke: #000000; stroke-width: 0.5"/>
    <path d="M 135.861021 73.82348 
L 135.861021 56.665474 
" clip-path="url(#p1b781d79e1)" style="fill: none; stroke: #000000; stroke-width: 0.5"/>
    <path d="M 191.514551 93.168478 
L 191.514551 72.363396 
" clip-path="url(#p1b781d79e1)" style="fill: none; stroke: #000000; stroke-width: 0.5"/>
    <path d="M 205.482681 139.814984 
L 205.482681 129.800014 
" clip-path="url(#p1b781d79e1)" style="fill: none; stroke: #000000; stroke-width: 0.5"/>
    <path d="M 140.900571 92.163877 
L 140.900571 80.953551 
" clip-path="url(#p1b781d79e1)" style="fill: none; stroke: #000000; stroke-width: 0.5"/>
    <path d="M 115.939577 67.076399 
L 115.939577 51.681788 
" clip-path="url(#p1b781d79e1)" style="fill: none; stroke: #000000; stroke-width: 0.5"/>
    <path d="M 127.811991 97.974379 
L 127.811991 66.007709 
" clip-path="url(#p1b781d79e1)" style="fill: none; stroke: #000000; stroke-width: 0.5"/>
    <path d="M 143.236617 111.485563 
L 143.236617 104.918531 
" clip-path="url(#p1b781d79e1)" style="fill: none; stroke: #000000; stroke-width: 0.5"/>
    <path d="M 158.764975 104.765677 
L 158.764975 97.223533 
" clip-path="url(#p1b781d79e1)" style="fill: none; stroke: #000000; stroke-width: 0.5"/>
    <path d="M 139.884591 117.359428 
L 139.884591 104.837694 
" clip-path="url(#p1b781d79e1)" style="fill: none; stroke: #000000; stroke-width: 0.5"/>
    <path d="M 109.092172 112.649402 
L 109.092172 99.698172 
" clip-path="url(#p1b781d79e1)" style="fill: none; stroke: #000000; stroke-width: 0.5"/>
    <path d="M 112.949387 146.86442 
L 112.949387 143.742721 
" clip-path="url(#p1b781d79e1)" style="fill: none; stroke: #000000; stroke-width: 0.5"/>
   </g>
   <g id="LineCollection_3">
    <path d="M 67.496279 166.403078 
L 68.138256 166.403078 
" clip-path="url(#p1b781d79e1)" style="fill: none; stroke: #000000; stroke-width: 0.5"/>
    <path d="M 65.772528 176.070574 
L 66.082775 176.070574 
" clip-path="url(#p1b781d79e1)" style="fill: none; stroke: #000000; stroke-width: 0.5"/>
    <path d="M 68.236678 160.771097 
L 68.467856 160.771097 
" clip-path="url(#p1b781d79e1)" style="fill: none; stroke: #000000; stroke-width: 0.5"/>
    <path d="M 68.615866 176.9575 
L 68.753837 176.9575 
" clip-path="url(#p1b781d79e1)" style="fill: none; stroke: #000000; stroke-width: 0.5"/>
   </g>
   <g id="LineCollection_4">
    <path d="M 67.817268 167.33308 
L 67.817268 165.473076 
" clip-path="url(#p1b781d79e1)" style="fill: none; stroke: #000000; stroke-width: 0.5"/>
    <path d="M 65.927652 176.854584 
L 65.927652 175.286563 
" clip-path="url(#p1b781d79e1)" style="fill: none; stroke: #000000; stroke-width: 0.5"/>
    <path d="M 68.352267 167.413131 
L 68.352267 154.129062 
" clip-path="url(#p1b781d79e1)" style="fill: none; stroke: #000000; stroke-width: 0.5"/>
    <path d="M 68.684852 177.985398 
L 68.684852 175.929602 
" clip-path="url(#p1b781d79e1)" style="fill: none; stroke: #000000; stroke-width: 0.5"/>
   </g>
   <g id="line2d_10">
    <path d="M 157.608267 96.398927 
L 131.097399 68.876206 
L 120.67954 57.234133 
L 129.984559 105.868031 
L 119.14014 61.036245 
L 103.05719 33.914975 
L 108.531732 50.012686 
L 113.057963 92.10667 
L 151.170367 98.436523 
L 135.795048 79.664029 
L 153.906479 73.404198 
L 161.755009 121.081149 
L 153.408946 82.124083 
L 135.861021 65.244477 
L 191.514551 82.765937 
L 205.482681 134.807499 
L 140.900571 86.558714 
L 115.939577 59.379094 
L 127.811991 81.991044 
L 143.236617 108.202047 
L 158.764975 100.994605 
L 139.884591 111.098561 
L 109.092172 106.173787 
L 112.949387 145.303571 
" clip-path="url(#p1b781d79e1)" style="fill: none; stroke: #000000; stroke-opacity: 0; stroke-width: 1.5; stroke-linecap: square"/>
   </g>
   <g id="line2d_11">
    <path d="M 67.817268 166.403078 
L 65.927652 176.070574 
L 68.352267 160.771097 
L 68.684852 176.9575 
" clip-path="url(#p1b781d79e1)" style="fill: none; stroke: #000000; stroke-opacity: 0; stroke-width: 1.5; stroke-linecap: square"/>
   </g>
   <g id="patch_3">
    <path d="M 58.163438 185.398125 
L 58.163438 22.318125 
" style="fill: none; stroke: #000000; stroke-width: 0.8; stroke-linejoin: miter; stroke-linecap: square"/>
   </g>
   <g id="patch_4">
    <path d="M 225.563438 185.398125 
L 225.563438 22.318125 
" style="fill: none; stroke: #000000; stroke-width: 0.8; stroke-linejoin: miter; stroke-linecap: square"/>
   </g>
   <g id="patch_5">
    <path d="M 58.163438 185.398125 
L 225.563438 185.398125 
" style="fill: none; stroke: #000000; stroke-width: 0.8; stroke-linejoin: miter; stroke-linecap: square"/>
   </g>
   <g id="patch_6">
    <path d="M 58.163438 22.318125 
L 225.563438 22.318125 
" style="fill: none; stroke: #000000; stroke-width: 0.8; stroke-linejoin: miter; stroke-linecap: square"/>
   </g>
   <g id="text_11">
    <!-- No -->
    <g transform="translate(74.903438 166.046312)scale(0.1 -0.1)">
     <defs>
      <path id="DejaVuSans-6f" d="M 1959 3097 
Q 1497 3097 1228 2736 
Q 959 2375 959 1747 
Q 959 1119 1226 758 
Q 1494 397 1959 397 
Q 2419 397 2687 759 
Q 2956 1122 2956 1747 
Q 2956 2369 2687 2733 
Q 2419 3097 1959 3097 
z
M 1959 3584 
Q 2709 3584 3137 3096 
Q 3566 2609 3566 1747 
Q 3566 888 3137 398 
Q 2709 -91 1959 -91 
Q 1206 -91 779 398 
Q 353 888 353 1747 
Q 353 2609 779 3096 
Q 1206 3584 1959 3584 
z
" transform="scale(0.015625)"/>
     </defs>
     <use xlink:href="#DejaVuSans-4e"/>
     <use xlink:href="#DejaVuSans-6f" x="74.804688"/>
    </g>
    <!-- Lhx3 -->
    <g transform="translate(74.903438 177.244125)scale(0.1 -0.1)">
     <defs>
      <path id="DejaVuSans-4c" d="M 628 4666 
L 1259 4666 
L 1259 531 
L 3531 531 
L 3531 0 
L 628 0 
L 628 4666 
z
" transform="scale(0.015625)"/>
      <path id="DejaVuSans-68" d="M 3513 2113 
L 3513 0 
L 2938 0 
L 2938 2094 
Q 2938 2591 2744 2837 
Q 2550 3084 2163 3084 
Q 1697 3084 1428 2787 
Q 1159 2491 1159 1978 
L 1159 0 
L 581 0 
L 581 4863 
L 1159 4863 
L 1159 2956 
Q 1366 3272 1645 3428 
Q 1925 3584 2291 3584 
Q 2894 3584 3203 3211 
Q 3513 2838 3513 2113 
z
" transform="scale(0.015625)"/>
      <path id="DejaVuSans-78" d="M 3513 3500 
L 2247 1797 
L 3578 0 
L 2900 0 
L 1881 1375 
L 863 0 
L 184 0 
L 1544 1831 
L 300 3500 
L 978 3500 
L 1906 2253 
L 2834 3500 
L 3513 3500 
z
" transform="scale(0.015625)"/>
     </defs>
     <use xlink:href="#DejaVuSans-4c"/>
     <use xlink:href="#DejaVuSans-68" x="55.712891"/>
     <use xlink:href="#DejaVuSans-78" x="119.091797"/>
     <use xlink:href="#DejaVuSans-33" x="178.271484"/>
    </g>
   </g>
   <g id="text_12">
    <!-- r = -0.43 -->
    <g transform="translate(66.533438 38.626125)scale(0.1 -0.1)">
     <defs>
      <path id="DejaVuSans-3d" d="M 678 2906 
L 4684 2906 
L 4684 2381 
L 678 2381 
L 678 2906 
z
M 678 1631 
L 4684 1631 
L 4684 1100 
L 678 1100 
L 678 1631 
z
" transform="scale(0.015625)"/>
      <path id="DejaVuSans-2d" d="M 313 2009 
L 1997 2009 
L 1997 1497 
L 313 1497 
L 313 2009 
z
" transform="scale(0.015625)"/>
      <path id="DejaVuSans-2e" d="M 684 794 
L 1344 794 
L 1344 0 
L 684 0 
L 684 794 
z
" transform="scale(0.015625)"/>
     </defs>
     <use xlink:href="#DejaVuSans-72"/>
     <use xlink:href="#DejaVuSans-20" x="41.113281"/>
     <use xlink:href="#DejaVuSans-3d" x="72.900391"/>
     <use xlink:href="#DejaVuSans-20" x="156.689453"/>
     <use xlink:href="#DejaVuSans-2d" x="188.476562"/>
     <use xlink:href="#DejaVuSans-30" x="224.560547"/>
     <use xlink:href="#DejaVuSans-2e" x="288.183594"/>
     <use xlink:href="#DejaVuSans-34" x="319.970703"/>
     <use xlink:href="#DejaVuSans-33" x="383.59375"/>
    </g>
   </g>
   <g id="text_13">
    <!-- Lhx3 -->
    <g transform="translate(127.349063 16.318125)scale(0.12 -0.12)">
     <use xlink:href="#DejaVuSans-4c"/>
     <use xlink:href="#DejaVuSans-68" x="55.712891"/>
     <use xlink:href="#DejaVuSans-78" x="119.091797"/>
     <use xlink:href="#DejaVuSans-33" x="178.271484"/>
    </g>
   </g>
  </g>
 </g>
 <defs>
  <clipPath id="p1b781d79e1">
   <rect x="58.163438" y="22.318125" width="167.4" height="163.08"/>
  </clipPath>
 </defs>
</svg>
