<?xml version="1.0" encoding="utf-8" standalone="no"?>
<!DOCTYPE svg PUBLIC "-//W3C//DTD SVG 1.1//EN"
  "http://www.w3.org/Graphics/SVG/1.1/DTD/svg11.dtd">
<svg xmlns:xlink="http://www.w3.org/1999/xlink" width="232.763437pt" height="234.152188pt" viewBox="0 0 232.763437 234.152188" xmlns="http://www.w3.org/2000/svg" version="1.1">
 <metadata>
  <rdf:RDF xmlns:dc="http://purl.org/dc/elements/1.1/" xmlns:cc="http://creativecommons.org/ns#" xmlns:rdf="http://www.w3.org/1999/02/22-rdf-syntax-ns#">
   <cc:Work>
    <dc:type rdf:resource="http://purl.org/dc/dcmitype/StillImage"/>
    <dc:date>2025-01-26T16:00:44.004100</dc:date>
    <dc:format>image/svg+xml</dc:format>
    <dc:creator>
     <cc:Agent>
      <dc:title>Matplotlib v3.5.2, https://matplotlib.org/</dc:title>
     </cc:Agent>
    </dc:creator>
   </cc:Work>
  </rdf:RDF>
 </metadata>
 <defs>
  <style type="text/css">*{stroke-linejoin: round; stroke-linecap: butt}</style>
 </defs>
 <g id="figure_1">
  <g id="patch_1">
   <path d="M 0 234.152188 
L 232.763437 234.152188 
L 232.763437 -0 
L 0 -0 
L 0 234.152188 
z
" style="fill: none"/>
  </g>
  <g id="axes_1">
   <g id="patch_2">
    <path d="M 58.163438 185.398125 
L 225.563438 185.398125 
L 225.563438 22.318125 
L 58.163438 22.318125 
z
" style="fill: #ffffff"/>
   </g>
   <g id="PathCollection_1">
    <defs>
     <path id="m610c8d7332" d="M 0 3 
C 0.795609 3 1.55874 2.683901 2.12132 2.12132 
C 2.683901 1.55874 3 0.795609 3 0 
C 3 -0.795609 2.683901 -1.55874 2.12132 -2.12132 
C 1.55874 -2.683901 0.795609 -3 0 -3 
C -0.795609 -3 -1.55874 -2.683901 -2.12132 -2.12132 
C -2.683901 -1.55874 -3 -0.795609 -3 0 
C -3 0.795609 -2.683901 1.55874 -2.12132 2.12132 
C -1.55874 2.683901 -0.795609 3 0 3 
z
" style="stroke: #ec8063; stroke-opacity: 0.8"/>
    </defs>
    <g clip-path="url(#p4a08f4d7e9)">
     <use xlink:href="#m610c8d7332" x="172.968418" y="93.057188" style="fill: #ec8063; fill-opacity: 0.8; stroke: #ec8063; stroke-opacity: 0.8"/>
     <use xlink:href="#m610c8d7332" x="137.456464" y="111.77675" style="fill: #ec8063; fill-opacity: 0.8; stroke: #ec8063; stroke-opacity: 0.8"/>
     <use xlink:href="#m610c8d7332" x="197.263685" y="64.365779" style="fill: #ec8063; fill-opacity: 0.8; stroke: #ec8063; stroke-opacity: 0.8"/>
     <use xlink:href="#m610c8d7332" x="149.849655" y="66.159912" style="fill: #ec8063; fill-opacity: 0.8; stroke: #ec8063; stroke-opacity: 0.8"/>
     <use xlink:href="#m610c8d7332" x="96.199568" y="126.474761" style="fill: #ec8063; fill-opacity: 0.8; stroke: #ec8063; stroke-opacity: 0.8"/>
     <use xlink:href="#m610c8d7332" x="83.520324" y="94.914421" style="fill: #ec8063; fill-opacity: 0.8; stroke: #ec8063; stroke-opacity: 0.8"/>
     <use xlink:href="#m610c8d7332" x="109.615214" y="84.572389" style="fill: #ec8063; fill-opacity: 0.8; stroke: #ec8063; stroke-opacity: 0.8"/>
     <use xlink:href="#m610c8d7332" x="90.603421" y="44.59666" style="fill: #ec8063; fill-opacity: 0.8; stroke: #ec8063; stroke-opacity: 0.8"/>
     <use xlink:href="#m610c8d7332" x="134.295455" y="103.611655" style="fill: #ec8063; fill-opacity: 0.8; stroke: #ec8063; stroke-opacity: 0.8"/>
     <use xlink:href="#m610c8d7332" x="102.761752" y="105.961066" style="fill: #ec8063; fill-opacity: 0.8; stroke: #ec8063; stroke-opacity: 0.8"/>
     <use xlink:href="#m610c8d7332" x="155.153878" y="67.611204" style="fill: #ec8063; fill-opacity: 0.8; stroke: #ec8063; stroke-opacity: 0.8"/>
     <use xlink:href="#m610c8d7332" x="113.858504" y="70.181463" style="fill: #ec8063; fill-opacity: 0.8; stroke: #ec8063; stroke-opacity: 0.8"/>
     <use xlink:href="#m610c8d7332" x="134.280706" y="84.500876" style="fill: #ec8063; fill-opacity: 0.8; stroke: #ec8063; stroke-opacity: 0.8"/>
     <use xlink:href="#m610c8d7332" x="109.351704" y="122.913837" style="fill: #ec8063; fill-opacity: 0.8; stroke: #ec8063; stroke-opacity: 0.8"/>
     <use xlink:href="#m610c8d7332" x="200.719483" y="84.913127" style="fill: #ec8063; fill-opacity: 0.8; stroke: #ec8063; stroke-opacity: 0.8"/>
     <use xlink:href="#m610c8d7332" x="137.327414" y="79.431871" style="fill: #ec8063; fill-opacity: 0.8; stroke: #ec8063; stroke-opacity: 0.8"/>
     <use xlink:href="#m610c8d7332" x="126.442297" y="87.777851" style="fill: #ec8063; fill-opacity: 0.8; stroke: #ec8063; stroke-opacity: 0.8"/>
     <use xlink:href="#m610c8d7332" x="103.561794" y="118.545238" style="fill: #ec8063; fill-opacity: 0.8; stroke: #ec8063; stroke-opacity: 0.8"/>
     <use xlink:href="#m610c8d7332" x="178.865098" y="77.078254" style="fill: #ec8063; fill-opacity: 0.8; stroke: #ec8063; stroke-opacity: 0.8"/>
     <use xlink:href="#m610c8d7332" x="115.843872" y="79.112166" style="fill: #ec8063; fill-opacity: 0.8; stroke: #ec8063; stroke-opacity: 0.8"/>
     <use xlink:href="#m610c8d7332" x="148.034687" y="144.560171" style="fill: #ec8063; fill-opacity: 0.8; stroke: #ec8063; stroke-opacity: 0.8"/>
     <use xlink:href="#m610c8d7332" x="110.816617" y="147.343917" style="fill: #ec8063; fill-opacity: 0.8; stroke: #ec8063; stroke-opacity: 0.8"/>
     <use xlink:href="#m610c8d7332" x="211.536409" y="137.599228" style="fill: #ec8063; fill-opacity: 0.8; stroke: #ec8063; stroke-opacity: 0.8"/>
     <use xlink:href="#m610c8d7332" x="129.435165" y="137.586608" style="fill: #ec8063; fill-opacity: 0.8; stroke: #ec8063; stroke-opacity: 0.8"/>
    </g>
   </g>
   <g id="PolyCollection_1">
    <path d="M 83.520324 79.957269 
L 83.520324 124.562064 
L 84.813415 124.050819 
L 86.106507 123.539396 
L 87.399599 123.027972 
L 88.692691 122.516549 
L 89.985782 122.005126 
L 91.278874 121.493703 
L 92.571966 120.982279 
L 93.865058 120.470856 
L 95.15815 119.959433 
L 96.451241 119.521021 
L 97.744333 119.10604 
L 99.037425 118.515127 
L 100.330517 118.091627 
L 101.623608 117.572767 
L 102.9167 117.053689 
L 104.209792 116.552535 
L 105.502884 116.223349 
L 106.795976 115.573457 
L 108.089067 114.993083 
L 109.382159 114.623373 
L 110.675251 114.392081 
L 111.968343 113.84133 
L 113.261434 113.173816 
L 114.554526 112.394981 
L 115.847618 111.979871 
L 117.14071 111.496804 
L 118.433802 111.308366 
L 119.726893 110.973631 
L 121.019985 110.557979 
L 122.313077 110.218188 
L 123.606169 109.675675 
L 124.89926 109.49024 
L 126.192352 109.20479 
L 127.485444 108.982721 
L 128.778536 108.975229 
L 130.071628 109.135155 
L 131.364719 109.109746 
L 132.657811 108.944602 
L 133.950903 108.897756 
L 135.243995 108.874027 
L 136.537086 108.82916 
L 137.830178 108.763021 
L 139.12327 108.705466 
L 140.416362 108.384835 
L 141.709454 108.551217 
L 143.002545 108.44148 
L 144.295637 108.448863 
L 145.588729 108.550007 
L 146.881821 108.454055 
L 148.174912 108.52075 
L 149.468004 108.681912 
L 150.761096 108.862132 
L 152.054188 108.909447 
L 153.34728 108.892566 
L 154.640371 109.211192 
L 155.933463 109.373405 
L 157.226555 109.679573 
L 158.519647 109.913674 
L 159.812738 110.109501 
L 161.10583 110.360698 
L 162.398922 110.487397 
L 163.692014 110.67067 
L 164.985106 110.965308 
L 166.278197 111.337599 
L 167.571289 111.623346 
L 168.864381 111.850986 
L 170.157473 112.054869 
L 171.450564 112.327346 
L 172.743656 112.671446 
L 174.036748 113.043291 
L 175.32984 113.439966 
L 176.622932 113.732609 
L 177.916023 114.067854 
L 179.209115 114.25513 
L 180.502207 114.561225 
L 181.795299 114.855561 
L 183.08839 115.276797 
L 184.381482 115.677427 
L 185.674574 116.029667 
L 186.967666 116.496562 
L 188.260758 116.916292 
L 189.553849 117.310898 
L 190.846941 117.704868 
L 192.140033 118.09242 
L 193.433125 118.346188 
L 194.726216 118.556002 
L 196.019308 118.765817 
L 197.3124 118.975631 
L 198.605492 119.181536 
L 199.898584 119.386619 
L 201.191675 119.591702 
L 202.484767 119.8195 
L 203.777859 120.157313 
L 205.070951 120.495127 
L 206.364042 120.839819 
L 207.657134 121.207662 
L 208.950226 121.520924 
L 210.243318 121.851082 
L 211.536409 122.194082 
L 211.536409 62.160203 
L 211.536409 62.160203 
L 210.243318 62.7713 
L 208.950226 63.439602 
L 207.657134 64.007126 
L 206.364042 64.676383 
L 205.070951 65.34564 
L 203.777859 65.989376 
L 202.484767 66.414911 
L 201.191675 66.855838 
L 199.898584 67.4398 
L 198.605492 68.025728 
L 197.3124 68.611657 
L 196.019308 69.197585 
L 194.726216 69.783513 
L 193.433125 70.369442 
L 192.140033 70.95537 
L 190.846941 71.542738 
L 189.553849 72.131508 
L 188.260758 72.558678 
L 186.967666 72.853201 
L 185.674574 73.174703 
L 184.381482 73.435237 
L 183.08839 73.727197 
L 181.795299 74.325656 
L 180.502207 74.929204 
L 179.209115 75.413009 
L 177.916023 75.829364 
L 176.622932 76.224126 
L 175.32984 76.62453 
L 174.036748 77.091145 
L 172.743656 77.538009 
L 171.450564 78.206631 
L 170.157473 78.855657 
L 168.864381 79.323093 
L 167.571289 79.929001 
L 166.278197 80.216569 
L 164.985106 80.680341 
L 163.692014 81.188882 
L 162.398922 81.700155 
L 161.10583 81.905721 
L 159.812738 82.11244 
L 158.519647 82.617058 
L 157.226555 82.898302 
L 155.933463 83.304943 
L 154.640371 83.552264 
L 153.34728 83.778025 
L 152.054188 84.008161 
L 150.761096 84.290634 
L 149.468004 84.552347 
L 148.174912 84.847152 
L 146.881821 85.061749 
L 145.588729 85.274548 
L 144.295637 85.480722 
L 143.002545 85.817943 
L 141.709454 86.21876 
L 140.416362 86.233535 
L 139.12327 86.462049 
L 137.830178 86.351564 
L 136.537086 86.373142 
L 135.243995 86.34163 
L 133.950903 86.271472 
L 132.657811 86.363839 
L 131.364719 86.359574 
L 130.071628 86.404762 
L 128.778536 86.649386 
L 127.485444 86.662071 
L 126.192352 86.646276 
L 124.89926 86.663318 
L 123.606169 86.589871 
L 122.313077 86.644523 
L 121.019985 86.577007 
L 119.726893 86.339765 
L 118.433802 86.118742 
L 117.14071 85.985078 
L 115.847618 85.78815 
L 114.554526 85.393688 
L 113.261434 85.396962 
L 111.968343 85.355224 
L 110.675251 85.079565 
L 109.382159 84.884595 
L 108.089067 84.746804 
L 106.795976 84.668955 
L 105.502884 84.565157 
L 104.209792 84.368998 
L 102.9167 84.1066 
L 101.623608 83.902293 
L 100.330517 83.816548 
L 99.037425 83.357412 
L 97.744333 83.135911 
L 96.451241 82.935119 
L 95.15815 82.69382 
L 93.865058 82.195277 
L 92.571966 82.060806 
L 91.278874 81.926335 
L 89.985782 81.728624 
L 88.692691 81.487325 
L 87.399599 81.246026 
L 86.106507 80.789692 
L 84.813415 80.314201 
L 83.520324 79.957269 
z
" clip-path="url(#p4a08f4d7e9)" style="fill: #ec8063; fill-opacity: 0.15"/>
   </g>
   <g id="PathCollection_2">
    <defs>
     <path id="m014fc83043" d="M 0 3.162278 
C 0.838646 3.162278 1.643056 2.82908 2.236068 2.236068 
C 2.82908 1.643056 3.162278 0.838646 3.162278 0 
C 3.162278 -0.838646 2.82908 -1.643056 2.236068 -2.236068 
C 1.643056 -2.82908 0.838646 -3.162278 0 -3.162278 
C -0.838646 -3.162278 -1.643056 -2.82908 -2.236068 -2.236068 
C -2.82908 -1.643056 -3.162278 -0.838646 -3.162278 0 
C -3.162278 0.838646 -2.82908 1.643056 -2.236068 2.236068 
C -1.643056 2.82908 -0.838646 3.162278 0 3.162278 
z
" style="stroke: #ec8063; stroke-width: 2"/>
    </defs>
    <g clip-path="url(#p4a08f4d7e9)">
     <use xlink:href="#m014fc83043" x="70.307568" y="177.781083" style="fill: #ffffff; stroke: #ec8063; stroke-width: 2"/>
     <use xlink:href="#m014fc83043" x="69.49714" y="175.963813" style="fill: #ffffff; stroke: #ec8063; stroke-width: 2"/>
     <use xlink:href="#m014fc83043" x="68.761108" y="176.981821" style="fill: #ffffff; stroke: #ec8063; stroke-width: 2"/>
     <use xlink:href="#m014fc83043" x="65.897462" y="170.844329" style="fill: #ffffff; stroke: #ec8063; stroke-width: 2"/>
    </g>
   </g>
   <g id="matplotlib.axis_1">
    <g id="xtick_1">
     <g id="line2d_1">
      <defs>
       <path id="ma07b7780e9" d="M 0 0 
L 0 3.5 
" style="stroke: #000000; stroke-width: 0.8"/>
      </defs>
      <g>
       <use xlink:href="#ma07b7780e9" x="104.09308" y="185.398125" style="stroke: #000000; stroke-width: 0.8"/>
      </g>
     </g>
     <g id="text_1">
      <!-- 500 -->
      <g transform="translate(94.54933 199.996563)scale(0.1 -0.1)">
       <defs>
        <path id="DejaVuSans-35" d="M 691 4666 
L 3169 4666 
L 3169 4134 
L 1269 4134 
L 1269 2991 
Q 1406 3038 1543 3061 
Q 1681 3084 1819 3084 
Q 2600 3084 3056 2656 
Q 3513 2228 3513 1497 
Q 3513 744 3044 326 
Q 2575 -91 1722 -91 
Q 1428 -91 1123 -41 
Q 819 9 494 109 
L 494 744 
Q 775 591 1075 516 
Q 1375 441 1709 441 
Q 2250 441 2565 725 
Q 2881 1009 2881 1497 
Q 2881 1984 2565 2268 
Q 2250 2553 1709 2553 
Q 1456 2553 1204 2497 
Q 953 2441 691 2322 
L 691 4666 
z
" transform="scale(0.015625)"/>
        <path id="DejaVuSans-30" d="M 2034 4250 
Q 1547 4250 1301 3770 
Q 1056 3291 1056 2328 
Q 1056 1369 1301 889 
Q 1547 409 2034 409 
Q 2525 409 2770 889 
Q 3016 1369 3016 2328 
Q 3016 3291 2770 3770 
Q 2525 4250 2034 4250 
z
M 2034 4750 
Q 2819 4750 3233 4129 
Q 3647 3509 3647 2328 
Q 3647 1150 3233 529 
Q 2819 -91 2034 -91 
Q 1250 -91 836 529 
Q 422 1150 422 2328 
Q 422 3509 836 4129 
Q 1250 4750 2034 4750 
z
" transform="scale(0.015625)"/>
       </defs>
       <use xlink:href="#DejaVuSans-35"/>
       <use xlink:href="#DejaVuSans-30" x="63.623047"/>
       <use xlink:href="#DejaVuSans-30" x="127.246094"/>
      </g>
     </g>
    </g>
    <g id="xtick_2">
     <g id="line2d_2">
      <g>
       <use xlink:href="#ma07b7780e9" x="154.167523" y="185.398125" style="stroke: #000000; stroke-width: 0.8"/>
      </g>
     </g>
     <g id="text_2">
      <!-- 1000 -->
      <g transform="translate(141.442523 199.996563)scale(0.1 -0.1)">
       <defs>
        <path id="DejaVuSans-31" d="M 794 531 
L 1825 531 
L 1825 4091 
L 703 3866 
L 703 4441 
L 1819 4666 
L 2450 4666 
L 2450 531 
L 3481 531 
L 3481 0 
L 794 0 
L 794 531 
z
" transform="scale(0.015625)"/>
       </defs>
       <use xlink:href="#DejaVuSans-31"/>
       <use xlink:href="#DejaVuSans-30" x="63.623047"/>
       <use xlink:href="#DejaVuSans-30" x="127.246094"/>
       <use xlink:href="#DejaVuSans-30" x="190.869141"/>
      </g>
     </g>
    </g>
    <g id="xtick_3">
     <g id="line2d_3">
      <g>
       <use xlink:href="#ma07b7780e9" x="204.241965" y="185.398125" style="stroke: #000000; stroke-width: 0.8"/>
      </g>
     </g>
     <g id="text_3">
      <!-- 1500 -->
      <g transform="translate(191.516965 199.996563)scale(0.1 -0.1)">
       <use xlink:href="#DejaVuSans-31"/>
       <use xlink:href="#DejaVuSans-35" x="63.623047"/>
       <use xlink:href="#DejaVuSans-30" x="127.246094"/>
       <use xlink:href="#DejaVuSans-30" x="190.869141"/>
      </g>
     </g>
    </g>
    <g id="text_4">
     <!-- mRuby2, 4 dpi -->
     <g transform="translate(105.574375 213.674688)scale(0.1 -0.1)">
      <defs>
       <path id="DejaVuSans-6d" d="M 3328 2828 
Q 3544 3216 3844 3400 
Q 4144 3584 4550 3584 
Q 5097 3584 5394 3201 
Q 5691 2819 5691 2113 
L 5691 0 
L 5113 0 
L 5113 2094 
Q 5113 2597 4934 2840 
Q 4756 3084 4391 3084 
Q 3944 3084 3684 2787 
Q 3425 2491 3425 1978 
L 3425 0 
L 2847 0 
L 2847 2094 
Q 2847 2600 2669 2842 
Q 2491 3084 2119 3084 
Q 1678 3084 1418 2786 
Q 1159 2488 1159 1978 
L 1159 0 
L 581 0 
L 581 3500 
L 1159 3500 
L 1159 2956 
Q 1356 3278 1631 3431 
Q 1906 3584 2284 3584 
Q 2666 3584 2933 3390 
Q 3200 3197 3328 2828 
z
" transform="scale(0.015625)"/>
       <path id="DejaVuSans-52" d="M 2841 2188 
Q 3044 2119 3236 1894 
Q 3428 1669 3622 1275 
L 4263 0 
L 3584 0 
L 2988 1197 
Q 2756 1666 2539 1819 
Q 2322 1972 1947 1972 
L 1259 1972 
L 1259 0 
L 628 0 
L 628 4666 
L 2053 4666 
Q 2853 4666 3247 4331 
Q 3641 3997 3641 3322 
Q 3641 2881 3436 2590 
Q 3231 2300 2841 2188 
z
M 1259 4147 
L 1259 2491 
L 2053 2491 
Q 2509 2491 2742 2702 
Q 2975 2913 2975 3322 
Q 2975 3731 2742 3939 
Q 2509 4147 2053 4147 
L 1259 4147 
z
" transform="scale(0.015625)"/>
       <path id="DejaVuSans-75" d="M 544 1381 
L 544 3500 
L 1119 3500 
L 1119 1403 
Q 1119 906 1312 657 
Q 1506 409 1894 409 
Q 2359 409 2629 706 
Q 2900 1003 2900 1516 
L 2900 3500 
L 3475 3500 
L 3475 0 
L 2900 0 
L 2900 538 
Q 2691 219 2414 64 
Q 2138 -91 1772 -91 
Q 1169 -91 856 284 
Q 544 659 544 1381 
z
M 1991 3584 
L 1991 3584 
z
" transform="scale(0.015625)"/>
       <path id="DejaVuSans-62" d="M 3116 1747 
Q 3116 2381 2855 2742 
Q 2594 3103 2138 3103 
Q 1681 3103 1420 2742 
Q 1159 2381 1159 1747 
Q 1159 1113 1420 752 
Q 1681 391 2138 391 
Q 2594 391 2855 752 
Q 3116 1113 3116 1747 
z
M 1159 2969 
Q 1341 3281 1617 3432 
Q 1894 3584 2278 3584 
Q 2916 3584 3314 3078 
Q 3713 2572 3713 1747 
Q 3713 922 3314 415 
Q 2916 -91 2278 -91 
Q 1894 -91 1617 61 
Q 1341 213 1159 525 
L 1159 0 
L 581 0 
L 581 4863 
L 1159 4863 
L 1159 2969 
z
" transform="scale(0.015625)"/>
       <path id="DejaVuSans-79" d="M 2059 -325 
Q 1816 -950 1584 -1140 
Q 1353 -1331 966 -1331 
L 506 -1331 
L 506 -850 
L 844 -850 
Q 1081 -850 1212 -737 
Q 1344 -625 1503 -206 
L 1606 56 
L 191 3500 
L 800 3500 
L 1894 763 
L 2988 3500 
L 3597 3500 
L 2059 -325 
z
" transform="scale(0.015625)"/>
       <path id="DejaVuSans-32" d="M 1228 531 
L 3431 531 
L 3431 0 
L 469 0 
L 469 531 
Q 828 903 1448 1529 
Q 2069 2156 2228 2338 
Q 2531 2678 2651 2914 
Q 2772 3150 2772 3378 
Q 2772 3750 2511 3984 
Q 2250 4219 1831 4219 
Q 1534 4219 1204 4116 
Q 875 4013 500 3803 
L 500 4441 
Q 881 4594 1212 4672 
Q 1544 4750 1819 4750 
Q 2544 4750 2975 4387 
Q 3406 4025 3406 3419 
Q 3406 3131 3298 2873 
Q 3191 2616 2906 2266 
Q 2828 2175 2409 1742 
Q 1991 1309 1228 531 
z
" transform="scale(0.015625)"/>
       <path id="DejaVuSans-2c" d="M 750 794 
L 1409 794 
L 1409 256 
L 897 -744 
L 494 -744 
L 750 256 
L 750 794 
z
" transform="scale(0.015625)"/>
       <path id="DejaVuSans-20" transform="scale(0.015625)"/>
       <path id="DejaVuSans-34" d="M 2419 4116 
L 825 1625 
L 2419 1625 
L 2419 4116 
z
M 2253 4666 
L 3047 4666 
L 3047 1625 
L 3713 1625 
L 3713 1100 
L 3047 1100 
L 3047 0 
L 2419 0 
L 2419 1100 
L 313 1100 
L 313 1709 
L 2253 4666 
z
" transform="scale(0.015625)"/>
       <path id="DejaVuSans-64" d="M 2906 2969 
L 2906 4863 
L 3481 4863 
L 3481 0 
L 2906 0 
L 2906 525 
Q 2725 213 2448 61 
Q 2172 -91 1784 -91 
Q 1150 -91 751 415 
Q 353 922 353 1747 
Q 353 2572 751 3078 
Q 1150 3584 1784 3584 
Q 2172 3584 2448 3432 
Q 2725 3281 2906 2969 
z
M 947 1747 
Q 947 1113 1208 752 
Q 1469 391 1925 391 
Q 2381 391 2643 752 
Q 2906 1113 2906 1747 
Q 2906 2381 2643 2742 
Q 2381 3103 1925 3103 
Q 1469 3103 1208 2742 
Q 947 2381 947 1747 
z
" transform="scale(0.015625)"/>
       <path id="DejaVuSans-70" d="M 1159 525 
L 1159 -1331 
L 581 -1331 
L 581 3500 
L 1159 3500 
L 1159 2969 
Q 1341 3281 1617 3432 
Q 1894 3584 2278 3584 
Q 2916 3584 3314 3078 
Q 3713 2572 3713 1747 
Q 3713 922 3314 415 
Q 2916 -91 2278 -91 
Q 1894 -91 1617 61 
Q 1341 213 1159 525 
z
M 3116 1747 
Q 3116 2381 2855 2742 
Q 2594 3103 2138 3103 
Q 1681 3103 1420 2742 
Q 1159 2381 1159 1747 
Q 1159 1113 1420 752 
Q 1681 391 2138 391 
Q 2594 391 2855 752 
Q 3116 1113 3116 1747 
z
" transform="scale(0.015625)"/>
       <path id="DejaVuSans-69" d="M 603 3500 
L 1178 3500 
L 1178 0 
L 603 0 
L 603 3500 
z
M 603 4863 
L 1178 4863 
L 1178 4134 
L 603 4134 
L 603 4863 
z
" transform="scale(0.015625)"/>
      </defs>
      <use xlink:href="#DejaVuSans-6d"/>
      <use xlink:href="#DejaVuSans-52" x="97.412109"/>
      <use xlink:href="#DejaVuSans-75" x="162.394531"/>
      <use xlink:href="#DejaVuSans-62" x="225.773438"/>
      <use xlink:href="#DejaVuSans-79" x="289.25"/>
      <use xlink:href="#DejaVuSans-32" x="348.429688"/>
      <use xlink:href="#DejaVuSans-2c" x="412.052734"/>
      <use xlink:href="#DejaVuSans-20" x="443.839844"/>
      <use xlink:href="#DejaVuSans-34" x="475.626953"/>
      <use xlink:href="#DejaVuSans-20" x="539.25"/>
      <use xlink:href="#DejaVuSans-64" x="571.037109"/>
      <use xlink:href="#DejaVuSans-70" x="634.513672"/>
      <use xlink:href="#DejaVuSans-69" x="697.990234"/>
     </g>
     <!-- (gmean) -->
     <g transform="translate(120.607969 224.8725)scale(0.1 -0.1)">
      <defs>
       <path id="DejaVuSans-28" d="M 1984 4856 
Q 1566 4138 1362 3434 
Q 1159 2731 1159 2009 
Q 1159 1288 1364 580 
Q 1569 -128 1984 -844 
L 1484 -844 
Q 1016 -109 783 600 
Q 550 1309 550 2009 
Q 550 2706 781 3412 
Q 1013 4119 1484 4856 
L 1984 4856 
z
" transform="scale(0.015625)"/>
       <path id="DejaVuSans-67" d="M 2906 1791 
Q 2906 2416 2648 2759 
Q 2391 3103 1925 3103 
Q 1463 3103 1205 2759 
Q 947 2416 947 1791 
Q 947 1169 1205 825 
Q 1463 481 1925 481 
Q 2391 481 2648 825 
Q 2906 1169 2906 1791 
z
M 3481 434 
Q 3481 -459 3084 -895 
Q 2688 -1331 1869 -1331 
Q 1566 -1331 1297 -1286 
Q 1028 -1241 775 -1147 
L 775 -588 
Q 1028 -725 1275 -790 
Q 1522 -856 1778 -856 
Q 2344 -856 2625 -561 
Q 2906 -266 2906 331 
L 2906 616 
Q 2728 306 2450 153 
Q 2172 0 1784 0 
Q 1141 0 747 490 
Q 353 981 353 1791 
Q 353 2603 747 3093 
Q 1141 3584 1784 3584 
Q 2172 3584 2450 3431 
Q 2728 3278 2906 2969 
L 2906 3500 
L 3481 3500 
L 3481 434 
z
" transform="scale(0.015625)"/>
       <path id="DejaVuSans-65" d="M 3597 1894 
L 3597 1613 
L 953 1613 
Q 991 1019 1311 708 
Q 1631 397 2203 397 
Q 2534 397 2845 478 
Q 3156 559 3463 722 
L 3463 178 
Q 3153 47 2828 -22 
Q 2503 -91 2169 -91 
Q 1331 -91 842 396 
Q 353 884 353 1716 
Q 353 2575 817 3079 
Q 1281 3584 2069 3584 
Q 2775 3584 3186 3129 
Q 3597 2675 3597 1894 
z
M 3022 2063 
Q 3016 2534 2758 2815 
Q 2500 3097 2075 3097 
Q 1594 3097 1305 2825 
Q 1016 2553 972 2059 
L 3022 2063 
z
" transform="scale(0.015625)"/>
       <path id="DejaVuSans-61" d="M 2194 1759 
Q 1497 1759 1228 1600 
Q 959 1441 959 1056 
Q 959 750 1161 570 
Q 1363 391 1709 391 
Q 2188 391 2477 730 
Q 2766 1069 2766 1631 
L 2766 1759 
L 2194 1759 
z
M 3341 1997 
L 3341 0 
L 2766 0 
L 2766 531 
Q 2569 213 2275 61 
Q 1981 -91 1556 -91 
Q 1019 -91 701 211 
Q 384 513 384 1019 
Q 384 1609 779 1909 
Q 1175 2209 1959 2209 
L 2766 2209 
L 2766 2266 
Q 2766 2663 2505 2880 
Q 2244 3097 1772 3097 
Q 1472 3097 1187 3025 
Q 903 2953 641 2809 
L 641 3341 
Q 956 3463 1253 3523 
Q 1550 3584 1831 3584 
Q 2591 3584 2966 3190 
Q 3341 2797 3341 1997 
z
" transform="scale(0.015625)"/>
       <path id="DejaVuSans-6e" d="M 3513 2113 
L 3513 0 
L 2938 0 
L 2938 2094 
Q 2938 2591 2744 2837 
Q 2550 3084 2163 3084 
Q 1697 3084 1428 2787 
Q 1159 2491 1159 1978 
L 1159 0 
L 581 0 
L 581 3500 
L 1159 3500 
L 1159 2956 
Q 1366 3272 1645 3428 
Q 1925 3584 2291 3584 
Q 2894 3584 3203 3211 
Q 3513 2838 3513 2113 
z
" transform="scale(0.015625)"/>
       <path id="DejaVuSans-29" d="M 513 4856 
L 1013 4856 
Q 1481 4119 1714 3412 
Q 1947 2706 1947 2009 
Q 1947 1309 1714 600 
Q 1481 -109 1013 -844 
L 513 -844 
Q 928 -128 1133 580 
Q 1338 1288 1338 2009 
Q 1338 2731 1133 3434 
Q 928 4138 513 4856 
z
" transform="scale(0.015625)"/>
      </defs>
      <use xlink:href="#DejaVuSans-28"/>
      <use xlink:href="#DejaVuSans-67" x="39.013672"/>
      <use xlink:href="#DejaVuSans-6d" x="102.490234"/>
      <use xlink:href="#DejaVuSans-65" x="199.902344"/>
      <use xlink:href="#DejaVuSans-61" x="261.425781"/>
      <use xlink:href="#DejaVuSans-6e" x="322.705078"/>
      <use xlink:href="#DejaVuSans-29" x="386.083984"/>
     </g>
    </g>
   </g>
   <g id="matplotlib.axis_2">
    <g id="ytick_1">
     <g id="line2d_4">
      <defs>
       <path id="m796f512b67" d="M 0 0 
L -3.5 0 
" style="stroke: #000000; stroke-width: 0.8"/>
      </defs>
      <g>
       <use xlink:href="#m796f512b67" x="58.163438" y="179.41957" style="stroke: #000000; stroke-width: 0.8"/>
      </g>
     </g>
     <g id="text_5">
      <!-- 0 -->
      <g transform="translate(44.800938 183.218789)scale(0.1 -0.1)">
       <use xlink:href="#DejaVuSans-30"/>
      </g>
     </g>
    </g>
    <g id="ytick_2">
     <g id="line2d_5">
      <g>
       <use xlink:href="#m796f512b67" x="58.163438" y="147.869747" style="stroke: #000000; stroke-width: 0.8"/>
      </g>
     </g>
     <g id="text_6">
      <!-- 50 -->
      <g transform="translate(38.438437 151.668966)scale(0.1 -0.1)">
       <use xlink:href="#DejaVuSans-35"/>
       <use xlink:href="#DejaVuSans-30" x="63.623047"/>
      </g>
     </g>
    </g>
    <g id="ytick_3">
     <g id="line2d_6">
      <g>
       <use xlink:href="#m796f512b67" x="58.163438" y="116.319924" style="stroke: #000000; stroke-width: 0.8"/>
      </g>
     </g>
     <g id="text_7">
      <!-- 100 -->
      <g transform="translate(32.075937 120.119143)scale(0.1 -0.1)">
       <use xlink:href="#DejaVuSans-31"/>
       <use xlink:href="#DejaVuSans-30" x="63.623047"/>
       <use xlink:href="#DejaVuSans-30" x="127.246094"/>
      </g>
     </g>
    </g>
    <g id="ytick_4">
     <g id="line2d_7">
      <g>
       <use xlink:href="#m796f512b67" x="58.163438" y="84.770101" style="stroke: #000000; stroke-width: 0.8"/>
      </g>
     </g>
     <g id="text_8">
      <!-- 150 -->
      <g transform="translate(32.075937 88.56932)scale(0.1 -0.1)">
       <use xlink:href="#DejaVuSans-31"/>
       <use xlink:href="#DejaVuSans-35" x="63.623047"/>
       <use xlink:href="#DejaVuSans-30" x="127.246094"/>
      </g>
     </g>
    </g>
    <g id="ytick_5">
     <g id="line2d_8">
      <g>
       <use xlink:href="#m796f512b67" x="58.163438" y="53.220278" style="stroke: #000000; stroke-width: 0.8"/>
      </g>
     </g>
     <g id="text_9">
      <!-- 200 -->
      <g transform="translate(32.075937 57.019497)scale(0.1 -0.1)">
       <use xlink:href="#DejaVuSans-32"/>
       <use xlink:href="#DejaVuSans-30" x="63.623047"/>
       <use xlink:href="#DejaVuSans-30" x="127.246094"/>
      </g>
     </g>
    </g>
    <g id="text_10">
     <!-- (%) iMN yield -->
     <g transform="translate(14.798437 137.120625)rotate(-90)scale(0.1 -0.1)">
      <defs>
       <path id="DejaVuSans-25" d="M 4653 2053 
Q 4381 2053 4226 1822 
Q 4072 1591 4072 1178 
Q 4072 772 4226 539 
Q 4381 306 4653 306 
Q 4919 306 5073 539 
Q 5228 772 5228 1178 
Q 5228 1588 5073 1820 
Q 4919 2053 4653 2053 
z
M 4653 2450 
Q 5147 2450 5437 2106 
Q 5728 1763 5728 1178 
Q 5728 594 5436 251 
Q 5144 -91 4653 -91 
Q 4153 -91 3862 251 
Q 3572 594 3572 1178 
Q 3572 1766 3864 2108 
Q 4156 2450 4653 2450 
z
M 1428 4353 
Q 1159 4353 1004 4120 
Q 850 3888 850 3481 
Q 850 3069 1003 2837 
Q 1156 2606 1428 2606 
Q 1700 2606 1854 2837 
Q 2009 3069 2009 3481 
Q 2009 3884 1853 4118 
Q 1697 4353 1428 4353 
z
M 4250 4750 
L 4750 4750 
L 1831 -91 
L 1331 -91 
L 4250 4750 
z
M 1428 4750 
Q 1922 4750 2215 4408 
Q 2509 4066 2509 3481 
Q 2509 2891 2217 2550 
Q 1925 2209 1428 2209 
Q 931 2209 642 2551 
Q 353 2894 353 3481 
Q 353 4063 643 4406 
Q 934 4750 1428 4750 
z
" transform="scale(0.015625)"/>
       <path id="DejaVuSans-4d" d="M 628 4666 
L 1569 4666 
L 2759 1491 
L 3956 4666 
L 4897 4666 
L 4897 0 
L 4281 0 
L 4281 4097 
L 3078 897 
L 2444 897 
L 1241 4097 
L 1241 0 
L 628 0 
L 628 4666 
z
" transform="scale(0.015625)"/>
       <path id="DejaVuSans-4e" d="M 628 4666 
L 1478 4666 
L 3547 763 
L 3547 4666 
L 4159 4666 
L 4159 0 
L 3309 0 
L 1241 3903 
L 1241 0 
L 628 0 
L 628 4666 
z
" transform="scale(0.015625)"/>
       <path id="DejaVuSans-6c" d="M 603 4863 
L 1178 4863 
L 1178 0 
L 603 0 
L 603 4863 
z
" transform="scale(0.015625)"/>
      </defs>
      <use xlink:href="#DejaVuSans-28"/>
      <use xlink:href="#DejaVuSans-25" x="39.013672"/>
      <use xlink:href="#DejaVuSans-29" x="134.033203"/>
      <use xlink:href="#DejaVuSans-20" x="173.046875"/>
      <use xlink:href="#DejaVuSans-69" x="204.833984"/>
      <use xlink:href="#DejaVuSans-4d" x="232.617188"/>
      <use xlink:href="#DejaVuSans-4e" x="318.896484"/>
      <use xlink:href="#DejaVuSans-20" x="393.701172"/>
      <use xlink:href="#DejaVuSans-79" x="425.488281"/>
      <use xlink:href="#DejaVuSans-69" x="484.667969"/>
      <use xlink:href="#DejaVuSans-65" x="512.451172"/>
      <use xlink:href="#DejaVuSans-6c" x="573.974609"/>
      <use xlink:href="#DejaVuSans-64" x="601.757812"/>
     </g>
     <!-- per MEF plated -->
     <g transform="translate(25.99625 141.53)rotate(-90)scale(0.1 -0.1)">
      <defs>
       <path id="DejaVuSans-72" d="M 2631 2963 
Q 2534 3019 2420 3045 
Q 2306 3072 2169 3072 
Q 1681 3072 1420 2755 
Q 1159 2438 1159 1844 
L 1159 0 
L 581 0 
L 581 3500 
L 1159 3500 
L 1159 2956 
Q 1341 3275 1631 3429 
Q 1922 3584 2338 3584 
Q 2397 3584 2469 3576 
Q 2541 3569 2628 3553 
L 2631 2963 
z
" transform="scale(0.015625)"/>
       <path id="DejaVuSans-45" d="M 628 4666 
L 3578 4666 
L 3578 4134 
L 1259 4134 
L 1259 2753 
L 3481 2753 
L 3481 2222 
L 1259 2222 
L 1259 531 
L 3634 531 
L 3634 0 
L 628 0 
L 628 4666 
z
" transform="scale(0.015625)"/>
       <path id="DejaVuSans-46" d="M 628 4666 
L 3309 4666 
L 3309 4134 
L 1259 4134 
L 1259 2759 
L 3109 2759 
L 3109 2228 
L 1259 2228 
L 1259 0 
L 628 0 
L 628 4666 
z
" transform="scale(0.015625)"/>
       <path id="DejaVuSans-74" d="M 1172 4494 
L 1172 3500 
L 2356 3500 
L 2356 3053 
L 1172 3053 
L 1172 1153 
Q 1172 725 1289 603 
Q 1406 481 1766 481 
L 2356 481 
L 2356 0 
L 1766 0 
Q 1100 0 847 248 
Q 594 497 594 1153 
L 594 3053 
L 172 3053 
L 172 3500 
L 594 3500 
L 594 4494 
L 1172 4494 
z
" transform="scale(0.015625)"/>
      </defs>
      <use xlink:href="#DejaVuSans-70"/>
      <use xlink:href="#DejaVuSans-65" x="63.476562"/>
      <use xlink:href="#DejaVuSans-72" x="125"/>
      <use xlink:href="#DejaVuSans-20" x="166.113281"/>
      <use xlink:href="#DejaVuSans-4d" x="197.900391"/>
      <use xlink:href="#DejaVuSans-45" x="284.179688"/>
      <use xlink:href="#DejaVuSans-46" x="347.363281"/>
      <use xlink:href="#DejaVuSans-20" x="404.882812"/>
      <use xlink:href="#DejaVuSans-70" x="436.669922"/>
      <use xlink:href="#DejaVuSans-6c" x="500.146484"/>
      <use xlink:href="#DejaVuSans-61" x="527.929688"/>
      <use xlink:href="#DejaVuSans-74" x="589.208984"/>
      <use xlink:href="#DejaVuSans-65" x="628.417969"/>
      <use xlink:href="#DejaVuSans-64" x="689.941406"/>
     </g>
    </g>
   </g>
   <g id="line2d_9">
    <path d="M 83.520324 100.220678 
L 84.813415 100.147315 
L 86.106507 100.073953 
L 87.399599 100.00059 
L 88.692691 99.927227 
L 89.985782 99.853864 
L 91.278874 99.780501 
L 92.571966 99.707139 
L 93.865058 99.633776 
L 95.15815 99.560413 
L 96.451241 99.48705 
L 97.744333 99.413687 
L 99.037425 99.340325 
L 100.330517 99.266962 
L 101.623608 99.193599 
L 102.9167 99.120236 
L 104.209792 99.046873 
L 105.502884 98.97351 
L 106.795976 98.900148 
L 108.089067 98.826785 
L 109.382159 98.753422 
L 110.675251 98.680059 
L 111.968343 98.606696 
L 113.261434 98.533334 
L 114.554526 98.459971 
L 115.847618 98.386608 
L 117.14071 98.313245 
L 118.433802 98.239882 
L 119.726893 98.16652 
L 121.019985 98.093157 
L 122.313077 98.019794 
L 123.606169 97.946431 
L 124.89926 97.873068 
L 126.192352 97.799705 
L 127.485444 97.726343 
L 128.778536 97.65298 
L 130.071628 97.579617 
L 131.364719 97.506254 
L 132.657811 97.432891 
L 133.950903 97.359529 
L 135.243995 97.286166 
L 136.537086 97.212803 
L 137.830178 97.13944 
L 139.12327 97.066077 
L 140.416362 96.992715 
L 141.709454 96.919352 
L 143.002545 96.845989 
L 144.295637 96.772626 
L 145.588729 96.699263 
L 146.881821 96.6259 
L 148.174912 96.552538 
L 149.468004 96.479175 
L 150.761096 96.405812 
L 152.054188 96.332449 
L 153.34728 96.259086 
L 154.640371 96.185724 
L 155.933463 96.112361 
L 157.226555 96.038998 
L 158.519647 95.965635 
L 159.812738 95.892272 
L 161.10583 95.81891 
L 162.398922 95.745547 
L 163.692014 95.672184 
L 164.985106 95.598821 
L 166.278197 95.525458 
L 167.571289 95.452095 
L 168.864381 95.378733 
L 170.157473 95.30537 
L 171.450564 95.232007 
L 172.743656 95.158644 
L 174.036748 95.085281 
L 175.32984 95.011919 
L 176.622932 94.938556 
L 177.916023 94.865193 
L 179.209115 94.79183 
L 180.502207 94.718467 
L 181.795299 94.645105 
L 183.08839 94.571742 
L 184.381482 94.498379 
L 185.674574 94.425016 
L 186.967666 94.351653 
L 188.260758 94.27829 
L 189.553849 94.204928 
L 190.846941 94.131565 
L 192.140033 94.058202 
L 193.433125 93.984839 
L 194.726216 93.911476 
L 196.019308 93.838114 
L 197.3124 93.764751 
L 198.605492 93.691388 
L 199.898584 93.618025 
L 201.191675 93.544662 
L 202.484767 93.4713 
L 203.777859 93.397937 
L 205.070951 93.324574 
L 206.364042 93.251211 
L 207.657134 93.177848 
L 208.950226 93.104485 
L 210.243318 93.031123 
L 211.536409 92.95776 
" clip-path="url(#p4a08f4d7e9)" style="fill: none; stroke: #ec8063; stroke-width: 2.25; stroke-linecap: square"/>
   </g>
   <g id="LineCollection_1">
    <path d="M 167.750298 93.057188 
L 178.186537 93.057188 
" clip-path="url(#p4a08f4d7e9)" style="fill: none; stroke: #000000; stroke-width: 0.5"/>
    <path d="M 129.915911 111.77675 
L 144.997017 111.77675 
" clip-path="url(#p4a08f4d7e9)" style="fill: none; stroke: #000000; stroke-width: 0.5"/>
    <path d="M 190.611359 64.365779 
L 203.916011 64.365779 
" clip-path="url(#p4a08f4d7e9)" style="fill: none; stroke: #000000; stroke-width: 0.5"/>
    <path d="M 145.133677 66.159912 
L 154.565634 66.159912 
" clip-path="url(#p4a08f4d7e9)" style="fill: none; stroke: #000000; stroke-width: 0.5"/>
    <path d="M 95.020971 126.474761 
L 97.378165 126.474761 
" clip-path="url(#p4a08f4d7e9)" style="fill: none; stroke: #000000; stroke-width: 0.5"/>
    <path d="M 82.954018 94.914421 
L 84.08663 94.914421 
" clip-path="url(#p4a08f4d7e9)" style="fill: none; stroke: #000000; stroke-width: 0.5"/>
    <path d="M 108.892223 84.572389 
L 110.338206 84.572389 
" clip-path="url(#p4a08f4d7e9)" style="fill: none; stroke: #000000; stroke-width: 0.5"/>
    <path d="M 88.614946 44.59666 
L 92.591897 44.59666 
" clip-path="url(#p4a08f4d7e9)" style="fill: none; stroke: #000000; stroke-width: 0.5"/>
    <path d="M 130.743935 103.611655 
L 137.846975 103.611655 
" clip-path="url(#p4a08f4d7e9)" style="fill: none; stroke: #000000; stroke-width: 0.5"/>
    <path d="M 101.424911 105.961066 
L 104.098594 105.961066 
" clip-path="url(#p4a08f4d7e9)" style="fill: none; stroke: #000000; stroke-width: 0.5"/>
    <path d="M 150.995456 67.611204 
L 159.3123 67.611204 
" clip-path="url(#p4a08f4d7e9)" style="fill: none; stroke: #000000; stroke-width: 0.5"/>
    <path d="M 112.142746 70.181463 
L 115.574262 70.181463 
" clip-path="url(#p4a08f4d7e9)" style="fill: none; stroke: #000000; stroke-width: 0.5"/>
    <path d="M 131.024382 84.500876 
L 137.53703 84.500876 
" clip-path="url(#p4a08f4d7e9)" style="fill: none; stroke: #000000; stroke-width: 0.5"/>
    <path d="M 107.325711 122.913837 
L 111.377698 122.913837 
" clip-path="url(#p4a08f4d7e9)" style="fill: none; stroke: #000000; stroke-width: 0.5"/>
    <path d="M 188.600211 84.913127 
L 212.838755 84.913127 
" clip-path="url(#p4a08f4d7e9)" style="fill: none; stroke: #000000; stroke-width: 0.5"/>
    <path d="M 133.307558 79.431871 
L 141.347269 79.431871 
" clip-path="url(#p4a08f4d7e9)" style="fill: none; stroke: #000000; stroke-width: 0.5"/>
    <path d="M 123.029053 87.777851 
L 129.855541 87.777851 
" clip-path="url(#p4a08f4d7e9)" style="fill: none; stroke: #000000; stroke-width: 0.5"/>
    <path d="M 101.472222 118.545238 
L 105.651366 118.545238 
" clip-path="url(#p4a08f4d7e9)" style="fill: none; stroke: #000000; stroke-width: 0.5"/>
    <path d="M 170.74308 77.078254 
L 186.987116 77.078254 
" clip-path="url(#p4a08f4d7e9)" style="fill: none; stroke: #000000; stroke-width: 0.5"/>
    <path d="M 113.241867 79.112166 
L 118.445877 79.112166 
" clip-path="url(#p4a08f4d7e9)" style="fill: none; stroke: #000000; stroke-width: 0.5"/>
    <path d="M 144.406216 144.560171 
L 151.663158 144.560171 
" clip-path="url(#p4a08f4d7e9)" style="fill: none; stroke: #000000; stroke-width: 0.5"/>
    <path d="M 109.406344 147.343917 
L 112.22689 147.343917 
" clip-path="url(#p4a08f4d7e9)" style="fill: none; stroke: #000000; stroke-width: 0.5"/>
    <path d="M 205.118472 137.599228 
L 217.954347 137.599228 
" clip-path="url(#p4a08f4d7e9)" style="fill: none; stroke: #000000; stroke-width: 0.5"/>
    <path d="M 124.487084 137.586608 
L 134.383245 137.586608 
" clip-path="url(#p4a08f4d7e9)" style="fill: none; stroke: #000000; stroke-width: 0.5"/>
   </g>
   <g id="LineCollection_2">
    <path d="M 172.968418 95.422856 
L 172.968418 90.69152 
" clip-path="url(#p4a08f4d7e9)" style="fill: none; stroke: #000000; stroke-width: 0.5"/>
    <path d="M 137.456464 112.678722 
L 137.456464 110.874778 
" clip-path="url(#p4a08f4d7e9)" style="fill: none; stroke: #000000; stroke-width: 0.5"/>
    <path d="M 197.263685 70.765715 
L 197.263685 57.965842 
" clip-path="url(#p4a08f4d7e9)" style="fill: none; stroke: #000000; stroke-width: 0.5"/>
    <path d="M 149.849655 71.958832 
L 149.849655 60.360992 
" clip-path="url(#p4a08f4d7e9)" style="fill: none; stroke: #000000; stroke-width: 0.5"/>
    <path d="M 96.199568 138.07275 
L 96.199568 114.876771 
" clip-path="url(#p4a08f4d7e9)" style="fill: none; stroke: #000000; stroke-width: 0.5"/>
    <path d="M 83.520324 95.919749 
L 83.520324 93.909093 
" clip-path="url(#p4a08f4d7e9)" style="fill: none; stroke: #000000; stroke-width: 0.5"/>
    <path d="M 109.615214 89.303659 
L 109.615214 79.841118 
" clip-path="url(#p4a08f4d7e9)" style="fill: none; stroke: #000000; stroke-width: 0.5"/>
    <path d="M 90.603421 59.462467 
L 90.603421 29.730852 
" clip-path="url(#p4a08f4d7e9)" style="fill: none; stroke: #000000; stroke-width: 0.5"/>
    <path d="M 134.295455 108.422618 
L 134.295455 98.800693 
" clip-path="url(#p4a08f4d7e9)" style="fill: none; stroke: #000000; stroke-width: 0.5"/>
    <path d="M 102.761752 109.109682 
L 102.761752 102.812449 
" clip-path="url(#p4a08f4d7e9)" style="fill: none; stroke: #000000; stroke-width: 0.5"/>
    <path d="M 155.153878 78.437403 
L 155.153878 56.785005 
" clip-path="url(#p4a08f4d7e9)" style="fill: none; stroke: #000000; stroke-width: 0.5"/>
    <path d="M 113.858504 74.677906 
L 113.858504 65.685019 
" clip-path="url(#p4a08f4d7e9)" style="fill: none; stroke: #000000; stroke-width: 0.5"/>
    <path d="M 134.280706 86.98886 
L 134.280706 82.012892 
" clip-path="url(#p4a08f4d7e9)" style="fill: none; stroke: #000000; stroke-width: 0.5"/>
    <path d="M 109.351704 127.066793 
L 109.351704 118.760882 
" clip-path="url(#p4a08f4d7e9)" style="fill: none; stroke: #000000; stroke-width: 0.5"/>
    <path d="M 200.719483 86.778951 
L 200.719483 83.047303 
" clip-path="url(#p4a08f4d7e9)" style="fill: none; stroke: #000000; stroke-width: 0.5"/>
    <path d="M 137.327414 82.742264 
L 137.327414 76.121478 
" clip-path="url(#p4a08f4d7e9)" style="fill: none; stroke: #000000; stroke-width: 0.5"/>
    <path d="M 126.442297 90.92014 
L 126.442297 84.635562 
" clip-path="url(#p4a08f4d7e9)" style="fill: none; stroke: #000000; stroke-width: 0.5"/>
    <path d="M 103.561794 121.238582 
L 103.561794 115.851895 
" clip-path="url(#p4a08f4d7e9)" style="fill: none; stroke: #000000; stroke-width: 0.5"/>
    <path d="M 178.865098 90.615049 
L 178.865098 63.541459 
" clip-path="url(#p4a08f4d7e9)" style="fill: none; stroke: #000000; stroke-width: 0.5"/>
    <path d="M 115.843872 84.721272 
L 115.843872 73.50306 
" clip-path="url(#p4a08f4d7e9)" style="fill: none; stroke: #000000; stroke-width: 0.5"/>
    <path d="M 148.034687 144.916684 
L 148.034687 144.203658 
" clip-path="url(#p4a08f4d7e9)" style="fill: none; stroke: #000000; stroke-width: 0.5"/>
    <path d="M 110.816617 149.972059 
L 110.816617 144.715775 
" clip-path="url(#p4a08f4d7e9)" style="fill: none; stroke: #000000; stroke-width: 0.5"/>
    <path d="M 211.536409 144.324163 
L 211.536409 130.874293 
" clip-path="url(#p4a08f4d7e9)" style="fill: none; stroke: #000000; stroke-width: 0.5"/>
    <path d="M 129.435165 141.633891 
L 129.435165 133.539326 
" clip-path="url(#p4a08f4d7e9)" style="fill: none; stroke: #000000; stroke-width: 0.5"/>
   </g>
   <g id="LineCollection_3">
    <path d="M 69.969735 177.781083 
L 70.645401 177.781083 
" clip-path="url(#p4a08f4d7e9)" style="fill: none; stroke: #000000; stroke-width: 0.5"/>
    <path d="M 69.375552 175.963813 
L 69.618728 175.963813 
" clip-path="url(#p4a08f4d7e9)" style="fill: none; stroke: #000000; stroke-width: 0.5"/>
    <path d="M 68.535257 176.981821 
L 68.98696 176.981821 
" clip-path="url(#p4a08f4d7e9)" style="fill: none; stroke: #000000; stroke-width: 0.5"/>
    <path d="M 65.772528 170.844329 
L 66.022396 170.844329 
" clip-path="url(#p4a08f4d7e9)" style="fill: none; stroke: #000000; stroke-width: 0.5"/>
   </g>
   <g id="LineCollection_4">
    <path d="M 70.307568 177.985398 
L 70.307568 177.576768 
" clip-path="url(#p4a08f4d7e9)" style="fill: none; stroke: #000000; stroke-width: 0.5"/>
    <path d="M 69.49714 176.371923 
L 69.49714 175.555704 
" clip-path="url(#p4a08f4d7e9)" style="fill: none; stroke: #000000; stroke-width: 0.5"/>
    <path d="M 68.761108 177.377312 
L 68.761108 176.586329 
" clip-path="url(#p4a08f4d7e9)" style="fill: none; stroke: #000000; stroke-width: 0.5"/>
    <path d="M 65.897462 172.190739 
L 65.897462 169.497919 
" clip-path="url(#p4a08f4d7e9)" style="fill: none; stroke: #000000; stroke-width: 0.5"/>
   </g>
   <g id="line2d_10">
    <path d="M 172.968418 93.057188 
L 137.456464 111.77675 
L 197.263685 64.365779 
L 149.849655 66.159912 
L 96.199568 126.474761 
L 83.520324 94.914421 
L 109.615214 84.572389 
L 90.603421 44.59666 
L 134.295455 103.611655 
L 102.761752 105.961066 
L 155.153878 67.611204 
L 113.858504 70.181463 
L 134.280706 84.500876 
L 109.351704 122.913837 
L 200.719483 84.913127 
L 137.327414 79.431871 
L 126.442297 87.777851 
L 103.561794 118.545238 
L 178.865098 77.078254 
L 115.843872 79.112166 
L 148.034687 144.560171 
L 110.816617 147.343917 
L 211.536409 137.599228 
L 129.435165 137.586608 
" clip-path="url(#p4a08f4d7e9)" style="fill: none; stroke: #000000; stroke-opacity: 0; stroke-width: 1.5; stroke-linecap: square"/>
   </g>
   <g id="line2d_11">
    <path d="M 70.307568 177.781083 
L 69.49714 175.963813 
L 68.761108 176.981821 
L 65.897462 170.844329 
" clip-path="url(#p4a08f4d7e9)" style="fill: none; stroke: #000000; stroke-opacity: 0; stroke-width: 1.5; stroke-linecap: square"/>
   </g>
   <g id="patch_3">
    <path d="M 58.163438 185.398125 
L 58.163438 22.318125 
" style="fill: none; stroke: #000000; stroke-width: 0.8; stroke-linejoin: miter; stroke-linecap: square"/>
   </g>
   <g id="patch_4">
    <path d="M 225.563438 185.398125 
L 225.563438 22.318125 
" style="fill: none; stroke: #000000; stroke-width: 0.8; stroke-linejoin: miter; stroke-linecap: square"/>
   </g>
   <g id="patch_5">
    <path d="M 58.163438 185.398125 
L 225.563438 185.398125 
" style="fill: none; stroke: #000000; stroke-width: 0.8; stroke-linejoin: miter; stroke-linecap: square"/>
   </g>
   <g id="patch_6">
    <path d="M 58.163438 22.318125 
L 225.563438 22.318125 
" style="fill: none; stroke: #000000; stroke-width: 0.8; stroke-linejoin: miter; stroke-linecap: square"/>
   </g>
   <g id="text_11">
    <!-- No -->
    <g transform="translate(74.903438 166.046312)scale(0.1 -0.1)">
     <defs>
      <path id="DejaVuSans-6f" d="M 1959 3097 
Q 1497 3097 1228 2736 
Q 959 2375 959 1747 
Q 959 1119 1226 758 
Q 1494 397 1959 397 
Q 2419 397 2687 759 
Q 2956 1122 2956 1747 
Q 2956 2369 2687 2733 
Q 2419 3097 1959 3097 
z
M 1959 3584 
Q 2709 3584 3137 3096 
Q 3566 2609 3566 1747 
Q 3566 888 3137 398 
Q 2709 -91 1959 -91 
Q 1206 -91 779 398 
Q 353 888 353 1747 
Q 353 2609 779 3096 
Q 1206 3584 1959 3584 
z
" transform="scale(0.015625)"/>
     </defs>
     <use xlink:href="#DejaVuSans-4e"/>
     <use xlink:href="#DejaVuSans-6f" x="74.804688"/>
    </g>
    <!-- Isl1 -->
    <g transform="translate(74.903438 177.244125)scale(0.1 -0.1)">
     <defs>
      <path id="DejaVuSans-49" d="M 628 4666 
L 1259 4666 
L 1259 0 
L 628 0 
L 628 4666 
z
" transform="scale(0.015625)"/>
      <path id="DejaVuSans-73" d="M 2834 3397 
L 2834 2853 
Q 2591 2978 2328 3040 
Q 2066 3103 1784 3103 
Q 1356 3103 1142 2972 
Q 928 2841 928 2578 
Q 928 2378 1081 2264 
Q 1234 2150 1697 2047 
L 1894 2003 
Q 2506 1872 2764 1633 
Q 3022 1394 3022 966 
Q 3022 478 2636 193 
Q 2250 -91 1575 -91 
Q 1294 -91 989 -36 
Q 684 19 347 128 
L 347 722 
Q 666 556 975 473 
Q 1284 391 1588 391 
Q 1994 391 2212 530 
Q 2431 669 2431 922 
Q 2431 1156 2273 1281 
Q 2116 1406 1581 1522 
L 1381 1569 
Q 847 1681 609 1914 
Q 372 2147 372 2553 
Q 372 3047 722 3315 
Q 1072 3584 1716 3584 
Q 2034 3584 2315 3537 
Q 2597 3491 2834 3397 
z
" transform="scale(0.015625)"/>
     </defs>
     <use xlink:href="#DejaVuSans-49"/>
     <use xlink:href="#DejaVuSans-73" x="29.492188"/>
     <use xlink:href="#DejaVuSans-6c" x="81.591797"/>
     <use xlink:href="#DejaVuSans-31" x="109.375"/>
    </g>
   </g>
   <g id="text_12">
    <!-- r = 0.07 -->
    <g transform="translate(66.533438 38.626125)scale(0.1 -0.1)">
     <defs>
      <path id="DejaVuSans-3d" d="M 678 2906 
L 4684 2906 
L 4684 2381 
L 678 2381 
L 678 2906 
z
M 678 1631 
L 4684 1631 
L 4684 1100 
L 678 1100 
L 678 1631 
z
" transform="scale(0.015625)"/>
      <path id="DejaVuSans-2e" d="M 684 794 
L 1344 794 
L 1344 0 
L 684 0 
L 684 794 
z
" transform="scale(0.015625)"/>
      <path id="DejaVuSans-37" d="M 525 4666 
L 3525 4666 
L 3525 4397 
L 1831 0 
L 1172 0 
L 2766 4134 
L 525 4134 
L 525 4666 
z
" transform="scale(0.015625)"/>
     </defs>
     <use xlink:href="#DejaVuSans-72"/>
     <use xlink:href="#DejaVuSans-20" x="41.113281"/>
     <use xlink:href="#DejaVuSans-3d" x="72.900391"/>
     <use xlink:href="#DejaVuSans-20" x="156.689453"/>
     <use xlink:href="#DejaVuSans-30" x="188.476562"/>
     <use xlink:href="#DejaVuSans-2e" x="252.099609"/>
     <use xlink:href="#DejaVuSans-30" x="283.886719"/>
     <use xlink:href="#DejaVuSans-37" x="347.509766"/>
    </g>
   </g>
   <g id="text_13">
    <!-- Isl1 -->
    <g transform="translate(131.483438 16.318125)scale(0.12 -0.12)">
     <use xlink:href="#DejaVuSans-49"/>
     <use xlink:href="#DejaVuSans-73" x="29.492188"/>
     <use xlink:href="#DejaVuSans-6c" x="81.591797"/>
     <use xlink:href="#DejaVuSans-31" x="109.375"/>
    </g>
   </g>
  </g>
 </g>
 <defs>
  <clipPath id="p4a08f4d7e9">
   <rect x="58.163438" y="22.318125" width="167.4" height="163.08"/>
  </clipPath>
 </defs>
</svg>
