<?xml version="1.0" encoding="utf-8" standalone="no"?>
<!DOCTYPE svg PUBLIC "-//W3C//DTD SVG 1.1//EN"
  "http://www.w3.org/Graphics/SVG/1.1/DTD/svg11.dtd">
<svg xmlns:xlink="http://www.w3.org/1999/xlink" width="327.410937pt" height="191.86025pt" viewBox="0 0 327.410937 191.86025" xmlns="http://www.w3.org/2000/svg" version="1.1">
 <metadata>
  <rdf:RDF xmlns:dc="http://purl.org/dc/elements/1.1/" xmlns:cc="http://creativecommons.org/ns#" xmlns:rdf="http://www.w3.org/1999/02/22-rdf-syntax-ns#">
   <cc:Work>
    <dc:type rdf:resource="http://purl.org/dc/dcmitype/StillImage"/>
    <dc:date>2025-01-26T15:45:22.854486</dc:date>
    <dc:format>image/svg+xml</dc:format>
    <dc:creator>
     <cc:Agent>
      <dc:title>Matplotlib v3.5.2, https://matplotlib.org/</dc:title>
     </cc:Agent>
    </dc:creator>
   </cc:Work>
  </rdf:RDF>
 </metadata>
 <defs>
  <style type="text/css">*{stroke-linejoin: round; stroke-linecap: butt}</style>
 </defs>
 <g id="figure_1">
  <g id="patch_1">
   <path d="M 0 191.86025 
L 327.410937 191.86025 
L 327.410937 0 
L 0 0 
L 0 191.86025 
z
" style="fill: none"/>
  </g>
  <g id="axes_1">
   <g id="patch_2">
    <path d="M 53.328125 152.782125 
L 220.728125 152.782125 
L 220.728125 22.318125 
L 53.328125 22.318125 
z
" style="fill: #ffffff"/>
   </g>
   <g id="patch_3">
    <path d="M 68.295654 105.144163 
L 87.59589 105.144163 
L 87.59589 81.243577 
L 68.295654 81.243577 
L 68.295654 105.144163 
z
" clip-path="url(#pe0aa6b1509)" style="fill: #ffffff; stroke: #2a2a2a; stroke-width: 1.5; stroke-linejoin: miter"/>
   </g>
   <g id="patch_4">
    <path d="M 87.989772 125.96764 
L 107.290007 125.96764 
L 107.290007 106.333941 
L 87.989772 106.333941 
L 87.989772 125.96764 
z
" clip-path="url(#pe0aa6b1509)" style="fill: #7a1378; stroke: #2a2a2a; stroke-width: 1.5; stroke-linejoin: miter"/>
   </g>
   <g id="patch_5">
    <path d="M 117.530949 137.24239 
L 136.831184 137.24239 
L 136.831184 132.582749 
L 117.530949 132.582749 
L 117.530949 137.24239 
z
" clip-path="url(#pe0aa6b1509)" style="fill: #ffffff; stroke: #2a2a2a; stroke-width: 1.5; stroke-linejoin: miter"/>
   </g>
   <g id="patch_6">
    <path d="M 137.225066 146.797371 
L 156.525301 146.797371 
L 156.525301 144.354714 
L 137.225066 144.354714 
L 137.225066 146.797371 
z
" clip-path="url(#pe0aa6b1509)" style="fill: #7a1378; stroke: #2a2a2a; stroke-width: 1.5; stroke-linejoin: miter"/>
   </g>
   <g id="patch_7">
    <path d="M 166.766243 125.266142 
L 186.066478 125.266142 
L 186.066478 121.674322 
L 166.766243 121.674322 
L 166.766243 125.266142 
z
" clip-path="url(#pe0aa6b1509)" style="fill: #ffffff; stroke: #2a2a2a; stroke-width: 1.5; stroke-linejoin: miter"/>
   </g>
   <g id="patch_8">
    <path d="M 186.46036 137.539243 
L 205.760596 137.539243 
L 205.760596 133.039396 
L 186.46036 133.039396 
L 186.46036 137.539243 
z
" clip-path="url(#pe0aa6b1509)" style="fill: #7a1378; stroke: #2a2a2a; stroke-width: 1.5; stroke-linejoin: miter"/>
   </g>
   <g id="PathCollection_1"/>
   <g id="PathCollection_2"/>
   <g id="PathCollection_3"/>
   <g id="PathCollection_4"/>
   <g id="PathCollection_5"/>
   <g id="PathCollection_6"/>
   <g id="PathCollection_7"/>
   <g id="PathCollection_8"/>
   <g id="PathCollection_9"/>
   <g id="PathCollection_10"/>
   <g id="PathCollection_11"/>
   <g id="PathCollection_12"/>
   <g id="patch_9">
    <path d="M 87.792831 152.015714 
L 87.792831 152.015714 
L 87.792831 152.015714 
L 87.792831 152.015714 
z
" clip-path="url(#pe0aa6b1509)" style="fill: #ffffff; stroke: #2a2a2a; stroke-width: 0.75; stroke-linejoin: miter"/>
   </g>
   <g id="patch_10">
    <path d="M 87.792831 152.015714 
L 87.792831 152.015714 
L 87.792831 152.015714 
L 87.792831 152.015714 
z
" clip-path="url(#pe0aa6b1509)" style="fill: #7a1378; stroke: #2a2a2a; stroke-width: 0.75; stroke-linejoin: miter"/>
   </g>
   <g id="matplotlib.axis_1">
    <g id="xtick_1">
     <g id="line2d_1">
      <defs>
       <path id="m0269ed4737" d="M 0 0 
L 0 3.5 
" style="stroke: #000000; stroke-width: 0.8"/>
      </defs>
      <g>
       <use xlink:href="#m0269ed4737" x="87.792831" y="152.782125" style="stroke: #000000; stroke-width: 0.8"/>
      </g>
     </g>
     <g id="text_1">
      <!-- Ngn2$^{x3HA}$ -->
      <g transform="translate(65.142831 168.882125)scale(0.1 -0.1)">
       <defs>
        <path id="DejaVuSans-4e" d="M 628 4666 
L 1478 4666 
L 3547 763 
L 3547 4666 
L 4159 4666 
L 4159 0 
L 3309 0 
L 1241 3903 
L 1241 0 
L 628 0 
L 628 4666 
z
" transform="scale(0.015625)"/>
        <path id="DejaVuSans-67" d="M 2906 1791 
Q 2906 2416 2648 2759 
Q 2391 3103 1925 3103 
Q 1463 3103 1205 2759 
Q 947 2416 947 1791 
Q 947 1169 1205 825 
Q 1463 481 1925 481 
Q 2391 481 2648 825 
Q 2906 1169 2906 1791 
z
M 3481 434 
Q 3481 -459 3084 -895 
Q 2688 -1331 1869 -1331 
Q 1566 -1331 1297 -1286 
Q 1028 -1241 775 -1147 
L 775 -588 
Q 1028 -725 1275 -790 
Q 1522 -856 1778 -856 
Q 2344 -856 2625 -561 
Q 2906 -266 2906 331 
L 2906 616 
Q 2728 306 2450 153 
Q 2172 0 1784 0 
Q 1141 0 747 490 
Q 353 981 353 1791 
Q 353 2603 747 3093 
Q 1141 3584 1784 3584 
Q 2172 3584 2450 3431 
Q 2728 3278 2906 2969 
L 2906 3500 
L 3481 3500 
L 3481 434 
z
" transform="scale(0.015625)"/>
        <path id="DejaVuSans-6e" d="M 3513 2113 
L 3513 0 
L 2938 0 
L 2938 2094 
Q 2938 2591 2744 2837 
Q 2550 3084 2163 3084 
Q 1697 3084 1428 2787 
Q 1159 2491 1159 1978 
L 1159 0 
L 581 0 
L 581 3500 
L 1159 3500 
L 1159 2956 
Q 1366 3272 1645 3428 
Q 1925 3584 2291 3584 
Q 2894 3584 3203 3211 
Q 3513 2838 3513 2113 
z
" transform="scale(0.015625)"/>
        <path id="DejaVuSans-32" d="M 1228 531 
L 3431 531 
L 3431 0 
L 469 0 
L 469 531 
Q 828 903 1448 1529 
Q 2069 2156 2228 2338 
Q 2531 2678 2651 2914 
Q 2772 3150 2772 3378 
Q 2772 3750 2511 3984 
Q 2250 4219 1831 4219 
Q 1534 4219 1204 4116 
Q 875 4013 500 3803 
L 500 4441 
Q 881 4594 1212 4672 
Q 1544 4750 1819 4750 
Q 2544 4750 2975 4387 
Q 3406 4025 3406 3419 
Q 3406 3131 3298 2873 
Q 3191 2616 2906 2266 
Q 2828 2175 2409 1742 
Q 1991 1309 1228 531 
z
" transform="scale(0.015625)"/>
        <path id="DejaVuSans-Oblique-78" d="M 3841 3500 
L 2234 1784 
L 3219 0 
L 2559 0 
L 1819 1388 
L 531 0 
L -166 0 
L 1556 1844 
L 641 3500 
L 1300 3500 
L 1972 2234 
L 3144 3500 
L 3841 3500 
z
" transform="scale(0.015625)"/>
        <path id="DejaVuSans-33" d="M 2597 2516 
Q 3050 2419 3304 2112 
Q 3559 1806 3559 1356 
Q 3559 666 3084 287 
Q 2609 -91 1734 -91 
Q 1441 -91 1130 -33 
Q 819 25 488 141 
L 488 750 
Q 750 597 1062 519 
Q 1375 441 1716 441 
Q 2309 441 2620 675 
Q 2931 909 2931 1356 
Q 2931 1769 2642 2001 
Q 2353 2234 1838 2234 
L 1294 2234 
L 1294 2753 
L 1863 2753 
Q 2328 2753 2575 2939 
Q 2822 3125 2822 3475 
Q 2822 3834 2567 4026 
Q 2313 4219 1838 4219 
Q 1578 4219 1281 4162 
Q 984 4106 628 3988 
L 628 4550 
Q 988 4650 1302 4700 
Q 1616 4750 1894 4750 
Q 2613 4750 3031 4423 
Q 3450 4097 3450 3541 
Q 3450 3153 3228 2886 
Q 3006 2619 2597 2516 
z
" transform="scale(0.015625)"/>
        <path id="DejaVuSans-Oblique-48" d="M 1081 4666 
L 1716 4666 
L 1344 2753 
L 3634 2753 
L 4006 4666 
L 4641 4666 
L 3731 0 
L 3097 0 
L 3531 2222 
L 1241 2222 
L 806 0 
L 172 0 
L 1081 4666 
z
" transform="scale(0.015625)"/>
        <path id="DejaVuSans-Oblique-41" d="M 2356 4666 
L 3072 4666 
L 3938 0 
L 3278 0 
L 3084 1197 
L 984 1197 
L 325 0 
L -341 0 
L 2356 4666 
z
M 2584 4044 
L 1275 1722 
L 2988 1722 
L 2584 4044 
z
" transform="scale(0.015625)"/>
       </defs>
       <use xlink:href="#DejaVuSans-4e" transform="translate(0 0.765625)"/>
       <use xlink:href="#DejaVuSans-67" transform="translate(74.804688 0.765625)"/>
       <use xlink:href="#DejaVuSans-6e" transform="translate(138.28125 0.765625)"/>
       <use xlink:href="#DejaVuSans-32" transform="translate(201.660156 0.765625)"/>
       <use xlink:href="#DejaVuSans-Oblique-78" transform="translate(266.240234 39.046875)scale(0.7)"/>
       <use xlink:href="#DejaVuSans-33" transform="translate(307.666016 39.046875)scale(0.7)"/>
       <use xlink:href="#DejaVuSans-Oblique-48" transform="translate(349.664648 39.046875)scale(0.7)"/>
       <use xlink:href="#DejaVuSans-Oblique-41" transform="translate(402.301367 39.046875)scale(0.7)"/>
      </g>
     </g>
    </g>
    <g id="xtick_2">
     <g id="line2d_2">
      <g>
       <use xlink:href="#m0269ed4737" x="137.028125" y="152.782125" style="stroke: #000000; stroke-width: 0.8"/>
      </g>
     </g>
     <g id="text_2">
      <!-- Isl1 -->
      <g transform="translate(128.378125 167.380562)scale(0.1 -0.1)">
       <defs>
        <path id="DejaVuSans-49" d="M 628 4666 
L 1259 4666 
L 1259 0 
L 628 0 
L 628 4666 
z
" transform="scale(0.015625)"/>
        <path id="DejaVuSans-73" d="M 2834 3397 
L 2834 2853 
Q 2591 2978 2328 3040 
Q 2066 3103 1784 3103 
Q 1356 3103 1142 2972 
Q 928 2841 928 2578 
Q 928 2378 1081 2264 
Q 1234 2150 1697 2047 
L 1894 2003 
Q 2506 1872 2764 1633 
Q 3022 1394 3022 966 
Q 3022 478 2636 193 
Q 2250 -91 1575 -91 
Q 1294 -91 989 -36 
Q 684 19 347 128 
L 347 722 
Q 666 556 975 473 
Q 1284 391 1588 391 
Q 1994 391 2212 530 
Q 2431 669 2431 922 
Q 2431 1156 2273 1281 
Q 2116 1406 1581 1522 
L 1381 1569 
Q 847 1681 609 1914 
Q 372 2147 372 2553 
Q 372 3047 722 3315 
Q 1072 3584 1716 3584 
Q 2034 3584 2315 3537 
Q 2597 3491 2834 3397 
z
" transform="scale(0.015625)"/>
        <path id="DejaVuSans-6c" d="M 603 4863 
L 1178 4863 
L 1178 0 
L 603 0 
L 603 4863 
z
" transform="scale(0.015625)"/>
        <path id="DejaVuSans-31" d="M 794 531 
L 1825 531 
L 1825 4091 
L 703 3866 
L 703 4441 
L 1819 4666 
L 2450 4666 
L 2450 531 
L 3481 531 
L 3481 0 
L 794 0 
L 794 531 
z
" transform="scale(0.015625)"/>
       </defs>
       <use xlink:href="#DejaVuSans-49"/>
       <use xlink:href="#DejaVuSans-73" x="29.492188"/>
       <use xlink:href="#DejaVuSans-6c" x="81.591797"/>
       <use xlink:href="#DejaVuSans-31" x="109.375"/>
      </g>
     </g>
    </g>
    <g id="xtick_3">
     <g id="line2d_3">
      <g>
       <use xlink:href="#m0269ed4737" x="186.263419" y="152.782125" style="stroke: #000000; stroke-width: 0.8"/>
      </g>
     </g>
     <g id="text_3">
      <!-- Lhx3 -->
      <g transform="translate(174.168107 167.380562)scale(0.1 -0.1)">
       <defs>
        <path id="DejaVuSans-4c" d="M 628 4666 
L 1259 4666 
L 1259 531 
L 3531 531 
L 3531 0 
L 628 0 
L 628 4666 
z
" transform="scale(0.015625)"/>
        <path id="DejaVuSans-68" d="M 3513 2113 
L 3513 0 
L 2938 0 
L 2938 2094 
Q 2938 2591 2744 2837 
Q 2550 3084 2163 3084 
Q 1697 3084 1428 2787 
Q 1159 2491 1159 1978 
L 1159 0 
L 581 0 
L 581 4863 
L 1159 4863 
L 1159 2956 
Q 1366 3272 1645 3428 
Q 1925 3584 2291 3584 
Q 2894 3584 3203 3211 
Q 3513 2838 3513 2113 
z
" transform="scale(0.015625)"/>
        <path id="DejaVuSans-78" d="M 3513 3500 
L 2247 1797 
L 3578 0 
L 2900 0 
L 1881 1375 
L 863 0 
L 184 0 
L 1544 1831 
L 300 3500 
L 978 3500 
L 1906 2253 
L 2834 3500 
L 3513 3500 
z
" transform="scale(0.015625)"/>
       </defs>
       <use xlink:href="#DejaVuSans-4c"/>
       <use xlink:href="#DejaVuSans-68" x="55.712891"/>
       <use xlink:href="#DejaVuSans-78" x="119.091797"/>
       <use xlink:href="#DejaVuSans-33" x="178.271484"/>
      </g>
     </g>
    </g>
    <g id="text_4">
     <!-- cond -->
     <g transform="translate(124.876562 182.580563)scale(0.1 -0.1)">
      <defs>
       <path id="DejaVuSans-63" d="M 3122 3366 
L 3122 2828 
Q 2878 2963 2633 3030 
Q 2388 3097 2138 3097 
Q 1578 3097 1268 2742 
Q 959 2388 959 1747 
Q 959 1106 1268 751 
Q 1578 397 2138 397 
Q 2388 397 2633 464 
Q 2878 531 3122 666 
L 3122 134 
Q 2881 22 2623 -34 
Q 2366 -91 2075 -91 
Q 1284 -91 818 406 
Q 353 903 353 1747 
Q 353 2603 823 3093 
Q 1294 3584 2113 3584 
Q 2378 3584 2631 3529 
Q 2884 3475 3122 3366 
z
" transform="scale(0.015625)"/>
       <path id="DejaVuSans-6f" d="M 1959 3097 
Q 1497 3097 1228 2736 
Q 959 2375 959 1747 
Q 959 1119 1226 758 
Q 1494 397 1959 397 
Q 2419 397 2687 759 
Q 2956 1122 2956 1747 
Q 2956 2369 2687 2733 
Q 2419 3097 1959 3097 
z
M 1959 3584 
Q 2709 3584 3137 3096 
Q 3566 2609 3566 1747 
Q 3566 888 3137 398 
Q 2709 -91 1959 -91 
Q 1206 -91 779 398 
Q 353 888 353 1747 
Q 353 2609 779 3096 
Q 1206 3584 1959 3584 
z
" transform="scale(0.015625)"/>
       <path id="DejaVuSans-64" d="M 2906 2969 
L 2906 4863 
L 3481 4863 
L 3481 0 
L 2906 0 
L 2906 525 
Q 2725 213 2448 61 
Q 2172 -91 1784 -91 
Q 1150 -91 751 415 
Q 353 922 353 1747 
Q 353 2572 751 3078 
Q 1150 3584 1784 3584 
Q 2172 3584 2448 3432 
Q 2725 3281 2906 2969 
z
M 947 1747 
Q 947 1113 1208 752 
Q 1469 391 1925 391 
Q 2381 391 2643 752 
Q 2906 1113 2906 1747 
Q 2906 2381 2643 2742 
Q 2381 3103 1925 3103 
Q 1469 3103 1208 2742 
Q 947 2381 947 1747 
z
" transform="scale(0.015625)"/>
      </defs>
      <use xlink:href="#DejaVuSans-63"/>
      <use xlink:href="#DejaVuSans-6f" x="54.980469"/>
      <use xlink:href="#DejaVuSans-6e" x="116.162109"/>
      <use xlink:href="#DejaVuSans-64" x="179.541016"/>
     </g>
    </g>
   </g>
   <g id="matplotlib.axis_2">
    <g id="ytick_1">
     <g id="line2d_4">
      <defs>
       <path id="m21053ec83f" d="M 0 0 
L -3.5 0 
" style="stroke: #000000; stroke-width: 0.8"/>
      </defs>
      <g>
       <use xlink:href="#m21053ec83f" x="53.328125" y="152.015714" style="stroke: #000000; stroke-width: 0.8"/>
      </g>
     </g>
     <g id="text_5">
      <!-- 0 -->
      <g transform="translate(39.965625 155.814933)scale(0.1 -0.1)">
       <defs>
        <path id="DejaVuSans-30" d="M 2034 4250 
Q 1547 4250 1301 3770 
Q 1056 3291 1056 2328 
Q 1056 1369 1301 889 
Q 1547 409 2034 409 
Q 2525 409 2770 889 
Q 3016 1369 3016 2328 
Q 3016 3291 2770 3770 
Q 2525 4250 2034 4250 
z
M 2034 4750 
Q 2819 4750 3233 4129 
Q 3647 3509 3647 2328 
Q 3647 1150 3233 529 
Q 2819 -91 2034 -91 
Q 1250 -91 836 529 
Q 422 1150 422 2328 
Q 422 3509 836 4129 
Q 1250 4750 2034 4750 
z
" transform="scale(0.015625)"/>
       </defs>
       <use xlink:href="#DejaVuSans-30"/>
      </g>
     </g>
    </g>
    <g id="ytick_2">
     <g id="line2d_5">
      <g>
       <use xlink:href="#m21053ec83f" x="53.328125" y="135.719249" style="stroke: #000000; stroke-width: 0.8"/>
      </g>
     </g>
     <g id="text_6">
      <!-- 1000 -->
      <g transform="translate(20.878125 139.518468)scale(0.1 -0.1)">
       <use xlink:href="#DejaVuSans-31"/>
       <use xlink:href="#DejaVuSans-30" x="63.623047"/>
       <use xlink:href="#DejaVuSans-30" x="127.246094"/>
       <use xlink:href="#DejaVuSans-30" x="190.869141"/>
      </g>
     </g>
    </g>
    <g id="ytick_3">
     <g id="line2d_6">
      <g>
       <use xlink:href="#m21053ec83f" x="53.328125" y="119.422784" style="stroke: #000000; stroke-width: 0.8"/>
      </g>
     </g>
     <g id="text_7">
      <!-- 2000 -->
      <g transform="translate(20.878125 123.222002)scale(0.1 -0.1)">
       <use xlink:href="#DejaVuSans-32"/>
       <use xlink:href="#DejaVuSans-30" x="63.623047"/>
       <use xlink:href="#DejaVuSans-30" x="127.246094"/>
       <use xlink:href="#DejaVuSans-30" x="190.869141"/>
      </g>
     </g>
    </g>
    <g id="ytick_4">
     <g id="line2d_7">
      <g>
       <use xlink:href="#m21053ec83f" x="53.328125" y="103.126318" style="stroke: #000000; stroke-width: 0.8"/>
      </g>
     </g>
     <g id="text_8">
      <!-- 3000 -->
      <g transform="translate(20.878125 106.925537)scale(0.1 -0.1)">
       <use xlink:href="#DejaVuSans-33"/>
       <use xlink:href="#DejaVuSans-30" x="63.623047"/>
       <use xlink:href="#DejaVuSans-30" x="127.246094"/>
       <use xlink:href="#DejaVuSans-30" x="190.869141"/>
      </g>
     </g>
    </g>
    <g id="ytick_5">
     <g id="line2d_8">
      <g>
       <use xlink:href="#m21053ec83f" x="53.328125" y="86.829853" style="stroke: #000000; stroke-width: 0.8"/>
      </g>
     </g>
     <g id="text_9">
      <!-- 4000 -->
      <g transform="translate(20.878125 90.629072)scale(0.1 -0.1)">
       <defs>
        <path id="DejaVuSans-34" d="M 2419 4116 
L 825 1625 
L 2419 1625 
L 2419 4116 
z
M 2253 4666 
L 3047 4666 
L 3047 1625 
L 3713 1625 
L 3713 1100 
L 3047 1100 
L 3047 0 
L 2419 0 
L 2419 1100 
L 313 1100 
L 313 1709 
L 2253 4666 
z
" transform="scale(0.015625)"/>
       </defs>
       <use xlink:href="#DejaVuSans-34"/>
       <use xlink:href="#DejaVuSans-30" x="63.623047"/>
       <use xlink:href="#DejaVuSans-30" x="127.246094"/>
       <use xlink:href="#DejaVuSans-30" x="190.869141"/>
      </g>
     </g>
    </g>
    <g id="ytick_6">
     <g id="line2d_9">
      <g>
       <use xlink:href="#m21053ec83f" x="53.328125" y="70.533388" style="stroke: #000000; stroke-width: 0.8"/>
      </g>
     </g>
     <g id="text_10">
      <!-- 5000 -->
      <g transform="translate(20.878125 74.332607)scale(0.1 -0.1)">
       <defs>
        <path id="DejaVuSans-35" d="M 691 4666 
L 3169 4666 
L 3169 4134 
L 1269 4134 
L 1269 2991 
Q 1406 3038 1543 3061 
Q 1681 3084 1819 3084 
Q 2600 3084 3056 2656 
Q 3513 2228 3513 1497 
Q 3513 744 3044 326 
Q 2575 -91 1722 -91 
Q 1428 -91 1123 -41 
Q 819 9 494 109 
L 494 744 
Q 775 591 1075 516 
Q 1375 441 1709 441 
Q 2250 441 2565 725 
Q 2881 1009 2881 1497 
Q 2881 1984 2565 2268 
Q 2250 2553 1709 2553 
Q 1456 2553 1204 2497 
Q 953 2441 691 2322 
L 691 4666 
z
" transform="scale(0.015625)"/>
       </defs>
       <use xlink:href="#DejaVuSans-35"/>
       <use xlink:href="#DejaVuSans-30" x="63.623047"/>
       <use xlink:href="#DejaVuSans-30" x="127.246094"/>
       <use xlink:href="#DejaVuSans-30" x="190.869141"/>
      </g>
     </g>
    </g>
    <g id="ytick_7">
     <g id="line2d_10">
      <g>
       <use xlink:href="#m21053ec83f" x="53.328125" y="54.236923" style="stroke: #000000; stroke-width: 0.8"/>
      </g>
     </g>
     <g id="text_11">
      <!-- 6000 -->
      <g transform="translate(20.878125 58.036141)scale(0.1 -0.1)">
       <defs>
        <path id="DejaVuSans-36" d="M 2113 2584 
Q 1688 2584 1439 2293 
Q 1191 2003 1191 1497 
Q 1191 994 1439 701 
Q 1688 409 2113 409 
Q 2538 409 2786 701 
Q 3034 994 3034 1497 
Q 3034 2003 2786 2293 
Q 2538 2584 2113 2584 
z
M 3366 4563 
L 3366 3988 
Q 3128 4100 2886 4159 
Q 2644 4219 2406 4219 
Q 1781 4219 1451 3797 
Q 1122 3375 1075 2522 
Q 1259 2794 1537 2939 
Q 1816 3084 2150 3084 
Q 2853 3084 3261 2657 
Q 3669 2231 3669 1497 
Q 3669 778 3244 343 
Q 2819 -91 2113 -91 
Q 1303 -91 875 529 
Q 447 1150 447 2328 
Q 447 3434 972 4092 
Q 1497 4750 2381 4750 
Q 2619 4750 2861 4703 
Q 3103 4656 3366 4563 
z
" transform="scale(0.015625)"/>
       </defs>
       <use xlink:href="#DejaVuSans-36"/>
       <use xlink:href="#DejaVuSans-30" x="63.623047"/>
       <use xlink:href="#DejaVuSans-30" x="127.246094"/>
       <use xlink:href="#DejaVuSans-30" x="190.869141"/>
      </g>
     </g>
    </g>
    <g id="ytick_8">
     <g id="line2d_11">
      <g>
       <use xlink:href="#m21053ec83f" x="53.328125" y="37.940457" style="stroke: #000000; stroke-width: 0.8"/>
      </g>
     </g>
     <g id="text_12">
      <!-- 7000 -->
      <g transform="translate(20.878125 41.739676)scale(0.1 -0.1)">
       <defs>
        <path id="DejaVuSans-37" d="M 525 4666 
L 3525 4666 
L 3525 4397 
L 1831 0 
L 1172 0 
L 2766 4134 
L 525 4134 
L 525 4666 
z
" transform="scale(0.015625)"/>
       </defs>
       <use xlink:href="#DejaVuSans-37"/>
       <use xlink:href="#DejaVuSans-30" x="63.623047"/>
       <use xlink:href="#DejaVuSans-30" x="127.246094"/>
       <use xlink:href="#DejaVuSans-30" x="190.869141"/>
      </g>
     </g>
    </g>
    <g id="text_13">
     <!-- mRuby2 (gmean) -->
     <g transform="translate(14.798437 130.997781)rotate(-90)scale(0.1 -0.1)">
      <defs>
       <path id="DejaVuSans-6d" d="M 3328 2828 
Q 3544 3216 3844 3400 
Q 4144 3584 4550 3584 
Q 5097 3584 5394 3201 
Q 5691 2819 5691 2113 
L 5691 0 
L 5113 0 
L 5113 2094 
Q 5113 2597 4934 2840 
Q 4756 3084 4391 3084 
Q 3944 3084 3684 2787 
Q 3425 2491 3425 1978 
L 3425 0 
L 2847 0 
L 2847 2094 
Q 2847 2600 2669 2842 
Q 2491 3084 2119 3084 
Q 1678 3084 1418 2786 
Q 1159 2488 1159 1978 
L 1159 0 
L 581 0 
L 581 3500 
L 1159 3500 
L 1159 2956 
Q 1356 3278 1631 3431 
Q 1906 3584 2284 3584 
Q 2666 3584 2933 3390 
Q 3200 3197 3328 2828 
z
" transform="scale(0.015625)"/>
       <path id="DejaVuSans-52" d="M 2841 2188 
Q 3044 2119 3236 1894 
Q 3428 1669 3622 1275 
L 4263 0 
L 3584 0 
L 2988 1197 
Q 2756 1666 2539 1819 
Q 2322 1972 1947 1972 
L 1259 1972 
L 1259 0 
L 628 0 
L 628 4666 
L 2053 4666 
Q 2853 4666 3247 4331 
Q 3641 3997 3641 3322 
Q 3641 2881 3436 2590 
Q 3231 2300 2841 2188 
z
M 1259 4147 
L 1259 2491 
L 2053 2491 
Q 2509 2491 2742 2702 
Q 2975 2913 2975 3322 
Q 2975 3731 2742 3939 
Q 2509 4147 2053 4147 
L 1259 4147 
z
" transform="scale(0.015625)"/>
       <path id="DejaVuSans-75" d="M 544 1381 
L 544 3500 
L 1119 3500 
L 1119 1403 
Q 1119 906 1312 657 
Q 1506 409 1894 409 
Q 2359 409 2629 706 
Q 2900 1003 2900 1516 
L 2900 3500 
L 3475 3500 
L 3475 0 
L 2900 0 
L 2900 538 
Q 2691 219 2414 64 
Q 2138 -91 1772 -91 
Q 1169 -91 856 284 
Q 544 659 544 1381 
z
M 1991 3584 
L 1991 3584 
z
" transform="scale(0.015625)"/>
       <path id="DejaVuSans-62" d="M 3116 1747 
Q 3116 2381 2855 2742 
Q 2594 3103 2138 3103 
Q 1681 3103 1420 2742 
Q 1159 2381 1159 1747 
Q 1159 1113 1420 752 
Q 1681 391 2138 391 
Q 2594 391 2855 752 
Q 3116 1113 3116 1747 
z
M 1159 2969 
Q 1341 3281 1617 3432 
Q 1894 3584 2278 3584 
Q 2916 3584 3314 3078 
Q 3713 2572 3713 1747 
Q 3713 922 3314 415 
Q 2916 -91 2278 -91 
Q 1894 -91 1617 61 
Q 1341 213 1159 525 
L 1159 0 
L 581 0 
L 581 4863 
L 1159 4863 
L 1159 2969 
z
" transform="scale(0.015625)"/>
       <path id="DejaVuSans-79" d="M 2059 -325 
Q 1816 -950 1584 -1140 
Q 1353 -1331 966 -1331 
L 506 -1331 
L 506 -850 
L 844 -850 
Q 1081 -850 1212 -737 
Q 1344 -625 1503 -206 
L 1606 56 
L 191 3500 
L 800 3500 
L 1894 763 
L 2988 3500 
L 3597 3500 
L 2059 -325 
z
" transform="scale(0.015625)"/>
       <path id="DejaVuSans-20" transform="scale(0.015625)"/>
       <path id="DejaVuSans-28" d="M 1984 4856 
Q 1566 4138 1362 3434 
Q 1159 2731 1159 2009 
Q 1159 1288 1364 580 
Q 1569 -128 1984 -844 
L 1484 -844 
Q 1016 -109 783 600 
Q 550 1309 550 2009 
Q 550 2706 781 3412 
Q 1013 4119 1484 4856 
L 1984 4856 
z
" transform="scale(0.015625)"/>
       <path id="DejaVuSans-65" d="M 3597 1894 
L 3597 1613 
L 953 1613 
Q 991 1019 1311 708 
Q 1631 397 2203 397 
Q 2534 397 2845 478 
Q 3156 559 3463 722 
L 3463 178 
Q 3153 47 2828 -22 
Q 2503 -91 2169 -91 
Q 1331 -91 842 396 
Q 353 884 353 1716 
Q 353 2575 817 3079 
Q 1281 3584 2069 3584 
Q 2775 3584 3186 3129 
Q 3597 2675 3597 1894 
z
M 3022 2063 
Q 3016 2534 2758 2815 
Q 2500 3097 2075 3097 
Q 1594 3097 1305 2825 
Q 1016 2553 972 2059 
L 3022 2063 
z
" transform="scale(0.015625)"/>
       <path id="DejaVuSans-61" d="M 2194 1759 
Q 1497 1759 1228 1600 
Q 959 1441 959 1056 
Q 959 750 1161 570 
Q 1363 391 1709 391 
Q 2188 391 2477 730 
Q 2766 1069 2766 1631 
L 2766 1759 
L 2194 1759 
z
M 3341 1997 
L 3341 0 
L 2766 0 
L 2766 531 
Q 2569 213 2275 61 
Q 1981 -91 1556 -91 
Q 1019 -91 701 211 
Q 384 513 384 1019 
Q 384 1609 779 1909 
Q 1175 2209 1959 2209 
L 2766 2209 
L 2766 2266 
Q 2766 2663 2505 2880 
Q 2244 3097 1772 3097 
Q 1472 3097 1187 3025 
Q 903 2953 641 2809 
L 641 3341 
Q 956 3463 1253 3523 
Q 1550 3584 1831 3584 
Q 2591 3584 2966 3190 
Q 3341 2797 3341 1997 
z
" transform="scale(0.015625)"/>
       <path id="DejaVuSans-29" d="M 513 4856 
L 1013 4856 
Q 1481 4119 1714 3412 
Q 1947 2706 1947 2009 
Q 1947 1309 1714 600 
Q 1481 -109 1013 -844 
L 513 -844 
Q 928 -128 1133 580 
Q 1338 1288 1338 2009 
Q 1338 2731 1133 3434 
Q 928 4138 513 4856 
z
" transform="scale(0.015625)"/>
      </defs>
      <use xlink:href="#DejaVuSans-6d"/>
      <use xlink:href="#DejaVuSans-52" x="97.412109"/>
      <use xlink:href="#DejaVuSans-75" x="162.394531"/>
      <use xlink:href="#DejaVuSans-62" x="225.773438"/>
      <use xlink:href="#DejaVuSans-79" x="289.25"/>
      <use xlink:href="#DejaVuSans-32" x="348.429688"/>
      <use xlink:href="#DejaVuSans-20" x="412.052734"/>
      <use xlink:href="#DejaVuSans-28" x="443.839844"/>
      <use xlink:href="#DejaVuSans-67" x="482.853516"/>
      <use xlink:href="#DejaVuSans-6d" x="546.330078"/>
      <use xlink:href="#DejaVuSans-65" x="643.742188"/>
      <use xlink:href="#DejaVuSans-61" x="705.265625"/>
      <use xlink:href="#DejaVuSans-6e" x="766.544922"/>
      <use xlink:href="#DejaVuSans-29" x="829.923828"/>
     </g>
    </g>
   </g>
   <g id="line2d_12">
    <path d="M 77.945772 105.144163 
L 77.945772 105.144163 
" clip-path="url(#pe0aa6b1509)" style="fill: none; stroke: #2a2a2a; stroke-width: 1.5; stroke-linecap: square"/>
   </g>
   <g id="line2d_13">
    <path d="M 77.945772 81.243577 
L 77.945772 81.243577 
" clip-path="url(#pe0aa6b1509)" style="fill: none; stroke: #2a2a2a; stroke-width: 1.5; stroke-linecap: square"/>
   </g>
   <g id="line2d_14">
    <path d="M 73.120713 105.144163 
L 82.770831 105.144163 
" clip-path="url(#pe0aa6b1509)" style="fill: none; stroke: #2a2a2a; stroke-width: 1.5; stroke-linecap: square"/>
   </g>
   <g id="line2d_15">
    <path d="M 73.120713 81.243577 
L 82.770831 81.243577 
" clip-path="url(#pe0aa6b1509)" style="fill: none; stroke: #2a2a2a; stroke-width: 1.5; stroke-linecap: square"/>
   </g>
   <g id="line2d_16">
    <path d="M 97.63989 125.96764 
L 97.63989 125.96764 
" clip-path="url(#pe0aa6b1509)" style="fill: none; stroke: #2a2a2a; stroke-width: 1.5; stroke-linecap: square"/>
   </g>
   <g id="line2d_17">
    <path d="M 97.63989 106.333941 
L 97.63989 106.333941 
" clip-path="url(#pe0aa6b1509)" style="fill: none; stroke: #2a2a2a; stroke-width: 1.5; stroke-linecap: square"/>
   </g>
   <g id="line2d_18">
    <path d="M 92.814831 125.96764 
L 102.464949 125.96764 
" clip-path="url(#pe0aa6b1509)" style="fill: none; stroke: #2a2a2a; stroke-width: 1.5; stroke-linecap: square"/>
   </g>
   <g id="line2d_19">
    <path d="M 92.814831 106.333941 
L 102.464949 106.333941 
" clip-path="url(#pe0aa6b1509)" style="fill: none; stroke: #2a2a2a; stroke-width: 1.5; stroke-linecap: square"/>
   </g>
   <g id="line2d_20">
    <path d="M 127.181066 137.24239 
L 127.181066 137.24239 
" clip-path="url(#pe0aa6b1509)" style="fill: none; stroke: #2a2a2a; stroke-width: 1.5; stroke-linecap: square"/>
   </g>
   <g id="line2d_21">
    <path d="M 127.181066 132.582749 
L 127.181066 132.582749 
" clip-path="url(#pe0aa6b1509)" style="fill: none; stroke: #2a2a2a; stroke-width: 1.5; stroke-linecap: square"/>
   </g>
   <g id="line2d_22">
    <path d="M 122.356007 137.24239 
L 132.006125 137.24239 
" clip-path="url(#pe0aa6b1509)" style="fill: none; stroke: #2a2a2a; stroke-width: 1.5; stroke-linecap: square"/>
   </g>
   <g id="line2d_23">
    <path d="M 122.356007 132.582749 
L 132.006125 132.582749 
" clip-path="url(#pe0aa6b1509)" style="fill: none; stroke: #2a2a2a; stroke-width: 1.5; stroke-linecap: square"/>
   </g>
   <g id="line2d_24">
    <path d="M 146.875184 146.797371 
L 146.875184 146.797371 
" clip-path="url(#pe0aa6b1509)" style="fill: none; stroke: #2a2a2a; stroke-width: 1.5; stroke-linecap: square"/>
   </g>
   <g id="line2d_25">
    <path d="M 146.875184 144.354714 
L 146.875184 144.354714 
" clip-path="url(#pe0aa6b1509)" style="fill: none; stroke: #2a2a2a; stroke-width: 1.5; stroke-linecap: square"/>
   </g>
   <g id="line2d_26">
    <path d="M 142.050125 146.797371 
L 151.700243 146.797371 
" clip-path="url(#pe0aa6b1509)" style="fill: none; stroke: #2a2a2a; stroke-width: 1.5; stroke-linecap: square"/>
   </g>
   <g id="line2d_27">
    <path d="M 142.050125 144.354714 
L 151.700243 144.354714 
" clip-path="url(#pe0aa6b1509)" style="fill: none; stroke: #2a2a2a; stroke-width: 1.5; stroke-linecap: square"/>
   </g>
   <g id="line2d_28">
    <path d="M 176.41636 125.266142 
L 176.41636 125.266142 
" clip-path="url(#pe0aa6b1509)" style="fill: none; stroke: #2a2a2a; stroke-width: 1.5; stroke-linecap: square"/>
   </g>
   <g id="line2d_29">
    <path d="M 176.41636 121.674322 
L 176.41636 121.674322 
" clip-path="url(#pe0aa6b1509)" style="fill: none; stroke: #2a2a2a; stroke-width: 1.5; stroke-linecap: square"/>
   </g>
   <g id="line2d_30">
    <path d="M 171.591301 125.266142 
L 181.241419 125.266142 
" clip-path="url(#pe0aa6b1509)" style="fill: none; stroke: #2a2a2a; stroke-width: 1.5; stroke-linecap: square"/>
   </g>
   <g id="line2d_31">
    <path d="M 171.591301 121.674322 
L 181.241419 121.674322 
" clip-path="url(#pe0aa6b1509)" style="fill: none; stroke: #2a2a2a; stroke-width: 1.5; stroke-linecap: square"/>
   </g>
   <g id="line2d_32">
    <path d="M 196.110478 137.539243 
L 196.110478 137.539243 
" clip-path="url(#pe0aa6b1509)" style="fill: none; stroke: #2a2a2a; stroke-width: 1.5; stroke-linecap: square"/>
   </g>
   <g id="line2d_33">
    <path d="M 196.110478 133.039396 
L 196.110478 133.039396 
" clip-path="url(#pe0aa6b1509)" style="fill: none; stroke: #2a2a2a; stroke-width: 1.5; stroke-linecap: square"/>
   </g>
   <g id="line2d_34">
    <path d="M 191.285419 137.539243 
L 200.935537 137.539243 
" clip-path="url(#pe0aa6b1509)" style="fill: none; stroke: #2a2a2a; stroke-width: 1.5; stroke-linecap: square"/>
   </g>
   <g id="line2d_35">
    <path d="M 191.285419 133.039396 
L 200.935537 133.039396 
" clip-path="url(#pe0aa6b1509)" style="fill: none; stroke: #2a2a2a; stroke-width: 1.5; stroke-linecap: square"/>
   </g>
   <g id="line2d_36">
    <path d="M 127.181066 130.504554 
L 127.181066 128.135097 
L 146.875184 128.135097 
L 146.875184 130.504554 
" clip-path="url(#pe0aa6b1509)" style="fill: none; stroke: #333333; stroke-width: 1.5; stroke-linecap: square"/>
   </g>
   <g id="line2d_37">
    <path d="M 77.945772 39.694401 
L 77.945772 37.324944 
L 97.63989 37.324944 
L 97.63989 39.694401 
" clip-path="url(#pe0aa6b1509)" style="fill: none; stroke: #333333; stroke-width: 1.5; stroke-linecap: square"/>
   </g>
   <g id="line2d_38">
    <path d="M 176.41636 104.885542 
L 176.41636 102.516085 
L 196.110478 102.516085 
L 196.110478 104.885542 
" clip-path="url(#pe0aa6b1509)" style="fill: none; stroke: #333333; stroke-width: 1.5; stroke-linecap: square"/>
   </g>
   <g id="line2d_39">
    <path d="M 68.295654 97.662145 
L 87.59589 97.662145 
" clip-path="url(#pe0aa6b1509)" style="fill: none; stroke: #2a2a2a; stroke-width: 1.5; stroke-linecap: square"/>
   </g>
   <g id="line2d_40">
    <path d="M 87.989772 118.038199 
L 107.290007 118.038199 
" clip-path="url(#pe0aa6b1509)" style="fill: none; stroke: #2a2a2a; stroke-width: 1.5; stroke-linecap: square"/>
   </g>
   <g id="line2d_41">
    <path d="M 117.530949 133.095852 
L 136.831184 133.095852 
" clip-path="url(#pe0aa6b1509)" style="fill: none; stroke: #2a2a2a; stroke-width: 1.5; stroke-linecap: square"/>
   </g>
   <g id="line2d_42">
    <path d="M 137.225066 145.516156 
L 156.525301 145.516156 
" clip-path="url(#pe0aa6b1509)" style="fill: none; stroke: #2a2a2a; stroke-width: 1.5; stroke-linecap: square"/>
   </g>
   <g id="line2d_43">
    <path d="M 166.766243 122.621524 
L 186.066478 122.621524 
" clip-path="url(#pe0aa6b1509)" style="fill: none; stroke: #2a2a2a; stroke-width: 1.5; stroke-linecap: square"/>
   </g>
   <g id="line2d_44">
    <path d="M 186.46036 135.252968 
L 205.760596 135.252968 
" clip-path="url(#pe0aa6b1509)" style="fill: none; stroke: #2a2a2a; stroke-width: 1.5; stroke-linecap: square"/>
   </g>
   <g id="patch_11">
    <path d="M 53.328125 152.782125 
L 53.328125 22.318125 
" style="fill: none; stroke: #000000; stroke-width: 0.8; stroke-linejoin: miter; stroke-linecap: square"/>
   </g>
   <g id="patch_12">
    <path d="M 220.728125 152.782125 
L 220.728125 22.318125 
" style="fill: none; stroke: #000000; stroke-width: 0.8; stroke-linejoin: miter; stroke-linecap: square"/>
   </g>
   <g id="patch_13">
    <path d="M 53.328125 152.782125 
L 220.728125 152.782125 
" style="fill: none; stroke: #000000; stroke-width: 0.8; stroke-linejoin: miter; stroke-linecap: square"/>
   </g>
   <g id="patch_14">
    <path d="M 53.328125 22.318125 
L 220.728125 22.318125 
" style="fill: none; stroke: #000000; stroke-width: 0.8; stroke-linejoin: miter; stroke-linecap: square"/>
   </g>
   <g id="PathCollection_13">
    <defs>
     <path id="C0_0_ff17c60bf9" d="M 0 2.5 
C 0.663008 2.5 1.29895 2.236584 1.767767 1.767767 
C 2.236584 1.29895 2.5 0.663008 2.5 -0 
C 2.5 -0.663008 2.236584 -1.29895 1.767767 -1.767767 
C 1.29895 -2.236584 0.663008 -2.5 0 -2.5 
C -0.663008 -2.5 -1.29895 -2.236584 -1.767767 -1.767767 
C -2.236584 -1.29895 -2.5 -0.663008 -2.5 0 
C -2.5 0.663008 -2.236584 1.29895 -1.767767 1.767767 
C -1.29895 2.236584 -0.663008 2.5 0 2.5 
z
"/>
    </defs>
    <g clip-path="url(#pe0aa6b1509)">
     <use xlink:href="#C0_0_ff17c60bf9" x="79.320989" y="85.837714" style="fill: #ffffff; stroke: #000000; stroke-width: 0.4"/>
    </g>
    <g clip-path="url(#pe0aa6b1509)">
     <use xlink:href="#C0_0_ff17c60bf9" x="75.995331" y="96.962168" style="fill: #ffffff; stroke: #000000; stroke-width: 0.4"/>
    </g>
    <g clip-path="url(#pe0aa6b1509)">
     <use xlink:href="#C0_0_ff17c60bf9" x="77.301837" y="98.674295" style="fill: #ffffff; stroke: #000000; stroke-width: 0.4"/>
    </g>
   </g>
   <g id="PathCollection_14">
    <defs>
     <path id="C1_0_7c54e59a8a" d="M 0 2.5 
C 0.663008 2.5 1.29895 2.236584 1.767767 1.767767 
C 2.236584 1.29895 2.5 0.663008 2.5 -0 
C 2.5 -0.663008 2.236584 -1.29895 1.767767 -1.767767 
C 1.29895 -2.236584 0.663008 -2.5 0 -2.5 
C -0.663008 -2.5 -1.29895 -2.236584 -1.767767 -1.767767 
C -2.236584 -1.29895 -2.5 -0.663008 -2.5 0 
C -2.5 0.663008 -2.236584 1.29895 -1.767767 1.767767 
C -1.29895 2.236584 -0.663008 2.5 0 2.5 
z
"/>
    </defs>
    <g clip-path="url(#pe0aa6b1509)">
     <use xlink:href="#C1_0_7c54e59a8a" x="97.98509" y="117.672127" style="fill: #ffffff; stroke: #000000; stroke-width: 0.4"/>
    </g>
    <g clip-path="url(#pe0aa6b1509)">
     <use xlink:href="#C1_0_7c54e59a8a" x="98.058055" y="123.485567" style="fill: #ffffff; stroke: #000000; stroke-width: 0.4"/>
    </g>
    <g clip-path="url(#pe0aa6b1509)">
     <use xlink:href="#C1_0_7c54e59a8a" x="96.027691" y="125.015326" style="fill: #ffffff; stroke: #000000; stroke-width: 0.4"/>
    </g>
   </g>
   <g id="PathCollection_15">
    <defs>
     <path id="C2_0_a37e469b25" d="M 0 2.5 
C 0.663008 2.5 1.29895 2.236584 1.767767 1.767767 
C 2.236584 1.29895 2.5 0.663008 2.5 -0 
C 2.5 -0.663008 2.236584 -1.29895 1.767767 -1.767767 
C 1.29895 -2.236584 0.663008 -2.5 0 -2.5 
C -0.663008 -2.5 -1.29895 -2.236584 -1.767767 -1.767767 
C -2.236584 -1.29895 -2.5 -0.663008 -2.5 0 
C -2.5 0.663008 -2.236584 1.29895 -1.767767 1.767767 
C -1.29895 2.236584 -0.663008 2.5 0 2.5 
z
"/>
    </defs>
    <g clip-path="url(#pe0aa6b1509)">
     <use xlink:href="#C2_0_a37e469b25" x="125.571668" y="132.784552" style="fill: #ffffff; stroke: #000000; stroke-width: 0.4"/>
    </g>
    <g clip-path="url(#pe0aa6b1509)">
     <use xlink:href="#C2_0_a37e469b25" x="129.153899" y="131.672174" style="fill: #ffffff; stroke: #000000; stroke-width: 0.4"/>
    </g>
    <g clip-path="url(#pe0aa6b1509)">
     <use xlink:href="#C2_0_a37e469b25" x="125.502483" y="130.504554" style="fill: #ffffff; stroke: #000000; stroke-width: 0.4"/>
    </g>
   </g>
   <g id="PathCollection_16">
    <defs>
     <path id="C3_0_10d7d7b2d4" d="M 0 2.5 
C 0.663008 2.5 1.29895 2.236584 1.767767 1.767767 
C 2.236584 1.29895 2.5 0.663008 2.5 -0 
C 2.5 -0.663008 2.236584 -1.29895 1.767767 -1.767767 
C 1.29895 -2.236584 0.663008 -2.5 0 -2.5 
C -0.663008 -2.5 -1.29895 -2.236584 -1.767767 -1.767767 
C -2.236584 -1.29895 -2.5 -0.663008 -2.5 0 
C -2.5 0.663008 -2.236584 1.29895 -1.767767 1.767767 
C -1.29895 2.236584 -0.663008 2.5 0 2.5 
z
"/>
    </defs>
    <g clip-path="url(#pe0aa6b1509)">
     <use xlink:href="#C3_0_10d7d7b2d4" x="147.111098" y="145.397236" style="fill: #ffffff; stroke: #000000; stroke-width: 0.4"/>
    </g>
    <g clip-path="url(#pe0aa6b1509)">
     <use xlink:href="#C3_0_10d7d7b2d4" x="148.901193" y="145.28465" style="fill: #ffffff; stroke: #000000; stroke-width: 0.4"/>
    </g>
    <g clip-path="url(#pe0aa6b1509)">
     <use xlink:href="#C3_0_10d7d7b2d4" x="147.861514" y="144.773912" style="fill: #ffffff; stroke: #000000; stroke-width: 0.4"/>
    </g>
   </g>
   <g id="PathCollection_17">
    <path d="M 0 194.36025 
C 0.663008 194.36025 1.29895 194.096834 1.767767 193.628017 
C 2.236584 193.1592 2.5 192.523258 2.5 191.86025 
C 2.5 191.197242 2.236584 190.5613 1.767767 190.092483 
C 1.29895 189.623666 0.663008 189.36025 0 189.36025 
C -0.663008 189.36025 -1.29895 189.623666 -1.767767 190.092483 
C -2.236584 190.5613 -2.5 191.197242 -2.5 191.86025 
C -2.5 192.523258 -2.236584 193.1592 -1.767767 193.628017 
C -1.29895 194.096834 -0.663008 194.36025 0 194.36025 
" clip-path="url(#pe0aa6b1509)" style="fill: none; stroke: #000000; stroke-width: 0.4"/>
   </g>
   <g id="PathCollection_18">
    <path d="M 0 194.36025 
C 0.663008 194.36025 1.29895 194.096834 1.767767 193.628017 
C 2.236584 193.1592 2.5 192.523258 2.5 191.86025 
C 2.5 191.197242 2.236584 190.5613 1.767767 190.092483 
C 1.29895 189.623666 0.663008 189.36025 0 189.36025 
C -0.663008 189.36025 -1.29895 189.623666 -1.767767 190.092483 
C -2.236584 190.5613 -2.5 191.197242 -2.5 191.86025 
C -2.5 192.523258 -2.236584 193.1592 -1.767767 193.628017 
C -1.29895 194.096834 -0.663008 194.36025 0 194.36025 
" clip-path="url(#pe0aa6b1509)" style="fill: none; stroke: #000000; stroke-width: 0.4"/>
   </g>
   <g id="PathCollection_19">
    <path d="M 73.912508 107.56699 
L 78.912508 107.56699 
L 78.912508 102.56699 
L 73.912508 102.56699 
z
" clip-path="url(#pe0aa6b1509)" style="fill: #ffffff; stroke: #000000; stroke-width: 0.4"/>
    <path d="M 74.010527 112.000331 
L 79.010527 112.000331 
L 79.010527 107.000331 
L 74.010527 107.000331 
z
" clip-path="url(#pe0aa6b1509)" style="fill: #ffffff; stroke: #000000; stroke-width: 0.4"/>
    <path d="M 74.999689 113.921449 
L 79.999689 113.921449 
L 79.999689 108.921449 
L 74.999689 108.921449 
z
" clip-path="url(#pe0aa6b1509)" style="fill: #ffffff; stroke: #000000; stroke-width: 0.4"/>
   </g>
   <g id="PathCollection_20">
    <path d="M 93.924958 131.324583 
L 98.924958 131.324583 
L 98.924958 126.324583 
L 93.924958 126.324583 
z
" clip-path="url(#pe0aa6b1509)" style="fill: #ffffff; stroke: #000000; stroke-width: 0.4"/>
    <path d="M 96.469725 133.179746 
L 101.469725 133.179746 
L 101.469725 128.179746 
L 96.469725 128.179746 
z
" clip-path="url(#pe0aa6b1509)" style="fill: #ffffff; stroke: #000000; stroke-width: 0.4"/>
    <path d="M 94.380724 133.360649 
L 99.380724 133.360649 
L 99.380724 128.360649 
L 94.380724 128.360649 
z
" clip-path="url(#pe0aa6b1509)" style="fill: #ffffff; stroke: #000000; stroke-width: 0.4"/>
   </g>
   <g id="PathCollection_21">
    <path d="M 124.397029 142.548391 
L 129.397029 142.548391 
L 129.397029 137.548391 
L 124.397029 137.548391 
z
" clip-path="url(#pe0aa6b1509)" style="fill: #ffffff; stroke: #000000; stroke-width: 0.4"/>
    <path d="M 127.005385 142.646325 
L 132.005385 142.646325 
L 132.005385 137.646325 
L 127.005385 137.646325 
z
" clip-path="url(#pe0aa6b1509)" style="fill: #ffffff; stroke: #000000; stroke-width: 0.4"/>
    <path d="M 122.65775 142.522551 
L 127.65775 142.522551 
L 127.65775 137.522551 
L 122.65775 137.522551 
z
" clip-path="url(#pe0aa6b1509)" style="fill: #ffffff; stroke: #000000; stroke-width: 0.4"/>
   </g>
   <g id="PathCollection_22">
    <path d="M 143.395518 149.598334 
L 148.395518 149.598334 
L 148.395518 144.598334 
L 143.395518 144.598334 
z
" clip-path="url(#pe0aa6b1509)" style="fill: #ffffff; stroke: #000000; stroke-width: 0.4"/>
    <path d="M 146.449389 149.650059 
L 151.449389 149.650059 
L 151.449389 144.650059 
L 146.449389 144.650059 
z
" clip-path="url(#pe0aa6b1509)" style="fill: #ffffff; stroke: #000000; stroke-width: 0.4"/>
    <path d="M 145.055296 149.896995 
L 150.055296 149.896995 
L 150.055296 144.896995 
L 145.055296 144.896995 
z
" clip-path="url(#pe0aa6b1509)" style="fill: #ffffff; stroke: #000000; stroke-width: 0.4"/>
   </g>
   <g id="PathCollection_23">
    <path d="M 2.5 192.86025 
L 2.5 189.36025 
L -1 189.36025 
" clip-path="url(#pe0aa6b1509)" style="fill: none; stroke: #000000; stroke-width: 0.4"/>
   </g>
   <g id="PathCollection_24">
    <path d="M 2.5 192.86025 
L 2.5 189.36025 
L -1 189.36025 
" clip-path="url(#pe0aa6b1509)" style="fill: none; stroke: #000000; stroke-width: 0.4"/>
   </g>
   <g id="PathCollection_25">
    <path d="M 79.36136 92.748051 
L 76.86136 97.748051 
L 81.86136 97.748051 
z
" clip-path="url(#pe0aa6b1509)" style="fill: #ffffff; stroke: #000000; stroke-width: 0.4"/>
    <path d="M 75.952144 102.875682 
L 73.452144 107.875682 
L 78.452144 107.875682 
z
" clip-path="url(#pe0aa6b1509)" style="fill: #ffffff; stroke: #000000; stroke-width: 0.4"/>
    <path d="M 75.535769 95.862123 
L 73.035769 100.862123 
L 78.035769 100.862123 
z
" clip-path="url(#pe0aa6b1509)" style="fill: #ffffff; stroke: #000000; stroke-width: 0.4"/>
   </g>
   <g id="PathCollection_26">
    <path d="M 98.385489 94.294122 
L 95.885489 99.294122 
L 100.885489 99.294122 
z
" clip-path="url(#pe0aa6b1509)" style="fill: #ffffff; stroke: #000000; stroke-width: 0.4"/>
    <path d="M 95.987975 100.487175 
L 93.487975 105.487175 
L 98.487975 105.487175 
z
" clip-path="url(#pe0aa6b1509)" style="fill: #ffffff; stroke: #000000; stroke-width: 0.4"/>
    <path d="M 95.616834 106.991075 
L 93.116834 111.991075 
L 98.116834 111.991075 
z
" clip-path="url(#pe0aa6b1509)" style="fill: #ffffff; stroke: #000000; stroke-width: 0.4"/>
   </g>
   <g id="PathCollection_27">
    <path d="M 124.875245 129.79213 
L 122.375245 134.79213 
L 127.375245 134.79213 
z
" clip-path="url(#pe0aa6b1509)" style="fill: #ffffff; stroke: #000000; stroke-width: 0.4"/>
    <path d="M 126.596125 130.379449 
L 124.096125 135.379449 
L 129.096125 135.379449 
z
" clip-path="url(#pe0aa6b1509)" style="fill: #ffffff; stroke: #000000; stroke-width: 0.4"/>
    <path d="M 125.437275 130.179622 
L 122.937275 135.179622 
L 127.937275 135.179622 
z
" clip-path="url(#pe0aa6b1509)" style="fill: #ffffff; stroke: #000000; stroke-width: 0.4"/>
   </g>
   <g id="PathCollection_28">
    <path d="M 148.443076 140.233939 
L 145.943076 145.233939 
L 150.943076 145.233939 
z
" clip-path="url(#pe0aa6b1509)" style="fill: #ffffff; stroke: #000000; stroke-width: 0.4"/>
    <path d="M 146.757002 140.59712 
L 144.257002 145.59712 
L 149.257002 145.59712 
z
" clip-path="url(#pe0aa6b1509)" style="fill: #ffffff; stroke: #000000; stroke-width: 0.4"/>
    <path d="M 147.185228 140.575661 
L 144.685228 145.575661 
L 149.685228 145.575661 
z
" clip-path="url(#pe0aa6b1509)" style="fill: #ffffff; stroke: #000000; stroke-width: 0.4"/>
   </g>
   <g id="PathCollection_29">
    <path d="M 176.981497 122.343781 
L 174.481497 127.343781 
L 179.481497 127.343781 
z
" clip-path="url(#pe0aa6b1509)" style="fill: #ffffff; stroke: #000000; stroke-width: 0.4"/>
    <path d="M 174.564403 120.483265 
L 172.064403 125.483265 
L 177.064403 125.483265 
z
" clip-path="url(#pe0aa6b1509)" style="fill: #ffffff; stroke: #000000; stroke-width: 0.4"/>
    <path d="M 174.92853 123.963994 
L 172.42853 128.963994 
L 177.42853 128.963994 
z
" clip-path="url(#pe0aa6b1509)" style="fill: #ffffff; stroke: #000000; stroke-width: 0.4"/>
   </g>
   <g id="PathCollection_30">
    <path d="M 196.34113 130.564124 
L 193.84113 135.564124 
L 198.84113 135.564124 
z
" clip-path="url(#pe0aa6b1509)" style="fill: #ffffff; stroke: #000000; stroke-width: 0.4"/>
    <path d="M 197.470614 130.465212 
L 194.970614 135.465212 
L 199.970614 135.465212 
z
" clip-path="url(#pe0aa6b1509)" style="fill: #ffffff; stroke: #000000; stroke-width: 0.4"/>
    <path d="M 194.003044 130.187614 
L 191.503044 135.187614 
L 196.503044 135.187614 
z
" clip-path="url(#pe0aa6b1509)" style="fill: #ffffff; stroke: #000000; stroke-width: 0.4"/>
   </g>
   <g id="PathCollection_31">
    <path d="M 76.64619 43.229935 
L 80.181724 39.694401 
L 76.64619 36.158867 
L 73.110656 39.694401 
z
" clip-path="url(#pe0aa6b1509)" style="fill: #ffffff; stroke: #000000; stroke-width: 0.4"/>
    <path d="M 75.568506 51.656444 
L 79.10404 48.12091 
L 75.568506 44.585377 
L 72.032972 48.12091 
z
" clip-path="url(#pe0aa6b1509)" style="fill: #ffffff; stroke: #000000; stroke-width: 0.4"/>
    <path d="M 76.276017 70.996701 
L 79.811551 67.461167 
L 76.276017 63.925633 
L 72.740483 67.461167 
z
" clip-path="url(#pe0aa6b1509)" style="fill: #ffffff; stroke: #000000; stroke-width: 0.4"/>
   </g>
   <g id="PathCollection_32">
    <path d="M 96.034195 106.555133 
L 99.569729 103.019599 
L 96.034195 99.484065 
L 92.498661 103.019599 
z
" clip-path="url(#pe0aa6b1509)" style="fill: #ffffff; stroke: #000000; stroke-width: 0.4"/>
    <path d="M 97.579389 110.974256 
L 101.114923 107.438722 
L 97.579389 103.903188 
L 94.043855 107.438722 
z
" clip-path="url(#pe0aa6b1509)" style="fill: #ffffff; stroke: #000000; stroke-width: 0.4"/>
    <path d="M 99.424063 121.939806 
L 102.959597 118.404272 
L 99.424063 114.868738 
L 95.888529 118.404272 
z
" clip-path="url(#pe0aa6b1509)" style="fill: #ffffff; stroke: #000000; stroke-width: 0.4"/>
   </g>
   <g id="PathCollection_33">
    <path d="M 127.803343 136.847789 
L 131.338877 133.312255 
L 127.803343 129.776721 
L 124.267809 133.312255 
z
" clip-path="url(#pe0aa6b1509)" style="fill: #ffffff; stroke: #000000; stroke-width: 0.4"/>
    <path d="M 128.617248 139.851203 
L 132.152782 136.315669 
L 128.617248 132.780135 
L 125.081715 136.315669 
z
" clip-path="url(#pe0aa6b1509)" style="fill: #ffffff; stroke: #000000; stroke-width: 0.4"/>
    <path d="M 127.173375 137.656268 
L 130.708909 134.120734 
L 127.173375 130.5852 
L 123.637841 134.120734 
z
" clip-path="url(#pe0aa6b1509)" style="fill: #ffffff; stroke: #000000; stroke-width: 0.4"/>
   </g>
   <g id="PathCollection_34">
    <path d="M 145.73312 149.17061 
L 149.268654 145.635077 
L 145.73312 142.099543 
L 142.197586 145.635077 
z
" clip-path="url(#pe0aa6b1509)" style="fill: #ffffff; stroke: #000000; stroke-width: 0.4"/>
    <path d="M 145.413229 150.232584 
L 148.948763 146.69705 
L 145.413229 143.161517 
L 141.877695 146.69705 
z
" clip-path="url(#pe0aa6b1509)" style="fill: #ffffff; stroke: #000000; stroke-width: 0.4"/>
    <path d="M 146.32582 149.39106 
L 149.861354 145.855526 
L 146.32582 142.319992 
L 142.790286 145.855526 
z
" clip-path="url(#pe0aa6b1509)" style="fill: #ffffff; stroke: #000000; stroke-width: 0.4"/>
   </g>
   <g id="PathCollection_35">
    <path d="M 178.272654 108.421076 
L 181.808188 104.885542 
L 178.272654 101.350008 
L 174.73712 104.885542 
z
" clip-path="url(#pe0aa6b1509)" style="fill: #ffffff; stroke: #000000; stroke-width: 0.4"/>
    <path d="M 177.158493 123.912761 
L 180.694027 120.377227 
L 177.158493 116.841693 
L 173.62296 120.377227 
z
" clip-path="url(#pe0aa6b1509)" style="fill: #ffffff; stroke: #000000; stroke-width: 0.4"/>
    <path d="M 174.117778 124.530081 
L 177.653312 120.994547 
L 174.117778 117.459013 
L 170.582244 120.994547 
z
" clip-path="url(#pe0aa6b1509)" style="fill: #ffffff; stroke: #000000; stroke-width: 0.4"/>
   </g>
   <g id="PathCollection_36">
    <path d="M 195.83618 137.648987 
L 199.371714 134.113453 
L 195.83618 130.57792 
L 192.300646 134.113453 
z
" clip-path="url(#pe0aa6b1509)" style="fill: #ffffff; stroke: #000000; stroke-width: 0.4"/>
    <path d="M 194.127637 143.50626 
L 197.663171 139.970726 
L 194.127637 136.435192 
L 190.592103 139.970726 
z
" clip-path="url(#pe0aa6b1509)" style="fill: #ffffff; stroke: #000000; stroke-width: 0.4"/>
    <path d="M 198.164601 143.526077 
L 201.700135 139.990543 
L 198.164601 136.455009 
L 194.629067 139.990543 
z
" clip-path="url(#pe0aa6b1509)" style="fill: #ffffff; stroke: #000000; stroke-width: 0.4"/>
   </g>
   <g id="PathCollection_37">
    <path d="M 0.833333 192.86025 
L 0.833333 192.693583 
L 2.5 192.693583 
L 2.5 191.026917 
L 0.833333 191.026917 
L 0.833333 189.36025 
L -0.833333 189.36025 
L -0.833333 191.026917 
L -1 191.026917 
M -1 192.693583 
L -0.833333 192.693583 
L -0.833333 192.86025 
" clip-path="url(#pe0aa6b1509)" style="fill: none; stroke: #000000; stroke-width: 0.4"/>
   </g>
   <g id="PathCollection_38">
    <path d="M 0.833333 192.86025 
L 0.833333 192.693583 
L 2.5 192.693583 
L 2.5 191.026917 
L 0.833333 191.026917 
L 0.833333 189.36025 
L -0.833333 189.36025 
L -0.833333 191.026917 
L -1 191.026917 
M -1 192.693583 
L -0.833333 192.693583 
L -0.833333 192.86025 
" clip-path="url(#pe0aa6b1509)" style="fill: none; stroke: #000000; stroke-width: 0.4"/>
   </g>
   <g id="PathCollection_39">
    <path d="M 0.833333 192.86025 
L 0.833333 192.693583 
L 2.5 192.693583 
L 2.5 191.026917 
L 0.833333 191.026917 
L 0.833333 189.36025 
L -0.833333 189.36025 
L -0.833333 191.026917 
L -1 191.026917 
M -1 192.693583 
L -0.833333 192.693583 
L -0.833333 192.86025 
" clip-path="url(#pe0aa6b1509)" style="fill: none; stroke: #000000; stroke-width: 0.4"/>
   </g>
   <g id="PathCollection_40">
    <path d="M 0.833333 192.86025 
L 0.833333 192.693583 
L 2.5 192.693583 
L 2.5 191.026917 
L 0.833333 191.026917 
L 0.833333 189.36025 
L -0.833333 189.36025 
L -0.833333 191.026917 
L -1 191.026917 
M -1 192.693583 
L -0.833333 192.693583 
L -0.833333 192.86025 
" clip-path="url(#pe0aa6b1509)" style="fill: none; stroke: #000000; stroke-width: 0.4"/>
   </g>
   <g id="PathCollection_41">
    <defs>
     <path id="C4_0_df6c007053" d="M -0.833333 2.5 
L 0.833333 2.5 
L 0.833333 0.833333 
L 2.5 0.833333 
L 2.5 -0.833333 
L 0.833333 -0.833333 
L 0.833333 -2.5 
L -0.833333 -2.5 
L -0.833333 -0.833333 
L -2.5 -0.833333 
L -2.5 0.833333 
L -0.833333 0.833333 
z
"/>
    </defs>
    <g clip-path="url(#pe0aa6b1509)">
     <use xlink:href="#C4_0_df6c007053" x="175.776128" y="121.913744" style="fill: #ffffff; stroke: #000000; stroke-width: 0.4"/>
    </g>
    <g clip-path="url(#pe0aa6b1509)">
     <use xlink:href="#C4_0_df6c007053" x="177.572678" y="121.900914" style="fill: #ffffff; stroke: #000000; stroke-width: 0.4"/>
    </g>
    <g clip-path="url(#pe0aa6b1509)">
     <use xlink:href="#C4_0_df6c007053" x="174.61317" y="125.545816" style="fill: #ffffff; stroke: #000000; stroke-width: 0.4"/>
    </g>
   </g>
   <g id="PathCollection_42">
    <defs>
     <path id="C5_0_0b1b48ca18" d="M -0.833333 2.5 
L 0.833333 2.5 
L 0.833333 0.833333 
L 2.5 0.833333 
L 2.5 -0.833333 
L 0.833333 -0.833333 
L 0.833333 -2.5 
L -0.833333 -2.5 
L -0.833333 -0.833333 
L -2.5 -0.833333 
L -2.5 0.833333 
L -0.833333 0.833333 
z
"/>
    </defs>
    <g clip-path="url(#pe0aa6b1509)">
     <use xlink:href="#C5_0_0b1b48ca18" x="194.813639" y="135.429403" style="fill: #ffffff; stroke: #000000; stroke-width: 0.4"/>
    </g>
    <g clip-path="url(#pe0aa6b1509)">
     <use xlink:href="#C5_0_0b1b48ca18" x="194.336477" y="135.076533" style="fill: #ffffff; stroke: #000000; stroke-width: 0.4"/>
    </g>
    <g clip-path="url(#pe0aa6b1509)">
     <use xlink:href="#C5_0_0b1b48ca18" x="194.614017" y="138.341092" style="fill: #ffffff; stroke: #000000; stroke-width: 0.4"/>
    </g>
   </g>
   <g id="PathCollection_43">
    <path d="M 2.25 192.86025 
L 1.25 191.86025 
L 2.5 190.61025 
L 1.25 189.36025 
L 0 190.61025 
L -1 189.61025 
" clip-path="url(#pe0aa6b1509)" style="fill: none; stroke: #000000; stroke-width: 0.4"/>
   </g>
   <g id="PathCollection_44">
    <path d="M 2.25 192.86025 
L 1.25 191.86025 
L 2.5 190.61025 
L 1.25 189.36025 
L 0 190.61025 
L -1 189.61025 
" clip-path="url(#pe0aa6b1509)" style="fill: none; stroke: #000000; stroke-width: 0.4"/>
   </g>
   <g id="PathCollection_45">
    <path d="M 2.25 192.86025 
L 1.25 191.86025 
L 2.5 190.61025 
L 1.25 189.36025 
L 0 190.61025 
L -1 189.61025 
" clip-path="url(#pe0aa6b1509)" style="fill: none; stroke: #000000; stroke-width: 0.4"/>
   </g>
   <g id="PathCollection_46">
    <path d="M 2.25 192.86025 
L 1.25 191.86025 
L 2.5 190.61025 
L 1.25 189.36025 
L 0 190.61025 
L -1 189.61025 
" clip-path="url(#pe0aa6b1509)" style="fill: none; stroke: #000000; stroke-width: 0.4"/>
   </g>
   <g id="PathCollection_47">
    <defs>
     <path id="C6_0_d8f06428ff" d="M -1.25 2.5 
L 0 1.25 
L 1.25 2.5 
L 2.5 1.25 
L 1.25 -0 
L 2.5 -1.25 
L 1.25 -2.5 
L 0 -1.25 
L -1.25 -2.5 
L -2.5 -1.25 
L -1.25 0 
L -2.5 1.25 
z
"/>
    </defs>
    <g clip-path="url(#pe0aa6b1509)">
     <use xlink:href="#C6_0_d8f06428ff" x="177.998111" y="122.259783" style="fill: #ffffff; stroke: #000000; stroke-width: 0.4"/>
    </g>
    <g clip-path="url(#pe0aa6b1509)">
     <use xlink:href="#C6_0_d8f06428ff" x="177.469788" y="125.172918" style="fill: #ffffff; stroke: #000000; stroke-width: 0.4"/>
    </g>
    <g clip-path="url(#pe0aa6b1509)">
     <use xlink:href="#C6_0_d8f06428ff" x="176.250498" y="127.10242" style="fill: #ffffff; stroke: #000000; stroke-width: 0.4"/>
    </g>
   </g>
   <g id="PathCollection_48">
    <defs>
     <path id="C7_0_a11985ee18" d="M -1.25 2.5 
L 0 1.25 
L 1.25 2.5 
L 2.5 1.25 
L 1.25 -0 
L 2.5 -1.25 
L 1.25 -2.5 
L 0 -1.25 
L -1.25 -2.5 
L -2.5 -1.25 
L -1.25 0 
L -2.5 1.25 
z
"/>
    </defs>
    <g clip-path="url(#pe0aa6b1509)">
     <use xlink:href="#C7_0_a11985ee18" x="198.283783" y="131.642344" style="fill: #ffffff; stroke: #000000; stroke-width: 0.4"/>
    </g>
    <g clip-path="url(#pe0aa6b1509)">
     <use xlink:href="#C7_0_a11985ee18" x="195.866692" y="135.610579" style="fill: #ffffff; stroke: #000000; stroke-width: 0.4"/>
    </g>
    <g clip-path="url(#pe0aa6b1509)">
     <use xlink:href="#C7_0_a11985ee18" x="198.058207" y="137.27196" style="fill: #ffffff; stroke: #000000; stroke-width: 0.4"/>
    </g>
   </g>
   <g id="text_14">
    <!-- *** -->
    <g transform="translate(129.528125 125.055409)scale(0.1 -0.1)">
     <defs>
      <path id="DejaVuSans-2a" d="M 3009 3897 
L 1888 3291 
L 3009 2681 
L 2828 2375 
L 1778 3009 
L 1778 1831 
L 1422 1831 
L 1422 3009 
L 372 2375 
L 191 2681 
L 1313 3291 
L 191 3897 
L 372 4206 
L 1422 3572 
L 1422 4750 
L 1778 4750 
L 1778 3572 
L 2828 4206 
L 3009 3897 
z
" transform="scale(0.015625)"/>
     </defs>
     <use xlink:href="#DejaVuSans-2a"/>
     <use xlink:href="#DejaVuSans-2a" x="50"/>
     <use xlink:href="#DejaVuSans-2a" x="100"/>
    </g>
   </g>
   <g id="text_15">
    <!-- * -->
    <g transform="translate(85.292831 34.245257)scale(0.1 -0.1)">
     <use xlink:href="#DejaVuSans-2a"/>
    </g>
   </g>
   <g id="text_16">
    <!-- *** -->
    <g transform="translate(178.763419 99.436397)scale(0.1 -0.1)">
     <use xlink:href="#DejaVuSans-2a"/>
     <use xlink:href="#DejaVuSans-2a" x="50"/>
     <use xlink:href="#DejaVuSans-2a" x="100"/>
    </g>
   </g>
   <g id="text_17">
    <!-- 4 dpi -->
    <g transform="translate(122.01875 16.318125)scale(0.12 -0.12)">
     <defs>
      <path id="DejaVuSans-70" d="M 1159 525 
L 1159 -1331 
L 581 -1331 
L 581 3500 
L 1159 3500 
L 1159 2969 
Q 1341 3281 1617 3432 
Q 1894 3584 2278 3584 
Q 2916 3584 3314 3078 
Q 3713 2572 3713 1747 
Q 3713 922 3314 415 
Q 2916 -91 2278 -91 
Q 1894 -91 1617 61 
Q 1341 213 1159 525 
z
M 3116 1747 
Q 3116 2381 2855 2742 
Q 2594 3103 2138 3103 
Q 1681 3103 1420 2742 
Q 1159 2381 1159 1747 
Q 1159 1113 1420 752 
Q 1681 391 2138 391 
Q 2594 391 2855 752 
Q 3116 1113 3116 1747 
z
" transform="scale(0.015625)"/>
      <path id="DejaVuSans-69" d="M 603 3500 
L 1178 3500 
L 1178 0 
L 603 0 
L 603 3500 
z
M 603 4863 
L 1178 4863 
L 1178 4134 
L 603 4134 
L 603 4863 
z
" transform="scale(0.015625)"/>
     </defs>
     <use xlink:href="#DejaVuSans-34"/>
     <use xlink:href="#DejaVuSans-20" x="63.623047"/>
     <use xlink:href="#DejaVuSans-64" x="95.410156"/>
     <use xlink:href="#DejaVuSans-70" x="158.886719"/>
     <use xlink:href="#DejaVuSans-69" x="222.363281"/>
    </g>
   </g>
   <g id="legend_1">
    <g id="patch_15">
     <path d="M 229.728125 38.916562 
L 249.728125 38.916562 
L 249.728125 31.916562 
L 229.728125 31.916562 
z
" style="fill: #ffffff; stroke: #2a2a2a; stroke-width: 0.75; stroke-linejoin: miter"/>
    </g>
    <g id="text_18">
     <!-- non-HyperP -->
     <g transform="translate(257.728125 38.916562)scale(0.1 -0.1)">
      <defs>
       <path id="DejaVuSans-2d" d="M 313 2009 
L 1997 2009 
L 1997 1497 
L 313 1497 
L 313 2009 
z
" transform="scale(0.015625)"/>
       <path id="DejaVuSans-48" d="M 628 4666 
L 1259 4666 
L 1259 2753 
L 3553 2753 
L 3553 4666 
L 4184 4666 
L 4184 0 
L 3553 0 
L 3553 2222 
L 1259 2222 
L 1259 0 
L 628 0 
L 628 4666 
z
" transform="scale(0.015625)"/>
       <path id="DejaVuSans-72" d="M 2631 2963 
Q 2534 3019 2420 3045 
Q 2306 3072 2169 3072 
Q 1681 3072 1420 2755 
Q 1159 2438 1159 1844 
L 1159 0 
L 581 0 
L 581 3500 
L 1159 3500 
L 1159 2956 
Q 1341 3275 1631 3429 
Q 1922 3584 2338 3584 
Q 2397 3584 2469 3576 
Q 2541 3569 2628 3553 
L 2631 2963 
z
" transform="scale(0.015625)"/>
       <path id="DejaVuSans-50" d="M 1259 4147 
L 1259 2394 
L 2053 2394 
Q 2494 2394 2734 2622 
Q 2975 2850 2975 3272 
Q 2975 3691 2734 3919 
Q 2494 4147 2053 4147 
L 1259 4147 
z
M 628 4666 
L 2053 4666 
Q 2838 4666 3239 4311 
Q 3641 3956 3641 3272 
Q 3641 2581 3239 2228 
Q 2838 1875 2053 1875 
L 1259 1875 
L 1259 0 
L 628 0 
L 628 4666 
z
" transform="scale(0.015625)"/>
      </defs>
      <use xlink:href="#DejaVuSans-6e"/>
      <use xlink:href="#DejaVuSans-6f" x="63.378906"/>
      <use xlink:href="#DejaVuSans-6e" x="124.560547"/>
      <use xlink:href="#DejaVuSans-2d" x="187.939453"/>
      <use xlink:href="#DejaVuSans-48" x="224.023438"/>
      <use xlink:href="#DejaVuSans-79" x="299.21875"/>
      <use xlink:href="#DejaVuSans-70" x="358.398438"/>
      <use xlink:href="#DejaVuSans-65" x="421.875"/>
      <use xlink:href="#DejaVuSans-72" x="483.398438"/>
      <use xlink:href="#DejaVuSans-50" x="524.511719"/>
     </g>
    </g>
    <g id="patch_16">
     <path d="M 229.728125 53.594687 
L 249.728125 53.594687 
L 249.728125 46.594687 
L 229.728125 46.594687 
z
" style="fill: #7a1378; stroke: #2a2a2a; stroke-width: 0.75; stroke-linejoin: miter"/>
    </g>
    <g id="text_19">
     <!-- HyperP -->
     <g transform="translate(257.728125 53.594687)scale(0.1 -0.1)">
      <use xlink:href="#DejaVuSans-48"/>
      <use xlink:href="#DejaVuSans-79" x="75.195312"/>
      <use xlink:href="#DejaVuSans-70" x="134.375"/>
      <use xlink:href="#DejaVuSans-65" x="197.851562"/>
      <use xlink:href="#DejaVuSans-72" x="259.375"/>
      <use xlink:href="#DejaVuSans-50" x="300.488281"/>
     </g>
    </g>
   </g>
  </g>
 </g>
 <defs>
  <clipPath id="pe0aa6b1509">
   <rect x="53.328125" y="22.318125" width="167.4" height="130.464"/>
  </clipPath>
 </defs>
</svg>
