<?xml version="1.0" encoding="utf-8" standalone="no"?>
<!DOCTYPE svg PUBLIC "-//W3C//DTD SVG 1.1//EN"
  "http://www.w3.org/Graphics/SVG/1.1/DTD/svg11.dtd">
<svg xmlns:xlink="http://www.w3.org/1999/xlink" width="296.035397pt" height="137.808733pt" viewBox="0 0 296.035397 137.808733" xmlns="http://www.w3.org/2000/svg" version="1.1">
 <metadata>
  <rdf:RDF xmlns:dc="http://purl.org/dc/elements/1.1/" xmlns:cc="http://creativecommons.org/ns#" xmlns:rdf="http://www.w3.org/1999/02/22-rdf-syntax-ns#">
   <cc:Work>
    <dc:type rdf:resource="http://purl.org/dc/dcmitype/StillImage"/>
    <dc:date>2025-01-25T17:08:02.612041</dc:date>
    <dc:format>image/svg+xml</dc:format>
    <dc:creator>
     <cc:Agent>
      <dc:title>Matplotlib v3.5.2, https://matplotlib.org/</dc:title>
     </cc:Agent>
    </dc:creator>
   </cc:Work>
  </rdf:RDF>
 </metadata>
 <defs>
  <style type="text/css">*{stroke-linejoin: round; stroke-linecap: butt}</style>
 </defs>
 <g id="figure_1">
  <g id="patch_1">
   <path d="M 0 137.808733 
L 296.035397 137.808733 
L 296.035397 0 
L 0 0 
L 0 137.808733 
z
" style="fill: none"/>
  </g>
  <g id="axes_1">
   <g id="patch_2">
    <path d="M 60.506319 79.66188 
L 172.106319 79.66188 
L 172.106319 7.2 
L 60.506319 7.2 
z
" style="fill: #ffffff"/>
   </g>
   <g id="matplotlib.axis_1">
    <g id="xtick_1">
     <g id="line2d_1">
      <defs>
       <path id="m7e73d9ffc3" d="M 0 0 
L 0 6 
" style="stroke: #262626; stroke-width: 1.25"/>
      </defs>
      <g>
       <use xlink:href="#m7e73d9ffc3" x="60.506319" y="79.66188" style="fill: #262626; stroke: #262626; stroke-width: 1.25"/>
      </g>
     </g>
     <g id="text_1">
      <!-- 0 -->
      <g style="fill: #262626" transform="translate(57.141952 97.822833)scale(0.121 -0.121)">
       <defs>
        <path id="ArialMT-30" d="M 266 2259 
Q 266 3072 433 3567 
Q 600 4063 929 4331 
Q 1259 4600 1759 4600 
Q 2128 4600 2406 4451 
Q 2684 4303 2865 4023 
Q 3047 3744 3150 3342 
Q 3253 2941 3253 2259 
Q 3253 1453 3087 958 
Q 2922 463 2592 192 
Q 2263 -78 1759 -78 
Q 1097 -78 719 397 
Q 266 969 266 2259 
z
M 844 2259 
Q 844 1131 1108 757 
Q 1372 384 1759 384 
Q 2147 384 2411 759 
Q 2675 1134 2675 2259 
Q 2675 3391 2411 3762 
Q 2147 4134 1753 4134 
Q 1366 4134 1134 3806 
Q 844 3388 844 2259 
z
" transform="scale(0.015625)"/>
       </defs>
       <use xlink:href="#ArialMT-30"/>
      </g>
     </g>
    </g>
    <g id="xtick_2">
     <g id="line2d_2">
      <g>
       <use xlink:href="#m7e73d9ffc3" x="116.306319" y="79.66188" style="fill: #262626; stroke: #262626; stroke-width: 1.25"/>
      </g>
     </g>
     <g id="text_2">
      <!-- 10 -->
      <g style="fill: #262626" transform="translate(109.577584 97.822833)scale(0.121 -0.121)">
       <defs>
        <path id="ArialMT-31" d="M 2384 0 
L 1822 0 
L 1822 3584 
Q 1619 3391 1289 3197 
Q 959 3003 697 2906 
L 697 3450 
Q 1169 3672 1522 3987 
Q 1875 4303 2022 4600 
L 2384 4600 
L 2384 0 
z
" transform="scale(0.015625)"/>
       </defs>
       <use xlink:href="#ArialMT-31"/>
       <use xlink:href="#ArialMT-30" x="55.615234"/>
      </g>
     </g>
    </g>
    <g id="xtick_3">
     <g id="line2d_3">
      <g>
       <use xlink:href="#m7e73d9ffc3" x="172.106319" y="79.66188" style="fill: #262626; stroke: #262626; stroke-width: 1.25"/>
      </g>
     </g>
     <g id="text_3">
      <!-- 20 -->
      <g style="fill: #262626" transform="translate(165.377584 97.822833)scale(0.121 -0.121)">
       <defs>
        <path id="ArialMT-32" d="M 3222 541 
L 3222 0 
L 194 0 
Q 188 203 259 391 
Q 375 700 629 1000 
Q 884 1300 1366 1694 
Q 2113 2306 2375 2664 
Q 2638 3022 2638 3341 
Q 2638 3675 2398 3904 
Q 2159 4134 1775 4134 
Q 1369 4134 1125 3890 
Q 881 3647 878 3216 
L 300 3275 
Q 359 3922 746 4261 
Q 1134 4600 1788 4600 
Q 2447 4600 2831 4234 
Q 3216 3869 3216 3328 
Q 3216 3053 3103 2787 
Q 2991 2522 2730 2228 
Q 2469 1934 1863 1422 
Q 1356 997 1212 845 
Q 1069 694 975 541 
L 3222 541 
z
" transform="scale(0.015625)"/>
       </defs>
       <use xlink:href="#ArialMT-32"/>
       <use xlink:href="#ArialMT-30" x="55.615234"/>
      </g>
     </g>
    </g>
    <g id="text_4">
     <!-- Time -->
     <g style="fill: #262626" transform="translate(101.888413 113.676021)scale(0.132 -0.132)">
      <defs>
       <path id="ArialMT-54" d="M 1659 0 
L 1659 4041 
L 150 4041 
L 150 4581 
L 3781 4581 
L 3781 4041 
L 2266 4041 
L 2266 0 
L 1659 0 
z
" transform="scale(0.015625)"/>
       <path id="ArialMT-69" d="M 425 3934 
L 425 4581 
L 988 4581 
L 988 3934 
L 425 3934 
z
M 425 0 
L 425 3319 
L 988 3319 
L 988 0 
L 425 0 
z
" transform="scale(0.015625)"/>
       <path id="ArialMT-6d" d="M 422 0 
L 422 3319 
L 925 3319 
L 925 2853 
Q 1081 3097 1340 3245 
Q 1600 3394 1931 3394 
Q 2300 3394 2536 3241 
Q 2772 3088 2869 2813 
Q 3263 3394 3894 3394 
Q 4388 3394 4653 3120 
Q 4919 2847 4919 2278 
L 4919 0 
L 4359 0 
L 4359 2091 
Q 4359 2428 4304 2576 
Q 4250 2725 4106 2815 
Q 3963 2906 3769 2906 
Q 3419 2906 3187 2673 
Q 2956 2441 2956 1928 
L 2956 0 
L 2394 0 
L 2394 2156 
Q 2394 2531 2256 2718 
Q 2119 2906 1806 2906 
Q 1569 2906 1367 2781 
Q 1166 2656 1075 2415 
Q 984 2175 984 1722 
L 984 0 
L 422 0 
z
" transform="scale(0.015625)"/>
       <path id="ArialMT-65" d="M 2694 1069 
L 3275 997 
Q 3138 488 2766 206 
Q 2394 -75 1816 -75 
Q 1088 -75 661 373 
Q 234 822 234 1631 
Q 234 2469 665 2931 
Q 1097 3394 1784 3394 
Q 2450 3394 2872 2941 
Q 3294 2488 3294 1666 
Q 3294 1616 3291 1516 
L 816 1516 
Q 847 969 1125 678 
Q 1403 388 1819 388 
Q 2128 388 2347 550 
Q 2566 713 2694 1069 
z
M 847 1978 
L 2700 1978 
Q 2663 2397 2488 2606 
Q 2219 2931 1791 2931 
Q 1403 2931 1139 2672 
Q 875 2413 847 1978 
z
" transform="scale(0.015625)"/>
      </defs>
      <use xlink:href="#ArialMT-54"/>
      <use xlink:href="#ArialMT-69" x="57.333984"/>
      <use xlink:href="#ArialMT-6d" x="79.550781"/>
      <use xlink:href="#ArialMT-65" x="162.851562"/>
     </g>
     <!-- (dpi) -->
     <g style="fill: #262626" transform="translate(103.104256 127.830546)scale(0.132 -0.132)">
      <defs>
       <path id="ArialMT-28" d="M 1497 -1347 
Q 1031 -759 709 28 
Q 388 816 388 1659 
Q 388 2403 628 3084 
Q 909 3875 1497 4659 
L 1900 4659 
Q 1522 4009 1400 3731 
Q 1209 3300 1100 2831 
Q 966 2247 966 1656 
Q 966 153 1900 -1347 
L 1497 -1347 
z
" transform="scale(0.015625)"/>
       <path id="ArialMT-64" d="M 2575 0 
L 2575 419 
Q 2259 -75 1647 -75 
Q 1250 -75 917 144 
Q 584 363 401 755 
Q 219 1147 219 1656 
Q 219 2153 384 2558 
Q 550 2963 881 3178 
Q 1213 3394 1622 3394 
Q 1922 3394 2156 3267 
Q 2391 3141 2538 2938 
L 2538 4581 
L 3097 4581 
L 3097 0 
L 2575 0 
z
M 797 1656 
Q 797 1019 1065 703 
Q 1334 388 1700 388 
Q 2069 388 2326 689 
Q 2584 991 2584 1609 
Q 2584 2291 2321 2609 
Q 2059 2928 1675 2928 
Q 1300 2928 1048 2622 
Q 797 2316 797 1656 
z
" transform="scale(0.015625)"/>
       <path id="ArialMT-70" d="M 422 -1272 
L 422 3319 
L 934 3319 
L 934 2888 
Q 1116 3141 1344 3267 
Q 1572 3394 1897 3394 
Q 2322 3394 2647 3175 
Q 2972 2956 3137 2557 
Q 3303 2159 3303 1684 
Q 3303 1175 3120 767 
Q 2938 359 2589 142 
Q 2241 -75 1856 -75 
Q 1575 -75 1351 44 
Q 1128 163 984 344 
L 984 -1272 
L 422 -1272 
z
M 931 1641 
Q 931 1000 1190 694 
Q 1450 388 1819 388 
Q 2194 388 2461 705 
Q 2728 1022 2728 1688 
Q 2728 2322 2467 2637 
Q 2206 2953 1844 2953 
Q 1484 2953 1207 2617 
Q 931 2281 931 1641 
z
" transform="scale(0.015625)"/>
       <path id="ArialMT-29" d="M 791 -1347 
L 388 -1347 
Q 1322 153 1322 1656 
Q 1322 2244 1188 2822 
Q 1081 3291 891 3722 
Q 769 4003 388 4659 
L 791 4659 
Q 1378 3875 1659 3084 
Q 1900 2403 1900 1659 
Q 1900 816 1576 28 
Q 1253 -759 791 -1347 
z
" transform="scale(0.015625)"/>
      </defs>
      <use xlink:href="#ArialMT-28"/>
      <use xlink:href="#ArialMT-64" x="33.300781"/>
      <use xlink:href="#ArialMT-70" x="88.916016"/>
      <use xlink:href="#ArialMT-69" x="144.53125"/>
      <use xlink:href="#ArialMT-29" x="166.748047"/>
     </g>
    </g>
   </g>
   <g id="matplotlib.axis_2">
    <g id="ytick_1">
     <g id="line2d_4">
      <defs>
       <path id="m2924f5b4ba" d="M 0 0 
L -6 0 
" style="stroke: #262626; stroke-width: 1.25"/>
      </defs>
      <g>
       <use xlink:href="#m2924f5b4ba" x="60.506319" y="79.66188" style="fill: #262626; stroke: #262626; stroke-width: 1.25"/>
      </g>
     </g>
     <g id="text_5">
      <!-- 0 -->
      <g style="fill: #262626" transform="translate(44.277584 83.992357)scale(0.121 -0.121)">
       <use xlink:href="#ArialMT-30"/>
      </g>
     </g>
    </g>
    <g id="ytick_2">
     <g id="line2d_5">
      <g>
       <use xlink:href="#m2924f5b4ba" x="60.506319" y="21.692376" style="fill: #262626; stroke: #262626; stroke-width: 1.25"/>
      </g>
     </g>
     <g id="text_6">
      <!-- 20 -->
      <g style="fill: #262626" transform="translate(37.54885 26.022853)scale(0.121 -0.121)">
       <use xlink:href="#ArialMT-32"/>
       <use xlink:href="#ArialMT-30" x="55.615234"/>
      </g>
     </g>
    </g>
    <g id="text_7">
     <!-- (%) iMN -->
     <g style="fill: #262626" transform="translate(16.809188 67.259003)rotate(-90)scale(0.132 -0.132)">
      <defs>
       <path id="ArialMT-25" d="M 372 3481 
Q 372 3972 619 4315 
Q 866 4659 1334 4659 
Q 1766 4659 2048 4351 
Q 2331 4044 2331 3447 
Q 2331 2866 2045 2552 
Q 1759 2238 1341 2238 
Q 925 2238 648 2547 
Q 372 2856 372 3481 
z
M 1350 4272 
Q 1141 4272 1002 4090 
Q 863 3909 863 3425 
Q 863 2984 1003 2804 
Q 1144 2625 1350 2625 
Q 1563 2625 1702 2806 
Q 1841 2988 1841 3469 
Q 1841 3913 1700 4092 
Q 1559 4272 1350 4272 
z
M 1353 -169 
L 3859 4659 
L 4316 4659 
L 1819 -169 
L 1353 -169 
z
M 3334 1075 
Q 3334 1569 3581 1911 
Q 3828 2253 4300 2253 
Q 4731 2253 5014 1945 
Q 5297 1638 5297 1041 
Q 5297 459 5011 145 
Q 4725 -169 4303 -169 
Q 3888 -169 3611 142 
Q 3334 453 3334 1075 
z
M 4316 1866 
Q 4103 1866 3964 1684 
Q 3825 1503 3825 1019 
Q 3825 581 3965 400 
Q 4106 219 4313 219 
Q 4528 219 4667 400 
Q 4806 581 4806 1063 
Q 4806 1506 4665 1686 
Q 4525 1866 4316 1866 
z
" transform="scale(0.015625)"/>
       <path id="ArialMT-20" transform="scale(0.015625)"/>
       <path id="ArialMT-4d" d="M 475 0 
L 475 4581 
L 1388 4581 
L 2472 1338 
Q 2622 884 2691 659 
Q 2769 909 2934 1394 
L 4031 4581 
L 4847 4581 
L 4847 0 
L 4263 0 
L 4263 3834 
L 2931 0 
L 2384 0 
L 1059 3900 
L 1059 0 
L 475 0 
z
" transform="scale(0.015625)"/>
       <path id="ArialMT-4e" d="M 488 0 
L 488 4581 
L 1109 4581 
L 3516 984 
L 3516 4581 
L 4097 4581 
L 4097 0 
L 3475 0 
L 1069 3600 
L 1069 0 
L 488 0 
z
" transform="scale(0.015625)"/>
      </defs>
      <use xlink:href="#ArialMT-28"/>
      <use xlink:href="#ArialMT-25" x="33.300781"/>
      <use xlink:href="#ArialMT-29" x="122.216797"/>
      <use xlink:href="#ArialMT-20" x="155.517578"/>
      <use xlink:href="#ArialMT-69" x="183.300781"/>
      <use xlink:href="#ArialMT-4d" x="205.517578"/>
      <use xlink:href="#ArialMT-4e" x="288.818359"/>
     </g>
     <!-- of all cells -->
     <g style="fill: #262626" transform="translate(30.92535 72.408034)rotate(-90)scale(0.132 -0.132)">
      <defs>
       <path id="ArialMT-6f" d="M 213 1659 
Q 213 2581 725 3025 
Q 1153 3394 1769 3394 
Q 2453 3394 2887 2945 
Q 3322 2497 3322 1706 
Q 3322 1066 3130 698 
Q 2938 331 2570 128 
Q 2203 -75 1769 -75 
Q 1072 -75 642 372 
Q 213 819 213 1659 
z
M 791 1659 
Q 791 1022 1069 705 
Q 1347 388 1769 388 
Q 2188 388 2466 706 
Q 2744 1025 2744 1678 
Q 2744 2294 2464 2611 
Q 2184 2928 1769 2928 
Q 1347 2928 1069 2612 
Q 791 2297 791 1659 
z
" transform="scale(0.015625)"/>
       <path id="ArialMT-66" d="M 556 0 
L 556 2881 
L 59 2881 
L 59 3319 
L 556 3319 
L 556 3672 
Q 556 4006 616 4169 
Q 697 4388 901 4523 
Q 1106 4659 1475 4659 
Q 1713 4659 2000 4603 
L 1916 4113 
Q 1741 4144 1584 4144 
Q 1328 4144 1222 4034 
Q 1116 3925 1116 3625 
L 1116 3319 
L 1763 3319 
L 1763 2881 
L 1116 2881 
L 1116 0 
L 556 0 
z
" transform="scale(0.015625)"/>
       <path id="ArialMT-61" d="M 2588 409 
Q 2275 144 1986 34 
Q 1697 -75 1366 -75 
Q 819 -75 525 192 
Q 231 459 231 875 
Q 231 1119 342 1320 
Q 453 1522 633 1644 
Q 813 1766 1038 1828 
Q 1203 1872 1538 1913 
Q 2219 1994 2541 2106 
Q 2544 2222 2544 2253 
Q 2544 2597 2384 2738 
Q 2169 2928 1744 2928 
Q 1347 2928 1158 2789 
Q 969 2650 878 2297 
L 328 2372 
Q 403 2725 575 2942 
Q 747 3159 1072 3276 
Q 1397 3394 1825 3394 
Q 2250 3394 2515 3294 
Q 2781 3194 2906 3042 
Q 3031 2891 3081 2659 
Q 3109 2516 3109 2141 
L 3109 1391 
Q 3109 606 3145 398 
Q 3181 191 3288 0 
L 2700 0 
Q 2613 175 2588 409 
z
M 2541 1666 
Q 2234 1541 1622 1453 
Q 1275 1403 1131 1340 
Q 988 1278 909 1158 
Q 831 1038 831 891 
Q 831 666 1001 516 
Q 1172 366 1500 366 
Q 1825 366 2078 508 
Q 2331 650 2450 897 
Q 2541 1088 2541 1459 
L 2541 1666 
z
" transform="scale(0.015625)"/>
       <path id="ArialMT-6c" d="M 409 0 
L 409 4581 
L 972 4581 
L 972 0 
L 409 0 
z
" transform="scale(0.015625)"/>
       <path id="ArialMT-63" d="M 2588 1216 
L 3141 1144 
Q 3050 572 2676 248 
Q 2303 -75 1759 -75 
Q 1078 -75 664 370 
Q 250 816 250 1647 
Q 250 2184 428 2587 
Q 606 2991 970 3192 
Q 1334 3394 1763 3394 
Q 2303 3394 2647 3120 
Q 2991 2847 3088 2344 
L 2541 2259 
Q 2463 2594 2264 2762 
Q 2066 2931 1784 2931 
Q 1359 2931 1093 2626 
Q 828 2322 828 1663 
Q 828 994 1084 691 
Q 1341 388 1753 388 
Q 2084 388 2306 591 
Q 2528 794 2588 1216 
z
" transform="scale(0.015625)"/>
       <path id="ArialMT-73" d="M 197 991 
L 753 1078 
Q 800 744 1014 566 
Q 1228 388 1613 388 
Q 2000 388 2187 545 
Q 2375 703 2375 916 
Q 2375 1106 2209 1216 
Q 2094 1291 1634 1406 
Q 1016 1563 777 1677 
Q 538 1791 414 1992 
Q 291 2194 291 2438 
Q 291 2659 392 2848 
Q 494 3038 669 3163 
Q 800 3259 1026 3326 
Q 1253 3394 1513 3394 
Q 1903 3394 2198 3281 
Q 2494 3169 2634 2976 
Q 2775 2784 2828 2463 
L 2278 2388 
Q 2241 2644 2061 2787 
Q 1881 2931 1553 2931 
Q 1166 2931 1000 2803 
Q 834 2675 834 2503 
Q 834 2394 903 2306 
Q 972 2216 1119 2156 
Q 1203 2125 1616 2013 
Q 2213 1853 2448 1751 
Q 2684 1650 2818 1456 
Q 2953 1263 2953 975 
Q 2953 694 2789 445 
Q 2625 197 2315 61 
Q 2006 -75 1616 -75 
Q 969 -75 630 194 
Q 291 463 197 991 
z
" transform="scale(0.015625)"/>
      </defs>
      <use xlink:href="#ArialMT-6f"/>
      <use xlink:href="#ArialMT-66" x="55.615234"/>
      <use xlink:href="#ArialMT-20" x="83.398438"/>
      <use xlink:href="#ArialMT-61" x="111.181641"/>
      <use xlink:href="#ArialMT-6c" x="166.796875"/>
      <use xlink:href="#ArialMT-6c" x="189.013672"/>
      <use xlink:href="#ArialMT-20" x="211.230469"/>
      <use xlink:href="#ArialMT-63" x="239.013672"/>
      <use xlink:href="#ArialMT-65" x="289.013672"/>
      <use xlink:href="#ArialMT-6c" x="344.628906"/>
      <use xlink:href="#ArialMT-6c" x="366.845703"/>
      <use xlink:href="#ArialMT-73" x="389.0625"/>
     </g>
    </g>
   </g>
   <g id="PolyCollection_1">
    <defs>
     <path id="mda81b8d7b2" d="M 77.246319 -58.378013 
L 77.246319 -58.18719 
L 82.826319 -58.277768 
L 88.406319 -58.398054 
L 93.986319 -58.409334 
L 99.566319 -58.452872 
L 105.146319 -58.892661 
L 116.306319 -58.5891 
L 138.626319 -58.620718 
L 138.626319 -59.093773 
L 138.626319 -59.093773 
L 116.306319 -59.200213 
L 105.146319 -59.451239 
L 99.566319 -58.969549 
L 93.986319 -58.924429 
L 88.406319 -58.939184 
L 82.826319 -58.610863 
L 77.246319 -58.378013 
z
" style="stroke: #dc143c; stroke-opacity: 0.2"/>
    </defs>
    <g clip-path="url(#pd3e2536d6b)">
     <use xlink:href="#mda81b8d7b2" x="0" y="137.808733" style="fill: #dc143c; fill-opacity: 0.2; stroke: #dc143c; stroke-opacity: 0.2"/>
    </g>
   </g>
   <g id="PolyCollection_2">
    <defs>
     <path id="mbca53f9d75" d="M 77.246319 -58.273209 
L 77.246319 -58.163519 
L 82.826319 -58.160379 
L 88.406319 -58.219822 
L 93.986319 -58.161587 
L 99.566319 -58.166653 
L 105.146319 -58.163978 
L 116.306319 -58.183519 
L 138.626319 -58.173422 
L 138.626319 -58.437763 
L 138.626319 -58.437763 
L 116.306319 -58.586938 
L 105.146319 -58.635977 
L 99.566319 -58.59291 
L 93.986319 -58.552398 
L 88.406319 -58.648313 
L 82.826319 -58.259142 
L 77.246319 -58.273209 
z
" style="stroke: #ff7f50; stroke-opacity: 0.2"/>
    </defs>
    <g clip-path="url(#pd3e2536d6b)">
     <use xlink:href="#mbca53f9d75" x="0" y="137.808733" style="fill: #ff7f50; fill-opacity: 0.2; stroke: #ff7f50; stroke-opacity: 0.2"/>
    </g>
   </g>
   <g id="PolyCollection_3">
    <defs>
     <path id="m55c3970513" d="M 77.246319 -58.308715 
L 77.246319 -58.177994 
L 82.826319 -59.705406 
L 88.406319 -66.822956 
L 93.986319 -72.807703 
L 99.566319 -79.539955 
L 105.146319 -83.529827 
L 116.306319 -92.321506 
L 138.626319 -103.435528 
L 138.626319 -112.470317 
L 138.626319 -112.470317 
L 116.306319 -102.155972 
L 105.146319 -93.57715 
L 99.566319 -89.958826 
L 93.986319 -83.152361 
L 88.406319 -78.430061 
L 82.826319 -63.488157 
L 77.246319 -58.308715 
z
" style="stroke: #1e90ff; stroke-opacity: 0.2"/>
    </defs>
    <g clip-path="url(#pd3e2536d6b)">
     <use xlink:href="#m55c3970513" x="0" y="137.808733" style="fill: #1e90ff; fill-opacity: 0.2; stroke: #1e90ff; stroke-opacity: 0.2"/>
    </g>
   </g>
   <g id="PolyCollection_4">
    <defs>
     <path id="mbec080e72d" d="M 77.246319 -58.473958 
L 77.246319 -58.157481 
L 82.826319 -58.176067 
L 88.406319 -60.576001 
L 93.986319 -58.687636 
L 99.566319 -58.880614 
L 105.146319 -58.810676 
L 116.306319 -60.101669 
L 138.626319 -61.014079 
L 138.626319 -75.385933 
L 138.626319 -75.385933 
L 116.306319 -76.047353 
L 105.146319 -75.448987 
L 99.566319 -75.841537 
L 93.986319 -74.153024 
L 88.406319 -75.100027 
L 82.826319 -62.028189 
L 77.246319 -58.473958 
z
" style="stroke: #008080; stroke-opacity: 0.2"/>
    </defs>
    <g clip-path="url(#pd3e2536d6b)">
     <use xlink:href="#mbec080e72d" x="0" y="137.808733" style="fill: #008080; fill-opacity: 0.2; stroke: #008080; stroke-opacity: 0.2"/>
    </g>
   </g>
   <g id="line2d_6">
    <path d="M 77.246319 79.526376 
L 82.826319 79.376139 
L 88.406319 79.124052 
L 93.986319 79.144744 
L 99.566319 79.109237 
L 105.146319 78.644274 
L 116.306319 78.914315 
L 138.626319 78.950787 
" clip-path="url(#pd3e2536d6b)" style="fill: none; stroke: #dc143c; stroke-width: 1.5; stroke-linecap: round"/>
    <defs>
     <path id="m661b6f4559" d="M 0 3 
C 0.795609 3 1.55874 2.683901 2.12132 2.12132 
C 2.683901 1.55874 3 0.795609 3 0 
C 3 -0.795609 2.683901 -1.55874 2.12132 -2.12132 
C 1.55874 -2.683901 0.795609 -3 0 -3 
C -0.795609 -3 -1.55874 -2.683901 -2.12132 -2.12132 
C -2.683901 -1.55874 -3 -0.795609 -3 0 
C -3 0.795609 -2.683901 1.55874 -2.12132 2.12132 
C -1.55874 2.683901 -0.795609 3 0 3 
z
" style="stroke: #ffffff; stroke-width: 0.75"/>
    </defs>
    <g clip-path="url(#pd3e2536d6b)">
     <use xlink:href="#m661b6f4559" x="77.246319" y="79.526376" style="fill: #dc143c; stroke: #ffffff; stroke-width: 0.75"/>
     <use xlink:href="#m661b6f4559" x="82.826319" y="79.376139" style="fill: #dc143c; stroke: #ffffff; stroke-width: 0.75"/>
     <use xlink:href="#m661b6f4559" x="88.406319" y="79.124052" style="fill: #dc143c; stroke: #ffffff; stroke-width: 0.75"/>
     <use xlink:href="#m661b6f4559" x="93.986319" y="79.144744" style="fill: #dc143c; stroke: #ffffff; stroke-width: 0.75"/>
     <use xlink:href="#m661b6f4559" x="99.566319" y="79.109237" style="fill: #dc143c; stroke: #ffffff; stroke-width: 0.75"/>
     <use xlink:href="#m661b6f4559" x="105.146319" y="78.644274" style="fill: #dc143c; stroke: #ffffff; stroke-width: 0.75"/>
     <use xlink:href="#m661b6f4559" x="116.306319" y="78.914315" style="fill: #dc143c; stroke: #ffffff; stroke-width: 0.75"/>
     <use xlink:href="#m661b6f4559" x="138.626319" y="78.950787" style="fill: #dc143c; stroke: #ffffff; stroke-width: 0.75"/>
    </g>
   </g>
   <g id="line2d_7">
    <path d="M 77.246319 79.597389 
L 82.826319 79.602024 
L 88.406319 79.392322 
L 93.986319 79.465025 
L 99.566319 79.438939 
L 105.146319 79.411645 
L 116.306319 79.434833 
L 138.626319 79.523927 
" clip-path="url(#pd3e2536d6b)" style="fill: none; stroke: #ff7f50; stroke-width: 1.5; stroke-linecap: round"/>
    <defs>
     <path id="m09ebf5bd3a" d="M 0 3 
C 0.795609 3 1.55874 2.683901 2.12132 2.12132 
C 2.683901 1.55874 3 0.795609 3 0 
C 3 -0.795609 2.683901 -1.55874 2.12132 -2.12132 
C 1.55874 -2.683901 0.795609 -3 0 -3 
C -0.795609 -3 -1.55874 -2.683901 -2.12132 -2.12132 
C -2.683901 -1.55874 -3 -0.795609 -3 0 
C -3 0.795609 -2.683901 1.55874 -2.12132 2.12132 
C -1.55874 2.683901 -0.795609 3 0 3 
z
" style="stroke: #ffffff; stroke-width: 0.75"/>
    </defs>
    <g clip-path="url(#pd3e2536d6b)">
     <use xlink:href="#m09ebf5bd3a" x="77.246319" y="79.597389" style="fill: #ff7f50; stroke: #ffffff; stroke-width: 0.75"/>
     <use xlink:href="#m09ebf5bd3a" x="82.826319" y="79.602024" style="fill: #ff7f50; stroke: #ffffff; stroke-width: 0.75"/>
     <use xlink:href="#m09ebf5bd3a" x="88.406319" y="79.392322" style="fill: #ff7f50; stroke: #ffffff; stroke-width: 0.75"/>
     <use xlink:href="#m09ebf5bd3a" x="93.986319" y="79.465025" style="fill: #ff7f50; stroke: #ffffff; stroke-width: 0.75"/>
     <use xlink:href="#m09ebf5bd3a" x="99.566319" y="79.438939" style="fill: #ff7f50; stroke: #ffffff; stroke-width: 0.75"/>
     <use xlink:href="#m09ebf5bd3a" x="105.146319" y="79.411645" style="fill: #ff7f50; stroke: #ffffff; stroke-width: 0.75"/>
     <use xlink:href="#m09ebf5bd3a" x="116.306319" y="79.434833" style="fill: #ff7f50; stroke: #ffffff; stroke-width: 0.75"/>
     <use xlink:href="#m09ebf5bd3a" x="138.626319" y="79.523927" style="fill: #ff7f50; stroke: #ffffff; stroke-width: 0.75"/>
    </g>
   </g>
   <g id="line2d_8">
    <path d="M 77.246319 79.575167 
L 82.826319 76.232984 
L 88.406319 65.214591 
L 93.986319 60.097172 
L 99.566319 53.471741 
L 105.146319 49.515323 
L 116.306319 40.694296 
L 138.626319 29.808107 
" clip-path="url(#pd3e2536d6b)" style="fill: none; stroke: #1e90ff; stroke-width: 1.5; stroke-linecap: round"/>
    <defs>
     <path id="m8f040f6374" d="M 0 3 
C 0.795609 3 1.55874 2.683901 2.12132 2.12132 
C 2.683901 1.55874 3 0.795609 3 0 
C 3 -0.795609 2.683901 -1.55874 2.12132 -2.12132 
C 1.55874 -2.683901 0.795609 -3 0 -3 
C -0.795609 -3 -1.55874 -2.683901 -2.12132 -2.12132 
C -2.683901 -1.55874 -3 -0.795609 -3 0 
C -3 0.795609 -2.683901 1.55874 -2.12132 2.12132 
C -1.55874 2.683901 -0.795609 3 0 3 
z
" style="stroke: #ffffff; stroke-width: 0.75"/>
    </defs>
    <g clip-path="url(#pd3e2536d6b)">
     <use xlink:href="#m8f040f6374" x="77.246319" y="79.575167" style="fill: #1e90ff; stroke: #ffffff; stroke-width: 0.75"/>
     <use xlink:href="#m8f040f6374" x="82.826319" y="76.232984" style="fill: #1e90ff; stroke: #ffffff; stroke-width: 0.75"/>
     <use xlink:href="#m8f040f6374" x="88.406319" y="65.214591" style="fill: #1e90ff; stroke: #ffffff; stroke-width: 0.75"/>
     <use xlink:href="#m8f040f6374" x="93.986319" y="60.097172" style="fill: #1e90ff; stroke: #ffffff; stroke-width: 0.75"/>
     <use xlink:href="#m8f040f6374" x="99.566319" y="53.471741" style="fill: #1e90ff; stroke: #ffffff; stroke-width: 0.75"/>
     <use xlink:href="#m8f040f6374" x="105.146319" y="49.515323" style="fill: #1e90ff; stroke: #ffffff; stroke-width: 0.75"/>
     <use xlink:href="#m8f040f6374" x="116.306319" y="40.694296" style="fill: #1e90ff; stroke: #ffffff; stroke-width: 0.75"/>
     <use xlink:href="#m8f040f6374" x="138.626319" y="29.808107" style="fill: #1e90ff; stroke: #ffffff; stroke-width: 0.75"/>
    </g>
   </g>
   <g id="line2d_9">
    <path d="M 77.246319 79.504396 
L 82.826319 77.752268 
L 88.406319 71.166449 
L 93.986319 71.57441 
L 99.566319 70.785541 
L 105.146319 71.157029 
L 116.306319 69.82832 
L 138.626319 70.76815 
" clip-path="url(#pd3e2536d6b)" style="fill: none; stroke: #008080; stroke-width: 1.5; stroke-linecap: round"/>
    <defs>
     <path id="ma5fee2bbc0" d="M 0 3 
C 0.795609 3 1.55874 2.683901 2.12132 2.12132 
C 2.683901 1.55874 3 0.795609 3 0 
C 3 -0.795609 2.683901 -1.55874 2.12132 -2.12132 
C 1.55874 -2.683901 0.795609 -3 0 -3 
C -0.795609 -3 -1.55874 -2.683901 -2.12132 -2.12132 
C -2.683901 -1.55874 -3 -0.795609 -3 0 
C -3 0.795609 -2.683901 1.55874 -2.12132 2.12132 
C -1.55874 2.683901 -0.795609 3 0 3 
z
" style="stroke: #ffffff; stroke-width: 0.75"/>
    </defs>
    <g clip-path="url(#pd3e2536d6b)">
     <use xlink:href="#ma5fee2bbc0" x="77.246319" y="79.504396" style="fill: #008080; stroke: #ffffff; stroke-width: 0.75"/>
     <use xlink:href="#ma5fee2bbc0" x="82.826319" y="77.752268" style="fill: #008080; stroke: #ffffff; stroke-width: 0.75"/>
     <use xlink:href="#ma5fee2bbc0" x="88.406319" y="71.166449" style="fill: #008080; stroke: #ffffff; stroke-width: 0.75"/>
     <use xlink:href="#ma5fee2bbc0" x="93.986319" y="71.57441" style="fill: #008080; stroke: #ffffff; stroke-width: 0.75"/>
     <use xlink:href="#ma5fee2bbc0" x="99.566319" y="70.785541" style="fill: #008080; stroke: #ffffff; stroke-width: 0.75"/>
     <use xlink:href="#ma5fee2bbc0" x="105.146319" y="71.157029" style="fill: #008080; stroke: #ffffff; stroke-width: 0.75"/>
     <use xlink:href="#ma5fee2bbc0" x="116.306319" y="69.82832" style="fill: #008080; stroke: #ffffff; stroke-width: 0.75"/>
     <use xlink:href="#ma5fee2bbc0" x="138.626319" y="70.76815" style="fill: #008080; stroke: #ffffff; stroke-width: 0.75"/>
    </g>
   </g>
   <g id="line2d_10"/>
   <g id="line2d_11"/>
   <g id="line2d_12"/>
   <g id="line2d_13"/>
   <g id="patch_3">
    <path d="M 60.506319 79.66188 
L 60.506319 7.2 
" style="fill: none; stroke: #262626; stroke-width: 1.25; stroke-linejoin: miter; stroke-linecap: square"/>
   </g>
   <g id="patch_4">
    <path d="M 172.106319 79.66188 
L 172.106319 7.2 
" style="fill: none; stroke: #262626; stroke-width: 1.25; stroke-linejoin: miter; stroke-linecap: square"/>
   </g>
   <g id="patch_5">
    <path d="M 60.506319 79.66188 
L 172.106319 79.66188 
" style="fill: none; stroke: #262626; stroke-width: 1.25; stroke-linejoin: miter; stroke-linecap: square"/>
   </g>
   <g id="patch_6">
    <path d="M 60.506319 7.2 
L 172.106319 7.2 
" style="fill: none; stroke: #262626; stroke-width: 1.25; stroke-linejoin: miter; stroke-linecap: square"/>
   </g>
   <g id="legend_1">
    <g id="line2d_14">
     <path d="M 182.996319 22.515953 
L 195.096319 22.515953 
L 207.196319 22.515953 
" style="fill: none; stroke: #dc143c; stroke-width: 1.5; stroke-linecap: round"/>
    </g>
    <g id="text_8">
     <!-- NIL -->
     <g style="fill: #262626" transform="translate(216.876319 26.750953)scale(0.121 -0.121)">
      <defs>
       <path id="ArialMT-49" d="M 597 0 
L 597 4581 
L 1203 4581 
L 1203 0 
L 597 0 
z
" transform="scale(0.015625)"/>
       <path id="ArialMT-4c" d="M 469 0 
L 469 4581 
L 1075 4581 
L 1075 541 
L 3331 541 
L 3331 0 
L 469 0 
z
" transform="scale(0.015625)"/>
      </defs>
      <use xlink:href="#ArialMT-4e"/>
      <use xlink:href="#ArialMT-49" x="72.216797"/>
      <use xlink:href="#ArialMT-4c" x="100"/>
     </g>
    </g>
    <g id="line2d_15">
     <path d="M 182.996319 39.631781 
L 195.096319 39.631781 
L 207.196319 39.631781 
" style="fill: none; stroke: #ff7f50; stroke-width: 1.5; stroke-linecap: round"/>
    </g>
    <g id="text_9">
     <!-- 6F -->
     <g style="fill: #262626" transform="translate(216.876319 43.866781)scale(0.121 -0.121)">
      <defs>
       <path id="ArialMT-36" d="M 3184 3459 
L 2625 3416 
Q 2550 3747 2413 3897 
Q 2184 4138 1850 4138 
Q 1581 4138 1378 3988 
Q 1113 3794 959 3422 
Q 806 3050 800 2363 
Q 1003 2672 1297 2822 
Q 1591 2972 1913 2972 
Q 2475 2972 2870 2558 
Q 3266 2144 3266 1488 
Q 3266 1056 3080 686 
Q 2894 316 2569 119 
Q 2244 -78 1831 -78 
Q 1128 -78 684 439 
Q 241 956 241 2144 
Q 241 3472 731 4075 
Q 1159 4600 1884 4600 
Q 2425 4600 2770 4297 
Q 3116 3994 3184 3459 
z
M 888 1484 
Q 888 1194 1011 928 
Q 1134 663 1356 523 
Q 1578 384 1822 384 
Q 2178 384 2434 671 
Q 2691 959 2691 1453 
Q 2691 1928 2437 2201 
Q 2184 2475 1800 2475 
Q 1419 2475 1153 2201 
Q 888 1928 888 1484 
z
" transform="scale(0.015625)"/>
       <path id="ArialMT-46" d="M 525 0 
L 525 4581 
L 3616 4581 
L 3616 4041 
L 1131 4041 
L 1131 2622 
L 3281 2622 
L 3281 2081 
L 1131 2081 
L 1131 0 
L 525 0 
z
" transform="scale(0.015625)"/>
      </defs>
      <use xlink:href="#ArialMT-36"/>
      <use xlink:href="#ArialMT-46" x="55.615234"/>
     </g>
    </g>
    <g id="line2d_16">
     <path d="M 182.996319 56.747609 
L 195.096319 56.747609 
L 207.196319 56.747609 
" style="fill: none; stroke: #1e90ff; stroke-width: 1.5; stroke-linecap: round"/>
    </g>
    <g id="text_10">
     <!-- NIL + DDRR -->
     <g style="fill: #262626" transform="translate(216.876319 60.982609)scale(0.121 -0.121)">
      <defs>
       <path id="ArialMT-2b" d="M 1603 741 
L 1603 1997 
L 356 1997 
L 356 2522 
L 1603 2522 
L 1603 3769 
L 2134 3769 
L 2134 2522 
L 3381 2522 
L 3381 1997 
L 2134 1997 
L 2134 741 
L 1603 741 
z
" transform="scale(0.015625)"/>
       <path id="ArialMT-44" d="M 494 0 
L 494 4581 
L 2072 4581 
Q 2606 4581 2888 4516 
Q 3281 4425 3559 4188 
Q 3922 3881 4101 3404 
Q 4281 2928 4281 2316 
Q 4281 1794 4159 1391 
Q 4038 988 3847 723 
Q 3656 459 3429 307 
Q 3203 156 2883 78 
Q 2563 0 2147 0 
L 494 0 
z
M 1100 541 
L 2078 541 
Q 2531 541 2789 625 
Q 3047 709 3200 863 
Q 3416 1078 3536 1442 
Q 3656 1806 3656 2325 
Q 3656 3044 3420 3430 
Q 3184 3816 2847 3947 
Q 2603 4041 2063 4041 
L 1100 4041 
L 1100 541 
z
" transform="scale(0.015625)"/>
       <path id="ArialMT-52" d="M 503 0 
L 503 4581 
L 2534 4581 
Q 3147 4581 3465 4457 
Q 3784 4334 3975 4021 
Q 4166 3709 4166 3331 
Q 4166 2844 3850 2509 
Q 3534 2175 2875 2084 
Q 3116 1969 3241 1856 
Q 3506 1613 3744 1247 
L 4541 0 
L 3778 0 
L 3172 953 
Q 2906 1366 2734 1584 
Q 2563 1803 2427 1890 
Q 2291 1978 2150 2013 
Q 2047 2034 1813 2034 
L 1109 2034 
L 1109 0 
L 503 0 
z
M 1109 2559 
L 2413 2559 
Q 2828 2559 3062 2645 
Q 3297 2731 3419 2920 
Q 3541 3109 3541 3331 
Q 3541 3656 3305 3865 
Q 3069 4075 2559 4075 
L 1109 4075 
L 1109 2559 
z
" transform="scale(0.015625)"/>
      </defs>
      <use xlink:href="#ArialMT-4e"/>
      <use xlink:href="#ArialMT-49" x="72.216797"/>
      <use xlink:href="#ArialMT-4c" x="100"/>
      <use xlink:href="#ArialMT-20" x="151.865234"/>
      <use xlink:href="#ArialMT-2b" x="179.648438"/>
      <use xlink:href="#ArialMT-20" x="238.046875"/>
      <use xlink:href="#ArialMT-44" x="265.830078"/>
      <use xlink:href="#ArialMT-44" x="338.046875"/>
      <use xlink:href="#ArialMT-52" x="410.263672"/>
      <use xlink:href="#ArialMT-52" x="482.480469"/>
     </g>
    </g>
    <g id="line2d_17">
     <path d="M 182.996319 73.863438 
L 195.096319 73.863438 
L 207.196319 73.863438 
" style="fill: none; stroke: #008080; stroke-width: 1.5; stroke-linecap: round"/>
    </g>
    <g id="text_11">
     <!-- 6F + DDRR -->
     <g style="fill: #262626" transform="translate(216.876319 78.098438)scale(0.121 -0.121)">
      <use xlink:href="#ArialMT-36"/>
      <use xlink:href="#ArialMT-46" x="55.615234"/>
      <use xlink:href="#ArialMT-20" x="116.699219"/>
      <use xlink:href="#ArialMT-2b" x="144.482422"/>
      <use xlink:href="#ArialMT-20" x="202.880859"/>
      <use xlink:href="#ArialMT-44" x="230.664062"/>
      <use xlink:href="#ArialMT-44" x="302.880859"/>
      <use xlink:href="#ArialMT-52" x="375.097656"/>
      <use xlink:href="#ArialMT-52" x="447.314453"/>
     </g>
    </g>
   </g>
  </g>
 </g>
 <defs>
  <clipPath id="pd3e2536d6b">
   <rect x="60.506319" y="7.2" width="111.6" height="72.46188"/>
  </clipPath>
 </defs>
</svg>
