<?xml version="1.0" encoding="utf-8" standalone="no"?>
<!DOCTYPE svg PUBLIC "-//W3C//DTD SVG 1.1//EN"
  "http://www.w3.org/Graphics/SVG/1.1/DTD/svg11.dtd">
<svg xmlns:xlink="http://www.w3.org/1999/xlink" width="279.959375pt" height="155.004375pt" viewBox="0 0 279.959375 155.004375" xmlns="http://www.w3.org/2000/svg" version="1.1">
 <metadata>
  <rdf:RDF xmlns:dc="http://purl.org/dc/elements/1.1/" xmlns:cc="http://creativecommons.org/ns#" xmlns:rdf="http://www.w3.org/1999/02/22-rdf-syntax-ns#">
   <cc:Work>
    <dc:type rdf:resource="http://purl.org/dc/dcmitype/StillImage"/>
    <dc:date>2025-01-25T16:18:41.069887</dc:date>
    <dc:format>image/svg+xml</dc:format>
    <dc:creator>
     <cc:Agent>
      <dc:title>Matplotlib v3.5.2, https://matplotlib.org/</dc:title>
     </cc:Agent>
    </dc:creator>
   </cc:Work>
  </rdf:RDF>
 </metadata>
 <defs>
  <style type="text/css">*{stroke-linejoin: round; stroke-linecap: butt}</style>
 </defs>
 <g id="figure_1">
  <g id="patch_1">
   <path d="M 0 155.004375 
L 279.959375 155.004375 
L 279.959375 0 
L 0 0 
L 0 155.004375 
z
" style="fill: none"/>
  </g>
  <g id="axes_1">
   <g id="patch_2">
    <path d="M 43.78125 117.448125 
L 183.28125 117.448125 
L 183.28125 22.318125 
L 43.78125 22.318125 
z
" style="fill: #ffffff"/>
   </g>
   <g id="PolyCollection_1">
    <defs>
     <path id="mf9759cf3fc" d="M -7.128074 -37.556437 
L -7.128074 -37.55625 
L -6.141165 -37.55625 
L -5.154255 -37.55625 
L -4.167346 -37.55625 
L -3.180437 -37.55625 
L -2.193528 -37.55625 
L -1.206619 -37.55625 
L -0.219709 -37.55625 
L 0.7672 -37.55625 
L 1.754109 -37.55625 
L 2.741018 -37.55625 
L 3.727928 -37.55625 
L 4.714837 -37.55625 
L 5.701746 -37.55625 
L 6.688655 -37.55625 
L 7.675565 -37.55625 
L 8.662474 -37.55625 
L 9.649383 -37.55625 
L 10.636292 -37.55625 
L 11.623201 -37.55625 
L 12.610111 -37.55625 
L 13.59702 -37.55625 
L 14.583929 -37.55625 
L 15.570838 -37.55625 
L 16.557748 -37.55625 
L 17.544657 -37.55625 
L 18.531566 -37.55625 
L 19.518475 -37.55625 
L 20.505385 -37.55625 
L 21.492294 -37.55625 
L 22.479203 -37.55625 
L 23.466112 -37.55625 
L 24.453021 -37.55625 
L 25.439931 -37.55625 
L 26.42684 -37.55625 
L 27.413749 -37.55625 
L 28.400658 -37.55625 
L 29.387568 -37.55625 
L 30.374477 -37.55625 
L 31.361386 -37.55625 
L 32.348295 -37.55625 
L 33.335205 -37.55625 
L 34.322114 -37.55625 
L 35.309023 -37.55625 
L 36.295932 -37.55625 
L 37.282842 -37.55625 
L 38.269751 -37.55625 
L 39.25666 -37.55625 
L 40.243569 -37.55625 
L 41.230478 -37.55625 
L 42.217388 -37.55625 
L 43.204297 -37.55625 
L 44.191206 -37.55625 
L 45.178115 -37.55625 
L 46.165025 -37.55625 
L 47.151934 -37.55625 
L 48.138843 -37.55625 
L 49.125752 -37.55625 
L 50.112662 -37.55625 
L 51.099571 -37.55625 
L 52.08648 -37.55625 
L 53.073389 -37.55625 
L 54.060298 -37.55625 
L 55.047208 -37.55625 
L 56.034117 -37.55625 
L 57.021026 -37.55625 
L 58.007935 -37.55625 
L 58.994845 -37.55625 
L 59.981754 -37.55625 
L 60.968663 -37.55625 
L 61.955572 -37.55625 
L 62.942482 -37.55625 
L 63.929391 -37.55625 
L 64.9163 -37.55625 
L 65.903209 -37.55625 
L 66.890118 -37.55625 
L 67.877028 -37.55625 
L 68.863937 -37.55625 
L 69.850846 -37.55625 
L 70.837755 -37.55625 
L 71.824665 -37.55625 
L 72.811574 -37.55625 
L 73.798483 -37.55625 
L 74.785392 -37.55625 
L 75.772302 -37.55625 
L 76.759211 -37.55625 
L 77.74612 -37.55625 
L 78.733029 -37.55625 
L 79.719939 -37.55625 
L 80.706848 -37.55625 
L 81.693757 -37.55625 
L 82.680666 -37.55625 
L 83.667575 -37.55625 
L 84.654485 -37.55625 
L 85.641394 -37.55625 
L 86.628303 -37.55625 
L 87.615212 -37.55625 
L 88.602122 -37.55625 
L 89.589031 -37.55625 
L 90.57594 -37.55625 
L 91.562849 -37.55625 
L 92.549759 -37.55625 
L 93.536668 -37.55625 
L 94.523577 -37.55625 
L 95.510486 -37.55625 
L 96.497395 -37.55625 
L 97.484305 -37.55625 
L 98.471214 -37.55625 
L 99.458123 -37.55625 
L 100.445032 -37.55625 
L 101.431942 -37.55625 
L 102.418851 -37.55625 
L 103.40576 -37.55625 
L 104.392669 -37.55625 
L 105.379579 -37.55625 
L 106.366488 -37.55625 
L 107.353397 -37.55625 
L 108.340306 -37.55625 
L 109.327215 -37.55625 
L 110.314125 -37.55625 
L 111.301034 -37.55625 
L 112.287943 -37.55625 
L 113.274852 -37.55625 
L 114.261762 -37.55625 
L 115.248671 -37.55625 
L 116.23558 -37.55625 
L 117.222489 -37.55625 
L 118.209399 -37.55625 
L 119.196308 -37.55625 
L 120.183217 -37.55625 
L 121.170126 -37.55625 
L 122.157036 -37.55625 
L 123.143945 -37.55625 
L 124.130854 -37.55625 
L 125.117763 -37.55625 
L 126.104672 -37.55625 
L 127.091582 -37.55625 
L 128.078491 -37.55625 
L 129.0654 -37.55625 
L 130.052309 -37.55625 
L 131.039219 -37.55625 
L 132.026128 -37.55625 
L 133.013037 -37.55625 
L 133.999946 -37.55625 
L 134.986856 -37.55625 
L 135.973765 -37.55625 
L 136.960674 -37.55625 
L 137.947583 -37.55625 
L 138.934492 -37.55625 
L 139.921402 -37.55625 
L 140.908311 -37.55625 
L 141.89522 -37.55625 
L 142.882129 -37.55625 
L 143.869039 -37.55625 
L 144.855948 -37.55625 
L 145.842857 -37.55625 
L 146.829766 -37.55625 
L 147.816676 -37.55625 
L 148.803585 -37.55625 
L 149.790494 -37.55625 
L 150.777403 -37.55625 
L 151.764312 -37.55625 
L 152.751222 -37.55625 
L 153.738131 -37.55625 
L 154.72504 -37.55625 
L 155.711949 -37.55625 
L 156.698859 -37.55625 
L 157.685768 -37.55625 
L 158.672677 -37.55625 
L 159.659586 -37.55625 
L 160.646496 -37.55625 
L 161.633405 -37.55625 
L 162.620314 -37.55625 
L 163.607223 -37.55625 
L 164.594132 -37.55625 
L 165.581042 -37.55625 
L 166.567951 -37.55625 
L 167.55486 -37.55625 
L 168.541769 -37.55625 
L 169.528679 -37.55625 
L 170.515588 -37.55625 
L 171.502497 -37.55625 
L 172.489406 -37.55625 
L 173.476316 -37.55625 
L 174.463225 -37.55625 
L 175.450134 -37.55625 
L 176.437043 -37.55625 
L 177.423953 -37.55625 
L 178.410862 -37.55625 
L 179.397771 -37.55625 
L 180.38468 -37.55625 
L 181.371589 -37.55625 
L 182.358499 -37.55625 
L 183.345408 -37.55625 
L 184.332317 -37.55625 
L 185.319226 -37.55625 
L 186.306136 -37.55625 
L 187.293045 -37.55625 
L 188.279954 -37.55625 
L 189.266863 -37.55625 
L 189.266863 -37.556312 
L 189.266863 -37.556312 
L 188.279954 -37.556531 
L 187.293045 -37.557185 
L 186.306136 -37.558536 
L 185.319226 -37.560367 
L 184.332317 -37.56171 
L 183.345408 -37.561588 
L 182.358499 -37.560136 
L 181.371589 -37.558536 
L 180.38468 -37.557919 
L 179.397771 -37.558666 
L 178.410862 -37.560311 
L 177.423953 -37.561677 
L 176.437043 -37.561659 
L 175.450134 -37.560342 
L 174.463225 -37.559029 
L 173.476316 -37.559199 
L 172.489406 -37.561664 
L 171.502497 -37.56609 
L 170.515588 -37.570751 
L 169.528679 -37.573517 
L 168.541769 -37.574248 
L 167.55486 -37.575981 
L 166.567951 -37.582771 
L 165.581042 -37.596205 
L 164.594132 -37.614296 
L 163.607223 -37.633843 
L 162.620314 -37.653677 
L 161.633405 -37.675319 
L 160.646496 -37.701303 
L 159.659586 -37.733832 
L 158.672677 -37.77313 
L 157.685768 -37.81543 
L 156.698859 -37.855914 
L 155.711949 -37.897493 
L 154.72504 -37.954527 
L 153.738131 -38.042534 
L 152.751222 -38.164543 
L 151.764312 -38.312049 
L 150.777403 -38.474774 
L 149.790494 -38.643462 
L 148.803585 -38.816352 
L 147.816676 -39.012533 
L 146.829766 -39.259816 
L 145.842857 -39.558823 
L 144.855948 -39.879036 
L 143.869039 -40.197954 
L 142.882129 -40.524196 
L 141.89522 -40.880291 
L 140.908311 -41.287605 
L 139.921402 -41.773459 
L 138.934492 -42.36902 
L 137.947583 -43.082038 
L 136.960674 -43.879638 
L 135.973765 -44.712481 
L 134.986856 -45.55177 
L 133.999946 -46.396346 
L 133.013037 -47.252187 
L 132.026128 -48.116495 
L 131.039219 -48.991476 
L 130.052309 -49.912274 
L 129.0654 -50.937673 
L 128.078491 -52.088205 
L 127.091582 -53.308295 
L 126.104672 -54.526254 
L 125.117763 -55.737419 
L 124.130854 -56.990797 
L 123.143945 -58.30849 
L 122.157036 -59.646122 
L 121.170126 -60.935847 
L 120.183217 -62.178717 
L 119.196308 -63.487525 
L 118.209399 -64.995634 
L 117.222489 -66.719849 
L 116.23558 -68.546782 
L 115.248671 -70.343902 
L 114.261762 -72.060885 
L 113.274852 -73.729094 
L 112.287943 -75.360394 
L 111.301034 -76.867726 
L 110.314125 -78.149265 
L 109.327215 -79.244854 
L 108.340306 -80.314842 
L 107.353397 -81.445536 
L 106.366488 -82.578294 
L 105.379579 -83.658023 
L 104.392669 -84.726182 
L 103.40576 -85.818082 
L 102.418851 -86.887684 
L 101.431942 -87.891405 
L 100.445032 -88.8492 
L 99.458123 -89.758903 
L 98.471214 -90.515321 
L 97.484305 -90.979194 
L 96.497395 -91.106111 
L 95.510486 -90.989418 
L 94.523577 -90.803982 
L 93.536668 -90.691337 
L 92.549759 -90.624685 
L 91.562849 -90.387503 
L 90.57594 -89.766271 
L 89.589031 -88.760188 
L 88.602122 -87.563006 
L 87.615212 -86.396536 
L 86.628303 -85.374655 
L 85.641394 -84.440169 
L 84.654485 -83.407066 
L 83.667575 -82.100569 
L 82.680666 -80.460419 
L 81.693757 -78.532668 
L 80.706848 -76.415072 
L 79.719939 -74.201037 
L 78.733029 -71.935121 
L 77.74612 -69.617408 
L 76.759211 -67.239847 
L 75.772302 -64.799839 
L 74.785392 -62.301132 
L 73.798483 -59.776203 
L 72.811574 -57.310581 
L 71.824665 -55.025586 
L 70.837755 -53.010734 
L 69.850846 -51.254796 
L 68.863937 -49.659152 
L 67.877028 -48.144436 
L 66.890118 -46.729027 
L 65.903209 -45.486182 
L 64.9163 -44.450179 
L 63.929391 -43.581756 
L 62.942482 -42.807096 
L 61.955572 -42.078314 
L 60.968663 -41.403643 
L 59.981754 -40.8267 
L 58.994845 -40.374642 
L 58.007935 -40.023197 
L 57.021026 -39.71757 
L 56.034117 -39.425627 
L 55.047208 -39.156335 
L 54.060298 -38.92942 
L 53.073389 -38.745515 
L 52.08648 -38.588654 
L 51.099571 -38.446734 
L 50.112662 -38.322283 
L 49.125752 -38.224659 
L 48.138843 -38.156653 
L 47.151934 -38.109221 
L 46.165025 -38.067356 
L 45.178115 -38.020453 
L 44.191206 -37.967218 
L 43.204297 -37.914141 
L 42.217388 -37.871228 
L 41.230478 -37.844598 
L 40.243569 -37.830373 
L 39.25666 -37.818048 
L 38.269751 -37.80103 
L 37.282842 -37.782179 
L 36.295932 -37.767494 
L 35.309023 -37.756513 
L 34.322114 -37.742623 
L 33.335205 -37.722684 
L 32.348295 -37.702325 
L 31.361386 -37.688399 
L 30.374477 -37.678738 
L 29.387568 -37.664817 
L 28.400658 -37.643806 
L 27.413749 -37.622563 
L 26.42684 -37.609039 
L 25.439931 -37.604259 
L 24.453021 -37.603972 
L 23.466112 -37.604497 
L 22.479203 -37.60506 
L 21.492294 -37.606017 
L 20.505385 -37.606415 
L 19.518475 -37.604281 
L 18.531566 -37.599367 
L 17.544657 -37.593245 
L 16.557748 -37.586647 
L 15.570838 -37.579872 
L 14.583929 -37.574504 
L 13.59702 -37.57142 
L 12.610111 -37.569288 
L 11.623201 -37.567481 
L 10.636292 -37.568404 
L 9.649383 -37.574661 
L 8.662474 -37.584166 
L 7.675565 -37.589899 
L 6.688655 -37.586568 
L 5.701746 -37.57642 
L 4.714837 -37.566154 
L 3.727928 -37.559959 
L 2.741018 -37.557876 
L 1.754109 -37.558803 
L 0.7672 -37.562355 
L -0.219709 -37.567741 
L -1.206619 -37.572236 
L -2.193528 -37.572627 
L -3.180437 -37.568601 
L -4.167346 -37.563108 
L -5.154255 -37.559054 
L -6.141165 -37.557094 
L -7.128074 -37.556437 
z
" style="stroke: #1e90ff"/>
    </defs>
    <g clip-path="url(#pc654d214ac)">
     <use xlink:href="#mf9759cf3fc" x="0" y="155.004375" style="fill: #1e90ff; fill-opacity: 0.25; stroke: #1e90ff"/>
    </g>
   </g>
   <g id="PolyCollection_2">
    <defs>
     <path id="m0b7715cfc0" d="M 17.681124 -37.55648 
L 17.681124 -37.55625 
L 18.549677 -37.55625 
L 19.41823 -37.55625 
L 20.286783 -37.55625 
L 21.155336 -37.55625 
L 22.023889 -37.55625 
L 22.892442 -37.55625 
L 23.760995 -37.55625 
L 24.629548 -37.55625 
L 25.498101 -37.55625 
L 26.366654 -37.55625 
L 27.235207 -37.55625 
L 28.10376 -37.55625 
L 28.972313 -37.55625 
L 29.840867 -37.55625 
L 30.70942 -37.55625 
L 31.577973 -37.55625 
L 32.446526 -37.55625 
L 33.315079 -37.55625 
L 34.183632 -37.55625 
L 35.052185 -37.55625 
L 35.920738 -37.55625 
L 36.789291 -37.55625 
L 37.657844 -37.55625 
L 38.526397 -37.55625 
L 39.39495 -37.55625 
L 40.263503 -37.55625 
L 41.132056 -37.55625 
L 42.000609 -37.55625 
L 42.869162 -37.55625 
L 43.737716 -37.55625 
L 44.606269 -37.55625 
L 45.474822 -37.55625 
L 46.343375 -37.55625 
L 47.211928 -37.55625 
L 48.080481 -37.55625 
L 48.949034 -37.55625 
L 49.817587 -37.55625 
L 50.68614 -37.55625 
L 51.554693 -37.55625 
L 52.423246 -37.55625 
L 53.291799 -37.55625 
L 54.160352 -37.55625 
L 55.028905 -37.55625 
L 55.897458 -37.55625 
L 56.766012 -37.55625 
L 57.634565 -37.55625 
L 58.503118 -37.55625 
L 59.371671 -37.55625 
L 60.240224 -37.55625 
L 61.108777 -37.55625 
L 61.97733 -37.55625 
L 62.845883 -37.55625 
L 63.714436 -37.55625 
L 64.582989 -37.55625 
L 65.451542 -37.55625 
L 66.320095 -37.55625 
L 67.188648 -37.55625 
L 68.057201 -37.55625 
L 68.925754 -37.55625 
L 69.794308 -37.55625 
L 70.662861 -37.55625 
L 71.531414 -37.55625 
L 72.399967 -37.55625 
L 73.26852 -37.55625 
L 74.137073 -37.55625 
L 75.005626 -37.55625 
L 75.874179 -37.55625 
L 76.742732 -37.55625 
L 77.611285 -37.55625 
L 78.479838 -37.55625 
L 79.348391 -37.55625 
L 80.216944 -37.55625 
L 81.085497 -37.55625 
L 81.95405 -37.55625 
L 82.822603 -37.55625 
L 83.691157 -37.55625 
L 84.55971 -37.55625 
L 85.428263 -37.55625 
L 86.296816 -37.55625 
L 87.165369 -37.55625 
L 88.033922 -37.55625 
L 88.902475 -37.55625 
L 89.771028 -37.55625 
L 90.639581 -37.55625 
L 91.508134 -37.55625 
L 92.376687 -37.55625 
L 93.24524 -37.55625 
L 94.113793 -37.55625 
L 94.982346 -37.55625 
L 95.850899 -37.55625 
L 96.719453 -37.55625 
L 97.588006 -37.55625 
L 98.456559 -37.55625 
L 99.325112 -37.55625 
L 100.193665 -37.55625 
L 101.062218 -37.55625 
L 101.930771 -37.55625 
L 102.799324 -37.55625 
L 103.667877 -37.55625 
L 104.53643 -37.55625 
L 105.404983 -37.55625 
L 106.273536 -37.55625 
L 107.142089 -37.55625 
L 108.010642 -37.55625 
L 108.879195 -37.55625 
L 109.747749 -37.55625 
L 110.616302 -37.55625 
L 111.484855 -37.55625 
L 112.353408 -37.55625 
L 113.221961 -37.55625 
L 114.090514 -37.55625 
L 114.959067 -37.55625 
L 115.82762 -37.55625 
L 116.696173 -37.55625 
L 117.564726 -37.55625 
L 118.433279 -37.55625 
L 119.301832 -37.55625 
L 120.170385 -37.55625 
L 121.038938 -37.55625 
L 121.907491 -37.55625 
L 122.776044 -37.55625 
L 123.644598 -37.55625 
L 124.513151 -37.55625 
L 125.381704 -37.55625 
L 126.250257 -37.55625 
L 127.11881 -37.55625 
L 127.987363 -37.55625 
L 128.855916 -37.55625 
L 129.724469 -37.55625 
L 130.593022 -37.55625 
L 131.461575 -37.55625 
L 132.330128 -37.55625 
L 133.198681 -37.55625 
L 134.067234 -37.55625 
L 134.935787 -37.55625 
L 135.80434 -37.55625 
L 136.672894 -37.55625 
L 137.541447 -37.55625 
L 138.41 -37.55625 
L 139.278553 -37.55625 
L 140.147106 -37.55625 
L 141.015659 -37.55625 
L 141.884212 -37.55625 
L 142.752765 -37.55625 
L 143.621318 -37.55625 
L 144.489871 -37.55625 
L 145.358424 -37.55625 
L 146.226977 -37.55625 
L 147.09553 -37.55625 
L 147.964083 -37.55625 
L 148.832636 -37.55625 
L 149.70119 -37.55625 
L 150.569743 -37.55625 
L 151.438296 -37.55625 
L 152.306849 -37.55625 
L 153.175402 -37.55625 
L 154.043955 -37.55625 
L 154.912508 -37.55625 
L 155.781061 -37.55625 
L 156.649614 -37.55625 
L 157.518167 -37.55625 
L 158.38672 -37.55625 
L 159.255273 -37.55625 
L 160.123826 -37.55625 
L 160.992379 -37.55625 
L 161.860932 -37.55625 
L 162.729486 -37.55625 
L 163.598039 -37.55625 
L 164.466592 -37.55625 
L 165.335145 -37.55625 
L 166.203698 -37.55625 
L 167.072251 -37.55625 
L 167.940804 -37.55625 
L 168.809357 -37.55625 
L 169.67791 -37.55625 
L 170.546463 -37.55625 
L 171.415016 -37.55625 
L 172.283569 -37.55625 
L 173.152122 -37.55625 
L 174.020675 -37.55625 
L 174.889228 -37.55625 
L 175.757781 -37.55625 
L 176.626335 -37.55625 
L 177.494888 -37.55625 
L 178.363441 -37.55625 
L 179.231994 -37.55625 
L 180.100547 -37.55625 
L 180.9691 -37.55625 
L 181.837653 -37.55625 
L 182.706206 -37.55625 
L 183.574759 -37.55625 
L 184.443312 -37.55625 
L 185.311865 -37.55625 
L 186.180418 -37.55625 
L 187.048971 -37.55625 
L 187.917524 -37.55625 
L 188.786077 -37.55625 
L 189.654631 -37.55625 
L 190.523184 -37.55625 
L 190.523184 -37.55648 
L 190.523184 -37.55648 
L 189.654631 -37.556944 
L 188.786077 -37.558043 
L 187.917524 -37.560218 
L 187.048971 -37.563767 
L 186.180418 -37.56844 
L 185.311865 -37.57318 
L 184.443312 -37.576417 
L 183.574759 -37.576951 
L 182.706206 -37.574847 
L 181.837653 -37.571576 
L 180.9691 -37.569228 
L 180.100547 -37.569363 
L 179.231994 -37.572289 
L 178.363441 -37.577206 
L 177.494888 -37.583163 
L 176.626335 -37.5902 
L 175.757781 -37.599721 
L 174.889228 -37.613567 
L 174.020675 -37.632311 
L 173.152122 -37.654117 
L 172.283569 -37.67508 
L 171.415016 -37.691004 
L 170.546463 -37.699817 
L 169.67791 -37.703452 
L 168.809357 -37.708061 
L 167.940804 -37.722094 
L 167.072251 -37.752976 
L 166.203698 -37.803914 
L 165.335145 -37.872322 
L 164.466592 -37.95095 
L 163.598039 -38.032102 
L 162.729486 -38.113424 
L 161.860932 -38.201608 
L 160.992379 -38.310682 
L 160.123826 -38.455498 
L 159.255273 -38.644929 
L 158.38672 -38.879007 
L 157.518167 -39.150717 
L 156.649614 -39.450513 
L 155.781061 -39.771781 
L 154.912508 -40.116178 
L 154.043955 -40.496937 
L 153.175402 -40.937168 
L 152.306849 -41.461768 
L 151.438296 -42.085947 
L 150.569743 -42.807167 
L 149.70119 -43.606887 
L 148.832636 -44.462747 
L 147.964083 -45.364073 
L 147.09553 -46.321401 
L 146.226977 -47.366543 
L 145.358424 -48.545602 
L 144.489871 -49.906555 
L 143.621318 -51.482339 
L 142.752765 -53.276795 
L 141.884212 -55.264205 
L 141.015659 -57.402167 
L 140.147106 -59.644821 
L 139.278553 -61.948212 
L 138.41 -64.274023 
L 137.541447 -66.598555 
L 136.672894 -68.920807 
L 135.80434 -71.258983 
L 134.935787 -73.634979 
L 134.067234 -76.054857 
L 133.198681 -78.492379 
L 132.330128 -80.882923 
L 131.461575 -83.138332 
L 130.593022 -85.183476 
L 129.724469 -86.991326 
L 128.855916 -88.585119 
L 127.987363 -90.004719 
L 127.11881 -91.271642 
L 126.250257 -92.385794 
L 125.381704 -93.34628 
L 124.513151 -94.161655 
L 123.644598 -94.837843 
L 122.776044 -95.36981 
L 121.907491 -95.756944 
L 121.038938 -96.019037 
L 120.170385 -96.177859 
L 119.301832 -96.214808 
L 118.433279 -96.057968 
L 117.564726 -95.630944 
L 116.696173 -94.930163 
L 115.82762 -94.059263 
L 114.959067 -93.180719 
L 114.090514 -92.416932 
L 113.221961 -91.776039 
L 112.353408 -91.153199 
L 111.484855 -90.396802 
L 110.616302 -89.388542 
L 109.747749 -88.089387 
L 108.879195 -86.534374 
L 108.010642 -84.794209 
L 107.142089 -82.94132 
L 106.273536 -81.047723 
L 105.404983 -79.2057 
L 104.53643 -77.529465 
L 103.667877 -76.105758 
L 102.799324 -74.918861 
L 101.930771 -73.825408 
L 101.062218 -72.627168 
L 100.193665 -71.196925 
L 99.325112 -69.553423 
L 98.456559 -67.827774 
L 97.588006 -66.163603 
L 96.719453 -64.636888 
L 95.850899 -63.23787 
L 94.982346 -61.897516 
L 94.113793 -60.528817 
L 93.24524 -59.071168 
L 92.376687 -57.526926 
L 91.508134 -55.966719 
L 90.639581 -54.492166 
L 89.771028 -53.180373 
L 88.902475 -52.049821 
L 88.033922 -51.06377 
L 87.165369 -50.157626 
L 86.296816 -49.270726 
L 85.428263 -48.371009 
L 84.55971 -47.464226 
L 83.691157 -46.582436 
L 82.822603 -45.758676 
L 81.95405 -45.005736 
L 81.085497 -44.312699 
L 80.216944 -43.657548 
L 79.348391 -43.023623 
L 78.479838 -42.408817 
L 77.611285 -41.824023 
L 76.742732 -41.284046 
L 75.874179 -40.797431 
L 75.005626 -40.361588 
L 74.137073 -39.966296 
L 73.26852 -39.602628 
L 72.399967 -39.270341 
L 71.531414 -38.978571 
L 70.662861 -38.739819 
L 69.794308 -38.560899 
L 68.925754 -38.435846 
L 68.057201 -38.345747 
L 67.188648 -38.267233 
L 66.320095 -38.184648 
L 65.451542 -38.096871 
L 64.582989 -38.013875 
L 63.714436 -37.946731 
L 62.845883 -37.899293 
L 61.97733 -37.866705 
L 61.108777 -37.839773 
L 60.240224 -37.810854 
L 59.371671 -37.777381 
L 58.503118 -37.741626 
L 57.634565 -37.707865 
L 56.766012 -37.679371 
L 55.897458 -37.657199 
L 55.028905 -37.640919 
L 54.160352 -37.629998 
L 53.291799 -37.624371 
L 52.423246 -37.6238 
L 51.554693 -37.626813 
L 50.68614 -37.63046 
L 49.817587 -37.631376 
L 48.949034 -37.627442 
L 48.080481 -37.618847 
L 47.211928 -37.607865 
L 46.343375 -37.597548 
L 45.474822 -37.590132 
L 44.606269 -37.586067 
L 43.737716 -37.584271 
L 42.869162 -37.583334 
L 42.000609 -37.582584 
L 41.132056 -37.582077 
L 40.263503 -37.581734 
L 39.39495 -37.580812 
L 38.526397 -37.578363 
L 37.657844 -37.574151 
L 36.789291 -37.568973 
L 35.920738 -37.564098 
L 35.052185 -37.560473 
L 34.183632 -37.558393 
L 33.315079 -37.55775 
L 32.446526 -37.558453 
L 31.577973 -37.560632 
L 30.70942 -37.564455 
L 29.840867 -37.569737 
L 28.972313 -37.575679 
L 28.10376 -37.581097 
L 27.235207 -37.584987 
L 26.366654 -37.586908 
L 25.498101 -37.58682 
L 24.629548 -37.584719 
L 23.760995 -37.580668 
L 22.892442 -37.575156 
L 22.023889 -37.569222 
L 21.155336 -37.564032 
L 20.286783 -37.560295 
L 19.41823 -37.558062 
L 18.549677 -37.556948 
L 17.681124 -37.55648 
z
" style="stroke: #dc143c"/>
    </defs>
    <g clip-path="url(#pc654d214ac)">
     <use xlink:href="#m0b7715cfc0" x="0" y="155.004375" style="fill: #dc143c; fill-opacity: 0.25; stroke: #dc143c"/>
    </g>
   </g>
   <g id="PolyCollection_3">
    <defs>
     <path id="mf143e308dc" d="M -8.688738 -37.556367 
L -8.688738 -37.55625 
L -7.686144 -37.55625 
L -6.68355 -37.55625 
L -5.680955 -37.55625 
L -4.678361 -37.55625 
L -3.675767 -37.55625 
L -2.673172 -37.55625 
L -1.670578 -37.55625 
L -0.667984 -37.55625 
L 0.33461 -37.55625 
L 1.337205 -37.55625 
L 2.339799 -37.55625 
L 3.342393 -37.55625 
L 4.344988 -37.55625 
L 5.347582 -37.55625 
L 6.350176 -37.55625 
L 7.352771 -37.55625 
L 8.355365 -37.55625 
L 9.357959 -37.55625 
L 10.360553 -37.55625 
L 11.363148 -37.55625 
L 12.365742 -37.55625 
L 13.368336 -37.55625 
L 14.370931 -37.55625 
L 15.373525 -37.55625 
L 16.376119 -37.55625 
L 17.378714 -37.55625 
L 18.381308 -37.55625 
L 19.383902 -37.55625 
L 20.386496 -37.55625 
L 21.389091 -37.55625 
L 22.391685 -37.55625 
L 23.394279 -37.55625 
L 24.396874 -37.55625 
L 25.399468 -37.55625 
L 26.402062 -37.55625 
L 27.404657 -37.55625 
L 28.407251 -37.55625 
L 29.409845 -37.55625 
L 30.412439 -37.55625 
L 31.415034 -37.55625 
L 32.417628 -37.55625 
L 33.420222 -37.55625 
L 34.422817 -37.55625 
L 35.425411 -37.55625 
L 36.428005 -37.55625 
L 37.4306 -37.55625 
L 38.433194 -37.55625 
L 39.435788 -37.55625 
L 40.438382 -37.55625 
L 41.440977 -37.55625 
L 42.443571 -37.55625 
L 43.446165 -37.55625 
L 44.44876 -37.55625 
L 45.451354 -37.55625 
L 46.453948 -37.55625 
L 47.456543 -37.55625 
L 48.459137 -37.55625 
L 49.461731 -37.55625 
L 50.464326 -37.55625 
L 51.46692 -37.55625 
L 52.469514 -37.55625 
L 53.472108 -37.55625 
L 54.474703 -37.55625 
L 55.477297 -37.55625 
L 56.479891 -37.55625 
L 57.482486 -37.55625 
L 58.48508 -37.55625 
L 59.487674 -37.55625 
L 60.490269 -37.55625 
L 61.492863 -37.55625 
L 62.495457 -37.55625 
L 63.498051 -37.55625 
L 64.500646 -37.55625 
L 65.50324 -37.55625 
L 66.505834 -37.55625 
L 67.508429 -37.55625 
L 68.511023 -37.55625 
L 69.513617 -37.55625 
L 70.516212 -37.55625 
L 71.518806 -37.55625 
L 72.5214 -37.55625 
L 73.523994 -37.55625 
L 74.526589 -37.55625 
L 75.529183 -37.55625 
L 76.531777 -37.55625 
L 77.534372 -37.55625 
L 78.536966 -37.55625 
L 79.53956 -37.55625 
L 80.542155 -37.55625 
L 81.544749 -37.55625 
L 82.547343 -37.55625 
L 83.549937 -37.55625 
L 84.552532 -37.55625 
L 85.555126 -37.55625 
L 86.55772 -37.55625 
L 87.560315 -37.55625 
L 88.562909 -37.55625 
L 89.565503 -37.55625 
L 90.568098 -37.55625 
L 91.570692 -37.55625 
L 92.573286 -37.55625 
L 93.57588 -37.55625 
L 94.578475 -37.55625 
L 95.581069 -37.55625 
L 96.583663 -37.55625 
L 97.586258 -37.55625 
L 98.588852 -37.55625 
L 99.591446 -37.55625 
L 100.594041 -37.55625 
L 101.596635 -37.55625 
L 102.599229 -37.55625 
L 103.601823 -37.55625 
L 104.604418 -37.55625 
L 105.607012 -37.55625 
L 106.609606 -37.55625 
L 107.612201 -37.55625 
L 108.614795 -37.55625 
L 109.617389 -37.55625 
L 110.619984 -37.55625 
L 111.622578 -37.55625 
L 112.625172 -37.55625 
L 113.627766 -37.55625 
L 114.630361 -37.55625 
L 115.632955 -37.55625 
L 116.635549 -37.55625 
L 117.638144 -37.55625 
L 118.640738 -37.55625 
L 119.643332 -37.55625 
L 120.645927 -37.55625 
L 121.648521 -37.55625 
L 122.651115 -37.55625 
L 123.653709 -37.55625 
L 124.656304 -37.55625 
L 125.658898 -37.55625 
L 126.661492 -37.55625 
L 127.664087 -37.55625 
L 128.666681 -37.55625 
L 129.669275 -37.55625 
L 130.67187 -37.55625 
L 131.674464 -37.55625 
L 132.677058 -37.55625 
L 133.679652 -37.55625 
L 134.682247 -37.55625 
L 135.684841 -37.55625 
L 136.687435 -37.55625 
L 137.69003 -37.55625 
L 138.692624 -37.55625 
L 139.695218 -37.55625 
L 140.697813 -37.55625 
L 141.700407 -37.55625 
L 142.703001 -37.55625 
L 143.705595 -37.55625 
L 144.70819 -37.55625 
L 145.710784 -37.55625 
L 146.713378 -37.55625 
L 147.715973 -37.55625 
L 148.718567 -37.55625 
L 149.721161 -37.55625 
L 150.723756 -37.55625 
L 151.72635 -37.55625 
L 152.728944 -37.55625 
L 153.731538 -37.55625 
L 154.734133 -37.55625 
L 155.736727 -37.55625 
L 156.739321 -37.55625 
L 157.741916 -37.55625 
L 158.74451 -37.55625 
L 159.747104 -37.55625 
L 160.749699 -37.55625 
L 161.752293 -37.55625 
L 162.754887 -37.55625 
L 163.757481 -37.55625 
L 164.760076 -37.55625 
L 165.76267 -37.55625 
L 166.765264 -37.55625 
L 167.767859 -37.55625 
L 168.770453 -37.55625 
L 169.773047 -37.55625 
L 170.775642 -37.55625 
L 171.778236 -37.55625 
L 172.78083 -37.55625 
L 173.783424 -37.55625 
L 174.786019 -37.55625 
L 175.788613 -37.55625 
L 176.791207 -37.55625 
L 177.793802 -37.55625 
L 178.796396 -37.55625 
L 179.79899 -37.55625 
L 180.801585 -37.55625 
L 181.804179 -37.55625 
L 182.806773 -37.55625 
L 183.809367 -37.55625 
L 184.811962 -37.55625 
L 185.814556 -37.55625 
L 186.81715 -37.55625 
L 187.819745 -37.55625 
L 188.822339 -37.55625 
L 189.824933 -37.55625 
L 190.827528 -37.55625 
L 190.827528 -37.556435 
L 190.827528 -37.556435 
L 189.824933 -37.556889 
L 188.822339 -37.558078 
L 187.819745 -37.560586 
L 186.81715 -37.564771 
L 185.814556 -37.570125 
L 184.811962 -37.57497 
L 183.809367 -37.57718 
L 182.806773 -37.575647 
L 181.804179 -37.571172 
L 180.801585 -37.565879 
L 179.79899 -37.56181 
L 178.796396 -37.56015 
L 177.793802 -37.561523 
L 176.791207 -37.566674 
L 175.788613 -37.576676 
L 174.786019 -37.592372 
L 173.783424 -37.613414 
L 172.78083 -37.637842 
L 171.778236 -37.663139 
L 170.775642 -37.688414 
L 169.773047 -37.715561 
L 168.770453 -37.747786 
L 167.767859 -37.787093 
L 166.765264 -37.833953 
L 165.76267 -37.889922 
L 164.760076 -37.960748 
L 163.757481 -38.057525 
L 162.754887 -38.195062 
L 161.752293 -38.387344 
L 160.749699 -38.640953 
L 159.747104 -38.950092 
L 158.74451 -39.2984 
L 157.741916 -39.66907 
L 156.739321 -40.057624 
L 155.736727 -40.478127 
L 154.734133 -40.95713 
L 153.731538 -41.517486 
L 152.728944 -42.161839 
L 151.72635 -42.868013 
L 150.723756 -43.601635 
L 149.721161 -44.338954 
L 148.718567 -45.086352 
L 147.715973 -45.886356 
L 146.713378 -46.806492 
L 145.710784 -47.912972 
L 144.70819 -49.238363 
L 143.705595 -50.76058 
L 142.703001 -52.412086 
L 141.700407 -54.122363 
L 140.697813 -55.865454 
L 139.695218 -57.667881 
L 138.692624 -59.56265 
L 137.69003 -61.531144 
L 136.687435 -63.490985 
L 135.684841 -65.341923 
L 134.682247 -67.027329 
L 133.679652 -68.561021 
L 132.677058 -70.002394 
L 131.674464 -71.401187 
L 130.67187 -72.755046 
L 129.669275 -74.016127 
L 128.666681 -75.14507 
L 127.664087 -76.1685 
L 126.661492 -77.187216 
L 125.658898 -78.31697 
L 124.656304 -79.599025 
L 123.653709 -80.949879 
L 122.651115 -82.192708 
L 121.648521 -83.147476 
L 120.645927 -83.717444 
L 119.643332 -83.92545 
L 118.640738 -83.890763 
L 117.638144 -83.765881 
L 116.635549 -83.670485 
L 115.632955 -83.658687 
L 114.630361 -83.72715 
L 113.627766 -83.840807 
L 112.625172 -83.951312 
L 111.622578 -84.002406 
L 110.619984 -83.93049 
L 109.617389 -83.672306 
L 108.614795 -83.186401 
L 107.612201 -82.478705 
L 106.609606 -81.60896 
L 105.607012 -80.667769 
L 104.604418 -79.744467 
L 103.601823 -78.910451 
L 102.599229 -78.208686 
L 101.596635 -77.625571 
L 100.594041 -77.066659 
L 99.591446 -76.392357 
L 98.588852 -75.510105 
L 97.586258 -74.433885 
L 96.583663 -73.246896 
L 95.581069 -72.01618 
L 94.578475 -70.75303 
L 93.57588 -69.443971 
L 92.573286 -68.102209 
L 91.570692 -66.78568 
L 90.568098 -65.565823 
L 89.565503 -64.470633 
L 88.562909 -63.452411 
L 87.560315 -62.417688 
L 86.55772 -61.296773 
L 85.555126 -60.086334 
L 84.552532 -58.828638 
L 83.549937 -57.558871 
L 82.547343 -56.276246 
L 81.544749 -54.958213 
L 80.542155 -53.592183 
L 79.53956 -52.191952 
L 78.536966 -50.790517 
L 77.534372 -49.423563 
L 76.531777 -48.119701 
L 75.529183 -46.901439 
L 74.526589 -45.789552 
L 73.523994 -44.80173 
L 72.5214 -43.944034 
L 71.518806 -43.20266 
L 70.516212 -42.545376 
L 69.513617 -41.93521 
L 68.511023 -41.3495 
L 67.508429 -40.791892 
L 66.505834 -40.287966 
L 65.50324 -39.866552 
L 64.500646 -39.539648 
L 63.498051 -39.294321 
L 62.495457 -39.100618 
L 61.492863 -38.92858 
L 60.490269 -38.761793 
L 59.487674 -38.599159 
L 58.48508 -38.447631 
L 57.482486 -38.314716 
L 56.479891 -38.205093 
L 55.477297 -38.119874 
L 54.474703 -38.056769 
L 53.472108 -38.010693 
L 52.469514 -37.974284 
L 51.46692 -37.938912 
L 50.464326 -37.897677 
L 49.461731 -37.8492 
L 48.459137 -37.798439 
L 47.456543 -37.752871 
L 46.453948 -37.717124 
L 45.451354 -37.690715 
L 44.44876 -37.670269 
L 43.446165 -37.653291 
L 42.443571 -37.639747 
L 41.440977 -37.630652 
L 40.438382 -37.62578 
L 39.435788 -37.622933 
L 38.433194 -37.619307 
L 37.4306 -37.613484 
L 36.428005 -37.606243 
L 35.425411 -37.59979 
L 34.422817 -37.596145 
L 33.420222 -37.595664 
L 32.417628 -37.596715 
L 31.415034 -37.597001 
L 30.412439 -37.595519 
L 29.409845 -37.593255 
L 28.407251 -37.591967 
L 27.404657 -37.592372 
L 26.402062 -37.59348 
L 25.399468 -37.593498 
L 24.396874 -37.591243 
L 23.394279 -37.586815 
L 22.391685 -37.581343 
L 21.389091 -37.576438 
L 20.386496 -37.57369 
L 19.383902 -37.573943 
L 18.381308 -37.576555 
L 17.378714 -37.579531 
L 16.376119 -37.580846 
L 15.373525 -37.579822 
L 14.370931 -37.577176 
L 13.368336 -37.573971 
L 12.365742 -37.570902 
L 11.363148 -37.568471 
L 10.360553 -37.56718 
L 9.357959 -37.56712 
L 8.355365 -37.567553 
L 7.352771 -37.567304 
L 6.350176 -37.565715 
L 5.347582 -37.56316 
L 4.344988 -37.560666 
L 3.342393 -37.559192 
L 2.339799 -37.559228 
L 1.337205 -37.560755 
L 0.33461 -37.563237 
L -0.667984 -37.56563 
L -1.670578 -37.566755 
L -2.673172 -37.565999 
L -3.675767 -37.563738 
L -4.678361 -37.561009 
L -5.680955 -37.558752 
L -6.68355 -37.557339 
L -7.686144 -37.556642 
L -8.688738 -37.556367 
z
" style="stroke: #008080"/>
    </defs>
    <g clip-path="url(#pc654d214ac)">
     <use xlink:href="#mf143e308dc" x="0" y="155.004375" style="fill: #008080; fill-opacity: 0.25; stroke: #008080"/>
    </g>
   </g>
   <g id="PolyCollection_4">
    <defs>
     <path id="m2985a04d22" d="M 32.818136 -37.556547 
L 32.818136 -37.55625 
L 33.579378 -37.55625 
L 34.34062 -37.55625 
L 35.101861 -37.55625 
L 35.863103 -37.55625 
L 36.624345 -37.55625 
L 37.385587 -37.55625 
L 38.146829 -37.55625 
L 38.908071 -37.55625 
L 39.669313 -37.55625 
L 40.430555 -37.55625 
L 41.191797 -37.55625 
L 41.953039 -37.55625 
L 42.714281 -37.55625 
L 43.475523 -37.55625 
L 44.236764 -37.55625 
L 44.998006 -37.55625 
L 45.759248 -37.55625 
L 46.52049 -37.55625 
L 47.281732 -37.55625 
L 48.042974 -37.55625 
L 48.804216 -37.55625 
L 49.565458 -37.55625 
L 50.3267 -37.55625 
L 51.087942 -37.55625 
L 51.849184 -37.55625 
L 52.610425 -37.55625 
L 53.371667 -37.55625 
L 54.132909 -37.55625 
L 54.894151 -37.55625 
L 55.655393 -37.55625 
L 56.416635 -37.55625 
L 57.177877 -37.55625 
L 57.939119 -37.55625 
L 58.700361 -37.55625 
L 59.461603 -37.55625 
L 60.222845 -37.55625 
L 60.984086 -37.55625 
L 61.745328 -37.55625 
L 62.50657 -37.55625 
L 63.267812 -37.55625 
L 64.029054 -37.55625 
L 64.790296 -37.55625 
L 65.551538 -37.55625 
L 66.31278 -37.55625 
L 67.074022 -37.55625 
L 67.835264 -37.55625 
L 68.596506 -37.55625 
L 69.357747 -37.55625 
L 70.118989 -37.55625 
L 70.880231 -37.55625 
L 71.641473 -37.55625 
L 72.402715 -37.55625 
L 73.163957 -37.55625 
L 73.925199 -37.55625 
L 74.686441 -37.55625 
L 75.447683 -37.55625 
L 76.208925 -37.55625 
L 76.970167 -37.55625 
L 77.731408 -37.55625 
L 78.49265 -37.55625 
L 79.253892 -37.55625 
L 80.015134 -37.55625 
L 80.776376 -37.55625 
L 81.537618 -37.55625 
L 82.29886 -37.55625 
L 83.060102 -37.55625 
L 83.821344 -37.55625 
L 84.582586 -37.55625 
L 85.343828 -37.55625 
L 86.10507 -37.55625 
L 86.866311 -37.55625 
L 87.627553 -37.55625 
L 88.388795 -37.55625 
L 89.150037 -37.55625 
L 89.911279 -37.55625 
L 90.672521 -37.55625 
L 91.433763 -37.55625 
L 92.195005 -37.55625 
L 92.956247 -37.55625 
L 93.717489 -37.55625 
L 94.478731 -37.55625 
L 95.239972 -37.55625 
L 96.001214 -37.55625 
L 96.762456 -37.55625 
L 97.523698 -37.55625 
L 98.28494 -37.55625 
L 99.046182 -37.55625 
L 99.807424 -37.55625 
L 100.568666 -37.55625 
L 101.329908 -37.55625 
L 102.09115 -37.55625 
L 102.852392 -37.55625 
L 103.613633 -37.55625 
L 104.374875 -37.55625 
L 105.136117 -37.55625 
L 105.897359 -37.55625 
L 106.658601 -37.55625 
L 107.419843 -37.55625 
L 108.181085 -37.55625 
L 108.942327 -37.55625 
L 109.703569 -37.55625 
L 110.464811 -37.55625 
L 111.226053 -37.55625 
L 111.987294 -37.55625 
L 112.748536 -37.55625 
L 113.509778 -37.55625 
L 114.27102 -37.55625 
L 115.032262 -37.55625 
L 115.793504 -37.55625 
L 116.554746 -37.55625 
L 117.315988 -37.55625 
L 118.07723 -37.55625 
L 118.838472 -37.55625 
L 119.599714 -37.55625 
L 120.360955 -37.55625 
L 121.122197 -37.55625 
L 121.883439 -37.55625 
L 122.644681 -37.55625 
L 123.405923 -37.55625 
L 124.167165 -37.55625 
L 124.928407 -37.55625 
L 125.689649 -37.55625 
L 126.450891 -37.55625 
L 127.212133 -37.55625 
L 127.973375 -37.55625 
L 128.734617 -37.55625 
L 129.495858 -37.55625 
L 130.2571 -37.55625 
L 131.018342 -37.55625 
L 131.779584 -37.55625 
L 132.540826 -37.55625 
L 133.302068 -37.55625 
L 134.06331 -37.55625 
L 134.824552 -37.55625 
L 135.585794 -37.55625 
L 136.347036 -37.55625 
L 137.108278 -37.55625 
L 137.869519 -37.55625 
L 138.630761 -37.55625 
L 139.392003 -37.55625 
L 140.153245 -37.55625 
L 140.914487 -37.55625 
L 141.675729 -37.55625 
L 142.436971 -37.55625 
L 143.198213 -37.55625 
L 143.959455 -37.55625 
L 144.720697 -37.55625 
L 145.481939 -37.55625 
L 146.24318 -37.55625 
L 147.004422 -37.55625 
L 147.765664 -37.55625 
L 148.526906 -37.55625 
L 149.288148 -37.55625 
L 150.04939 -37.55625 
L 150.810632 -37.55625 
L 151.571874 -37.55625 
L 152.333116 -37.55625 
L 153.094358 -37.55625 
L 153.8556 -37.55625 
L 154.616841 -37.55625 
L 155.378083 -37.55625 
L 156.139325 -37.55625 
L 156.900567 -37.55625 
L 157.661809 -37.55625 
L 158.423051 -37.55625 
L 159.184293 -37.55625 
L 159.945535 -37.55625 
L 160.706777 -37.55625 
L 161.468019 -37.55625 
L 162.229261 -37.55625 
L 162.990502 -37.55625 
L 163.751744 -37.55625 
L 164.512986 -37.55625 
L 165.274228 -37.55625 
L 166.03547 -37.55625 
L 166.796712 -37.55625 
L 167.557954 -37.55625 
L 168.319196 -37.55625 
L 169.080438 -37.55625 
L 169.84168 -37.55625 
L 170.602922 -37.55625 
L 171.364164 -37.55625 
L 172.125405 -37.55625 
L 172.886647 -37.55625 
L 173.647889 -37.55625 
L 174.409131 -37.55625 
L 175.170373 -37.55625 
L 175.931615 -37.55625 
L 176.692857 -37.55625 
L 177.454099 -37.55625 
L 178.215341 -37.55625 
L 178.976583 -37.55625 
L 179.737825 -37.55625 
L 180.499066 -37.55625 
L 181.260308 -37.55625 
L 182.02155 -37.55625 
L 182.782792 -37.55625 
L 183.544034 -37.55625 
L 184.305276 -37.55625 
L 184.305276 -37.55672 
L 184.305276 -37.55672 
L 183.544034 -37.557545 
L 182.782792 -37.559477 
L 182.02155 -37.563551 
L 181.260308 -37.571312 
L 180.499066 -37.584728 
L 179.737825 -37.605906 
L 178.976583 -37.636619 
L 178.215341 -37.677721 
L 177.454099 -37.72855 
L 176.692857 -37.786436 
L 175.931615 -37.846695 
L 175.170373 -37.903628 
L 174.409131 -37.952726 
L 173.647889 -37.993405 
L 172.886647 -38.030752 
L 172.125405 -38.074921 
L 171.364164 -38.138159 
L 170.602922 -38.230948 
L 169.84168 -38.359358 
L 169.080438 -38.524819 
L 168.319196 -38.725997 
L 167.557954 -38.961284 
L 166.796712 -39.230462 
L 166.03547 -39.535031 
L 165.274228 -39.877739 
L 164.512986 -40.261967 
L 163.751744 -40.691056 
L 162.990502 -41.167268 
L 162.229261 -41.690463 
L 161.468019 -42.257338 
L 160.706777 -42.862094 
L 159.945535 -43.498797 
L 159.184293 -44.164928 
L 158.423051 -44.865226 
L 157.661809 -45.614566 
L 156.900567 -46.43811 
L 156.139325 -47.367204 
L 155.378083 -48.431033 
L 154.616841 -49.646827 
L 153.8556 -51.013398 
L 153.094358 -52.512031 
L 152.333116 -54.114603 
L 151.571874 -55.793962 
L 150.810632 -57.530071 
L 150.04939 -59.30944 
L 149.288148 -61.121578 
L 148.526906 -62.958619 
L 147.765664 -64.820081 
L 147.004422 -66.718049 
L 146.24318 -68.675735 
L 145.481939 -70.716772 
L 144.720697 -72.849598 
L 143.959455 -75.0555 
L 143.198213 -77.287805 
L 142.436971 -79.484675 
L 141.675729 -81.591311 
L 140.914487 -83.582212 
L 140.153245 -85.47314 
L 139.392003 -87.316935 
L 138.630761 -89.184308 
L 137.869519 -91.135689 
L 137.108278 -93.19144 
L 136.347036 -95.308648 
L 135.585794 -97.375516 
L 134.824552 -99.234144 
L 134.06331 -100.73141 
L 133.302068 -101.778007 
L 132.540826 -102.383194 
L 131.779584 -102.643053 
L 131.018342 -102.689131 
L 130.2571 -102.62951 
L 129.495858 -102.514897 
L 128.734617 -102.340028 
L 127.973375 -102.067074 
L 127.212133 -101.651145 
L 126.450891 -101.057536 
L 125.689649 -100.271003 
L 124.928407 -99.299156 
L 124.167165 -98.168161 
L 123.405923 -96.908808 
L 122.644681 -95.537584 
L 121.883439 -94.044962 
L 121.122197 -92.402405 
L 120.360955 -90.587416 
L 119.599714 -88.61004 
L 118.838472 -86.519568 
L 118.07723 -84.384409 
L 117.315988 -82.260618 
L 116.554746 -80.174282 
L 115.793504 -78.129946 
L 115.032262 -76.134353 
L 114.27102 -74.213315 
L 113.509778 -72.408005 
L 112.748536 -70.755141 
L 111.987294 -69.267228 
L 111.226053 -67.926685 
L 110.464811 -66.695279 
L 109.703569 -65.528737 
L 108.942327 -64.385144 
L 108.181085 -63.224971 
L 107.419843 -62.010834 
L 106.658601 -60.715477 
L 105.897359 -59.336442 
L 105.136117 -57.905604 
L 104.374875 -56.482115 
L 103.613633 -55.128786 
L 102.852392 -53.884951 
L 102.09115 -52.752391 
L 101.329908 -51.702495 
L 100.568666 -50.699238 
L 99.807424 -49.723686 
L 99.046182 -48.786221 
L 98.28494 -47.920918 
L 97.523698 -47.166743 
L 96.762456 -46.547033 
L 96.001214 -46.058347 
L 95.239972 -45.672868 
L 94.478731 -45.350274 
L 93.717489 -45.051224 
L 92.956247 -44.746506 
L 92.195005 -44.42012 
L 91.433763 -44.067383 
L 90.672521 -43.690519 
L 89.911279 -43.294752 
L 89.150037 -42.887179 
L 88.388795 -42.477971 
L 87.627553 -42.080795 
L 86.866311 -41.709848 
L 86.10507 -41.374544 
L 85.343828 -41.075934 
L 84.582586 -40.807907 
L 83.821344 -40.562049 
L 83.060102 -40.332053 
L 82.29886 -40.114668 
L 81.537618 -39.907867 
L 80.776376 -39.709187 
L 80.015134 -39.516106 
L 79.253892 -39.327512 
L 78.49265 -39.144195 
L 77.731408 -38.967666 
L 76.970167 -38.798725 
L 76.208925 -38.637426 
L 75.447683 -38.484468 
L 74.686441 -38.342336 
L 73.925199 -38.214821 
L 73.163957 -38.105254 
L 72.402715 -38.014984 
L 71.641473 -37.94313 
L 70.880231 -37.887299 
L 70.118989 -37.844291 
L 69.357747 -37.810416 
L 68.596506 -37.781803 
L 67.835264 -37.755035 
L 67.074022 -37.727896 
L 66.31278 -37.699719 
L 65.551538 -37.671154 
L 64.790296 -37.643624 
L 64.029054 -37.618762 
L 63.267812 -37.597957 
L 62.50657 -37.58201 
L 61.745328 -37.570989 
L 60.984086 -37.564339 
L 60.222845 -37.561242 
L 59.461603 -37.560996 
L 58.700361 -37.563203 
L 57.939119 -37.56769 
L 57.177877 -37.57421 
L 56.416635 -37.582142 
L 55.655393 -37.590363 
L 54.894151 -37.59742 
L 54.132909 -37.6019 
L 53.371667 -37.602853 
L 52.610425 -37.600071 
L 51.849184 -37.594153 
L 51.087942 -37.586323 
L 50.3267 -37.578055 
L 49.565458 -37.570642 
L 48.804216 -37.564868 
L 48.042974 -37.560933 
L 47.281732 -37.558609 
L 46.52049 -37.557509 
L 45.759248 -37.557336 
L 44.998006 -37.558014 
L 44.236764 -37.559693 
L 43.475523 -37.562614 
L 42.714281 -37.566857 
L 41.953039 -37.572071 
L 41.191797 -37.577341 
L 40.430555 -37.581376 
L 39.669313 -37.582998 
L 38.908071 -37.581694 
L 38.146829 -37.577879 
L 37.385587 -37.572679 
L 36.624345 -37.567402 
L 35.863103 -37.563014 
L 35.101861 -37.559916 
L 34.34062 -37.558026 
L 33.579378 -37.557018 
L 32.818136 -37.556547 
z
" style="stroke: #ff7f50"/>
    </defs>
    <g clip-path="url(#pc654d214ac)">
     <use xlink:href="#m2985a04d22" x="0" y="155.004375" style="fill: #ff7f50; fill-opacity: 0.25; stroke: #ff7f50"/>
    </g>
   </g>
   <g id="PolyCollection_5">
    <defs>
     <path id="m2d5f418ee5" d="M 24.835141 -37.55646 
L 24.835141 -37.55625 
L 25.62478 -37.55625 
L 26.41442 -37.55625 
L 27.204059 -37.55625 
L 27.993699 -37.55625 
L 28.783338 -37.55625 
L 29.572978 -37.55625 
L 30.362617 -37.55625 
L 31.152256 -37.55625 
L 31.941896 -37.55625 
L 32.731535 -37.55625 
L 33.521175 -37.55625 
L 34.310814 -37.55625 
L 35.100453 -37.55625 
L 35.890093 -37.55625 
L 36.679732 -37.55625 
L 37.469372 -37.55625 
L 38.259011 -37.55625 
L 39.048651 -37.55625 
L 39.83829 -37.55625 
L 40.627929 -37.55625 
L 41.417569 -37.55625 
L 42.207208 -37.55625 
L 42.996848 -37.55625 
L 43.786487 -37.55625 
L 44.576127 -37.55625 
L 45.365766 -37.55625 
L 46.155405 -37.55625 
L 46.945045 -37.55625 
L 47.734684 -37.55625 
L 48.524324 -37.55625 
L 49.313963 -37.55625 
L 50.103603 -37.55625 
L 50.893242 -37.55625 
L 51.682881 -37.55625 
L 52.472521 -37.55625 
L 53.26216 -37.55625 
L 54.0518 -37.55625 
L 54.841439 -37.55625 
L 55.631079 -37.55625 
L 56.420718 -37.55625 
L 57.210357 -37.55625 
L 57.999997 -37.55625 
L 58.789636 -37.55625 
L 59.579276 -37.55625 
L 60.368915 -37.55625 
L 61.158554 -37.55625 
L 61.948194 -37.55625 
L 62.737833 -37.55625 
L 63.527473 -37.55625 
L 64.317112 -37.55625 
L 65.106752 -37.55625 
L 65.896391 -37.55625 
L 66.68603 -37.55625 
L 67.47567 -37.55625 
L 68.265309 -37.55625 
L 69.054949 -37.55625 
L 69.844588 -37.55625 
L 70.634228 -37.55625 
L 71.423867 -37.55625 
L 72.213506 -37.55625 
L 73.003146 -37.55625 
L 73.792785 -37.55625 
L 74.582425 -37.55625 
L 75.372064 -37.55625 
L 76.161704 -37.55625 
L 76.951343 -37.55625 
L 77.740982 -37.55625 
L 78.530622 -37.55625 
L 79.320261 -37.55625 
L 80.109901 -37.55625 
L 80.89954 -37.55625 
L 81.68918 -37.55625 
L 82.478819 -37.55625 
L 83.268458 -37.55625 
L 84.058098 -37.55625 
L 84.847737 -37.55625 
L 85.637377 -37.55625 
L 86.427016 -37.55625 
L 87.216656 -37.55625 
L 88.006295 -37.55625 
L 88.795934 -37.55625 
L 89.585574 -37.55625 
L 90.375213 -37.55625 
L 91.164853 -37.55625 
L 91.954492 -37.55625 
L 92.744131 -37.55625 
L 93.533771 -37.55625 
L 94.32341 -37.55625 
L 95.11305 -37.55625 
L 95.902689 -37.55625 
L 96.692329 -37.55625 
L 97.481968 -37.55625 
L 98.271607 -37.55625 
L 99.061247 -37.55625 
L 99.850886 -37.55625 
L 100.640526 -37.55625 
L 101.430165 -37.55625 
L 102.219805 -37.55625 
L 103.009444 -37.55625 
L 103.799083 -37.55625 
L 104.588723 -37.55625 
L 105.378362 -37.55625 
L 106.168002 -37.55625 
L 106.957641 -37.55625 
L 107.747281 -37.55625 
L 108.53692 -37.55625 
L 109.326559 -37.55625 
L 110.116199 -37.55625 
L 110.905838 -37.55625 
L 111.695478 -37.55625 
L 112.485117 -37.55625 
L 113.274757 -37.55625 
L 114.064396 -37.55625 
L 114.854035 -37.55625 
L 115.643675 -37.55625 
L 116.433314 -37.55625 
L 117.222954 -37.55625 
L 118.012593 -37.55625 
L 118.802233 -37.55625 
L 119.591872 -37.55625 
L 120.381511 -37.55625 
L 121.171151 -37.55625 
L 121.96079 -37.55625 
L 122.75043 -37.55625 
L 123.540069 -37.55625 
L 124.329708 -37.55625 
L 125.119348 -37.55625 
L 125.908987 -37.55625 
L 126.698627 -37.55625 
L 127.488266 -37.55625 
L 128.277906 -37.55625 
L 129.067545 -37.55625 
L 129.857184 -37.55625 
L 130.646824 -37.55625 
L 131.436463 -37.55625 
L 132.226103 -37.55625 
L 133.015742 -37.55625 
L 133.805382 -37.55625 
L 134.595021 -37.55625 
L 135.38466 -37.55625 
L 136.1743 -37.55625 
L 136.963939 -37.55625 
L 137.753579 -37.55625 
L 138.543218 -37.55625 
L 139.332858 -37.55625 
L 140.122497 -37.55625 
L 140.912136 -37.55625 
L 141.701776 -37.55625 
L 142.491415 -37.55625 
L 143.281055 -37.55625 
L 144.070694 -37.55625 
L 144.860334 -37.55625 
L 145.649973 -37.55625 
L 146.439612 -37.55625 
L 147.229252 -37.55625 
L 148.018891 -37.55625 
L 148.808531 -37.55625 
L 149.59817 -37.55625 
L 150.38781 -37.55625 
L 151.177449 -37.55625 
L 151.967088 -37.55625 
L 152.756728 -37.55625 
L 153.546367 -37.55625 
L 154.336007 -37.55625 
L 155.125646 -37.55625 
L 155.915285 -37.55625 
L 156.704925 -37.55625 
L 157.494564 -37.55625 
L 158.284204 -37.55625 
L 159.073843 -37.55625 
L 159.863483 -37.55625 
L 160.653122 -37.55625 
L 161.442761 -37.55625 
L 162.232401 -37.55625 
L 163.02204 -37.55625 
L 163.81168 -37.55625 
L 164.601319 -37.55625 
L 165.390959 -37.55625 
L 166.180598 -37.55625 
L 166.970237 -37.55625 
L 167.759877 -37.55625 
L 168.549516 -37.55625 
L 169.339156 -37.55625 
L 170.128795 -37.55625 
L 170.918435 -37.55625 
L 171.708074 -37.55625 
L 172.497713 -37.55625 
L 173.287353 -37.55625 
L 174.076992 -37.55625 
L 174.866632 -37.55625 
L 175.656271 -37.55625 
L 176.445911 -37.55625 
L 177.23555 -37.55625 
L 178.025189 -37.55625 
L 178.814829 -37.55625 
L 179.604468 -37.55625 
L 180.394108 -37.55625 
L 181.183747 -37.55625 
L 181.973386 -37.55625 
L 181.973386 -37.556478 
L 181.973386 -37.556478 
L 181.183747 -37.556889 
L 180.394108 -37.557837 
L 179.604468 -37.559765 
L 178.814829 -37.56321 
L 178.025189 -37.568621 
L 177.23555 -37.5761 
L 176.445911 -37.585226 
L 175.656271 -37.595164 
L 174.866632 -37.60518 
L 174.076992 -37.615399 
L 173.287353 -37.627417 
L 172.497713 -37.644192 
L 171.708074 -37.668879 
L 170.918435 -37.702922 
L 170.128795 -37.744607 
L 169.339156 -37.789444 
L 168.549516 -37.832674 
L 167.759877 -37.872381 
L 166.970237 -37.910903 
L 166.180598 -37.95349 
L 165.390959 -38.005447 
L 164.601319 -38.070133 
L 163.81168 -38.149131 
L 163.02204 -38.243852 
L 162.232401 -38.356877 
L 161.442761 -38.491891 
L 160.653122 -38.652271 
L 159.863483 -38.839157 
L 159.073843 -39.050199 
L 158.284204 -39.280242 
L 157.494564 -39.524356 
L 156.704925 -39.782064 
L 155.915285 -40.06032 
L 155.125646 -40.373108 
L 154.336007 -40.737535 
L 153.546367 -41.168701 
L 152.756728 -41.676558 
L 151.967088 -42.266109 
L 151.177449 -42.93892 
L 150.38781 -43.692838 
L 149.59817 -44.519696 
L 148.808531 -45.404778 
L 148.018891 -46.33176 
L 147.229252 -47.29219 
L 146.439612 -48.294095 
L 145.649973 -49.364266 
L 144.860334 -50.542368 
L 144.070694 -51.868612 
L 143.281055 -53.369138 
L 142.491415 -55.045055 
L 141.701776 -56.871238 
L 140.912136 -58.806975 
L 140.122497 -60.81311 
L 139.332858 -62.864928 
L 138.543218 -64.952106 
L 137.753579 -67.066323 
L 136.963939 -69.186527 
L 136.1743 -71.274046 
L 135.38466 -73.282811 
L 134.595021 -75.179225 
L 133.805382 -76.959362 
L 133.015742 -78.65234 
L 132.226103 -80.30665 
L 131.436463 -81.965329 
L 130.646824 -83.640762 
L 129.857184 -85.299479 
L 129.067545 -86.86405 
L 128.277906 -88.234189 
L 127.488266 -89.321368 
L 126.698627 -90.082333 
L 125.908987 -90.534569 
L 125.119348 -90.746517 
L 124.329708 -90.811436 
L 123.540069 -90.822222 
L 122.75043 -90.857365 
L 121.96079 -90.973834 
L 121.171151 -91.197418 
L 120.381511 -91.510457 
L 119.591872 -91.849414 
L 118.802233 -92.124393 
L 118.012593 -92.257094 
L 117.222954 -92.216525 
L 116.433314 -92.02946 
L 115.643675 -91.758124 
L 114.854035 -91.458662 
L 114.064396 -91.144597 
L 113.274757 -90.775053 
L 112.485117 -90.27396 
L 111.695478 -89.571206 
L 110.905838 -88.644016 
L 110.116199 -87.533122 
L 109.326559 -86.321191 
L 108.53692 -85.086984 
L 107.747281 -83.868062 
L 106.957641 -82.658365 
L 106.168002 -81.437946 
L 105.378362 -80.206136 
L 104.588723 -78.989725 
L 103.799083 -77.822561 
L 103.009444 -76.717839 
L 102.219805 -75.656882 
L 101.430165 -74.599511 
L 100.640526 -73.502673 
L 99.850886 -72.332805 
L 99.061247 -71.069382 
L 98.271607 -69.705764 
L 97.481968 -68.251292 
L 96.692329 -66.732421 
L 95.902689 -65.189309 
L 95.11305 -63.667433 
L 94.32341 -62.20659 
L 93.533771 -60.830581 
L 92.744131 -59.541798 
L 91.954492 -58.324471 
L 91.164853 -57.15549 
L 90.375213 -56.015518 
L 89.585574 -54.892873 
L 88.795934 -53.780139 
L 88.006295 -52.670611 
L 87.216656 -51.560646 
L 86.427016 -50.456202 
L 85.637377 -49.37592 
L 84.847737 -48.345006 
L 84.058098 -47.382514 
L 83.268458 -46.49162 
L 82.478819 -45.661173 
L 81.68918 -44.877639 
L 80.89954 -44.137698 
L 80.109901 -43.451269 
L 79.320261 -42.832853 
L 78.530622 -42.288634 
L 77.740982 -41.809622 
L 76.951343 -41.375681 
L 76.161704 -40.966632 
L 75.372064 -40.572261 
L 74.582425 -40.195405 
L 73.792785 -39.84792 
L 73.003146 -39.54303 
L 72.213506 -39.288127 
L 71.423867 -39.081111 
L 70.634228 -38.911628 
L 69.844588 -38.766079 
L 69.054949 -38.633159 
L 68.265309 -38.506794 
L 67.47567 -38.385703 
L 66.68603 -38.271088 
L 65.896391 -38.164566 
L 65.106752 -38.067428 
L 64.317112 -37.981073 
L 63.527473 -37.907523 
L 62.737833 -37.848991 
L 61.948194 -37.80635 
L 61.158554 -37.777581 
L 60.368915 -37.75765 
L 59.579276 -37.740301 
L 58.789636 -37.72073 
L 57.999997 -37.697409 
L 57.210357 -37.672042 
L 56.420718 -37.648016 
L 55.631079 -37.628551 
L 54.841439 -37.615467 
L 54.0518 -37.608797 
L 53.26216 -37.606998 
L 52.472521 -37.607574 
L 51.682881 -37.60796 
L 50.893242 -37.606365 
L 50.103603 -37.60219 
L 49.313963 -37.595871 
L 48.524324 -37.588443 
L 47.734684 -37.581182 
L 46.945045 -37.575408 
L 46.155405 -37.572342 
L 45.365766 -37.572862 
L 44.576127 -37.577234 
L 43.786487 -37.584929 
L 42.996848 -37.594648 
L 42.207208 -37.604555 
L 41.417569 -37.612662 
L 40.627929 -37.617256 
L 39.83829 -37.617285 
L 39.048651 -37.612637 
L 38.259011 -37.604242 
L 37.469372 -37.593889 
L 36.679732 -37.583747 
L 35.890093 -37.575748 
L 35.100453 -37.571056 
L 34.310814 -37.569799 
L 33.521175 -37.57111 
L 32.731535 -37.573444 
L 31.941896 -37.575135 
L 31.152256 -37.575014 
L 30.362617 -37.572828 
L 29.572978 -37.569198 
L 28.783338 -37.565173 
L 27.993699 -37.561673 
L 27.204059 -37.559156 
L 26.41442 -37.557623 
L 25.62478 -37.556822 
L 24.835141 -37.55646 
z
" style="stroke: #808080"/>
    </defs>
    <g clip-path="url(#pc654d214ac)">
     <use xlink:href="#m2d5f418ee5" x="0" y="155.004375" style="fill: #808080; fill-opacity: 0.25; stroke: #808080"/>
    </g>
   </g>
   <g id="matplotlib.axis_1">
    <g id="xtick_1">
     <g id="line2d_1">
      <defs>
       <path id="me51d650d01" d="M 0 0 
L 0 3.5 
" style="stroke: #000000; stroke-width: 0.8"/>
      </defs>
      <g>
       <use xlink:href="#me51d650d01" x="90.751686" y="117.448125" style="stroke: #000000; stroke-width: 0.8"/>
      </g>
     </g>
     <g id="text_1">
      <!-- $\mathdefault{10^{3}}$ -->
      <g transform="translate(81.951686 132.046563)scale(0.1 -0.1)">
       <defs>
        <path id="DejaVuSans-31" d="M 794 531 
L 1825 531 
L 1825 4091 
L 703 3866 
L 703 4441 
L 1819 4666 
L 2450 4666 
L 2450 531 
L 3481 531 
L 3481 0 
L 794 0 
L 794 531 
z
" transform="scale(0.015625)"/>
        <path id="DejaVuSans-30" d="M 2034 4250 
Q 1547 4250 1301 3770 
Q 1056 3291 1056 2328 
Q 1056 1369 1301 889 
Q 1547 409 2034 409 
Q 2525 409 2770 889 
Q 3016 1369 3016 2328 
Q 3016 3291 2770 3770 
Q 2525 4250 2034 4250 
z
M 2034 4750 
Q 2819 4750 3233 4129 
Q 3647 3509 3647 2328 
Q 3647 1150 3233 529 
Q 2819 -91 2034 -91 
Q 1250 -91 836 529 
Q 422 1150 422 2328 
Q 422 3509 836 4129 
Q 1250 4750 2034 4750 
z
" transform="scale(0.015625)"/>
        <path id="DejaVuSans-33" d="M 2597 2516 
Q 3050 2419 3304 2112 
Q 3559 1806 3559 1356 
Q 3559 666 3084 287 
Q 2609 -91 1734 -91 
Q 1441 -91 1130 -33 
Q 819 25 488 141 
L 488 750 
Q 750 597 1062 519 
Q 1375 441 1716 441 
Q 2309 441 2620 675 
Q 2931 909 2931 1356 
Q 2931 1769 2642 2001 
Q 2353 2234 1838 2234 
L 1294 2234 
L 1294 2753 
L 1863 2753 
Q 2328 2753 2575 2939 
Q 2822 3125 2822 3475 
Q 2822 3834 2567 4026 
Q 2313 4219 1838 4219 
Q 1578 4219 1281 4162 
Q 984 4106 628 3988 
L 628 4550 
Q 988 4650 1302 4700 
Q 1616 4750 1894 4750 
Q 2613 4750 3031 4423 
Q 3450 4097 3450 3541 
Q 3450 3153 3228 2886 
Q 3006 2619 2597 2516 
z
" transform="scale(0.015625)"/>
       </defs>
       <use xlink:href="#DejaVuSans-31" transform="translate(0 0.765625)"/>
       <use xlink:href="#DejaVuSans-30" transform="translate(63.623047 0.765625)"/>
       <use xlink:href="#DejaVuSans-33" transform="translate(128.203125 39.046875)scale(0.7)"/>
      </g>
     </g>
    </g>
    <g id="xtick_2">
     <g id="line2d_2">
      <g>
       <use xlink:href="#me51d650d01" x="152.438062" y="117.448125" style="stroke: #000000; stroke-width: 0.8"/>
      </g>
     </g>
     <g id="text_2">
      <!-- $\mathdefault{10^{5}}$ -->
      <g transform="translate(143.638062 132.046563)scale(0.1 -0.1)">
       <defs>
        <path id="DejaVuSans-35" d="M 691 4666 
L 3169 4666 
L 3169 4134 
L 1269 4134 
L 1269 2991 
Q 1406 3038 1543 3061 
Q 1681 3084 1819 3084 
Q 2600 3084 3056 2656 
Q 3513 2228 3513 1497 
Q 3513 744 3044 326 
Q 2575 -91 1722 -91 
Q 1428 -91 1123 -41 
Q 819 9 494 109 
L 494 744 
Q 775 591 1075 516 
Q 1375 441 1709 441 
Q 2250 441 2565 725 
Q 2881 1009 2881 1497 
Q 2881 1984 2565 2268 
Q 2250 2553 1709 2553 
Q 1456 2553 1204 2497 
Q 953 2441 691 2322 
L 691 4666 
z
" transform="scale(0.015625)"/>
       </defs>
       <use xlink:href="#DejaVuSans-31" transform="translate(0 0.684375)"/>
       <use xlink:href="#DejaVuSans-30" transform="translate(63.623047 0.684375)"/>
       <use xlink:href="#DejaVuSans-35" transform="translate(128.203125 38.965625)scale(0.7)"/>
      </g>
     </g>
    </g>
    <g id="text_3">
     <!-- CellTrace FarRed-A -->
     <g transform="translate(62.183594 145.724688)scale(0.1 -0.1)">
      <defs>
       <path id="DejaVuSans-43" d="M 4122 4306 
L 4122 3641 
Q 3803 3938 3442 4084 
Q 3081 4231 2675 4231 
Q 1875 4231 1450 3742 
Q 1025 3253 1025 2328 
Q 1025 1406 1450 917 
Q 1875 428 2675 428 
Q 3081 428 3442 575 
Q 3803 722 4122 1019 
L 4122 359 
Q 3791 134 3420 21 
Q 3050 -91 2638 -91 
Q 1578 -91 968 557 
Q 359 1206 359 2328 
Q 359 3453 968 4101 
Q 1578 4750 2638 4750 
Q 3056 4750 3426 4639 
Q 3797 4528 4122 4306 
z
" transform="scale(0.015625)"/>
       <path id="DejaVuSans-65" d="M 3597 1894 
L 3597 1613 
L 953 1613 
Q 991 1019 1311 708 
Q 1631 397 2203 397 
Q 2534 397 2845 478 
Q 3156 559 3463 722 
L 3463 178 
Q 3153 47 2828 -22 
Q 2503 -91 2169 -91 
Q 1331 -91 842 396 
Q 353 884 353 1716 
Q 353 2575 817 3079 
Q 1281 3584 2069 3584 
Q 2775 3584 3186 3129 
Q 3597 2675 3597 1894 
z
M 3022 2063 
Q 3016 2534 2758 2815 
Q 2500 3097 2075 3097 
Q 1594 3097 1305 2825 
Q 1016 2553 972 2059 
L 3022 2063 
z
" transform="scale(0.015625)"/>
       <path id="DejaVuSans-6c" d="M 603 4863 
L 1178 4863 
L 1178 0 
L 603 0 
L 603 4863 
z
" transform="scale(0.015625)"/>
       <path id="DejaVuSans-54" d="M -19 4666 
L 3928 4666 
L 3928 4134 
L 2272 4134 
L 2272 0 
L 1638 0 
L 1638 4134 
L -19 4134 
L -19 4666 
z
" transform="scale(0.015625)"/>
       <path id="DejaVuSans-72" d="M 2631 2963 
Q 2534 3019 2420 3045 
Q 2306 3072 2169 3072 
Q 1681 3072 1420 2755 
Q 1159 2438 1159 1844 
L 1159 0 
L 581 0 
L 581 3500 
L 1159 3500 
L 1159 2956 
Q 1341 3275 1631 3429 
Q 1922 3584 2338 3584 
Q 2397 3584 2469 3576 
Q 2541 3569 2628 3553 
L 2631 2963 
z
" transform="scale(0.015625)"/>
       <path id="DejaVuSans-61" d="M 2194 1759 
Q 1497 1759 1228 1600 
Q 959 1441 959 1056 
Q 959 750 1161 570 
Q 1363 391 1709 391 
Q 2188 391 2477 730 
Q 2766 1069 2766 1631 
L 2766 1759 
L 2194 1759 
z
M 3341 1997 
L 3341 0 
L 2766 0 
L 2766 531 
Q 2569 213 2275 61 
Q 1981 -91 1556 -91 
Q 1019 -91 701 211 
Q 384 513 384 1019 
Q 384 1609 779 1909 
Q 1175 2209 1959 2209 
L 2766 2209 
L 2766 2266 
Q 2766 2663 2505 2880 
Q 2244 3097 1772 3097 
Q 1472 3097 1187 3025 
Q 903 2953 641 2809 
L 641 3341 
Q 956 3463 1253 3523 
Q 1550 3584 1831 3584 
Q 2591 3584 2966 3190 
Q 3341 2797 3341 1997 
z
" transform="scale(0.015625)"/>
       <path id="DejaVuSans-63" d="M 3122 3366 
L 3122 2828 
Q 2878 2963 2633 3030 
Q 2388 3097 2138 3097 
Q 1578 3097 1268 2742 
Q 959 2388 959 1747 
Q 959 1106 1268 751 
Q 1578 397 2138 397 
Q 2388 397 2633 464 
Q 2878 531 3122 666 
L 3122 134 
Q 2881 22 2623 -34 
Q 2366 -91 2075 -91 
Q 1284 -91 818 406 
Q 353 903 353 1747 
Q 353 2603 823 3093 
Q 1294 3584 2113 3584 
Q 2378 3584 2631 3529 
Q 2884 3475 3122 3366 
z
" transform="scale(0.015625)"/>
       <path id="DejaVuSans-2122" d="M 3431 4666 
L 3975 3866 
L 4488 4666 
L 5019 4666 
L 5019 2859 
L 4666 2859 
L 4666 4372 
L 4056 3425 
L 3884 3425 
L 3250 4372 
L 3250 2859 
L 2894 2859 
L 2894 4666 
L 3431 4666 
z
M 2541 4666 
L 2541 4372 
L 1906 4372 
L 1906 2859 
L 1550 2859 
L 1550 4372 
L 922 4372 
L 922 4666 
L 2541 4666 
z
" transform="scale(0.015625)"/>
       <path id="DejaVuSans-20" transform="scale(0.015625)"/>
       <path id="DejaVuSans-46" d="M 628 4666 
L 3309 4666 
L 3309 4134 
L 1259 4134 
L 1259 2759 
L 3109 2759 
L 3109 2228 
L 1259 2228 
L 1259 0 
L 628 0 
L 628 4666 
z
" transform="scale(0.015625)"/>
       <path id="DejaVuSans-52" d="M 2841 2188 
Q 3044 2119 3236 1894 
Q 3428 1669 3622 1275 
L 4263 0 
L 3584 0 
L 2988 1197 
Q 2756 1666 2539 1819 
Q 2322 1972 1947 1972 
L 1259 1972 
L 1259 0 
L 628 0 
L 628 4666 
L 2053 4666 
Q 2853 4666 3247 4331 
Q 3641 3997 3641 3322 
Q 3641 2881 3436 2590 
Q 3231 2300 2841 2188 
z
M 1259 4147 
L 1259 2491 
L 2053 2491 
Q 2509 2491 2742 2702 
Q 2975 2913 2975 3322 
Q 2975 3731 2742 3939 
Q 2509 4147 2053 4147 
L 1259 4147 
z
" transform="scale(0.015625)"/>
       <path id="DejaVuSans-64" d="M 2906 2969 
L 2906 4863 
L 3481 4863 
L 3481 0 
L 2906 0 
L 2906 525 
Q 2725 213 2448 61 
Q 2172 -91 1784 -91 
Q 1150 -91 751 415 
Q 353 922 353 1747 
Q 353 2572 751 3078 
Q 1150 3584 1784 3584 
Q 2172 3584 2448 3432 
Q 2725 3281 2906 2969 
z
M 947 1747 
Q 947 1113 1208 752 
Q 1469 391 1925 391 
Q 2381 391 2643 752 
Q 2906 1113 2906 1747 
Q 2906 2381 2643 2742 
Q 2381 3103 1925 3103 
Q 1469 3103 1208 2742 
Q 947 2381 947 1747 
z
" transform="scale(0.015625)"/>
       <path id="DejaVuSans-2d" d="M 313 2009 
L 1997 2009 
L 1997 1497 
L 313 1497 
L 313 2009 
z
" transform="scale(0.015625)"/>
       <path id="DejaVuSans-41" d="M 2188 4044 
L 1331 1722 
L 3047 1722 
L 2188 4044 
z
M 1831 4666 
L 2547 4666 
L 4325 0 
L 3669 0 
L 3244 1197 
L 1141 1197 
L 716 0 
L 50 0 
L 1831 4666 
z
" transform="scale(0.015625)"/>
      </defs>
      <use xlink:href="#DejaVuSans-43"/>
      <use xlink:href="#DejaVuSans-65" x="69.824219"/>
      <use xlink:href="#DejaVuSans-6c" x="131.347656"/>
      <use xlink:href="#DejaVuSans-6c" x="159.130859"/>
      <use xlink:href="#DejaVuSans-54" x="186.914062"/>
      <use xlink:href="#DejaVuSans-72" x="233.248047"/>
      <use xlink:href="#DejaVuSans-61" x="274.361328"/>
      <use xlink:href="#DejaVuSans-63" x="335.640625"/>
      <use xlink:href="#DejaVuSans-65" x="390.621094"/>
      <use xlink:href="#DejaVuSans-2122" x="452.144531"/>
      <use xlink:href="#DejaVuSans-20" x="552.144531"/>
      <use xlink:href="#DejaVuSans-46" x="583.931641"/>
      <use xlink:href="#DejaVuSans-61" x="632.326172"/>
      <use xlink:href="#DejaVuSans-72" x="693.605469"/>
      <use xlink:href="#DejaVuSans-52" x="734.71875"/>
      <use xlink:href="#DejaVuSans-65" x="799.701172"/>
      <use xlink:href="#DejaVuSans-64" x="861.224609"/>
      <use xlink:href="#DejaVuSans-2d" x="924.701172"/>
      <use xlink:href="#DejaVuSans-41" x="958.535156"/>
     </g>
    </g>
   </g>
   <g id="matplotlib.axis_2">
    <g id="ytick_1">
     <g id="line2d_3">
      <defs>
       <path id="m364c3b277d" d="M 0 0 
L -3.5 0 
" style="stroke: #000000; stroke-width: 0.8"/>
      </defs>
      <g>
       <use xlink:href="#m364c3b277d" x="43.78125" y="117.448125" style="stroke: #000000; stroke-width: 0.8"/>
      </g>
     </g>
     <g id="text_4">
      <!-- 0.0 -->
      <g transform="translate(20.878125 121.247344)scale(0.1 -0.1)">
       <defs>
        <path id="DejaVuSans-2e" d="M 684 794 
L 1344 794 
L 1344 0 
L 684 0 
L 684 794 
z
" transform="scale(0.015625)"/>
       </defs>
       <use xlink:href="#DejaVuSans-30"/>
       <use xlink:href="#DejaVuSans-2e" x="63.623047"/>
       <use xlink:href="#DejaVuSans-30" x="95.410156"/>
      </g>
     </g>
    </g>
    <g id="ytick_2">
     <g id="line2d_4">
      <g>
       <use xlink:href="#m364c3b277d" x="43.78125" y="78.079503" style="stroke: #000000; stroke-width: 0.8"/>
      </g>
     </g>
     <g id="text_5">
      <!-- 0.5 -->
      <g transform="translate(20.878125 81.878722)scale(0.1 -0.1)">
       <use xlink:href="#DejaVuSans-30"/>
       <use xlink:href="#DejaVuSans-2e" x="63.623047"/>
       <use xlink:href="#DejaVuSans-35" x="95.410156"/>
      </g>
     </g>
    </g>
    <g id="ytick_3">
     <g id="line2d_5">
      <g>
       <use xlink:href="#m364c3b277d" x="43.78125" y="38.710881" style="stroke: #000000; stroke-width: 0.8"/>
      </g>
     </g>
     <g id="text_6">
      <!-- 1.0 -->
      <g transform="translate(20.878125 42.5101)scale(0.1 -0.1)">
       <use xlink:href="#DejaVuSans-31"/>
       <use xlink:href="#DejaVuSans-2e" x="63.623047"/>
       <use xlink:href="#DejaVuSans-30" x="95.410156"/>
      </g>
     </g>
    </g>
    <g id="text_7">
     <!-- Density -->
     <g transform="translate(14.798438 88.891719)rotate(-90)scale(0.1 -0.1)">
      <defs>
       <path id="DejaVuSans-44" d="M 1259 4147 
L 1259 519 
L 2022 519 
Q 2988 519 3436 956 
Q 3884 1394 3884 2338 
Q 3884 3275 3436 3711 
Q 2988 4147 2022 4147 
L 1259 4147 
z
M 628 4666 
L 1925 4666 
Q 3281 4666 3915 4102 
Q 4550 3538 4550 2338 
Q 4550 1131 3912 565 
Q 3275 0 1925 0 
L 628 0 
L 628 4666 
z
" transform="scale(0.015625)"/>
       <path id="DejaVuSans-6e" d="M 3513 2113 
L 3513 0 
L 2938 0 
L 2938 2094 
Q 2938 2591 2744 2837 
Q 2550 3084 2163 3084 
Q 1697 3084 1428 2787 
Q 1159 2491 1159 1978 
L 1159 0 
L 581 0 
L 581 3500 
L 1159 3500 
L 1159 2956 
Q 1366 3272 1645 3428 
Q 1925 3584 2291 3584 
Q 2894 3584 3203 3211 
Q 3513 2838 3513 2113 
z
" transform="scale(0.015625)"/>
       <path id="DejaVuSans-73" d="M 2834 3397 
L 2834 2853 
Q 2591 2978 2328 3040 
Q 2066 3103 1784 3103 
Q 1356 3103 1142 2972 
Q 928 2841 928 2578 
Q 928 2378 1081 2264 
Q 1234 2150 1697 2047 
L 1894 2003 
Q 2506 1872 2764 1633 
Q 3022 1394 3022 966 
Q 3022 478 2636 193 
Q 2250 -91 1575 -91 
Q 1294 -91 989 -36 
Q 684 19 347 128 
L 347 722 
Q 666 556 975 473 
Q 1284 391 1588 391 
Q 1994 391 2212 530 
Q 2431 669 2431 922 
Q 2431 1156 2273 1281 
Q 2116 1406 1581 1522 
L 1381 1569 
Q 847 1681 609 1914 
Q 372 2147 372 2553 
Q 372 3047 722 3315 
Q 1072 3584 1716 3584 
Q 2034 3584 2315 3537 
Q 2597 3491 2834 3397 
z
" transform="scale(0.015625)"/>
       <path id="DejaVuSans-69" d="M 603 3500 
L 1178 3500 
L 1178 0 
L 603 0 
L 603 3500 
z
M 603 4863 
L 1178 4863 
L 1178 4134 
L 603 4134 
L 603 4863 
z
" transform="scale(0.015625)"/>
       <path id="DejaVuSans-74" d="M 1172 4494 
L 1172 3500 
L 2356 3500 
L 2356 3053 
L 1172 3053 
L 1172 1153 
Q 1172 725 1289 603 
Q 1406 481 1766 481 
L 2356 481 
L 2356 0 
L 1766 0 
Q 1100 0 847 248 
Q 594 497 594 1153 
L 594 3053 
L 172 3053 
L 172 3500 
L 594 3500 
L 594 4494 
L 1172 4494 
z
" transform="scale(0.015625)"/>
       <path id="DejaVuSans-79" d="M 2059 -325 
Q 1816 -950 1584 -1140 
Q 1353 -1331 966 -1331 
L 506 -1331 
L 506 -850 
L 844 -850 
Q 1081 -850 1212 -737 
Q 1344 -625 1503 -206 
L 1606 56 
L 191 3500 
L 800 3500 
L 1894 763 
L 2988 3500 
L 3597 3500 
L 2059 -325 
z
" transform="scale(0.015625)"/>
      </defs>
      <use xlink:href="#DejaVuSans-44"/>
      <use xlink:href="#DejaVuSans-65" x="77.001953"/>
      <use xlink:href="#DejaVuSans-6e" x="138.525391"/>
      <use xlink:href="#DejaVuSans-73" x="201.904297"/>
      <use xlink:href="#DejaVuSans-69" x="254.003906"/>
      <use xlink:href="#DejaVuSans-74" x="281.787109"/>
      <use xlink:href="#DejaVuSans-79" x="320.996094"/>
     </g>
    </g>
   </g>
   <g id="line2d_6">
    <path d="M -1 113.893536 
L -0.817754 113.989774 
L 1.049649 116.195628 
L 1.98335 116.886649 
L 2.917051 117.083263 
L 3.850753 116.791425 
L 4.784454 115.98052 
L 6.651857 113.595844 
L 7.585558 113.119392 
L 8.519259 113.523707 
L 9.452961 114.265508 
L 10.386662 114.536688 
L 11.320364 114.035085 
L 12.254065 113.198597 
L 13.187766 112.658839 
L 15.055169 112.424835 
L 15.98887 112.031179 
L 18.789974 110.494796 
L 22.52478 108.479005 
L 24.392183 107.238655 
L 25.325884 106.537354 
L 26.259585 105.694143 
L 27.193287 104.621472 
L 28.126988 103.294297 
L 31.861793 97.271072 
L 33.729196 94.834784 
L 34.662897 93.42532 
L 35.596599 91.716741 
L 39.331404 83.736599 
L 41.198807 79.364881 
L 43.06621 74.574278 
L 43.999911 71.904823 
L 45.867314 65.472737 
L 48.668418 54.280294 
L 51.469522 42.770751 
L 53.336925 36.190082 
L 54.270626 33.466932 
L 55.204327 31.094404 
L 56.138029 29.082457 
L 57.07173 27.575205 
L 58.005431 26.848125 
L 58.939133 27.21056 
L 59.872834 28.886991 
L 60.806536 31.93299 
L 61.740237 36.218516 
L 62.673938 41.482491 
L 64.541341 53.966454 
L 66.408744 68.498997 
L 69.209848 90.873797 
L 70.143549 97.151082 
L 71.07725 102.523593 
L 72.010952 106.950556 
L 72.944653 110.426183 
L 73.878355 112.990024 
L 74.812056 114.752639 
L 75.745757 115.880653 
L 76.679459 116.551763 
L 77.61316 116.921385 
L 79.480563 117.208932 
L 83.215368 117.350782 
L 100.021993 117.448125 
L 178.452907 117.447856 
L 178.452907 117.447856 
" clip-path="url(#pc654d214ac)" style="fill: none; stroke-dasharray: 5.55,2.4; stroke-dashoffset: 0; stroke: #808080; stroke-width: 1.5"/>
   </g>
   <g id="line2d_7">
    <path d="M 102.305597 117.448125 
L 102.305597 22.318125 
" clip-path="url(#pc654d214ac)" style="fill: none; stroke: #000000; stroke-width: 1.5; stroke-linecap: square"/>
   </g>
   <g id="patch_3">
    <path d="M 43.78125 117.448125 
L 43.78125 22.318125 
" style="fill: none; stroke: #000000; stroke-width: 0.8; stroke-linejoin: miter; stroke-linecap: square"/>
   </g>
   <g id="patch_4">
    <path d="M 183.28125 117.448125 
L 183.28125 22.318125 
" style="fill: none; stroke: #000000; stroke-width: 0.8; stroke-linejoin: miter; stroke-linecap: square"/>
   </g>
   <g id="patch_5">
    <path d="M 43.78125 117.448125 
L 183.28125 117.448125 
" style="fill: none; stroke: #000000; stroke-width: 0.8; stroke-linejoin: miter; stroke-linecap: square"/>
   </g>
   <g id="patch_6">
    <path d="M 43.78125 22.318125 
L 183.28125 22.318125 
" style="fill: none; stroke: #000000; stroke-width: 0.8; stroke-linejoin: miter; stroke-linecap: square"/>
   </g>
   <g id="text_8">
    <!-- Neg -->
    <g style="fill: #808080" transform="translate(70.059844 31.831125)scale(0.1 -0.1)">
     <defs>
      <path id="DejaVuSans-4e" d="M 628 4666 
L 1478 4666 
L 3547 763 
L 3547 4666 
L 4159 4666 
L 4159 0 
L 3309 0 
L 1241 3903 
L 1241 0 
L 628 0 
L 628 4666 
z
" transform="scale(0.015625)"/>
      <path id="DejaVuSans-67" d="M 2906 1791 
Q 2906 2416 2648 2759 
Q 2391 3103 1925 3103 
Q 1463 3103 1205 2759 
Q 947 2416 947 1791 
Q 947 1169 1205 825 
Q 1463 481 1925 481 
Q 2391 481 2648 825 
Q 2906 1169 2906 1791 
z
M 3481 434 
Q 3481 -459 3084 -895 
Q 2688 -1331 1869 -1331 
Q 1566 -1331 1297 -1286 
Q 1028 -1241 775 -1147 
L 775 -588 
Q 1028 -725 1275 -790 
Q 1522 -856 1778 -856 
Q 2344 -856 2625 -561 
Q 2906 -266 2906 331 
L 2906 616 
Q 2728 306 2450 153 
Q 2172 0 1784 0 
Q 1141 0 747 490 
Q 353 981 353 1791 
Q 353 2603 747 3093 
Q 1141 3584 1784 3584 
Q 2172 3584 2450 3431 
Q 2728 3278 2906 2969 
L 2906 3500 
L 3481 3500 
L 3481 434 
z
" transform="scale(0.015625)"/>
     </defs>
     <use xlink:href="#DejaVuSans-4e"/>
     <use xlink:href="#DejaVuSans-65" x="74.804688"/>
     <use xlink:href="#DejaVuSans-67" x="136.328125"/>
    </g>
   </g>
   <g id="text_9">
    <!-- 4 dpi -->
    <g transform="translate(98.521875 16.318125)scale(0.12 -0.12)">
     <defs>
      <path id="DejaVuSans-34" d="M 2419 4116 
L 825 1625 
L 2419 1625 
L 2419 4116 
z
M 2253 4666 
L 3047 4666 
L 3047 1625 
L 3713 1625 
L 3713 1100 
L 3047 1100 
L 3047 0 
L 2419 0 
L 2419 1100 
L 313 1100 
L 313 1709 
L 2253 4666 
z
" transform="scale(0.015625)"/>
      <path id="DejaVuSans-70" d="M 1159 525 
L 1159 -1331 
L 581 -1331 
L 581 3500 
L 1159 3500 
L 1159 2969 
Q 1341 3281 1617 3432 
Q 1894 3584 2278 3584 
Q 2916 3584 3314 3078 
Q 3713 2572 3713 1747 
Q 3713 922 3314 415 
Q 2916 -91 2278 -91 
Q 1894 -91 1617 61 
Q 1341 213 1159 525 
z
M 3116 1747 
Q 3116 2381 2855 2742 
Q 2594 3103 2138 3103 
Q 1681 3103 1420 2742 
Q 1159 2381 1159 1747 
Q 1159 1113 1420 752 
Q 1681 391 2138 391 
Q 2594 391 2855 752 
Q 3116 1113 3116 1747 
z
" transform="scale(0.015625)"/>
     </defs>
     <use xlink:href="#DejaVuSans-34"/>
     <use xlink:href="#DejaVuSans-20" x="63.623047"/>
     <use xlink:href="#DejaVuSans-64" x="95.410156"/>
     <use xlink:href="#DejaVuSans-70" x="158.886719"/>
     <use xlink:href="#DejaVuSans-69" x="222.363281"/>
    </g>
   </g>
   <g id="legend_1">
    <g id="patch_7">
     <path d="M 192.28125 38.916563 
L 212.28125 38.916563 
L 212.28125 31.916563 
L 192.28125 31.916563 
z
" style="fill: #808080; fill-opacity: 0.25; stroke: #808080; stroke-linejoin: miter"/>
    </g>
    <g id="text_10">
     <!-- Ctrl-puro -->
     <g transform="translate(220.28125 38.916563)scale(0.1 -0.1)">
      <defs>
       <path id="DejaVuSans-75" d="M 544 1381 
L 544 3500 
L 1119 3500 
L 1119 1403 
Q 1119 906 1312 657 
Q 1506 409 1894 409 
Q 2359 409 2629 706 
Q 2900 1003 2900 1516 
L 2900 3500 
L 3475 3500 
L 3475 0 
L 2900 0 
L 2900 538 
Q 2691 219 2414 64 
Q 2138 -91 1772 -91 
Q 1169 -91 856 284 
Q 544 659 544 1381 
z
M 1991 3584 
L 1991 3584 
z
" transform="scale(0.015625)"/>
       <path id="DejaVuSans-6f" d="M 1959 3097 
Q 1497 3097 1228 2736 
Q 959 2375 959 1747 
Q 959 1119 1226 758 
Q 1494 397 1959 397 
Q 2419 397 2687 759 
Q 2956 1122 2956 1747 
Q 2956 2369 2687 2733 
Q 2419 3097 1959 3097 
z
M 1959 3584 
Q 2709 3584 3137 3096 
Q 3566 2609 3566 1747 
Q 3566 888 3137 398 
Q 2709 -91 1959 -91 
Q 1206 -91 779 398 
Q 353 888 353 1747 
Q 353 2609 779 3096 
Q 1206 3584 1959 3584 
z
" transform="scale(0.015625)"/>
      </defs>
      <use xlink:href="#DejaVuSans-43"/>
      <use xlink:href="#DejaVuSans-74" x="69.824219"/>
      <use xlink:href="#DejaVuSans-72" x="109.033203"/>
      <use xlink:href="#DejaVuSans-6c" x="150.146484"/>
      <use xlink:href="#DejaVuSans-2d" x="177.929688"/>
      <use xlink:href="#DejaVuSans-70" x="214.013672"/>
      <use xlink:href="#DejaVuSans-75" x="277.490234"/>
      <use xlink:href="#DejaVuSans-72" x="340.869141"/>
      <use xlink:href="#DejaVuSans-6f" x="379.732422"/>
     </g>
    </g>
    <g id="patch_8">
     <path d="M 192.28125 53.594688 
L 212.28125 53.594688 
L 212.28125 46.594688 
L 192.28125 46.594688 
z
" style="fill: #ff7f50; fill-opacity: 0.25; stroke: #ff7f50; stroke-linejoin: miter"/>
    </g>
    <g id="text_11">
     <!-- 6F -->
     <g transform="translate(220.28125 53.594688)scale(0.1 -0.1)">
      <defs>
       <path id="DejaVuSans-36" d="M 2113 2584 
Q 1688 2584 1439 2293 
Q 1191 2003 1191 1497 
Q 1191 994 1439 701 
Q 1688 409 2113 409 
Q 2538 409 2786 701 
Q 3034 994 3034 1497 
Q 3034 2003 2786 2293 
Q 2538 2584 2113 2584 
z
M 3366 4563 
L 3366 3988 
Q 3128 4100 2886 4159 
Q 2644 4219 2406 4219 
Q 1781 4219 1451 3797 
Q 1122 3375 1075 2522 
Q 1259 2794 1537 2939 
Q 1816 3084 2150 3084 
Q 2853 3084 3261 2657 
Q 3669 2231 3669 1497 
Q 3669 778 3244 343 
Q 2819 -91 2113 -91 
Q 1303 -91 875 529 
Q 447 1150 447 2328 
Q 447 3434 972 4092 
Q 1497 4750 2381 4750 
Q 2619 4750 2861 4703 
Q 3103 4656 3366 4563 
z
" transform="scale(0.015625)"/>
      </defs>
      <use xlink:href="#DejaVuSans-36"/>
      <use xlink:href="#DejaVuSans-46" x="63.623047"/>
     </g>
    </g>
    <g id="patch_9">
     <path d="M 192.28125 68.272813 
L 212.28125 68.272813 
L 212.28125 61.272813 
L 192.28125 61.272813 
z
" style="fill: #008080; fill-opacity: 0.25; stroke: #008080; stroke-linejoin: miter"/>
    </g>
    <g id="text_12">
     <!-- 6F.DDRR -->
     <g transform="translate(220.28125 68.272813)scale(0.1 -0.1)">
      <use xlink:href="#DejaVuSans-36"/>
      <use xlink:href="#DejaVuSans-46" x="63.623047"/>
      <use xlink:href="#DejaVuSans-2e" x="105.017578"/>
      <use xlink:href="#DejaVuSans-44" x="136.804688"/>
      <use xlink:href="#DejaVuSans-44" x="213.806641"/>
      <use xlink:href="#DejaVuSans-52" x="290.808594"/>
      <use xlink:href="#DejaVuSans-52" x="360.291016"/>
     </g>
    </g>
    <g id="patch_10">
     <path d="M 192.28125 82.950938 
L 212.28125 82.950938 
L 212.28125 75.950938 
L 192.28125 75.950938 
z
" style="fill: #dc143c; fill-opacity: 0.25; stroke: #dc143c; stroke-linejoin: miter"/>
    </g>
    <g id="text_13">
     <!-- NIL -->
     <g transform="translate(220.28125 82.950938)scale(0.1 -0.1)">
      <defs>
       <path id="DejaVuSans-49" d="M 628 4666 
L 1259 4666 
L 1259 0 
L 628 0 
L 628 4666 
z
" transform="scale(0.015625)"/>
       <path id="DejaVuSans-4c" d="M 628 4666 
L 1259 4666 
L 1259 531 
L 3531 531 
L 3531 0 
L 628 0 
L 628 4666 
z
" transform="scale(0.015625)"/>
      </defs>
      <use xlink:href="#DejaVuSans-4e"/>
      <use xlink:href="#DejaVuSans-49" x="74.804688"/>
      <use xlink:href="#DejaVuSans-4c" x="104.296875"/>
     </g>
    </g>
    <g id="patch_11">
     <path d="M 192.28125 97.629063 
L 212.28125 97.629063 
L 212.28125 90.629063 
L 192.28125 90.629063 
z
" style="fill: #1e90ff; fill-opacity: 0.25; stroke: #1e90ff; stroke-linejoin: miter"/>
    </g>
    <g id="text_14">
     <!-- NIL.DDRR -->
     <g transform="translate(220.28125 97.629063)scale(0.1 -0.1)">
      <use xlink:href="#DejaVuSans-4e"/>
      <use xlink:href="#DejaVuSans-49" x="74.804688"/>
      <use xlink:href="#DejaVuSans-4c" x="104.296875"/>
      <use xlink:href="#DejaVuSans-2e" x="160.009766"/>
      <use xlink:href="#DejaVuSans-44" x="191.796875"/>
      <use xlink:href="#DejaVuSans-44" x="268.798828"/>
      <use xlink:href="#DejaVuSans-52" x="345.800781"/>
      <use xlink:href="#DejaVuSans-52" x="415.283203"/>
     </g>
    </g>
   </g>
  </g>
 </g>
 <defs>
  <clipPath id="pc654d214ac">
   <rect x="43.78125" y="22.318125" width="139.5" height="95.13"/>
  </clipPath>
 </defs>
</svg>
