<?xml version="1.0" encoding="utf-8" standalone="no"?>
<!DOCTYPE svg PUBLIC "-//W3C//DTD SVG 1.1//EN"
  "http://www.w3.org/Graphics/SVG/1.1/DTD/svg11.dtd">
<svg xmlns:xlink="http://www.w3.org/1999/xlink" width="517.916562pt" height="397.232188pt" viewBox="0 0 517.916562 397.232188" xmlns="http://www.w3.org/2000/svg" version="1.1">
 <metadata>
  <rdf:RDF xmlns:dc="http://purl.org/dc/elements/1.1/" xmlns:cc="http://creativecommons.org/ns#" xmlns:rdf="http://www.w3.org/1999/02/22-rdf-syntax-ns#">
   <cc:Work>
    <dc:type rdf:resource="http://purl.org/dc/dcmitype/StillImage"/>
    <dc:date>2025-01-25T16:24:13.728277</dc:date>
    <dc:format>image/svg+xml</dc:format>
    <dc:creator>
     <cc:Agent>
      <dc:title>Matplotlib v3.5.2, https://matplotlib.org/</dc:title>
     </cc:Agent>
    </dc:creator>
   </cc:Work>
  </rdf:RDF>
 </metadata>
 <defs>
  <style type="text/css">*{stroke-linejoin: round; stroke-linecap: butt}</style>
 </defs>
 <g id="figure_1">
  <g id="patch_1">
   <path d="M 0 397.232188 
L 517.916562 397.232188 
L 517.916562 0 
L 0 0 
L 0 397.232188 
z
" style="fill: none"/>
  </g>
  <g id="axes_1">
   <g id="patch_2">
    <path d="M 57.591563 348.478125 
L 392.391563 348.478125 
L 392.391563 22.318125 
L 57.591563 22.318125 
z
" style="fill: #ffffff"/>
   </g>
   <g id="PathCollection_1">
    <path d="M 92.870518 347.136802 
C 95.167244 347.136802 97.370212 346.224303 98.994243 344.600272 
C 100.618273 342.976242 101.530772 340.773274 101.530772 338.476548 
C 101.530772 336.179822 100.618273 333.976854 98.994243 332.352824 
C 97.370212 330.728793 95.167244 329.816294 92.870518 329.816294 
C 90.573792 329.816294 88.370824 330.728793 86.746794 332.352824 
C 85.122763 333.976854 84.210264 336.179822 84.210264 338.476548 
C 84.210264 340.773274 85.122763 342.976242 86.746794 344.600272 
C 88.370824 346.224303 90.573792 347.136802 92.870518 347.136802 
z
" clip-path="url(#pd1b2be21c8)" style="fill: #ff7f50; stroke: #ffffff; stroke-width: 1.385641"/>
    <path d="M 100.593223 344.026349 
L 104.92335 339.696222 
L 109.253477 344.026349 
L 113.583604 339.696222 
L 109.253477 335.366095 
L 113.583604 331.035968 
L 109.253477 326.705841 
L 104.92335 331.035968 
L 100.593223 326.705841 
L 96.263096 331.035968 
L 100.593223 335.366095 
L 96.263096 339.696222 
z
" clip-path="url(#pd1b2be21c8)" style="fill: #ff7f50; stroke: #ffffff; stroke-width: 1.385641"/>
    <path d="M 82.476578 333.492395 
L 82.476578 345.739844 
L 94.724027 345.739844 
L 94.724027 333.492395 
z
" clip-path="url(#pd1b2be21c8)" style="fill: #ff7f50; stroke: #ffffff; stroke-width: 1.385641"/>
    <path d="M 101.554172 345.667093 
L 107.327675 345.667093 
L 107.327675 339.89359 
L 113.101178 339.89359 
L 113.101178 334.120088 
L 107.327675 334.120088 
L 107.327675 328.346585 
L 101.554172 328.346585 
L 101.554172 334.120088 
L 95.78067 334.120088 
L 95.78067 339.89359 
L 101.554172 339.89359 
z
" clip-path="url(#pd1b2be21c8)" style="fill: #ff7f50; stroke: #ffffff; stroke-width: 1.385641"/>
    <path d="M 169.475244 324.234006 
C 171.77197 324.234006 173.974938 323.321507 175.598968 321.697476 
C 177.222999 320.073446 178.135498 317.870478 178.135498 315.573752 
C 178.135498 313.277026 177.222999 311.074058 175.598968 309.450027 
C 173.974938 307.825997 171.77197 306.913498 169.475244 306.913498 
C 167.178518 306.913498 164.97555 307.825997 163.35152 309.450027 
C 161.727489 311.074058 160.81499 313.277026 160.81499 315.573752 
C 160.81499 317.870478 161.727489 320.073446 163.35152 321.697476 
C 164.97555 323.321507 167.178518 324.234006 169.475244 324.234006 
z
" clip-path="url(#pd1b2be21c8)" style="fill: #008080; stroke: #ffffff; stroke-width: 1.385641"/>
    <path d="M 170.491637 306.01081 
L 174.821764 301.680683 
L 179.151891 306.01081 
L 183.482018 301.680683 
L 179.151891 297.350556 
L 183.482018 293.020429 
L 179.151891 288.690302 
L 174.821764 293.020429 
L 170.491637 288.690302 
L 166.16151 293.020429 
L 170.491637 297.350556 
L 166.16151 301.680683 
z
" clip-path="url(#pd1b2be21c8)" style="fill: #008080; stroke: #ffffff; stroke-width: 1.385641"/>
    <path d="M 136.327391 321.52988 
L 136.327391 333.777329 
L 148.57484 333.777329 
L 148.57484 321.52988 
z
" clip-path="url(#pd1b2be21c8)" style="fill: #008080; stroke: #ffffff; stroke-width: 1.385641"/>
    <path d="M 154.298526 334.219673 
L 160.072029 334.219673 
L 160.072029 328.44617 
L 165.845532 328.44617 
L 165.845532 322.672667 
L 160.072029 322.672667 
L 160.072029 316.899165 
L 154.298526 316.899165 
L 154.298526 322.672667 
L 148.525024 322.672667 
L 148.525024 328.44617 
L 154.298526 328.44617 
z
" clip-path="url(#pd1b2be21c8)" style="fill: #008080; stroke: #ffffff; stroke-width: 1.385641"/>
    <path d="M 133.903251 340.003046 
C 136.199977 340.003046 138.402945 339.090547 140.026975 337.466517 
C 141.651006 335.842486 142.563505 333.639519 142.563505 331.342792 
C 142.563505 329.046066 141.651006 326.843099 140.026975 325.219068 
C 138.402945 323.595037 136.199977 322.682538 133.903251 322.682538 
C 131.606525 322.682538 129.403557 323.595037 127.779526 325.219068 
C 126.155496 326.843099 125.242997 329.046066 125.242997 331.342792 
C 125.242997 333.639519 126.155496 335.842486 127.779526 337.466517 
C 129.403557 339.090547 131.606525 340.003046 133.903251 340.003046 
z
" clip-path="url(#pd1b2be21c8)" style="fill: #808080; stroke: #ffffff; stroke-width: 1.385641"/>
    <path d="M 128.764446 333.736399 
L 133.094573 329.406272 
L 137.4247 333.736399 
L 141.754827 329.406272 
L 137.4247 325.076145 
L 141.754827 320.746018 
L 137.4247 316.415891 
L 133.094573 320.746018 
L 128.764446 316.415891 
L 124.434319 320.746018 
L 128.764446 325.076145 
L 124.434319 329.406272 
z
" clip-path="url(#pd1b2be21c8)" style="fill: #808080; stroke: #ffffff; stroke-width: 1.385641"/>
    <path d="M 127.541364 322.233908 
L 127.541364 334.481357 
L 139.788812 334.481357 
L 139.788812 322.233908 
z
" clip-path="url(#pd1b2be21c8)" style="fill: #808080; stroke: #ffffff; stroke-width: 1.385641"/>
    <path d="M 130.790859 344.388307 
L 136.564362 344.388307 
L 136.564362 338.614805 
L 142.337865 338.614805 
L 142.337865 332.841302 
L 136.564362 332.841302 
L 136.564362 327.067799 
L 130.790859 327.067799 
L 130.790859 332.841302 
L 125.017357 332.841302 
L 125.017357 338.614805 
L 130.790859 338.614805 
z
" clip-path="url(#pd1b2be21c8)" style="fill: #808080; stroke: #ffffff; stroke-width: 1.385641"/>
    <path d="M 129.971809 341.116763 
C 132.268535 341.116763 134.471503 340.204264 136.095533 338.580234 
C 137.719564 336.956203 138.632063 334.753236 138.632063 332.456509 
C 138.632063 330.159783 137.719564 327.956816 136.095533 326.332785 
C 134.471503 324.708754 132.268535 323.796255 129.971809 323.796255 
C 127.675083 323.796255 125.472115 324.708754 123.848085 326.332785 
C 122.224054 327.956816 121.311555 330.159783 121.311555 332.456509 
C 121.311555 334.753236 122.224054 336.956203 123.848085 338.580234 
C 125.472115 340.204264 127.675083 341.116763 129.971809 341.116763 
z
" clip-path="url(#pd1b2be21c8)" style="fill: #dc143c; stroke: #ffffff; stroke-width: 1.385641"/>
    <path d="M 135.83097 336.105037 
L 140.161097 331.77491 
L 144.491224 336.105037 
L 148.821351 331.77491 
L 144.491224 327.444783 
L 148.821351 323.114656 
L 144.491224 318.784529 
L 140.161097 323.114656 
L 135.83097 318.784529 
L 131.500843 323.114656 
L 135.83097 327.444783 
L 131.500843 331.77491 
z
" clip-path="url(#pd1b2be21c8)" style="fill: #dc143c; stroke: #ffffff; stroke-width: 1.385641"/>
    <path d="M 118.016694 323.232276 
L 118.016694 335.479725 
L 130.264142 335.479725 
L 130.264142 323.232276 
z
" clip-path="url(#pd1b2be21c8)" style="fill: #dc143c; stroke: #ffffff; stroke-width: 1.385641"/>
    <path d="M 136.998738 339.73655 
L 142.772241 339.73655 
L 142.772241 333.963047 
L 148.545744 333.963047 
L 148.545744 328.189544 
L 142.772241 328.189544 
L 142.772241 322.416042 
L 136.998738 322.416042 
L 136.998738 328.189544 
L 131.225236 328.189544 
L 131.225236 333.963047 
L 136.998738 333.963047 
z
" clip-path="url(#pd1b2be21c8)" style="fill: #dc143c; stroke: #ffffff; stroke-width: 1.385641"/>
    <path d="M 252.089439 234.203902 
C 254.386165 234.203902 256.589133 233.291403 258.213163 231.667372 
C 259.837194 230.043342 260.749693 227.840374 260.749693 225.543648 
C 260.749693 223.246922 259.837194 221.043954 258.213163 219.419924 
C 256.589133 217.795893 254.386165 216.883394 252.089439 216.883394 
C 249.792713 216.883394 247.589745 217.795893 245.965715 219.419924 
C 244.341684 221.043954 243.429185 223.246922 243.429185 225.543648 
C 243.429185 227.840374 244.341684 230.043342 245.965715 231.667372 
C 247.589745 233.291403 249.792713 234.203902 252.089439 234.203902 
z
" clip-path="url(#pd1b2be21c8)" style="fill: #1e90ff; stroke: #ffffff; stroke-width: 1.385641"/>
    <path d="M 266.007144 132.099912 
L 270.337271 127.769785 
L 274.667398 132.099912 
L 278.997525 127.769785 
L 274.667398 123.439658 
L 278.997525 119.109531 
L 274.667398 114.779404 
L 270.337271 119.109531 
L 266.007144 114.779404 
L 261.677017 119.109531 
L 266.007144 123.439658 
L 261.677017 127.769785 
z
" clip-path="url(#pd1b2be21c8)" style="fill: #1e90ff; stroke: #ffffff; stroke-width: 1.385641"/>
    <path d="M 277.660699 58.251142 
L 277.660699 70.49859 
L 289.908148 70.49859 
L 289.908148 58.251142 
z
" clip-path="url(#pd1b2be21c8)" style="fill: #1e90ff; stroke: #ffffff; stroke-width: 1.385641"/>
    <path d="M 307.948908 135.015464 
L 313.72241 135.015464 
L 313.72241 129.241961 
L 319.495913 129.241961 
L 319.495913 123.468459 
L 313.72241 123.468459 
L 313.72241 117.694956 
L 307.948908 117.694956 
L 307.948908 123.468459 
L 302.175405 123.468459 
L 302.175405 129.241961 
L 307.948908 129.241961 
z
" clip-path="url(#pd1b2be21c8)" style="fill: #1e90ff; stroke: #ffffff; stroke-width: 1.385641"/>
   </g>
   <g id="PathCollection_2"/>
   <g id="PathCollection_3"/>
   <g id="PathCollection_4"/>
   <g id="PathCollection_5"/>
   <g id="PathCollection_6"/>
   <g id="PathCollection_7"/>
   <g id="PathCollection_8"/>
   <g id="PathCollection_9"/>
   <g id="PathCollection_10"/>
   <g id="PolyCollection_1">
    <path d="M 72.809744 331.90812 
L 72.809744 388.840607 
L 79.021247 383.186289 
L 85.23275 377.484734 
L 91.444253 371.498835 
L 97.655755 365.473557 
L 103.867258 359.661857 
L 110.078761 353.618588 
L 116.290264 347.612023 
L 122.501767 341.832707 
L 128.713269 336.078643 
L 134.924772 331.85184 
L 141.136275 330.478846 
L 147.347778 329.524984 
L 153.55928 328.447151 
L 159.770783 327.16514 
L 165.982286 325.753744 
L 172.193789 324.073045 
L 178.405292 322.141608 
L 184.616794 319.828904 
L 190.828297 317.065102 
L 197.0398 313.64997 
L 203.251303 309.49702 
L 209.462806 304.427909 
L 215.674308 298.129807 
L 221.885811 290.634254 
L 228.097314 281.810425 
L 234.308817 271.501263 
L 240.520319 258.250291 
L 246.731822 243.727561 
L 252.943325 235.008281 
L 259.154828 226.135597 
L 265.366331 216.626579 
L 271.577833 206.469808 
L 277.789336 195.713157 
L 284.000839 184.153154 
L 290.212342 171.868849 
L 296.423845 158.870583 
L 302.635347 145.088873 
L 308.84685 130.658963 
L 315.058353 114.971778 
L 321.269856 99.285421 
L 327.481358 84.019286 
L 333.692861 69.733664 
L 339.904364 56.482064 
L 346.115867 43.787246 
L 352.32737 31.364811 
L 358.538872 18.904269 
L 364.750375 6.423864 
L 370.961878 -5.937988 
L 377.173381 -18.27817 
L 377.173381 -7493.142004 
L 377.173381 -7493.142004 
L 370.961878 -6007.207036 
L 364.750375 -4803.099676 
L 358.538872 -3825.247499 
L 352.32737 -3031.837857 
L 346.115867 -2391.735003 
L 339.904364 -1872.892543 
L 333.692861 -1453.284359 
L 327.481358 -1113.401091 
L 321.269856 -837.744527 
L 315.058353 -615.353047 
L 308.84685 -434.926082 
L 302.635347 -288.67653 
L 296.423845 -170.247079 
L 290.212342 -74.439566 
L 284.000839 3.230471 
L 277.789336 65.748787 
L 271.577833 115.859336 
L 265.366331 139.725061 
L 259.154828 154.788216 
L 252.943325 165.505055 
L 246.731822 175.733647 
L 240.520319 185.68666 
L 234.308817 195.159649 
L 228.097314 204.544671 
L 221.885811 213.641111 
L 215.674308 222.510349 
L 209.462806 231.177827 
L 203.251303 239.69823 
L 197.0398 247.834746 
L 190.828297 256.147837 
L 184.616794 264.286845 
L 178.405292 272.209189 
L 172.193789 279.724839 
L 165.982286 286.817142 
L 159.770783 293.727803 
L 153.55928 300.442719 
L 147.347778 307.028091 
L 141.136275 313.334769 
L 134.924772 319.209066 
L 128.713269 324.709438 
L 122.501767 328.846955 
L 116.290264 330.212013 
L 110.078761 330.687783 
L 103.867258 331.039548 
L 97.655755 331.288627 
L 91.444253 331.471025 
L 85.23275 331.665152 
L 79.021247 331.805316 
L 72.809744 331.90812 
z
" clip-path="url(#pd1b2be21c8)" style="fill: #808080; fill-opacity: 0.1; stroke: #808080; stroke-opacity: 0.1"/>
   </g>
   <g id="matplotlib.axis_1">
    <g id="xtick_1">
     <g id="line2d_1">
      <defs>
       <path id="mde261d7826" d="M 0 0 
L 0 3.5 
" style="stroke: #000000; stroke-width: 0.8"/>
      </defs>
      <g>
       <use xlink:href="#mde261d7826" x="72.809744" y="348.478125" style="stroke: #000000; stroke-width: 0.8"/>
      </g>
     </g>
     <g id="text_1">
      <!-- 0 -->
      <g transform="translate(69.628494 363.076563)scale(0.1 -0.1)">
       <defs>
        <path id="DejaVuSans-30" d="M 2034 4250 
Q 1547 4250 1301 3770 
Q 1056 3291 1056 2328 
Q 1056 1369 1301 889 
Q 1547 409 2034 409 
Q 2525 409 2770 889 
Q 3016 1369 3016 2328 
Q 3016 3291 2770 3770 
Q 2525 4250 2034 4250 
z
M 2034 4750 
Q 2819 4750 3233 4129 
Q 3647 3509 3647 2328 
Q 3647 1150 3233 529 
Q 2819 -91 2034 -91 
Q 1250 -91 836 529 
Q 422 1150 422 2328 
Q 422 3509 836 4129 
Q 1250 4750 2034 4750 
z
" transform="scale(0.015625)"/>
       </defs>
       <use xlink:href="#DejaVuSans-30"/>
      </g>
     </g>
    </g>
    <g id="xtick_2">
     <g id="line2d_2">
      <g>
       <use xlink:href="#mde261d7826" x="133.682472" y="348.478125" style="stroke: #000000; stroke-width: 0.8"/>
      </g>
     </g>
     <g id="text_2">
      <!-- 20 -->
      <g transform="translate(127.319972 363.076563)scale(0.1 -0.1)">
       <defs>
        <path id="DejaVuSans-32" d="M 1228 531 
L 3431 531 
L 3431 0 
L 469 0 
L 469 531 
Q 828 903 1448 1529 
Q 2069 2156 2228 2338 
Q 2531 2678 2651 2914 
Q 2772 3150 2772 3378 
Q 2772 3750 2511 3984 
Q 2250 4219 1831 4219 
Q 1534 4219 1204 4116 
Q 875 4013 500 3803 
L 500 4441 
Q 881 4594 1212 4672 
Q 1544 4750 1819 4750 
Q 2544 4750 2975 4387 
Q 3406 4025 3406 3419 
Q 3406 3131 3298 2873 
Q 3191 2616 2906 2266 
Q 2828 2175 2409 1742 
Q 1991 1309 1228 531 
z
" transform="scale(0.015625)"/>
       </defs>
       <use xlink:href="#DejaVuSans-32"/>
       <use xlink:href="#DejaVuSans-30" x="63.623047"/>
      </g>
     </g>
    </g>
    <g id="xtick_3">
     <g id="line2d_3">
      <g>
       <use xlink:href="#mde261d7826" x="194.555199" y="348.478125" style="stroke: #000000; stroke-width: 0.8"/>
      </g>
     </g>
     <g id="text_3">
      <!-- 40 -->
      <g transform="translate(188.192699 363.076563)scale(0.1 -0.1)">
       <defs>
        <path id="DejaVuSans-34" d="M 2419 4116 
L 825 1625 
L 2419 1625 
L 2419 4116 
z
M 2253 4666 
L 3047 4666 
L 3047 1625 
L 3713 1625 
L 3713 1100 
L 3047 1100 
L 3047 0 
L 2419 0 
L 2419 1100 
L 313 1100 
L 313 1709 
L 2253 4666 
z
" transform="scale(0.015625)"/>
       </defs>
       <use xlink:href="#DejaVuSans-34"/>
       <use xlink:href="#DejaVuSans-30" x="63.623047"/>
      </g>
     </g>
    </g>
    <g id="xtick_4">
     <g id="line2d_4">
      <g>
       <use xlink:href="#mde261d7826" x="255.427926" y="348.478125" style="stroke: #000000; stroke-width: 0.8"/>
      </g>
     </g>
     <g id="text_4">
      <!-- 60 -->
      <g transform="translate(249.065426 363.076563)scale(0.1 -0.1)">
       <defs>
        <path id="DejaVuSans-36" d="M 2113 2584 
Q 1688 2584 1439 2293 
Q 1191 2003 1191 1497 
Q 1191 994 1439 701 
Q 1688 409 2113 409 
Q 2538 409 2786 701 
Q 3034 994 3034 1497 
Q 3034 2003 2786 2293 
Q 2538 2584 2113 2584 
z
M 3366 4563 
L 3366 3988 
Q 3128 4100 2886 4159 
Q 2644 4219 2406 4219 
Q 1781 4219 1451 3797 
Q 1122 3375 1075 2522 
Q 1259 2794 1537 2939 
Q 1816 3084 2150 3084 
Q 2853 3084 3261 2657 
Q 3669 2231 3669 1497 
Q 3669 778 3244 343 
Q 2819 -91 2113 -91 
Q 1303 -91 875 529 
Q 447 1150 447 2328 
Q 447 3434 972 4092 
Q 1497 4750 2381 4750 
Q 2619 4750 2861 4703 
Q 3103 4656 3366 4563 
z
" transform="scale(0.015625)"/>
       </defs>
       <use xlink:href="#DejaVuSans-36"/>
       <use xlink:href="#DejaVuSans-30" x="63.623047"/>
      </g>
     </g>
    </g>
    <g id="xtick_5">
     <g id="line2d_5">
      <g>
       <use xlink:href="#mde261d7826" x="316.300653" y="348.478125" style="stroke: #000000; stroke-width: 0.8"/>
      </g>
     </g>
     <g id="text_5">
      <!-- 80 -->
      <g transform="translate(309.938153 363.076563)scale(0.1 -0.1)">
       <defs>
        <path id="DejaVuSans-38" d="M 2034 2216 
Q 1584 2216 1326 1975 
Q 1069 1734 1069 1313 
Q 1069 891 1326 650 
Q 1584 409 2034 409 
Q 2484 409 2743 651 
Q 3003 894 3003 1313 
Q 3003 1734 2745 1975 
Q 2488 2216 2034 2216 
z
M 1403 2484 
Q 997 2584 770 2862 
Q 544 3141 544 3541 
Q 544 4100 942 4425 
Q 1341 4750 2034 4750 
Q 2731 4750 3128 4425 
Q 3525 4100 3525 3541 
Q 3525 3141 3298 2862 
Q 3072 2584 2669 2484 
Q 3125 2378 3379 2068 
Q 3634 1759 3634 1313 
Q 3634 634 3220 271 
Q 2806 -91 2034 -91 
Q 1263 -91 848 271 
Q 434 634 434 1313 
Q 434 1759 690 2068 
Q 947 2378 1403 2484 
z
M 1172 3481 
Q 1172 3119 1398 2916 
Q 1625 2713 2034 2713 
Q 2441 2713 2670 2916 
Q 2900 3119 2900 3481 
Q 2900 3844 2670 4047 
Q 2441 4250 2034 4250 
Q 1625 4250 1398 4047 
Q 1172 3844 1172 3481 
z
" transform="scale(0.015625)"/>
       </defs>
       <use xlink:href="#DejaVuSans-38"/>
       <use xlink:href="#DejaVuSans-30" x="63.623047"/>
      </g>
     </g>
    </g>
    <g id="xtick_6">
     <g id="line2d_6">
      <g>
       <use xlink:href="#mde261d7826" x="377.173381" y="348.478125" style="stroke: #000000; stroke-width: 0.8"/>
      </g>
     </g>
     <g id="text_6">
      <!-- 100 -->
      <g transform="translate(367.629631 363.076563)scale(0.1 -0.1)">
       <defs>
        <path id="DejaVuSans-31" d="M 794 531 
L 1825 531 
L 1825 4091 
L 703 3866 
L 703 4441 
L 1819 4666 
L 2450 4666 
L 2450 531 
L 3481 531 
L 3481 0 
L 794 0 
L 794 531 
z
" transform="scale(0.015625)"/>
       </defs>
       <use xlink:href="#DejaVuSans-31"/>
       <use xlink:href="#DejaVuSans-30" x="63.623047"/>
       <use xlink:href="#DejaVuSans-30" x="127.246094"/>
      </g>
     </g>
    </g>
    <g id="text_7">
     <!-- (%) HyperP -->
     <g transform="translate(196.709531 376.754687)scale(0.1 -0.1)">
      <defs>
       <path id="DejaVuSans-28" d="M 1984 4856 
Q 1566 4138 1362 3434 
Q 1159 2731 1159 2009 
Q 1159 1288 1364 580 
Q 1569 -128 1984 -844 
L 1484 -844 
Q 1016 -109 783 600 
Q 550 1309 550 2009 
Q 550 2706 781 3412 
Q 1013 4119 1484 4856 
L 1984 4856 
z
" transform="scale(0.015625)"/>
       <path id="DejaVuSans-25" d="M 4653 2053 
Q 4381 2053 4226 1822 
Q 4072 1591 4072 1178 
Q 4072 772 4226 539 
Q 4381 306 4653 306 
Q 4919 306 5073 539 
Q 5228 772 5228 1178 
Q 5228 1588 5073 1820 
Q 4919 2053 4653 2053 
z
M 4653 2450 
Q 5147 2450 5437 2106 
Q 5728 1763 5728 1178 
Q 5728 594 5436 251 
Q 5144 -91 4653 -91 
Q 4153 -91 3862 251 
Q 3572 594 3572 1178 
Q 3572 1766 3864 2108 
Q 4156 2450 4653 2450 
z
M 1428 4353 
Q 1159 4353 1004 4120 
Q 850 3888 850 3481 
Q 850 3069 1003 2837 
Q 1156 2606 1428 2606 
Q 1700 2606 1854 2837 
Q 2009 3069 2009 3481 
Q 2009 3884 1853 4118 
Q 1697 4353 1428 4353 
z
M 4250 4750 
L 4750 4750 
L 1831 -91 
L 1331 -91 
L 4250 4750 
z
M 1428 4750 
Q 1922 4750 2215 4408 
Q 2509 4066 2509 3481 
Q 2509 2891 2217 2550 
Q 1925 2209 1428 2209 
Q 931 2209 642 2551 
Q 353 2894 353 3481 
Q 353 4063 643 4406 
Q 934 4750 1428 4750 
z
" transform="scale(0.015625)"/>
       <path id="DejaVuSans-29" d="M 513 4856 
L 1013 4856 
Q 1481 4119 1714 3412 
Q 1947 2706 1947 2009 
Q 1947 1309 1714 600 
Q 1481 -109 1013 -844 
L 513 -844 
Q 928 -128 1133 580 
Q 1338 1288 1338 2009 
Q 1338 2731 1133 3434 
Q 928 4138 513 4856 
z
" transform="scale(0.015625)"/>
       <path id="DejaVuSans-20" transform="scale(0.015625)"/>
       <path id="DejaVuSans-48" d="M 628 4666 
L 1259 4666 
L 1259 2753 
L 3553 2753 
L 3553 4666 
L 4184 4666 
L 4184 0 
L 3553 0 
L 3553 2222 
L 1259 2222 
L 1259 0 
L 628 0 
L 628 4666 
z
" transform="scale(0.015625)"/>
       <path id="DejaVuSans-79" d="M 2059 -325 
Q 1816 -950 1584 -1140 
Q 1353 -1331 966 -1331 
L 506 -1331 
L 506 -850 
L 844 -850 
Q 1081 -850 1212 -737 
Q 1344 -625 1503 -206 
L 1606 56 
L 191 3500 
L 800 3500 
L 1894 763 
L 2988 3500 
L 3597 3500 
L 2059 -325 
z
" transform="scale(0.015625)"/>
       <path id="DejaVuSans-70" d="M 1159 525 
L 1159 -1331 
L 581 -1331 
L 581 3500 
L 1159 3500 
L 1159 2969 
Q 1341 3281 1617 3432 
Q 1894 3584 2278 3584 
Q 2916 3584 3314 3078 
Q 3713 2572 3713 1747 
Q 3713 922 3314 415 
Q 2916 -91 2278 -91 
Q 1894 -91 1617 61 
Q 1341 213 1159 525 
z
M 3116 1747 
Q 3116 2381 2855 2742 
Q 2594 3103 2138 3103 
Q 1681 3103 1420 2742 
Q 1159 2381 1159 1747 
Q 1159 1113 1420 752 
Q 1681 391 2138 391 
Q 2594 391 2855 752 
Q 3116 1113 3116 1747 
z
" transform="scale(0.015625)"/>
       <path id="DejaVuSans-65" d="M 3597 1894 
L 3597 1613 
L 953 1613 
Q 991 1019 1311 708 
Q 1631 397 2203 397 
Q 2534 397 2845 478 
Q 3156 559 3463 722 
L 3463 178 
Q 3153 47 2828 -22 
Q 2503 -91 2169 -91 
Q 1331 -91 842 396 
Q 353 884 353 1716 
Q 353 2575 817 3079 
Q 1281 3584 2069 3584 
Q 2775 3584 3186 3129 
Q 3597 2675 3597 1894 
z
M 3022 2063 
Q 3016 2534 2758 2815 
Q 2500 3097 2075 3097 
Q 1594 3097 1305 2825 
Q 1016 2553 972 2059 
L 3022 2063 
z
" transform="scale(0.015625)"/>
       <path id="DejaVuSans-72" d="M 2631 2963 
Q 2534 3019 2420 3045 
Q 2306 3072 2169 3072 
Q 1681 3072 1420 2755 
Q 1159 2438 1159 1844 
L 1159 0 
L 581 0 
L 581 3500 
L 1159 3500 
L 1159 2956 
Q 1341 3275 1631 3429 
Q 1922 3584 2338 3584 
Q 2397 3584 2469 3576 
Q 2541 3569 2628 3553 
L 2631 2963 
z
" transform="scale(0.015625)"/>
       <path id="DejaVuSans-50" d="M 1259 4147 
L 1259 2394 
L 2053 2394 
Q 2494 2394 2734 2622 
Q 2975 2850 2975 3272 
Q 2975 3691 2734 3919 
Q 2494 4147 2053 4147 
L 1259 4147 
z
M 628 4666 
L 2053 4666 
Q 2838 4666 3239 4311 
Q 3641 3956 3641 3272 
Q 3641 2581 3239 2228 
Q 2838 1875 2053 1875 
L 1259 1875 
L 1259 0 
L 628 0 
L 628 4666 
z
" transform="scale(0.015625)"/>
      </defs>
      <use xlink:href="#DejaVuSans-28"/>
      <use xlink:href="#DejaVuSans-25" x="39.013672"/>
      <use xlink:href="#DejaVuSans-29" x="134.033203"/>
      <use xlink:href="#DejaVuSans-20" x="173.046875"/>
      <use xlink:href="#DejaVuSans-48" x="204.833984"/>
      <use xlink:href="#DejaVuSans-79" x="280.029297"/>
      <use xlink:href="#DejaVuSans-70" x="339.208984"/>
      <use xlink:href="#DejaVuSans-65" x="402.685547"/>
      <use xlink:href="#DejaVuSans-72" x="464.208984"/>
      <use xlink:href="#DejaVuSans-50" x="505.322266"/>
     </g>
     <!-- at 4 dpi -->
     <g transform="translate(205.870469 387.9525)scale(0.1 -0.1)">
      <defs>
       <path id="DejaVuSans-61" d="M 2194 1759 
Q 1497 1759 1228 1600 
Q 959 1441 959 1056 
Q 959 750 1161 570 
Q 1363 391 1709 391 
Q 2188 391 2477 730 
Q 2766 1069 2766 1631 
L 2766 1759 
L 2194 1759 
z
M 3341 1997 
L 3341 0 
L 2766 0 
L 2766 531 
Q 2569 213 2275 61 
Q 1981 -91 1556 -91 
Q 1019 -91 701 211 
Q 384 513 384 1019 
Q 384 1609 779 1909 
Q 1175 2209 1959 2209 
L 2766 2209 
L 2766 2266 
Q 2766 2663 2505 2880 
Q 2244 3097 1772 3097 
Q 1472 3097 1187 3025 
Q 903 2953 641 2809 
L 641 3341 
Q 956 3463 1253 3523 
Q 1550 3584 1831 3584 
Q 2591 3584 2966 3190 
Q 3341 2797 3341 1997 
z
" transform="scale(0.015625)"/>
       <path id="DejaVuSans-74" d="M 1172 4494 
L 1172 3500 
L 2356 3500 
L 2356 3053 
L 1172 3053 
L 1172 1153 
Q 1172 725 1289 603 
Q 1406 481 1766 481 
L 2356 481 
L 2356 0 
L 1766 0 
Q 1100 0 847 248 
Q 594 497 594 1153 
L 594 3053 
L 172 3053 
L 172 3500 
L 594 3500 
L 594 4494 
L 1172 4494 
z
" transform="scale(0.015625)"/>
       <path id="DejaVuSans-64" d="M 2906 2969 
L 2906 4863 
L 3481 4863 
L 3481 0 
L 2906 0 
L 2906 525 
Q 2725 213 2448 61 
Q 2172 -91 1784 -91 
Q 1150 -91 751 415 
Q 353 922 353 1747 
Q 353 2572 751 3078 
Q 1150 3584 1784 3584 
Q 2172 3584 2448 3432 
Q 2725 3281 2906 2969 
z
M 947 1747 
Q 947 1113 1208 752 
Q 1469 391 1925 391 
Q 2381 391 2643 752 
Q 2906 1113 2906 1747 
Q 2906 2381 2643 2742 
Q 2381 3103 1925 3103 
Q 1469 3103 1208 2742 
Q 947 2381 947 1747 
z
" transform="scale(0.015625)"/>
       <path id="DejaVuSans-69" d="M 603 3500 
L 1178 3500 
L 1178 0 
L 603 0 
L 603 3500 
z
M 603 4863 
L 1178 4863 
L 1178 4134 
L 603 4134 
L 603 4863 
z
" transform="scale(0.015625)"/>
      </defs>
      <use xlink:href="#DejaVuSans-61"/>
      <use xlink:href="#DejaVuSans-74" x="61.279297"/>
      <use xlink:href="#DejaVuSans-20" x="100.488281"/>
      <use xlink:href="#DejaVuSans-34" x="132.275391"/>
      <use xlink:href="#DejaVuSans-20" x="195.898438"/>
      <use xlink:href="#DejaVuSans-64" x="227.685547"/>
      <use xlink:href="#DejaVuSans-70" x="291.162109"/>
      <use xlink:href="#DejaVuSans-69" x="354.638672"/>
     </g>
    </g>
   </g>
   <g id="matplotlib.axis_2">
    <g id="ytick_1">
     <g id="line2d_7">
      <defs>
       <path id="m4bb09d91eb" d="M 0 0 
L -3.5 0 
" style="stroke: #000000; stroke-width: 0.8"/>
      </defs>
      <g>
       <use xlink:href="#m4bb09d91eb" x="57.591563" y="340.523003" style="stroke: #000000; stroke-width: 0.8"/>
      </g>
     </g>
     <g id="text_8">
      <!-- 0 -->
      <g transform="translate(44.229062 344.322222)scale(0.1 -0.1)">
       <use xlink:href="#DejaVuSans-30"/>
      </g>
     </g>
    </g>
    <g id="ytick_2">
     <g id="line2d_8">
      <g>
       <use xlink:href="#m4bb09d91eb" x="57.591563" y="260.971784" style="stroke: #000000; stroke-width: 0.8"/>
      </g>
     </g>
     <g id="text_9">
      <!-- 10k -->
      <g transform="translate(32.075938 264.771002)scale(0.1 -0.1)">
       <defs>
        <path id="DejaVuSans-6b" d="M 581 4863 
L 1159 4863 
L 1159 1991 
L 2875 3500 
L 3609 3500 
L 1753 1863 
L 3688 0 
L 2938 0 
L 1159 1709 
L 1159 0 
L 581 0 
L 581 4863 
z
" transform="scale(0.015625)"/>
       </defs>
       <use xlink:href="#DejaVuSans-31"/>
       <use xlink:href="#DejaVuSans-30" x="63.623047"/>
       <use xlink:href="#DejaVuSans-6b" x="127.246094"/>
      </g>
     </g>
    </g>
    <g id="ytick_3">
     <g id="line2d_9">
      <g>
       <use xlink:href="#m4bb09d91eb" x="57.591563" y="181.420564" style="stroke: #000000; stroke-width: 0.8"/>
      </g>
     </g>
     <g id="text_10">
      <!-- 20k -->
      <g transform="translate(32.075938 185.219783)scale(0.1 -0.1)">
       <use xlink:href="#DejaVuSans-32"/>
       <use xlink:href="#DejaVuSans-30" x="63.623047"/>
       <use xlink:href="#DejaVuSans-6b" x="127.246094"/>
      </g>
     </g>
    </g>
    <g id="ytick_4">
     <g id="line2d_10">
      <g>
       <use xlink:href="#m4bb09d91eb" x="57.591563" y="101.869345" style="stroke: #000000; stroke-width: 0.8"/>
      </g>
     </g>
     <g id="text_11">
      <!-- 30k -->
      <g transform="translate(32.075938 105.668563)scale(0.1 -0.1)">
       <defs>
        <path id="DejaVuSans-33" d="M 2597 2516 
Q 3050 2419 3304 2112 
Q 3559 1806 3559 1356 
Q 3559 666 3084 287 
Q 2609 -91 1734 -91 
Q 1441 -91 1130 -33 
Q 819 25 488 141 
L 488 750 
Q 750 597 1062 519 
Q 1375 441 1716 441 
Q 2309 441 2620 675 
Q 2931 909 2931 1356 
Q 2931 1769 2642 2001 
Q 2353 2234 1838 2234 
L 1294 2234 
L 1294 2753 
L 1863 2753 
Q 2328 2753 2575 2939 
Q 2822 3125 2822 3475 
Q 2822 3834 2567 4026 
Q 2313 4219 1838 4219 
Q 1578 4219 1281 4162 
Q 984 4106 628 3988 
L 628 4550 
Q 988 4650 1302 4700 
Q 1616 4750 1894 4750 
Q 2613 4750 3031 4423 
Q 3450 4097 3450 3541 
Q 3450 3153 3228 2886 
Q 3006 2619 2597 2516 
z
" transform="scale(0.015625)"/>
       </defs>
       <use xlink:href="#DejaVuSans-33"/>
       <use xlink:href="#DejaVuSans-30" x="63.623047"/>
       <use xlink:href="#DejaVuSans-6b" x="127.246094"/>
      </g>
     </g>
    </g>
    <g id="ytick_5">
     <g id="line2d_11">
      <g>
       <use xlink:href="#m4bb09d91eb" x="57.591563" y="22.318125" style="stroke: #000000; stroke-width: 0.8"/>
      </g>
     </g>
     <g id="text_12">
      <!-- 40k -->
      <g transform="translate(32.075938 26.117344)scale(0.1 -0.1)">
       <use xlink:href="#DejaVuSans-34"/>
       <use xlink:href="#DejaVuSans-30" x="63.623047"/>
       <use xlink:href="#DejaVuSans-6b" x="127.246094"/>
      </g>
     </g>
    </g>
    <g id="text_13">
     <!-- (#) Total hyperP -->
     <g transform="translate(14.798438 225.793438)rotate(-90)scale(0.1 -0.1)">
      <defs>
       <path id="DejaVuSans-23" d="M 3272 2816 
L 2363 2816 
L 2100 1772 
L 3016 1772 
L 3272 2816 
z
M 2803 4594 
L 2478 3297 
L 3391 3297 
L 3719 4594 
L 4219 4594 
L 3897 3297 
L 4872 3297 
L 4872 2816 
L 3775 2816 
L 3519 1772 
L 4513 1772 
L 4513 1294 
L 3397 1294 
L 3072 0 
L 2572 0 
L 2894 1294 
L 1978 1294 
L 1656 0 
L 1153 0 
L 1478 1294 
L 494 1294 
L 494 1772 
L 1594 1772 
L 1856 2816 
L 850 2816 
L 850 3297 
L 1978 3297 
L 2297 4594 
L 2803 4594 
z
" transform="scale(0.015625)"/>
       <path id="DejaVuSans-54" d="M -19 4666 
L 3928 4666 
L 3928 4134 
L 2272 4134 
L 2272 0 
L 1638 0 
L 1638 4134 
L -19 4134 
L -19 4666 
z
" transform="scale(0.015625)"/>
       <path id="DejaVuSans-6f" d="M 1959 3097 
Q 1497 3097 1228 2736 
Q 959 2375 959 1747 
Q 959 1119 1226 758 
Q 1494 397 1959 397 
Q 2419 397 2687 759 
Q 2956 1122 2956 1747 
Q 2956 2369 2687 2733 
Q 2419 3097 1959 3097 
z
M 1959 3584 
Q 2709 3584 3137 3096 
Q 3566 2609 3566 1747 
Q 3566 888 3137 398 
Q 2709 -91 1959 -91 
Q 1206 -91 779 398 
Q 353 888 353 1747 
Q 353 2609 779 3096 
Q 1206 3584 1959 3584 
z
" transform="scale(0.015625)"/>
       <path id="DejaVuSans-6c" d="M 603 4863 
L 1178 4863 
L 1178 0 
L 603 0 
L 603 4863 
z
" transform="scale(0.015625)"/>
       <path id="DejaVuSans-68" d="M 3513 2113 
L 3513 0 
L 2938 0 
L 2938 2094 
Q 2938 2591 2744 2837 
Q 2550 3084 2163 3084 
Q 1697 3084 1428 2787 
Q 1159 2491 1159 1978 
L 1159 0 
L 581 0 
L 581 4863 
L 1159 4863 
L 1159 2956 
Q 1366 3272 1645 3428 
Q 1925 3584 2291 3584 
Q 2894 3584 3203 3211 
Q 3513 2838 3513 2113 
z
" transform="scale(0.015625)"/>
      </defs>
      <use xlink:href="#DejaVuSans-28"/>
      <use xlink:href="#DejaVuSans-23" x="39.013672"/>
      <use xlink:href="#DejaVuSans-29" x="122.802734"/>
      <use xlink:href="#DejaVuSans-20" x="161.816406"/>
      <use xlink:href="#DejaVuSans-54" x="193.603516"/>
      <use xlink:href="#DejaVuSans-6f" x="237.6875"/>
      <use xlink:href="#DejaVuSans-74" x="298.869141"/>
      <use xlink:href="#DejaVuSans-61" x="338.078125"/>
      <use xlink:href="#DejaVuSans-6c" x="399.357422"/>
      <use xlink:href="#DejaVuSans-20" x="427.140625"/>
      <use xlink:href="#DejaVuSans-68" x="458.927734"/>
      <use xlink:href="#DejaVuSans-79" x="522.306641"/>
      <use xlink:href="#DejaVuSans-70" x="581.486328"/>
      <use xlink:href="#DejaVuSans-65" x="644.962891"/>
      <use xlink:href="#DejaVuSans-72" x="706.486328"/>
      <use xlink:href="#DejaVuSans-50" x="747.599609"/>
     </g>
     <!-- at 4 dpi -->
     <g transform="translate(25.99625 204.519219)rotate(-90)scale(0.1 -0.1)">
      <use xlink:href="#DejaVuSans-61"/>
      <use xlink:href="#DejaVuSans-74" x="61.279297"/>
      <use xlink:href="#DejaVuSans-20" x="100.488281"/>
      <use xlink:href="#DejaVuSans-34" x="132.275391"/>
      <use xlink:href="#DejaVuSans-20" x="195.898438"/>
      <use xlink:href="#DejaVuSans-64" x="227.685547"/>
      <use xlink:href="#DejaVuSans-70" x="291.162109"/>
      <use xlink:href="#DejaVuSans-69" x="354.638672"/>
     </g>
    </g>
   </g>
   <g id="LineCollection_1">
    <path d="M 89.832777 338.476548 
L 95.908259 338.476548 
" clip-path="url(#pd1b2be21c8)" style="fill: none; stroke: #000000; stroke-width: 0.5"/>
    <path d="M 103.392756 335.366095 
L 106.453943 335.366095 
" clip-path="url(#pd1b2be21c8)" style="fill: none; stroke: #000000; stroke-width: 0.5"/>
    <path d="M 87.103463 339.616119 
L 90.097142 339.616119 
" clip-path="url(#pd1b2be21c8)" style="fill: none; stroke: #000000; stroke-width: 0.5"/>
    <path d="M 102.169552 337.006839 
L 106.712295 337.006839 
" clip-path="url(#pd1b2be21c8)" style="fill: none; stroke: #000000; stroke-width: 0.5"/>
    <path d="M 162.281851 315.573752 
L 176.668637 315.573752 
" clip-path="url(#pd1b2be21c8)" style="fill: none; stroke: #000000; stroke-width: 0.5"/>
    <path d="M 171.418131 297.350556 
L 178.225396 297.350556 
" clip-path="url(#pd1b2be21c8)" style="fill: none; stroke: #000000; stroke-width: 0.5"/>
    <path d="M 138.428141 327.653605 
L 146.47409 327.653605 
" clip-path="url(#pd1b2be21c8)" style="fill: none; stroke: #000000; stroke-width: 0.5"/>
    <path d="M 152.683824 325.559419 
L 161.686731 325.559419 
" clip-path="url(#pd1b2be21c8)" style="fill: none; stroke: #000000; stroke-width: 0.5"/>
    <path d="M 132.032539 331.342792 
L 135.773963 331.342792 
" clip-path="url(#pd1b2be21c8)" style="fill: none; stroke: #000000; stroke-width: 0.5"/>
    <path d="M 128.179874 325.076145 
L 138.009272 325.076145 
" clip-path="url(#pd1b2be21c8)" style="fill: none; stroke: #000000; stroke-width: 0.5"/>
    <path d="M 131.722901 328.357633 
L 135.607275 328.357633 
" clip-path="url(#pd1b2be21c8)" style="fill: none; stroke: #000000; stroke-width: 0.5"/>
    <path d="M 130.37776 335.728053 
L 136.977461 335.728053 
" clip-path="url(#pd1b2be21c8)" style="fill: none; stroke: #000000; stroke-width: 0.5"/>
    <path d="M 127.765071 332.456509 
L 132.178547 332.456509 
" clip-path="url(#pd1b2be21c8)" style="fill: none; stroke: #000000; stroke-width: 0.5"/>
    <path d="M 125.801264 327.444783 
L 154.52093 327.444783 
" clip-path="url(#pd1b2be21c8)" style="fill: none; stroke: #000000; stroke-width: 0.5"/>
    <path d="M 122.70303 329.356001 
L 125.577806 329.356001 
" clip-path="url(#pd1b2be21c8)" style="fill: none; stroke: #000000; stroke-width: 0.5"/>
    <path d="M 132.107373 331.076296 
L 147.663607 331.076296 
" clip-path="url(#pd1b2be21c8)" style="fill: none; stroke: #000000; stroke-width: 0.5"/>
    <path d="M 243.073118 225.543648 
L 261.105761 225.543648 
" clip-path="url(#pd1b2be21c8)" style="fill: none; stroke: #000000; stroke-width: 0.5"/>
    <path d="M 268.492459 123.439658 
L 272.182083 123.439658 
" clip-path="url(#pd1b2be21c8)" style="fill: none; stroke: #000000; stroke-width: 0.5"/>
    <path d="M 280.907613 64.374866 
L 286.661234 64.374866 
" clip-path="url(#pd1b2be21c8)" style="fill: none; stroke: #000000; stroke-width: 0.5"/>
    <path d="M 309.5793 126.35521 
L 312.092018 126.35521 
" clip-path="url(#pd1b2be21c8)" style="fill: none; stroke: #000000; stroke-width: 0.5"/>
   </g>
   <g id="LineCollection_2">
    <path d="M 92.870518 338.709869 
L 92.870518 338.243227 
" clip-path="url(#pd1b2be21c8)" style="fill: none; stroke: #000000; stroke-width: 0.5"/>
    <path d="M 104.92335 335.614714 
L 104.92335 335.117476 
" clip-path="url(#pd1b2be21c8)" style="fill: none; stroke: #000000; stroke-width: 0.5"/>
    <path d="M 88.600303 339.771295 
L 88.600303 339.460943 
" clip-path="url(#pd1b2be21c8)" style="fill: none; stroke: #000000; stroke-width: 0.5"/>
    <path d="M 104.440924 337.483051 
L 104.440924 336.530627 
" clip-path="url(#pd1b2be21c8)" style="fill: none; stroke: #000000; stroke-width: 0.5"/>
    <path d="M 169.475244 316.146819 
L 169.475244 315.000685 
" clip-path="url(#pd1b2be21c8)" style="fill: none; stroke: #000000; stroke-width: 0.5"/>
    <path d="M 174.821764 307.327814 
L 174.821764 287.373298 
" clip-path="url(#pd1b2be21c8)" style="fill: none; stroke: #000000; stroke-width: 0.5"/>
    <path d="M 142.451116 328.780733 
L 142.451116 326.526476 
" clip-path="url(#pd1b2be21c8)" style="fill: none; stroke: #000000; stroke-width: 0.5"/>
    <path d="M 157.185278 326.217846 
L 157.185278 324.900991 
" clip-path="url(#pd1b2be21c8)" style="fill: none; stroke: #000000; stroke-width: 0.5"/>
    <path d="M 133.903251 332.995152 
L 133.903251 329.690433 
" clip-path="url(#pd1b2be21c8)" style="fill: none; stroke: #000000; stroke-width: 0.5"/>
    <path d="M 133.094573 327.475966 
L 133.094573 322.676324 
" clip-path="url(#pd1b2be21c8)" style="fill: none; stroke: #000000; stroke-width: 0.5"/>
    <path d="M 133.665088 329.213276 
L 133.665088 327.501989 
" clip-path="url(#pd1b2be21c8)" style="fill: none; stroke: #000000; stroke-width: 0.5"/>
    <path d="M 133.677611 337.290303 
L 133.677611 334.165804 
" clip-path="url(#pd1b2be21c8)" style="fill: none; stroke: #000000; stroke-width: 0.5"/>
    <path d="M 129.971809 333.86026 
L 129.971809 331.052759 
" clip-path="url(#pd1b2be21c8)" style="fill: none; stroke: #000000; stroke-width: 0.5"/>
    <path d="M 140.161097 329.700372 
L 140.161097 325.189193 
" clip-path="url(#pd1b2be21c8)" style="fill: none; stroke: #000000; stroke-width: 0.5"/>
    <path d="M 124.140418 330.070497 
L 124.140418 328.641504 
" clip-path="url(#pd1b2be21c8)" style="fill: none; stroke: #000000; stroke-width: 0.5"/>
    <path d="M 139.88549 332.493902 
L 139.88549 329.658689 
" clip-path="url(#pd1b2be21c8)" style="fill: none; stroke: #000000; stroke-width: 0.5"/>
    <path d="M 252.089439 242.578777 
L 252.089439 208.508519 
" clip-path="url(#pd1b2be21c8)" style="fill: none; stroke: #000000; stroke-width: 0.5"/>
    <path d="M 270.337271 133.429501 
L 270.337271 113.449814 
" clip-path="url(#pd1b2be21c8)" style="fill: none; stroke: #000000; stroke-width: 0.5"/>
    <path d="M 283.784424 93.562873 
L 283.784424 35.186859 
" clip-path="url(#pd1b2be21c8)" style="fill: none; stroke: #000000; stroke-width: 0.5"/>
    <path d="M 310.835659 132.961426 
L 310.835659 119.748994 
" clip-path="url(#pd1b2be21c8)" style="fill: none; stroke: #000000; stroke-width: 0.5"/>
   </g>
   <g id="line2d_12">
    <path d="M 72.809744 363.064395 
L 81.363218 358.847786 
L 89.703616 354.489547 
L 97.861377 349.977159 
L 105.866941 345.295095 
L 113.689869 340.46314 
L 121.360599 335.465128 
L 128.909572 330.281361 
L 136.336788 324.910847 
L 143.642246 319.353022 
L 150.825946 313.607778 
L 157.887888 307.675487 
L 164.858513 301.529535 
L 171.737819 295.167327 
L 178.525807 288.586563 
L 185.222477 281.78525 
L 191.858267 274.728619 
L 198.433179 267.410773 
L 204.947213 259.825881 
L 211.369928 252.006076 
L 217.762203 243.871613 
L 224.0936 235.453167 
L 230.364118 226.745287 
L 236.604196 217.697565 
L 242.783396 208.345996 
L 248.932157 198.636284 
L 255.050477 188.557075 
L 261.138359 178.096764 
L 267.195801 167.243493 
L 273.222804 155.985147 
L 279.219367 144.309358 
L 285.185491 132.203501 
L 291.121175 119.654699 
L 297.026421 106.649817 
L 302.931666 93.104219 
L 308.806471 79.069633 
L 314.681277 64.454588 
L 320.525643 49.315534 
L 326.370009 33.553651 
L 332.183936 17.230512 
L 337.997863 0.239398 
L 338.412966 -1 
L 338.412966 -1 
" clip-path="url(#pd1b2be21c8)" style="fill: none; stroke-dasharray: 5.55,2.4; stroke-dashoffset: 0; stroke: #808080; stroke-width: 1.5"/>
   </g>
   <g id="line2d_13">
    <path d="M 92.870518 338.476548 
L 104.92335 335.366095 
L 88.600303 339.616119 
L 104.440924 337.006839 
L 169.475244 315.573752 
L 174.821764 297.350556 
L 142.451116 327.653605 
L 157.185278 325.559419 
L 133.903251 331.342792 
L 133.094573 325.076145 
L 133.665088 328.357633 
L 133.677611 335.728053 
L 129.971809 332.456509 
L 140.161097 327.444783 
L 124.140418 329.356001 
L 139.88549 331.076296 
L 252.089439 225.543648 
L 270.337271 123.439658 
L 283.784424 64.374866 
L 310.835659 126.35521 
" clip-path="url(#pd1b2be21c8)" style="fill: none; stroke: #000000; stroke-opacity: 0; stroke-width: 1.5; stroke-linecap: square"/>
   </g>
   <g id="patch_3">
    <path d="M 57.591563 348.478125 
L 57.591563 22.318125 
" style="fill: none; stroke: #000000; stroke-width: 0.8; stroke-linejoin: miter; stroke-linecap: square"/>
   </g>
   <g id="patch_4">
    <path d="M 392.391563 348.478125 
L 392.391563 22.318125 
" style="fill: none; stroke: #000000; stroke-width: 0.8; stroke-linejoin: miter; stroke-linecap: square"/>
   </g>
   <g id="patch_5">
    <path d="M 57.591563 348.478125 
L 392.391562 348.478125 
" style="fill: none; stroke: #000000; stroke-width: 0.8; stroke-linejoin: miter; stroke-linecap: square"/>
   </g>
   <g id="patch_6">
    <path d="M 57.591563 22.318125 
L 392.391562 22.318125 
" style="fill: none; stroke: #000000; stroke-width: 0.8; stroke-linejoin: miter; stroke-linecap: square"/>
   </g>
   <g id="text_14">
    <!-- R$^2$ = 0.91 -->
    <g style="fill: #808080" transform="translate(100.151563 54.934125)scale(0.1 -0.1)">
     <defs>
      <path id="DejaVuSans-52" d="M 2841 2188 
Q 3044 2119 3236 1894 
Q 3428 1669 3622 1275 
L 4263 0 
L 3584 0 
L 2988 1197 
Q 2756 1666 2539 1819 
Q 2322 1972 1947 1972 
L 1259 1972 
L 1259 0 
L 628 0 
L 628 4666 
L 2053 4666 
Q 2853 4666 3247 4331 
Q 3641 3997 3641 3322 
Q 3641 2881 3436 2590 
Q 3231 2300 2841 2188 
z
M 1259 4147 
L 1259 2491 
L 2053 2491 
Q 2509 2491 2742 2702 
Q 2975 2913 2975 3322 
Q 2975 3731 2742 3939 
Q 2509 4147 2053 4147 
L 1259 4147 
z
" transform="scale(0.015625)"/>
      <path id="DejaVuSans-3d" d="M 678 2906 
L 4684 2906 
L 4684 2381 
L 678 2381 
L 678 2906 
z
M 678 1631 
L 4684 1631 
L 4684 1100 
L 678 1100 
L 678 1631 
z
" transform="scale(0.015625)"/>
      <path id="DejaVuSans-2e" d="M 684 794 
L 1344 794 
L 1344 0 
L 684 0 
L 684 794 
z
" transform="scale(0.015625)"/>
      <path id="DejaVuSans-39" d="M 703 97 
L 703 672 
Q 941 559 1184 500 
Q 1428 441 1663 441 
Q 2288 441 2617 861 
Q 2947 1281 2994 2138 
Q 2813 1869 2534 1725 
Q 2256 1581 1919 1581 
Q 1219 1581 811 2004 
Q 403 2428 403 3163 
Q 403 3881 828 4315 
Q 1253 4750 1959 4750 
Q 2769 4750 3195 4129 
Q 3622 3509 3622 2328 
Q 3622 1225 3098 567 
Q 2575 -91 1691 -91 
Q 1453 -91 1209 -44 
Q 966 3 703 97 
z
M 1959 2075 
Q 2384 2075 2632 2365 
Q 2881 2656 2881 3163 
Q 2881 3666 2632 3958 
Q 2384 4250 1959 4250 
Q 1534 4250 1286 3958 
Q 1038 3666 1038 3163 
Q 1038 2656 1286 2365 
Q 1534 2075 1959 2075 
z
" transform="scale(0.015625)"/>
     </defs>
     <use xlink:href="#DejaVuSans-52" transform="translate(0 0.765625)"/>
     <use xlink:href="#DejaVuSans-32" transform="translate(70.439453 39.046875)scale(0.7)"/>
     <use xlink:href="#DejaVuSans-20" transform="translate(117.709961 0.765625)"/>
     <use xlink:href="#DejaVuSans-3d" transform="translate(149.49707 0.765625)"/>
     <use xlink:href="#DejaVuSans-20" transform="translate(233.286133 0.765625)"/>
     <use xlink:href="#DejaVuSans-30" transform="translate(265.073242 0.765625)"/>
     <use xlink:href="#DejaVuSans-2e" transform="translate(328.696289 0.765625)"/>
     <use xlink:href="#DejaVuSans-39" transform="translate(360.483398 0.765625)"/>
     <use xlink:href="#DejaVuSans-31" transform="translate(424.106445 0.765625)"/>
    </g>
   </g>
   <g id="text_15">
    <!-- 4 dpi -->
    <g transform="translate(209.982188 16.318125)scale(0.12 -0.12)">
     <use xlink:href="#DejaVuSans-34"/>
     <use xlink:href="#DejaVuSans-20" x="63.623047"/>
     <use xlink:href="#DejaVuSans-64" x="95.410156"/>
     <use xlink:href="#DejaVuSans-70" x="158.886719"/>
     <use xlink:href="#DejaVuSans-69" x="222.363281"/>
    </g>
   </g>
   <g id="legend_1">
    <g id="text_16">
     <!-- cond.DDRR_cat -->
     <g transform="translate(429.391563 38.916562)scale(0.1 -0.1)">
      <defs>
       <path id="DejaVuSans-63" d="M 3122 3366 
L 3122 2828 
Q 2878 2963 2633 3030 
Q 2388 3097 2138 3097 
Q 1578 3097 1268 2742 
Q 959 2388 959 1747 
Q 959 1106 1268 751 
Q 1578 397 2138 397 
Q 2388 397 2633 464 
Q 2878 531 3122 666 
L 3122 134 
Q 2881 22 2623 -34 
Q 2366 -91 2075 -91 
Q 1284 -91 818 406 
Q 353 903 353 1747 
Q 353 2603 823 3093 
Q 1294 3584 2113 3584 
Q 2378 3584 2631 3529 
Q 2884 3475 3122 3366 
z
" transform="scale(0.015625)"/>
       <path id="DejaVuSans-6e" d="M 3513 2113 
L 3513 0 
L 2938 0 
L 2938 2094 
Q 2938 2591 2744 2837 
Q 2550 3084 2163 3084 
Q 1697 3084 1428 2787 
Q 1159 2491 1159 1978 
L 1159 0 
L 581 0 
L 581 3500 
L 1159 3500 
L 1159 2956 
Q 1366 3272 1645 3428 
Q 1925 3584 2291 3584 
Q 2894 3584 3203 3211 
Q 3513 2838 3513 2113 
z
" transform="scale(0.015625)"/>
       <path id="DejaVuSans-44" d="M 1259 4147 
L 1259 519 
L 2022 519 
Q 2988 519 3436 956 
Q 3884 1394 3884 2338 
Q 3884 3275 3436 3711 
Q 2988 4147 2022 4147 
L 1259 4147 
z
M 628 4666 
L 1925 4666 
Q 3281 4666 3915 4102 
Q 4550 3538 4550 2338 
Q 4550 1131 3912 565 
Q 3275 0 1925 0 
L 628 0 
L 628 4666 
z
" transform="scale(0.015625)"/>
       <path id="DejaVuSans-5f" d="M 3263 -1063 
L 3263 -1509 
L -63 -1509 
L -63 -1063 
L 3263 -1063 
z
" transform="scale(0.015625)"/>
      </defs>
      <use xlink:href="#DejaVuSans-63"/>
      <use xlink:href="#DejaVuSans-6f" x="54.980469"/>
      <use xlink:href="#DejaVuSans-6e" x="116.162109"/>
      <use xlink:href="#DejaVuSans-64" x="179.541016"/>
      <use xlink:href="#DejaVuSans-2e" x="243.017578"/>
      <use xlink:href="#DejaVuSans-44" x="274.804688"/>
      <use xlink:href="#DejaVuSans-44" x="351.806641"/>
      <use xlink:href="#DejaVuSans-52" x="428.808594"/>
      <use xlink:href="#DejaVuSans-52" x="498.291016"/>
      <use xlink:href="#DejaVuSans-5f" x="567.773438"/>
      <use xlink:href="#DejaVuSans-63" x="617.773438"/>
      <use xlink:href="#DejaVuSans-61" x="672.753906"/>
      <use xlink:href="#DejaVuSans-74" x="734.033203"/>
     </g>
    </g>
    <g id="PathCollection_11">
     <defs>
      <path id="m02b6b56166" d="M 0 3 
C 0.795609 3 1.55874 2.683901 2.12132 2.12132 
C 2.683901 1.55874 3 0.795609 3 0 
C 3 -0.795609 2.683901 -1.55874 2.12132 -2.12132 
C 1.55874 -2.683901 0.795609 -3 0 -3 
C -0.795609 -3 -1.55874 -2.683901 -2.12132 -2.12132 
C -2.683901 -1.55874 -3 -0.795609 -3 0 
C -3 0.795609 -2.683901 1.55874 -2.12132 2.12132 
C -1.55874 2.683901 -0.795609 3 0 3 
z
" style="stroke: #808080"/>
     </defs>
     <g>
      <use xlink:href="#m02b6b56166" x="411.391563" y="51.247813" style="fill: #808080; stroke: #808080"/>
     </g>
    </g>
    <g id="text_17">
     <!-- Ctrl-puro -->
     <g transform="translate(429.391563 53.872813)scale(0.1 -0.1)">
      <defs>
       <path id="DejaVuSans-43" d="M 4122 4306 
L 4122 3641 
Q 3803 3938 3442 4084 
Q 3081 4231 2675 4231 
Q 1875 4231 1450 3742 
Q 1025 3253 1025 2328 
Q 1025 1406 1450 917 
Q 1875 428 2675 428 
Q 3081 428 3442 575 
Q 3803 722 4122 1019 
L 4122 359 
Q 3791 134 3420 21 
Q 3050 -91 2638 -91 
Q 1578 -91 968 557 
Q 359 1206 359 2328 
Q 359 3453 968 4101 
Q 1578 4750 2638 4750 
Q 3056 4750 3426 4639 
Q 3797 4528 4122 4306 
z
" transform="scale(0.015625)"/>
       <path id="DejaVuSans-2d" d="M 313 2009 
L 1997 2009 
L 1997 1497 
L 313 1497 
L 313 2009 
z
" transform="scale(0.015625)"/>
       <path id="DejaVuSans-75" d="M 544 1381 
L 544 3500 
L 1119 3500 
L 1119 1403 
Q 1119 906 1312 657 
Q 1506 409 1894 409 
Q 2359 409 2629 706 
Q 2900 1003 2900 1516 
L 2900 3500 
L 3475 3500 
L 3475 0 
L 2900 0 
L 2900 538 
Q 2691 219 2414 64 
Q 2138 -91 1772 -91 
Q 1169 -91 856 284 
Q 544 659 544 1381 
z
M 1991 3584 
L 1991 3584 
z
" transform="scale(0.015625)"/>
      </defs>
      <use xlink:href="#DejaVuSans-43"/>
      <use xlink:href="#DejaVuSans-74" x="69.824219"/>
      <use xlink:href="#DejaVuSans-72" x="109.033203"/>
      <use xlink:href="#DejaVuSans-6c" x="150.146484"/>
      <use xlink:href="#DejaVuSans-2d" x="177.929688"/>
      <use xlink:href="#DejaVuSans-70" x="214.013672"/>
      <use xlink:href="#DejaVuSans-75" x="277.490234"/>
      <use xlink:href="#DejaVuSans-72" x="340.869141"/>
      <use xlink:href="#DejaVuSans-6f" x="379.732422"/>
     </g>
    </g>
    <g id="PathCollection_12">
     <defs>
      <path id="m189e7ed7dc" d="M 0 3 
C 0.795609 3 1.55874 2.683901 2.12132 2.12132 
C 2.683901 1.55874 3 0.795609 3 0 
C 3 -0.795609 2.683901 -1.55874 2.12132 -2.12132 
C 1.55874 -2.683901 0.795609 -3 0 -3 
C -0.795609 -3 -1.55874 -2.683901 -2.12132 -2.12132 
C -2.683901 -1.55874 -3 -0.795609 -3 0 
C -3 0.795609 -2.683901 1.55874 -2.12132 2.12132 
C -1.55874 2.683901 -0.795609 3 0 3 
z
" style="stroke: #ff7f50"/>
     </defs>
     <g>
      <use xlink:href="#m189e7ed7dc" x="411.391563" y="65.925938" style="fill: #ff7f50; stroke: #ff7f50"/>
     </g>
    </g>
    <g id="text_18">
     <!-- 6F -->
     <g transform="translate(429.391563 68.550938)scale(0.1 -0.1)">
      <defs>
       <path id="DejaVuSans-46" d="M 628 4666 
L 3309 4666 
L 3309 4134 
L 1259 4134 
L 1259 2759 
L 3109 2759 
L 3109 2228 
L 1259 2228 
L 1259 0 
L 628 0 
L 628 4666 
z
" transform="scale(0.015625)"/>
      </defs>
      <use xlink:href="#DejaVuSans-36"/>
      <use xlink:href="#DejaVuSans-46" x="63.623047"/>
     </g>
    </g>
    <g id="PathCollection_13">
     <defs>
      <path id="meecc26a0c0" d="M 0 3 
C 0.795609 3 1.55874 2.683901 2.12132 2.12132 
C 2.683901 1.55874 3 0.795609 3 0 
C 3 -0.795609 2.683901 -1.55874 2.12132 -2.12132 
C 1.55874 -2.683901 0.795609 -3 0 -3 
C -0.795609 -3 -1.55874 -2.683901 -2.12132 -2.12132 
C -2.683901 -1.55874 -3 -0.795609 -3 0 
C -3 0.795609 -2.683901 1.55874 -2.12132 2.12132 
C -1.55874 2.683901 -0.795609 3 0 3 
z
" style="stroke: #dc143c"/>
     </defs>
     <g>
      <use xlink:href="#meecc26a0c0" x="411.391563" y="80.604062" style="fill: #dc143c; stroke: #dc143c"/>
     </g>
    </g>
    <g id="text_19">
     <!-- NIL -->
     <g transform="translate(429.391563 83.229062)scale(0.1 -0.1)">
      <defs>
       <path id="DejaVuSans-4e" d="M 628 4666 
L 1478 4666 
L 3547 763 
L 3547 4666 
L 4159 4666 
L 4159 0 
L 3309 0 
L 1241 3903 
L 1241 0 
L 628 0 
L 628 4666 
z
" transform="scale(0.015625)"/>
       <path id="DejaVuSans-49" d="M 628 4666 
L 1259 4666 
L 1259 0 
L 628 0 
L 628 4666 
z
" transform="scale(0.015625)"/>
       <path id="DejaVuSans-4c" d="M 628 4666 
L 1259 4666 
L 1259 531 
L 3531 531 
L 3531 0 
L 628 0 
L 628 4666 
z
" transform="scale(0.015625)"/>
      </defs>
      <use xlink:href="#DejaVuSans-4e"/>
      <use xlink:href="#DejaVuSans-49" x="74.804688"/>
      <use xlink:href="#DejaVuSans-4c" x="104.296875"/>
     </g>
    </g>
    <g id="PathCollection_14">
     <defs>
      <path id="m14b0a88d3e" d="M 0 3 
C 0.795609 3 1.55874 2.683901 2.12132 2.12132 
C 2.683901 1.55874 3 0.795609 3 0 
C 3 -0.795609 2.683901 -1.55874 2.12132 -2.12132 
C 1.55874 -2.683901 0.795609 -3 0 -3 
C -0.795609 -3 -1.55874 -2.683901 -2.12132 -2.12132 
C -2.683901 -1.55874 -3 -0.795609 -3 0 
C -3 0.795609 -2.683901 1.55874 -2.12132 2.12132 
C -1.55874 2.683901 -0.795609 3 0 3 
z
" style="stroke: #008080"/>
     </defs>
     <g>
      <use xlink:href="#m14b0a88d3e" x="411.391563" y="95.282188" style="fill: #008080; stroke: #008080"/>
     </g>
    </g>
    <g id="text_20">
     <!-- 6F.DDRR -->
     <g transform="translate(429.391563 97.907188)scale(0.1 -0.1)">
      <use xlink:href="#DejaVuSans-36"/>
      <use xlink:href="#DejaVuSans-46" x="63.623047"/>
      <use xlink:href="#DejaVuSans-2e" x="105.017578"/>
      <use xlink:href="#DejaVuSans-44" x="136.804688"/>
      <use xlink:href="#DejaVuSans-44" x="213.806641"/>
      <use xlink:href="#DejaVuSans-52" x="290.808594"/>
      <use xlink:href="#DejaVuSans-52" x="360.291016"/>
     </g>
    </g>
    <g id="PathCollection_15">
     <defs>
      <path id="m13dc7fdf69" d="M 0 3 
C 0.795609 3 1.55874 2.683901 2.12132 2.12132 
C 2.683901 1.55874 3 0.795609 3 0 
C 3 -0.795609 2.683901 -1.55874 2.12132 -2.12132 
C 1.55874 -2.683901 0.795609 -3 0 -3 
C -0.795609 -3 -1.55874 -2.683901 -2.12132 -2.12132 
C -2.683901 -1.55874 -3 -0.795609 -3 0 
C -3 0.795609 -2.683901 1.55874 -2.12132 2.12132 
C -1.55874 2.683901 -0.795609 3 0 3 
z
" style="stroke: #1e90ff"/>
     </defs>
     <g>
      <use xlink:href="#m13dc7fdf69" x="411.391563" y="109.960312" style="fill: #1e90ff; stroke: #1e90ff"/>
     </g>
    </g>
    <g id="text_21">
     <!-- NIL.DDRR -->
     <g transform="translate(429.391563 112.585312)scale(0.1 -0.1)">
      <use xlink:href="#DejaVuSans-4e"/>
      <use xlink:href="#DejaVuSans-49" x="74.804688"/>
      <use xlink:href="#DejaVuSans-4c" x="104.296875"/>
      <use xlink:href="#DejaVuSans-2e" x="160.009766"/>
      <use xlink:href="#DejaVuSans-44" x="191.796875"/>
      <use xlink:href="#DejaVuSans-44" x="268.798828"/>
      <use xlink:href="#DejaVuSans-52" x="345.800781"/>
      <use xlink:href="#DejaVuSans-52" x="415.283203"/>
     </g>
    </g>
    <g id="text_22">
     <!-- rep -->
     <g transform="translate(429.391563 127.263438)scale(0.1 -0.1)">
      <use xlink:href="#DejaVuSans-72"/>
      <use xlink:href="#DejaVuSans-65" x="38.863281"/>
      <use xlink:href="#DejaVuSans-70" x="100.386719"/>
     </g>
    </g>
    <g id="PathCollection_16">
     <defs>
      <path id="m7c52a60a9e" d="M 0 3 
C 0.795609 3 1.55874 2.683901 2.12132 2.12132 
C 2.683901 1.55874 3 0.795609 3 0 
C 3 -0.795609 2.683901 -1.55874 2.12132 -2.12132 
C 1.55874 -2.683901 0.795609 -3 0 -3 
C -0.795609 -3 -1.55874 -2.683901 -2.12132 -2.12132 
C -2.683901 -1.55874 -3 -0.795609 -3 0 
C -3 0.795609 -2.683901 1.55874 -2.12132 2.12132 
C -1.55874 2.683901 -0.795609 3 0 3 
z
" style="stroke: #333333"/>
     </defs>
     <g>
      <use xlink:href="#m7c52a60a9e" x="411.391563" y="139.316563" style="fill: #333333; stroke: #333333"/>
     </g>
    </g>
    <g id="text_23">
     <!-- 1 -->
     <g transform="translate(429.391563 141.941563)scale(0.1 -0.1)">
      <use xlink:href="#DejaVuSans-31"/>
     </g>
    </g>
    <g id="PathCollection_17">
     <defs>
      <path id="m0d29492412" d="M -1.5 3 
L 0 1.5 
L 1.5 3 
L 3 1.5 
L 1.5 0 
L 3 -1.5 
L 1.5 -3 
L 0 -1.5 
L -1.5 -3 
L -3 -1.5 
L -1.5 0 
L -3 1.5 
z
" style="stroke: #333333"/>
     </defs>
     <g>
      <use xlink:href="#m0d29492412" x="411.391563" y="153.994687" style="fill: #333333; stroke: #333333"/>
     </g>
    </g>
    <g id="text_24">
     <!-- 2 -->
     <g transform="translate(429.391563 156.619687)scale(0.1 -0.1)">
      <use xlink:href="#DejaVuSans-32"/>
     </g>
    </g>
    <g id="PathCollection_18">
     <defs>
      <path id="mc7856c8dfc" d="M -2.12132 -2.12132 
L -2.12132 2.12132 
L 2.12132 2.12132 
L 2.12132 -2.12132 
z
" style="stroke: #333333"/>
     </defs>
     <g>
      <use xlink:href="#mc7856c8dfc" x="411.391563" y="168.672812" style="fill: #333333; stroke: #333333"/>
     </g>
    </g>
    <g id="text_25">
     <!-- 3 -->
     <g transform="translate(429.391563 171.297812)scale(0.1 -0.1)">
      <use xlink:href="#DejaVuSans-33"/>
     </g>
    </g>
    <g id="PathCollection_19">
     <defs>
      <path id="mfe8c37264c" d="M -1 3 
L 1 3 
L 1 1 
L 3 1 
L 3 -1 
L 1 -1 
L 1 -3 
L -1 -3 
L -1 -1 
L -3 -1 
L -3 1 
L -1 1 
z
" style="stroke: #333333"/>
     </defs>
     <g>
      <use xlink:href="#mfe8c37264c" x="411.391563" y="183.350937" style="fill: #333333; stroke: #333333"/>
     </g>
    </g>
    <g id="text_26">
     <!-- 4 -->
     <g transform="translate(429.391563 185.975937)scale(0.1 -0.1)">
      <use xlink:href="#DejaVuSans-34"/>
     </g>
    </g>
   </g>
  </g>
 </g>
 <defs>
  <clipPath id="pd1b2be21c8">
   <rect x="57.591563" y="22.318125" width="334.8" height="326.16"/>
  </clipPath>
 </defs>
</svg>
