<?xml version="1.0" encoding="utf-8" standalone="no"?>
<!DOCTYPE svg PUBLIC "-//W3C//DTD SVG 1.1//EN"
  "http://www.w3.org/Graphics/SVG/1.1/DTD/svg11.dtd">
<svg xmlns:xlink="http://www.w3.org/1999/xlink" width="338.78125pt" height="232.67625pt" viewBox="0 0 338.78125 232.67625" xmlns="http://www.w3.org/2000/svg" version="1.1">
 <metadata>
  <rdf:RDF xmlns:dc="http://purl.org/dc/elements/1.1/" xmlns:cc="http://creativecommons.org/ns#" xmlns:rdf="http://www.w3.org/1999/02/22-rdf-syntax-ns#">
   <cc:Work>
    <dc:type rdf:resource="http://purl.org/dc/dcmitype/StillImage"/>
    <dc:date>2025-01-25T15:23:27.382894</dc:date>
    <dc:format>image/svg+xml</dc:format>
    <dc:creator>
     <cc:Agent>
      <dc:title>Matplotlib v3.10.0, https://matplotlib.org/</dc:title>
     </cc:Agent>
    </dc:creator>
   </cc:Work>
  </rdf:RDF>
 </metadata>
 <defs>
  <style type="text/css">*{stroke-linejoin: round; stroke-linecap: butt}</style>
 </defs>
 <g id="figure_1">
  <g id="patch_1">
   <path d="M 0 232.67625 
L 338.78125 232.67625 
L 338.78125 0 
L 0 0 
z
" style="fill: #ffffff"/>
  </g>
  <g id="axes_1">
   <g id="patch_2">
    <path d="M 43.78125 195.12 
L 322.78125 195.12 
L 322.78125 28.8 
L 43.78125 28.8 
z
" style="fill: #ffffff"/>
   </g>
   <g id="FillBetweenPolyCollection_1">
    <defs>
     <path id="mcbbdb03f6b" d="M 44.909982 -37.556304 
L 44.909982 -37.55625 
L 46.355663 -37.55625 
L 47.801345 -37.55625 
L 49.247027 -37.55625 
L 50.692709 -37.55625 
L 52.138391 -37.55625 
L 53.584073 -37.55625 
L 55.029754 -37.55625 
L 56.475436 -37.55625 
L 57.921118 -37.55625 
L 59.3668 -37.55625 
L 60.812482 -37.55625 
L 62.258163 -37.55625 
L 63.703845 -37.55625 
L 65.149527 -37.55625 
L 66.595209 -37.55625 
L 68.040891 -37.55625 
L 69.486573 -37.55625 
L 70.932254 -37.55625 
L 72.377936 -37.55625 
L 73.823618 -37.55625 
L 75.2693 -37.55625 
L 76.714982 -37.55625 
L 78.160663 -37.55625 
L 79.606345 -37.55625 
L 81.052027 -37.55625 
L 82.497709 -37.55625 
L 83.943391 -37.55625 
L 85.389073 -37.55625 
L 86.834754 -37.55625 
L 88.280436 -37.55625 
L 89.726118 -37.55625 
L 91.1718 -37.55625 
L 92.617482 -37.55625 
L 94.063164 -37.55625 
L 95.508845 -37.55625 
L 96.954527 -37.55625 
L 98.400209 -37.55625 
L 99.845891 -37.55625 
L 101.291573 -37.55625 
L 102.737254 -37.55625 
L 104.182936 -37.55625 
L 105.628618 -37.55625 
L 107.0743 -37.55625 
L 108.519982 -37.55625 
L 109.965664 -37.55625 
L 111.411345 -37.55625 
L 112.857027 -37.55625 
L 114.302709 -37.55625 
L 115.748391 -37.55625 
L 117.194073 -37.55625 
L 118.639755 -37.55625 
L 120.085436 -37.55625 
L 121.531118 -37.55625 
L 122.9768 -37.55625 
L 124.422482 -37.55625 
L 125.868164 -37.55625 
L 127.313845 -37.55625 
L 128.759527 -37.55625 
L 130.205209 -37.55625 
L 131.650891 -37.55625 
L 133.096573 -37.55625 
L 134.542255 -37.55625 
L 135.987936 -37.55625 
L 137.433618 -37.55625 
L 138.8793 -37.55625 
L 140.324982 -37.55625 
L 141.770664 -37.55625 
L 143.216346 -37.55625 
L 144.662027 -37.55625 
L 146.107709 -37.55625 
L 147.553391 -37.55625 
L 148.999073 -37.55625 
L 150.444755 -37.55625 
L 151.890436 -37.55625 
L 153.336118 -37.55625 
L 154.7818 -37.55625 
L 156.227482 -37.55625 
L 157.673164 -37.55625 
L 159.118846 -37.55625 
L 160.564527 -37.55625 
L 162.010209 -37.55625 
L 163.455891 -37.55625 
L 164.901573 -37.55625 
L 166.347255 -37.55625 
L 167.792937 -37.55625 
L 169.238618 -37.55625 
L 170.6843 -37.55625 
L 172.129982 -37.55625 
L 173.575664 -37.55625 
L 175.021346 -37.55625 
L 176.467027 -37.55625 
L 177.912709 -37.55625 
L 179.358391 -37.55625 
L 180.804073 -37.55625 
L 182.249755 -37.55625 
L 183.695437 -37.55625 
L 185.141118 -37.55625 
L 186.5868 -37.55625 
L 188.032482 -37.55625 
L 189.478164 -37.55625 
L 190.923846 -37.55625 
L 192.369527 -37.55625 
L 193.815209 -37.55625 
L 195.260891 -37.55625 
L 196.706573 -37.55625 
L 198.152255 -37.55625 
L 199.597937 -37.55625 
L 201.043618 -37.55625 
L 202.4893 -37.55625 
L 203.934982 -37.55625 
L 205.380664 -37.55625 
L 206.826346 -37.55625 
L 208.272028 -37.55625 
L 209.717709 -37.55625 
L 211.163391 -37.55625 
L 212.609073 -37.55625 
L 214.054755 -37.55625 
L 215.500437 -37.55625 
L 216.946118 -37.55625 
L 218.3918 -37.55625 
L 219.837482 -37.55625 
L 221.283164 -37.55625 
L 222.728846 -37.55625 
L 224.174528 -37.55625 
L 225.620209 -37.55625 
L 227.065891 -37.55625 
L 228.511573 -37.55625 
L 229.957255 -37.55625 
L 231.402937 -37.55625 
L 232.848619 -37.55625 
L 234.2943 -37.55625 
L 235.739982 -37.55625 
L 237.185664 -37.55625 
L 238.631346 -37.55625 
L 240.077028 -37.55625 
L 241.522709 -37.55625 
L 242.968391 -37.55625 
L 244.414073 -37.55625 
L 245.859755 -37.55625 
L 247.305437 -37.55625 
L 248.751119 -37.55625 
L 250.1968 -37.55625 
L 251.642482 -37.55625 
L 253.088164 -37.55625 
L 254.533846 -37.55625 
L 255.979528 -37.55625 
L 257.42521 -37.55625 
L 258.870891 -37.55625 
L 260.316573 -37.55625 
L 261.762255 -37.55625 
L 263.207937 -37.55625 
L 264.653619 -37.55625 
L 266.0993 -37.55625 
L 267.544982 -37.55625 
L 268.990664 -37.55625 
L 270.436346 -37.55625 
L 271.882028 -37.55625 
L 273.32771 -37.55625 
L 274.773391 -37.55625 
L 276.219073 -37.55625 
L 277.664755 -37.55625 
L 279.110437 -37.55625 
L 280.556119 -37.55625 
L 282.001801 -37.55625 
L 283.447482 -37.55625 
L 284.893164 -37.55625 
L 286.338846 -37.55625 
L 287.784528 -37.55625 
L 289.23021 -37.55625 
L 290.675891 -37.55625 
L 292.121573 -37.55625 
L 293.567255 -37.55625 
L 295.012937 -37.55625 
L 296.458619 -37.55625 
L 297.904301 -37.55625 
L 299.349982 -37.55625 
L 300.795664 -37.55625 
L 302.241346 -37.55625 
L 303.687028 -37.55625 
L 305.13271 -37.55625 
L 306.578391 -37.55625 
L 308.024073 -37.55625 
L 309.469755 -37.55625 
L 310.915437 -37.55625 
L 312.361119 -37.55625 
L 313.806801 -37.55625 
L 315.252482 -37.55625 
L 316.698164 -37.55625 
L 318.143846 -37.55625 
L 319.589528 -37.55625 
L 321.03521 -37.55625 
L 322.480892 -37.55625 
L 323.926573 -37.55625 
L 325.372255 -37.55625 
L 326.817937 -37.55625 
L 328.263619 -37.55625 
L 329.709301 -37.55625 
L 331.154982 -37.55625 
L 332.600664 -37.55625 
L 332.600664 -37.556278 
L 332.600664 -37.556278 
L 331.154982 -37.556311 
L 329.709301 -37.556374 
L 328.263619 -37.55649 
L 326.817937 -37.55669 
L 325.372255 -37.557012 
L 323.926573 -37.557504 
L 322.480892 -37.558215 
L 321.03521 -37.559188 
L 319.589528 -37.560454 
L 318.143846 -37.562027 
L 316.698164 -37.563907 
L 315.252482 -37.566085 
L 313.806801 -37.568562 
L 312.361119 -37.571365 
L 310.915437 -37.574571 
L 309.469755 -37.578312 
L 308.024073 -37.582792 
L 306.578391 -37.588287 
L 305.13271 -37.595155 
L 303.687028 -37.603843 
L 302.241346 -37.614901 
L 300.795664 -37.628974 
L 299.349982 -37.646777 
L 297.904301 -37.669045 
L 296.458619 -37.696472 
L 295.012937 -37.729642 
L 293.567255 -37.768994 
L 292.121573 -37.81481 
L 290.675891 -37.867243 
L 289.23021 -37.926355 
L 287.784528 -37.992158 
L 286.338846 -38.06464 
L 284.893164 -38.143816 
L 283.447482 -38.229805 
L 282.001801 -38.322982 
L 280.556119 -38.424159 
L 279.110437 -38.534733 
L 277.664755 -38.656693 
L 276.219073 -38.792443 
L 274.773391 -38.944463 
L 273.32771 -39.114913 
L 271.882028 -39.305365 
L 270.436346 -39.516768 
L 268.990664 -39.74966 
L 267.544982 -40.004533 
L 266.0993 -40.282176 
L 264.653619 -40.583892 
L 263.207937 -40.91153 
L 261.762255 -41.26737 
L 260.316573 -41.653924 
L 258.870891 -42.07365 
L 257.42521 -42.52859 
L 255.979528 -43.019923 
L 254.533846 -43.547559 
L 253.088164 -44.109883 
L 251.642482 -44.703758 
L 250.1968 -45.324738 
L 248.751119 -45.967324 
L 247.305437 -46.625042 
L 245.859755 -47.290291 
L 244.414073 -47.954083 
L 242.968391 -48.606 
L 241.522709 -49.234623 
L 240.077028 -49.828514 
L 238.631346 -50.377487 
L 237.185664 -50.873744 
L 235.739982 -51.312427 
L 234.2943 -51.691393 
L 232.848619 -52.010331 
L 231.402937 -52.2696 
L 229.957255 -52.46926 
L 228.511573 -52.608632 
L 227.065891 -52.686487 
L 225.620209 -52.701704 
L 224.174528 -52.654069 
L 222.728846 -52.544883 
L 221.283164 -52.377201 
L 219.837482 -52.155715 
L 218.3918 -51.8865 
L 216.946118 -51.576836 
L 215.500437 -51.235196 
L 214.054755 -50.871258 
L 212.609073 -50.49563 
L 211.163391 -50.119076 
L 209.717709 -49.751246 
L 208.272028 -49.399302 
L 206.826346 -49.066975 
L 205.380664 -48.754497 
L 203.934982 -48.459534 
L 202.4893 -48.178772 
L 201.043618 -47.909581 
L 199.597937 -47.651144 
L 198.152255 -47.404691 
L 196.706573 -47.172864 
L 195.260891 -46.95857 
L 193.815209 -46.763832 
L 192.369527 -46.589121 
L 190.923846 -46.43338 
L 189.478164 -46.294669 
L 188.032482 -46.171064 
L 186.5868 -46.061421 
L 185.141118 -45.965655 
L 183.695437 -45.884475 
L 182.249755 -45.818769 
L 180.804073 -45.768988 
L 179.358391 -45.734841 
L 177.912709 -45.715456 
L 176.467027 -45.709898 
L 175.021346 -45.717748 
L 173.575664 -45.739424 
L 172.129982 -45.776051 
L 170.6843 -45.828916 
L 169.238618 -45.898758 
L 167.792937 -45.985204 
L 166.347255 -46.086634 
L 164.901573 -46.200513 
L 163.455891 -46.324095 
L 162.010209 -46.455236 
L 160.564527 -46.593031 
L 159.118846 -46.738083 
L 157.673164 -46.892284 
L 156.227482 -47.058152 
L 154.7818 -47.237943 
L 153.336118 -47.432854 
L 151.890436 -47.642682 
L 150.444755 -47.866112 
L 148.999073 -48.10154 
L 147.553391 -48.34806 
L 146.107709 -48.606156 
L 144.662027 -48.87777 
L 143.216346 -49.165757 
L 141.770664 -49.473014 
L 140.324982 -49.801683 
L 138.8793 -50.152739 
L 137.433618 -50.526006 
L 135.987936 -50.920481 
L 134.542255 -51.334735 
L 133.096573 -51.767237 
L 131.650891 -52.216581 
L 130.205209 -52.681678 
L 128.759527 -53.162021 
L 127.313845 -53.658107 
L 125.868164 -54.171964 
L 124.422482 -54.707712 
L 122.9768 -55.272055 
L 121.531118 -55.874627 
L 120.085436 -56.528237 
L 118.639755 -57.249058 
L 117.194073 -58.056803 
L 115.748391 -58.974814 
L 114.302709 -60.029851 
L 112.857027 -61.251231 
L 111.411345 -62.66886 
L 109.965664 -64.309688 
L 108.519982 -66.192297 
L 107.0743 -68.319684 
L 105.628618 -70.671003 
L 104.182936 -73.193771 
L 102.737254 -75.79867 
L 101.291573 -78.359149 
L 99.845891 -80.717398 
L 98.400209 -82.696978 
L 96.954527 -84.120859 
L 95.508845 -84.832232 
L 94.063164 -84.714733 
L 92.617482 -83.708691 
L 91.1718 -81.820604 
L 89.726118 -79.124212 
L 88.280436 -75.752873 
L 86.834754 -71.884447 
L 85.389073 -67.721246 
L 83.943391 -63.468376 
L 82.497709 -59.313964 
L 81.052027 -55.413991 
L 79.606345 -51.883262 
L 78.160663 -48.792652 
L 76.714982 -46.171721 
L 75.2693 -44.015137 
L 73.823618 -42.291231 
L 72.377936 -40.9511 
L 70.932254 -39.937051 
L 69.486573 -39.18958 
L 68.040891 -38.65247 
L 66.595209 -38.275997 
L 65.149527 -38.018471 
L 63.703845 -37.846494 
L 62.258163 -37.73436 
L 60.812482 -37.662984 
L 59.3668 -37.61865 
L 57.921118 -37.591801 
L 56.475436 -37.575962 
L 55.029754 -37.566871 
L 53.584073 -37.561802 
L 52.138391 -37.559061 
L 50.692709 -37.557626 
L 49.247027 -37.556899 
L 47.801345 -37.556545 
L 46.355663 -37.556378 
L 44.909982 -37.556304 
z
" style="stroke: #32cd32"/>
    </defs>
    <g clip-path="url(#p6de9b46b98)">
     <use xlink:href="#mcbbdb03f6b" x="0" y="232.67625" style="fill: #32cd32; fill-opacity: 0.25; stroke: #32cd32"/>
    </g>
   </g>
   <g id="matplotlib.axis_1">
    <g id="xtick_1">
     <g id="line2d_1">
      <defs>
       <path id="m294bb65958" d="M 0 0 
L 0 3.5 
" style="stroke: #000000; stroke-width: 0.8"/>
      </defs>
      <g>
       <use xlink:href="#m294bb65958" x="43.78125" y="195.12" style="stroke: #000000; stroke-width: 0.8"/>
      </g>
     </g>
     <g id="text_1">
      <!-- $\mathdefault{10^{1}}$ -->
      <g transform="translate(34.98125 209.718437) scale(0.1 -0.1)">
       <defs>
        <path id="DejaVuSans-31" d="M 794 531 
L 1825 531 
L 1825 4091 
L 703 3866 
L 703 4441 
L 1819 4666 
L 2450 4666 
L 2450 531 
L 3481 531 
L 3481 0 
L 794 0 
L 794 531 
z
" transform="scale(0.015625)"/>
        <path id="DejaVuSans-30" d="M 2034 4250 
Q 1547 4250 1301 3770 
Q 1056 3291 1056 2328 
Q 1056 1369 1301 889 
Q 1547 409 2034 409 
Q 2525 409 2770 889 
Q 3016 1369 3016 2328 
Q 3016 3291 2770 3770 
Q 2525 4250 2034 4250 
z
M 2034 4750 
Q 2819 4750 3233 4129 
Q 3647 3509 3647 2328 
Q 3647 1150 3233 529 
Q 2819 -91 2034 -91 
Q 1250 -91 836 529 
Q 422 1150 422 2328 
Q 422 3509 836 4129 
Q 1250 4750 2034 4750 
z
" transform="scale(0.015625)"/>
       </defs>
       <use xlink:href="#DejaVuSans-31" transform="translate(0 0.684375)"/>
       <use xlink:href="#DejaVuSans-30" transform="translate(63.623047 0.684375)"/>
       <use xlink:href="#DejaVuSans-31" transform="translate(128.203125 38.965625) scale(0.7)"/>
      </g>
     </g>
    </g>
    <g id="xtick_2">
     <g id="line2d_2">
      <g>
       <use xlink:href="#m294bb65958" x="99.58125" y="195.12" style="stroke: #000000; stroke-width: 0.8"/>
      </g>
     </g>
     <g id="text_2">
      <!-- $\mathdefault{10^{2}}$ -->
      <g transform="translate(90.78125 209.718437) scale(0.1 -0.1)">
       <defs>
        <path id="DejaVuSans-32" d="M 1228 531 
L 3431 531 
L 3431 0 
L 469 0 
L 469 531 
Q 828 903 1448 1529 
Q 2069 2156 2228 2338 
Q 2531 2678 2651 2914 
Q 2772 3150 2772 3378 
Q 2772 3750 2511 3984 
Q 2250 4219 1831 4219 
Q 1534 4219 1204 4116 
Q 875 4013 500 3803 
L 500 4441 
Q 881 4594 1212 4672 
Q 1544 4750 1819 4750 
Q 2544 4750 2975 4387 
Q 3406 4025 3406 3419 
Q 3406 3131 3298 2873 
Q 3191 2616 2906 2266 
Q 2828 2175 2409 1742 
Q 1991 1309 1228 531 
z
" transform="scale(0.015625)"/>
       </defs>
       <use xlink:href="#DejaVuSans-31" transform="translate(0 0.765625)"/>
       <use xlink:href="#DejaVuSans-30" transform="translate(63.623047 0.765625)"/>
       <use xlink:href="#DejaVuSans-32" transform="translate(128.203125 39.046875) scale(0.7)"/>
      </g>
     </g>
    </g>
    <g id="xtick_3">
     <g id="line2d_3">
      <g>
       <use xlink:href="#m294bb65958" x="155.38125" y="195.12" style="stroke: #000000; stroke-width: 0.8"/>
      </g>
     </g>
     <g id="text_3">
      <!-- $\mathdefault{10^{3}}$ -->
      <g transform="translate(146.58125 209.718437) scale(0.1 -0.1)">
       <defs>
        <path id="DejaVuSans-33" d="M 2597 2516 
Q 3050 2419 3304 2112 
Q 3559 1806 3559 1356 
Q 3559 666 3084 287 
Q 2609 -91 1734 -91 
Q 1441 -91 1130 -33 
Q 819 25 488 141 
L 488 750 
Q 750 597 1062 519 
Q 1375 441 1716 441 
Q 2309 441 2620 675 
Q 2931 909 2931 1356 
Q 2931 1769 2642 2001 
Q 2353 2234 1838 2234 
L 1294 2234 
L 1294 2753 
L 1863 2753 
Q 2328 2753 2575 2939 
Q 2822 3125 2822 3475 
Q 2822 3834 2567 4026 
Q 2313 4219 1838 4219 
Q 1578 4219 1281 4162 
Q 984 4106 628 3988 
L 628 4550 
Q 988 4650 1302 4700 
Q 1616 4750 1894 4750 
Q 2613 4750 3031 4423 
Q 3450 4097 3450 3541 
Q 3450 3153 3228 2886 
Q 3006 2619 2597 2516 
z
" transform="scale(0.015625)"/>
       </defs>
       <use xlink:href="#DejaVuSans-31" transform="translate(0 0.765625)"/>
       <use xlink:href="#DejaVuSans-30" transform="translate(63.623047 0.765625)"/>
       <use xlink:href="#DejaVuSans-33" transform="translate(128.203125 39.046875) scale(0.7)"/>
      </g>
     </g>
    </g>
    <g id="xtick_4">
     <g id="line2d_4">
      <g>
       <use xlink:href="#m294bb65958" x="211.18125" y="195.12" style="stroke: #000000; stroke-width: 0.8"/>
      </g>
     </g>
     <g id="text_4">
      <!-- $\mathdefault{10^{4}}$ -->
      <g transform="translate(202.38125 209.718437) scale(0.1 -0.1)">
       <defs>
        <path id="DejaVuSans-34" d="M 2419 4116 
L 825 1625 
L 2419 1625 
L 2419 4116 
z
M 2253 4666 
L 3047 4666 
L 3047 1625 
L 3713 1625 
L 3713 1100 
L 3047 1100 
L 3047 0 
L 2419 0 
L 2419 1100 
L 313 1100 
L 313 1709 
L 2253 4666 
z
" transform="scale(0.015625)"/>
       </defs>
       <use xlink:href="#DejaVuSans-31" transform="translate(0 0.684375)"/>
       <use xlink:href="#DejaVuSans-30" transform="translate(63.623047 0.684375)"/>
       <use xlink:href="#DejaVuSans-34" transform="translate(128.203125 38.965625) scale(0.7)"/>
      </g>
     </g>
    </g>
    <g id="xtick_5">
     <g id="line2d_5">
      <g>
       <use xlink:href="#m294bb65958" x="266.98125" y="195.12" style="stroke: #000000; stroke-width: 0.8"/>
      </g>
     </g>
     <g id="text_5">
      <!-- $\mathdefault{10^{5}}$ -->
      <g transform="translate(258.18125 209.718437) scale(0.1 -0.1)">
       <defs>
        <path id="DejaVuSans-35" d="M 691 4666 
L 3169 4666 
L 3169 4134 
L 1269 4134 
L 1269 2991 
Q 1406 3038 1543 3061 
Q 1681 3084 1819 3084 
Q 2600 3084 3056 2656 
Q 3513 2228 3513 1497 
Q 3513 744 3044 326 
Q 2575 -91 1722 -91 
Q 1428 -91 1123 -41 
Q 819 9 494 109 
L 494 744 
Q 775 591 1075 516 
Q 1375 441 1709 441 
Q 2250 441 2565 725 
Q 2881 1009 2881 1497 
Q 2881 1984 2565 2268 
Q 2250 2553 1709 2553 
Q 1456 2553 1204 2497 
Q 953 2441 691 2322 
L 691 4666 
z
" transform="scale(0.015625)"/>
       </defs>
       <use xlink:href="#DejaVuSans-31" transform="translate(0 0.684375)"/>
       <use xlink:href="#DejaVuSans-30" transform="translate(63.623047 0.684375)"/>
       <use xlink:href="#DejaVuSans-35" transform="translate(128.203125 38.965625) scale(0.7)"/>
      </g>
     </g>
    </g>
    <g id="xtick_6">
     <g id="line2d_6">
      <g>
       <use xlink:href="#m294bb65958" x="322.78125" y="195.12" style="stroke: #000000; stroke-width: 0.8"/>
      </g>
     </g>
     <g id="text_6">
      <!-- $\mathdefault{10^{6}}$ -->
      <g transform="translate(313.98125 209.718437) scale(0.1 -0.1)">
       <defs>
        <path id="DejaVuSans-36" d="M 2113 2584 
Q 1688 2584 1439 2293 
Q 1191 2003 1191 1497 
Q 1191 994 1439 701 
Q 1688 409 2113 409 
Q 2538 409 2786 701 
Q 3034 994 3034 1497 
Q 3034 2003 2786 2293 
Q 2538 2584 2113 2584 
z
M 3366 4563 
L 3366 3988 
Q 3128 4100 2886 4159 
Q 2644 4219 2406 4219 
Q 1781 4219 1451 3797 
Q 1122 3375 1075 2522 
Q 1259 2794 1537 2939 
Q 1816 3084 2150 3084 
Q 2853 3084 3261 2657 
Q 3669 2231 3669 1497 
Q 3669 778 3244 343 
Q 2819 -91 2113 -91 
Q 1303 -91 875 529 
Q 447 1150 447 2328 
Q 447 3434 972 4092 
Q 1497 4750 2381 4750 
Q 2619 4750 2861 4703 
Q 3103 4656 3366 4563 
z
" transform="scale(0.015625)"/>
       </defs>
       <use xlink:href="#DejaVuSans-31" transform="translate(0 0.765625)"/>
       <use xlink:href="#DejaVuSans-30" transform="translate(63.623047 0.765625)"/>
       <use xlink:href="#DejaVuSans-36" transform="translate(128.203125 39.046875) scale(0.7)"/>
      </g>
     </g>
    </g>
    <g id="xtick_7">
     <g id="line2d_7">
      <defs>
       <path id="m79e9e1a85e" d="M 0 0 
L 0 2 
" style="stroke: #000000; stroke-width: 0.6"/>
      </defs>
      <g>
       <use xlink:href="#m79e9e1a85e" x="60.578724" y="195.12" style="stroke: #000000; stroke-width: 0.6"/>
      </g>
     </g>
    </g>
    <g id="xtick_8">
     <g id="line2d_8">
      <g>
       <use xlink:href="#m79e9e1a85e" x="70.404616" y="195.12" style="stroke: #000000; stroke-width: 0.6"/>
      </g>
     </g>
    </g>
    <g id="xtick_9">
     <g id="line2d_9">
      <g>
       <use xlink:href="#m79e9e1a85e" x="77.376198" y="195.12" style="stroke: #000000; stroke-width: 0.6"/>
      </g>
     </g>
    </g>
    <g id="xtick_10">
     <g id="line2d_10">
      <g>
       <use xlink:href="#m79e9e1a85e" x="82.783776" y="195.12" style="stroke: #000000; stroke-width: 0.6"/>
      </g>
     </g>
    </g>
    <g id="xtick_11">
     <g id="line2d_11">
      <g>
       <use xlink:href="#m79e9e1a85e" x="87.20209" y="195.12" style="stroke: #000000; stroke-width: 0.6"/>
      </g>
     </g>
    </g>
    <g id="xtick_12">
     <g id="line2d_12">
      <g>
       <use xlink:href="#m79e9e1a85e" x="90.937721" y="195.12" style="stroke: #000000; stroke-width: 0.6"/>
      </g>
     </g>
    </g>
    <g id="xtick_13">
     <g id="line2d_13">
      <g>
       <use xlink:href="#m79e9e1a85e" x="94.173671" y="195.12" style="stroke: #000000; stroke-width: 0.6"/>
      </g>
     </g>
    </g>
    <g id="xtick_14">
     <g id="line2d_14">
      <g>
       <use xlink:href="#m79e9e1a85e" x="97.027982" y="195.12" style="stroke: #000000; stroke-width: 0.6"/>
      </g>
     </g>
    </g>
    <g id="xtick_15">
     <g id="line2d_15">
      <g>
       <use xlink:href="#m79e9e1a85e" x="116.378724" y="195.12" style="stroke: #000000; stroke-width: 0.6"/>
      </g>
     </g>
    </g>
    <g id="xtick_16">
     <g id="line2d_16">
      <g>
       <use xlink:href="#m79e9e1a85e" x="126.204616" y="195.12" style="stroke: #000000; stroke-width: 0.6"/>
      </g>
     </g>
    </g>
    <g id="xtick_17">
     <g id="line2d_17">
      <g>
       <use xlink:href="#m79e9e1a85e" x="133.176198" y="195.12" style="stroke: #000000; stroke-width: 0.6"/>
      </g>
     </g>
    </g>
    <g id="xtick_18">
     <g id="line2d_18">
      <g>
       <use xlink:href="#m79e9e1a85e" x="138.583776" y="195.12" style="stroke: #000000; stroke-width: 0.6"/>
      </g>
     </g>
    </g>
    <g id="xtick_19">
     <g id="line2d_19">
      <g>
       <use xlink:href="#m79e9e1a85e" x="143.00209" y="195.12" style="stroke: #000000; stroke-width: 0.6"/>
      </g>
     </g>
    </g>
    <g id="xtick_20">
     <g id="line2d_20">
      <g>
       <use xlink:href="#m79e9e1a85e" x="146.737721" y="195.12" style="stroke: #000000; stroke-width: 0.6"/>
      </g>
     </g>
    </g>
    <g id="xtick_21">
     <g id="line2d_21">
      <g>
       <use xlink:href="#m79e9e1a85e" x="149.973671" y="195.12" style="stroke: #000000; stroke-width: 0.6"/>
      </g>
     </g>
    </g>
    <g id="xtick_22">
     <g id="line2d_22">
      <g>
       <use xlink:href="#m79e9e1a85e" x="152.827982" y="195.12" style="stroke: #000000; stroke-width: 0.6"/>
      </g>
     </g>
    </g>
    <g id="xtick_23">
     <g id="line2d_23">
      <g>
       <use xlink:href="#m79e9e1a85e" x="172.178724" y="195.12" style="stroke: #000000; stroke-width: 0.6"/>
      </g>
     </g>
    </g>
    <g id="xtick_24">
     <g id="line2d_24">
      <g>
       <use xlink:href="#m79e9e1a85e" x="182.004616" y="195.12" style="stroke: #000000; stroke-width: 0.6"/>
      </g>
     </g>
    </g>
    <g id="xtick_25">
     <g id="line2d_25">
      <g>
       <use xlink:href="#m79e9e1a85e" x="188.976198" y="195.12" style="stroke: #000000; stroke-width: 0.6"/>
      </g>
     </g>
    </g>
    <g id="xtick_26">
     <g id="line2d_26">
      <g>
       <use xlink:href="#m79e9e1a85e" x="194.383776" y="195.12" style="stroke: #000000; stroke-width: 0.6"/>
      </g>
     </g>
    </g>
    <g id="xtick_27">
     <g id="line2d_27">
      <g>
       <use xlink:href="#m79e9e1a85e" x="198.80209" y="195.12" style="stroke: #000000; stroke-width: 0.6"/>
      </g>
     </g>
    </g>
    <g id="xtick_28">
     <g id="line2d_28">
      <g>
       <use xlink:href="#m79e9e1a85e" x="202.537721" y="195.12" style="stroke: #000000; stroke-width: 0.6"/>
      </g>
     </g>
    </g>
    <g id="xtick_29">
     <g id="line2d_29">
      <g>
       <use xlink:href="#m79e9e1a85e" x="205.773671" y="195.12" style="stroke: #000000; stroke-width: 0.6"/>
      </g>
     </g>
    </g>
    <g id="xtick_30">
     <g id="line2d_30">
      <g>
       <use xlink:href="#m79e9e1a85e" x="208.627982" y="195.12" style="stroke: #000000; stroke-width: 0.6"/>
      </g>
     </g>
    </g>
    <g id="xtick_31">
     <g id="line2d_31">
      <g>
       <use xlink:href="#m79e9e1a85e" x="227.978724" y="195.12" style="stroke: #000000; stroke-width: 0.6"/>
      </g>
     </g>
    </g>
    <g id="xtick_32">
     <g id="line2d_32">
      <g>
       <use xlink:href="#m79e9e1a85e" x="237.804616" y="195.12" style="stroke: #000000; stroke-width: 0.6"/>
      </g>
     </g>
    </g>
    <g id="xtick_33">
     <g id="line2d_33">
      <g>
       <use xlink:href="#m79e9e1a85e" x="244.776198" y="195.12" style="stroke: #000000; stroke-width: 0.6"/>
      </g>
     </g>
    </g>
    <g id="xtick_34">
     <g id="line2d_34">
      <g>
       <use xlink:href="#m79e9e1a85e" x="250.183776" y="195.12" style="stroke: #000000; stroke-width: 0.6"/>
      </g>
     </g>
    </g>
    <g id="xtick_35">
     <g id="line2d_35">
      <g>
       <use xlink:href="#m79e9e1a85e" x="254.60209" y="195.12" style="stroke: #000000; stroke-width: 0.6"/>
      </g>
     </g>
    </g>
    <g id="xtick_36">
     <g id="line2d_36">
      <g>
       <use xlink:href="#m79e9e1a85e" x="258.337721" y="195.12" style="stroke: #000000; stroke-width: 0.6"/>
      </g>
     </g>
    </g>
    <g id="xtick_37">
     <g id="line2d_37">
      <g>
       <use xlink:href="#m79e9e1a85e" x="261.573671" y="195.12" style="stroke: #000000; stroke-width: 0.6"/>
      </g>
     </g>
    </g>
    <g id="xtick_38">
     <g id="line2d_38">
      <g>
       <use xlink:href="#m79e9e1a85e" x="264.427982" y="195.12" style="stroke: #000000; stroke-width: 0.6"/>
      </g>
     </g>
    </g>
    <g id="xtick_39">
     <g id="line2d_39">
      <g>
       <use xlink:href="#m79e9e1a85e" x="283.778724" y="195.12" style="stroke: #000000; stroke-width: 0.6"/>
      </g>
     </g>
    </g>
    <g id="xtick_40">
     <g id="line2d_40">
      <g>
       <use xlink:href="#m79e9e1a85e" x="293.604616" y="195.12" style="stroke: #000000; stroke-width: 0.6"/>
      </g>
     </g>
    </g>
    <g id="xtick_41">
     <g id="line2d_41">
      <g>
       <use xlink:href="#m79e9e1a85e" x="300.576198" y="195.12" style="stroke: #000000; stroke-width: 0.6"/>
      </g>
     </g>
    </g>
    <g id="xtick_42">
     <g id="line2d_42">
      <g>
       <use xlink:href="#m79e9e1a85e" x="305.983776" y="195.12" style="stroke: #000000; stroke-width: 0.6"/>
      </g>
     </g>
    </g>
    <g id="xtick_43">
     <g id="line2d_43">
      <g>
       <use xlink:href="#m79e9e1a85e" x="310.40209" y="195.12" style="stroke: #000000; stroke-width: 0.6"/>
      </g>
     </g>
    </g>
    <g id="xtick_44">
     <g id="line2d_44">
      <g>
       <use xlink:href="#m79e9e1a85e" x="314.137721" y="195.12" style="stroke: #000000; stroke-width: 0.6"/>
      </g>
     </g>
    </g>
    <g id="xtick_45">
     <g id="line2d_45">
      <g>
       <use xlink:href="#m79e9e1a85e" x="317.373671" y="195.12" style="stroke: #000000; stroke-width: 0.6"/>
      </g>
     </g>
    </g>
    <g id="xtick_46">
     <g id="line2d_46">
      <g>
       <use xlink:href="#m79e9e1a85e" x="320.227982" y="195.12" style="stroke: #000000; stroke-width: 0.6"/>
      </g>
     </g>
    </g>
    <g id="text_7">
     <!-- eGFP-H -->
     <g transform="translate(164.988281 223.396563) scale(0.1 -0.1)">
      <defs>
       <path id="DejaVuSans-65" d="M 3597 1894 
L 3597 1613 
L 953 1613 
Q 991 1019 1311 708 
Q 1631 397 2203 397 
Q 2534 397 2845 478 
Q 3156 559 3463 722 
L 3463 178 
Q 3153 47 2828 -22 
Q 2503 -91 2169 -91 
Q 1331 -91 842 396 
Q 353 884 353 1716 
Q 353 2575 817 3079 
Q 1281 3584 2069 3584 
Q 2775 3584 3186 3129 
Q 3597 2675 3597 1894 
z
M 3022 2063 
Q 3016 2534 2758 2815 
Q 2500 3097 2075 3097 
Q 1594 3097 1305 2825 
Q 1016 2553 972 2059 
L 3022 2063 
z
" transform="scale(0.015625)"/>
       <path id="DejaVuSans-47" d="M 3809 666 
L 3809 1919 
L 2778 1919 
L 2778 2438 
L 4434 2438 
L 4434 434 
Q 4069 175 3628 42 
Q 3188 -91 2688 -91 
Q 1594 -91 976 548 
Q 359 1188 359 2328 
Q 359 3472 976 4111 
Q 1594 4750 2688 4750 
Q 3144 4750 3555 4637 
Q 3966 4525 4313 4306 
L 4313 3634 
Q 3963 3931 3569 4081 
Q 3175 4231 2741 4231 
Q 1884 4231 1454 3753 
Q 1025 3275 1025 2328 
Q 1025 1384 1454 906 
Q 1884 428 2741 428 
Q 3075 428 3337 486 
Q 3600 544 3809 666 
z
" transform="scale(0.015625)"/>
       <path id="DejaVuSans-46" d="M 628 4666 
L 3309 4666 
L 3309 4134 
L 1259 4134 
L 1259 2759 
L 3109 2759 
L 3109 2228 
L 1259 2228 
L 1259 0 
L 628 0 
L 628 4666 
z
" transform="scale(0.015625)"/>
       <path id="DejaVuSans-50" d="M 1259 4147 
L 1259 2394 
L 2053 2394 
Q 2494 2394 2734 2622 
Q 2975 2850 2975 3272 
Q 2975 3691 2734 3919 
Q 2494 4147 2053 4147 
L 1259 4147 
z
M 628 4666 
L 2053 4666 
Q 2838 4666 3239 4311 
Q 3641 3956 3641 3272 
Q 3641 2581 3239 2228 
Q 2838 1875 2053 1875 
L 1259 1875 
L 1259 0 
L 628 0 
L 628 4666 
z
" transform="scale(0.015625)"/>
       <path id="DejaVuSans-2d" d="M 313 2009 
L 1997 2009 
L 1997 1497 
L 313 1497 
L 313 2009 
z
" transform="scale(0.015625)"/>
       <path id="DejaVuSans-48" d="M 628 4666 
L 1259 4666 
L 1259 2753 
L 3553 2753 
L 3553 4666 
L 4184 4666 
L 4184 0 
L 3553 0 
L 3553 2222 
L 1259 2222 
L 1259 0 
L 628 0 
L 628 4666 
z
" transform="scale(0.015625)"/>
      </defs>
      <use xlink:href="#DejaVuSans-65"/>
      <use xlink:href="#DejaVuSans-47" transform="translate(61.523438 0)"/>
      <use xlink:href="#DejaVuSans-46" transform="translate(139.013672 0)"/>
      <use xlink:href="#DejaVuSans-50" transform="translate(196.533203 0)"/>
      <use xlink:href="#DejaVuSans-2d" transform="translate(254.585938 0)"/>
      <use xlink:href="#DejaVuSans-48" transform="translate(290.669922 0)"/>
     </g>
    </g>
   </g>
   <g id="matplotlib.axis_2">
    <g id="ytick_1">
     <g id="line2d_47">
      <defs>
       <path id="mf803994b74" d="M 0 0 
L -3.5 0 
" style="stroke: #000000; stroke-width: 0.8"/>
      </defs>
      <g>
       <use xlink:href="#mf803994b74" x="43.78125" y="195.12" style="stroke: #000000; stroke-width: 0.8"/>
      </g>
     </g>
     <g id="text_8">
      <!-- 0.0 -->
      <g transform="translate(20.878125 198.919219) scale(0.1 -0.1)">
       <defs>
        <path id="DejaVuSans-2e" d="M 684 794 
L 1344 794 
L 1344 0 
L 684 0 
L 684 794 
z
" transform="scale(0.015625)"/>
       </defs>
       <use xlink:href="#DejaVuSans-30"/>
       <use xlink:href="#DejaVuSans-2e" transform="translate(63.623047 0)"/>
       <use xlink:href="#DejaVuSans-30" transform="translate(95.410156 0)"/>
      </g>
     </g>
    </g>
    <g id="ytick_2">
     <g id="line2d_48">
      <g>
       <use xlink:href="#mf803994b74" x="43.78125" y="168.243316" style="stroke: #000000; stroke-width: 0.8"/>
      </g>
     </g>
     <g id="text_9">
      <!-- 0.5 -->
      <g transform="translate(20.878125 172.042535) scale(0.1 -0.1)">
       <use xlink:href="#DejaVuSans-30"/>
       <use xlink:href="#DejaVuSans-2e" transform="translate(63.623047 0)"/>
       <use xlink:href="#DejaVuSans-35" transform="translate(95.410156 0)"/>
      </g>
     </g>
    </g>
    <g id="ytick_3">
     <g id="line2d_49">
      <g>
       <use xlink:href="#mf803994b74" x="43.78125" y="141.366632" style="stroke: #000000; stroke-width: 0.8"/>
      </g>
     </g>
     <g id="text_10">
      <!-- 1.0 -->
      <g transform="translate(20.878125 145.16585) scale(0.1 -0.1)">
       <use xlink:href="#DejaVuSans-31"/>
       <use xlink:href="#DejaVuSans-2e" transform="translate(63.623047 0)"/>
       <use xlink:href="#DejaVuSans-30" transform="translate(95.410156 0)"/>
      </g>
     </g>
    </g>
    <g id="ytick_4">
     <g id="line2d_50">
      <g>
       <use xlink:href="#mf803994b74" x="43.78125" y="114.489948" style="stroke: #000000; stroke-width: 0.8"/>
      </g>
     </g>
     <g id="text_11">
      <!-- 1.5 -->
      <g transform="translate(20.878125 118.289166) scale(0.1 -0.1)">
       <use xlink:href="#DejaVuSans-31"/>
       <use xlink:href="#DejaVuSans-2e" transform="translate(63.623047 0)"/>
       <use xlink:href="#DejaVuSans-35" transform="translate(95.410156 0)"/>
      </g>
     </g>
    </g>
    <g id="ytick_5">
     <g id="line2d_51">
      <g>
       <use xlink:href="#mf803994b74" x="43.78125" y="87.613263" style="stroke: #000000; stroke-width: 0.8"/>
      </g>
     </g>
     <g id="text_12">
      <!-- 2.0 -->
      <g transform="translate(20.878125 91.412482) scale(0.1 -0.1)">
       <use xlink:href="#DejaVuSans-32"/>
       <use xlink:href="#DejaVuSans-2e" transform="translate(63.623047 0)"/>
       <use xlink:href="#DejaVuSans-30" transform="translate(95.410156 0)"/>
      </g>
     </g>
    </g>
    <g id="ytick_6">
     <g id="line2d_52">
      <g>
       <use xlink:href="#mf803994b74" x="43.78125" y="60.736579" style="stroke: #000000; stroke-width: 0.8"/>
      </g>
     </g>
     <g id="text_13">
      <!-- 2.5 -->
      <g transform="translate(20.878125 64.535798) scale(0.1 -0.1)">
       <use xlink:href="#DejaVuSans-32"/>
       <use xlink:href="#DejaVuSans-2e" transform="translate(63.623047 0)"/>
       <use xlink:href="#DejaVuSans-35" transform="translate(95.410156 0)"/>
      </g>
     </g>
    </g>
    <g id="ytick_7">
     <g id="line2d_53">
      <g>
       <use xlink:href="#mf803994b74" x="43.78125" y="33.859895" style="stroke: #000000; stroke-width: 0.8"/>
      </g>
     </g>
     <g id="text_14">
      <!-- 3.0 -->
      <g transform="translate(20.878125 37.659114) scale(0.1 -0.1)">
       <use xlink:href="#DejaVuSans-33"/>
       <use xlink:href="#DejaVuSans-2e" transform="translate(63.623047 0)"/>
       <use xlink:href="#DejaVuSans-30" transform="translate(95.410156 0)"/>
      </g>
     </g>
    </g>
    <g id="text_15">
     <!-- Density -->
     <g transform="translate(14.798438 130.968594) rotate(-90) scale(0.1 -0.1)">
      <defs>
       <path id="DejaVuSans-44" d="M 1259 4147 
L 1259 519 
L 2022 519 
Q 2988 519 3436 956 
Q 3884 1394 3884 2338 
Q 3884 3275 3436 3711 
Q 2988 4147 2022 4147 
L 1259 4147 
z
M 628 4666 
L 1925 4666 
Q 3281 4666 3915 4102 
Q 4550 3538 4550 2338 
Q 4550 1131 3912 565 
Q 3275 0 1925 0 
L 628 0 
L 628 4666 
z
" transform="scale(0.015625)"/>
       <path id="DejaVuSans-6e" d="M 3513 2113 
L 3513 0 
L 2938 0 
L 2938 2094 
Q 2938 2591 2744 2837 
Q 2550 3084 2163 3084 
Q 1697 3084 1428 2787 
Q 1159 2491 1159 1978 
L 1159 0 
L 581 0 
L 581 3500 
L 1159 3500 
L 1159 2956 
Q 1366 3272 1645 3428 
Q 1925 3584 2291 3584 
Q 2894 3584 3203 3211 
Q 3513 2838 3513 2113 
z
" transform="scale(0.015625)"/>
       <path id="DejaVuSans-73" d="M 2834 3397 
L 2834 2853 
Q 2591 2978 2328 3040 
Q 2066 3103 1784 3103 
Q 1356 3103 1142 2972 
Q 928 2841 928 2578 
Q 928 2378 1081 2264 
Q 1234 2150 1697 2047 
L 1894 2003 
Q 2506 1872 2764 1633 
Q 3022 1394 3022 966 
Q 3022 478 2636 193 
Q 2250 -91 1575 -91 
Q 1294 -91 989 -36 
Q 684 19 347 128 
L 347 722 
Q 666 556 975 473 
Q 1284 391 1588 391 
Q 1994 391 2212 530 
Q 2431 669 2431 922 
Q 2431 1156 2273 1281 
Q 2116 1406 1581 1522 
L 1381 1569 
Q 847 1681 609 1914 
Q 372 2147 372 2553 
Q 372 3047 722 3315 
Q 1072 3584 1716 3584 
Q 2034 3584 2315 3537 
Q 2597 3491 2834 3397 
z
" transform="scale(0.015625)"/>
       <path id="DejaVuSans-69" d="M 603 3500 
L 1178 3500 
L 1178 0 
L 603 0 
L 603 3500 
z
M 603 4863 
L 1178 4863 
L 1178 4134 
L 603 4134 
L 603 4863 
z
" transform="scale(0.015625)"/>
       <path id="DejaVuSans-74" d="M 1172 4494 
L 1172 3500 
L 2356 3500 
L 2356 3053 
L 1172 3053 
L 1172 1153 
Q 1172 725 1289 603 
Q 1406 481 1766 481 
L 2356 481 
L 2356 0 
L 1766 0 
Q 1100 0 847 248 
Q 594 497 594 1153 
L 594 3053 
L 172 3053 
L 172 3500 
L 594 3500 
L 594 4494 
L 1172 4494 
z
" transform="scale(0.015625)"/>
       <path id="DejaVuSans-79" d="M 2059 -325 
Q 1816 -950 1584 -1140 
Q 1353 -1331 966 -1331 
L 506 -1331 
L 506 -850 
L 844 -850 
Q 1081 -850 1212 -737 
Q 1344 -625 1503 -206 
L 1606 56 
L 191 3500 
L 800 3500 
L 1894 763 
L 2988 3500 
L 3597 3500 
L 2059 -325 
z
" transform="scale(0.015625)"/>
      </defs>
      <use xlink:href="#DejaVuSans-44"/>
      <use xlink:href="#DejaVuSans-65" transform="translate(77.001953 0)"/>
      <use xlink:href="#DejaVuSans-6e" transform="translate(138.525391 0)"/>
      <use xlink:href="#DejaVuSans-73" transform="translate(201.904297 0)"/>
      <use xlink:href="#DejaVuSans-69" transform="translate(254.003906 0)"/>
      <use xlink:href="#DejaVuSans-74" transform="translate(281.787109 0)"/>
      <use xlink:href="#DejaVuSans-79" transform="translate(320.996094 0)"/>
     </g>
    </g>
   </g>
   <g id="line2d_54">
    <path d="M 194.383776 195.12 
L 194.383776 28.8 
" clip-path="url(#p6de9b46b98)" style="fill: none; stroke: #000000; stroke-width: 1.5; stroke-linecap: square"/>
   </g>
   <g id="line2d_55">
    <path d="M 61.08504 195.072145 
L 62.758163 194.879306 
L 63.873579 194.533144 
L 64.71014 194.078819 
L 65.546702 193.413523 
L 66.662117 192.19068 
L 68.614094 189.525714 
L 70.008363 187.83498 
L 71.123779 186.894326 
L 72.239194 186.294401 
L 73.912318 185.45979 
L 74.470025 184.976494 
L 75.027733 184.268029 
L 75.585441 183.248963 
L 76.143148 181.830985 
L 76.700856 179.929104 
L 77.537418 176.012256 
L 78.373979 170.683142 
L 79.210541 163.920171 
L 80.325956 152.909366 
L 81.999079 133.414872 
L 85.903033 86.439576 
L 87.297303 72.500821 
L 88.691572 60.639592 
L 90.085841 50.635743 
L 91.201257 44.037302 
L 92.037818 40.182114 
L 92.595526 38.304454 
L 93.153234 37.111488 
L 93.432088 36.80841 
L 93.710941 36.72 
L 93.989795 36.859633 
L 94.268649 37.2395 
L 94.826357 38.760489 
L 95.384065 41.342647 
L 95.941772 45.004594 
L 96.778334 52.444854 
L 97.614895 61.936332 
L 99.009165 80.907123 
L 102.634265 132.144023 
L 104.028534 148.362179 
L 105.422804 161.914548 
L 106.538219 170.841577 
L 107.653634 178.114413 
L 108.76905 183.812422 
L 109.605611 187.127041 
L 110.442173 189.6986 
L 111.278735 191.613795 
L 112.115296 192.971917 
L 112.951858 193.881123 
L 113.788419 194.451171 
L 114.624981 194.783627 
L 115.740396 195.000311 
L 116.576958 195.069682 
L 116.576958 195.069682 
" clip-path="url(#p6de9b46b98)" style="fill: none; stroke-dasharray: 5.55,2.4; stroke-dashoffset: 0; stroke: #808080; stroke-width: 1.5"/>
   </g>
   <g id="patch_3">
    <path d="M 43.78125 195.12 
L 43.78125 28.8 
" style="fill: none; stroke: #000000; stroke-width: 0.8; stroke-linejoin: miter; stroke-linecap: square"/>
   </g>
   <g id="patch_4">
    <path d="M 322.78125 195.12 
L 322.78125 28.8 
" style="fill: none; stroke: #000000; stroke-width: 0.8; stroke-linejoin: miter; stroke-linecap: square"/>
   </g>
   <g id="patch_5">
    <path d="M 43.78125 195.12 
L 322.78125 195.12 
" style="fill: none; stroke: #000000; stroke-width: 0.8; stroke-linejoin: miter; stroke-linecap: square"/>
   </g>
   <g id="patch_6">
    <path d="M 43.78125 28.8 
L 322.78125 28.8 
" style="fill: none; stroke: #000000; stroke-width: 0.8; stroke-linejoin: miter; stroke-linecap: square"/>
   </g>
   <g id="text_16">
    <!-- Neg -->
    <g style="fill: #808080" transform="translate(117.489844 50.866187) scale(0.1 -0.1)">
     <defs>
      <path id="DejaVuSans-4e" d="M 628 4666 
L 1478 4666 
L 3547 763 
L 3547 4666 
L 4159 4666 
L 4159 0 
L 3309 0 
L 1241 3903 
L 1241 0 
L 628 0 
L 628 4666 
z
" transform="scale(0.015625)"/>
      <path id="DejaVuSans-67" d="M 2906 1791 
Q 2906 2416 2648 2759 
Q 2391 3103 1925 3103 
Q 1463 3103 1205 2759 
Q 947 2416 947 1791 
Q 947 1169 1205 825 
Q 1463 481 1925 481 
Q 2391 481 2648 825 
Q 2906 1169 2906 1791 
z
M 3481 434 
Q 3481 -459 3084 -895 
Q 2688 -1331 1869 -1331 
Q 1566 -1331 1297 -1286 
Q 1028 -1241 775 -1147 
L 775 -588 
Q 1028 -725 1275 -790 
Q 1522 -856 1778 -856 
Q 2344 -856 2625 -561 
Q 2906 -266 2906 331 
L 2906 616 
Q 2728 306 2450 153 
Q 2172 0 1784 0 
Q 1141 0 747 490 
Q 353 981 353 1791 
Q 353 2603 747 3093 
Q 1141 3584 1784 3584 
Q 2172 3584 2450 3431 
Q 2728 3278 2906 2969 
L 2906 3500 
L 3481 3500 
L 3481 434 
z
" transform="scale(0.015625)"/>
     </defs>
     <use xlink:href="#DejaVuSans-4e"/>
     <use xlink:href="#DejaVuSans-65" transform="translate(74.804688 0)"/>
     <use xlink:href="#DejaVuSans-67" transform="translate(136.328125 0)"/>
    </g>
    <!-- (Lhx3 only) -->
    <g style="fill: #808080" transform="translate(99.31875 62.064) scale(0.1 -0.1)">
     <defs>
      <path id="DejaVuSans-28" d="M 1984 4856 
Q 1566 4138 1362 3434 
Q 1159 2731 1159 2009 
Q 1159 1288 1364 580 
Q 1569 -128 1984 -844 
L 1484 -844 
Q 1016 -109 783 600 
Q 550 1309 550 2009 
Q 550 2706 781 3412 
Q 1013 4119 1484 4856 
L 1984 4856 
z
" transform="scale(0.015625)"/>
      <path id="DejaVuSans-4c" d="M 628 4666 
L 1259 4666 
L 1259 531 
L 3531 531 
L 3531 0 
L 628 0 
L 628 4666 
z
" transform="scale(0.015625)"/>
      <path id="DejaVuSans-68" d="M 3513 2113 
L 3513 0 
L 2938 0 
L 2938 2094 
Q 2938 2591 2744 2837 
Q 2550 3084 2163 3084 
Q 1697 3084 1428 2787 
Q 1159 2491 1159 1978 
L 1159 0 
L 581 0 
L 581 4863 
L 1159 4863 
L 1159 2956 
Q 1366 3272 1645 3428 
Q 1925 3584 2291 3584 
Q 2894 3584 3203 3211 
Q 3513 2838 3513 2113 
z
" transform="scale(0.015625)"/>
      <path id="DejaVuSans-78" d="M 3513 3500 
L 2247 1797 
L 3578 0 
L 2900 0 
L 1881 1375 
L 863 0 
L 184 0 
L 1544 1831 
L 300 3500 
L 978 3500 
L 1906 2253 
L 2834 3500 
L 3513 3500 
z
" transform="scale(0.015625)"/>
      <path id="DejaVuSans-20" transform="scale(0.015625)"/>
      <path id="DejaVuSans-6f" d="M 1959 3097 
Q 1497 3097 1228 2736 
Q 959 2375 959 1747 
Q 959 1119 1226 758 
Q 1494 397 1959 397 
Q 2419 397 2687 759 
Q 2956 1122 2956 1747 
Q 2956 2369 2687 2733 
Q 2419 3097 1959 3097 
z
M 1959 3584 
Q 2709 3584 3137 3096 
Q 3566 2609 3566 1747 
Q 3566 888 3137 398 
Q 2709 -91 1959 -91 
Q 1206 -91 779 398 
Q 353 888 353 1747 
Q 353 2609 779 3096 
Q 1206 3584 1959 3584 
z
" transform="scale(0.015625)"/>
      <path id="DejaVuSans-6c" d="M 603 4863 
L 1178 4863 
L 1178 0 
L 603 0 
L 603 4863 
z
" transform="scale(0.015625)"/>
      <path id="DejaVuSans-29" d="M 513 4856 
L 1013 4856 
Q 1481 4119 1714 3412 
Q 1947 2706 1947 2009 
Q 1947 1309 1714 600 
Q 1481 -109 1013 -844 
L 513 -844 
Q 928 -128 1133 580 
Q 1338 1288 1338 2009 
Q 1338 2731 1133 3434 
Q 928 4138 513 4856 
z
" transform="scale(0.015625)"/>
     </defs>
     <use xlink:href="#DejaVuSans-28"/>
     <use xlink:href="#DejaVuSans-4c" transform="translate(39.013672 0)"/>
     <use xlink:href="#DejaVuSans-68" transform="translate(94.726562 0)"/>
     <use xlink:href="#DejaVuSans-78" transform="translate(158.105469 0)"/>
     <use xlink:href="#DejaVuSans-33" transform="translate(217.285156 0)"/>
     <use xlink:href="#DejaVuSans-20" transform="translate(280.908203 0)"/>
     <use xlink:href="#DejaVuSans-6f" transform="translate(312.695312 0)"/>
     <use xlink:href="#DejaVuSans-6e" transform="translate(373.876953 0)"/>
     <use xlink:href="#DejaVuSans-6c" transform="translate(437.255859 0)"/>
     <use xlink:href="#DejaVuSans-79" transform="translate(465.039062 0)"/>
     <use xlink:href="#DejaVuSans-29" transform="translate(524.21875 0)"/>
    </g>
   </g>
  </g>
  <g id="text_17">
   <!-- N+I+L + DDRR, 14 dpi -->
   <g transform="translate(110.063438 16.318125) scale(0.12 -0.12)">
    <defs>
     <path id="DejaVuSans-2b" d="M 2944 4013 
L 2944 2272 
L 4684 2272 
L 4684 1741 
L 2944 1741 
L 2944 0 
L 2419 0 
L 2419 1741 
L 678 1741 
L 678 2272 
L 2419 2272 
L 2419 4013 
L 2944 4013 
z
" transform="scale(0.015625)"/>
     <path id="DejaVuSans-49" d="M 628 4666 
L 1259 4666 
L 1259 0 
L 628 0 
L 628 4666 
z
" transform="scale(0.015625)"/>
     <path id="DejaVuSans-52" d="M 2841 2188 
Q 3044 2119 3236 1894 
Q 3428 1669 3622 1275 
L 4263 0 
L 3584 0 
L 2988 1197 
Q 2756 1666 2539 1819 
Q 2322 1972 1947 1972 
L 1259 1972 
L 1259 0 
L 628 0 
L 628 4666 
L 2053 4666 
Q 2853 4666 3247 4331 
Q 3641 3997 3641 3322 
Q 3641 2881 3436 2590 
Q 3231 2300 2841 2188 
z
M 1259 4147 
L 1259 2491 
L 2053 2491 
Q 2509 2491 2742 2702 
Q 2975 2913 2975 3322 
Q 2975 3731 2742 3939 
Q 2509 4147 2053 4147 
L 1259 4147 
z
" transform="scale(0.015625)"/>
     <path id="DejaVuSans-2c" d="M 750 794 
L 1409 794 
L 1409 256 
L 897 -744 
L 494 -744 
L 750 256 
L 750 794 
z
" transform="scale(0.015625)"/>
     <path id="DejaVuSans-64" d="M 2906 2969 
L 2906 4863 
L 3481 4863 
L 3481 0 
L 2906 0 
L 2906 525 
Q 2725 213 2448 61 
Q 2172 -91 1784 -91 
Q 1150 -91 751 415 
Q 353 922 353 1747 
Q 353 2572 751 3078 
Q 1150 3584 1784 3584 
Q 2172 3584 2448 3432 
Q 2725 3281 2906 2969 
z
M 947 1747 
Q 947 1113 1208 752 
Q 1469 391 1925 391 
Q 2381 391 2643 752 
Q 2906 1113 2906 1747 
Q 2906 2381 2643 2742 
Q 2381 3103 1925 3103 
Q 1469 3103 1208 2742 
Q 947 2381 947 1747 
z
" transform="scale(0.015625)"/>
     <path id="DejaVuSans-70" d="M 1159 525 
L 1159 -1331 
L 581 -1331 
L 581 3500 
L 1159 3500 
L 1159 2969 
Q 1341 3281 1617 3432 
Q 1894 3584 2278 3584 
Q 2916 3584 3314 3078 
Q 3713 2572 3713 1747 
Q 3713 922 3314 415 
Q 2916 -91 2278 -91 
Q 1894 -91 1617 61 
Q 1341 213 1159 525 
z
M 3116 1747 
Q 3116 2381 2855 2742 
Q 2594 3103 2138 3103 
Q 1681 3103 1420 2742 
Q 1159 2381 1159 1747 
Q 1159 1113 1420 752 
Q 1681 391 2138 391 
Q 2594 391 2855 752 
Q 3116 1113 3116 1747 
z
" transform="scale(0.015625)"/>
    </defs>
    <use xlink:href="#DejaVuSans-4e"/>
    <use xlink:href="#DejaVuSans-2b" transform="translate(74.804688 0)"/>
    <use xlink:href="#DejaVuSans-49" transform="translate(158.59375 0)"/>
    <use xlink:href="#DejaVuSans-2b" transform="translate(188.085938 0)"/>
    <use xlink:href="#DejaVuSans-4c" transform="translate(271.875 0)"/>
    <use xlink:href="#DejaVuSans-20" transform="translate(327.587891 0)"/>
    <use xlink:href="#DejaVuSans-2b" transform="translate(359.375 0)"/>
    <use xlink:href="#DejaVuSans-20" transform="translate(443.164062 0)"/>
    <use xlink:href="#DejaVuSans-44" transform="translate(474.951172 0)"/>
    <use xlink:href="#DejaVuSans-44" transform="translate(551.953125 0)"/>
    <use xlink:href="#DejaVuSans-52" transform="translate(628.955078 0)"/>
    <use xlink:href="#DejaVuSans-52" transform="translate(698.4375 0)"/>
    <use xlink:href="#DejaVuSans-2c" transform="translate(767.919922 0)"/>
    <use xlink:href="#DejaVuSans-20" transform="translate(799.707031 0)"/>
    <use xlink:href="#DejaVuSans-31" transform="translate(831.494141 0)"/>
    <use xlink:href="#DejaVuSans-34" transform="translate(895.117188 0)"/>
    <use xlink:href="#DejaVuSans-20" transform="translate(958.740234 0)"/>
    <use xlink:href="#DejaVuSans-64" transform="translate(990.527344 0)"/>
    <use xlink:href="#DejaVuSans-70" transform="translate(1054.003906 0)"/>
    <use xlink:href="#DejaVuSans-69" transform="translate(1117.480469 0)"/>
   </g>
  </g>
 </g>
 <defs>
  <clipPath id="p6de9b46b98">
   <rect x="43.78125" y="28.8" width="279" height="166.32"/>
  </clipPath>
 </defs>
</svg>
