<?xml version="1.0" encoding="utf-8" standalone="no"?>
<!DOCTYPE svg PUBLIC "-//W3C//DTD SVG 1.1//EN"
  "http://www.w3.org/Graphics/SVG/1.1/DTD/svg11.dtd">
<svg xmlns:xlink="http://www.w3.org/1999/xlink" width="288.563438pt" height="405.731875pt" viewBox="0 0 288.563438 405.731875" xmlns="http://www.w3.org/2000/svg" version="1.1">
 <metadata>
  <rdf:RDF xmlns:dc="http://purl.org/dc/elements/1.1/" xmlns:cc="http://creativecommons.org/ns#" xmlns:rdf="http://www.w3.org/1999/02/22-rdf-syntax-ns#">
   <cc:Work>
    <dc:type rdf:resource="http://purl.org/dc/dcmitype/StillImage"/>
    <dc:date>2025-01-25T15:54:08.441341</dc:date>
    <dc:format>image/svg+xml</dc:format>
    <dc:creator>
     <cc:Agent>
      <dc:title>Matplotlib v3.5.2, https://matplotlib.org/</dc:title>
     </cc:Agent>
    </dc:creator>
   </cc:Work>
  </rdf:RDF>
 </metadata>
 <defs>
  <style type="text/css">*{stroke-linejoin: round; stroke-linecap: butt}</style>
 </defs>
 <g id="figure_1">
  <g id="patch_1">
   <path d="M 0 405.731875 
L 288.563438 405.731875 
L 288.563438 0 
L 0 0 
L 0 405.731875 
z
" style="fill: none"/>
  </g>
  <g id="axes_1">
   <g id="patch_2">
    <path d="M 58.163438 182.7 
L 281.363437 182.7 
L 281.363437 46.8 
L 58.163438 46.8 
z
" style="fill: #ffffff"/>
   </g>
   <g id="patch_3">
    <path d="M 68.308892 182.7 
L 92.18055 182.7 
L 92.18055 182.662611 
L 68.308892 182.662611 
z
" clip-path="url(#p01c645692f)" style="fill: #45ba45; opacity: 0.3"/>
   </g>
   <g id="patch_4">
    <path d="M 98.148464 182.7 
L 122.020122 182.7 
L 122.020122 182.697937 
L 98.148464 182.697937 
z
" clip-path="url(#p01c645692f)" style="fill: #45ba45; opacity: 0.3"/>
   </g>
   <g id="patch_5">
    <path d="M 127.988036 182.7 
L 151.859694 182.7 
L 151.859694 178.665036 
L 127.988036 178.665036 
z
" clip-path="url(#p01c645692f)" style="fill: #45ba45; opacity: 0.3"/>
   </g>
   <g id="patch_6">
    <path d="M 157.827609 182.7 
L 181.699266 182.7 
L 181.699266 180.447609 
L 157.827609 180.447609 
z
" clip-path="url(#p01c645692f)" style="fill: #45ba45; opacity: 0.3"/>
   </g>
   <g id="patch_7">
    <path d="M 187.667181 182.7 
L 211.538839 182.7 
L 211.538839 177.358211 
L 187.667181 177.358211 
z
" clip-path="url(#p01c645692f)" style="fill: #45ba45; opacity: 0.3"/>
   </g>
   <g id="patch_8">
    <path d="M 217.506753 182.7 
L 241.378411 182.7 
L 241.378411 171.20288 
L 217.506753 171.20288 
z
" clip-path="url(#p01c645692f)" style="fill: #45ba45; opacity: 0.3"/>
   </g>
   <g id="patch_9">
    <path d="M 247.346325 182.7 
L 271.217983 182.7 
L 271.217983 132.667272 
L 247.346325 132.667272 
z
" clip-path="url(#p01c645692f)" style="fill: #45ba45; opacity: 0.3"/>
   </g>
   <g id="matplotlib.axis_1">
    <g id="xtick_1">
     <g id="line2d_1">
      <defs>
       <path id="m0d20268938" d="M 0 0 
L 0 3.5 
" style="stroke: #000000; stroke-width: 0.8"/>
      </defs>
      <g>
       <use xlink:href="#m0d20268938" x="80.244721" y="182.7" style="stroke: #000000; stroke-width: 0.8"/>
      </g>
     </g>
    </g>
    <g id="xtick_2">
     <g id="line2d_2">
      <g>
       <use xlink:href="#m0d20268938" x="110.084293" y="182.7" style="stroke: #000000; stroke-width: 0.8"/>
      </g>
     </g>
    </g>
    <g id="xtick_3">
     <g id="line2d_3">
      <g>
       <use xlink:href="#m0d20268938" x="139.923865" y="182.7" style="stroke: #000000; stroke-width: 0.8"/>
      </g>
     </g>
    </g>
    <g id="xtick_4">
     <g id="line2d_4">
      <g>
       <use xlink:href="#m0d20268938" x="169.763438" y="182.7" style="stroke: #000000; stroke-width: 0.8"/>
      </g>
     </g>
    </g>
    <g id="xtick_5">
     <g id="line2d_5">
      <g>
       <use xlink:href="#m0d20268938" x="199.60301" y="182.7" style="stroke: #000000; stroke-width: 0.8"/>
      </g>
     </g>
    </g>
    <g id="xtick_6">
     <g id="line2d_6">
      <g>
       <use xlink:href="#m0d20268938" x="229.442582" y="182.7" style="stroke: #000000; stroke-width: 0.8"/>
      </g>
     </g>
    </g>
    <g id="xtick_7">
     <g id="line2d_7">
      <g>
       <use xlink:href="#m0d20268938" x="259.282154" y="182.7" style="stroke: #000000; stroke-width: 0.8"/>
      </g>
     </g>
    </g>
   </g>
   <g id="matplotlib.axis_2">
    <g id="ytick_1">
     <g id="line2d_8">
      <defs>
       <path id="m9cf396bb01" d="M 0 0 
L -3.5 0 
" style="stroke: #000000; stroke-width: 0.8"/>
      </defs>
      <g>
       <use xlink:href="#m9cf396bb01" x="58.163438" y="182.7" style="stroke: #000000; stroke-width: 0.8"/>
      </g>
     </g>
     <g id="text_1">
      <!-- 0 -->
      <g transform="translate(44.800938 186.499219)scale(0.1 -0.1)">
       <defs>
        <path id="DejaVuSans-30" d="M 2034 4250 
Q 1547 4250 1301 3770 
Q 1056 3291 1056 2328 
Q 1056 1369 1301 889 
Q 1547 409 2034 409 
Q 2525 409 2770 889 
Q 3016 1369 3016 2328 
Q 3016 3291 2770 3770 
Q 2525 4250 2034 4250 
z
M 2034 4750 
Q 2819 4750 3233 4129 
Q 3647 3509 3647 2328 
Q 3647 1150 3233 529 
Q 2819 -91 2034 -91 
Q 1250 -91 836 529 
Q 422 1150 422 2328 
Q 422 3509 836 4129 
Q 1250 4750 2034 4750 
z
" transform="scale(0.015625)"/>
       </defs>
       <use xlink:href="#DejaVuSans-30"/>
      </g>
     </g>
    </g>
    <g id="ytick_2">
     <g id="line2d_9">
      <g>
       <use xlink:href="#m9cf396bb01" x="58.163438" y="144.021281" style="stroke: #000000; stroke-width: 0.8"/>
      </g>
     </g>
     <g id="text_2">
      <!-- 100 -->
      <g transform="translate(32.075937 147.8205)scale(0.1 -0.1)">
       <defs>
        <path id="DejaVuSans-31" d="M 794 531 
L 1825 531 
L 1825 4091 
L 703 3866 
L 703 4441 
L 1819 4666 
L 2450 4666 
L 2450 531 
L 3481 531 
L 3481 0 
L 794 0 
L 794 531 
z
" transform="scale(0.015625)"/>
       </defs>
       <use xlink:href="#DejaVuSans-31"/>
       <use xlink:href="#DejaVuSans-30" x="63.623047"/>
       <use xlink:href="#DejaVuSans-30" x="127.246094"/>
      </g>
     </g>
    </g>
    <g id="ytick_3">
     <g id="line2d_10">
      <g>
       <use xlink:href="#m9cf396bb01" x="58.163438" y="105.342562" style="stroke: #000000; stroke-width: 0.8"/>
      </g>
     </g>
     <g id="text_3">
      <!-- 200 -->
      <g transform="translate(32.075937 109.141781)scale(0.1 -0.1)">
       <defs>
        <path id="DejaVuSans-32" d="M 1228 531 
L 3431 531 
L 3431 0 
L 469 0 
L 469 531 
Q 828 903 1448 1529 
Q 2069 2156 2228 2338 
Q 2531 2678 2651 2914 
Q 2772 3150 2772 3378 
Q 2772 3750 2511 3984 
Q 2250 4219 1831 4219 
Q 1534 4219 1204 4116 
Q 875 4013 500 3803 
L 500 4441 
Q 881 4594 1212 4672 
Q 1544 4750 1819 4750 
Q 2544 4750 2975 4387 
Q 3406 4025 3406 3419 
Q 3406 3131 3298 2873 
Q 3191 2616 2906 2266 
Q 2828 2175 2409 1742 
Q 1991 1309 1228 531 
z
" transform="scale(0.015625)"/>
       </defs>
       <use xlink:href="#DejaVuSans-32"/>
       <use xlink:href="#DejaVuSans-30" x="63.623047"/>
       <use xlink:href="#DejaVuSans-30" x="127.246094"/>
      </g>
     </g>
    </g>
    <g id="ytick_4">
     <g id="line2d_11">
      <g>
       <use xlink:href="#m9cf396bb01" x="58.163438" y="66.663843" style="stroke: #000000; stroke-width: 0.8"/>
      </g>
     </g>
     <g id="text_4">
      <!-- 300 -->
      <g transform="translate(32.075937 70.463062)scale(0.1 -0.1)">
       <defs>
        <path id="DejaVuSans-33" d="M 2597 2516 
Q 3050 2419 3304 2112 
Q 3559 1806 3559 1356 
Q 3559 666 3084 287 
Q 2609 -91 1734 -91 
Q 1441 -91 1130 -33 
Q 819 25 488 141 
L 488 750 
Q 750 597 1062 519 
Q 1375 441 1716 441 
Q 2309 441 2620 675 
Q 2931 909 2931 1356 
Q 2931 1769 2642 2001 
Q 2353 2234 1838 2234 
L 1294 2234 
L 1294 2753 
L 1863 2753 
Q 2328 2753 2575 2939 
Q 2822 3125 2822 3475 
Q 2822 3834 2567 4026 
Q 2313 4219 1838 4219 
Q 1578 4219 1281 4162 
Q 984 4106 628 3988 
L 628 4550 
Q 988 4650 1302 4700 
Q 1616 4750 1894 4750 
Q 2613 4750 3031 4423 
Q 3450 4097 3450 3541 
Q 3450 3153 3228 2886 
Q 3006 2619 2597 2516 
z
" transform="scale(0.015625)"/>
       </defs>
       <use xlink:href="#DejaVuSans-33"/>
       <use xlink:href="#DejaVuSans-30" x="63.623047"/>
       <use xlink:href="#DejaVuSans-30" x="127.246094"/>
      </g>
     </g>
    </g>
    <g id="text_5">
     <!-- (%) iMN yield -->
     <g transform="translate(14.798437 148.0125)rotate(-90)scale(0.1 -0.1)">
      <defs>
       <path id="DejaVuSans-28" d="M 1984 4856 
Q 1566 4138 1362 3434 
Q 1159 2731 1159 2009 
Q 1159 1288 1364 580 
Q 1569 -128 1984 -844 
L 1484 -844 
Q 1016 -109 783 600 
Q 550 1309 550 2009 
Q 550 2706 781 3412 
Q 1013 4119 1484 4856 
L 1984 4856 
z
" transform="scale(0.015625)"/>
       <path id="DejaVuSans-25" d="M 4653 2053 
Q 4381 2053 4226 1822 
Q 4072 1591 4072 1178 
Q 4072 772 4226 539 
Q 4381 306 4653 306 
Q 4919 306 5073 539 
Q 5228 772 5228 1178 
Q 5228 1588 5073 1820 
Q 4919 2053 4653 2053 
z
M 4653 2450 
Q 5147 2450 5437 2106 
Q 5728 1763 5728 1178 
Q 5728 594 5436 251 
Q 5144 -91 4653 -91 
Q 4153 -91 3862 251 
Q 3572 594 3572 1178 
Q 3572 1766 3864 2108 
Q 4156 2450 4653 2450 
z
M 1428 4353 
Q 1159 4353 1004 4120 
Q 850 3888 850 3481 
Q 850 3069 1003 2837 
Q 1156 2606 1428 2606 
Q 1700 2606 1854 2837 
Q 2009 3069 2009 3481 
Q 2009 3884 1853 4118 
Q 1697 4353 1428 4353 
z
M 4250 4750 
L 4750 4750 
L 1831 -91 
L 1331 -91 
L 4250 4750 
z
M 1428 4750 
Q 1922 4750 2215 4408 
Q 2509 4066 2509 3481 
Q 2509 2891 2217 2550 
Q 1925 2209 1428 2209 
Q 931 2209 642 2551 
Q 353 2894 353 3481 
Q 353 4063 643 4406 
Q 934 4750 1428 4750 
z
" transform="scale(0.015625)"/>
       <path id="DejaVuSans-29" d="M 513 4856 
L 1013 4856 
Q 1481 4119 1714 3412 
Q 1947 2706 1947 2009 
Q 1947 1309 1714 600 
Q 1481 -109 1013 -844 
L 513 -844 
Q 928 -128 1133 580 
Q 1338 1288 1338 2009 
Q 1338 2731 1133 3434 
Q 928 4138 513 4856 
z
" transform="scale(0.015625)"/>
       <path id="DejaVuSans-20" transform="scale(0.015625)"/>
       <path id="DejaVuSans-69" d="M 603 3500 
L 1178 3500 
L 1178 0 
L 603 0 
L 603 3500 
z
M 603 4863 
L 1178 4863 
L 1178 4134 
L 603 4134 
L 603 4863 
z
" transform="scale(0.015625)"/>
       <path id="DejaVuSans-4d" d="M 628 4666 
L 1569 4666 
L 2759 1491 
L 3956 4666 
L 4897 4666 
L 4897 0 
L 4281 0 
L 4281 4097 
L 3078 897 
L 2444 897 
L 1241 4097 
L 1241 0 
L 628 0 
L 628 4666 
z
" transform="scale(0.015625)"/>
       <path id="DejaVuSans-4e" d="M 628 4666 
L 1478 4666 
L 3547 763 
L 3547 4666 
L 4159 4666 
L 4159 0 
L 3309 0 
L 1241 3903 
L 1241 0 
L 628 0 
L 628 4666 
z
" transform="scale(0.015625)"/>
       <path id="DejaVuSans-79" d="M 2059 -325 
Q 1816 -950 1584 -1140 
Q 1353 -1331 966 -1331 
L 506 -1331 
L 506 -850 
L 844 -850 
Q 1081 -850 1212 -737 
Q 1344 -625 1503 -206 
L 1606 56 
L 191 3500 
L 800 3500 
L 1894 763 
L 2988 3500 
L 3597 3500 
L 2059 -325 
z
" transform="scale(0.015625)"/>
       <path id="DejaVuSans-65" d="M 3597 1894 
L 3597 1613 
L 953 1613 
Q 991 1019 1311 708 
Q 1631 397 2203 397 
Q 2534 397 2845 478 
Q 3156 559 3463 722 
L 3463 178 
Q 3153 47 2828 -22 
Q 2503 -91 2169 -91 
Q 1331 -91 842 396 
Q 353 884 353 1716 
Q 353 2575 817 3079 
Q 1281 3584 2069 3584 
Q 2775 3584 3186 3129 
Q 3597 2675 3597 1894 
z
M 3022 2063 
Q 3016 2534 2758 2815 
Q 2500 3097 2075 3097 
Q 1594 3097 1305 2825 
Q 1016 2553 972 2059 
L 3022 2063 
z
" transform="scale(0.015625)"/>
       <path id="DejaVuSans-6c" d="M 603 4863 
L 1178 4863 
L 1178 0 
L 603 0 
L 603 4863 
z
" transform="scale(0.015625)"/>
       <path id="DejaVuSans-64" d="M 2906 2969 
L 2906 4863 
L 3481 4863 
L 3481 0 
L 2906 0 
L 2906 525 
Q 2725 213 2448 61 
Q 2172 -91 1784 -91 
Q 1150 -91 751 415 
Q 353 922 353 1747 
Q 353 2572 751 3078 
Q 1150 3584 1784 3584 
Q 2172 3584 2448 3432 
Q 2725 3281 2906 2969 
z
M 947 1747 
Q 947 1113 1208 752 
Q 1469 391 1925 391 
Q 2381 391 2643 752 
Q 2906 1113 2906 1747 
Q 2906 2381 2643 2742 
Q 2381 3103 1925 3103 
Q 1469 3103 1208 2742 
Q 947 2381 947 1747 
z
" transform="scale(0.015625)"/>
      </defs>
      <use xlink:href="#DejaVuSans-28"/>
      <use xlink:href="#DejaVuSans-25" x="39.013672"/>
      <use xlink:href="#DejaVuSans-29" x="134.033203"/>
      <use xlink:href="#DejaVuSans-20" x="173.046875"/>
      <use xlink:href="#DejaVuSans-69" x="204.833984"/>
      <use xlink:href="#DejaVuSans-4d" x="232.617188"/>
      <use xlink:href="#DejaVuSans-4e" x="318.896484"/>
      <use xlink:href="#DejaVuSans-20" x="393.701172"/>
      <use xlink:href="#DejaVuSans-79" x="425.488281"/>
      <use xlink:href="#DejaVuSans-69" x="484.667969"/>
      <use xlink:href="#DejaVuSans-65" x="512.451172"/>
      <use xlink:href="#DejaVuSans-6c" x="573.974609"/>
      <use xlink:href="#DejaVuSans-64" x="601.757812"/>
     </g>
     <!-- per MEF plated -->
     <g transform="translate(25.99625 152.421875)rotate(-90)scale(0.1 -0.1)">
      <defs>
       <path id="DejaVuSans-70" d="M 1159 525 
L 1159 -1331 
L 581 -1331 
L 581 3500 
L 1159 3500 
L 1159 2969 
Q 1341 3281 1617 3432 
Q 1894 3584 2278 3584 
Q 2916 3584 3314 3078 
Q 3713 2572 3713 1747 
Q 3713 922 3314 415 
Q 2916 -91 2278 -91 
Q 1894 -91 1617 61 
Q 1341 213 1159 525 
z
M 3116 1747 
Q 3116 2381 2855 2742 
Q 2594 3103 2138 3103 
Q 1681 3103 1420 2742 
Q 1159 2381 1159 1747 
Q 1159 1113 1420 752 
Q 1681 391 2138 391 
Q 2594 391 2855 752 
Q 3116 1113 3116 1747 
z
" transform="scale(0.015625)"/>
       <path id="DejaVuSans-72" d="M 2631 2963 
Q 2534 3019 2420 3045 
Q 2306 3072 2169 3072 
Q 1681 3072 1420 2755 
Q 1159 2438 1159 1844 
L 1159 0 
L 581 0 
L 581 3500 
L 1159 3500 
L 1159 2956 
Q 1341 3275 1631 3429 
Q 1922 3584 2338 3584 
Q 2397 3584 2469 3576 
Q 2541 3569 2628 3553 
L 2631 2963 
z
" transform="scale(0.015625)"/>
       <path id="DejaVuSans-45" d="M 628 4666 
L 3578 4666 
L 3578 4134 
L 1259 4134 
L 1259 2753 
L 3481 2753 
L 3481 2222 
L 1259 2222 
L 1259 531 
L 3634 531 
L 3634 0 
L 628 0 
L 628 4666 
z
" transform="scale(0.015625)"/>
       <path id="DejaVuSans-46" d="M 628 4666 
L 3309 4666 
L 3309 4134 
L 1259 4134 
L 1259 2759 
L 3109 2759 
L 3109 2228 
L 1259 2228 
L 1259 0 
L 628 0 
L 628 4666 
z
" transform="scale(0.015625)"/>
       <path id="DejaVuSans-61" d="M 2194 1759 
Q 1497 1759 1228 1600 
Q 959 1441 959 1056 
Q 959 750 1161 570 
Q 1363 391 1709 391 
Q 2188 391 2477 730 
Q 2766 1069 2766 1631 
L 2766 1759 
L 2194 1759 
z
M 3341 1997 
L 3341 0 
L 2766 0 
L 2766 531 
Q 2569 213 2275 61 
Q 1981 -91 1556 -91 
Q 1019 -91 701 211 
Q 384 513 384 1019 
Q 384 1609 779 1909 
Q 1175 2209 1959 2209 
L 2766 2209 
L 2766 2266 
Q 2766 2663 2505 2880 
Q 2244 3097 1772 3097 
Q 1472 3097 1187 3025 
Q 903 2953 641 2809 
L 641 3341 
Q 956 3463 1253 3523 
Q 1550 3584 1831 3584 
Q 2591 3584 2966 3190 
Q 3341 2797 3341 1997 
z
" transform="scale(0.015625)"/>
       <path id="DejaVuSans-74" d="M 1172 4494 
L 1172 3500 
L 2356 3500 
L 2356 3053 
L 1172 3053 
L 1172 1153 
Q 1172 725 1289 603 
Q 1406 481 1766 481 
L 2356 481 
L 2356 0 
L 1766 0 
Q 1100 0 847 248 
Q 594 497 594 1153 
L 594 3053 
L 172 3053 
L 172 3500 
L 594 3500 
L 594 4494 
L 1172 4494 
z
" transform="scale(0.015625)"/>
      </defs>
      <use xlink:href="#DejaVuSans-70"/>
      <use xlink:href="#DejaVuSans-65" x="63.476562"/>
      <use xlink:href="#DejaVuSans-72" x="125"/>
      <use xlink:href="#DejaVuSans-20" x="166.113281"/>
      <use xlink:href="#DejaVuSans-4d" x="197.900391"/>
      <use xlink:href="#DejaVuSans-45" x="284.179688"/>
      <use xlink:href="#DejaVuSans-46" x="347.363281"/>
      <use xlink:href="#DejaVuSans-20" x="404.882812"/>
      <use xlink:href="#DejaVuSans-70" x="436.669922"/>
      <use xlink:href="#DejaVuSans-6c" x="500.146484"/>
      <use xlink:href="#DejaVuSans-61" x="527.929688"/>
      <use xlink:href="#DejaVuSans-74" x="589.208984"/>
      <use xlink:href="#DejaVuSans-65" x="628.417969"/>
      <use xlink:href="#DejaVuSans-64" x="689.941406"/>
     </g>
    </g>
   </g>
   <g id="line2d_12">
    <path d="M 80.244721 182.676019 
L 80.244721 182.648507 
" clip-path="url(#p01c645692f)" style="fill: none; stroke: #424242; stroke-width: 2.7; stroke-linecap: square"/>
   </g>
   <g id="line2d_13">
    <path d="M 110.084293 182.7 
L 110.084293 182.691749 
" clip-path="url(#p01c645692f)" style="fill: none; stroke: #424242; stroke-width: 2.7; stroke-linecap: square"/>
   </g>
   <g id="line2d_14">
    <path d="M 139.923865 178.944641 
L 139.923865 178.306581 
" clip-path="url(#p01c645692f)" style="fill: none; stroke: #424242; stroke-width: 2.7; stroke-linecap: square"/>
   </g>
   <g id="line2d_15">
    <path d="M 169.763438 180.823164 
L 169.763438 180.047897 
" clip-path="url(#p01c645692f)" style="fill: none; stroke: #424242; stroke-width: 2.7; stroke-linecap: square"/>
   </g>
   <g id="line2d_16">
    <path d="M 199.60301 177.886146 
L 199.60301 176.767099 
" clip-path="url(#p01c645692f)" style="fill: none; stroke: #424242; stroke-width: 2.7; stroke-linecap: square"/>
   </g>
   <g id="line2d_17">
    <path d="M 229.442582 172.836546 
L 229.442582 169.238438 
" clip-path="url(#p01c645692f)" style="fill: none; stroke: #424242; stroke-width: 2.7; stroke-linecap: square"/>
   </g>
   <g id="line2d_18">
    <path d="M 259.282154 143.427777 
L 259.282154 122.299639 
" clip-path="url(#p01c645692f)" style="fill: none; stroke: #424242; stroke-width: 2.7; stroke-linecap: square"/>
   </g>
   <g id="line2d_19">
    <path d="M 229.442582 93.138154 
L 229.442582 91.368823 
L 259.282154 91.368823 
L 259.282154 93.138154 
" clip-path="url(#p01c645692f)" style="fill: none; stroke: #333333; stroke-width: 1.5; stroke-linecap: square"/>
   </g>
   <g id="line2d_20">
    <path d="M 199.60301 77.047528 
L 199.60301 75.278197 
L 259.282154 75.278197 
L 259.282154 77.047528 
" clip-path="url(#p01c645692f)" style="fill: none; stroke: #333333; stroke-width: 1.5; stroke-linecap: square"/>
   </g>
   <g id="line2d_21">
    <path d="M 169.763437 60.956902 
L 169.763437 59.187571 
L 259.282154 59.187571 
L 259.282154 60.956902 
" clip-path="url(#p01c645692f)" style="fill: none; stroke: #333333; stroke-width: 1.5; stroke-linecap: square"/>
   </g>
   <g id="patch_10">
    <path d="M 58.163438 182.7 
L 58.163438 46.8 
" style="fill: none; stroke: #000000; stroke-width: 0.8; stroke-linejoin: miter; stroke-linecap: square"/>
   </g>
   <g id="patch_11">
    <path d="M 281.363437 182.7 
L 281.363437 46.8 
" style="fill: none; stroke: #000000; stroke-width: 0.8; stroke-linejoin: miter; stroke-linecap: square"/>
   </g>
   <g id="patch_12">
    <path d="M 58.163438 182.7 
L 281.363437 182.7 
" style="fill: none; stroke: #000000; stroke-width: 0.8; stroke-linejoin: miter; stroke-linecap: square"/>
   </g>
   <g id="patch_13">
    <path d="M 58.163438 46.8 
L 281.363437 46.8 
" style="fill: none; stroke: #000000; stroke-width: 0.8; stroke-linejoin: miter; stroke-linecap: square"/>
   </g>
   <g id="PathCollection_1">
    <defs>
     <path id="C0_0_f098486a85" d="M 0 2.5 
C 0.663008 2.5 1.29895 2.236584 1.767767 1.767767 
C 2.236584 1.29895 2.5 0.663008 2.5 -0 
C 2.5 -0.663008 2.236584 -1.29895 1.767767 -1.767767 
C 1.29895 -2.236584 0.663008 -2.5 0 -2.5 
C -0.663008 -2.5 -1.29895 -2.236584 -1.767767 -1.767767 
C -2.236584 -1.29895 -2.5 -0.663008 -2.5 0 
C -2.5 0.663008 -2.236584 1.29895 -1.767767 1.767767 
C -1.29895 2.236584 -0.663008 2.5 0 2.5 
z
"/>
    </defs>
    <g clip-path="url(#p01c645692f)">
     <use xlink:href="#C0_0_f098486a85" x="82.721356" y="182.7" style="fill: #ffffff; stroke: #000000; stroke-width: 0.4"/>
    </g>
    <g clip-path="url(#p01c645692f)">
     <use xlink:href="#C0_0_f098486a85" x="77.384129" y="182.696132" style="fill: #ffffff; stroke: #000000; stroke-width: 0.4"/>
    </g>
    <g clip-path="url(#p01c645692f)">
     <use xlink:href="#C0_0_f098486a85" x="77.597744" y="182.634246" style="fill: #ffffff; stroke: #000000; stroke-width: 0.4"/>
    </g>
    <g clip-path="url(#p01c645692f)">
     <use xlink:href="#C0_0_f098486a85" x="80.624749" y="182.665189" style="fill: #ffffff; stroke: #000000; stroke-width: 0.4"/>
    </g>
   </g>
   <g id="PathCollection_2">
    <defs>
     <path id="C1_0_c4cdb060eb" d="M 0 2.5 
C 0.663008 2.5 1.29895 2.236584 1.767767 1.767767 
C 2.236584 1.29895 2.5 0.663008 2.5 -0 
C 2.5 -0.663008 2.236584 -1.29895 1.767767 -1.767767 
C 1.29895 -2.236584 0.663008 -2.5 0 -2.5 
C -0.663008 -2.5 -1.29895 -2.236584 -1.767767 -1.767767 
C -2.236584 -1.29895 -2.5 -0.663008 -2.5 0 
C -2.5 0.663008 -2.236584 1.29895 -1.767767 1.767767 
C -1.29895 2.236584 -0.663008 2.5 0 2.5 
z
"/>
    </defs>
    <g clip-path="url(#p01c645692f)">
     <use xlink:href="#C1_0_c4cdb060eb" x="107.378828" y="182.7" style="fill: #ffffff; stroke: #000000; stroke-width: 0.4"/>
    </g>
    <g clip-path="url(#p01c645692f)">
     <use xlink:href="#C1_0_c4cdb060eb" x="109.069572" y="182.7" style="fill: #ffffff; stroke: #000000; stroke-width: 0.4"/>
    </g>
    <g clip-path="url(#p01c645692f)">
     <use xlink:href="#C1_0_c4cdb060eb" x="109.316316" y="182.7" style="fill: #ffffff; stroke: #000000; stroke-width: 0.4"/>
    </g>
    <g clip-path="url(#p01c645692f)">
     <use xlink:href="#C1_0_c4cdb060eb" x="107.445646" y="182.7" style="fill: #ffffff; stroke: #000000; stroke-width: 0.4"/>
    </g>
   </g>
   <g id="PathCollection_3">
    <defs>
     <path id="C2_0_5b4f1dc1e1" d="M 0 2.5 
C 0.663008 2.5 1.29895 2.236584 1.767767 1.767767 
C 2.236584 1.29895 2.5 0.663008 2.5 -0 
C 2.5 -0.663008 2.236584 -1.29895 1.767767 -1.767767 
C 1.29895 -2.236584 0.663008 -2.5 0 -2.5 
C -0.663008 -2.5 -1.29895 -2.236584 -1.767767 -1.767767 
C -2.236584 -1.29895 -2.5 -0.663008 -2.5 0 
C -2.5 0.663008 -2.236584 1.29895 -1.767767 1.767767 
C -1.29895 2.236584 -0.663008 2.5 0 2.5 
z
"/>
    </defs>
    <g clip-path="url(#p01c645692f)">
     <use xlink:href="#C2_0_5b4f1dc1e1" x="141.160151" y="179.238255" style="fill: #ffffff; stroke: #000000; stroke-width: 0.4"/>
    </g>
    <g clip-path="url(#p01c645692f)">
     <use xlink:href="#C2_0_5b4f1dc1e1" x="142.835203" y="179.102879" style="fill: #ffffff; stroke: #000000; stroke-width: 0.4"/>
    </g>
    <g clip-path="url(#p01c645692f)">
     <use xlink:href="#C2_0_5b4f1dc1e1" x="142.439468" y="179.273066" style="fill: #ffffff; stroke: #000000; stroke-width: 0.4"/>
    </g>
    <g clip-path="url(#p01c645692f)">
     <use xlink:href="#C2_0_5b4f1dc1e1" x="141.874159" y="177.551863" style="fill: #ffffff; stroke: #000000; stroke-width: 0.4"/>
    </g>
   </g>
   <g id="PathCollection_4">
    <defs>
     <path id="C3_0_7025871106" d="M 0 2.5 
C 0.663008 2.5 1.29895 2.236584 1.767767 1.767767 
C 2.236584 1.29895 2.5 0.663008 2.5 -0 
C 2.5 -0.663008 2.236584 -1.29895 1.767767 -1.767767 
C 1.29895 -2.236584 0.663008 -2.5 0 -2.5 
C -0.663008 -2.5 -1.29895 -2.236584 -1.767767 -1.767767 
C -2.236584 -1.29895 -2.5 -0.663008 -2.5 0 
C -2.5 0.663008 -2.236584 1.29895 -1.767767 1.767767 
C -1.29895 2.236584 -0.663008 2.5 0 2.5 
z
"/>
    </defs>
    <g clip-path="url(#p01c645692f)">
     <use xlink:href="#C3_0_7025871106" x="171.308091" y="179.984754" style="fill: #ffffff; stroke: #000000; stroke-width: 0.4"/>
    </g>
    <g clip-path="url(#p01c645692f)">
     <use xlink:href="#C3_0_7025871106" x="171.836754" y="179.961547" style="fill: #ffffff; stroke: #000000; stroke-width: 0.4"/>
    </g>
    <g clip-path="url(#p01c645692f)">
     <use xlink:href="#C3_0_7025871106" x="168.083237" y="179.08354" style="fill: #ffffff; stroke: #000000; stroke-width: 0.4"/>
    </g>
    <g clip-path="url(#p01c645692f)">
     <use xlink:href="#C3_0_7025871106" x="171.503869" y="179.153161" style="fill: #ffffff; stroke: #000000; stroke-width: 0.4"/>
    </g>
   </g>
   <g id="PathCollection_5">
    <defs>
     <path id="C4_0_a13fd8ed76" d="M 0 2.5 
C 0.663008 2.5 1.29895 2.236584 1.767767 1.767767 
C 2.236584 1.29895 2.5 0.663008 2.5 -0 
C 2.5 -0.663008 2.236584 -1.29895 1.767767 -1.767767 
C 1.29895 -2.236584 0.663008 -2.5 0 -2.5 
C -0.663008 -2.5 -1.29895 -2.236584 -1.767767 -1.767767 
C -2.236584 -1.29895 -2.5 -0.663008 -2.5 0 
C -2.5 0.663008 -2.236584 1.29895 -1.767767 1.767767 
C -1.29895 2.236584 -0.663008 2.5 0 2.5 
z
"/>
    </defs>
    <g clip-path="url(#p01c645692f)">
     <use xlink:href="#C4_0_a13fd8ed76" x="200.26077" y="174.867559" style="fill: #ffffff; stroke: #000000; stroke-width: 0.4"/>
    </g>
    <g clip-path="url(#p01c645692f)">
     <use xlink:href="#C4_0_a13fd8ed76" x="199.672799" y="178.298362" style="fill: #ffffff; stroke: #000000; stroke-width: 0.4"/>
    </g>
    <g clip-path="url(#p01c645692f)">
     <use xlink:href="#C4_0_a13fd8ed76" x="201.674088" y="176.797627" style="fill: #ffffff; stroke: #000000; stroke-width: 0.4"/>
    </g>
    <g clip-path="url(#p01c645692f)">
     <use xlink:href="#C4_0_a13fd8ed76" x="201.670631" y="177.462901" style="fill: #ffffff; stroke: #000000; stroke-width: 0.4"/>
    </g>
   </g>
   <g id="PathCollection_6">
    <defs>
     <path id="C5_0_5ef18fbcb3" d="M 0 2.5 
C 0.663008 2.5 1.29895 2.236584 1.767767 1.767767 
C 2.236584 1.29895 2.5 0.663008 2.5 -0 
C 2.5 -0.663008 2.236584 -1.29895 1.767767 -1.767767 
C 1.29895 -2.236584 0.663008 -2.5 0 -2.5 
C -0.663008 -2.5 -1.29895 -2.236584 -1.767767 -1.767767 
C -2.236584 -1.29895 -2.5 -0.663008 -2.5 0 
C -2.5 0.663008 -2.236584 1.29895 -1.767767 1.767767 
C -1.29895 2.236584 -0.663008 2.5 0 2.5 
z
"/>
    </defs>
    <g clip-path="url(#p01c645692f)">
     <use xlink:href="#C5_0_5ef18fbcb3" x="228.415647" y="168.86849" style="fill: #ffffff; stroke: #000000; stroke-width: 0.4"/>
    </g>
    <g clip-path="url(#p01c645692f)">
     <use xlink:href="#C5_0_5ef18fbcb3" x="229.19317" y="171.243363" style="fill: #ffffff; stroke: #000000; stroke-width: 0.4"/>
    </g>
    <g clip-path="url(#p01c645692f)">
     <use xlink:href="#C5_0_5ef18fbcb3" x="230.560361" y="169.52216" style="fill: #ffffff; stroke: #000000; stroke-width: 0.4"/>
    </g>
    <g clip-path="url(#p01c645692f)">
     <use xlink:href="#C5_0_5ef18fbcb3" x="231.451999" y="163.229133" style="fill: #ffffff; stroke: #000000; stroke-width: 0.4"/>
    </g>
   </g>
   <g id="PathCollection_7">
    <defs>
     <path id="C6_0_b91b8f1e70" d="M 0 2.5 
C 0.663008 2.5 1.29895 2.236584 1.767767 1.767767 
C 2.236584 1.29895 2.5 0.663008 2.5 -0 
C 2.5 -0.663008 2.236584 -1.29895 1.767767 -1.767767 
C 1.29895 -2.236584 0.663008 -2.5 0 -2.5 
C -0.663008 -2.5 -1.29895 -2.236584 -1.767767 -1.767767 
C -2.236584 -1.29895 -2.5 -0.663008 -2.5 0 
C -2.5 0.663008 -2.236584 1.29895 -1.767767 1.767767 
C -1.29895 2.236584 -0.663008 2.5 0 2.5 
z
"/>
    </defs>
    <g clip-path="url(#p01c645692f)">
     <use xlink:href="#C6_0_b91b8f1e70" x="261.701199" y="98.446147" style="fill: #ffffff; stroke: #000000; stroke-width: 0.4"/>
    </g>
    <g clip-path="url(#p01c645692f)">
     <use xlink:href="#C6_0_b91b8f1e70" x="262.216047" y="111.805776" style="fill: #ffffff; stroke: #000000; stroke-width: 0.4"/>
    </g>
    <g clip-path="url(#p01c645692f)">
     <use xlink:href="#C6_0_b91b8f1e70" x="261.037059" y="109.353545" style="fill: #ffffff; stroke: #000000; stroke-width: 0.4"/>
    </g>
    <g clip-path="url(#p01c645692f)">
     <use xlink:href="#C6_0_b91b8f1e70" x="257.848501" y="106.765939" style="fill: #ffffff; stroke: #000000; stroke-width: 0.4"/>
    </g>
   </g>
   <g id="PathCollection_8">
    <path d="M 79.517322 185.149718 
L 84.517322 185.149718 
L 84.517322 180.149718 
L 79.517322 180.149718 
z
" clip-path="url(#p01c645692f)" style="fill: #ffffff; stroke: #000000; stroke-width: 0.4"/>
    <path d="M 78.338714 185.169057 
L 83.338714 185.169057 
L 83.338714 180.169057 
L 78.338714 180.169057 
z
" clip-path="url(#p01c645692f)" style="fill: #ffffff; stroke: #000000; stroke-width: 0.4"/>
    <path d="M 80.18899 185.161321 
L 85.18899 185.161321 
L 85.18899 180.161321 
L 80.18899 180.161321 
z
" clip-path="url(#p01c645692f)" style="fill: #ffffff; stroke: #000000; stroke-width: 0.4"/>
    <path d="M 80.544822 185.165189 
L 85.544822 185.165189 
L 85.544822 180.165189 
L 80.544822 180.165189 
z
" clip-path="url(#p01c645692f)" style="fill: #ffffff; stroke: #000000; stroke-width: 0.4"/>
   </g>
   <g id="PathCollection_9">
    <path d="M 105.165924 185.2 
L 110.165924 185.2 
L 110.165924 180.2 
L 105.165924 180.2 
z
" clip-path="url(#p01c645692f)" style="fill: #ffffff; stroke: #000000; stroke-width: 0.4"/>
    <path d="M 107.968097 185.2 
L 112.968097 185.2 
L 112.968097 180.2 
L 107.968097 180.2 
z
" clip-path="url(#p01c645692f)" style="fill: #ffffff; stroke: #000000; stroke-width: 0.4"/>
    <path d="M 104.871019 185.169057 
L 109.871019 185.169057 
L 109.871019 180.169057 
L 104.871019 180.169057 
z
" clip-path="url(#p01c645692f)" style="fill: #ffffff; stroke: #000000; stroke-width: 0.4"/>
    <path d="M 106.448381 185.2 
L 111.448381 185.2 
L 111.448381 180.2 
L 106.448381 180.2 
z
" clip-path="url(#p01c645692f)" style="fill: #ffffff; stroke: #000000; stroke-width: 0.4"/>
   </g>
   <g id="PathCollection_10">
    <path d="M 137.446516 181.007227 
L 142.446516 181.007227 
L 142.446516 176.007227 
L 137.446516 176.007227 
z
" clip-path="url(#p01c645692f)" style="fill: #ffffff; stroke: #000000; stroke-width: 0.4"/>
    <path d="M 138.856381 180.887323 
L 143.856381 180.887323 
L 143.856381 175.887323 
L 138.856381 175.887323 
z
" clip-path="url(#p01c645692f)" style="fill: #ffffff; stroke: #000000; stroke-width: 0.4"/>
    <path d="M 139.82911 181.192885 
L 144.82911 181.192885 
L 144.82911 176.192885 
L 139.82911 176.192885 
z
" clip-path="url(#p01c645692f)" style="fill: #ffffff; stroke: #000000; stroke-width: 0.4"/>
    <path d="M 136.497162 180.62044 
L 141.497162 180.62044 
L 141.497162 175.62044 
L 136.497162 175.62044 
z
" clip-path="url(#p01c645692f)" style="fill: #ffffff; stroke: #000000; stroke-width: 0.4"/>
   </g>
   <g id="PathCollection_11">
    <path d="M 166.94663 183.343421 
L 171.94663 183.343421 
L 171.94663 178.343421 
L 166.94663 178.343421 
z
" clip-path="url(#p01c645692f)" style="fill: #ffffff; stroke: #000000; stroke-width: 0.4"/>
    <path d="M 165.599647 182.747769 
L 170.599647 182.747769 
L 170.599647 177.747769 
L 165.599647 177.747769 
z
" clip-path="url(#p01c645692f)" style="fill: #ffffff; stroke: #000000; stroke-width: 0.4"/>
    <path d="M 166.406183 183.703134 
L 171.406183 183.703134 
L 171.406183 178.703134 
L 166.406183 178.703134 
z
" clip-path="url(#p01c645692f)" style="fill: #ffffff; stroke: #000000; stroke-width: 0.4"/>
    <path d="M 169.180047 182.871541 
L 174.180047 182.871541 
L 174.180047 177.871541 
L 169.180047 177.871541 
z
" clip-path="url(#p01c645692f)" style="fill: #ffffff; stroke: #000000; stroke-width: 0.4"/>
   </g>
   <g id="PathCollection_12">
    <path d="M 196.675604 180.80223 
L 201.675604 180.80223 
L 201.675604 175.80223 
L 196.675604 175.80223 
z
" clip-path="url(#p01c645692f)" style="fill: #ffffff; stroke: #000000; stroke-width: 0.4"/>
    <path d="M 199.24958 180.017052 
L 204.24958 180.017052 
L 204.24958 175.017052 
L 199.24958 175.017052 
z
" clip-path="url(#p01c645692f)" style="fill: #ffffff; stroke: #000000; stroke-width: 0.4"/>
    <path d="M 194.531074 180.987888 
L 199.531074 180.987888 
L 199.531074 175.987888 
L 194.531074 175.987888 
z
" clip-path="url(#p01c645692f)" style="fill: #ffffff; stroke: #000000; stroke-width: 0.4"/>
    <path d="M 198.222378 179.40206 
L 203.222378 179.40206 
L 203.222378 174.40206 
L 198.222378 174.40206 
z
" clip-path="url(#p01c645692f)" style="fill: #ffffff; stroke: #000000; stroke-width: 0.4"/>
   </g>
   <g id="PathCollection_13">
    <path d="M 228.87461 176.447006 
L 233.87461 176.447006 
L 233.87461 171.447006 
L 228.87461 171.447006 
z
" clip-path="url(#p01c645692f)" style="fill: #ffffff; stroke: #000000; stroke-width: 0.4"/>
    <path d="M 227.677688 176.392856 
L 232.677688 176.392856 
L 232.677688 171.392856 
L 227.677688 171.392856 
z
" clip-path="url(#p01c645692f)" style="fill: #ffffff; stroke: #000000; stroke-width: 0.4"/>
    <path d="M 225.199163 174.714199 
L 230.199163 174.714199 
L 230.199163 169.714199 
L 225.199163 169.714199 
z
" clip-path="url(#p01c645692f)" style="fill: #ffffff; stroke: #000000; stroke-width: 0.4"/>
    <path d="M 225.847903 173.553838 
L 230.847903 173.553838 
L 230.847903 168.553838 
L 225.847903 168.553838 
z
" clip-path="url(#p01c645692f)" style="fill: #ffffff; stroke: #000000; stroke-width: 0.4"/>
   </g>
   <g id="PathCollection_14">
    <path d="M 259.43538 144.212162 
L 264.43538 144.212162 
L 264.43538 139.212162 
L 259.43538 139.212162 
z
" clip-path="url(#p01c645692f)" style="fill: #ffffff; stroke: #000000; stroke-width: 0.4"/>
    <path d="M 258.53585 145.163658 
L 263.53585 145.163658 
L 263.53585 140.163658 
L 258.53585 140.163658 
z
" clip-path="url(#p01c645692f)" style="fill: #ffffff; stroke: #000000; stroke-width: 0.4"/>
    <path d="M 256.352173 146.788164 
L 261.352173 146.788164 
L 261.352173 141.788164 
L 256.352173 141.788164 
z
" clip-path="url(#p01c645692f)" style="fill: #ffffff; stroke: #000000; stroke-width: 0.4"/>
    <path d="M 253.871816 144.780739 
L 258.871816 144.780739 
L 258.871816 139.780739 
L 253.871816 139.780739 
z
" clip-path="url(#p01c645692f)" style="fill: #ffffff; stroke: #000000; stroke-width: 0.4"/>
   </g>
   <g id="PathCollection_15">
    <path d="M 82.556253 180.14585 
L 80.056253 185.14585 
L 85.056253 185.14585 
z
" clip-path="url(#p01c645692f)" style="fill: #ffffff; stroke: #000000; stroke-width: 0.4"/>
    <path d="M 79.943267 180.169057 
L 77.443267 185.169057 
L 82.443267 185.169057 
z
" clip-path="url(#p01c645692f)" style="fill: #ffffff; stroke: #000000; stroke-width: 0.4"/>
    <path d="M 79.072763 180.130378 
L 76.572763 185.130378 
L 81.572763 185.130378 
z
" clip-path="url(#p01c645692f)" style="fill: #ffffff; stroke: #000000; stroke-width: 0.4"/>
    <path d="M 79.288517 180.172925 
L 76.788517 185.172925 
L 81.788517 185.172925 
z
" clip-path="url(#p01c645692f)" style="fill: #ffffff; stroke: #000000; stroke-width: 0.4"/>
   </g>
   <g id="PathCollection_16">
    <path d="M 111.406884 180.2 
L 108.906884 185.2 
L 113.906884 185.2 
z
" clip-path="url(#p01c645692f)" style="fill: #ffffff; stroke: #000000; stroke-width: 0.4"/>
    <path d="M 112.850431 180.2 
L 110.350431 185.2 
L 115.350431 185.2 
z
" clip-path="url(#p01c645692f)" style="fill: #ffffff; stroke: #000000; stroke-width: 0.4"/>
    <path d="M 110.061854 180.2 
L 107.561854 185.2 
L 112.561854 185.2 
z
" clip-path="url(#p01c645692f)" style="fill: #ffffff; stroke: #000000; stroke-width: 0.4"/>
    <path d="M 112.917321 180.2 
L 110.417321 185.2 
L 115.417321 185.2 
z
" clip-path="url(#p01c645692f)" style="fill: #ffffff; stroke: #000000; stroke-width: 0.4"/>
   </g>
   <g id="PathCollection_17">
    <path d="M 139.705498 176.869762 
L 137.205498 181.869762 
L 142.205498 181.869762 
z
" clip-path="url(#p01c645692f)" style="fill: #ffffff; stroke: #000000; stroke-width: 0.4"/>
    <path d="M 139.805631 176.5642 
L 137.305631 181.5642 
L 142.305631 181.5642 
z
" clip-path="url(#p01c645692f)" style="fill: #ffffff; stroke: #000000; stroke-width: 0.4"/>
    <path d="M 140.508582 176.366939 
L 138.008582 181.366939 
L 143.008582 181.366939 
z
" clip-path="url(#p01c645692f)" style="fill: #ffffff; stroke: #000000; stroke-width: 0.4"/>
    <path d="M 141.197714 176.154206 
L 138.697714 181.154206 
L 143.697714 181.154206 
z
" clip-path="url(#p01c645692f)" style="fill: #ffffff; stroke: #000000; stroke-width: 0.4"/>
   </g>
   <g id="PathCollection_18">
    <path d="M 172.009341 178.463326 
L 169.509341 183.463326 
L 174.509341 183.463326 
z
" clip-path="url(#p01c645692f)" style="fill: #ffffff; stroke: #000000; stroke-width: 0.4"/>
    <path d="M 167.55964 178.157764 
L 165.05964 183.157764 
L 170.05964 183.157764 
z
" clip-path="url(#p01c645692f)" style="fill: #ffffff; stroke: #000000; stroke-width: 0.4"/>
    <path d="M 167.471517 178.687662 
L 164.971517 183.687662 
L 169.971517 183.687662 
z
" clip-path="url(#p01c645692f)" style="fill: #ffffff; stroke: #000000; stroke-width: 0.4"/>
    <path d="M 169.188366 177.844466 
L 166.688366 182.844466 
L 171.688366 182.844466 
z
" clip-path="url(#p01c645692f)" style="fill: #ffffff; stroke: #000000; stroke-width: 0.4"/>
   </g>
   <g id="PathCollection_19">
    <path d="M 199.114335 175.488932 
L 196.614335 180.488932 
L 201.614335 180.488932 
z
" clip-path="url(#p01c645692f)" style="fill: #ffffff; stroke: #000000; stroke-width: 0.4"/>
    <path d="M 200.232902 176.413353 
L 197.732902 181.413353 
L 202.732902 181.413353 
z
" clip-path="url(#p01c645692f)" style="fill: #ffffff; stroke: #000000; stroke-width: 0.4"/>
    <path d="M 198.396119 174.962901 
L 195.896119 179.962901 
L 200.896119 179.962901 
z
" clip-path="url(#p01c645692f)" style="fill: #ffffff; stroke: #000000; stroke-width: 0.4"/>
    <path d="M 200.641368 175.05573 
L 198.141368 180.05573 
L 203.141368 180.05573 
z
" clip-path="url(#p01c645692f)" style="fill: #ffffff; stroke: #000000; stroke-width: 0.4"/>
   </g>
   <g id="PathCollection_20">
    <path d="M 231.316417 171.528231 
L 228.816417 176.528231 
L 233.816417 176.528231 
z
" clip-path="url(#p01c645692f)" style="fill: #ffffff; stroke: #000000; stroke-width: 0.4"/>
    <path d="M 230.932122 173.373206 
L 228.432122 178.373206 
L 233.432122 178.373206 
z
" clip-path="url(#p01c645692f)" style="fill: #ffffff; stroke: #000000; stroke-width: 0.4"/>
    <path d="M 228.440754 170.642489 
L 225.940754 175.642489 
L 230.940754 175.642489 
z
" clip-path="url(#p01c645692f)" style="fill: #ffffff; stroke: #000000; stroke-width: 0.4"/>
    <path d="M 232.018003 172.266995 
L 229.518003 177.266995 
L 234.518003 177.266995 
z
" clip-path="url(#p01c645692f)" style="fill: #ffffff; stroke: #000000; stroke-width: 0.4"/>
   </g>
   <g id="PathCollection_21">
    <path d="M 262.14165 154.505727 
L 259.64165 159.505727 
L 264.64165 159.505727 
z
" clip-path="url(#p01c645692f)" style="fill: #ffffff; stroke: #000000; stroke-width: 0.4"/>
    <path d="M 257.867547 154.474784 
L 255.367547 159.474784 
L 260.367547 159.474784 
z
" clip-path="url(#p01c645692f)" style="fill: #ffffff; stroke: #000000; stroke-width: 0.4"/>
    <path d="M 259.342077 156.575038 
L 256.842077 161.575038 
L 261.842077 161.575038 
z
" clip-path="url(#p01c645692f)" style="fill: #ffffff; stroke: #000000; stroke-width: 0.4"/>
    <path d="M 257.490379 154.946664 
L 254.990379 159.946664 
L 259.990379 159.946664 
z
" clip-path="url(#p01c645692f)" style="fill: #ffffff; stroke: #000000; stroke-width: 0.4"/>
   </g>
   <g id="PathCollection_22">
    <path d="M 77.421275 186.204591 
L 80.956809 182.669057 
L 77.421275 179.133523 
L 73.885741 182.669057 
z
" clip-path="url(#p01c645692f)" style="fill: #ffffff; stroke: #000000; stroke-width: 0.4"/>
    <path d="M 82.269507 186.204591 
L 85.805041 182.669057 
L 82.269507 179.133523 
L 78.733973 182.669057 
z
" clip-path="url(#p01c645692f)" style="fill: #ffffff; stroke: #000000; stroke-width: 0.4"/>
    <path d="M 78.145738 186.177516 
L 81.681271 182.641982 
L 78.145738 179.106448 
L 74.610204 182.641982 
z
" clip-path="url(#p01c645692f)" style="fill: #ffffff; stroke: #000000; stroke-width: 0.4"/>
   </g>
   <g id="PathCollection_23">
    <path d="M 109.131883 186.235534 
L 112.667417 182.7 
L 109.131883 179.164466 
L 105.596349 182.7 
z
" clip-path="url(#p01c645692f)" style="fill: #ffffff; stroke: #000000; stroke-width: 0.4"/>
    <path d="M 108.090792 186.235534 
L 111.626326 182.7 
L 108.090792 179.164466 
L 104.555258 182.7 
z
" clip-path="url(#p01c645692f)" style="fill: #ffffff; stroke: #000000; stroke-width: 0.4"/>
    <path d="M 111.032425 186.235534 
L 114.567959 182.7 
L 111.032425 179.164466 
L 107.496891 182.7 
z
" clip-path="url(#p01c645692f)" style="fill: #ffffff; stroke: #000000; stroke-width: 0.4"/>
   </g>
   <g id="PathCollection_24">
    <path d="M 142.640242 181.775878 
L 146.175776 178.240344 
L 142.640242 174.70481 
L 139.104708 178.240344 
z
" clip-path="url(#p01c645692f)" style="fill: #ffffff; stroke: #000000; stroke-width: 0.4"/>
    <path d="M 138.422615 182.054364 
L 141.958148 178.51883 
L 138.422615 174.983297 
L 134.887081 178.51883 
z
" clip-path="url(#p01c645692f)" style="fill: #ffffff; stroke: #000000; stroke-width: 0.4"/>
    <path d="M 139.791598 181.922857 
L 143.327132 178.387323 
L 139.791598 174.851789 
L 136.256064 178.387323 
z
" clip-path="url(#p01c645692f)" style="fill: #ffffff; stroke: #000000; stroke-width: 0.4"/>
   </g>
   <g id="PathCollection_25">
    <path d="M 167.589452 184.262919 
L 171.124986 180.727385 
L 167.589452 177.191851 
L 164.053919 180.727385 
z
" clip-path="url(#p01c645692f)" style="fill: #ffffff; stroke: #000000; stroke-width: 0.4"/>
    <path d="M 172.311251 184.413766 
L 175.846785 180.878232 
L 172.311251 177.342698 
L 168.775717 180.878232 
z
" clip-path="url(#p01c645692f)" style="fill: #ffffff; stroke: #000000; stroke-width: 0.4"/>
    <path d="M 167.375157 184.641971 
L 170.910691 181.106437 
L 167.375157 177.570903 
L 163.839623 181.106437 
z
" clip-path="url(#p01c645692f)" style="fill: #ffffff; stroke: #000000; stroke-width: 0.4"/>
   </g>
   <g id="PathCollection_26">
    <path d="M 201.344159 180.534291 
L 204.879693 176.998757 
L 201.344159 173.463223 
L 197.808625 176.998757 
z
" clip-path="url(#p01c645692f)" style="fill: #ffffff; stroke: #000000; stroke-width: 0.4"/>
    <path d="M 197.159147 180.151371 
L 200.694681 176.615838 
L 197.159147 173.080304 
L 193.623614 176.615838 
z
" clip-path="url(#p01c645692f)" style="fill: #ffffff; stroke: #000000; stroke-width: 0.4"/>
    <path d="M 199.878555 179.737509 
L 203.414089 176.201975 
L 199.878555 172.666441 
L 196.343021 176.201975 
z
" clip-path="url(#p01c645692f)" style="fill: #ffffff; stroke: #000000; stroke-width: 0.4"/>
   </g>
   <g id="PathCollection_27">
    <path d="M 229.103277 172.980337 
L 232.638811 169.444803 
L 229.103277 165.909269 
L 225.567743 169.444803 
z
" clip-path="url(#p01c645692f)" style="fill: #ffffff; stroke: #000000; stroke-width: 0.4"/>
    <path d="M 230.498245 170.880082 
L 234.033779 167.344549 
L 230.498245 163.809015 
L 226.962711 167.344549 
z
" clip-path="url(#p01c645692f)" style="fill: #ffffff; stroke: #000000; stroke-width: 0.4"/>
    <path d="M 227.16913 173.007412 
L 230.704664 169.471878 
L 227.16913 165.936344 
L 223.633596 169.471878 
z
" clip-path="url(#p01c645692f)" style="fill: #ffffff; stroke: #000000; stroke-width: 0.4"/>
   </g>
   <g id="PathCollection_28">
    <path d="M 256.638446 125.683999 
L 260.17398 122.148466 
L 256.638446 118.612932 
L 253.102913 122.148466 
z
" clip-path="url(#p01c645692f)" style="fill: #ffffff; stroke: #000000; stroke-width: 0.4"/>
    <path d="M 260.175884 126.685778 
L 263.711418 123.150244 
L 260.175884 119.61471 
L 256.64035 123.150244 
z
" clip-path="url(#p01c645692f)" style="fill: #ffffff; stroke: #000000; stroke-width: 0.4"/>
    <path d="M 258.816182 120.427562 
L 262.351716 116.892028 
L 258.816182 113.356494 
L 255.280648 116.892028 
z
" clip-path="url(#p01c645692f)" style="fill: #ffffff; stroke: #000000; stroke-width: 0.4"/>
   </g>
   <g id="text_6">
    <!-- * -->
    <g transform="translate(241.862368 88.289135)scale(0.1 -0.1)">
     <defs>
      <path id="DejaVuSans-2a" d="M 3009 3897 
L 1888 3291 
L 3009 2681 
L 2828 2375 
L 1778 3009 
L 1778 1831 
L 1422 1831 
L 1422 3009 
L 372 2375 
L 191 2681 
L 1313 3291 
L 191 3897 
L 372 4206 
L 1422 3572 
L 1422 4750 
L 1778 4750 
L 1778 3572 
L 2828 4206 
L 3009 3897 
z
" transform="scale(0.015625)"/>
     </defs>
     <use xlink:href="#DejaVuSans-2a"/>
    </g>
   </g>
   <g id="text_7">
    <!-- * -->
    <g transform="translate(226.942582 72.198509)scale(0.1 -0.1)">
     <use xlink:href="#DejaVuSans-2a"/>
    </g>
   </g>
   <g id="text_8">
    <!-- * -->
    <g transform="translate(212.022796 56.107883)scale(0.1 -0.1)">
     <use xlink:href="#DejaVuSans-2a"/>
    </g>
   </g>
   <g id="text_9">
    <g id="patch_14">
     <path d="M 76.063471 173.662611 
L 84.425971 173.662611 
L 84.425971 161.984486 
L 76.063471 161.984486 
z
" style="fill: #ffffff; opacity: 0.75"/>
    </g>
    <!-- 0 -->
    <g transform="translate(77.063471 170.582923)scale(0.1 -0.1)">
     <use xlink:href="#DejaVuSans-30"/>
    </g>
   </g>
   <g id="text_10">
    <g id="patch_15">
     <path d="M 105.903043 173.697937 
L 114.265543 173.697937 
L 114.265543 162.019812 
L 105.903043 162.019812 
z
" style="fill: #ffffff; opacity: 0.75"/>
    </g>
    <!-- 0 -->
    <g transform="translate(106.903043 170.61825)scale(0.1 -0.1)">
     <use xlink:href="#DejaVuSans-30"/>
    </g>
   </g>
   <g id="text_11">
    <g id="patch_16">
     <path d="M 132.561365 169.665036 
L 147.286365 169.665036 
L 147.286365 157.986911 
L 132.561365 157.986911 
z
" style="fill: #ffffff; opacity: 0.75"/>
    </g>
    <!-- 10 -->
    <g transform="translate(133.561365 166.585349)scale(0.1 -0.1)">
     <use xlink:href="#DejaVuSans-31"/>
     <use xlink:href="#DejaVuSans-30" x="63.623047"/>
    </g>
   </g>
   <g id="text_12">
    <g id="patch_17">
     <path d="M 165.582188 171.447609 
L 173.944688 171.447609 
L 173.944688 159.769484 
L 165.582188 159.769484 
z
" style="fill: #ffffff; opacity: 0.75"/>
    </g>
    <!-- 6 -->
    <g transform="translate(166.582188 168.367922)scale(0.1 -0.1)">
     <defs>
      <path id="DejaVuSans-36" d="M 2113 2584 
Q 1688 2584 1439 2293 
Q 1191 2003 1191 1497 
Q 1191 994 1439 701 
Q 1688 409 2113 409 
Q 2538 409 2786 701 
Q 3034 994 3034 1497 
Q 3034 2003 2786 2293 
Q 2538 2584 2113 2584 
z
M 3366 4563 
L 3366 3988 
Q 3128 4100 2886 4159 
Q 2644 4219 2406 4219 
Q 1781 4219 1451 3797 
Q 1122 3375 1075 2522 
Q 1259 2794 1537 2939 
Q 1816 3084 2150 3084 
Q 2853 3084 3261 2657 
Q 3669 2231 3669 1497 
Q 3669 778 3244 343 
Q 2819 -91 2113 -91 
Q 1303 -91 875 529 
Q 447 1150 447 2328 
Q 447 3434 972 4092 
Q 1497 4750 2381 4750 
Q 2619 4750 2861 4703 
Q 3103 4656 3366 4563 
z
" transform="scale(0.015625)"/>
     </defs>
     <use xlink:href="#DejaVuSans-36"/>
    </g>
   </g>
   <g id="text_13">
    <g id="patch_18">
     <path d="M 192.24051 168.358211 
L 206.96551 168.358211 
L 206.96551 156.680086 
L 192.24051 156.680086 
z
" style="fill: #ffffff; opacity: 0.75"/>
    </g>
    <!-- 14 -->
    <g transform="translate(193.24051 165.278524)scale(0.1 -0.1)">
     <defs>
      <path id="DejaVuSans-34" d="M 2419 4116 
L 825 1625 
L 2419 1625 
L 2419 4116 
z
M 2253 4666 
L 3047 4666 
L 3047 1625 
L 3713 1625 
L 3713 1100 
L 3047 1100 
L 3047 0 
L 2419 0 
L 2419 1100 
L 313 1100 
L 313 1709 
L 2253 4666 
z
" transform="scale(0.015625)"/>
     </defs>
     <use xlink:href="#DejaVuSans-31"/>
     <use xlink:href="#DejaVuSans-34" x="63.623047"/>
    </g>
   </g>
   <g id="text_14">
    <g id="patch_19">
     <path d="M 222.080082 162.20288 
L 236.805082 162.20288 
L 236.805082 150.524755 
L 222.080082 150.524755 
z
" style="fill: #ffffff; opacity: 0.75"/>
    </g>
    <!-- 30 -->
    <g transform="translate(223.080082 159.123192)scale(0.1 -0.1)">
     <use xlink:href="#DejaVuSans-33"/>
     <use xlink:href="#DejaVuSans-30" x="63.623047"/>
    </g>
   </g>
   <g id="text_15">
    <g id="patch_20">
     <path d="M 248.738404 123.667272 
L 269.825904 123.667272 
L 269.825904 111.989147 
L 248.738404 111.989147 
z
" style="fill: #ffffff; opacity: 0.75"/>
    </g>
    <!-- 129 -->
    <g transform="translate(249.738404 120.587585)scale(0.1 -0.1)">
     <defs>
      <path id="DejaVuSans-39" d="M 703 97 
L 703 672 
Q 941 559 1184 500 
Q 1428 441 1663 441 
Q 2288 441 2617 861 
Q 2947 1281 2994 2138 
Q 2813 1869 2534 1725 
Q 2256 1581 1919 1581 
Q 1219 1581 811 2004 
Q 403 2428 403 3163 
Q 403 3881 828 4315 
Q 1253 4750 1959 4750 
Q 2769 4750 3195 4129 
Q 3622 3509 3622 2328 
Q 3622 1225 3098 567 
Q 2575 -91 1691 -91 
Q 1453 -91 1209 -44 
Q 966 3 703 97 
z
M 1959 2075 
Q 2384 2075 2632 2365 
Q 2881 2656 2881 3163 
Q 2881 3666 2632 3958 
Q 2384 4250 1959 4250 
Q 1534 4250 1286 3958 
Q 1038 3666 1038 3163 
Q 1038 2656 1286 2365 
Q 1534 2075 1959 2075 
z
" transform="scale(0.015625)"/>
     </defs>
     <use xlink:href="#DejaVuSans-31"/>
     <use xlink:href="#DejaVuSans-32" x="63.623047"/>
     <use xlink:href="#DejaVuSans-39" x="127.246094"/>
    </g>
   </g>
  </g>
  <g id="axes_2">
   <g id="patch_21">
    <path d="M 58.163438 345.78 
L 281.363437 345.78 
L 281.363437 209.88 
L 58.163438 209.88 
z
" style="fill: #ffffff"/>
   </g>
   <g id="patch_22">
    <path d="M 68.308892 345.78 
L 92.18055 345.78 
L 92.18055 345.733672 
L 68.308892 345.733672 
z
" clip-path="url(#p5003e4e787)" style="fill: #45ba45; opacity: 0.3"/>
   </g>
   <g id="patch_23">
    <path d="M 98.148464 345.78 
L 122.020122 345.78 
L 122.020122 345.777819 
L 98.148464 345.777819 
z
" clip-path="url(#p5003e4e787)" style="fill: #45ba45; opacity: 0.3"/>
   </g>
   <g id="patch_24">
    <path d="M 127.988036 345.78 
L 151.859694 345.78 
L 151.859694 341.775359 
L 127.988036 341.775359 
z
" clip-path="url(#p5003e4e787)" style="fill: #45ba45; opacity: 0.3"/>
   </g>
   <g id="patch_25">
    <path d="M 157.827609 345.78 
L 181.699266 345.78 
L 181.699266 343.0183 
L 157.827609 343.0183 
z
" clip-path="url(#p5003e4e787)" style="fill: #45ba45; opacity: 0.3"/>
   </g>
   <g id="patch_26">
    <path d="M 187.667181 345.78 
L 211.538839 345.78 
L 211.538839 338.256893 
L 187.667181 338.256893 
z
" clip-path="url(#p5003e4e787)" style="fill: #45ba45; opacity: 0.3"/>
   </g>
   <g id="patch_27">
    <path d="M 217.506753 345.78 
L 241.378411 345.78 
L 241.378411 331.686924 
L 217.506753 331.686924 
z
" clip-path="url(#p5003e4e787)" style="fill: #45ba45; opacity: 0.3"/>
   </g>
   <g id="patch_28">
    <path d="M 247.346325 345.78 
L 271.217983 345.78 
L 271.217983 278.694283 
L 247.346325 278.694283 
z
" clip-path="url(#p5003e4e787)" style="fill: #45ba45; opacity: 0.3"/>
   </g>
   <g id="matplotlib.axis_3">
    <g id="xtick_8">
     <g id="line2d_22">
      <g>
       <use xlink:href="#m0d20268938" x="80.244721" y="345.78" style="stroke: #000000; stroke-width: 0.8"/>
      </g>
     </g>
     <g id="text_16">
      <!-- — -->
      <g transform="translate(75.244721 360.378437)scale(0.1 -0.1)">
       <defs>
        <path id="DejaVuSans-2014" d="M 313 1978 
L 6088 1978 
L 6088 1528 
L 313 1528 
L 313 1978 
z
" transform="scale(0.015625)"/>
       </defs>
       <use xlink:href="#DejaVuSans-2014"/>
      </g>
      <!-- — -->
      <g transform="translate(75.244721 371.57625)scale(0.1 -0.1)">
       <use xlink:href="#DejaVuSans-2014"/>
      </g>
      <!-- + -->
      <g transform="translate(76.054877 382.774062)scale(0.1 -0.1)">
       <defs>
        <path id="DejaVuSans-2b" d="M 2944 4013 
L 2944 2272 
L 4684 2272 
L 4684 1741 
L 2944 1741 
L 2944 0 
L 2419 0 
L 2419 1741 
L 678 1741 
L 678 2272 
L 2419 2272 
L 2419 4013 
L 2944 4013 
z
" transform="scale(0.015625)"/>
       </defs>
       <use xlink:href="#DejaVuSans-2b"/>
      </g>
     </g>
    </g>
    <g id="xtick_9">
     <g id="line2d_23">
      <g>
       <use xlink:href="#m0d20268938" x="110.084293" y="345.78" style="stroke: #000000; stroke-width: 0.8"/>
      </g>
     </g>
     <g id="text_17">
      <!-- — -->
      <g transform="translate(105.084293 360.378437)scale(0.1 -0.1)">
       <use xlink:href="#DejaVuSans-2014"/>
      </g>
      <!-- + -->
      <g transform="translate(105.894449 371.57625)scale(0.1 -0.1)">
       <use xlink:href="#DejaVuSans-2b"/>
      </g>
      <!-- — -->
      <g transform="translate(105.084293 382.774062)scale(0.1 -0.1)">
       <use xlink:href="#DejaVuSans-2014"/>
      </g>
     </g>
    </g>
    <g id="xtick_10">
     <g id="line2d_24">
      <g>
       <use xlink:href="#m0d20268938" x="139.923865" y="345.78" style="stroke: #000000; stroke-width: 0.8"/>
      </g>
     </g>
     <g id="text_18">
      <!-- + -->
      <g transform="translate(135.734022 360.378437)scale(0.1 -0.1)">
       <use xlink:href="#DejaVuSans-2b"/>
      </g>
      <!-- — -->
      <g transform="translate(134.923865 371.57625)scale(0.1 -0.1)">
       <use xlink:href="#DejaVuSans-2014"/>
      </g>
      <!-- — -->
      <g transform="translate(134.923865 382.774062)scale(0.1 -0.1)">
       <use xlink:href="#DejaVuSans-2014"/>
      </g>
     </g>
    </g>
    <g id="xtick_11">
     <g id="line2d_25">
      <g>
       <use xlink:href="#m0d20268938" x="169.763438" y="345.78" style="stroke: #000000; stroke-width: 0.8"/>
      </g>
     </g>
     <g id="text_19">
      <!-- — -->
      <g transform="translate(164.763438 360.378437)scale(0.1 -0.1)">
       <use xlink:href="#DejaVuSans-2014"/>
      </g>
      <!-- + -->
      <g transform="translate(165.573594 371.57625)scale(0.1 -0.1)">
       <use xlink:href="#DejaVuSans-2b"/>
      </g>
      <!-- + -->
      <g transform="translate(165.573594 382.774062)scale(0.1 -0.1)">
       <use xlink:href="#DejaVuSans-2b"/>
      </g>
     </g>
    </g>
    <g id="xtick_12">
     <g id="line2d_26">
      <g>
       <use xlink:href="#m0d20268938" x="199.60301" y="345.78" style="stroke: #000000; stroke-width: 0.8"/>
      </g>
     </g>
     <g id="text_20">
      <!-- + -->
      <g transform="translate(195.413166 360.378437)scale(0.1 -0.1)">
       <use xlink:href="#DejaVuSans-2b"/>
      </g>
      <!-- — -->
      <g transform="translate(194.60301 371.57625)scale(0.1 -0.1)">
       <use xlink:href="#DejaVuSans-2014"/>
      </g>
      <!-- + -->
      <g transform="translate(195.413166 382.774062)scale(0.1 -0.1)">
       <use xlink:href="#DejaVuSans-2b"/>
      </g>
     </g>
    </g>
    <g id="xtick_13">
     <g id="line2d_27">
      <g>
       <use xlink:href="#m0d20268938" x="229.442582" y="345.78" style="stroke: #000000; stroke-width: 0.8"/>
      </g>
     </g>
     <g id="text_21">
      <!-- + -->
      <g transform="translate(225.252738 360.378437)scale(0.1 -0.1)">
       <use xlink:href="#DejaVuSans-2b"/>
      </g>
      <!-- + -->
      <g transform="translate(225.252738 371.57625)scale(0.1 -0.1)">
       <use xlink:href="#DejaVuSans-2b"/>
      </g>
      <!-- — -->
      <g transform="translate(224.442582 382.774062)scale(0.1 -0.1)">
       <use xlink:href="#DejaVuSans-2014"/>
      </g>
     </g>
    </g>
    <g id="xtick_14">
     <g id="line2d_28">
      <g>
       <use xlink:href="#m0d20268938" x="259.282154" y="345.78" style="stroke: #000000; stroke-width: 0.8"/>
      </g>
     </g>
     <g id="text_22">
      <!-- + -->
      <g transform="translate(255.09231 360.378437)scale(0.1 -0.1)">
       <use xlink:href="#DejaVuSans-2b"/>
      </g>
      <!-- + -->
      <g transform="translate(255.09231 371.57625)scale(0.1 -0.1)">
       <use xlink:href="#DejaVuSans-2b"/>
      </g>
      <!-- + -->
      <g transform="translate(255.09231 382.774062)scale(0.1 -0.1)">
       <use xlink:href="#DejaVuSans-2b"/>
      </g>
     </g>
    </g>
    <g id="text_23">
     <!-- cond -->
     <g transform="translate(157.611875 396.452187)scale(0.1 -0.1)">
      <defs>
       <path id="DejaVuSans-63" d="M 3122 3366 
L 3122 2828 
Q 2878 2963 2633 3030 
Q 2388 3097 2138 3097 
Q 1578 3097 1268 2742 
Q 959 2388 959 1747 
Q 959 1106 1268 751 
Q 1578 397 2138 397 
Q 2388 397 2633 464 
Q 2878 531 3122 666 
L 3122 134 
Q 2881 22 2623 -34 
Q 2366 -91 2075 -91 
Q 1284 -91 818 406 
Q 353 903 353 1747 
Q 353 2603 823 3093 
Q 1294 3584 2113 3584 
Q 2378 3584 2631 3529 
Q 2884 3475 3122 3366 
z
" transform="scale(0.015625)"/>
       <path id="DejaVuSans-6f" d="M 1959 3097 
Q 1497 3097 1228 2736 
Q 959 2375 959 1747 
Q 959 1119 1226 758 
Q 1494 397 1959 397 
Q 2419 397 2687 759 
Q 2956 1122 2956 1747 
Q 2956 2369 2687 2733 
Q 2419 3097 1959 3097 
z
M 1959 3584 
Q 2709 3584 3137 3096 
Q 3566 2609 3566 1747 
Q 3566 888 3137 398 
Q 2709 -91 1959 -91 
Q 1206 -91 779 398 
Q 353 888 353 1747 
Q 353 2609 779 3096 
Q 1206 3584 1959 3584 
z
" transform="scale(0.015625)"/>
       <path id="DejaVuSans-6e" d="M 3513 2113 
L 3513 0 
L 2938 0 
L 2938 2094 
Q 2938 2591 2744 2837 
Q 2550 3084 2163 3084 
Q 1697 3084 1428 2787 
Q 1159 2491 1159 1978 
L 1159 0 
L 581 0 
L 581 3500 
L 1159 3500 
L 1159 2956 
Q 1366 3272 1645 3428 
Q 1925 3584 2291 3584 
Q 2894 3584 3203 3211 
Q 3513 2838 3513 2113 
z
" transform="scale(0.015625)"/>
      </defs>
      <use xlink:href="#DejaVuSans-63"/>
      <use xlink:href="#DejaVuSans-6f" x="54.980469"/>
      <use xlink:href="#DejaVuSans-6e" x="116.162109"/>
      <use xlink:href="#DejaVuSans-64" x="179.541016"/>
     </g>
    </g>
   </g>
   <g id="matplotlib.axis_4">
    <g id="ytick_5">
     <g id="line2d_29">
      <g>
       <use xlink:href="#m9cf396bb01" x="58.163438" y="345.78" style="stroke: #000000; stroke-width: 0.8"/>
      </g>
     </g>
     <g id="text_24">
      <!-- 0 -->
      <g transform="translate(44.800938 349.579219)scale(0.1 -0.1)">
       <use xlink:href="#DejaVuSans-30"/>
      </g>
     </g>
    </g>
    <g id="ytick_6">
     <g id="line2d_30">
      <g>
       <use xlink:href="#m9cf396bb01" x="58.163438" y="320.08412" style="stroke: #000000; stroke-width: 0.8"/>
      </g>
     </g>
     <g id="text_25">
      <!-- 10 -->
      <g transform="translate(38.438437 323.883338)scale(0.1 -0.1)">
       <use xlink:href="#DejaVuSans-31"/>
       <use xlink:href="#DejaVuSans-30" x="63.623047"/>
      </g>
     </g>
    </g>
    <g id="ytick_7">
     <g id="line2d_31">
      <g>
       <use xlink:href="#m9cf396bb01" x="58.163438" y="294.388239" style="stroke: #000000; stroke-width: 0.8"/>
      </g>
     </g>
     <g id="text_26">
      <!-- 20 -->
      <g transform="translate(38.438437 298.187458)scale(0.1 -0.1)">
       <use xlink:href="#DejaVuSans-32"/>
       <use xlink:href="#DejaVuSans-30" x="63.623047"/>
      </g>
     </g>
    </g>
    <g id="ytick_8">
     <g id="line2d_32">
      <g>
       <use xlink:href="#m9cf396bb01" x="58.163438" y="268.692359" style="stroke: #000000; stroke-width: 0.8"/>
      </g>
     </g>
     <g id="text_27">
      <!-- 30 -->
      <g transform="translate(38.438437 272.491578)scale(0.1 -0.1)">
       <use xlink:href="#DejaVuSans-33"/>
       <use xlink:href="#DejaVuSans-30" x="63.623047"/>
      </g>
     </g>
    </g>
    <g id="ytick_9">
     <g id="line2d_33">
      <g>
       <use xlink:href="#m9cf396bb01" x="58.163438" y="242.996479" style="stroke: #000000; stroke-width: 0.8"/>
      </g>
     </g>
     <g id="text_28">
      <!-- 40 -->
      <g transform="translate(38.438437 246.795698)scale(0.1 -0.1)">
       <use xlink:href="#DejaVuSans-34"/>
       <use xlink:href="#DejaVuSans-30" x="63.623047"/>
      </g>
     </g>
    </g>
    <g id="ytick_10">
     <g id="line2d_34">
      <g>
       <use xlink:href="#m9cf396bb01" x="58.163438" y="217.300598" style="stroke: #000000; stroke-width: 0.8"/>
      </g>
     </g>
     <g id="text_29">
      <!-- 50 -->
      <g transform="translate(38.438437 221.099817)scale(0.1 -0.1)">
       <defs>
        <path id="DejaVuSans-35" d="M 691 4666 
L 3169 4666 
L 3169 4134 
L 1269 4134 
L 1269 2991 
Q 1406 3038 1543 3061 
Q 1681 3084 1819 3084 
Q 2600 3084 3056 2656 
Q 3513 2228 3513 1497 
Q 3513 744 3044 326 
Q 2575 -91 1722 -91 
Q 1428 -91 1123 -41 
Q 819 9 494 109 
L 494 744 
Q 775 591 1075 516 
Q 1375 441 1709 441 
Q 2250 441 2565 725 
Q 2881 1009 2881 1497 
Q 2881 1984 2565 2268 
Q 2250 2553 1709 2553 
Q 1456 2553 1204 2497 
Q 953 2441 691 2322 
L 691 4666 
z
" transform="scale(0.015625)"/>
       </defs>
       <use xlink:href="#DejaVuSans-35"/>
       <use xlink:href="#DejaVuSans-30" x="63.623047"/>
      </g>
     </g>
    </g>
    <g id="text_30">
     <!-- (%) iMN -->
     <g transform="translate(21.160938 297.515156)rotate(-90)scale(0.1 -0.1)">
      <use xlink:href="#DejaVuSans-28"/>
      <use xlink:href="#DejaVuSans-25" x="39.013672"/>
      <use xlink:href="#DejaVuSans-29" x="134.033203"/>
      <use xlink:href="#DejaVuSans-20" x="173.046875"/>
      <use xlink:href="#DejaVuSans-69" x="204.833984"/>
      <use xlink:href="#DejaVuSans-4d" x="232.617188"/>
      <use xlink:href="#DejaVuSans-4e" x="318.896484"/>
     </g>
     <!-- of all cells -->
     <g transform="translate(32.35875 302.878437)rotate(-90)scale(0.1 -0.1)">
      <defs>
       <path id="DejaVuSans-66" d="M 2375 4863 
L 2375 4384 
L 1825 4384 
Q 1516 4384 1395 4259 
Q 1275 4134 1275 3809 
L 1275 3500 
L 2222 3500 
L 2222 3053 
L 1275 3053 
L 1275 0 
L 697 0 
L 697 3053 
L 147 3053 
L 147 3500 
L 697 3500 
L 697 3744 
Q 697 4328 969 4595 
Q 1241 4863 1831 4863 
L 2375 4863 
z
" transform="scale(0.015625)"/>
       <path id="DejaVuSans-73" d="M 2834 3397 
L 2834 2853 
Q 2591 2978 2328 3040 
Q 2066 3103 1784 3103 
Q 1356 3103 1142 2972 
Q 928 2841 928 2578 
Q 928 2378 1081 2264 
Q 1234 2150 1697 2047 
L 1894 2003 
Q 2506 1872 2764 1633 
Q 3022 1394 3022 966 
Q 3022 478 2636 193 
Q 2250 -91 1575 -91 
Q 1294 -91 989 -36 
Q 684 19 347 128 
L 347 722 
Q 666 556 975 473 
Q 1284 391 1588 391 
Q 1994 391 2212 530 
Q 2431 669 2431 922 
Q 2431 1156 2273 1281 
Q 2116 1406 1581 1522 
L 1381 1569 
Q 847 1681 609 1914 
Q 372 2147 372 2553 
Q 372 3047 722 3315 
Q 1072 3584 1716 3584 
Q 2034 3584 2315 3537 
Q 2597 3491 2834 3397 
z
" transform="scale(0.015625)"/>
      </defs>
      <use xlink:href="#DejaVuSans-6f"/>
      <use xlink:href="#DejaVuSans-66" x="61.181641"/>
      <use xlink:href="#DejaVuSans-20" x="96.386719"/>
      <use xlink:href="#DejaVuSans-61" x="128.173828"/>
      <use xlink:href="#DejaVuSans-6c" x="189.453125"/>
      <use xlink:href="#DejaVuSans-6c" x="217.236328"/>
      <use xlink:href="#DejaVuSans-20" x="245.019531"/>
      <use xlink:href="#DejaVuSans-63" x="276.806641"/>
      <use xlink:href="#DejaVuSans-65" x="331.787109"/>
      <use xlink:href="#DejaVuSans-6c" x="393.310547"/>
      <use xlink:href="#DejaVuSans-6c" x="421.09375"/>
      <use xlink:href="#DejaVuSans-73" x="448.876953"/>
     </g>
    </g>
   </g>
   <g id="line2d_35">
    <path d="M 80.244721 345.748583 
L 80.244721 345.716051 
" clip-path="url(#p5003e4e787)" style="fill: none; stroke: #424242; stroke-width: 2.7; stroke-linecap: square"/>
   </g>
   <g id="line2d_36">
    <path d="M 110.084293 345.78 
L 110.084293 345.771822 
" clip-path="url(#p5003e4e787)" style="fill: none; stroke: #424242; stroke-width: 2.7; stroke-linecap: square"/>
   </g>
   <g id="line2d_37">
    <path d="M 139.923865 342.222454 
L 139.923865 341.298687 
" clip-path="url(#p5003e4e787)" style="fill: none; stroke: #424242; stroke-width: 2.7; stroke-linecap: square"/>
   </g>
   <g id="line2d_38">
    <path d="M 169.763438 343.333553 
L 169.763438 342.695492 
" clip-path="url(#p5003e4e787)" style="fill: none; stroke: #424242; stroke-width: 2.7; stroke-linecap: square"/>
   </g>
   <g id="line2d_39">
    <path d="M 199.60301 339.116999 
L 199.60301 337.404974 
" clip-path="url(#p5003e4e787)" style="fill: none; stroke: #424242; stroke-width: 2.7; stroke-linecap: square"/>
   </g>
   <g id="line2d_40">
    <path d="M 229.442582 333.430297 
L 229.442582 329.943092 
" clip-path="url(#p5003e4e787)" style="fill: none; stroke: #424242; stroke-width: 2.7; stroke-linecap: square"/>
   </g>
   <g id="line2d_41">
    <path d="M 259.282154 286.129678 
L 259.282154 272.015557 
" clip-path="url(#p5003e4e787)" style="fill: none; stroke: #424242; stroke-width: 2.7; stroke-linecap: square"/>
   </g>
   <g id="line2d_42">
    <path d="M 229.442582 256.218154 
L 229.442582 254.448823 
L 259.282154 254.448823 
L 259.282154 256.218154 
" clip-path="url(#p5003e4e787)" style="fill: none; stroke: #333333; stroke-width: 1.5; stroke-linecap: square"/>
   </g>
   <g id="line2d_43">
    <path d="M 199.60301 240.127528 
L 199.60301 238.358197 
L 259.282154 238.358197 
L 259.282154 240.127528 
" clip-path="url(#p5003e4e787)" style="fill: none; stroke: #333333; stroke-width: 1.5; stroke-linecap: square"/>
   </g>
   <g id="line2d_44">
    <path d="M 169.763437 224.036902 
L 169.763437 222.267571 
L 259.282154 222.267571 
L 259.282154 224.036902 
" clip-path="url(#p5003e4e787)" style="fill: none; stroke: #333333; stroke-width: 1.5; stroke-linecap: square"/>
   </g>
   <g id="patch_29">
    <path d="M 58.163438 345.78 
L 58.163438 209.88 
" style="fill: none; stroke: #000000; stroke-width: 0.8; stroke-linejoin: miter; stroke-linecap: square"/>
   </g>
   <g id="patch_30">
    <path d="M 281.363437 345.78 
L 281.363437 209.88 
" style="fill: none; stroke: #000000; stroke-width: 0.8; stroke-linejoin: miter; stroke-linecap: square"/>
   </g>
   <g id="patch_31">
    <path d="M 58.163438 345.78 
L 281.363437 345.78 
" style="fill: none; stroke: #000000; stroke-width: 0.8; stroke-linejoin: miter; stroke-linecap: square"/>
   </g>
   <g id="patch_32">
    <path d="M 58.163438 209.88 
L 281.363437 209.88 
" style="fill: none; stroke: #000000; stroke-width: 0.8; stroke-linejoin: miter; stroke-linecap: square"/>
   </g>
   <g id="PathCollection_29">
    <defs>
     <path id="C7_0_ff82b97f8c" d="M 0 2.5 
C 0.663008 2.5 1.29895 2.236584 1.767767 1.767767 
C 2.236584 1.29895 2.5 0.663008 2.5 -0 
C 2.5 -0.663008 2.236584 -1.29895 1.767767 -1.767767 
C 1.29895 -2.236584 0.663008 -2.5 0 -2.5 
C -0.663008 -2.5 -1.29895 -2.236584 -1.767767 -1.767767 
C -2.236584 -1.29895 -2.5 -0.663008 -2.5 0 
C -2.5 0.663008 -2.236584 1.29895 -1.767767 1.767767 
C -1.29895 2.236584 -0.663008 2.5 0 2.5 
z
"/>
    </defs>
    <g clip-path="url(#p5003e4e787)">
     <use xlink:href="#C7_0_ff82b97f8c" x="80.675542" y="345.78" style="fill: #ffffff; stroke: #000000; stroke-width: 0.4"/>
    </g>
    <g clip-path="url(#p5003e4e787)">
     <use xlink:href="#C7_0_ff82b97f8c" x="79.680037" y="345.776784" style="fill: #ffffff; stroke: #000000; stroke-width: 0.4"/>
    </g>
    <g clip-path="url(#p5003e4e787)">
     <use xlink:href="#C7_0_ff82b97f8c" x="80.945868" y="345.723957" style="fill: #ffffff; stroke: #000000; stroke-width: 0.4"/>
    </g>
    <g clip-path="url(#p5003e4e787)">
     <use xlink:href="#C7_0_ff82b97f8c" x="80.226154" y="345.749113" style="fill: #ffffff; stroke: #000000; stroke-width: 0.4"/>
    </g>
   </g>
   <g id="PathCollection_30">
    <defs>
     <path id="C8_0_6a36f786bf" d="M 0 2.5 
C 0.663008 2.5 1.29895 2.236584 1.767767 1.767767 
C 2.236584 1.29895 2.5 0.663008 2.5 -0 
C 2.5 -0.663008 2.236584 -1.29895 1.767767 -1.767767 
C 1.29895 -2.236584 0.663008 -2.5 0 -2.5 
C -0.663008 -2.5 -1.29895 -2.236584 -1.767767 -1.767767 
C -2.236584 -1.29895 -2.5 -0.663008 -2.5 0 
C -2.5 0.663008 -2.236584 1.29895 -1.767767 1.767767 
C -1.29895 2.236584 -0.663008 2.5 0 2.5 
z
"/>
    </defs>
    <g clip-path="url(#p5003e4e787)">
     <use xlink:href="#C8_0_6a36f786bf" x="108.844718" y="345.78" style="fill: #ffffff; stroke: #000000; stroke-width: 0.4"/>
    </g>
    <g clip-path="url(#p5003e4e787)">
     <use xlink:href="#C8_0_6a36f786bf" x="110.511673" y="345.78" style="fill: #ffffff; stroke: #000000; stroke-width: 0.4"/>
    </g>
    <g clip-path="url(#p5003e4e787)">
     <use xlink:href="#C8_0_6a36f786bf" x="111.857087" y="345.78" style="fill: #ffffff; stroke: #000000; stroke-width: 0.4"/>
    </g>
    <g clip-path="url(#p5003e4e787)">
     <use xlink:href="#C8_0_6a36f786bf" x="111.088617" y="345.78" style="fill: #ffffff; stroke: #000000; stroke-width: 0.4"/>
    </g>
   </g>
   <g id="PathCollection_31">
    <defs>
     <path id="C9_0_9416a5b952" d="M 0 2.5 
C 0.663008 2.5 1.29895 2.236584 1.767767 1.767767 
C 2.236584 1.29895 2.5 0.663008 2.5 -0 
C 2.5 -0.663008 2.236584 -1.29895 1.767767 -1.767767 
C 1.29895 -2.236584 0.663008 -2.5 0 -2.5 
C -0.663008 -2.5 -1.29895 -2.236584 -1.767767 -1.767767 
C -2.236584 -1.29895 -2.5 -0.663008 -2.5 0 
C -2.5 0.663008 -2.236584 1.29895 -1.767767 1.767767 
C -1.29895 2.236584 -0.663008 2.5 0 2.5 
z
"/>
    </defs>
    <g clip-path="url(#p5003e4e787)">
     <use xlink:href="#C9_0_9416a5b952" x="137.683447" y="343.071954" style="fill: #ffffff; stroke: #000000; stroke-width: 0.4"/>
    </g>
    <g clip-path="url(#p5003e4e787)">
     <use xlink:href="#C9_0_9416a5b952" x="139.862423" y="343.105143" style="fill: #ffffff; stroke: #000000; stroke-width: 0.4"/>
    </g>
    <g clip-path="url(#p5003e4e787)">
     <use xlink:href="#C9_0_9416a5b952" x="141.764965" y="343.108685" style="fill: #ffffff; stroke: #000000; stroke-width: 0.4"/>
    </g>
    <g clip-path="url(#p5003e4e787)">
     <use xlink:href="#C9_0_9416a5b952" x="139.759696" y="341.728779" style="fill: #ffffff; stroke: #000000; stroke-width: 0.4"/>
    </g>
   </g>
   <g id="PathCollection_32">
    <defs>
     <path id="Ca_0_3502f75ba2" d="M 0 2.5 
C 0.663008 2.5 1.29895 2.236584 1.767767 1.767767 
C 2.236584 1.29895 2.5 0.663008 2.5 -0 
C 2.5 -0.663008 2.236584 -1.29895 1.767767 -1.767767 
C 1.29895 -2.236584 0.663008 -2.5 0 -2.5 
C -0.663008 -2.5 -1.29895 -2.236584 -1.767767 -1.767767 
C -2.236584 -1.29895 -2.5 -0.663008 -2.5 0 
C -2.5 0.663008 -2.236584 1.29895 -1.767767 1.767767 
C -1.29895 2.236584 -0.663008 2.5 0 2.5 
z
"/>
    </defs>
    <g clip-path="url(#p5003e4e787)">
     <use xlink:href="#Ca_0_3502f75ba2" x="167.818096" y="343.293302" style="fill: #ffffff; stroke: #000000; stroke-width: 0.4"/>
    </g>
    <g clip-path="url(#p5003e4e787)">
     <use xlink:href="#Ca_0_3502f75ba2" x="166.907466" y="343.414149" style="fill: #ffffff; stroke: #000000; stroke-width: 0.4"/>
    </g>
    <g clip-path="url(#p5003e4e787)">
     <use xlink:href="#Ca_0_3502f75ba2" x="168.022903" y="342.406843" style="fill: #ffffff; stroke: #000000; stroke-width: 0.4"/>
    </g>
    <g clip-path="url(#p5003e4e787)">
     <use xlink:href="#Ca_0_3502f75ba2" x="170.84868" y="342.613084" style="fill: #ffffff; stroke: #000000; stroke-width: 0.4"/>
    </g>
   </g>
   <g id="PathCollection_33">
    <defs>
     <path id="Cb_0_6618786cdf" d="M 0 2.5 
C 0.663008 2.5 1.29895 2.236584 1.767767 1.767767 
C 2.236584 1.29895 2.5 0.663008 2.5 -0 
C 2.5 -0.663008 2.236584 -1.29895 1.767767 -1.767767 
C 1.29895 -2.236584 0.663008 -2.5 0 -2.5 
C -0.663008 -2.5 -1.29895 -2.236584 -1.767767 -1.767767 
C -2.236584 -1.29895 -2.5 -0.663008 -2.5 0 
C -2.5 0.663008 -2.236584 1.29895 -1.767767 1.767767 
C -1.29895 2.236584 -0.663008 2.5 0 2.5 
z
"/>
    </defs>
    <g clip-path="url(#p5003e4e787)">
     <use xlink:href="#Cb_0_6618786cdf" x="198.069491" y="338.599507" style="fill: #ffffff; stroke: #000000; stroke-width: 0.4"/>
    </g>
    <g clip-path="url(#p5003e4e787)">
     <use xlink:href="#Cb_0_6618786cdf" x="196.724195" y="341.285739" style="fill: #ffffff; stroke: #000000; stroke-width: 0.4"/>
    </g>
    <g clip-path="url(#p5003e4e787)">
     <use xlink:href="#Cb_0_6618786cdf" x="196.851099" y="339.606062" style="fill: #ffffff; stroke: #000000; stroke-width: 0.4"/>
    </g>
    <g clip-path="url(#p5003e4e787)">
     <use xlink:href="#Cb_0_6618786cdf" x="198.520411" y="340.866122" style="fill: #ffffff; stroke: #000000; stroke-width: 0.4"/>
    </g>
   </g>
   <g id="PathCollection_34">
    <defs>
     <path id="Cc_0_8be5e9b6f4" d="M 0 2.5 
C 0.663008 2.5 1.29895 2.236584 1.767767 1.767767 
C 2.236584 1.29895 2.5 0.663008 2.5 -0 
C 2.5 -0.663008 2.236584 -1.29895 1.767767 -1.767767 
C 1.29895 -2.236584 0.663008 -2.5 0 -2.5 
C -0.663008 -2.5 -1.29895 -2.236584 -1.767767 -1.767767 
C -2.236584 -1.29895 -2.5 -0.663008 -2.5 0 
C -2.5 0.663008 -2.236584 1.29895 -1.767767 1.767767 
C -1.29895 2.236584 -0.663008 2.5 0 2.5 
z
"/>
    </defs>
    <g clip-path="url(#p5003e4e787)">
     <use xlink:href="#Cc_0_8be5e9b6f4" x="230.447432" y="333.859282" style="fill: #ffffff; stroke: #000000; stroke-width: 0.4"/>
    </g>
    <g clip-path="url(#p5003e4e787)">
     <use xlink:href="#Cc_0_8be5e9b6f4" x="231.278638" y="335.625206" style="fill: #ffffff; stroke: #000000; stroke-width: 0.4"/>
    </g>
    <g clip-path="url(#p5003e4e787)">
     <use xlink:href="#Cc_0_8be5e9b6f4" x="227.55527" y="333.837965" style="fill: #ffffff; stroke: #000000; stroke-width: 0.4"/>
    </g>
    <g clip-path="url(#p5003e4e787)">
     <use xlink:href="#Cc_0_8be5e9b6f4" x="231.581999" y="329.415516" style="fill: #ffffff; stroke: #000000; stroke-width: 0.4"/>
    </g>
   </g>
   <g id="PathCollection_35">
    <defs>
     <path id="Cd_0_b8f3ddc8b0" d="M 0 2.5 
C 0.663008 2.5 1.29895 2.236584 1.767767 1.767767 
C 2.236584 1.29895 2.5 0.663008 2.5 -0 
C 2.5 -0.663008 2.236584 -1.29895 1.767767 -1.767767 
C 1.29895 -2.236584 0.663008 -2.5 0 -2.5 
C -0.663008 -2.5 -1.29895 -2.236584 -1.767767 -1.767767 
C -2.236584 -1.29895 -2.5 -0.663008 -2.5 0 
C -2.5 0.663008 -2.236584 1.29895 -1.767767 1.767767 
C -1.29895 2.236584 -0.663008 2.5 0 2.5 
z
"/>
    </defs>
    <g clip-path="url(#p5003e4e787)">
     <use xlink:href="#Cd_0_b8f3ddc8b0" x="258.440264" y="267.080654" style="fill: #ffffff; stroke: #000000; stroke-width: 0.4"/>
    </g>
    <g clip-path="url(#p5003e4e787)">
     <use xlink:href="#Cd_0_b8f3ddc8b0" x="258.32245" y="275.669726" style="fill: #ffffff; stroke: #000000; stroke-width: 0.4"/>
    </g>
    <g clip-path="url(#p5003e4e787)">
     <use xlink:href="#Cd_0_b8f3ddc8b0" x="256.434919" y="269.292545" style="fill: #ffffff; stroke: #000000; stroke-width: 0.4"/>
    </g>
    <g clip-path="url(#p5003e4e787)">
     <use xlink:href="#Cd_0_b8f3ddc8b0" x="262.228889" y="261.526147" style="fill: #ffffff; stroke: #000000; stroke-width: 0.4"/>
    </g>
   </g>
   <g id="PathCollection_36">
    <path d="M 76.368823 348.204996 
L 81.368823 348.204996 
L 81.368823 343.204996 
L 76.368823 343.204996 
z
" clip-path="url(#p5003e4e787)" style="fill: #ffffff; stroke: #000000; stroke-width: 0.4"/>
    <path d="M 75.58768 348.238973 
L 80.58768 348.238973 
L 80.58768 343.238973 
L 75.58768 343.238973 
z
" clip-path="url(#p5003e4e787)" style="fill: #ffffff; stroke: #000000; stroke-width: 0.4"/>
    <path d="M 80.073034 348.227977 
L 85.073034 348.227977 
L 85.073034 343.227977 
L 80.073034 343.227977 
z
" clip-path="url(#p5003e4e787)" style="fill: #ffffff; stroke: #000000; stroke-width: 0.4"/>
    <path d="M 76.687452 348.227461 
L 81.687452 348.227461 
L 81.687452 343.227461 
L 76.687452 343.227461 
z
" clip-path="url(#p5003e4e787)" style="fill: #ffffff; stroke: #000000; stroke-width: 0.4"/>
   </g>
   <g id="PathCollection_37">
    <path d="M 105.284312 348.28 
L 110.284312 348.28 
L 110.284312 343.28 
L 105.284312 343.28 
z
" clip-path="url(#p5003e4e787)" style="fill: #ffffff; stroke: #000000; stroke-width: 0.4"/>
    <path d="M 105.152286 348.28 
L 110.152286 348.28 
L 110.152286 343.28 
L 105.152286 343.28 
z
" clip-path="url(#p5003e4e787)" style="fill: #ffffff; stroke: #000000; stroke-width: 0.4"/>
    <path d="M 105.210045 348.247289 
L 110.210045 348.247289 
L 110.210045 343.247289 
L 105.210045 343.247289 
z
" clip-path="url(#p5003e4e787)" style="fill: #ffffff; stroke: #000000; stroke-width: 0.4"/>
    <path d="M 107.535161 348.28 
L 112.535161 348.28 
L 112.535161 343.28 
L 107.535161 343.28 
z
" clip-path="url(#p5003e4e787)" style="fill: #ffffff; stroke: #000000; stroke-width: 0.4"/>
   </g>
   <g id="PathCollection_38">
    <path d="M 136.199553 344.231287 
L 141.199553 344.231287 
L 141.199553 339.231287 
L 136.199553 339.231287 
z
" clip-path="url(#p5003e4e787)" style="fill: #ffffff; stroke: #000000; stroke-width: 0.4"/>
    <path d="M 134.738122 343.231382 
L 139.738122 343.231382 
L 139.738122 338.231382 
L 134.738122 338.231382 
z
" clip-path="url(#p5003e4e787)" style="fill: #ffffff; stroke: #000000; stroke-width: 0.4"/>
    <path d="M 137.722479 343.779268 
L 142.722479 343.779268 
L 142.722479 338.779268 
L 137.722479 338.779268 
z
" clip-path="url(#p5003e4e787)" style="fill: #ffffff; stroke: #000000; stroke-width: 0.4"/>
    <path d="M 140.254795 343.296638 
L 145.254795 343.296638 
L 145.254795 338.296638 
L 140.254795 338.296638 
z
" clip-path="url(#p5003e4e787)" style="fill: #ffffff; stroke: #000000; stroke-width: 0.4"/>
   </g>
   <g id="PathCollection_39">
    <path d="M 166.68375 346.012591 
L 171.68375 346.012591 
L 171.68375 341.012591 
L 166.68375 341.012591 
z
" clip-path="url(#p5003e4e787)" style="fill: #ffffff; stroke: #000000; stroke-width: 0.4"/>
    <path d="M 168.570363 344.647385 
L 173.570363 344.647385 
L 173.570363 339.647385 
L 168.570363 339.647385 
z
" clip-path="url(#p5003e4e787)" style="fill: #ffffff; stroke: #000000; stroke-width: 0.4"/>
    <path d="M 165.456044 346.161486 
L 170.456044 346.161486 
L 170.456044 341.161486 
L 165.456044 341.161486 
z
" clip-path="url(#p5003e4e787)" style="fill: #ffffff; stroke: #000000; stroke-width: 0.4"/>
    <path d="M 165.433551 345.378362 
L 170.433551 345.378362 
L 170.433551 340.378362 
L 165.433551 340.378362 
z
" clip-path="url(#p5003e4e787)" style="fill: #ffffff; stroke: #000000; stroke-width: 0.4"/>
   </g>
   <g id="PathCollection_40">
    <path d="M 198.877681 341.434107 
L 203.877681 341.434107 
L 203.877681 336.434107 
L 198.877681 336.434107 
z
" clip-path="url(#p5003e4e787)" style="fill: #ffffff; stroke: #000000; stroke-width: 0.4"/>
    <path d="M 194.958967 339.523679 
L 199.958967 339.523679 
L 199.958967 334.523679 
L 194.958967 334.523679 
z
" clip-path="url(#p5003e4e787)" style="fill: #ffffff; stroke: #000000; stroke-width: 0.4"/>
    <path d="M 196.673845 340.724429 
L 201.673845 340.724429 
L 201.673845 335.724429 
L 196.673845 335.724429 
z
" clip-path="url(#p5003e4e787)" style="fill: #ffffff; stroke: #000000; stroke-width: 0.4"/>
    <path d="M 198.543493 338.527835 
L 203.543493 338.527835 
L 203.543493 333.527835 
L 198.543493 333.527835 
z
" clip-path="url(#p5003e4e787)" style="fill: #ffffff; stroke: #000000; stroke-width: 0.4"/>
   </g>
   <g id="PathCollection_41">
    <path d="M 226.1438 336.516172 
L 231.1438 336.516172 
L 231.1438 331.516172 
L 226.1438 331.516172 
z
" clip-path="url(#p5003e4e787)" style="fill: #ffffff; stroke: #000000; stroke-width: 0.4"/>
    <path d="M 226.638324 336.130761 
L 231.638324 336.130761 
L 231.638324 331.130761 
L 226.638324 331.130761 
z
" clip-path="url(#p5003e4e787)" style="fill: #ffffff; stroke: #000000; stroke-width: 0.4"/>
    <path d="M 224.311872 333.218699 
L 229.311872 333.218699 
L 229.311872 328.218699 
L 224.311872 328.218699 
z
" clip-path="url(#p5003e4e787)" style="fill: #ffffff; stroke: #000000; stroke-width: 0.4"/>
    <path d="M 225.896959 332.28614 
L 230.896959 332.28614 
L 230.896959 327.28614 
L 225.896959 327.28614 
z
" clip-path="url(#p5003e4e787)" style="fill: #ffffff; stroke: #000000; stroke-width: 0.4"/>
   </g>
   <g id="PathCollection_42">
    <path d="M 257.383482 286.819839 
L 262.383482 286.819839 
L 262.383482 281.819839 
L 257.383482 281.819839 
z
" clip-path="url(#p5003e4e787)" style="fill: #ffffff; stroke: #000000; stroke-width: 0.4"/>
    <path d="M 255.299375 276.294816 
L 260.299375 276.294816 
L 260.299375 271.294816 
L 255.299375 271.294816 
z
" clip-path="url(#p5003e4e787)" style="fill: #ffffff; stroke: #000000; stroke-width: 0.4"/>
    <path d="M 254.075722 280.749094 
L 259.075722 280.749094 
L 259.075722 275.749094 
L 254.075722 275.749094 
z
" clip-path="url(#p5003e4e787)" style="fill: #ffffff; stroke: #000000; stroke-width: 0.4"/>
    <path d="M 255.673067 276.022869 
L 260.673067 276.022869 
L 260.673067 271.022869 
L 255.673067 271.022869 
z
" clip-path="url(#p5003e4e787)" style="fill: #ffffff; stroke: #000000; stroke-width: 0.4"/>
   </g>
   <g id="PathCollection_43">
    <path d="M 79.20141 343.208047 
L 76.70141 348.208047 
L 81.70141 348.208047 
z
" clip-path="url(#p5003e4e787)" style="fill: #ffffff; stroke: #000000; stroke-width: 0.4"/>
    <path d="M 81.661086 343.238046 
L 79.161086 348.238046 
L 84.161086 348.238046 
z
" clip-path="url(#p5003e4e787)" style="fill: #ffffff; stroke: #000000; stroke-width: 0.4"/>
    <path d="M 80.904181 343.187293 
L 78.404181 348.187293 
L 83.404181 348.187293 
z
" clip-path="url(#p5003e4e787)" style="fill: #ffffff; stroke: #000000; stroke-width: 0.4"/>
    <path d="M 78.682189 343.240053 
L 76.182189 348.240053 
L 81.182189 348.240053 
z
" clip-path="url(#p5003e4e787)" style="fill: #ffffff; stroke: #000000; stroke-width: 0.4"/>
   </g>
   <g id="PathCollection_44">
    <path d="M 110.647204 343.28 
L 108.147204 348.28 
L 113.147204 348.28 
z
" clip-path="url(#p5003e4e787)" style="fill: #ffffff; stroke: #000000; stroke-width: 0.4"/>
    <path d="M 111.17773 343.28 
L 108.67773 348.28 
L 113.67773 348.28 
z
" clip-path="url(#p5003e4e787)" style="fill: #ffffff; stroke: #000000; stroke-width: 0.4"/>
    <path d="M 108.695162 343.28 
L 106.195162 348.28 
L 111.195162 348.28 
z
" clip-path="url(#p5003e4e787)" style="fill: #ffffff; stroke: #000000; stroke-width: 0.4"/>
    <path d="M 108.781654 343.28 
L 106.281654 348.28 
L 111.281654 348.28 
z
" clip-path="url(#p5003e4e787)" style="fill: #ffffff; stroke: #000000; stroke-width: 0.4"/>
   </g>
   <g id="PathCollection_45">
    <path d="M 141.538289 339.331374 
L 139.038289 344.331374 
L 144.038289 344.331374 
z
" clip-path="url(#p5003e4e787)" style="fill: #ffffff; stroke: #000000; stroke-width: 0.4"/>
    <path d="M 140.814873 339.157784 
L 138.314873 344.157784 
L 143.314873 344.157784 
z
" clip-path="url(#p5003e4e787)" style="fill: #ffffff; stroke: #000000; stroke-width: 0.4"/>
    <path d="M 137.932942 338.794266 
L 135.432942 343.794266 
L 140.432942 343.794266 
z
" clip-path="url(#p5003e4e787)" style="fill: #ffffff; stroke: #000000; stroke-width: 0.4"/>
    <path d="M 141.235512 338.564332 
L 138.735512 343.564332 
L 143.735512 343.564332 
z
" clip-path="url(#p5003e4e787)" style="fill: #ffffff; stroke: #000000; stroke-width: 0.4"/>
   </g>
   <g id="PathCollection_46">
    <path d="M 166.798992 340.331206 
L 164.298992 345.331206 
L 169.298992 345.331206 
z
" clip-path="url(#p5003e4e787)" style="fill: #ffffff; stroke: #000000; stroke-width: 0.4"/>
    <path d="M 169.188953 340.172553 
L 166.688953 345.172553 
L 171.688953 345.172553 
z
" clip-path="url(#p5003e4e787)" style="fill: #ffffff; stroke: #000000; stroke-width: 0.4"/>
    <path d="M 171.326095 340.472688 
L 168.826095 345.472688 
L 173.826095 345.472688 
z
" clip-path="url(#p5003e4e787)" style="fill: #ffffff; stroke: #000000; stroke-width: 0.4"/>
    <path d="M 171.330387 339.782829 
L 168.830387 344.782829 
L 173.830387 344.782829 
z
" clip-path="url(#p5003e4e787)" style="fill: #ffffff; stroke: #000000; stroke-width: 0.4"/>
   </g>
   <g id="PathCollection_47">
    <path d="M 201.376985 334.841492 
L 198.876985 339.841492 
L 203.876985 339.841492 
z
" clip-path="url(#p5003e4e787)" style="fill: #ffffff; stroke: #000000; stroke-width: 0.4"/>
    <path d="M 201.682186 336.14691 
L 199.182186 341.14691 
L 204.182186 341.14691 
z
" clip-path="url(#p5003e4e787)" style="fill: #ffffff; stroke: #000000; stroke-width: 0.4"/>
    <path d="M 197.878316 334.317091 
L 195.378316 339.317091 
L 200.378316 339.317091 
z
" clip-path="url(#p5003e4e787)" style="fill: #ffffff; stroke: #000000; stroke-width: 0.4"/>
    <path d="M 199.464408 333.654448 
L 196.964408 338.654448 
L 201.964408 338.654448 
z
" clip-path="url(#p5003e4e787)" style="fill: #ffffff; stroke: #000000; stroke-width: 0.4"/>
   </g>
   <g id="PathCollection_48">
    <path d="M 231.694308 330.904823 
L 229.194308 335.904823 
L 234.194308 335.904823 
z
" clip-path="url(#p5003e4e787)" style="fill: #ffffff; stroke: #000000; stroke-width: 0.4"/>
    <path d="M 231.684809 333.173656 
L 229.184809 338.173656 
L 234.184809 338.173656 
z
" clip-path="url(#p5003e4e787)" style="fill: #ffffff; stroke: #000000; stroke-width: 0.4"/>
    <path d="M 229.377973 328.696298 
L 226.877973 333.696298 
L 231.877973 333.696298 
z
" clip-path="url(#p5003e4e787)" style="fill: #ffffff; stroke: #000000; stroke-width: 0.4"/>
    <path d="M 226.780364 329.408431 
L 224.280364 334.408431 
L 229.280364 334.408431 
z
" clip-path="url(#p5003e4e787)" style="fill: #ffffff; stroke: #000000; stroke-width: 0.4"/>
   </g>
   <g id="PathCollection_49">
    <path d="M 261.339782 304.454177 
L 258.839782 309.454177 
L 263.839782 309.454177 
z
" clip-path="url(#p5003e4e787)" style="fill: #ffffff; stroke: #000000; stroke-width: 0.4"/>
    <path d="M 261.928852 294.113343 
L 259.428852 299.113343 
L 264.428852 299.113343 
z
" clip-path="url(#p5003e4e787)" style="fill: #ffffff; stroke: #000000; stroke-width: 0.4"/>
    <path d="M 257.886435 298.353583 
L 255.386435 303.353583 
L 260.386435 303.353583 
z
" clip-path="url(#p5003e4e787)" style="fill: #ffffff; stroke: #000000; stroke-width: 0.4"/>
    <path d="M 258.025015 285.619702 
L 255.525015 290.619702 
L 260.525015 290.619702 
z
" clip-path="url(#p5003e4e787)" style="fill: #ffffff; stroke: #000000; stroke-width: 0.4"/>
   </g>
   <g id="PathCollection_50">
    <path d="M 80.716966 349.278386 
L 84.252499 345.742852 
L 80.716966 342.207319 
L 77.181432 345.742852 
z
" clip-path="url(#p5003e4e787)" style="fill: #ffffff; stroke: #000000; stroke-width: 0.4"/>
    <path d="M 83.105004 349.279817 
L 86.640538 345.744283 
L 83.105004 342.208749 
L 79.56947 345.744283 
z
" clip-path="url(#p5003e4e787)" style="fill: #ffffff; stroke: #000000; stroke-width: 0.4"/>
    <path d="M 82.330303 349.250774 
L 85.865837 345.71524 
L 82.330303 342.179706 
L 78.794769 345.71524 
z
" clip-path="url(#p5003e4e787)" style="fill: #ffffff; stroke: #000000; stroke-width: 0.4"/>
   </g>
   <g id="PathCollection_51">
    <path d="M 111.46762 349.315534 
L 115.003154 345.78 
L 111.46762 342.244466 
L 107.932086 345.78 
z
" clip-path="url(#p5003e4e787)" style="fill: #ffffff; stroke: #000000; stroke-width: 0.4"/>
    <path d="M 107.184429 349.315534 
L 110.719963 345.78 
L 107.184429 342.244466 
L 103.648895 345.78 
z
" clip-path="url(#p5003e4e787)" style="fill: #ffffff; stroke: #000000; stroke-width: 0.4"/>
    <path d="M 112.539378 349.315534 
L 116.074912 345.78 
L 112.539378 342.244466 
L 109.003844 345.78 
z
" clip-path="url(#p5003e4e787)" style="fill: #ffffff; stroke: #000000; stroke-width: 0.4"/>
   </g>
   <g id="PathCollection_52">
    <path d="M 142.309456 345.004722 
L 145.84499 341.469188 
L 142.309456 337.933654 
L 138.773922 341.469188 
z
" clip-path="url(#p5003e4e787)" style="fill: #ffffff; stroke: #000000; stroke-width: 0.4"/>
    <path d="M 138.208443 345.186439 
L 141.743977 341.650905 
L 138.208443 338.115371 
L 134.672909 341.650905 
z
" clip-path="url(#p5003e4e787)" style="fill: #ffffff; stroke: #000000; stroke-width: 0.4"/>
    <path d="M 141.030842 345.644929 
L 144.566376 342.109395 
L 141.030842 338.573861 
L 137.495308 342.109395 
z
" clip-path="url(#p5003e4e787)" style="fill: #ffffff; stroke: #000000; stroke-width: 0.4"/>
   </g>
   <g id="PathCollection_53">
    <path d="M 167.678717 346.685982 
L 171.214251 343.150448 
L 167.678717 339.614914 
L 164.143183 343.150448 
z
" clip-path="url(#p5003e4e787)" style="fill: #ffffff; stroke: #000000; stroke-width: 0.4"/>
    <path d="M 167.920479 347.087485 
L 171.456013 343.551951 
L 167.920479 340.016418 
L 164.384945 343.551951 
z
" clip-path="url(#p5003e4e787)" style="fill: #ffffff; stroke: #000000; stroke-width: 0.4"/>
    <path d="M 172.081479 347.421161 
L 175.617013 343.885627 
L 172.081479 340.350093 
L 168.545945 343.885627 
z
" clip-path="url(#p5003e4e787)" style="fill: #ffffff; stroke: #000000; stroke-width: 0.4"/>
   </g>
   <g id="PathCollection_54">
    <path d="M 199.771424 342.113867 
L 203.306958 338.578333 
L 199.771424 335.042799 
L 196.23589 338.578333 
z
" clip-path="url(#p5003e4e787)" style="fill: #ffffff; stroke: #000000; stroke-width: 0.4"/>
    <path d="M 202.006934 341.969851 
L 205.542468 338.434317 
L 202.006934 334.898783 
L 198.4714 338.434317 
z
" clip-path="url(#p5003e4e787)" style="fill: #ffffff; stroke: #000000; stroke-width: 0.4"/>
    <path d="M 199.458584 340.84885 
L 202.994118 337.313317 
L 199.458584 333.777783 
L 195.92305 337.313317 
z
" clip-path="url(#p5003e4e787)" style="fill: #ffffff; stroke: #000000; stroke-width: 0.4"/>
   </g>
   <g id="PathCollection_55">
    <path d="M 226.580096 333.659905 
L 230.11563 330.124371 
L 226.580096 326.588837 
L 223.044562 330.124371 
z
" clip-path="url(#p5003e4e787)" style="fill: #ffffff; stroke: #000000; stroke-width: 0.4"/>
    <path d="M 229.13662 330.082018 
L 232.672154 326.546484 
L 229.13662 323.01095 
L 225.601086 326.546484 
z
" clip-path="url(#p5003e4e787)" style="fill: #ffffff; stroke: #000000; stroke-width: 0.4"/>
    <path d="M 227.28613 329.095592 
L 230.821664 325.560058 
L 227.28613 322.024524 
L 223.750596 325.560058 
z
" clip-path="url(#p5003e4e787)" style="fill: #ffffff; stroke: #000000; stroke-width: 0.4"/>
   </g>
   <g id="PathCollection_56">
    <path d="M 258.519568 277.911482 
L 262.055102 274.375948 
L 258.519568 270.840414 
L 254.984034 274.375948 
z
" clip-path="url(#p5003e4e787)" style="fill: #ffffff; stroke: #000000; stroke-width: 0.4"/>
    <path d="M 258.829625 271.814109 
L 262.365158 268.278575 
L 258.829625 264.743041 
L 255.294091 268.278575 
z
" clip-path="url(#p5003e4e787)" style="fill: #ffffff; stroke: #000000; stroke-width: 0.4"/>
    <path d="M 258.083519 265.298756 
L 261.619053 261.763222 
L 258.083519 258.227688 
L 254.547985 261.763222 
z
" clip-path="url(#p5003e4e787)" style="fill: #ffffff; stroke: #000000; stroke-width: 0.4"/>
   </g>
   <g id="text_31">
    <!-- *** -->
    <g transform="translate(236.862368 251.369135)scale(0.1 -0.1)">
     <use xlink:href="#DejaVuSans-2a"/>
     <use xlink:href="#DejaVuSans-2a" x="50"/>
     <use xlink:href="#DejaVuSans-2a" x="100"/>
    </g>
   </g>
   <g id="text_32">
    <!-- *** -->
    <g transform="translate(221.942582 235.278509)scale(0.1 -0.1)">
     <use xlink:href="#DejaVuSans-2a"/>
     <use xlink:href="#DejaVuSans-2a" x="50"/>
     <use xlink:href="#DejaVuSans-2a" x="100"/>
    </g>
   </g>
   <g id="text_33">
    <!-- *** -->
    <g transform="translate(207.022796 219.187883)scale(0.1 -0.1)">
     <use xlink:href="#DejaVuSans-2a"/>
     <use xlink:href="#DejaVuSans-2a" x="50"/>
     <use xlink:href="#DejaVuSans-2a" x="100"/>
    </g>
   </g>
   <g id="text_34">
    <!-- Ngn2 -->
    <g transform="translate(24.63375 360.378437)scale(0.1 -0.1)">
     <defs>
      <path id="DejaVuSans-67" d="M 2906 1791 
Q 2906 2416 2648 2759 
Q 2391 3103 1925 3103 
Q 1463 3103 1205 2759 
Q 947 2416 947 1791 
Q 947 1169 1205 825 
Q 1463 481 1925 481 
Q 2391 481 2648 825 
Q 2906 1169 2906 1791 
z
M 3481 434 
Q 3481 -459 3084 -895 
Q 2688 -1331 1869 -1331 
Q 1566 -1331 1297 -1286 
Q 1028 -1241 775 -1147 
L 775 -588 
Q 1028 -725 1275 -790 
Q 1522 -856 1778 -856 
Q 2344 -856 2625 -561 
Q 2906 -266 2906 331 
L 2906 616 
Q 2728 306 2450 153 
Q 2172 0 1784 0 
Q 1141 0 747 490 
Q 353 981 353 1791 
Q 353 2603 747 3093 
Q 1141 3584 1784 3584 
Q 2172 3584 2450 3431 
Q 2728 3278 2906 2969 
L 2906 3500 
L 3481 3500 
L 3481 434 
z
" transform="scale(0.015625)"/>
     </defs>
     <use xlink:href="#DejaVuSans-4e"/>
     <use xlink:href="#DejaVuSans-67" x="74.804688"/>
     <use xlink:href="#DejaVuSans-6e" x="138.28125"/>
     <use xlink:href="#DejaVuSans-32" x="201.660156"/>
    </g>
    <!-- Isl1 -->
    <g transform="translate(33.863438 371.57625)scale(0.1 -0.1)">
     <defs>
      <path id="DejaVuSans-49" d="M 628 4666 
L 1259 4666 
L 1259 0 
L 628 0 
L 628 4666 
z
" transform="scale(0.015625)"/>
     </defs>
     <use xlink:href="#DejaVuSans-49"/>
     <use xlink:href="#DejaVuSans-73" x="29.492188"/>
     <use xlink:href="#DejaVuSans-6c" x="81.591797"/>
     <use xlink:href="#DejaVuSans-31" x="109.375"/>
    </g>
    <!-- Lhx3 -->
    <g transform="translate(26.972812 382.774062)scale(0.1 -0.1)">
     <defs>
      <path id="DejaVuSans-4c" d="M 628 4666 
L 1259 4666 
L 1259 531 
L 3531 531 
L 3531 0 
L 628 0 
L 628 4666 
z
" transform="scale(0.015625)"/>
      <path id="DejaVuSans-68" d="M 3513 2113 
L 3513 0 
L 2938 0 
L 2938 2094 
Q 2938 2591 2744 2837 
Q 2550 3084 2163 3084 
Q 1697 3084 1428 2787 
Q 1159 2491 1159 1978 
L 1159 0 
L 581 0 
L 581 4863 
L 1159 4863 
L 1159 2956 
Q 1366 3272 1645 3428 
Q 1925 3584 2291 3584 
Q 2894 3584 3203 3211 
Q 3513 2838 3513 2113 
z
" transform="scale(0.015625)"/>
      <path id="DejaVuSans-78" d="M 3513 3500 
L 2247 1797 
L 3578 0 
L 2900 0 
L 1881 1375 
L 863 0 
L 184 0 
L 1544 1831 
L 300 3500 
L 978 3500 
L 1906 2253 
L 2834 3500 
L 3513 3500 
z
" transform="scale(0.015625)"/>
     </defs>
     <use xlink:href="#DejaVuSans-4c"/>
     <use xlink:href="#DejaVuSans-68" x="55.712891"/>
     <use xlink:href="#DejaVuSans-78" x="119.091797"/>
     <use xlink:href="#DejaVuSans-33" x="178.271484"/>
    </g>
   </g>
   <g id="text_35">
    <g id="patch_33">
     <path d="M 76.063471 336.733672 
L 84.425971 336.733672 
L 84.425971 325.055547 
L 76.063471 325.055547 
z
" style="fill: #ffffff; opacity: 0.75"/>
    </g>
    <!-- 0 -->
    <g transform="translate(77.063471 333.653984)scale(0.1 -0.1)">
     <use xlink:href="#DejaVuSans-30"/>
    </g>
   </g>
   <g id="text_36">
    <g id="patch_34">
     <path d="M 105.903043 336.777819 
L 114.265543 336.777819 
L 114.265543 325.099694 
L 105.903043 325.099694 
z
" style="fill: #ffffff; opacity: 0.75"/>
    </g>
    <!-- 0 -->
    <g transform="translate(106.903043 333.698132)scale(0.1 -0.1)">
     <use xlink:href="#DejaVuSans-30"/>
    </g>
   </g>
   <g id="text_37">
    <g id="patch_35">
     <path d="M 135.742615 332.775359 
L 144.105115 332.775359 
L 144.105115 321.097234 
L 135.742615 321.097234 
z
" style="fill: #ffffff; opacity: 0.75"/>
    </g>
    <!-- 2 -->
    <g transform="translate(136.742615 329.695671)scale(0.1 -0.1)">
     <use xlink:href="#DejaVuSans-32"/>
    </g>
   </g>
   <g id="text_38">
    <g id="patch_36">
     <path d="M 165.582188 334.0183 
L 173.944688 334.0183 
L 173.944688 322.340175 
L 165.582188 322.340175 
z
" style="fill: #ffffff; opacity: 0.75"/>
    </g>
    <!-- 1 -->
    <g transform="translate(166.582188 330.938613)scale(0.1 -0.1)">
     <use xlink:href="#DejaVuSans-31"/>
    </g>
   </g>
   <g id="text_39">
    <g id="patch_37">
     <path d="M 195.42176 329.256893 
L 203.78426 329.256893 
L 203.78426 317.578768 
L 195.42176 317.578768 
z
" style="fill: #ffffff; opacity: 0.75"/>
    </g>
    <!-- 3 -->
    <g transform="translate(196.42176 326.177205)scale(0.1 -0.1)">
     <use xlink:href="#DejaVuSans-33"/>
    </g>
   </g>
   <g id="text_40">
    <g id="patch_38">
     <path d="M 225.261332 322.686924 
L 233.623832 322.686924 
L 233.623832 311.008799 
L 225.261332 311.008799 
z
" style="fill: #ffffff; opacity: 0.75"/>
    </g>
    <!-- 5 -->
    <g transform="translate(226.261332 319.607237)scale(0.1 -0.1)">
     <use xlink:href="#DejaVuSans-35"/>
    </g>
   </g>
   <g id="text_41">
    <g id="patch_39">
     <path d="M 251.919654 269.694283 
L 266.644654 269.694283 
L 266.644654 258.016158 
L 251.919654 258.016158 
z
" style="fill: #ffffff; opacity: 0.75"/>
    </g>
    <!-- 26 -->
    <g transform="translate(252.919654 266.614595)scale(0.1 -0.1)">
     <use xlink:href="#DejaVuSans-32"/>
     <use xlink:href="#DejaVuSans-36" x="63.623047"/>
    </g>
   </g>
  </g>
  <g id="text_42">
   <!-- 14 dpi, + DDRR -->
   <g transform="translate(119.01 16.318125)scale(0.12 -0.12)">
    <defs>
     <path id="DejaVuSans-2c" d="M 750 794 
L 1409 794 
L 1409 256 
L 897 -744 
L 494 -744 
L 750 256 
L 750 794 
z
" transform="scale(0.015625)"/>
     <path id="DejaVuSans-44" d="M 1259 4147 
L 1259 519 
L 2022 519 
Q 2988 519 3436 956 
Q 3884 1394 3884 2338 
Q 3884 3275 3436 3711 
Q 2988 4147 2022 4147 
L 1259 4147 
z
M 628 4666 
L 1925 4666 
Q 3281 4666 3915 4102 
Q 4550 3538 4550 2338 
Q 4550 1131 3912 565 
Q 3275 0 1925 0 
L 628 0 
L 628 4666 
z
" transform="scale(0.015625)"/>
     <path id="DejaVuSans-52" d="M 2841 2188 
Q 3044 2119 3236 1894 
Q 3428 1669 3622 1275 
L 4263 0 
L 3584 0 
L 2988 1197 
Q 2756 1666 2539 1819 
Q 2322 1972 1947 1972 
L 1259 1972 
L 1259 0 
L 628 0 
L 628 4666 
L 2053 4666 
Q 2853 4666 3247 4331 
Q 3641 3997 3641 3322 
Q 3641 2881 3436 2590 
Q 3231 2300 2841 2188 
z
M 1259 4147 
L 1259 2491 
L 2053 2491 
Q 2509 2491 2742 2702 
Q 2975 2913 2975 3322 
Q 2975 3731 2742 3939 
Q 2509 4147 2053 4147 
L 1259 4147 
z
" transform="scale(0.015625)"/>
    </defs>
    <use xlink:href="#DejaVuSans-31"/>
    <use xlink:href="#DejaVuSans-34" x="63.623047"/>
    <use xlink:href="#DejaVuSans-20" x="127.246094"/>
    <use xlink:href="#DejaVuSans-64" x="159.033203"/>
    <use xlink:href="#DejaVuSans-70" x="222.509766"/>
    <use xlink:href="#DejaVuSans-69" x="285.986328"/>
    <use xlink:href="#DejaVuSans-2c" x="313.769531"/>
    <use xlink:href="#DejaVuSans-20" x="345.556641"/>
    <use xlink:href="#DejaVuSans-2b" x="377.34375"/>
    <use xlink:href="#DejaVuSans-20" x="461.132812"/>
    <use xlink:href="#DejaVuSans-44" x="492.919922"/>
    <use xlink:href="#DejaVuSans-44" x="569.921875"/>
    <use xlink:href="#DejaVuSans-52" x="646.923828"/>
    <use xlink:href="#DejaVuSans-52" x="716.40625"/>
   </g>
  </g>
 </g>
 <defs>
  <clipPath id="p01c645692f">
   <rect x="58.163438" y="46.8" width="223.2" height="135.9"/>
  </clipPath>
  <clipPath id="p5003e4e787">
   <rect x="58.163438" y="209.88" width="223.2" height="135.9"/>
  </clipPath>
 </defs>
</svg>
