<?xml version="1.0" encoding="utf-8" standalone="no"?>
<!DOCTYPE svg PUBLIC "-//W3C//DTD SVG 1.1//EN"
  "http://www.w3.org/Graphics/SVG/1.1/DTD/svg11.dtd">
<svg xmlns:xlink="http://www.w3.org/1999/xlink" width="285.379062pt" height="405.731875pt" viewBox="0 0 285.379062 405.731875" xmlns="http://www.w3.org/2000/svg" version="1.1">
 <metadata>
  <rdf:RDF xmlns:dc="http://purl.org/dc/elements/1.1/" xmlns:cc="http://creativecommons.org/ns#" xmlns:rdf="http://www.w3.org/1999/02/22-rdf-syntax-ns#">
   <cc:Work>
    <dc:type rdf:resource="http://purl.org/dc/dcmitype/StillImage"/>
    <dc:date>2025-01-25T15:53:58.100591</dc:date>
    <dc:format>image/svg+xml</dc:format>
    <dc:creator>
     <cc:Agent>
      <dc:title>Matplotlib v3.5.2, https://matplotlib.org/</dc:title>
     </cc:Agent>
    </dc:creator>
   </cc:Work>
  </rdf:RDF>
 </metadata>
 <defs>
  <style type="text/css">*{stroke-linejoin: round; stroke-linecap: butt}</style>
 </defs>
 <g id="figure_1">
  <g id="patch_1">
   <path d="M 0 405.731875 
L 285.379062 405.731875 
L 285.379062 0 
L 0 0 
L 0 405.731875 
z
" style="fill: none"/>
  </g>
  <g id="axes_1">
   <g id="patch_2">
    <path d="M 54.979062 182.7 
L 278.179062 182.7 
L 278.179062 46.8 
L 54.979062 46.8 
z
" style="fill: #ffffff"/>
   </g>
   <g id="patch_3">
    <path d="M 65.124517 182.7 
L 88.996175 182.7 
L 88.996175 182.7 
L 65.124517 182.7 
z
" clip-path="url(#p636be863bd)" style="opacity: 0.3"/>
   </g>
   <g id="patch_4">
    <path d="M 94.964089 182.7 
L 118.835747 182.7 
L 118.835747 182.7 
L 94.964089 182.7 
z
" clip-path="url(#p636be863bd)" style="opacity: 0.3"/>
   </g>
   <g id="patch_5">
    <path d="M 124.803661 182.7 
L 148.675319 182.7 
L 148.675319 182.7 
L 124.803661 182.7 
z
" clip-path="url(#p636be863bd)" style="opacity: 0.3"/>
   </g>
   <g id="patch_6">
    <path d="M 154.643234 182.7 
L 178.514891 182.7 
L 178.514891 182.67184 
L 154.643234 182.67184 
z
" clip-path="url(#p636be863bd)" style="opacity: 0.3"/>
   </g>
   <g id="patch_7">
    <path d="M 184.482806 182.7 
L 208.354464 182.7 
L 208.354464 182.418403 
L 184.482806 182.418403 
z
" clip-path="url(#p636be863bd)" style="opacity: 0.3"/>
   </g>
   <g id="patch_8">
    <path d="M 214.322378 182.7 
L 238.194036 182.7 
L 238.194036 182.7 
L 214.322378 182.7 
z
" clip-path="url(#p636be863bd)" style="opacity: 0.3"/>
   </g>
   <g id="patch_9">
    <path d="M 244.16195 182.7 
L 268.033608 182.7 
L 268.033608 140.488594 
L 244.16195 140.488594 
z
" clip-path="url(#p636be863bd)" style="opacity: 0.3"/>
   </g>
   <g id="matplotlib.axis_1">
    <g id="xtick_1">
     <g id="line2d_1">
      <defs>
       <path id="mf5ed981942" d="M 0 0 
L 0 3.5 
" style="stroke: #000000; stroke-width: 0.8"/>
      </defs>
      <g>
       <use xlink:href="#mf5ed981942" x="77.060346" y="182.7" style="stroke: #000000; stroke-width: 0.8"/>
      </g>
     </g>
    </g>
    <g id="xtick_2">
     <g id="line2d_2">
      <g>
       <use xlink:href="#mf5ed981942" x="106.899918" y="182.7" style="stroke: #000000; stroke-width: 0.8"/>
      </g>
     </g>
    </g>
    <g id="xtick_3">
     <g id="line2d_3">
      <g>
       <use xlink:href="#mf5ed981942" x="136.73949" y="182.7" style="stroke: #000000; stroke-width: 0.8"/>
      </g>
     </g>
    </g>
    <g id="xtick_4">
     <g id="line2d_4">
      <g>
       <use xlink:href="#mf5ed981942" x="166.579062" y="182.7" style="stroke: #000000; stroke-width: 0.8"/>
      </g>
     </g>
    </g>
    <g id="xtick_5">
     <g id="line2d_5">
      <g>
       <use xlink:href="#mf5ed981942" x="196.418635" y="182.7" style="stroke: #000000; stroke-width: 0.8"/>
      </g>
     </g>
    </g>
    <g id="xtick_6">
     <g id="line2d_6">
      <g>
       <use xlink:href="#mf5ed981942" x="226.258207" y="182.7" style="stroke: #000000; stroke-width: 0.8"/>
      </g>
     </g>
    </g>
    <g id="xtick_7">
     <g id="line2d_7">
      <g>
       <use xlink:href="#mf5ed981942" x="256.097779" y="182.7" style="stroke: #000000; stroke-width: 0.8"/>
      </g>
     </g>
    </g>
   </g>
   <g id="matplotlib.axis_2">
    <g id="ytick_1">
     <g id="line2d_8">
      <defs>
       <path id="m560fa76786" d="M 0 0 
L -3.5 0 
" style="stroke: #000000; stroke-width: 0.8"/>
      </defs>
      <g>
       <use xlink:href="#m560fa76786" x="54.979062" y="182.7" style="stroke: #000000; stroke-width: 0.8"/>
      </g>
     </g>
     <g id="text_1">
      <!-- 0 -->
      <g transform="translate(41.616563 186.499219)scale(0.1 -0.1)">
       <defs>
        <path id="DejaVuSans-30" d="M 2034 4250 
Q 1547 4250 1301 3770 
Q 1056 3291 1056 2328 
Q 1056 1369 1301 889 
Q 1547 409 2034 409 
Q 2525 409 2770 889 
Q 3016 1369 3016 2328 
Q 3016 3291 2770 3770 
Q 2525 4250 2034 4250 
z
M 2034 4750 
Q 2819 4750 3233 4129 
Q 3647 3509 3647 2328 
Q 3647 1150 3233 529 
Q 2819 -91 2034 -91 
Q 1250 -91 836 529 
Q 422 1150 422 2328 
Q 422 3509 836 4129 
Q 1250 4750 2034 4750 
z
" transform="scale(0.015625)"/>
       </defs>
       <use xlink:href="#DejaVuSans-30"/>
      </g>
     </g>
    </g>
    <g id="ytick_2">
     <g id="line2d_9">
      <g>
       <use xlink:href="#m560fa76786" x="54.979062" y="137.644463" style="stroke: #000000; stroke-width: 0.8"/>
      </g>
     </g>
     <g id="text_2">
      <!-- 1 -->
      <g transform="translate(41.616563 141.443682)scale(0.1 -0.1)">
       <defs>
        <path id="DejaVuSans-31" d="M 794 531 
L 1825 531 
L 1825 4091 
L 703 3866 
L 703 4441 
L 1819 4666 
L 2450 4666 
L 2450 531 
L 3481 531 
L 3481 0 
L 794 0 
L 794 531 
z
" transform="scale(0.015625)"/>
       </defs>
       <use xlink:href="#DejaVuSans-31"/>
      </g>
     </g>
    </g>
    <g id="ytick_3">
     <g id="line2d_10">
      <g>
       <use xlink:href="#m560fa76786" x="54.979062" y="92.588927" style="stroke: #000000; stroke-width: 0.8"/>
      </g>
     </g>
     <g id="text_3">
      <!-- 2 -->
      <g transform="translate(41.616563 96.388146)scale(0.1 -0.1)">
       <defs>
        <path id="DejaVuSans-32" d="M 1228 531 
L 3431 531 
L 3431 0 
L 469 0 
L 469 531 
Q 828 903 1448 1529 
Q 2069 2156 2228 2338 
Q 2531 2678 2651 2914 
Q 2772 3150 2772 3378 
Q 2772 3750 2511 3984 
Q 2250 4219 1831 4219 
Q 1534 4219 1204 4116 
Q 875 4013 500 3803 
L 500 4441 
Q 881 4594 1212 4672 
Q 1544 4750 1819 4750 
Q 2544 4750 2975 4387 
Q 3406 4025 3406 3419 
Q 3406 3131 3298 2873 
Q 3191 2616 2906 2266 
Q 2828 2175 2409 1742 
Q 1991 1309 1228 531 
z
" transform="scale(0.015625)"/>
       </defs>
       <use xlink:href="#DejaVuSans-32"/>
      </g>
     </g>
    </g>
    <g id="ytick_4">
     <g id="line2d_11">
      <g>
       <use xlink:href="#m560fa76786" x="54.979062" y="47.53339" style="stroke: #000000; stroke-width: 0.8"/>
      </g>
     </g>
     <g id="text_4">
      <!-- 3 -->
      <g transform="translate(41.616563 51.332609)scale(0.1 -0.1)">
       <defs>
        <path id="DejaVuSans-33" d="M 2597 2516 
Q 3050 2419 3304 2112 
Q 3559 1806 3559 1356 
Q 3559 666 3084 287 
Q 2609 -91 1734 -91 
Q 1441 -91 1130 -33 
Q 819 25 488 141 
L 488 750 
Q 750 597 1062 519 
Q 1375 441 1716 441 
Q 2309 441 2620 675 
Q 2931 909 2931 1356 
Q 2931 1769 2642 2001 
Q 2353 2234 1838 2234 
L 1294 2234 
L 1294 2753 
L 1863 2753 
Q 2328 2753 2575 2939 
Q 2822 3125 2822 3475 
Q 2822 3834 2567 4026 
Q 2313 4219 1838 4219 
Q 1578 4219 1281 4162 
Q 984 4106 628 3988 
L 628 4550 
Q 988 4650 1302 4700 
Q 1616 4750 1894 4750 
Q 2613 4750 3031 4423 
Q 3450 4097 3450 3541 
Q 3450 3153 3228 2886 
Q 3006 2619 2597 2516 
z
" transform="scale(0.015625)"/>
       </defs>
       <use xlink:href="#DejaVuSans-33"/>
      </g>
     </g>
    </g>
    <g id="text_5">
     <!-- (%) iMN yield -->
     <g transform="translate(24.339062 148.0125)rotate(-90)scale(0.1 -0.1)">
      <defs>
       <path id="DejaVuSans-28" d="M 1984 4856 
Q 1566 4138 1362 3434 
Q 1159 2731 1159 2009 
Q 1159 1288 1364 580 
Q 1569 -128 1984 -844 
L 1484 -844 
Q 1016 -109 783 600 
Q 550 1309 550 2009 
Q 550 2706 781 3412 
Q 1013 4119 1484 4856 
L 1984 4856 
z
" transform="scale(0.015625)"/>
       <path id="DejaVuSans-25" d="M 4653 2053 
Q 4381 2053 4226 1822 
Q 4072 1591 4072 1178 
Q 4072 772 4226 539 
Q 4381 306 4653 306 
Q 4919 306 5073 539 
Q 5228 772 5228 1178 
Q 5228 1588 5073 1820 
Q 4919 2053 4653 2053 
z
M 4653 2450 
Q 5147 2450 5437 2106 
Q 5728 1763 5728 1178 
Q 5728 594 5436 251 
Q 5144 -91 4653 -91 
Q 4153 -91 3862 251 
Q 3572 594 3572 1178 
Q 3572 1766 3864 2108 
Q 4156 2450 4653 2450 
z
M 1428 4353 
Q 1159 4353 1004 4120 
Q 850 3888 850 3481 
Q 850 3069 1003 2837 
Q 1156 2606 1428 2606 
Q 1700 2606 1854 2837 
Q 2009 3069 2009 3481 
Q 2009 3884 1853 4118 
Q 1697 4353 1428 4353 
z
M 4250 4750 
L 4750 4750 
L 1831 -91 
L 1331 -91 
L 4250 4750 
z
M 1428 4750 
Q 1922 4750 2215 4408 
Q 2509 4066 2509 3481 
Q 2509 2891 2217 2550 
Q 1925 2209 1428 2209 
Q 931 2209 642 2551 
Q 353 2894 353 3481 
Q 353 4063 643 4406 
Q 934 4750 1428 4750 
z
" transform="scale(0.015625)"/>
       <path id="DejaVuSans-29" d="M 513 4856 
L 1013 4856 
Q 1481 4119 1714 3412 
Q 1947 2706 1947 2009 
Q 1947 1309 1714 600 
Q 1481 -109 1013 -844 
L 513 -844 
Q 928 -128 1133 580 
Q 1338 1288 1338 2009 
Q 1338 2731 1133 3434 
Q 928 4138 513 4856 
z
" transform="scale(0.015625)"/>
       <path id="DejaVuSans-20" transform="scale(0.015625)"/>
       <path id="DejaVuSans-69" d="M 603 3500 
L 1178 3500 
L 1178 0 
L 603 0 
L 603 3500 
z
M 603 4863 
L 1178 4863 
L 1178 4134 
L 603 4134 
L 603 4863 
z
" transform="scale(0.015625)"/>
       <path id="DejaVuSans-4d" d="M 628 4666 
L 1569 4666 
L 2759 1491 
L 3956 4666 
L 4897 4666 
L 4897 0 
L 4281 0 
L 4281 4097 
L 3078 897 
L 2444 897 
L 1241 4097 
L 1241 0 
L 628 0 
L 628 4666 
z
" transform="scale(0.015625)"/>
       <path id="DejaVuSans-4e" d="M 628 4666 
L 1478 4666 
L 3547 763 
L 3547 4666 
L 4159 4666 
L 4159 0 
L 3309 0 
L 1241 3903 
L 1241 0 
L 628 0 
L 628 4666 
z
" transform="scale(0.015625)"/>
       <path id="DejaVuSans-79" d="M 2059 -325 
Q 1816 -950 1584 -1140 
Q 1353 -1331 966 -1331 
L 506 -1331 
L 506 -850 
L 844 -850 
Q 1081 -850 1212 -737 
Q 1344 -625 1503 -206 
L 1606 56 
L 191 3500 
L 800 3500 
L 1894 763 
L 2988 3500 
L 3597 3500 
L 2059 -325 
z
" transform="scale(0.015625)"/>
       <path id="DejaVuSans-65" d="M 3597 1894 
L 3597 1613 
L 953 1613 
Q 991 1019 1311 708 
Q 1631 397 2203 397 
Q 2534 397 2845 478 
Q 3156 559 3463 722 
L 3463 178 
Q 3153 47 2828 -22 
Q 2503 -91 2169 -91 
Q 1331 -91 842 396 
Q 353 884 353 1716 
Q 353 2575 817 3079 
Q 1281 3584 2069 3584 
Q 2775 3584 3186 3129 
Q 3597 2675 3597 1894 
z
M 3022 2063 
Q 3016 2534 2758 2815 
Q 2500 3097 2075 3097 
Q 1594 3097 1305 2825 
Q 1016 2553 972 2059 
L 3022 2063 
z
" transform="scale(0.015625)"/>
       <path id="DejaVuSans-6c" d="M 603 4863 
L 1178 4863 
L 1178 0 
L 603 0 
L 603 4863 
z
" transform="scale(0.015625)"/>
       <path id="DejaVuSans-64" d="M 2906 2969 
L 2906 4863 
L 3481 4863 
L 3481 0 
L 2906 0 
L 2906 525 
Q 2725 213 2448 61 
Q 2172 -91 1784 -91 
Q 1150 -91 751 415 
Q 353 922 353 1747 
Q 353 2572 751 3078 
Q 1150 3584 1784 3584 
Q 2172 3584 2448 3432 
Q 2725 3281 2906 2969 
z
M 947 1747 
Q 947 1113 1208 752 
Q 1469 391 1925 391 
Q 2381 391 2643 752 
Q 2906 1113 2906 1747 
Q 2906 2381 2643 2742 
Q 2381 3103 1925 3103 
Q 1469 3103 1208 2742 
Q 947 2381 947 1747 
z
" transform="scale(0.015625)"/>
      </defs>
      <use xlink:href="#DejaVuSans-28"/>
      <use xlink:href="#DejaVuSans-25" x="39.013672"/>
      <use xlink:href="#DejaVuSans-29" x="134.033203"/>
      <use xlink:href="#DejaVuSans-20" x="173.046875"/>
      <use xlink:href="#DejaVuSans-69" x="204.833984"/>
      <use xlink:href="#DejaVuSans-4d" x="232.617188"/>
      <use xlink:href="#DejaVuSans-4e" x="318.896484"/>
      <use xlink:href="#DejaVuSans-20" x="393.701172"/>
      <use xlink:href="#DejaVuSans-79" x="425.488281"/>
      <use xlink:href="#DejaVuSans-69" x="484.667969"/>
      <use xlink:href="#DejaVuSans-65" x="512.451172"/>
      <use xlink:href="#DejaVuSans-6c" x="573.974609"/>
      <use xlink:href="#DejaVuSans-64" x="601.757812"/>
     </g>
     <!-- per MEF plated -->
     <g transform="translate(35.536875 152.421875)rotate(-90)scale(0.1 -0.1)">
      <defs>
       <path id="DejaVuSans-70" d="M 1159 525 
L 1159 -1331 
L 581 -1331 
L 581 3500 
L 1159 3500 
L 1159 2969 
Q 1341 3281 1617 3432 
Q 1894 3584 2278 3584 
Q 2916 3584 3314 3078 
Q 3713 2572 3713 1747 
Q 3713 922 3314 415 
Q 2916 -91 2278 -91 
Q 1894 -91 1617 61 
Q 1341 213 1159 525 
z
M 3116 1747 
Q 3116 2381 2855 2742 
Q 2594 3103 2138 3103 
Q 1681 3103 1420 2742 
Q 1159 2381 1159 1747 
Q 1159 1113 1420 752 
Q 1681 391 2138 391 
Q 2594 391 2855 752 
Q 3116 1113 3116 1747 
z
" transform="scale(0.015625)"/>
       <path id="DejaVuSans-72" d="M 2631 2963 
Q 2534 3019 2420 3045 
Q 2306 3072 2169 3072 
Q 1681 3072 1420 2755 
Q 1159 2438 1159 1844 
L 1159 0 
L 581 0 
L 581 3500 
L 1159 3500 
L 1159 2956 
Q 1341 3275 1631 3429 
Q 1922 3584 2338 3584 
Q 2397 3584 2469 3576 
Q 2541 3569 2628 3553 
L 2631 2963 
z
" transform="scale(0.015625)"/>
       <path id="DejaVuSans-45" d="M 628 4666 
L 3578 4666 
L 3578 4134 
L 1259 4134 
L 1259 2753 
L 3481 2753 
L 3481 2222 
L 1259 2222 
L 1259 531 
L 3634 531 
L 3634 0 
L 628 0 
L 628 4666 
z
" transform="scale(0.015625)"/>
       <path id="DejaVuSans-46" d="M 628 4666 
L 3309 4666 
L 3309 4134 
L 1259 4134 
L 1259 2759 
L 3109 2759 
L 3109 2228 
L 1259 2228 
L 1259 0 
L 628 0 
L 628 4666 
z
" transform="scale(0.015625)"/>
       <path id="DejaVuSans-61" d="M 2194 1759 
Q 1497 1759 1228 1600 
Q 959 1441 959 1056 
Q 959 750 1161 570 
Q 1363 391 1709 391 
Q 2188 391 2477 730 
Q 2766 1069 2766 1631 
L 2766 1759 
L 2194 1759 
z
M 3341 1997 
L 3341 0 
L 2766 0 
L 2766 531 
Q 2569 213 2275 61 
Q 1981 -91 1556 -91 
Q 1019 -91 701 211 
Q 384 513 384 1019 
Q 384 1609 779 1909 
Q 1175 2209 1959 2209 
L 2766 2209 
L 2766 2266 
Q 2766 2663 2505 2880 
Q 2244 3097 1772 3097 
Q 1472 3097 1187 3025 
Q 903 2953 641 2809 
L 641 3341 
Q 956 3463 1253 3523 
Q 1550 3584 1831 3584 
Q 2591 3584 2966 3190 
Q 3341 2797 3341 1997 
z
" transform="scale(0.015625)"/>
       <path id="DejaVuSans-74" d="M 1172 4494 
L 1172 3500 
L 2356 3500 
L 2356 3053 
L 1172 3053 
L 1172 1153 
Q 1172 725 1289 603 
Q 1406 481 1766 481 
L 2356 481 
L 2356 0 
L 1766 0 
Q 1100 0 847 248 
Q 594 497 594 1153 
L 594 3053 
L 172 3053 
L 172 3500 
L 594 3500 
L 594 4494 
L 1172 4494 
z
" transform="scale(0.015625)"/>
      </defs>
      <use xlink:href="#DejaVuSans-70"/>
      <use xlink:href="#DejaVuSans-65" x="63.476562"/>
      <use xlink:href="#DejaVuSans-72" x="125"/>
      <use xlink:href="#DejaVuSans-20" x="166.113281"/>
      <use xlink:href="#DejaVuSans-4d" x="197.900391"/>
      <use xlink:href="#DejaVuSans-45" x="284.179688"/>
      <use xlink:href="#DejaVuSans-46" x="347.363281"/>
      <use xlink:href="#DejaVuSans-20" x="404.882812"/>
      <use xlink:href="#DejaVuSans-70" x="436.669922"/>
      <use xlink:href="#DejaVuSans-6c" x="500.146484"/>
      <use xlink:href="#DejaVuSans-61" x="527.929688"/>
      <use xlink:href="#DejaVuSans-74" x="589.208984"/>
      <use xlink:href="#DejaVuSans-65" x="628.417969"/>
      <use xlink:href="#DejaVuSans-64" x="689.941406"/>
     </g>
    </g>
   </g>
   <g id="line2d_12">
    <path d="M 77.060346 182.7 
L 77.060346 182.7 
" clip-path="url(#p636be863bd)" style="fill: none; stroke: #424242; stroke-width: 2.7; stroke-linecap: square"/>
   </g>
   <g id="line2d_13">
    <path d="M 106.899918 182.7 
L 106.899918 182.7 
" clip-path="url(#p636be863bd)" style="fill: none; stroke: #424242; stroke-width: 2.7; stroke-linecap: square"/>
   </g>
   <g id="line2d_14">
    <path d="M 136.73949 182.7 
L 136.73949 182.7 
" clip-path="url(#p636be863bd)" style="fill: none; stroke: #424242; stroke-width: 2.7; stroke-linecap: square"/>
   </g>
   <g id="line2d_15">
    <path d="M 166.579062 182.7 
L 166.579062 182.587361 
" clip-path="url(#p636be863bd)" style="fill: none; stroke: #424242; stroke-width: 2.7; stroke-linecap: square"/>
   </g>
   <g id="line2d_16">
    <path d="M 196.418635 182.615521 
L 196.418635 182.164966 
" clip-path="url(#p636be863bd)" style="fill: none; stroke: #424242; stroke-width: 2.7; stroke-linecap: square"/>
   </g>
   <g id="line2d_17">
    <path d="M 226.258207 182.7 
L 226.258207 182.7 
" clip-path="url(#p636be863bd)" style="fill: none; stroke: #424242; stroke-width: 2.7; stroke-linecap: square"/>
   </g>
   <g id="line2d_18">
    <path d="M 256.097779 150.317741 
L 256.097779 128.971273 
" clip-path="url(#p636be863bd)" style="fill: none; stroke: #424242; stroke-width: 2.7; stroke-linecap: square"/>
   </g>
   <g id="line2d_19">
    <path d="M 226.258207 93.138154 
L 226.258207 91.368823 
L 256.097779 91.368823 
L 256.097779 93.138154 
" clip-path="url(#p636be863bd)" style="fill: none; stroke: #333333; stroke-width: 1.5; stroke-linecap: square"/>
   </g>
   <g id="line2d_20">
    <path d="M 196.418635 77.047528 
L 196.418635 75.278197 
L 256.097779 75.278197 
L 256.097779 77.047528 
" clip-path="url(#p636be863bd)" style="fill: none; stroke: #333333; stroke-width: 1.5; stroke-linecap: square"/>
   </g>
   <g id="line2d_21">
    <path d="M 166.579062 60.956902 
L 166.579062 59.187571 
L 256.097779 59.187571 
L 256.097779 60.956902 
" clip-path="url(#p636be863bd)" style="fill: none; stroke: #333333; stroke-width: 1.5; stroke-linecap: square"/>
   </g>
   <g id="patch_10">
    <path d="M 54.979062 182.7 
L 54.979062 46.8 
" style="fill: none; stroke: #000000; stroke-width: 0.8; stroke-linejoin: miter; stroke-linecap: square"/>
   </g>
   <g id="patch_11">
    <path d="M 278.179062 182.7 
L 278.179062 46.8 
" style="fill: none; stroke: #000000; stroke-width: 0.8; stroke-linejoin: miter; stroke-linecap: square"/>
   </g>
   <g id="patch_12">
    <path d="M 54.979062 182.7 
L 278.179062 182.7 
" style="fill: none; stroke: #000000; stroke-width: 0.8; stroke-linejoin: miter; stroke-linecap: square"/>
   </g>
   <g id="patch_13">
    <path d="M 54.979062 46.8 
L 278.179062 46.8 
" style="fill: none; stroke: #000000; stroke-width: 0.8; stroke-linejoin: miter; stroke-linecap: square"/>
   </g>
   <g id="PathCollection_1">
    <defs>
     <path id="C0_0_896af6de77" d="M 0 2.5 
C 0.663008 2.5 1.29895 2.236584 1.767767 1.767767 
C 2.236584 1.29895 2.5 0.663008 2.5 -0 
C 2.5 -0.663008 2.236584 -1.29895 1.767767 -1.767767 
C 1.29895 -2.236584 0.663008 -2.5 0 -2.5 
C -0.663008 -2.5 -1.29895 -2.236584 -1.767767 -1.767767 
C -2.236584 -1.29895 -2.5 -0.663008 -2.5 0 
C -2.5 0.663008 -2.236584 1.29895 -1.767767 1.767767 
C -1.29895 2.236584 -0.663008 2.5 0 2.5 
z
"/>
    </defs>
    <g clip-path="url(#p636be863bd)">
     <use xlink:href="#C0_0_896af6de77" x="80.01798" y="182.7" style="fill: #ffffff; stroke: #000000; stroke-width: 0.4"/>
    </g>
    <g clip-path="url(#p636be863bd)">
     <use xlink:href="#C0_0_896af6de77" x="77.526453" y="182.7" style="fill: #ffffff; stroke: #000000; stroke-width: 0.4"/>
    </g>
    <g clip-path="url(#p636be863bd)">
     <use xlink:href="#C0_0_896af6de77" x="74.509877" y="182.7" style="fill: #ffffff; stroke: #000000; stroke-width: 0.4"/>
    </g>
    <g clip-path="url(#p636be863bd)">
     <use xlink:href="#C0_0_896af6de77" x="74.375089" y="182.7" style="fill: #ffffff; stroke: #000000; stroke-width: 0.4"/>
    </g>
   </g>
   <g id="PathCollection_2">
    <defs>
     <path id="C1_0_f6d4267e43" d="M 0 2.5 
C 0.663008 2.5 1.29895 2.236584 1.767767 1.767767 
C 2.236584 1.29895 2.5 0.663008 2.5 -0 
C 2.5 -0.663008 2.236584 -1.29895 1.767767 -1.767767 
C 1.29895 -2.236584 0.663008 -2.5 0 -2.5 
C -0.663008 -2.5 -1.29895 -2.236584 -1.767767 -1.767767 
C -2.236584 -1.29895 -2.5 -0.663008 -2.5 0 
C -2.5 0.663008 -2.236584 1.29895 -1.767767 1.767767 
C -1.29895 2.236584 -0.663008 2.5 0 2.5 
z
"/>
    </defs>
    <g clip-path="url(#p636be863bd)">
     <use xlink:href="#C1_0_f6d4267e43" x="107.403247" y="182.7" style="fill: #ffffff; stroke: #000000; stroke-width: 0.4"/>
    </g>
    <g clip-path="url(#p636be863bd)">
     <use xlink:href="#C1_0_f6d4267e43" x="109.491581" y="182.7" style="fill: #ffffff; stroke: #000000; stroke-width: 0.4"/>
    </g>
    <g clip-path="url(#p636be863bd)">
     <use xlink:href="#C1_0_f6d4267e43" x="105.911877" y="182.7" style="fill: #ffffff; stroke: #000000; stroke-width: 0.4"/>
    </g>
    <g clip-path="url(#p636be863bd)">
     <use xlink:href="#C1_0_f6d4267e43" x="105.417848" y="182.7" style="fill: #ffffff; stroke: #000000; stroke-width: 0.4"/>
    </g>
   </g>
   <g id="PathCollection_3">
    <defs>
     <path id="C2_0_a7ec901dea" d="M 0 2.5 
C 0.663008 2.5 1.29895 2.236584 1.767767 1.767767 
C 2.236584 1.29895 2.5 0.663008 2.5 -0 
C 2.5 -0.663008 2.236584 -1.29895 1.767767 -1.767767 
C 1.29895 -2.236584 0.663008 -2.5 0 -2.5 
C -0.663008 -2.5 -1.29895 -2.236584 -1.767767 -1.767767 
C -2.236584 -1.29895 -2.5 -0.663008 -2.5 0 
C -2.5 0.663008 -2.236584 1.29895 -1.767767 1.767767 
C -1.29895 2.236584 -0.663008 2.5 0 2.5 
z
"/>
    </defs>
    <g clip-path="url(#p636be863bd)">
     <use xlink:href="#C2_0_a7ec901dea" x="138.301599" y="182.7" style="fill: #ffffff; stroke: #000000; stroke-width: 0.4"/>
    </g>
    <g clip-path="url(#p636be863bd)">
     <use xlink:href="#C2_0_a7ec901dea" x="136.78192" y="182.7" style="fill: #ffffff; stroke: #000000; stroke-width: 0.4"/>
    </g>
    <g clip-path="url(#p636be863bd)">
     <use xlink:href="#C2_0_a7ec901dea" x="139.411149" y="182.7" style="fill: #ffffff; stroke: #000000; stroke-width: 0.4"/>
    </g>
    <g clip-path="url(#p636be863bd)">
     <use xlink:href="#C2_0_a7ec901dea" x="138.363465" y="182.7" style="fill: #ffffff; stroke: #000000; stroke-width: 0.4"/>
    </g>
   </g>
   <g id="PathCollection_4">
    <defs>
     <path id="C3_0_59319a0733" d="M 0 2.5 
C 0.663008 2.5 1.29895 2.236584 1.767767 1.767767 
C 2.236584 1.29895 2.5 0.663008 2.5 -0 
C 2.5 -0.663008 2.236584 -1.29895 1.767767 -1.767767 
C 1.29895 -2.236584 0.663008 -2.5 0 -2.5 
C -0.663008 -2.5 -1.29895 -2.236584 -1.767767 -1.767767 
C -2.236584 -1.29895 -2.5 -0.663008 -2.5 0 
C -2.5 0.663008 -2.236584 1.29895 -1.767767 1.767767 
C -1.29895 2.236584 -0.663008 2.5 0 2.5 
z
"/>
    </defs>
    <g clip-path="url(#p636be863bd)">
     <use xlink:href="#C3_0_59319a0733" x="169.224994" y="182.7" style="fill: #ffffff; stroke: #000000; stroke-width: 0.4"/>
    </g>
    <g clip-path="url(#p636be863bd)">
     <use xlink:href="#C3_0_59319a0733" x="164.145709" y="182.7" style="fill: #ffffff; stroke: #000000; stroke-width: 0.4"/>
    </g>
    <g clip-path="url(#p636be863bd)">
     <use xlink:href="#C3_0_59319a0733" x="165.374822" y="182.7" style="fill: #ffffff; stroke: #000000; stroke-width: 0.4"/>
    </g>
    <g clip-path="url(#p636be863bd)">
     <use xlink:href="#C3_0_59319a0733" x="165.931738" y="182.7" style="fill: #ffffff; stroke: #000000; stroke-width: 0.4"/>
    </g>
   </g>
   <g id="PathCollection_5">
    <defs>
     <path id="C4_0_8ef51739f7" d="M 0 2.5 
C 0.663008 2.5 1.29895 2.236584 1.767767 1.767767 
C 2.236584 1.29895 2.5 0.663008 2.5 -0 
C 2.5 -0.663008 2.236584 -1.29895 1.767767 -1.767767 
C 1.29895 -2.236584 0.663008 -2.5 0 -2.5 
C -0.663008 -2.5 -1.29895 -2.236584 -1.767767 -1.767767 
C -2.236584 -1.29895 -2.5 -0.663008 -2.5 0 
C -2.5 0.663008 -2.236584 1.29895 -1.767767 1.767767 
C -1.29895 2.236584 -0.663008 2.5 0 2.5 
z
"/>
    </defs>
    <g clip-path="url(#p636be863bd)">
     <use xlink:href="#C4_0_8ef51739f7" x="196.127826" y="181.798889" style="fill: #ffffff; stroke: #000000; stroke-width: 0.4"/>
    </g>
    <g clip-path="url(#p636be863bd)">
     <use xlink:href="#C4_0_8ef51739f7" x="196.699642" y="182.7" style="fill: #ffffff; stroke: #000000; stroke-width: 0.4"/>
    </g>
    <g clip-path="url(#p636be863bd)">
     <use xlink:href="#C4_0_8ef51739f7" x="197.190237" y="181.798889" style="fill: #ffffff; stroke: #000000; stroke-width: 0.4"/>
    </g>
    <g clip-path="url(#p636be863bd)">
     <use xlink:href="#C4_0_8ef51739f7" x="197.28797" y="182.7" style="fill: #ffffff; stroke: #000000; stroke-width: 0.4"/>
    </g>
   </g>
   <g id="PathCollection_6">
    <defs>
     <path id="C5_0_f054012fe4" d="M 0 2.5 
C 0.663008 2.5 1.29895 2.236584 1.767767 1.767767 
C 2.236584 1.29895 2.5 0.663008 2.5 -0 
C 2.5 -0.663008 2.236584 -1.29895 1.767767 -1.767767 
C 1.29895 -2.236584 0.663008 -2.5 0 -2.5 
C -0.663008 -2.5 -1.29895 -2.236584 -1.767767 -1.767767 
C -2.236584 -1.29895 -2.5 -0.663008 -2.5 0 
C -2.5 0.663008 -2.236584 1.29895 -1.767767 1.767767 
C -1.29895 2.236584 -0.663008 2.5 0 2.5 
z
"/>
    </defs>
    <g clip-path="url(#p636be863bd)">
     <use xlink:href="#C5_0_f054012fe4" x="224.488343" y="182.7" style="fill: #ffffff; stroke: #000000; stroke-width: 0.4"/>
    </g>
    <g clip-path="url(#p636be863bd)">
     <use xlink:href="#C5_0_f054012fe4" x="225.997557" y="182.7" style="fill: #ffffff; stroke: #000000; stroke-width: 0.4"/>
    </g>
    <g clip-path="url(#p636be863bd)">
     <use xlink:href="#C5_0_f054012fe4" x="225.770727" y="182.7" style="fill: #ffffff; stroke: #000000; stroke-width: 0.4"/>
    </g>
    <g clip-path="url(#p636be863bd)">
     <use xlink:href="#C5_0_f054012fe4" x="227.560951" y="182.7" style="fill: #ffffff; stroke: #000000; stroke-width: 0.4"/>
    </g>
   </g>
   <g id="PathCollection_7">
    <defs>
     <path id="C6_0_071a38fee9" d="M 0 2.5 
C 0.663008 2.5 1.29895 2.236584 1.767767 1.767767 
C 2.236584 1.29895 2.5 0.663008 2.5 -0 
C 2.5 -0.663008 2.236584 -1.29895 1.767767 -1.767767 
C 1.29895 -2.236584 0.663008 -2.5 0 -2.5 
C -0.663008 -2.5 -1.29895 -2.236584 -1.767767 -1.767767 
C -2.236584 -1.29895 -2.5 -0.663008 -2.5 0 
C -2.5 0.663008 -2.236584 1.29895 -1.767767 1.767767 
C -1.29895 2.236584 -0.663008 2.5 0 2.5 
z
"/>
    </defs>
    <g clip-path="url(#p636be863bd)">
     <use xlink:href="#C6_0_071a38fee9" x="254.488703" y="117.820027" style="fill: #ffffff; stroke: #000000; stroke-width: 0.4"/>
    </g>
    <g clip-path="url(#p636be863bd)">
     <use xlink:href="#C6_0_071a38fee9" x="257.985118" y="98.446147" style="fill: #ffffff; stroke: #000000; stroke-width: 0.4"/>
    </g>
    <g clip-path="url(#p636be863bd)">
     <use xlink:href="#C6_0_071a38fee9" x="257.365236" y="106.556143" style="fill: #ffffff; stroke: #000000; stroke-width: 0.4"/>
    </g>
    <g clip-path="url(#p636be863bd)">
     <use xlink:href="#C6_0_071a38fee9" x="255.73865" y="101.149479" style="fill: #ffffff; stroke: #000000; stroke-width: 0.4"/>
    </g>
   </g>
   <g id="PathCollection_8">
    <path d="M 72.488928 185.2 
L 77.488928 185.2 
L 77.488928 180.2 
L 72.488928 180.2 
z
" clip-path="url(#p636be863bd)" style="fill: #ffffff; stroke: #000000; stroke-width: 0.4"/>
    <path d="M 74.019105 185.2 
L 79.019105 185.2 
L 79.019105 180.2 
L 74.019105 180.2 
z
" clip-path="url(#p636be863bd)" style="fill: #ffffff; stroke: #000000; stroke-width: 0.4"/>
    <path d="M 75.409759 185.2 
L 80.409759 185.2 
L 80.409759 180.2 
L 75.409759 180.2 
z
" clip-path="url(#p636be863bd)" style="fill: #ffffff; stroke: #000000; stroke-width: 0.4"/>
    <path d="M 72.297988 185.2 
L 77.297988 185.2 
L 77.297988 180.2 
L 72.297988 180.2 
z
" clip-path="url(#p636be863bd)" style="fill: #ffffff; stroke: #000000; stroke-width: 0.4"/>
   </g>
   <g id="PathCollection_9">
    <path d="M 105.318788 185.2 
L 110.318788 185.2 
L 110.318788 180.2 
L 105.318788 180.2 
z
" clip-path="url(#p636be863bd)" style="fill: #ffffff; stroke: #000000; stroke-width: 0.4"/>
    <path d="M 106.594207 185.2 
L 111.594207 185.2 
L 111.594207 180.2 
L 106.594207 180.2 
z
" clip-path="url(#p636be863bd)" style="fill: #ffffff; stroke: #000000; stroke-width: 0.4"/>
    <path d="M 102.775886 185.2 
L 107.775886 185.2 
L 107.775886 180.2 
L 102.775886 180.2 
z
" clip-path="url(#p636be863bd)" style="fill: #ffffff; stroke: #000000; stroke-width: 0.4"/>
    <path d="M 106.044296 185.2 
L 111.044296 185.2 
L 111.044296 180.2 
L 106.044296 180.2 
z
" clip-path="url(#p636be863bd)" style="fill: #ffffff; stroke: #000000; stroke-width: 0.4"/>
   </g>
   <g id="PathCollection_10">
    <path d="M 132.92219 185.2 
L 137.92219 185.2 
L 137.92219 180.2 
L 132.92219 180.2 
z
" clip-path="url(#p636be863bd)" style="fill: #ffffff; stroke: #000000; stroke-width: 0.4"/>
    <path d="M 136.92052 185.2 
L 141.92052 185.2 
L 141.92052 180.2 
L 136.92052 180.2 
z
" clip-path="url(#p636be863bd)" style="fill: #ffffff; stroke: #000000; stroke-width: 0.4"/>
    <path d="M 136.589258 185.2 
L 141.589258 185.2 
L 141.589258 180.2 
L 136.589258 180.2 
z
" clip-path="url(#p636be863bd)" style="fill: #ffffff; stroke: #000000; stroke-width: 0.4"/>
    <path d="M 133.187656 185.2 
L 138.187656 185.2 
L 138.187656 180.2 
L 133.187656 180.2 
z
" clip-path="url(#p636be863bd)" style="fill: #ffffff; stroke: #000000; stroke-width: 0.4"/>
   </g>
   <g id="PathCollection_11">
    <path d="M 165.690578 185.2 
L 170.690578 185.2 
L 170.690578 180.2 
L 165.690578 180.2 
z
" clip-path="url(#p636be863bd)" style="fill: #ffffff; stroke: #000000; stroke-width: 0.4"/>
    <path d="M 165.850729 185.2 
L 170.850729 185.2 
L 170.850729 180.2 
L 165.850729 180.2 
z
" clip-path="url(#p636be863bd)" style="fill: #ffffff; stroke: #000000; stroke-width: 0.4"/>
    <path d="M 165.880571 185.2 
L 170.880571 185.2 
L 170.880571 180.2 
L 165.880571 180.2 
z
" clip-path="url(#p636be863bd)" style="fill: #ffffff; stroke: #000000; stroke-width: 0.4"/>
    <path d="M 166.991381 185.2 
L 171.991381 185.2 
L 171.991381 180.2 
L 166.991381 180.2 
z
" clip-path="url(#p636be863bd)" style="fill: #ffffff; stroke: #000000; stroke-width: 0.4"/>
   </g>
   <g id="PathCollection_12">
    <path d="M 191.303509 185.2 
L 196.303509 185.2 
L 196.303509 180.2 
L 191.303509 180.2 
z
" clip-path="url(#p636be863bd)" style="fill: #ffffff; stroke: #000000; stroke-width: 0.4"/>
    <path d="M 191.865943 185.2 
L 196.865943 185.2 
L 196.865943 180.2 
L 191.865943 180.2 
z
" clip-path="url(#p636be863bd)" style="fill: #ffffff; stroke: #000000; stroke-width: 0.4"/>
    <path d="M 191.746799 185.2 
L 196.746799 185.2 
L 196.746799 180.2 
L 191.746799 180.2 
z
" clip-path="url(#p636be863bd)" style="fill: #ffffff; stroke: #000000; stroke-width: 0.4"/>
    <path d="M 194.068838 183.848334 
L 199.068838 183.848334 
L 199.068838 178.848334 
L 194.068838 178.848334 
z
" clip-path="url(#p636be863bd)" style="fill: #ffffff; stroke: #000000; stroke-width: 0.4"/>
   </g>
   <g id="PathCollection_13">
    <path d="M 225.979542 185.2 
L 230.979542 185.2 
L 230.979542 180.2 
L 225.979542 180.2 
z
" clip-path="url(#p636be863bd)" style="fill: #ffffff; stroke: #000000; stroke-width: 0.4"/>
    <path d="M 221.123404 185.2 
L 226.123404 185.2 
L 226.123404 180.2 
L 221.123404 180.2 
z
" clip-path="url(#p636be863bd)" style="fill: #ffffff; stroke: #000000; stroke-width: 0.4"/>
    <path d="M 221.588131 185.2 
L 226.588131 185.2 
L 226.588131 180.2 
L 221.588131 180.2 
z
" clip-path="url(#p636be863bd)" style="fill: #ffffff; stroke: #000000; stroke-width: 0.4"/>
    <path d="M 226.467061 185.2 
L 231.467061 185.2 
L 231.467061 180.2 
L 226.467061 180.2 
z
" clip-path="url(#p636be863bd)" style="fill: #ffffff; stroke: #000000; stroke-width: 0.4"/>
   </g>
   <g id="PathCollection_14">
    <path d="M 254.872113 145.551128 
L 259.872113 145.551128 
L 259.872113 140.551128 
L 254.872113 140.551128 
z
" clip-path="url(#p636be863bd)" style="fill: #ffffff; stroke: #000000; stroke-width: 0.4"/>
    <path d="M 252.009991 144.199462 
L 257.009991 144.199462 
L 257.009991 139.199462 
L 252.009991 139.199462 
z
" clip-path="url(#p636be863bd)" style="fill: #ffffff; stroke: #000000; stroke-width: 0.4"/>
    <path d="M 251.583944 155.913901 
L 256.583944 155.913901 
L 256.583944 150.913901 
L 251.583944 150.913901 
z
" clip-path="url(#p636be863bd)" style="fill: #ffffff; stroke: #000000; stroke-width: 0.4"/>
    <path d="M 253.29147 164.023898 
L 258.29147 164.023898 
L 258.29147 159.023898 
L 253.29147 159.023898 
z
" clip-path="url(#p636be863bd)" style="fill: #ffffff; stroke: #000000; stroke-width: 0.4"/>
   </g>
   <g id="PathCollection_15">
    <path d="M 76.773399 180.2 
L 74.273399 185.2 
L 79.273399 185.2 
z
" clip-path="url(#p636be863bd)" style="fill: #ffffff; stroke: #000000; stroke-width: 0.4"/>
    <path d="M 75.583553 180.2 
L 73.083553 185.2 
L 78.083553 185.2 
z
" clip-path="url(#p636be863bd)" style="fill: #ffffff; stroke: #000000; stroke-width: 0.4"/>
    <path d="M 79.122217 180.2 
L 76.622217 185.2 
L 81.622217 185.2 
z
" clip-path="url(#p636be863bd)" style="fill: #ffffff; stroke: #000000; stroke-width: 0.4"/>
    <path d="M 79.546014 180.2 
L 77.046014 185.2 
L 82.046014 185.2 
z
" clip-path="url(#p636be863bd)" style="fill: #ffffff; stroke: #000000; stroke-width: 0.4"/>
   </g>
   <g id="PathCollection_16">
    <path d="M 109.416182 180.2 
L 106.916182 185.2 
L 111.916182 185.2 
z
" clip-path="url(#p636be863bd)" style="fill: #ffffff; stroke: #000000; stroke-width: 0.4"/>
    <path d="M 106.719578 180.2 
L 104.219578 185.2 
L 109.219578 185.2 
z
" clip-path="url(#p636be863bd)" style="fill: #ffffff; stroke: #000000; stroke-width: 0.4"/>
    <path d="M 108.481522 180.2 
L 105.981522 185.2 
L 110.981522 185.2 
z
" clip-path="url(#p636be863bd)" style="fill: #ffffff; stroke: #000000; stroke-width: 0.4"/>
    <path d="M 109.874663 180.2 
L 107.374663 185.2 
L 112.374663 185.2 
z
" clip-path="url(#p636be863bd)" style="fill: #ffffff; stroke: #000000; stroke-width: 0.4"/>
   </g>
   <g id="PathCollection_17">
    <path d="M 139.609527 180.2 
L 137.109527 185.2 
L 142.109527 185.2 
z
" clip-path="url(#p636be863bd)" style="fill: #ffffff; stroke: #000000; stroke-width: 0.4"/>
    <path d="M 135.586542 180.2 
L 133.086542 185.2 
L 138.086542 185.2 
z
" clip-path="url(#p636be863bd)" style="fill: #ffffff; stroke: #000000; stroke-width: 0.4"/>
    <path d="M 138.703916 180.2 
L 136.203916 185.2 
L 141.203916 185.2 
z
" clip-path="url(#p636be863bd)" style="fill: #ffffff; stroke: #000000; stroke-width: 0.4"/>
    <path d="M 135.837962 180.2 
L 133.337962 185.2 
L 138.337962 185.2 
z
" clip-path="url(#p636be863bd)" style="fill: #ffffff; stroke: #000000; stroke-width: 0.4"/>
   </g>
   <g id="PathCollection_18">
    <path d="M 165.40798 179.749445 
L 162.90798 184.749445 
L 167.90798 184.749445 
z
" clip-path="url(#p636be863bd)" style="fill: #ffffff; stroke: #000000; stroke-width: 0.4"/>
    <path d="M 168.446673 180.2 
L 165.946673 185.2 
L 170.946673 185.2 
z
" clip-path="url(#p636be863bd)" style="fill: #ffffff; stroke: #000000; stroke-width: 0.4"/>
    <path d="M 164.28435 180.2 
L 161.78435 185.2 
L 166.78435 185.2 
z
" clip-path="url(#p636be863bd)" style="fill: #ffffff; stroke: #000000; stroke-width: 0.4"/>
    <path d="M 167.550291 180.2 
L 165.050291 185.2 
L 170.050291 185.2 
z
" clip-path="url(#p636be863bd)" style="fill: #ffffff; stroke: #000000; stroke-width: 0.4"/>
   </g>
   <g id="PathCollection_19">
    <path d="M 194.253578 179.749445 
L 191.753578 184.749445 
L 196.753578 184.749445 
z
" clip-path="url(#p636be863bd)" style="fill: #ffffff; stroke: #000000; stroke-width: 0.4"/>
    <path d="M 194.286851 179.749445 
L 191.786851 184.749445 
L 196.786851 184.749445 
z
" clip-path="url(#p636be863bd)" style="fill: #ffffff; stroke: #000000; stroke-width: 0.4"/>
    <path d="M 197.863339 180.2 
L 195.363339 185.2 
L 200.363339 185.2 
z
" clip-path="url(#p636be863bd)" style="fill: #ffffff; stroke: #000000; stroke-width: 0.4"/>
    <path d="M 197.190738 180.2 
L 194.690738 185.2 
L 199.690738 185.2 
z
" clip-path="url(#p636be863bd)" style="fill: #ffffff; stroke: #000000; stroke-width: 0.4"/>
   </g>
   <g id="PathCollection_20">
    <path d="M 224.735329 180.2 
L 222.235329 185.2 
L 227.235329 185.2 
z
" clip-path="url(#p636be863bd)" style="fill: #ffffff; stroke: #000000; stroke-width: 0.4"/>
    <path d="M 226.289661 180.2 
L 223.789661 185.2 
L 228.789661 185.2 
z
" clip-path="url(#p636be863bd)" style="fill: #ffffff; stroke: #000000; stroke-width: 0.4"/>
    <path d="M 223.764001 180.2 
L 221.264001 185.2 
L 226.264001 185.2 
z
" clip-path="url(#p636be863bd)" style="fill: #ffffff; stroke: #000000; stroke-width: 0.4"/>
    <path d="M 225.044626 180.2 
L 222.544626 185.2 
L 227.544626 185.2 
z
" clip-path="url(#p636be863bd)" style="fill: #ffffff; stroke: #000000; stroke-width: 0.4"/>
   </g>
   <g id="PathCollection_21">
    <path d="M 257.418529 147.309458 
L 254.918529 152.309458 
L 259.918529 152.309458 
z
" clip-path="url(#p636be863bd)" style="fill: #ffffff; stroke: #000000; stroke-width: 0.4"/>
    <path d="M 253.395226 150.463346 
L 250.895226 155.463346 
L 255.895226 155.463346 
z
" clip-path="url(#p636be863bd)" style="fill: #ffffff; stroke: #000000; stroke-width: 0.4"/>
    <path d="M 255.933515 165.782228 
L 253.433515 170.782228 
L 258.433515 170.782228 
z
" clip-path="url(#p636be863bd)" style="fill: #ffffff; stroke: #000000; stroke-width: 0.4"/>
    <path d="M 257.937058 150.913901 
L 255.437058 155.913901 
L 260.437058 155.913901 
z
" clip-path="url(#p636be863bd)" style="fill: #ffffff; stroke: #000000; stroke-width: 0.4"/>
   </g>
   <g id="PathCollection_22">
    <path d="M 74.74629 186.235534 
L 78.281824 182.7 
L 74.74629 179.164466 
L 71.210756 182.7 
z
" clip-path="url(#p636be863bd)" style="fill: #ffffff; stroke: #000000; stroke-width: 0.4"/>
    <path d="M 75.444673 186.235534 
L 78.980207 182.7 
L 75.444673 179.164466 
L 71.909139 182.7 
z
" clip-path="url(#p636be863bd)" style="fill: #ffffff; stroke: #000000; stroke-width: 0.4"/>
    <path d="M 74.774685 186.235534 
L 78.310219 182.7 
L 74.774685 179.164466 
L 71.239151 182.7 
z
" clip-path="url(#p636be863bd)" style="fill: #ffffff; stroke: #000000; stroke-width: 0.4"/>
    <path d="M 77.915559 186.235534 
L 81.451093 182.7 
L 77.915559 179.164466 
L 74.380025 182.7 
z
" clip-path="url(#p636be863bd)" style="fill: #ffffff; stroke: #000000; stroke-width: 0.4"/>
   </g>
   <g id="PathCollection_23">
    <path d="M 107.240403 186.235534 
L 110.775937 182.7 
L 107.240403 179.164466 
L 103.704869 182.7 
z
" clip-path="url(#p636be863bd)" style="fill: #ffffff; stroke: #000000; stroke-width: 0.4"/>
    <path d="M 105.734757 186.235534 
L 109.270291 182.7 
L 105.734757 179.164466 
L 102.199223 182.7 
z
" clip-path="url(#p636be863bd)" style="fill: #ffffff; stroke: #000000; stroke-width: 0.4"/>
    <path d="M 108.163287 186.235534 
L 111.69882 182.7 
L 108.163287 179.164466 
L 104.627753 182.7 
z
" clip-path="url(#p636be863bd)" style="fill: #ffffff; stroke: #000000; stroke-width: 0.4"/>
    <path d="M 107.064067 186.235534 
L 110.599601 182.7 
L 107.064067 179.164466 
L 103.528533 182.7 
z
" clip-path="url(#p636be863bd)" style="fill: #ffffff; stroke: #000000; stroke-width: 0.4"/>
   </g>
   <g id="PathCollection_24">
    <path d="M 137.758189 186.235534 
L 141.293723 182.7 
L 137.758189 179.164466 
L 134.222655 182.7 
z
" clip-path="url(#p636be863bd)" style="fill: #ffffff; stroke: #000000; stroke-width: 0.4"/>
    <path d="M 139.158482 186.235534 
L 142.694016 182.7 
L 139.158482 179.164466 
L 135.622948 182.7 
z
" clip-path="url(#p636be863bd)" style="fill: #ffffff; stroke: #000000; stroke-width: 0.4"/>
    <path d="M 137.306127 186.235534 
L 140.841661 182.7 
L 137.306127 179.164466 
L 133.770593 182.7 
z
" clip-path="url(#p636be863bd)" style="fill: #ffffff; stroke: #000000; stroke-width: 0.4"/>
    <path d="M 135.778481 186.235534 
L 139.314014 182.7 
L 135.778481 179.164466 
L 132.242947 182.7 
z
" clip-path="url(#p636be863bd)" style="fill: #ffffff; stroke: #000000; stroke-width: 0.4"/>
   </g>
   <g id="PathCollection_25">
    <path d="M 164.887955 186.235534 
L 168.423489 182.7 
L 164.887955 179.164466 
L 161.352421 182.7 
z
" clip-path="url(#p636be863bd)" style="fill: #ffffff; stroke: #000000; stroke-width: 0.4"/>
    <path d="M 167.737599 186.235534 
L 171.273133 182.7 
L 167.737599 179.164466 
L 164.202065 182.7 
z
" clip-path="url(#p636be863bd)" style="fill: #ffffff; stroke: #000000; stroke-width: 0.4"/>
    <path d="M 165.118218 186.235534 
L 168.653752 182.7 
L 165.118218 179.164466 
L 161.582684 182.7 
z
" clip-path="url(#p636be863bd)" style="fill: #ffffff; stroke: #000000; stroke-width: 0.4"/>
    <path d="M 168.562253 186.235534 
L 172.097786 182.7 
L 168.562253 179.164466 
L 165.026719 182.7 
z
" clip-path="url(#p636be863bd)" style="fill: #ffffff; stroke: #000000; stroke-width: 0.4"/>
   </g>
   <g id="PathCollection_26">
    <path d="M 194.135389 186.235534 
L 197.670923 182.7 
L 194.135389 179.164466 
L 190.599855 182.7 
z
" clip-path="url(#p636be863bd)" style="fill: #ffffff; stroke: #000000; stroke-width: 0.4"/>
    <path d="M 198.165942 186.235534 
L 201.701476 182.7 
L 198.165942 179.164466 
L 194.630408 182.7 
z
" clip-path="url(#p636be863bd)" style="fill: #ffffff; stroke: #000000; stroke-width: 0.4"/>
    <path d="M 195.764513 185.784979 
L 199.300047 182.249445 
L 195.764513 178.713911 
L 192.228979 182.249445 
z
" clip-path="url(#p636be863bd)" style="fill: #ffffff; stroke: #000000; stroke-width: 0.4"/>
    <path d="M 195.768757 186.235534 
L 199.304291 182.7 
L 195.768757 179.164466 
L 192.233223 182.7 
z
" clip-path="url(#p636be863bd)" style="fill: #ffffff; stroke: #000000; stroke-width: 0.4"/>
   </g>
   <g id="PathCollection_27">
    <path d="M 227.711022 186.235534 
L 231.246556 182.7 
L 227.711022 179.164466 
L 224.175488 182.7 
z
" clip-path="url(#p636be863bd)" style="fill: #ffffff; stroke: #000000; stroke-width: 0.4"/>
    <path d="M 224.065468 186.235534 
L 227.601001 182.7 
L 224.065468 179.164466 
L 220.529934 182.7 
z
" clip-path="url(#p636be863bd)" style="fill: #ffffff; stroke: #000000; stroke-width: 0.4"/>
    <path d="M 225.220713 186.235534 
L 228.756247 182.7 
L 225.220713 179.164466 
L 221.685179 182.7 
z
" clip-path="url(#p636be863bd)" style="fill: #ffffff; stroke: #000000; stroke-width: 0.4"/>
    <path d="M 225.236814 186.235534 
L 228.772348 182.7 
L 225.236814 179.164466 
L 221.70128 182.7 
z
" clip-path="url(#p636be863bd)" style="fill: #ffffff; stroke: #000000; stroke-width: 0.4"/>
   </g>
   <g id="PathCollection_28">
    <path d="M 254.033528 168.663875 
L 257.569062 165.128341 
L 254.033528 161.592807 
L 250.497994 165.128341 
z
" clip-path="url(#p636be863bd)" style="fill: #ffffff; stroke: #000000; stroke-width: 0.4"/>
    <path d="M 254.351609 149.740549 
L 257.887143 146.205015 
L 254.351609 142.669481 
L 250.816075 146.205015 
z
" clip-path="url(#p636be863bd)" style="fill: #ffffff; stroke: #000000; stroke-width: 0.4"/>
    <path d="M 253.367458 137.124999 
L 256.902992 133.589465 
L 253.367458 130.053931 
L 249.831924 133.589465 
z
" clip-path="url(#p636be863bd)" style="fill: #ffffff; stroke: #000000; stroke-width: 0.4"/>
    <path d="M 257.113197 158.301101 
L 260.648731 154.765567 
L 257.113197 151.230033 
L 253.577663 154.765567 
z
" clip-path="url(#p636be863bd)" style="fill: #ffffff; stroke: #000000; stroke-width: 0.4"/>
   </g>
   <g id="text_6">
    <!-- * -->
    <g transform="translate(238.677993 88.289135)scale(0.1 -0.1)">
     <defs>
      <path id="DejaVuSans-2a" d="M 3009 3897 
L 1888 3291 
L 3009 2681 
L 2828 2375 
L 1778 3009 
L 1778 1831 
L 1422 1831 
L 1422 3009 
L 372 2375 
L 191 2681 
L 1313 3291 
L 191 3897 
L 372 4206 
L 1422 3572 
L 1422 4750 
L 1778 4750 
L 1778 3572 
L 2828 4206 
L 3009 3897 
z
" transform="scale(0.015625)"/>
     </defs>
     <use xlink:href="#DejaVuSans-2a"/>
    </g>
   </g>
   <g id="text_7">
    <!-- * -->
    <g transform="translate(223.758207 72.198509)scale(0.1 -0.1)">
     <use xlink:href="#DejaVuSans-2a"/>
    </g>
   </g>
   <g id="text_8">
    <!-- * -->
    <g transform="translate(208.838421 56.107883)scale(0.1 -0.1)">
     <use xlink:href="#DejaVuSans-2a"/>
    </g>
   </g>
   <g id="text_9">
    <g id="patch_14">
     <path d="M 72.879096 173.7 
L 81.241596 173.7 
L 81.241596 162.021875 
L 72.879096 162.021875 
z
" style="fill: #ffffff; opacity: 0.75"/>
    </g>
    <!-- 0 -->
    <g transform="translate(73.879096 170.620312)scale(0.1 -0.1)">
     <use xlink:href="#DejaVuSans-30"/>
    </g>
   </g>
   <g id="text_10">
    <g id="patch_15">
     <path d="M 102.718668 173.7 
L 111.081168 173.7 
L 111.081168 162.021875 
L 102.718668 162.021875 
z
" style="fill: #ffffff; opacity: 0.75"/>
    </g>
    <!-- 0 -->
    <g transform="translate(103.718668 170.620312)scale(0.1 -0.1)">
     <use xlink:href="#DejaVuSans-30"/>
    </g>
   </g>
   <g id="text_11">
    <g id="patch_16">
     <path d="M 132.55824 173.7 
L 140.92074 173.7 
L 140.92074 162.021875 
L 132.55824 162.021875 
z
" style="fill: #ffffff; opacity: 0.75"/>
    </g>
    <!-- 0 -->
    <g transform="translate(133.55824 170.620312)scale(0.1 -0.1)">
     <use xlink:href="#DejaVuSans-30"/>
    </g>
   </g>
   <g id="text_12">
    <g id="patch_17">
     <path d="M 162.397812 173.67184 
L 170.760312 173.67184 
L 170.760312 161.993715 
L 162.397812 161.993715 
z
" style="fill: #ffffff; opacity: 0.75"/>
    </g>
    <!-- 0 -->
    <g transform="translate(163.397812 170.592153)scale(0.1 -0.1)">
     <use xlink:href="#DejaVuSans-30"/>
    </g>
   </g>
   <g id="text_13">
    <g id="patch_18">
     <path d="M 192.237385 173.418403 
L 200.599885 173.418403 
L 200.599885 161.740278 
L 192.237385 161.740278 
z
" style="fill: #ffffff; opacity: 0.75"/>
    </g>
    <!-- 0 -->
    <g transform="translate(193.237385 170.338715)scale(0.1 -0.1)">
     <use xlink:href="#DejaVuSans-30"/>
    </g>
   </g>
   <g id="text_14">
    <g id="patch_19">
     <path d="M 222.076957 173.7 
L 230.439457 173.7 
L 230.439457 162.021875 
L 222.076957 162.021875 
z
" style="fill: #ffffff; opacity: 0.75"/>
    </g>
    <!-- 0 -->
    <g transform="translate(223.076957 170.620312)scale(0.1 -0.1)">
     <use xlink:href="#DejaVuSans-30"/>
    </g>
   </g>
   <g id="text_15">
    <g id="patch_20">
     <path d="M 251.916529 131.488594 
L 260.279029 131.488594 
L 260.279029 119.810469 
L 251.916529 119.810469 
z
" style="fill: #ffffff; opacity: 0.75"/>
    </g>
    <!-- 1 -->
    <g transform="translate(252.916529 128.408907)scale(0.1 -0.1)">
     <use xlink:href="#DejaVuSans-31"/>
    </g>
   </g>
  </g>
  <g id="axes_2">
   <g id="patch_21">
    <path d="M 54.979062 345.78 
L 278.179062 345.78 
L 278.179062 209.88 
L 54.979062 209.88 
z
" style="fill: #ffffff"/>
   </g>
   <g id="patch_22">
    <path d="M 65.124517 345.78 
L 88.996175 345.78 
L 88.996175 345.78 
L 65.124517 345.78 
z
" clip-path="url(#p2520b65731)" style="opacity: 0.3"/>
   </g>
   <g id="patch_23">
    <path d="M 94.964089 345.78 
L 118.835747 345.78 
L 118.835747 345.78 
L 94.964089 345.78 
z
" clip-path="url(#p2520b65731)" style="opacity: 0.3"/>
   </g>
   <g id="patch_24">
    <path d="M 124.803661 345.78 
L 148.675319 345.78 
L 148.675319 345.78 
L 124.803661 345.78 
z
" clip-path="url(#p2520b65731)" style="opacity: 0.3"/>
   </g>
   <g id="patch_25">
    <path d="M 154.643234 345.78 
L 178.514891 345.78 
L 178.514891 345.735819 
L 154.643234 345.735819 
z
" clip-path="url(#p2520b65731)" style="opacity: 0.3"/>
   </g>
   <g id="patch_26">
    <path d="M 184.482806 345.78 
L 208.354464 345.78 
L 208.354464 345.431702 
L 184.482806 345.431702 
z
" clip-path="url(#p2520b65731)" style="opacity: 0.3"/>
   </g>
   <g id="patch_27">
    <path d="M 214.322378 345.78 
L 238.194036 345.78 
L 238.194036 345.78 
L 214.322378 345.78 
z
" clip-path="url(#p2520b65731)" style="opacity: 0.3"/>
   </g>
   <g id="patch_28">
    <path d="M 244.16195 345.78 
L 268.033608 345.78 
L 268.033608 288.620282 
L 244.16195 288.620282 
z
" clip-path="url(#p2520b65731)" style="opacity: 0.3"/>
   </g>
   <g id="matplotlib.axis_3">
    <g id="xtick_8">
     <g id="line2d_22">
      <g>
       <use xlink:href="#mf5ed981942" x="77.060346" y="345.78" style="stroke: #000000; stroke-width: 0.8"/>
      </g>
     </g>
     <g id="text_16">
      <!-- — -->
      <g transform="translate(72.060346 360.378437)scale(0.1 -0.1)">
       <defs>
        <path id="DejaVuSans-2014" d="M 313 1978 
L 6088 1978 
L 6088 1528 
L 313 1528 
L 313 1978 
z
" transform="scale(0.015625)"/>
       </defs>
       <use xlink:href="#DejaVuSans-2014"/>
      </g>
      <!-- — -->
      <g transform="translate(72.060346 371.57625)scale(0.1 -0.1)">
       <use xlink:href="#DejaVuSans-2014"/>
      </g>
      <!-- + -->
      <g transform="translate(72.870502 382.774062)scale(0.1 -0.1)">
       <defs>
        <path id="DejaVuSans-2b" d="M 2944 4013 
L 2944 2272 
L 4684 2272 
L 4684 1741 
L 2944 1741 
L 2944 0 
L 2419 0 
L 2419 1741 
L 678 1741 
L 678 2272 
L 2419 2272 
L 2419 4013 
L 2944 4013 
z
" transform="scale(0.015625)"/>
       </defs>
       <use xlink:href="#DejaVuSans-2b"/>
      </g>
     </g>
    </g>
    <g id="xtick_9">
     <g id="line2d_23">
      <g>
       <use xlink:href="#mf5ed981942" x="106.899918" y="345.78" style="stroke: #000000; stroke-width: 0.8"/>
      </g>
     </g>
     <g id="text_17">
      <!-- — -->
      <g transform="translate(101.899918 360.378437)scale(0.1 -0.1)">
       <use xlink:href="#DejaVuSans-2014"/>
      </g>
      <!-- + -->
      <g transform="translate(102.710074 371.57625)scale(0.1 -0.1)">
       <use xlink:href="#DejaVuSans-2b"/>
      </g>
      <!-- — -->
      <g transform="translate(101.899918 382.774062)scale(0.1 -0.1)">
       <use xlink:href="#DejaVuSans-2014"/>
      </g>
     </g>
    </g>
    <g id="xtick_10">
     <g id="line2d_24">
      <g>
       <use xlink:href="#mf5ed981942" x="136.73949" y="345.78" style="stroke: #000000; stroke-width: 0.8"/>
      </g>
     </g>
     <g id="text_18">
      <!-- + -->
      <g transform="translate(132.549647 360.378437)scale(0.1 -0.1)">
       <use xlink:href="#DejaVuSans-2b"/>
      </g>
      <!-- — -->
      <g transform="translate(131.73949 371.57625)scale(0.1 -0.1)">
       <use xlink:href="#DejaVuSans-2014"/>
      </g>
      <!-- — -->
      <g transform="translate(131.73949 382.774062)scale(0.1 -0.1)">
       <use xlink:href="#DejaVuSans-2014"/>
      </g>
     </g>
    </g>
    <g id="xtick_11">
     <g id="line2d_25">
      <g>
       <use xlink:href="#mf5ed981942" x="166.579062" y="345.78" style="stroke: #000000; stroke-width: 0.8"/>
      </g>
     </g>
     <g id="text_19">
      <!-- — -->
      <g transform="translate(161.579062 360.378437)scale(0.1 -0.1)">
       <use xlink:href="#DejaVuSans-2014"/>
      </g>
      <!-- + -->
      <g transform="translate(162.389219 371.57625)scale(0.1 -0.1)">
       <use xlink:href="#DejaVuSans-2b"/>
      </g>
      <!-- + -->
      <g transform="translate(162.389219 382.774062)scale(0.1 -0.1)">
       <use xlink:href="#DejaVuSans-2b"/>
      </g>
     </g>
    </g>
    <g id="xtick_12">
     <g id="line2d_26">
      <g>
       <use xlink:href="#mf5ed981942" x="196.418635" y="345.78" style="stroke: #000000; stroke-width: 0.8"/>
      </g>
     </g>
     <g id="text_20">
      <!-- + -->
      <g transform="translate(192.228791 360.378437)scale(0.1 -0.1)">
       <use xlink:href="#DejaVuSans-2b"/>
      </g>
      <!-- — -->
      <g transform="translate(191.418635 371.57625)scale(0.1 -0.1)">
       <use xlink:href="#DejaVuSans-2014"/>
      </g>
      <!-- + -->
      <g transform="translate(192.228791 382.774062)scale(0.1 -0.1)">
       <use xlink:href="#DejaVuSans-2b"/>
      </g>
     </g>
    </g>
    <g id="xtick_13">
     <g id="line2d_27">
      <g>
       <use xlink:href="#mf5ed981942" x="226.258207" y="345.78" style="stroke: #000000; stroke-width: 0.8"/>
      </g>
     </g>
     <g id="text_21">
      <!-- + -->
      <g transform="translate(222.068363 360.378437)scale(0.1 -0.1)">
       <use xlink:href="#DejaVuSans-2b"/>
      </g>
      <!-- + -->
      <g transform="translate(222.068363 371.57625)scale(0.1 -0.1)">
       <use xlink:href="#DejaVuSans-2b"/>
      </g>
      <!-- — -->
      <g transform="translate(221.258207 382.774062)scale(0.1 -0.1)">
       <use xlink:href="#DejaVuSans-2014"/>
      </g>
     </g>
    </g>
    <g id="xtick_14">
     <g id="line2d_28">
      <g>
       <use xlink:href="#mf5ed981942" x="256.097779" y="345.78" style="stroke: #000000; stroke-width: 0.8"/>
      </g>
     </g>
     <g id="text_22">
      <!-- + -->
      <g transform="translate(251.907935 360.378437)scale(0.1 -0.1)">
       <use xlink:href="#DejaVuSans-2b"/>
      </g>
      <!-- + -->
      <g transform="translate(251.907935 371.57625)scale(0.1 -0.1)">
       <use xlink:href="#DejaVuSans-2b"/>
      </g>
      <!-- + -->
      <g transform="translate(251.907935 382.774062)scale(0.1 -0.1)">
       <use xlink:href="#DejaVuSans-2b"/>
      </g>
     </g>
    </g>
    <g id="text_23">
     <!-- cond -->
     <g transform="translate(154.4275 396.452187)scale(0.1 -0.1)">
      <defs>
       <path id="DejaVuSans-63" d="M 3122 3366 
L 3122 2828 
Q 2878 2963 2633 3030 
Q 2388 3097 2138 3097 
Q 1578 3097 1268 2742 
Q 959 2388 959 1747 
Q 959 1106 1268 751 
Q 1578 397 2138 397 
Q 2388 397 2633 464 
Q 2878 531 3122 666 
L 3122 134 
Q 2881 22 2623 -34 
Q 2366 -91 2075 -91 
Q 1284 -91 818 406 
Q 353 903 353 1747 
Q 353 2603 823 3093 
Q 1294 3584 2113 3584 
Q 2378 3584 2631 3529 
Q 2884 3475 3122 3366 
z
" transform="scale(0.015625)"/>
       <path id="DejaVuSans-6f" d="M 1959 3097 
Q 1497 3097 1228 2736 
Q 959 2375 959 1747 
Q 959 1119 1226 758 
Q 1494 397 1959 397 
Q 2419 397 2687 759 
Q 2956 1122 2956 1747 
Q 2956 2369 2687 2733 
Q 2419 3097 1959 3097 
z
M 1959 3584 
Q 2709 3584 3137 3096 
Q 3566 2609 3566 1747 
Q 3566 888 3137 398 
Q 2709 -91 1959 -91 
Q 1206 -91 779 398 
Q 353 888 353 1747 
Q 353 2609 779 3096 
Q 1206 3584 1959 3584 
z
" transform="scale(0.015625)"/>
       <path id="DejaVuSans-6e" d="M 3513 2113 
L 3513 0 
L 2938 0 
L 2938 2094 
Q 2938 2591 2744 2837 
Q 2550 3084 2163 3084 
Q 1697 3084 1428 2787 
Q 1159 2491 1159 1978 
L 1159 0 
L 581 0 
L 581 3500 
L 1159 3500 
L 1159 2956 
Q 1366 3272 1645 3428 
Q 1925 3584 2291 3584 
Q 2894 3584 3203 3211 
Q 3513 2838 3513 2113 
z
" transform="scale(0.015625)"/>
      </defs>
      <use xlink:href="#DejaVuSans-63"/>
      <use xlink:href="#DejaVuSans-6f" x="54.980469"/>
      <use xlink:href="#DejaVuSans-6e" x="116.162109"/>
      <use xlink:href="#DejaVuSans-64" x="179.541016"/>
     </g>
    </g>
   </g>
   <g id="matplotlib.axis_4">
    <g id="ytick_5">
     <g id="line2d_29">
      <g>
       <use xlink:href="#m560fa76786" x="54.979062" y="345.78" style="stroke: #000000; stroke-width: 0.8"/>
      </g>
     </g>
     <g id="text_24">
      <!-- 0.0 -->
      <g transform="translate(32.075937 349.579219)scale(0.1 -0.1)">
       <defs>
        <path id="DejaVuSans-2e" d="M 684 794 
L 1344 794 
L 1344 0 
L 684 0 
L 684 794 
z
" transform="scale(0.015625)"/>
       </defs>
       <use xlink:href="#DejaVuSans-30"/>
       <use xlink:href="#DejaVuSans-2e" x="63.623047"/>
       <use xlink:href="#DejaVuSans-30" x="95.410156"/>
      </g>
     </g>
    </g>
    <g id="ytick_6">
     <g id="line2d_30">
      <g>
       <use xlink:href="#m560fa76786" x="54.979062" y="317.330797" style="stroke: #000000; stroke-width: 0.8"/>
      </g>
     </g>
     <g id="text_25">
      <!-- 0.5 -->
      <g transform="translate(32.075937 321.130016)scale(0.1 -0.1)">
       <defs>
        <path id="DejaVuSans-35" d="M 691 4666 
L 3169 4666 
L 3169 4134 
L 1269 4134 
L 1269 2991 
Q 1406 3038 1543 3061 
Q 1681 3084 1819 3084 
Q 2600 3084 3056 2656 
Q 3513 2228 3513 1497 
Q 3513 744 3044 326 
Q 2575 -91 1722 -91 
Q 1428 -91 1123 -41 
Q 819 9 494 109 
L 494 744 
Q 775 591 1075 516 
Q 1375 441 1709 441 
Q 2250 441 2565 725 
Q 2881 1009 2881 1497 
Q 2881 1984 2565 2268 
Q 2250 2553 1709 2553 
Q 1456 2553 1204 2497 
Q 953 2441 691 2322 
L 691 4666 
z
" transform="scale(0.015625)"/>
       </defs>
       <use xlink:href="#DejaVuSans-30"/>
       <use xlink:href="#DejaVuSans-2e" x="63.623047"/>
       <use xlink:href="#DejaVuSans-35" x="95.410156"/>
      </g>
     </g>
    </g>
    <g id="ytick_7">
     <g id="line2d_31">
      <g>
       <use xlink:href="#m560fa76786" x="54.979062" y="288.881595" style="stroke: #000000; stroke-width: 0.8"/>
      </g>
     </g>
     <g id="text_26">
      <!-- 1.0 -->
      <g transform="translate(32.075937 292.680814)scale(0.1 -0.1)">
       <use xlink:href="#DejaVuSans-31"/>
       <use xlink:href="#DejaVuSans-2e" x="63.623047"/>
       <use xlink:href="#DejaVuSans-30" x="95.410156"/>
      </g>
     </g>
    </g>
    <g id="ytick_8">
     <g id="line2d_32">
      <g>
       <use xlink:href="#m560fa76786" x="54.979062" y="260.432392" style="stroke: #000000; stroke-width: 0.8"/>
      </g>
     </g>
     <g id="text_27">
      <!-- 1.5 -->
      <g transform="translate(32.075937 264.231611)scale(0.1 -0.1)">
       <use xlink:href="#DejaVuSans-31"/>
       <use xlink:href="#DejaVuSans-2e" x="63.623047"/>
       <use xlink:href="#DejaVuSans-35" x="95.410156"/>
      </g>
     </g>
    </g>
    <g id="ytick_9">
     <g id="line2d_33">
      <g>
       <use xlink:href="#m560fa76786" x="54.979062" y="231.98319" style="stroke: #000000; stroke-width: 0.8"/>
      </g>
     </g>
     <g id="text_28">
      <!-- 2.0 -->
      <g transform="translate(32.075937 235.782409)scale(0.1 -0.1)">
       <use xlink:href="#DejaVuSans-32"/>
       <use xlink:href="#DejaVuSans-2e" x="63.623047"/>
       <use xlink:href="#DejaVuSans-30" x="95.410156"/>
      </g>
     </g>
    </g>
    <g id="text_29">
     <!-- (%) iMN -->
     <g transform="translate(14.798437 297.515156)rotate(-90)scale(0.1 -0.1)">
      <use xlink:href="#DejaVuSans-28"/>
      <use xlink:href="#DejaVuSans-25" x="39.013672"/>
      <use xlink:href="#DejaVuSans-29" x="134.033203"/>
      <use xlink:href="#DejaVuSans-20" x="173.046875"/>
      <use xlink:href="#DejaVuSans-69" x="204.833984"/>
      <use xlink:href="#DejaVuSans-4d" x="232.617188"/>
      <use xlink:href="#DejaVuSans-4e" x="318.896484"/>
     </g>
     <!-- of all cells -->
     <g transform="translate(25.99625 302.878437)rotate(-90)scale(0.1 -0.1)">
      <defs>
       <path id="DejaVuSans-66" d="M 2375 4863 
L 2375 4384 
L 1825 4384 
Q 1516 4384 1395 4259 
Q 1275 4134 1275 3809 
L 1275 3500 
L 2222 3500 
L 2222 3053 
L 1275 3053 
L 1275 0 
L 697 0 
L 697 3053 
L 147 3053 
L 147 3500 
L 697 3500 
L 697 3744 
Q 697 4328 969 4595 
Q 1241 4863 1831 4863 
L 2375 4863 
z
" transform="scale(0.015625)"/>
       <path id="DejaVuSans-73" d="M 2834 3397 
L 2834 2853 
Q 2591 2978 2328 3040 
Q 2066 3103 1784 3103 
Q 1356 3103 1142 2972 
Q 928 2841 928 2578 
Q 928 2378 1081 2264 
Q 1234 2150 1697 2047 
L 1894 2003 
Q 2506 1872 2764 1633 
Q 3022 1394 3022 966 
Q 3022 478 2636 193 
Q 2250 -91 1575 -91 
Q 1294 -91 989 -36 
Q 684 19 347 128 
L 347 722 
Q 666 556 975 473 
Q 1284 391 1588 391 
Q 1994 391 2212 530 
Q 2431 669 2431 922 
Q 2431 1156 2273 1281 
Q 2116 1406 1581 1522 
L 1381 1569 
Q 847 1681 609 1914 
Q 372 2147 372 2553 
Q 372 3047 722 3315 
Q 1072 3584 1716 3584 
Q 2034 3584 2315 3537 
Q 2597 3491 2834 3397 
z
" transform="scale(0.015625)"/>
      </defs>
      <use xlink:href="#DejaVuSans-6f"/>
      <use xlink:href="#DejaVuSans-66" x="61.181641"/>
      <use xlink:href="#DejaVuSans-20" x="96.386719"/>
      <use xlink:href="#DejaVuSans-61" x="128.173828"/>
      <use xlink:href="#DejaVuSans-6c" x="189.453125"/>
      <use xlink:href="#DejaVuSans-6c" x="217.236328"/>
      <use xlink:href="#DejaVuSans-20" x="245.019531"/>
      <use xlink:href="#DejaVuSans-63" x="276.806641"/>
      <use xlink:href="#DejaVuSans-65" x="331.787109"/>
      <use xlink:href="#DejaVuSans-6c" x="393.310547"/>
      <use xlink:href="#DejaVuSans-6c" x="421.09375"/>
      <use xlink:href="#DejaVuSans-73" x="448.876953"/>
     </g>
    </g>
   </g>
   <g id="line2d_34">
    <path d="M 77.060346 345.78 
L 77.060346 345.78 
" clip-path="url(#p2520b65731)" style="fill: none; stroke: #424242; stroke-width: 2.7; stroke-linecap: square"/>
   </g>
   <g id="line2d_35">
    <path d="M 106.899918 345.78 
L 106.899918 345.78 
" clip-path="url(#p2520b65731)" style="fill: none; stroke: #424242; stroke-width: 2.7; stroke-linecap: square"/>
   </g>
   <g id="line2d_36">
    <path d="M 136.73949 345.78 
L 136.73949 345.78 
" clip-path="url(#p2520b65731)" style="fill: none; stroke: #424242; stroke-width: 2.7; stroke-linecap: square"/>
   </g>
   <g id="line2d_37">
    <path d="M 166.579062 345.78 
L 166.579062 345.603275 
" clip-path="url(#p2520b65731)" style="fill: none; stroke: #424242; stroke-width: 2.7; stroke-linecap: square"/>
   </g>
   <g id="line2d_38">
    <path d="M 196.418635 345.674119 
L 196.418635 345.135535 
" clip-path="url(#p2520b65731)" style="fill: none; stroke: #424242; stroke-width: 2.7; stroke-linecap: square"/>
   </g>
   <g id="line2d_39">
    <path d="M 226.258207 345.78 
L 226.258207 345.78 
" clip-path="url(#p2520b65731)" style="fill: none; stroke: #424242; stroke-width: 2.7; stroke-linecap: square"/>
   </g>
   <g id="line2d_40">
    <path d="M 256.097779 296.834533 
L 256.097779 279.949913 
" clip-path="url(#p2520b65731)" style="fill: none; stroke: #424242; stroke-width: 2.7; stroke-linecap: square"/>
   </g>
   <g id="line2d_41">
    <path d="M 226.258207 256.218154 
L 226.258207 254.448823 
L 256.097779 254.448823 
L 256.097779 256.218154 
" clip-path="url(#p2520b65731)" style="fill: none; stroke: #333333; stroke-width: 1.5; stroke-linecap: square"/>
   </g>
   <g id="line2d_42">
    <path d="M 196.418635 240.127528 
L 196.418635 238.358197 
L 256.097779 238.358197 
L 256.097779 240.127528 
" clip-path="url(#p2520b65731)" style="fill: none; stroke: #333333; stroke-width: 1.5; stroke-linecap: square"/>
   </g>
   <g id="line2d_43">
    <path d="M 166.579062 224.036902 
L 166.579062 222.267571 
L 256.097779 222.267571 
L 256.097779 224.036902 
" clip-path="url(#p2520b65731)" style="fill: none; stroke: #333333; stroke-width: 1.5; stroke-linecap: square"/>
   </g>
   <g id="patch_29">
    <path d="M 54.979062 345.78 
L 54.979062 209.88 
" style="fill: none; stroke: #000000; stroke-width: 0.8; stroke-linejoin: miter; stroke-linecap: square"/>
   </g>
   <g id="patch_30">
    <path d="M 278.179062 345.78 
L 278.179062 209.88 
" style="fill: none; stroke: #000000; stroke-width: 0.8; stroke-linejoin: miter; stroke-linecap: square"/>
   </g>
   <g id="patch_31">
    <path d="M 54.979062 345.78 
L 278.179062 345.78 
" style="fill: none; stroke: #000000; stroke-width: 0.8; stroke-linejoin: miter; stroke-linecap: square"/>
   </g>
   <g id="patch_32">
    <path d="M 54.979062 209.88 
L 278.179062 209.88 
" style="fill: none; stroke: #000000; stroke-width: 0.8; stroke-linejoin: miter; stroke-linecap: square"/>
   </g>
   <g id="PathCollection_29">
    <defs>
     <path id="C7_0_24d71725a5" d="M 0 2.5 
C 0.663008 2.5 1.29895 2.236584 1.767767 1.767767 
C 2.236584 1.29895 2.5 0.663008 2.5 -0 
C 2.5 -0.663008 2.236584 -1.29895 1.767767 -1.767767 
C 1.29895 -2.236584 0.663008 -2.5 0 -2.5 
C -0.663008 -2.5 -1.29895 -2.236584 -1.767767 -1.767767 
C -2.236584 -1.29895 -2.5 -0.663008 -2.5 0 
C -2.5 0.663008 -2.236584 1.29895 -1.767767 1.767767 
C -1.29895 2.236584 -0.663008 2.5 0 2.5 
z
"/>
    </defs>
    <g clip-path="url(#p2520b65731)">
     <use xlink:href="#C7_0_24d71725a5" x="79.649671" y="345.78" style="fill: #ffffff; stroke: #000000; stroke-width: 0.4"/>
    </g>
    <g clip-path="url(#p2520b65731)">
     <use xlink:href="#C7_0_24d71725a5" x="79.828388" y="345.78" style="fill: #ffffff; stroke: #000000; stroke-width: 0.4"/>
    </g>
    <g clip-path="url(#p2520b65731)">
     <use xlink:href="#C7_0_24d71725a5" x="78.699224" y="345.78" style="fill: #ffffff; stroke: #000000; stroke-width: 0.4"/>
    </g>
    <g clip-path="url(#p2520b65731)">
     <use xlink:href="#C7_0_24d71725a5" x="77.13846" y="345.78" style="fill: #ffffff; stroke: #000000; stroke-width: 0.4"/>
    </g>
   </g>
   <g id="PathCollection_30">
    <defs>
     <path id="C8_0_bc99f92613" d="M 0 2.5 
C 0.663008 2.5 1.29895 2.236584 1.767767 1.767767 
C 2.236584 1.29895 2.5 0.663008 2.5 -0 
C 2.5 -0.663008 2.236584 -1.29895 1.767767 -1.767767 
C 1.29895 -2.236584 0.663008 -2.5 0 -2.5 
C -0.663008 -2.5 -1.29895 -2.236584 -1.767767 -1.767767 
C -2.236584 -1.29895 -2.5 -0.663008 -2.5 0 
C -2.5 0.663008 -2.236584 1.29895 -1.767767 1.767767 
C -1.29895 2.236584 -0.663008 2.5 0 2.5 
z
"/>
    </defs>
    <g clip-path="url(#p2520b65731)">
     <use xlink:href="#C8_0_bc99f92613" x="107.83066" y="345.78" style="fill: #ffffff; stroke: #000000; stroke-width: 0.4"/>
    </g>
    <g clip-path="url(#p2520b65731)">
     <use xlink:href="#C8_0_bc99f92613" x="104.783919" y="345.78" style="fill: #ffffff; stroke: #000000; stroke-width: 0.4"/>
    </g>
    <g clip-path="url(#p2520b65731)">
     <use xlink:href="#C8_0_bc99f92613" x="109.097199" y="345.78" style="fill: #ffffff; stroke: #000000; stroke-width: 0.4"/>
    </g>
    <g clip-path="url(#p2520b65731)">
     <use xlink:href="#C8_0_bc99f92613" x="107.960388" y="345.78" style="fill: #ffffff; stroke: #000000; stroke-width: 0.4"/>
    </g>
   </g>
   <g id="PathCollection_31">
    <defs>
     <path id="C9_0_d53b982b19" d="M 0 2.5 
C 0.663008 2.5 1.29895 2.236584 1.767767 1.767767 
C 2.236584 1.29895 2.5 0.663008 2.5 -0 
C 2.5 -0.663008 2.236584 -1.29895 1.767767 -1.767767 
C 1.29895 -2.236584 0.663008 -2.5 0 -2.5 
C -0.663008 -2.5 -1.29895 -2.236584 -1.767767 -1.767767 
C -2.236584 -1.29895 -2.5 -0.663008 -2.5 0 
C -2.5 0.663008 -2.236584 1.29895 -1.767767 1.767767 
C -1.29895 2.236584 -0.663008 2.5 0 2.5 
z
"/>
    </defs>
    <g clip-path="url(#p2520b65731)">
     <use xlink:href="#C9_0_d53b982b19" x="134.463092" y="345.78" style="fill: #ffffff; stroke: #000000; stroke-width: 0.4"/>
    </g>
    <g clip-path="url(#p2520b65731)">
     <use xlink:href="#C9_0_d53b982b19" x="133.975958" y="345.78" style="fill: #ffffff; stroke: #000000; stroke-width: 0.4"/>
    </g>
    <g clip-path="url(#p2520b65731)">
     <use xlink:href="#C9_0_d53b982b19" x="138.2946" y="345.78" style="fill: #ffffff; stroke: #000000; stroke-width: 0.4"/>
    </g>
    <g clip-path="url(#p2520b65731)">
     <use xlink:href="#C9_0_d53b982b19" x="136.112267" y="345.78" style="fill: #ffffff; stroke: #000000; stroke-width: 0.4"/>
    </g>
   </g>
   <g id="PathCollection_32">
    <defs>
     <path id="Ca_0_7cdd04d540" d="M 0 2.5 
C 0.663008 2.5 1.29895 2.236584 1.767767 1.767767 
C 2.236584 1.29895 2.5 0.663008 2.5 -0 
C 2.5 -0.663008 2.236584 -1.29895 1.767767 -1.767767 
C 1.29895 -2.236584 0.663008 -2.5 0 -2.5 
C -0.663008 -2.5 -1.29895 -2.236584 -1.767767 -1.767767 
C -2.236584 -1.29895 -2.5 -0.663008 -2.5 0 
C -2.5 0.663008 -2.236584 1.29895 -1.767767 1.767767 
C -1.29895 2.236584 -0.663008 2.5 0 2.5 
z
"/>
    </defs>
    <g clip-path="url(#p2520b65731)">
     <use xlink:href="#Ca_0_7cdd04d540" x="166.968562" y="345.78" style="fill: #ffffff; stroke: #000000; stroke-width: 0.4"/>
    </g>
    <g clip-path="url(#p2520b65731)">
     <use xlink:href="#Ca_0_7cdd04d540" x="169.041427" y="345.78" style="fill: #ffffff; stroke: #000000; stroke-width: 0.4"/>
    </g>
    <g clip-path="url(#p2520b65731)">
     <use xlink:href="#Ca_0_7cdd04d540" x="165.036962" y="345.78" style="fill: #ffffff; stroke: #000000; stroke-width: 0.4"/>
    </g>
    <g clip-path="url(#p2520b65731)">
     <use xlink:href="#Ca_0_7cdd04d540" x="168.403568" y="345.78" style="fill: #ffffff; stroke: #000000; stroke-width: 0.4"/>
    </g>
   </g>
   <g id="PathCollection_33">
    <defs>
     <path id="Cb_0_b5f4995855" d="M 0 2.5 
C 0.663008 2.5 1.29895 2.236584 1.767767 1.767767 
C 2.236584 1.29895 2.5 0.663008 2.5 -0 
C 2.5 -0.663008 2.236584 -1.29895 1.767767 -1.767767 
C 1.29895 -2.236584 0.663008 -2.5 0 -2.5 
C -0.663008 -2.5 -1.29895 -2.236584 -1.767767 -1.767767 
C -2.236584 -1.29895 -2.5 -0.663008 -2.5 0 
C -2.5 0.663008 -2.236584 1.29895 -1.767767 1.767767 
C -1.29895 2.236584 -0.663008 2.5 0 2.5 
z
"/>
    </defs>
    <g clip-path="url(#p2520b65731)">
     <use xlink:href="#Cb_0_b5f4995855" x="199.148862" y="345.30961" style="fill: #ffffff; stroke: #000000; stroke-width: 0.4"/>
    </g>
    <g clip-path="url(#p2520b65731)">
     <use xlink:href="#Cb_0_b5f4995855" x="198.00539" y="345.78" style="fill: #ffffff; stroke: #000000; stroke-width: 0.4"/>
    </g>
    <g clip-path="url(#p2520b65731)">
     <use xlink:href="#Cb_0_b5f4995855" x="193.665315" y="345.092572" style="fill: #ffffff; stroke: #000000; stroke-width: 0.4"/>
    </g>
    <g clip-path="url(#p2520b65731)">
     <use xlink:href="#Cb_0_b5f4995855" x="195.870979" y="345.78" style="fill: #ffffff; stroke: #000000; stroke-width: 0.4"/>
    </g>
   </g>
   <g id="PathCollection_34">
    <defs>
     <path id="Cc_0_49b694d491" d="M 0 2.5 
C 0.663008 2.5 1.29895 2.236584 1.767767 1.767767 
C 2.236584 1.29895 2.5 0.663008 2.5 -0 
C 2.5 -0.663008 2.236584 -1.29895 1.767767 -1.767767 
C 1.29895 -2.236584 0.663008 -2.5 0 -2.5 
C -0.663008 -2.5 -1.29895 -2.236584 -1.767767 -1.767767 
C -2.236584 -1.29895 -2.5 -0.663008 -2.5 0 
C -2.5 0.663008 -2.236584 1.29895 -1.767767 1.767767 
C -1.29895 2.236584 -0.663008 2.5 0 2.5 
z
"/>
    </defs>
    <g clip-path="url(#p2520b65731)">
     <use xlink:href="#Cc_0_49b694d491" x="228.165947" y="345.78" style="fill: #ffffff; stroke: #000000; stroke-width: 0.4"/>
    </g>
    <g clip-path="url(#p2520b65731)">
     <use xlink:href="#Cc_0_49b694d491" x="226.072695" y="345.78" style="fill: #ffffff; stroke: #000000; stroke-width: 0.4"/>
    </g>
    <g clip-path="url(#p2520b65731)">
     <use xlink:href="#Cc_0_49b694d491" x="227.818726" y="345.78" style="fill: #ffffff; stroke: #000000; stroke-width: 0.4"/>
    </g>
    <g clip-path="url(#p2520b65731)">
     <use xlink:href="#Cc_0_49b694d491" x="226.131441" y="345.78" style="fill: #ffffff; stroke: #000000; stroke-width: 0.4"/>
    </g>
   </g>
   <g id="PathCollection_35">
    <defs>
     <path id="Cd_0_fe69322284" d="M 0 2.5 
C 0.663008 2.5 1.29895 2.236584 1.767767 1.767767 
C 2.236584 1.29895 2.5 0.663008 2.5 -0 
C 2.5 -0.663008 2.236584 -1.29895 1.767767 -1.767767 
C 1.29895 -2.236584 0.663008 -2.5 0 -2.5 
C -0.663008 -2.5 -1.29895 -2.236584 -1.767767 -1.767767 
C -2.236584 -1.29895 -2.5 -0.663008 -2.5 0 
C -2.5 0.663008 -2.236584 1.29895 -1.767767 1.767767 
C -1.29895 2.236584 -0.663008 2.5 0 2.5 
z
"/>
    </defs>
    <g clip-path="url(#p2520b65731)">
     <use xlink:href="#Cd_0_fe69322284" x="256.524442" y="304.794705" style="fill: #ffffff; stroke: #000000; stroke-width: 0.4"/>
    </g>
    <g clip-path="url(#p2520b65731)">
     <use xlink:href="#Cd_0_fe69322284" x="258.700722" y="284.861634" style="fill: #ffffff; stroke: #000000; stroke-width: 0.4"/>
    </g>
    <g clip-path="url(#p2520b65731)">
     <use xlink:href="#Cd_0_fe69322284" x="258.816329" y="290.264554" style="fill: #ffffff; stroke: #000000; stroke-width: 0.4"/>
    </g>
    <g clip-path="url(#p2520b65731)">
     <use xlink:href="#Cd_0_fe69322284" x="253.390342" y="275.120574" style="fill: #ffffff; stroke: #000000; stroke-width: 0.4"/>
    </g>
   </g>
   <g id="PathCollection_36">
    <path d="M 72.713146 348.28 
L 77.713146 348.28 
L 77.713146 343.28 
L 72.713146 343.28 
z
" clip-path="url(#p2520b65731)" style="fill: #ffffff; stroke: #000000; stroke-width: 0.4"/>
    <path d="M 71.820328 348.28 
L 76.820328 348.28 
L 76.820328 343.28 
L 71.820328 343.28 
z
" clip-path="url(#p2520b65731)" style="fill: #ffffff; stroke: #000000; stroke-width: 0.4"/>
    <path d="M 73.693674 348.28 
L 78.693674 348.28 
L 78.693674 343.28 
L 73.693674 343.28 
z
" clip-path="url(#p2520b65731)" style="fill: #ffffff; stroke: #000000; stroke-width: 0.4"/>
    <path d="M 75.65606 348.28 
L 80.65606 348.28 
L 80.65606 343.28 
L 75.65606 343.28 
z
" clip-path="url(#p2520b65731)" style="fill: #ffffff; stroke: #000000; stroke-width: 0.4"/>
   </g>
   <g id="PathCollection_37">
    <path d="M 106.35396 348.28 
L 111.35396 348.28 
L 111.35396 343.28 
L 106.35396 343.28 
z
" clip-path="url(#p2520b65731)" style="fill: #ffffff; stroke: #000000; stroke-width: 0.4"/>
    <path d="M 106.572383 348.28 
L 111.572383 348.28 
L 111.572383 343.28 
L 106.572383 343.28 
z
" clip-path="url(#p2520b65731)" style="fill: #ffffff; stroke: #000000; stroke-width: 0.4"/>
    <path d="M 106.908933 348.28 
L 111.908933 348.28 
L 111.908933 343.28 
L 106.908933 343.28 
z
" clip-path="url(#p2520b65731)" style="fill: #ffffff; stroke: #000000; stroke-width: 0.4"/>
    <path d="M 103.744048 348.28 
L 108.744048 348.28 
L 108.744048 343.28 
L 103.744048 343.28 
z
" clip-path="url(#p2520b65731)" style="fill: #ffffff; stroke: #000000; stroke-width: 0.4"/>
   </g>
   <g id="PathCollection_38">
    <path d="M 135.213397 348.28 
L 140.213397 348.28 
L 140.213397 343.28 
L 135.213397 343.28 
z
" clip-path="url(#p2520b65731)" style="fill: #ffffff; stroke: #000000; stroke-width: 0.4"/>
    <path d="M 133.007654 348.28 
L 138.007654 348.28 
L 138.007654 343.28 
L 133.007654 343.28 
z
" clip-path="url(#p2520b65731)" style="fill: #ffffff; stroke: #000000; stroke-width: 0.4"/>
    <path d="M 133.977132 348.28 
L 138.977132 348.28 
L 138.977132 343.28 
L 133.977132 343.28 
z
" clip-path="url(#p2520b65731)" style="fill: #ffffff; stroke: #000000; stroke-width: 0.4"/>
    <path d="M 137.150072 348.28 
L 142.150072 348.28 
L 142.150072 343.28 
L 137.150072 343.28 
z
" clip-path="url(#p2520b65731)" style="fill: #ffffff; stroke: #000000; stroke-width: 0.4"/>
   </g>
   <g id="PathCollection_39">
    <path d="M 163.197723 348.28 
L 168.197723 348.28 
L 168.197723 343.28 
L 163.197723 343.28 
z
" clip-path="url(#p2520b65731)" style="fill: #ffffff; stroke: #000000; stroke-width: 0.4"/>
    <path d="M 162.106349 348.28 
L 167.106349 348.28 
L 167.106349 343.28 
L 162.106349 343.28 
z
" clip-path="url(#p2520b65731)" style="fill: #ffffff; stroke: #000000; stroke-width: 0.4"/>
    <path d="M 163.429963 348.28 
L 168.429963 348.28 
L 168.429963 343.28 
L 163.429963 343.28 
z
" clip-path="url(#p2520b65731)" style="fill: #ffffff; stroke: #000000; stroke-width: 0.4"/>
    <path d="M 166.47724 348.28 
L 171.47724 348.28 
L 171.47724 343.28 
L 166.47724 343.28 
z
" clip-path="url(#p2520b65731)" style="fill: #ffffff; stroke: #000000; stroke-width: 0.4"/>
   </g>
   <g id="PathCollection_40">
    <path d="M 192.194749 348.28 
L 197.194749 348.28 
L 197.194749 343.28 
L 192.194749 343.28 
z
" clip-path="url(#p2520b65731)" style="fill: #ffffff; stroke: #000000; stroke-width: 0.4"/>
    <path d="M 195.78527 348.28 
L 200.78527 348.28 
L 200.78527 343.28 
L 195.78527 343.28 
z
" clip-path="url(#p2520b65731)" style="fill: #ffffff; stroke: #000000; stroke-width: 0.4"/>
    <path d="M 195.488782 348.28 
L 200.488782 348.28 
L 200.488782 343.28 
L 195.488782 343.28 
z
" clip-path="url(#p2520b65731)" style="fill: #ffffff; stroke: #000000; stroke-width: 0.4"/>
    <path d="M 192.277617 346.343363 
L 197.277617 346.343363 
L 197.277617 341.343363 
L 192.277617 341.343363 
z
" clip-path="url(#p2520b65731)" style="fill: #ffffff; stroke: #000000; stroke-width: 0.4"/>
   </g>
   <g id="PathCollection_41">
    <path d="M 223.026441 348.28 
L 228.026441 348.28 
L 228.026441 343.28 
L 223.026441 343.28 
z
" clip-path="url(#p2520b65731)" style="fill: #ffffff; stroke: #000000; stroke-width: 0.4"/>
    <path d="M 224.681941 348.28 
L 229.681941 348.28 
L 229.681941 343.28 
L 224.681941 343.28 
z
" clip-path="url(#p2520b65731)" style="fill: #ffffff; stroke: #000000; stroke-width: 0.4"/>
    <path d="M 223.901409 348.28 
L 228.901409 348.28 
L 228.901409 343.28 
L 223.901409 343.28 
z
" clip-path="url(#p2520b65731)" style="fill: #ffffff; stroke: #000000; stroke-width: 0.4"/>
    <path d="M 225.98348 348.28 
L 230.98348 348.28 
L 230.98348 343.28 
L 225.98348 343.28 
z
" clip-path="url(#p2520b65731)" style="fill: #ffffff; stroke: #000000; stroke-width: 0.4"/>
   </g>
   <g id="PathCollection_42">
    <path d="M 253.576511 294.044085 
L 258.576511 294.044085 
L 258.576511 289.044085 
L 253.576511 289.044085 
z
" clip-path="url(#p2520b65731)" style="fill: #ffffff; stroke: #000000; stroke-width: 0.4"/>
    <path d="M 253.615967 294.136375 
L 258.615967 294.136375 
L 258.615967 289.136375 
L 253.615967 289.136375 
z
" clip-path="url(#p2520b65731)" style="fill: #ffffff; stroke: #000000; stroke-width: 0.4"/>
    <path d="M 253.823124 303.607982 
L 258.823124 303.607982 
L 258.823124 298.607982 
L 253.823124 298.607982 
z
" clip-path="url(#p2520b65731)" style="fill: #ffffff; stroke: #000000; stroke-width: 0.4"/>
    <path d="M 256.24851 309.579204 
L 261.24851 309.579204 
L 261.24851 304.579204 
L 256.24851 304.579204 
z
" clip-path="url(#p2520b65731)" style="fill: #ffffff; stroke: #000000; stroke-width: 0.4"/>
   </g>
   <g id="PathCollection_43">
    <path d="M 78.244779 343.28 
L 75.744779 348.28 
L 80.744779 348.28 
z
" clip-path="url(#p2520b65731)" style="fill: #ffffff; stroke: #000000; stroke-width: 0.4"/>
    <path d="M 79.797261 343.28 
L 77.297261 348.28 
L 82.297261 348.28 
z
" clip-path="url(#p2520b65731)" style="fill: #ffffff; stroke: #000000; stroke-width: 0.4"/>
    <path d="M 79.923078 343.28 
L 77.423078 348.28 
L 82.423078 348.28 
z
" clip-path="url(#p2520b65731)" style="fill: #ffffff; stroke: #000000; stroke-width: 0.4"/>
    <path d="M 74.782057 343.28 
L 72.282057 348.28 
L 77.282057 348.28 
z
" clip-path="url(#p2520b65731)" style="fill: #ffffff; stroke: #000000; stroke-width: 0.4"/>
   </g>
   <g id="PathCollection_44">
    <path d="M 109.074627 343.28 
L 106.574627 348.28 
L 111.574627 348.28 
z
" clip-path="url(#p2520b65731)" style="fill: #ffffff; stroke: #000000; stroke-width: 0.4"/>
    <path d="M 109.38718 343.28 
L 106.88718 348.28 
L 111.88718 348.28 
z
" clip-path="url(#p2520b65731)" style="fill: #ffffff; stroke: #000000; stroke-width: 0.4"/>
    <path d="M 106.989572 343.28 
L 104.489572 348.28 
L 109.489572 348.28 
z
" clip-path="url(#p2520b65731)" style="fill: #ffffff; stroke: #000000; stroke-width: 0.4"/>
    <path d="M 107.472039 343.28 
L 104.972039 348.28 
L 109.972039 348.28 
z
" clip-path="url(#p2520b65731)" style="fill: #ffffff; stroke: #000000; stroke-width: 0.4"/>
   </g>
   <g id="PathCollection_45">
    <path d="M 135.23305 343.28 
L 132.73305 348.28 
L 137.73305 348.28 
z
" clip-path="url(#p2520b65731)" style="fill: #ffffff; stroke: #000000; stroke-width: 0.4"/>
    <path d="M 138.210621 343.28 
L 135.710621 348.28 
L 140.710621 348.28 
z
" clip-path="url(#p2520b65731)" style="fill: #ffffff; stroke: #000000; stroke-width: 0.4"/>
    <path d="M 136.109463 343.28 
L 133.609463 348.28 
L 138.609463 348.28 
z
" clip-path="url(#p2520b65731)" style="fill: #ffffff; stroke: #000000; stroke-width: 0.4"/>
    <path d="M 138.007596 343.28 
L 135.507596 348.28 
L 140.507596 348.28 
z
" clip-path="url(#p2520b65731)" style="fill: #ffffff; stroke: #000000; stroke-width: 0.4"/>
   </g>
   <g id="PathCollection_46">
    <path d="M 165.329945 342.5731 
L 162.829945 347.5731 
L 167.829945 347.5731 
z
" clip-path="url(#p2520b65731)" style="fill: #ffffff; stroke: #000000; stroke-width: 0.4"/>
    <path d="M 166.854327 343.28 
L 164.354327 348.28 
L 169.354327 348.28 
z
" clip-path="url(#p2520b65731)" style="fill: #ffffff; stroke: #000000; stroke-width: 0.4"/>
    <path d="M 168.681235 343.28 
L 166.181235 348.28 
L 171.181235 348.28 
z
" clip-path="url(#p2520b65731)" style="fill: #ffffff; stroke: #000000; stroke-width: 0.4"/>
    <path d="M 165.958098 343.28 
L 163.458098 348.28 
L 168.458098 348.28 
z
" clip-path="url(#p2520b65731)" style="fill: #ffffff; stroke: #000000; stroke-width: 0.4"/>
   </g>
   <g id="PathCollection_47">
    <path d="M 194.344548 342.526678 
L 191.844548 347.526678 
L 196.844548 347.526678 
z
" clip-path="url(#p2520b65731)" style="fill: #ffffff; stroke: #000000; stroke-width: 0.4"/>
    <path d="M 196.391902 342.571956 
L 193.891902 347.571956 
L 198.891902 347.571956 
z
" clip-path="url(#p2520b65731)" style="fill: #ffffff; stroke: #000000; stroke-width: 0.4"/>
    <path d="M 199.387088 343.28 
L 196.887088 348.28 
L 201.887088 348.28 
z
" clip-path="url(#p2520b65731)" style="fill: #ffffff; stroke: #000000; stroke-width: 0.4"/>
    <path d="M 198.238909 343.28 
L 195.738909 348.28 
L 200.738909 348.28 
z
" clip-path="url(#p2520b65731)" style="fill: #ffffff; stroke: #000000; stroke-width: 0.4"/>
   </g>
   <g id="PathCollection_48">
    <path d="M 227.57474 343.28 
L 225.07474 348.28 
L 230.07474 348.28 
z
" clip-path="url(#p2520b65731)" style="fill: #ffffff; stroke: #000000; stroke-width: 0.4"/>
    <path d="M 226.891913 343.28 
L 224.391913 348.28 
L 229.391913 348.28 
z
" clip-path="url(#p2520b65731)" style="fill: #ffffff; stroke: #000000; stroke-width: 0.4"/>
    <path d="M 227.719344 343.28 
L 225.219344 348.28 
L 230.219344 348.28 
z
" clip-path="url(#p2520b65731)" style="fill: #ffffff; stroke: #000000; stroke-width: 0.4"/>
    <path d="M 225.242943 343.28 
L 222.742943 348.28 
L 227.742943 348.28 
z
" clip-path="url(#p2520b65731)" style="fill: #ffffff; stroke: #000000; stroke-width: 0.4"/>
   </g>
   <g id="PathCollection_49">
    <path d="M 255.879357 264.254437 
L 253.379357 269.254437 
L 258.379357 269.254437 
z
" clip-path="url(#p2520b65731)" style="fill: #ffffff; stroke: #000000; stroke-width: 0.4"/>
    <path d="M 256.81362 289.363349 
L 254.31362 294.363349 
L 259.31362 294.363349 
z
" clip-path="url(#p2520b65731)" style="fill: #ffffff; stroke: #000000; stroke-width: 0.4"/>
    <path d="M 257.875421 315.738797 
L 255.375421 320.738797 
L 260.375421 320.738797 
z
" clip-path="url(#p2520b65731)" style="fill: #ffffff; stroke: #000000; stroke-width: 0.4"/>
    <path d="M 256.54925 287.823465 
L 254.04925 292.823465 
L 259.04925 292.823465 
z
" clip-path="url(#p2520b65731)" style="fill: #ffffff; stroke: #000000; stroke-width: 0.4"/>
   </g>
   <g id="PathCollection_50">
    <path d="M 75.508237 349.315534 
L 79.043771 345.78 
L 75.508237 342.244466 
L 71.972703 345.78 
z
" clip-path="url(#p2520b65731)" style="fill: #ffffff; stroke: #000000; stroke-width: 0.4"/>
    <path d="M 79.478941 349.315534 
L 83.014475 345.78 
L 79.478941 342.244466 
L 75.943407 345.78 
z
" clip-path="url(#p2520b65731)" style="fill: #ffffff; stroke: #000000; stroke-width: 0.4"/>
    <path d="M 75.106563 349.315534 
L 78.642097 345.78 
L 75.106563 342.244466 
L 71.571029 345.78 
z
" clip-path="url(#p2520b65731)" style="fill: #ffffff; stroke: #000000; stroke-width: 0.4"/>
    <path d="M 75.836451 349.315534 
L 79.371985 345.78 
L 75.836451 342.244466 
L 72.300917 345.78 
z
" clip-path="url(#p2520b65731)" style="fill: #ffffff; stroke: #000000; stroke-width: 0.4"/>
   </g>
   <g id="PathCollection_51">
    <path d="M 108.812003 349.315534 
L 112.347537 345.78 
L 108.812003 342.244466 
L 105.276469 345.78 
z
" clip-path="url(#p2520b65731)" style="fill: #ffffff; stroke: #000000; stroke-width: 0.4"/>
    <path d="M 107.866158 349.315534 
L 111.401692 345.78 
L 107.866158 342.244466 
L 104.330625 345.78 
z
" clip-path="url(#p2520b65731)" style="fill: #ffffff; stroke: #000000; stroke-width: 0.4"/>
    <path d="M 108.262387 349.315534 
L 111.797921 345.78 
L 108.262387 342.244466 
L 104.726853 345.78 
z
" clip-path="url(#p2520b65731)" style="fill: #ffffff; stroke: #000000; stroke-width: 0.4"/>
    <path d="M 107.204861 349.315534 
L 110.740395 345.78 
L 107.204861 342.244466 
L 103.669327 345.78 
z
" clip-path="url(#p2520b65731)" style="fill: #ffffff; stroke: #000000; stroke-width: 0.4"/>
   </g>
   <g id="PathCollection_52">
    <path d="M 136.941664 349.315534 
L 140.477198 345.78 
L 136.941664 342.244466 
L 133.406131 345.78 
z
" clip-path="url(#p2520b65731)" style="fill: #ffffff; stroke: #000000; stroke-width: 0.4"/>
    <path d="M 136.493213 349.315534 
L 140.028747 345.78 
L 136.493213 342.244466 
L 132.957679 345.78 
z
" clip-path="url(#p2520b65731)" style="fill: #ffffff; stroke: #000000; stroke-width: 0.4"/>
    <path d="M 134.306376 349.315534 
L 137.84191 345.78 
L 134.306376 342.244466 
L 130.770842 345.78 
z
" clip-path="url(#p2520b65731)" style="fill: #ffffff; stroke: #000000; stroke-width: 0.4"/>
    <path d="M 133.84081 349.315534 
L 137.376344 345.78 
L 133.84081 342.244466 
L 130.305277 345.78 
z
" clip-path="url(#p2520b65731)" style="fill: #ffffff; stroke: #000000; stroke-width: 0.4"/>
   </g>
   <g id="PathCollection_53">
    <path d="M 165.919365 349.315534 
L 169.454899 345.78 
L 165.919365 342.244466 
L 162.383831 345.78 
z
" clip-path="url(#p2520b65731)" style="fill: #ffffff; stroke: #000000; stroke-width: 0.4"/>
    <path d="M 164.795067 349.315534 
L 168.330601 345.78 
L 164.795067 342.244466 
L 161.259533 345.78 
z
" clip-path="url(#p2520b65731)" style="fill: #ffffff; stroke: #000000; stroke-width: 0.4"/>
    <path d="M 164.73131 349.315534 
L 168.266844 345.78 
L 164.73131 342.244466 
L 161.195776 345.78 
z
" clip-path="url(#p2520b65731)" style="fill: #ffffff; stroke: #000000; stroke-width: 0.4"/>
    <path d="M 169.499482 349.315534 
L 173.035016 345.78 
L 169.499482 342.244466 
L 165.963948 345.78 
z
" clip-path="url(#p2520b65731)" style="fill: #ffffff; stroke: #000000; stroke-width: 0.4"/>
   </g>
   <g id="PathCollection_54">
    <path d="M 194.749289 349.315534 
L 198.284823 345.78 
L 194.749289 342.244466 
L 191.213755 345.78 
z
" clip-path="url(#p2520b65731)" style="fill: #ffffff; stroke: #000000; stroke-width: 0.4"/>
    <path d="M 195.931496 349.315534 
L 199.46703 345.78 
L 195.931496 342.244466 
L 192.395962 345.78 
z
" clip-path="url(#p2520b65731)" style="fill: #ffffff; stroke: #000000; stroke-width: 0.4"/>
    <path d="M 198.696782 348.298583 
L 202.232316 344.763049 
L 198.696782 341.227515 
L 195.161248 344.763049 
z
" clip-path="url(#p2520b65731)" style="fill: #ffffff; stroke: #000000; stroke-width: 0.4"/>
    <path d="M 193.83312 349.315534 
L 197.368654 345.78 
L 193.83312 342.244466 
L 190.297586 345.78 
z
" clip-path="url(#p2520b65731)" style="fill: #ffffff; stroke: #000000; stroke-width: 0.4"/>
   </g>
   <g id="PathCollection_55">
    <path d="M 226.225688 349.315534 
L 229.761222 345.78 
L 226.225688 342.244466 
L 222.690154 345.78 
z
" clip-path="url(#p2520b65731)" style="fill: #ffffff; stroke: #000000; stroke-width: 0.4"/>
    <path d="M 224.287255 349.315534 
L 227.822789 345.78 
L 224.287255 342.244466 
L 220.751721 345.78 
z
" clip-path="url(#p2520b65731)" style="fill: #ffffff; stroke: #000000; stroke-width: 0.4"/>
    <path d="M 226.237367 349.315534 
L 229.772901 345.78 
L 226.237367 342.244466 
L 222.701833 345.78 
z
" clip-path="url(#p2520b65731)" style="fill: #ffffff; stroke: #000000; stroke-width: 0.4"/>
    <path d="M 224.690287 349.315534 
L 228.22582 345.78 
L 224.690287 342.244466 
L 221.154753 345.78 
z
" clip-path="url(#p2520b65731)" style="fill: #ffffff; stroke: #000000; stroke-width: 0.4"/>
   </g>
   <g id="PathCollection_56">
    <path d="M 253.561593 278.260849 
L 257.097127 274.725315 
L 253.561593 271.189782 
L 250.026059 274.725315 
z
" clip-path="url(#p2520b65731)" style="fill: #ffffff; stroke: #000000; stroke-width: 0.4"/>
    <path d="M 256.577569 274.437048 
L 260.113103 270.901514 
L 256.577569 267.36598 
L 253.042035 270.901514 
z
" clip-path="url(#p2520b65731)" style="fill: #ffffff; stroke: #000000; stroke-width: 0.4"/>
    <path d="M 254.153083 265.06168 
L 257.688617 261.526147 
L 254.153083 257.990613 
L 250.617549 261.526147 
z
" clip-path="url(#p2520b65731)" style="fill: #ffffff; stroke: #000000; stroke-width: 0.4"/>
    <path d="M 256.976061 300.717916 
L 260.511595 297.182382 
L 256.976061 293.646848 
L 253.440527 297.182382 
z
" clip-path="url(#p2520b65731)" style="fill: #ffffff; stroke: #000000; stroke-width: 0.4"/>
   </g>
   <g id="text_30">
    <!-- **** -->
    <g transform="translate(231.177993 251.369135)scale(0.1 -0.1)">
     <use xlink:href="#DejaVuSans-2a"/>
     <use xlink:href="#DejaVuSans-2a" x="50"/>
     <use xlink:href="#DejaVuSans-2a" x="100"/>
     <use xlink:href="#DejaVuSans-2a" x="150"/>
    </g>
   </g>
   <g id="text_31">
    <!-- **** -->
    <g transform="translate(216.258207 235.278509)scale(0.1 -0.1)">
     <use xlink:href="#DejaVuSans-2a"/>
     <use xlink:href="#DejaVuSans-2a" x="50"/>
     <use xlink:href="#DejaVuSans-2a" x="100"/>
     <use xlink:href="#DejaVuSans-2a" x="150"/>
    </g>
   </g>
   <g id="text_32">
    <!-- **** -->
    <g transform="translate(201.338421 219.187883)scale(0.1 -0.1)">
     <use xlink:href="#DejaVuSans-2a"/>
     <use xlink:href="#DejaVuSans-2a" x="50"/>
     <use xlink:href="#DejaVuSans-2a" x="100"/>
     <use xlink:href="#DejaVuSans-2a" x="150"/>
    </g>
   </g>
   <g id="text_33">
    <!-- Ngn2 -->
    <g transform="translate(21.449375 360.378437)scale(0.1 -0.1)">
     <defs>
      <path id="DejaVuSans-67" d="M 2906 1791 
Q 2906 2416 2648 2759 
Q 2391 3103 1925 3103 
Q 1463 3103 1205 2759 
Q 947 2416 947 1791 
Q 947 1169 1205 825 
Q 1463 481 1925 481 
Q 2391 481 2648 825 
Q 2906 1169 2906 1791 
z
M 3481 434 
Q 3481 -459 3084 -895 
Q 2688 -1331 1869 -1331 
Q 1566 -1331 1297 -1286 
Q 1028 -1241 775 -1147 
L 775 -588 
Q 1028 -725 1275 -790 
Q 1522 -856 1778 -856 
Q 2344 -856 2625 -561 
Q 2906 -266 2906 331 
L 2906 616 
Q 2728 306 2450 153 
Q 2172 0 1784 0 
Q 1141 0 747 490 
Q 353 981 353 1791 
Q 353 2603 747 3093 
Q 1141 3584 1784 3584 
Q 2172 3584 2450 3431 
Q 2728 3278 2906 2969 
L 2906 3500 
L 3481 3500 
L 3481 434 
z
" transform="scale(0.015625)"/>
     </defs>
     <use xlink:href="#DejaVuSans-4e"/>
     <use xlink:href="#DejaVuSans-67" x="74.804688"/>
     <use xlink:href="#DejaVuSans-6e" x="138.28125"/>
     <use xlink:href="#DejaVuSans-32" x="201.660156"/>
    </g>
    <!-- Isl1 -->
    <g transform="translate(30.679062 371.57625)scale(0.1 -0.1)">
     <defs>
      <path id="DejaVuSans-49" d="M 628 4666 
L 1259 4666 
L 1259 0 
L 628 0 
L 628 4666 
z
" transform="scale(0.015625)"/>
     </defs>
     <use xlink:href="#DejaVuSans-49"/>
     <use xlink:href="#DejaVuSans-73" x="29.492188"/>
     <use xlink:href="#DejaVuSans-6c" x="81.591797"/>
     <use xlink:href="#DejaVuSans-31" x="109.375"/>
    </g>
    <!-- Lhx3 -->
    <g transform="translate(23.788437 382.774062)scale(0.1 -0.1)">
     <defs>
      <path id="DejaVuSans-4c" d="M 628 4666 
L 1259 4666 
L 1259 531 
L 3531 531 
L 3531 0 
L 628 0 
L 628 4666 
z
" transform="scale(0.015625)"/>
      <path id="DejaVuSans-68" d="M 3513 2113 
L 3513 0 
L 2938 0 
L 2938 2094 
Q 2938 2591 2744 2837 
Q 2550 3084 2163 3084 
Q 1697 3084 1428 2787 
Q 1159 2491 1159 1978 
L 1159 0 
L 581 0 
L 581 4863 
L 1159 4863 
L 1159 2956 
Q 1366 3272 1645 3428 
Q 1925 3584 2291 3584 
Q 2894 3584 3203 3211 
Q 3513 2838 3513 2113 
z
" transform="scale(0.015625)"/>
      <path id="DejaVuSans-78" d="M 3513 3500 
L 2247 1797 
L 3578 0 
L 2900 0 
L 1881 1375 
L 863 0 
L 184 0 
L 1544 1831 
L 300 3500 
L 978 3500 
L 1906 2253 
L 2834 3500 
L 3513 3500 
z
" transform="scale(0.015625)"/>
     </defs>
     <use xlink:href="#DejaVuSans-4c"/>
     <use xlink:href="#DejaVuSans-68" x="55.712891"/>
     <use xlink:href="#DejaVuSans-78" x="119.091797"/>
     <use xlink:href="#DejaVuSans-33" x="178.271484"/>
    </g>
   </g>
   <g id="text_34">
    <g id="patch_33">
     <path d="M 72.879096 336.78 
L 81.241596 336.78 
L 81.241596 325.101875 
L 72.879096 325.101875 
z
" style="fill: #ffffff; opacity: 0.75"/>
    </g>
    <!-- 0 -->
    <g transform="translate(73.879096 333.700312)scale(0.1 -0.1)">
     <use xlink:href="#DejaVuSans-30"/>
    </g>
   </g>
   <g id="text_35">
    <g id="patch_34">
     <path d="M 102.718668 336.78 
L 111.081168 336.78 
L 111.081168 325.101875 
L 102.718668 325.101875 
z
" style="fill: #ffffff; opacity: 0.75"/>
    </g>
    <!-- 0 -->
    <g transform="translate(103.718668 333.700312)scale(0.1 -0.1)">
     <use xlink:href="#DejaVuSans-30"/>
    </g>
   </g>
   <g id="text_36">
    <g id="patch_35">
     <path d="M 132.55824 336.78 
L 140.92074 336.78 
L 140.92074 325.101875 
L 132.55824 325.101875 
z
" style="fill: #ffffff; opacity: 0.75"/>
    </g>
    <!-- 0 -->
    <g transform="translate(133.55824 333.700312)scale(0.1 -0.1)">
     <use xlink:href="#DejaVuSans-30"/>
    </g>
   </g>
   <g id="text_37">
    <g id="patch_36">
     <path d="M 162.397812 336.735819 
L 170.760312 336.735819 
L 170.760312 325.057694 
L 162.397812 325.057694 
z
" style="fill: #ffffff; opacity: 0.75"/>
    </g>
    <!-- 0 -->
    <g transform="translate(163.397812 333.656131)scale(0.1 -0.1)">
     <use xlink:href="#DejaVuSans-30"/>
    </g>
   </g>
   <g id="text_38">
    <g id="patch_37">
     <path d="M 192.237385 336.431702 
L 200.599885 336.431702 
L 200.599885 324.753577 
L 192.237385 324.753577 
z
" style="fill: #ffffff; opacity: 0.75"/>
    </g>
    <!-- 0 -->
    <g transform="translate(193.237385 333.352014)scale(0.1 -0.1)">
     <use xlink:href="#DejaVuSans-30"/>
    </g>
   </g>
   <g id="text_39">
    <g id="patch_38">
     <path d="M 222.076957 336.78 
L 230.439457 336.78 
L 230.439457 325.101875 
L 222.076957 325.101875 
z
" style="fill: #ffffff; opacity: 0.75"/>
    </g>
    <!-- 0 -->
    <g transform="translate(223.076957 333.700312)scale(0.1 -0.1)">
     <use xlink:href="#DejaVuSans-30"/>
    </g>
   </g>
   <g id="text_40">
    <g id="patch_39">
     <path d="M 251.916529 279.620282 
L 260.279029 279.620282 
L 260.279029 267.942157 
L 251.916529 267.942157 
z
" style="fill: #ffffff; opacity: 0.75"/>
    </g>
    <!-- 1 -->
    <g transform="translate(252.916529 276.540595)scale(0.1 -0.1)">
     <use xlink:href="#DejaVuSans-31"/>
    </g>
   </g>
  </g>
  <g id="text_41">
   <!-- 14 dpi, — DDRR -->
   <g transform="translate(114.853437 16.318125)scale(0.12 -0.12)">
    <defs>
     <path id="DejaVuSans-34" d="M 2419 4116 
L 825 1625 
L 2419 1625 
L 2419 4116 
z
M 2253 4666 
L 3047 4666 
L 3047 1625 
L 3713 1625 
L 3713 1100 
L 3047 1100 
L 3047 0 
L 2419 0 
L 2419 1100 
L 313 1100 
L 313 1709 
L 2253 4666 
z
" transform="scale(0.015625)"/>
     <path id="DejaVuSans-2c" d="M 750 794 
L 1409 794 
L 1409 256 
L 897 -744 
L 494 -744 
L 750 256 
L 750 794 
z
" transform="scale(0.015625)"/>
     <path id="DejaVuSans-44" d="M 1259 4147 
L 1259 519 
L 2022 519 
Q 2988 519 3436 956 
Q 3884 1394 3884 2338 
Q 3884 3275 3436 3711 
Q 2988 4147 2022 4147 
L 1259 4147 
z
M 628 4666 
L 1925 4666 
Q 3281 4666 3915 4102 
Q 4550 3538 4550 2338 
Q 4550 1131 3912 565 
Q 3275 0 1925 0 
L 628 0 
L 628 4666 
z
" transform="scale(0.015625)"/>
     <path id="DejaVuSans-52" d="M 2841 2188 
Q 3044 2119 3236 1894 
Q 3428 1669 3622 1275 
L 4263 0 
L 3584 0 
L 2988 1197 
Q 2756 1666 2539 1819 
Q 2322 1972 1947 1972 
L 1259 1972 
L 1259 0 
L 628 0 
L 628 4666 
L 2053 4666 
Q 2853 4666 3247 4331 
Q 3641 3997 3641 3322 
Q 3641 2881 3436 2590 
Q 3231 2300 2841 2188 
z
M 1259 4147 
L 1259 2491 
L 2053 2491 
Q 2509 2491 2742 2702 
Q 2975 2913 2975 3322 
Q 2975 3731 2742 3939 
Q 2509 4147 2053 4147 
L 1259 4147 
z
" transform="scale(0.015625)"/>
    </defs>
    <use xlink:href="#DejaVuSans-31"/>
    <use xlink:href="#DejaVuSans-34" x="63.623047"/>
    <use xlink:href="#DejaVuSans-20" x="127.246094"/>
    <use xlink:href="#DejaVuSans-64" x="159.033203"/>
    <use xlink:href="#DejaVuSans-70" x="222.509766"/>
    <use xlink:href="#DejaVuSans-69" x="285.986328"/>
    <use xlink:href="#DejaVuSans-2c" x="313.769531"/>
    <use xlink:href="#DejaVuSans-20" x="345.556641"/>
    <use xlink:href="#DejaVuSans-2014" x="377.34375"/>
    <use xlink:href="#DejaVuSans-20" x="477.34375"/>
    <use xlink:href="#DejaVuSans-44" x="509.130859"/>
    <use xlink:href="#DejaVuSans-44" x="586.132812"/>
    <use xlink:href="#DejaVuSans-52" x="663.134766"/>
    <use xlink:href="#DejaVuSans-52" x="732.617188"/>
   </g>
  </g>
 </g>
 <defs>
  <clipPath id="p636be863bd">
   <rect x="54.979062" y="46.8" width="223.2" height="135.9"/>
  </clipPath>
  <clipPath id="p2520b65731">
   <rect x="54.979062" y="209.88" width="223.2" height="135.9"/>
  </clipPath>
 </defs>
</svg>
