<?xml version="1.0" encoding="utf-8" standalone="no"?>
<!DOCTYPE svg PUBLIC "-//W3C//DTD SVG 1.1//EN"
  "http://www.w3.org/Graphics/SVG/1.1/DTD/svg11.dtd">
<svg xmlns:xlink="http://www.w3.org/1999/xlink" width="339.479687pt" height="166.114062pt" viewBox="0 0 339.479687 166.114062" xmlns="http://www.w3.org/2000/svg" version="1.1">
 <metadata>
  <rdf:RDF xmlns:dc="http://purl.org/dc/elements/1.1/" xmlns:cc="http://creativecommons.org/ns#" xmlns:rdf="http://www.w3.org/1999/02/22-rdf-syntax-ns#">
   <cc:Work>
    <dc:type rdf:resource="http://purl.org/dc/dcmitype/StillImage"/>
    <dc:date>2025-01-26T10:41:13.203510</dc:date>
    <dc:format>image/svg+xml</dc:format>
    <dc:creator>
     <cc:Agent>
      <dc:title>Matplotlib v3.5.2, https://matplotlib.org/</dc:title>
     </cc:Agent>
    </dc:creator>
   </cc:Work>
  </rdf:RDF>
 </metadata>
 <defs>
  <style type="text/css">*{stroke-linejoin: round; stroke-linecap: butt}</style>
 </defs>
 <g id="figure_1">
  <g id="patch_1">
   <path d="M 0 166.114062 
L 339.479687 166.114062 
L 339.479687 0 
L 0 0 
L 0 166.114062 
z
" style="fill: none"/>
  </g>
  <g id="axes_1">
   <g id="patch_2">
    <path d="M 46.39375 131.038125 
L 241.69375 131.038125 
L 241.69375 22.318125 
L 46.39375 22.318125 
z
" style="fill: #ffffff"/>
   </g>
   <g id="PathCollection_1"/>
   <g id="PathCollection_2"/>
   <g id="PathCollection_3"/>
   <g id="PathCollection_4"/>
   <g id="PathCollection_5"/>
   <g id="PathCollection_6"/>
   <g id="PathCollection_7"/>
   <g id="PathCollection_8"/>
   <g id="patch_3">
    <path d="M 55.271023 131.038125 
L 80.634659 131.038125 
L 80.634659 90.45533 
L 55.271023 90.45533 
z
" clip-path="url(#pa827c43132)" style="fill: #d3d3d3; opacity: 0.75"/>
   </g>
   <g id="patch_4">
    <path d="M 118.680114 131.038125 
L 144.04375 131.038125 
L 144.04375 79.348322 
L 118.680114 79.348322 
z
" clip-path="url(#pa827c43132)" style="fill: #d3d3d3; opacity: 0.75"/>
   </g>
   <g id="patch_5">
    <path d="M 182.089205 131.038125 
L 207.452841 131.038125 
L 207.452841 103.441639 
L 182.089205 103.441639 
z
" clip-path="url(#pa827c43132)" style="fill: #d3d3d3; opacity: 0.75"/>
   </g>
   <g id="patch_6">
    <path d="M 80.634659 131.038125 
L 105.998295 131.038125 
L 105.998295 96.462746 
L 80.634659 96.462746 
z
" clip-path="url(#pa827c43132)" style="fill: #c03d3e; opacity: 0.75"/>
   </g>
   <g id="patch_7">
    <path d="M 144.04375 131.038125 
L 169.407386 131.038125 
L 169.407386 126.951508 
L 144.04375 126.951508 
z
" clip-path="url(#pa827c43132)" style="fill: #c03d3e; opacity: 0.75"/>
   </g>
   <g id="patch_8">
    <path d="M 207.452841 131.038125 
L 232.816477 131.038125 
L 232.816477 112.576099 
L 207.452841 112.576099 
z
" clip-path="url(#pa827c43132)" style="fill: #c03d3e; opacity: 0.75"/>
   </g>
   <g id="matplotlib.axis_1">
    <g id="xtick_1">
     <g id="line2d_1">
      <defs>
       <path id="me9765881c5" d="M 0 0 
L 0 3.5 
" style="stroke: #000000; stroke-width: 0.8"/>
      </defs>
      <g>
       <use xlink:href="#me9765881c5" x="80.634659" y="131.038125" style="stroke: #000000; stroke-width: 0.8"/>
      </g>
     </g>
     <g id="text_1">
      <!-- mRuby2 -->
      <g transform="translate(60.031534 145.636562)scale(0.1 -0.1)">
       <defs>
        <path id="DejaVuSans-6d" d="M 3328 2828 
Q 3544 3216 3844 3400 
Q 4144 3584 4550 3584 
Q 5097 3584 5394 3201 
Q 5691 2819 5691 2113 
L 5691 0 
L 5113 0 
L 5113 2094 
Q 5113 2597 4934 2840 
Q 4756 3084 4391 3084 
Q 3944 3084 3684 2787 
Q 3425 2491 3425 1978 
L 3425 0 
L 2847 0 
L 2847 2094 
Q 2847 2600 2669 2842 
Q 2491 3084 2119 3084 
Q 1678 3084 1418 2786 
Q 1159 2488 1159 1978 
L 1159 0 
L 581 0 
L 581 3500 
L 1159 3500 
L 1159 2956 
Q 1356 3278 1631 3431 
Q 1906 3584 2284 3584 
Q 2666 3584 2933 3390 
Q 3200 3197 3328 2828 
z
" transform="scale(0.015625)"/>
        <path id="DejaVuSans-52" d="M 2841 2188 
Q 3044 2119 3236 1894 
Q 3428 1669 3622 1275 
L 4263 0 
L 3584 0 
L 2988 1197 
Q 2756 1666 2539 1819 
Q 2322 1972 1947 1972 
L 1259 1972 
L 1259 0 
L 628 0 
L 628 4666 
L 2053 4666 
Q 2853 4666 3247 4331 
Q 3641 3997 3641 3322 
Q 3641 2881 3436 2590 
Q 3231 2300 2841 2188 
z
M 1259 4147 
L 1259 2491 
L 2053 2491 
Q 2509 2491 2742 2702 
Q 2975 2913 2975 3322 
Q 2975 3731 2742 3939 
Q 2509 4147 2053 4147 
L 1259 4147 
z
" transform="scale(0.015625)"/>
        <path id="DejaVuSans-75" d="M 544 1381 
L 544 3500 
L 1119 3500 
L 1119 1403 
Q 1119 906 1312 657 
Q 1506 409 1894 409 
Q 2359 409 2629 706 
Q 2900 1003 2900 1516 
L 2900 3500 
L 3475 3500 
L 3475 0 
L 2900 0 
L 2900 538 
Q 2691 219 2414 64 
Q 2138 -91 1772 -91 
Q 1169 -91 856 284 
Q 544 659 544 1381 
z
M 1991 3584 
L 1991 3584 
z
" transform="scale(0.015625)"/>
        <path id="DejaVuSans-62" d="M 3116 1747 
Q 3116 2381 2855 2742 
Q 2594 3103 2138 3103 
Q 1681 3103 1420 2742 
Q 1159 2381 1159 1747 
Q 1159 1113 1420 752 
Q 1681 391 2138 391 
Q 2594 391 2855 752 
Q 3116 1113 3116 1747 
z
M 1159 2969 
Q 1341 3281 1617 3432 
Q 1894 3584 2278 3584 
Q 2916 3584 3314 3078 
Q 3713 2572 3713 1747 
Q 3713 922 3314 415 
Q 2916 -91 2278 -91 
Q 1894 -91 1617 61 
Q 1341 213 1159 525 
L 1159 0 
L 581 0 
L 581 4863 
L 1159 4863 
L 1159 2969 
z
" transform="scale(0.015625)"/>
        <path id="DejaVuSans-79" d="M 2059 -325 
Q 1816 -950 1584 -1140 
Q 1353 -1331 966 -1331 
L 506 -1331 
L 506 -850 
L 844 -850 
Q 1081 -850 1212 -737 
Q 1344 -625 1503 -206 
L 1606 56 
L 191 3500 
L 800 3500 
L 1894 763 
L 2988 3500 
L 3597 3500 
L 2059 -325 
z
" transform="scale(0.015625)"/>
        <path id="DejaVuSans-32" d="M 1228 531 
L 3431 531 
L 3431 0 
L 469 0 
L 469 531 
Q 828 903 1448 1529 
Q 2069 2156 2228 2338 
Q 2531 2678 2651 2914 
Q 2772 3150 2772 3378 
Q 2772 3750 2511 3984 
Q 2250 4219 1831 4219 
Q 1534 4219 1204 4116 
Q 875 4013 500 3803 
L 500 4441 
Q 881 4594 1212 4672 
Q 1544 4750 1819 4750 
Q 2544 4750 2975 4387 
Q 3406 4025 3406 3419 
Q 3406 3131 3298 2873 
Q 3191 2616 2906 2266 
Q 2828 2175 2409 1742 
Q 1991 1309 1228 531 
z
" transform="scale(0.015625)"/>
       </defs>
       <use xlink:href="#DejaVuSans-6d"/>
       <use xlink:href="#DejaVuSans-52" x="97.412109"/>
       <use xlink:href="#DejaVuSans-75" x="162.394531"/>
       <use xlink:href="#DejaVuSans-62" x="225.773438"/>
       <use xlink:href="#DejaVuSans-79" x="289.25"/>
       <use xlink:href="#DejaVuSans-32" x="348.429688"/>
      </g>
     </g>
    </g>
    <g id="xtick_2">
     <g id="line2d_2">
      <g>
       <use xlink:href="#me9765881c5" x="144.04375" y="131.038125" style="stroke: #000000; stroke-width: 0.8"/>
      </g>
     </g>
     <g id="text_2">
      <!-- Brn2-2A-mRuby2 -->
      <g transform="translate(101.595313 145.636562)scale(0.1 -0.1)">
       <defs>
        <path id="DejaVuSans-42" d="M 1259 2228 
L 1259 519 
L 2272 519 
Q 2781 519 3026 730 
Q 3272 941 3272 1375 
Q 3272 1813 3026 2020 
Q 2781 2228 2272 2228 
L 1259 2228 
z
M 1259 4147 
L 1259 2741 
L 2194 2741 
Q 2656 2741 2882 2914 
Q 3109 3088 3109 3444 
Q 3109 3797 2882 3972 
Q 2656 4147 2194 4147 
L 1259 4147 
z
M 628 4666 
L 2241 4666 
Q 2963 4666 3353 4366 
Q 3744 4066 3744 3513 
Q 3744 3084 3544 2831 
Q 3344 2578 2956 2516 
Q 3422 2416 3680 2098 
Q 3938 1781 3938 1306 
Q 3938 681 3513 340 
Q 3088 0 2303 0 
L 628 0 
L 628 4666 
z
" transform="scale(0.015625)"/>
        <path id="DejaVuSans-72" d="M 2631 2963 
Q 2534 3019 2420 3045 
Q 2306 3072 2169 3072 
Q 1681 3072 1420 2755 
Q 1159 2438 1159 1844 
L 1159 0 
L 581 0 
L 581 3500 
L 1159 3500 
L 1159 2956 
Q 1341 3275 1631 3429 
Q 1922 3584 2338 3584 
Q 2397 3584 2469 3576 
Q 2541 3569 2628 3553 
L 2631 2963 
z
" transform="scale(0.015625)"/>
        <path id="DejaVuSans-6e" d="M 3513 2113 
L 3513 0 
L 2938 0 
L 2938 2094 
Q 2938 2591 2744 2837 
Q 2550 3084 2163 3084 
Q 1697 3084 1428 2787 
Q 1159 2491 1159 1978 
L 1159 0 
L 581 0 
L 581 3500 
L 1159 3500 
L 1159 2956 
Q 1366 3272 1645 3428 
Q 1925 3584 2291 3584 
Q 2894 3584 3203 3211 
Q 3513 2838 3513 2113 
z
" transform="scale(0.015625)"/>
        <path id="DejaVuSans-2d" d="M 313 2009 
L 1997 2009 
L 1997 1497 
L 313 1497 
L 313 2009 
z
" transform="scale(0.015625)"/>
        <path id="DejaVuSans-41" d="M 2188 4044 
L 1331 1722 
L 3047 1722 
L 2188 4044 
z
M 1831 4666 
L 2547 4666 
L 4325 0 
L 3669 0 
L 3244 1197 
L 1141 1197 
L 716 0 
L 50 0 
L 1831 4666 
z
" transform="scale(0.015625)"/>
       </defs>
       <use xlink:href="#DejaVuSans-42"/>
       <use xlink:href="#DejaVuSans-72" x="68.603516"/>
       <use xlink:href="#DejaVuSans-6e" x="107.966797"/>
       <use xlink:href="#DejaVuSans-32" x="171.345703"/>
       <use xlink:href="#DejaVuSans-2d" x="234.96875"/>
       <use xlink:href="#DejaVuSans-32" x="271.052734"/>
       <use xlink:href="#DejaVuSans-41" x="334.675781"/>
       <use xlink:href="#DejaVuSans-2d" x="400.833984"/>
       <use xlink:href="#DejaVuSans-6d" x="436.917969"/>
       <use xlink:href="#DejaVuSans-52" x="534.330078"/>
       <use xlink:href="#DejaVuSans-75" x="599.3125"/>
       <use xlink:href="#DejaVuSans-62" x="662.691406"/>
       <use xlink:href="#DejaVuSans-79" x="726.167969"/>
       <use xlink:href="#DejaVuSans-32" x="785.347656"/>
      </g>
      <!-- (MOI=0.1) -->
      <g transform="translate(118.275781 156.834375)scale(0.1 -0.1)">
       <defs>
        <path id="DejaVuSans-28" d="M 1984 4856 
Q 1566 4138 1362 3434 
Q 1159 2731 1159 2009 
Q 1159 1288 1364 580 
Q 1569 -128 1984 -844 
L 1484 -844 
Q 1016 -109 783 600 
Q 550 1309 550 2009 
Q 550 2706 781 3412 
Q 1013 4119 1484 4856 
L 1984 4856 
z
" transform="scale(0.015625)"/>
        <path id="DejaVuSans-4d" d="M 628 4666 
L 1569 4666 
L 2759 1491 
L 3956 4666 
L 4897 4666 
L 4897 0 
L 4281 0 
L 4281 4097 
L 3078 897 
L 2444 897 
L 1241 4097 
L 1241 0 
L 628 0 
L 628 4666 
z
" transform="scale(0.015625)"/>
        <path id="DejaVuSans-4f" d="M 2522 4238 
Q 1834 4238 1429 3725 
Q 1025 3213 1025 2328 
Q 1025 1447 1429 934 
Q 1834 422 2522 422 
Q 3209 422 3611 934 
Q 4013 1447 4013 2328 
Q 4013 3213 3611 3725 
Q 3209 4238 2522 4238 
z
M 2522 4750 
Q 3503 4750 4090 4092 
Q 4678 3434 4678 2328 
Q 4678 1225 4090 567 
Q 3503 -91 2522 -91 
Q 1538 -91 948 565 
Q 359 1222 359 2328 
Q 359 3434 948 4092 
Q 1538 4750 2522 4750 
z
" transform="scale(0.015625)"/>
        <path id="DejaVuSans-49" d="M 628 4666 
L 1259 4666 
L 1259 0 
L 628 0 
L 628 4666 
z
" transform="scale(0.015625)"/>
        <path id="DejaVuSans-3d" d="M 678 2906 
L 4684 2906 
L 4684 2381 
L 678 2381 
L 678 2906 
z
M 678 1631 
L 4684 1631 
L 4684 1100 
L 678 1100 
L 678 1631 
z
" transform="scale(0.015625)"/>
        <path id="DejaVuSans-30" d="M 2034 4250 
Q 1547 4250 1301 3770 
Q 1056 3291 1056 2328 
Q 1056 1369 1301 889 
Q 1547 409 2034 409 
Q 2525 409 2770 889 
Q 3016 1369 3016 2328 
Q 3016 3291 2770 3770 
Q 2525 4250 2034 4250 
z
M 2034 4750 
Q 2819 4750 3233 4129 
Q 3647 3509 3647 2328 
Q 3647 1150 3233 529 
Q 2819 -91 2034 -91 
Q 1250 -91 836 529 
Q 422 1150 422 2328 
Q 422 3509 836 4129 
Q 1250 4750 2034 4750 
z
" transform="scale(0.015625)"/>
        <path id="DejaVuSans-2e" d="M 684 794 
L 1344 794 
L 1344 0 
L 684 0 
L 684 794 
z
" transform="scale(0.015625)"/>
        <path id="DejaVuSans-31" d="M 794 531 
L 1825 531 
L 1825 4091 
L 703 3866 
L 703 4441 
L 1819 4666 
L 2450 4666 
L 2450 531 
L 3481 531 
L 3481 0 
L 794 0 
L 794 531 
z
" transform="scale(0.015625)"/>
        <path id="DejaVuSans-29" d="M 513 4856 
L 1013 4856 
Q 1481 4119 1714 3412 
Q 1947 2706 1947 2009 
Q 1947 1309 1714 600 
Q 1481 -109 1013 -844 
L 513 -844 
Q 928 -128 1133 580 
Q 1338 1288 1338 2009 
Q 1338 2731 1133 3434 
Q 928 4138 513 4856 
z
" transform="scale(0.015625)"/>
       </defs>
       <use xlink:href="#DejaVuSans-28"/>
       <use xlink:href="#DejaVuSans-4d" x="39.013672"/>
       <use xlink:href="#DejaVuSans-4f" x="125.292969"/>
       <use xlink:href="#DejaVuSans-49" x="204.003906"/>
       <use xlink:href="#DejaVuSans-3d" x="233.496094"/>
       <use xlink:href="#DejaVuSans-30" x="317.285156"/>
       <use xlink:href="#DejaVuSans-2e" x="380.908203"/>
       <use xlink:href="#DejaVuSans-31" x="412.695312"/>
       <use xlink:href="#DejaVuSans-29" x="476.318359"/>
      </g>
     </g>
    </g>
    <g id="xtick_3">
     <g id="line2d_3">
      <g>
       <use xlink:href="#me9765881c5" x="207.452841" y="131.038125" style="stroke: #000000; stroke-width: 0.8"/>
      </g>
     </g>
     <g id="text_3">
      <!--  -->
      <g transform="translate(207.452841 145.636562)scale(0.1 -0.1)"/>
      <!-- (MOI=5) -->
      <g transform="translate(186.455185 156.834375)scale(0.1 -0.1)">
       <defs>
        <path id="DejaVuSans-35" d="M 691 4666 
L 3169 4666 
L 3169 4134 
L 1269 4134 
L 1269 2991 
Q 1406 3038 1543 3061 
Q 1681 3084 1819 3084 
Q 2600 3084 3056 2656 
Q 3513 2228 3513 1497 
Q 3513 744 3044 326 
Q 2575 -91 1722 -91 
Q 1428 -91 1123 -41 
Q 819 9 494 109 
L 494 744 
Q 775 591 1075 516 
Q 1375 441 1709 441 
Q 2250 441 2565 725 
Q 2881 1009 2881 1497 
Q 2881 1984 2565 2268 
Q 2250 2553 1709 2553 
Q 1456 2553 1204 2497 
Q 953 2441 691 2322 
L 691 4666 
z
" transform="scale(0.015625)"/>
       </defs>
       <use xlink:href="#DejaVuSans-28"/>
       <use xlink:href="#DejaVuSans-4d" x="39.013672"/>
       <use xlink:href="#DejaVuSans-4f" x="125.292969"/>
       <use xlink:href="#DejaVuSans-49" x="204.003906"/>
       <use xlink:href="#DejaVuSans-3d" x="233.496094"/>
       <use xlink:href="#DejaVuSans-35" x="317.285156"/>
       <use xlink:href="#DejaVuSans-29" x="380.908203"/>
      </g>
     </g>
    </g>
   </g>
   <g id="matplotlib.axis_2">
    <g id="ytick_1">
     <g id="line2d_4">
      <defs>
       <path id="m63bebd5875" d="M 0 0 
L -3.5 0 
" style="stroke: #000000; stroke-width: 0.8"/>
      </defs>
      <g>
       <use xlink:href="#m63bebd5875" x="46.39375" y="131.038125" style="stroke: #000000; stroke-width: 0.8"/>
      </g>
     </g>
     <g id="text_4">
      <!-- 0 -->
      <g transform="translate(33.03125 134.837344)scale(0.1 -0.1)">
       <use xlink:href="#DejaVuSans-30"/>
      </g>
     </g>
    </g>
    <g id="ytick_2">
     <g id="line2d_5">
      <g>
       <use xlink:href="#m63bebd5875" x="46.39375" y="104.585389" style="stroke: #000000; stroke-width: 0.8"/>
      </g>
     </g>
     <g id="text_5">
      <!-- 10k -->
      <g transform="translate(20.878125 108.384608)scale(0.1 -0.1)">
       <defs>
        <path id="DejaVuSans-6b" d="M 581 4863 
L 1159 4863 
L 1159 1991 
L 2875 3500 
L 3609 3500 
L 1753 1863 
L 3688 0 
L 2938 0 
L 1159 1709 
L 1159 0 
L 581 0 
L 581 4863 
z
" transform="scale(0.015625)"/>
       </defs>
       <use xlink:href="#DejaVuSans-31"/>
       <use xlink:href="#DejaVuSans-30" x="63.623047"/>
       <use xlink:href="#DejaVuSans-6b" x="127.246094"/>
      </g>
     </g>
    </g>
    <g id="ytick_3">
     <g id="line2d_6">
      <g>
       <use xlink:href="#m63bebd5875" x="46.39375" y="78.132653" style="stroke: #000000; stroke-width: 0.8"/>
      </g>
     </g>
     <g id="text_6">
      <!-- 20k -->
      <g transform="translate(20.878125 81.931872)scale(0.1 -0.1)">
       <use xlink:href="#DejaVuSans-32"/>
       <use xlink:href="#DejaVuSans-30" x="63.623047"/>
       <use xlink:href="#DejaVuSans-6b" x="127.246094"/>
      </g>
     </g>
    </g>
    <g id="ytick_4">
     <g id="line2d_7">
      <g>
       <use xlink:href="#m63bebd5875" x="46.39375" y="51.679918" style="stroke: #000000; stroke-width: 0.8"/>
      </g>
     </g>
     <g id="text_7">
      <!-- 30k -->
      <g transform="translate(20.878125 55.479136)scale(0.1 -0.1)">
       <defs>
        <path id="DejaVuSans-33" d="M 2597 2516 
Q 3050 2419 3304 2112 
Q 3559 1806 3559 1356 
Q 3559 666 3084 287 
Q 2609 -91 1734 -91 
Q 1441 -91 1130 -33 
Q 819 25 488 141 
L 488 750 
Q 750 597 1062 519 
Q 1375 441 1716 441 
Q 2309 441 2620 675 
Q 2931 909 2931 1356 
Q 2931 1769 2642 2001 
Q 2353 2234 1838 2234 
L 1294 2234 
L 1294 2753 
L 1863 2753 
Q 2328 2753 2575 2939 
Q 2822 3125 2822 3475 
Q 2822 3834 2567 4026 
Q 2313 4219 1838 4219 
Q 1578 4219 1281 4162 
Q 984 4106 628 3988 
L 628 4550 
Q 988 4650 1302 4700 
Q 1616 4750 1894 4750 
Q 2613 4750 3031 4423 
Q 3450 4097 3450 3541 
Q 3450 3153 3228 2886 
Q 3006 2619 2597 2516 
z
" transform="scale(0.015625)"/>
       </defs>
       <use xlink:href="#DejaVuSans-33"/>
       <use xlink:href="#DejaVuSans-30" x="63.623047"/>
       <use xlink:href="#DejaVuSans-6b" x="127.246094"/>
      </g>
     </g>
    </g>
    <g id="ytick_5">
     <g id="line2d_8">
      <g>
       <use xlink:href="#m63bebd5875" x="46.39375" y="25.227182" style="stroke: #000000; stroke-width: 0.8"/>
      </g>
     </g>
     <g id="text_8">
      <!-- 40k -->
      <g transform="translate(20.878125 29.026401)scale(0.1 -0.1)">
       <defs>
        <path id="DejaVuSans-34" d="M 2419 4116 
L 825 1625 
L 2419 1625 
L 2419 4116 
z
M 2253 4666 
L 3047 4666 
L 3047 1625 
L 3713 1625 
L 3713 1100 
L 3047 1100 
L 3047 0 
L 2419 0 
L 2419 1100 
L 313 1100 
L 313 1709 
L 2253 4666 
z
" transform="scale(0.015625)"/>
       </defs>
       <use xlink:href="#DejaVuSans-34"/>
       <use xlink:href="#DejaVuSans-30" x="63.623047"/>
       <use xlink:href="#DejaVuSans-6b" x="127.246094"/>
      </g>
     </g>
    </g>
    <g id="text_9">
     <!-- (#) Total cells -->
     <g transform="translate(14.798438 110.832812)rotate(-90)scale(0.1 -0.1)">
      <defs>
       <path id="DejaVuSans-23" d="M 3272 2816 
L 2363 2816 
L 2100 1772 
L 3016 1772 
L 3272 2816 
z
M 2803 4594 
L 2478 3297 
L 3391 3297 
L 3719 4594 
L 4219 4594 
L 3897 3297 
L 4872 3297 
L 4872 2816 
L 3775 2816 
L 3519 1772 
L 4513 1772 
L 4513 1294 
L 3397 1294 
L 3072 0 
L 2572 0 
L 2894 1294 
L 1978 1294 
L 1656 0 
L 1153 0 
L 1478 1294 
L 494 1294 
L 494 1772 
L 1594 1772 
L 1856 2816 
L 850 2816 
L 850 3297 
L 1978 3297 
L 2297 4594 
L 2803 4594 
z
" transform="scale(0.015625)"/>
       <path id="DejaVuSans-20" transform="scale(0.015625)"/>
       <path id="DejaVuSans-54" d="M -19 4666 
L 3928 4666 
L 3928 4134 
L 2272 4134 
L 2272 0 
L 1638 0 
L 1638 4134 
L -19 4134 
L -19 4666 
z
" transform="scale(0.015625)"/>
       <path id="DejaVuSans-6f" d="M 1959 3097 
Q 1497 3097 1228 2736 
Q 959 2375 959 1747 
Q 959 1119 1226 758 
Q 1494 397 1959 397 
Q 2419 397 2687 759 
Q 2956 1122 2956 1747 
Q 2956 2369 2687 2733 
Q 2419 3097 1959 3097 
z
M 1959 3584 
Q 2709 3584 3137 3096 
Q 3566 2609 3566 1747 
Q 3566 888 3137 398 
Q 2709 -91 1959 -91 
Q 1206 -91 779 398 
Q 353 888 353 1747 
Q 353 2609 779 3096 
Q 1206 3584 1959 3584 
z
" transform="scale(0.015625)"/>
       <path id="DejaVuSans-74" d="M 1172 4494 
L 1172 3500 
L 2356 3500 
L 2356 3053 
L 1172 3053 
L 1172 1153 
Q 1172 725 1289 603 
Q 1406 481 1766 481 
L 2356 481 
L 2356 0 
L 1766 0 
Q 1100 0 847 248 
Q 594 497 594 1153 
L 594 3053 
L 172 3053 
L 172 3500 
L 594 3500 
L 594 4494 
L 1172 4494 
z
" transform="scale(0.015625)"/>
       <path id="DejaVuSans-61" d="M 2194 1759 
Q 1497 1759 1228 1600 
Q 959 1441 959 1056 
Q 959 750 1161 570 
Q 1363 391 1709 391 
Q 2188 391 2477 730 
Q 2766 1069 2766 1631 
L 2766 1759 
L 2194 1759 
z
M 3341 1997 
L 3341 0 
L 2766 0 
L 2766 531 
Q 2569 213 2275 61 
Q 1981 -91 1556 -91 
Q 1019 -91 701 211 
Q 384 513 384 1019 
Q 384 1609 779 1909 
Q 1175 2209 1959 2209 
L 2766 2209 
L 2766 2266 
Q 2766 2663 2505 2880 
Q 2244 3097 1772 3097 
Q 1472 3097 1187 3025 
Q 903 2953 641 2809 
L 641 3341 
Q 956 3463 1253 3523 
Q 1550 3584 1831 3584 
Q 2591 3584 2966 3190 
Q 3341 2797 3341 1997 
z
" transform="scale(0.015625)"/>
       <path id="DejaVuSans-6c" d="M 603 4863 
L 1178 4863 
L 1178 0 
L 603 0 
L 603 4863 
z
" transform="scale(0.015625)"/>
       <path id="DejaVuSans-63" d="M 3122 3366 
L 3122 2828 
Q 2878 2963 2633 3030 
Q 2388 3097 2138 3097 
Q 1578 3097 1268 2742 
Q 959 2388 959 1747 
Q 959 1106 1268 751 
Q 1578 397 2138 397 
Q 2388 397 2633 464 
Q 2878 531 3122 666 
L 3122 134 
Q 2881 22 2623 -34 
Q 2366 -91 2075 -91 
Q 1284 -91 818 406 
Q 353 903 353 1747 
Q 353 2603 823 3093 
Q 1294 3584 2113 3584 
Q 2378 3584 2631 3529 
Q 2884 3475 3122 3366 
z
" transform="scale(0.015625)"/>
       <path id="DejaVuSans-65" d="M 3597 1894 
L 3597 1613 
L 953 1613 
Q 991 1019 1311 708 
Q 1631 397 2203 397 
Q 2534 397 2845 478 
Q 3156 559 3463 722 
L 3463 178 
Q 3153 47 2828 -22 
Q 2503 -91 2169 -91 
Q 1331 -91 842 396 
Q 353 884 353 1716 
Q 353 2575 817 3079 
Q 1281 3584 2069 3584 
Q 2775 3584 3186 3129 
Q 3597 2675 3597 1894 
z
M 3022 2063 
Q 3016 2534 2758 2815 
Q 2500 3097 2075 3097 
Q 1594 3097 1305 2825 
Q 1016 2553 972 2059 
L 3022 2063 
z
" transform="scale(0.015625)"/>
       <path id="DejaVuSans-73" d="M 2834 3397 
L 2834 2853 
Q 2591 2978 2328 3040 
Q 2066 3103 1784 3103 
Q 1356 3103 1142 2972 
Q 928 2841 928 2578 
Q 928 2378 1081 2264 
Q 1234 2150 1697 2047 
L 1894 2003 
Q 2506 1872 2764 1633 
Q 3022 1394 3022 966 
Q 3022 478 2636 193 
Q 2250 -91 1575 -91 
Q 1294 -91 989 -36 
Q 684 19 347 128 
L 347 722 
Q 666 556 975 473 
Q 1284 391 1588 391 
Q 1994 391 2212 530 
Q 2431 669 2431 922 
Q 2431 1156 2273 1281 
Q 2116 1406 1581 1522 
L 1381 1569 
Q 847 1681 609 1914 
Q 372 2147 372 2553 
Q 372 3047 722 3315 
Q 1072 3584 1716 3584 
Q 2034 3584 2315 3537 
Q 2597 3491 2834 3397 
z
" transform="scale(0.015625)"/>
      </defs>
      <use xlink:href="#DejaVuSans-28"/>
      <use xlink:href="#DejaVuSans-23" x="39.013672"/>
      <use xlink:href="#DejaVuSans-29" x="122.802734"/>
      <use xlink:href="#DejaVuSans-20" x="161.816406"/>
      <use xlink:href="#DejaVuSans-54" x="193.603516"/>
      <use xlink:href="#DejaVuSans-6f" x="237.6875"/>
      <use xlink:href="#DejaVuSans-74" x="298.869141"/>
      <use xlink:href="#DejaVuSans-61" x="338.078125"/>
      <use xlink:href="#DejaVuSans-6c" x="399.357422"/>
      <use xlink:href="#DejaVuSans-20" x="427.140625"/>
      <use xlink:href="#DejaVuSans-63" x="458.927734"/>
      <use xlink:href="#DejaVuSans-65" x="513.908203"/>
      <use xlink:href="#DejaVuSans-6c" x="575.431641"/>
      <use xlink:href="#DejaVuSans-6c" x="603.214844"/>
      <use xlink:href="#DejaVuSans-73" x="630.998047"/>
     </g>
    </g>
   </g>
   <g id="line2d_9">
    <path d="M 67.952841 96.017935 
L 67.952841 85.824964 
" clip-path="url(#pa827c43132)" style="fill: none; stroke: #424242; stroke-width: 2.7; stroke-linecap: square"/>
   </g>
   <g id="line2d_10">
    <path d="M 131.361932 86.741605 
L 131.361932 71.98815 
" clip-path="url(#pa827c43132)" style="fill: none; stroke: #424242; stroke-width: 2.7; stroke-linecap: square"/>
   </g>
   <g id="line2d_11">
    <path d="M 194.771023 110.355797 
L 194.771023 97.002601 
" clip-path="url(#pa827c43132)" style="fill: none; stroke: #424242; stroke-width: 2.7; stroke-linecap: square"/>
   </g>
   <g id="line2d_12">
    <path d="M 93.316477 101.257879 
L 93.316477 92.346461 
" clip-path="url(#pa827c43132)" style="fill: none; stroke: #424242; stroke-width: 2.7; stroke-linecap: square"/>
   </g>
   <g id="line2d_13">
    <path d="M 156.725568 127.509235 
L 156.725568 126.414947 
" clip-path="url(#pa827c43132)" style="fill: none; stroke: #424242; stroke-width: 2.7; stroke-linecap: square"/>
   </g>
   <g id="line2d_14">
    <path d="M 220.134659 116.262288 
L 220.134659 108.003798 
" clip-path="url(#pa827c43132)" style="fill: none; stroke: #424242; stroke-width: 2.7; stroke-linecap: square"/>
   </g>
   <g id="line2d_15">
    <path d="M 131.361932 53.761748 
L 131.361932 52.174584 
L 156.725568 52.174584 
L 156.725568 53.761748 
" clip-path="url(#pa827c43132)" style="fill: none; stroke: #333333; stroke-width: 1.5; stroke-linecap: square"/>
   </g>
   <g id="line2d_16">
    <path d="M 67.952841 71.564439 
L 67.952841 69.977275 
L 93.316477 69.977275 
L 93.316477 71.564439 
" clip-path="url(#pa827c43132)" style="fill: none; stroke: #333333; stroke-width: 1.5; stroke-linecap: square"/>
   </g>
   <g id="line2d_17">
    <path d="M 194.771023 84.499827 
L 194.771023 82.912663 
L 220.134659 82.912663 
L 220.134659 84.499827 
" clip-path="url(#pa827c43132)" style="fill: none; stroke: #333333; stroke-width: 1.5; stroke-linecap: square"/>
   </g>
   <g id="line2d_18">
    <path d="M 156.725568 36.11608 
L 156.725568 34.528916 
L 220.134659 34.528916 
L 220.134659 36.11608 
" clip-path="url(#pa827c43132)" style="fill: none; stroke: #333333; stroke-width: 1.5; stroke-linecap: square"/>
   </g>
   <g id="patch_9">
    <path d="M 46.39375 131.038125 
L 46.39375 22.318125 
" style="fill: none; stroke: #000000; stroke-width: 0.8; stroke-linejoin: miter; stroke-linecap: square"/>
   </g>
   <g id="patch_10">
    <path d="M 241.69375 131.038125 
L 241.69375 22.318125 
" style="fill: none; stroke: #000000; stroke-width: 0.8; stroke-linejoin: miter; stroke-linecap: square"/>
   </g>
   <g id="patch_11">
    <path d="M 46.39375 131.038125 
L 241.69375 131.038125 
" style="fill: none; stroke: #000000; stroke-width: 0.8; stroke-linejoin: miter; stroke-linecap: square"/>
   </g>
   <g id="patch_12">
    <path d="M 46.39375 22.318125 
L 241.69375 22.318125 
" style="fill: none; stroke: #000000; stroke-width: 0.8; stroke-linejoin: miter; stroke-linecap: square"/>
   </g>
   <g id="PathCollection_9">
    <defs>
     <path id="C0_0_f54e0214d9" d="M 0 2.5 
C 0.663008 2.5 1.29895 2.236584 1.767767 1.767767 
C 2.236584 1.29895 2.5 0.663008 2.5 -0 
C 2.5 -0.663008 2.236584 -1.29895 1.767767 -1.767767 
C 1.29895 -2.236584 0.663008 -2.5 0 -2.5 
C -0.663008 -2.5 -1.29895 -2.236584 -1.767767 -1.767767 
C -2.236584 -1.29895 -2.5 -0.663008 -2.5 0 
C -2.5 0.663008 -2.236584 1.29895 -1.767767 1.767767 
C -1.29895 2.236584 -0.663008 2.5 0 2.5 
z
"/>
    </defs>
    <g clip-path="url(#pa827c43132)">
     <use xlink:href="#C0_0_f54e0214d9" x="65.89248" y="83.293582" style="fill: #ffffff; stroke: #000000; stroke-width: 0.4"/>
    </g>
    <g clip-path="url(#pa827c43132)">
     <use xlink:href="#C0_0_f54e0214d9" x="68.144381" y="88.7402" style="fill: #ffffff; stroke: #000000; stroke-width: 0.4"/>
    </g>
    <g clip-path="url(#pa827c43132)">
     <use xlink:href="#C0_0_f54e0214d9" x="69.342888" y="88.176757" style="fill: #ffffff; stroke: #000000; stroke-width: 0.4"/>
    </g>
    <g clip-path="url(#pa827c43132)">
     <use xlink:href="#C0_0_f54e0214d9" x="68.355009" y="83.542238" style="fill: #ffffff; stroke: #000000; stroke-width: 0.4"/>
    </g>
   </g>
   <g id="PathCollection_10">
    <defs>
     <path id="C1_0_dd66e128b1" d="M 0 2.5 
C 0.663008 2.5 1.29895 2.236584 1.767767 1.767767 
C 2.236584 1.29895 2.5 0.663008 2.5 -0 
C 2.5 -0.663008 2.236584 -1.29895 1.767767 -1.767767 
C 1.29895 -2.236584 0.663008 -2.5 0 -2.5 
C -0.663008 -2.5 -1.29895 -2.236584 -1.767767 -1.767767 
C -2.236584 -1.29895 -2.5 -0.663008 -2.5 0 
C -2.5 0.663008 -2.236584 1.29895 -1.767767 1.767767 
C -1.29895 2.236584 -0.663008 2.5 0 2.5 
z
"/>
    </defs>
    <g clip-path="url(#pa827c43132)">
     <use xlink:href="#C1_0_dd66e128b1" x="95.084403" y="90.898744" style="fill: #ffffff; stroke: #000000; stroke-width: 0.4"/>
    </g>
    <g clip-path="url(#pa827c43132)">
     <use xlink:href="#C1_0_dd66e128b1" x="94.302007" y="95.496229" style="fill: #ffffff; stroke: #000000; stroke-width: 0.4"/>
    </g>
    <g clip-path="url(#pa827c43132)">
     <use xlink:href="#C1_0_dd66e128b1" x="92.122708" y="94.461927" style="fill: #ffffff; stroke: #000000; stroke-width: 0.4"/>
    </g>
    <g clip-path="url(#pa827c43132)">
     <use xlink:href="#C1_0_dd66e128b1" x="95.067459" y="91.126237" style="fill: #ffffff; stroke: #000000; stroke-width: 0.4"/>
    </g>
   </g>
   <g id="PathCollection_11">
    <defs>
     <path id="C2_0_8467eb2d0c" d="M 0 2.5 
C 0.663008 2.5 1.29895 2.236584 1.767767 1.767767 
C 2.236584 1.29895 2.5 0.663008 2.5 -0 
C 2.5 -0.663008 2.236584 -1.29895 1.767767 -1.767767 
C 1.29895 -2.236584 0.663008 -2.5 0 -2.5 
C -0.663008 -2.5 -1.29895 -2.236584 -1.767767 -1.767767 
C -2.236584 -1.29895 -2.5 -0.663008 -2.5 0 
C -2.5 0.663008 -2.236584 1.29895 -1.767767 1.767767 
C -1.29895 2.236584 -0.663008 2.5 0 2.5 
z
"/>
    </defs>
    <g clip-path="url(#pa827c43132)">
     <use xlink:href="#C2_0_8467eb2d0c" x="133.085904" y="61.697569" style="fill: #ffffff; stroke: #000000; stroke-width: 0.4"/>
    </g>
    <g clip-path="url(#pa827c43132)">
     <use xlink:href="#C2_0_8467eb2d0c" x="132.617627" y="71.040675" style="fill: #ffffff; stroke: #000000; stroke-width: 0.4"/>
    </g>
    <g clip-path="url(#pa827c43132)">
     <use xlink:href="#C2_0_8467eb2d0c" x="131.49614" y="79.815047" style="fill: #ffffff; stroke: #000000; stroke-width: 0.4"/>
    </g>
    <g clip-path="url(#pa827c43132)">
     <use xlink:href="#C2_0_8467eb2d0c" x="131.623125" y="68.853034" style="fill: #ffffff; stroke: #000000; stroke-width: 0.4"/>
    </g>
   </g>
   <g id="PathCollection_12">
    <defs>
     <path id="C3_0_e2332e6ed7" d="M 0 2.5 
C 0.663008 2.5 1.29895 2.236584 1.767767 1.767767 
C 2.236584 1.29895 2.5 0.663008 2.5 -0 
C 2.5 -0.663008 2.236584 -1.29895 1.767767 -1.767767 
C 1.29895 -2.236584 0.663008 -2.5 0 -2.5 
C -0.663008 -2.5 -1.29895 -2.236584 -1.767767 -1.767767 
C -2.236584 -1.29895 -2.5 -0.663008 -2.5 0 
C -2.5 0.663008 -2.236584 1.29895 -1.767767 1.767767 
C -1.29895 2.236584 -0.663008 2.5 0 2.5 
z
"/>
    </defs>
    <g clip-path="url(#pa827c43132)">
     <use xlink:href="#C3_0_e2332e6ed7" x="154.048327" y="125.594152" style="fill: #ffffff; stroke: #000000; stroke-width: 0.4"/>
    </g>
    <g clip-path="url(#pa827c43132)">
     <use xlink:href="#C3_0_e2332e6ed7" x="156.618349" y="126.744846" style="fill: #ffffff; stroke: #000000; stroke-width: 0.4"/>
    </g>
    <g clip-path="url(#pa827c43132)">
     <use xlink:href="#C3_0_e2332e6ed7" x="153.962741" y="127.194542" style="fill: #ffffff; stroke: #000000; stroke-width: 0.4"/>
    </g>
    <g clip-path="url(#pa827c43132)">
     <use xlink:href="#C3_0_e2332e6ed7" x="159.837998" y="126.408896" style="fill: #ffffff; stroke: #000000; stroke-width: 0.4"/>
    </g>
   </g>
   <g id="PathCollection_13">
    <defs>
     <path id="C4_0_efd9880c19" d="M 0 2.5 
C 0.663008 2.5 1.29895 2.236584 1.767767 1.767767 
C 2.236584 1.29895 2.5 0.663008 2.5 -0 
C 2.5 -0.663008 2.236584 -1.29895 1.767767 -1.767767 
C 1.29895 -2.236584 0.663008 -2.5 0 -2.5 
C -0.663008 -2.5 -1.29895 -2.236584 -1.767767 -1.767767 
C -2.236584 -1.29895 -2.5 -0.663008 -2.5 0 
C -2.5 0.663008 -2.236584 1.29895 -1.767767 1.767767 
C -1.29895 2.236584 -0.663008 2.5 0 2.5 
z
"/>
    </defs>
    <g clip-path="url(#pa827c43132)">
     <use xlink:href="#C4_0_efd9880c19" x="196.764939" y="98.723463" style="fill: #ffffff; stroke: #000000; stroke-width: 0.4"/>
    </g>
    <g clip-path="url(#pa827c43132)">
     <use xlink:href="#C4_0_efd9880c19" x="196.054847" y="101.670298" style="fill: #ffffff; stroke: #000000; stroke-width: 0.4"/>
    </g>
    <g clip-path="url(#pa827c43132)">
     <use xlink:href="#C4_0_efd9880c19" x="193.614434" y="95.699915" style="fill: #ffffff; stroke: #000000; stroke-width: 0.4"/>
    </g>
    <g clip-path="url(#pa827c43132)">
     <use xlink:href="#C4_0_efd9880c19" x="193.467155" y="95.588814" style="fill: #ffffff; stroke: #000000; stroke-width: 0.4"/>
    </g>
   </g>
   <g id="PathCollection_14">
    <defs>
     <path id="C5_0_feae603c03" d="M 0 2.5 
C 0.663008 2.5 1.29895 2.236584 1.767767 1.767767 
C 2.236584 1.29895 2.5 0.663008 2.5 -0 
C 2.5 -0.663008 2.236584 -1.29895 1.767767 -1.767767 
C 1.29895 -2.236584 0.663008 -2.5 0 -2.5 
C -0.663008 -2.5 -1.29895 -2.236584 -1.767767 -1.767767 
C -2.236584 -1.29895 -2.5 -0.663008 -2.5 0 
C -2.5 0.663008 -2.236584 1.29895 -1.767767 1.767767 
C -1.29895 2.236584 -0.663008 2.5 0 2.5 
z
"/>
    </defs>
    <g clip-path="url(#pa827c43132)">
     <use xlink:href="#C5_0_feae603c03" x="222.759843" y="112.931227" style="fill: #ffffff; stroke: #000000; stroke-width: 0.4"/>
    </g>
    <g clip-path="url(#pa827c43132)">
     <use xlink:href="#C5_0_feae603c03" x="221.311839" y="115.007767" style="fill: #ffffff; stroke: #000000; stroke-width: 0.4"/>
    </g>
    <g clip-path="url(#pa827c43132)">
     <use xlink:href="#C5_0_feae603c03" x="222.858489" y="109.500308" style="fill: #ffffff; stroke: #000000; stroke-width: 0.4"/>
    </g>
    <g clip-path="url(#pa827c43132)">
     <use xlink:href="#C5_0_feae603c03" x="219.066629" y="109.6167" style="fill: #ffffff; stroke: #000000; stroke-width: 0.4"/>
    </g>
   </g>
   <g id="PathCollection_15">
    <path d="M 66.147671 93.925153 
L 71.147671 93.925153 
L 71.147671 88.925153 
L 66.147671 88.925153 
z
" clip-path="url(#pa827c43132)" style="fill: #ffffff; stroke: #000000; stroke-width: 0.4"/>
    <path d="M 65.239423 92.478188 
L 70.239423 92.478188 
L 70.239423 87.478188 
L 65.239423 87.478188 
z
" clip-path="url(#pa827c43132)" style="fill: #ffffff; stroke: #000000; stroke-width: 0.4"/>
    <path d="M 68.149666 97.792543 
L 73.149666 97.792543 
L 73.149666 92.792543 
L 68.149666 92.792543 
z
" clip-path="url(#pa827c43132)" style="fill: #ffffff; stroke: #000000; stroke-width: 0.4"/>
    <path d="M 66.504848 91.803644 
L 71.504848 91.803644 
L 71.504848 86.803644 
L 66.504848 86.803644 
z
" clip-path="url(#pa827c43132)" style="fill: #ffffff; stroke: #000000; stroke-width: 0.4"/>
   </g>
   <g id="PathCollection_16">
    <path d="M 90.8135 100.302908 
L 95.8135 100.302908 
L 95.8135 95.302908 
L 90.8135 95.302908 
z
" clip-path="url(#pa827c43132)" style="fill: #ffffff; stroke: #000000; stroke-width: 0.4"/>
    <path d="M 89.139339 98.472378 
L 94.139339 98.472378 
L 94.139339 93.472378 
L 89.139339 93.472378 
z
" clip-path="url(#pa827c43132)" style="fill: #ffffff; stroke: #000000; stroke-width: 0.4"/>
    <path d="M 90.316239 103.186256 
L 95.316239 103.186256 
L 95.316239 98.186256 
L 90.316239 98.186256 
z
" clip-path="url(#pa827c43132)" style="fill: #ffffff; stroke: #000000; stroke-width: 0.4"/>
    <path d="M 90.024144 98.09675 
L 95.024144 98.09675 
L 95.024144 93.09675 
L 90.024144 93.09675 
z
" clip-path="url(#pa827c43132)" style="fill: #ffffff; stroke: #000000; stroke-width: 0.4"/>
   </g>
   <g id="PathCollection_17">
    <path d="M 131.877804 78.717475 
L 136.877804 78.717475 
L 136.877804 73.717475 
L 131.877804 73.717475 
z
" clip-path="url(#pa827c43132)" style="fill: #ffffff; stroke: #000000; stroke-width: 0.4"/>
    <path d="M 126.744381 80.108889 
L 131.744381 80.108889 
L 131.744381 75.108889 
L 126.744381 75.108889 
z
" clip-path="url(#pa827c43132)" style="fill: #ffffff; stroke: #000000; stroke-width: 0.4"/>
    <path d="M 131.548256 74.664916 
L 136.548256 74.664916 
L 136.548256 69.664916 
L 131.548256 69.664916 
z
" clip-path="url(#pa827c43132)" style="fill: #ffffff; stroke: #000000; stroke-width: 0.4"/>
    <path d="M 127.507312 76.696486 
L 132.507312 76.696486 
L 132.507312 71.696486 
L 127.507312 71.696486 
z
" clip-path="url(#pa827c43132)" style="fill: #ffffff; stroke: #000000; stroke-width: 0.4"/>
   </g>
   <g id="PathCollection_18">
    <path d="M 154.105411 128.969738 
L 159.105411 128.969738 
L 159.105411 123.969738 
L 154.105411 123.969738 
z
" clip-path="url(#pa827c43132)" style="fill: #ffffff; stroke: #000000; stroke-width: 0.4"/>
    <path d="M 151.534375 129.226329 
L 156.534375 129.226329 
L 156.534375 124.226329 
L 151.534375 124.226329 
z
" clip-path="url(#pa827c43132)" style="fill: #ffffff; stroke: #000000; stroke-width: 0.4"/>
    <path d="M 153.216707 128.779278 
L 158.216707 128.779278 
L 158.216707 123.779278 
L 153.216707 123.779278 
z
" clip-path="url(#pa827c43132)" style="fill: #ffffff; stroke: #000000; stroke-width: 0.4"/>
    <path d="M 152.251536 129.258072 
L 157.251536 129.258072 
L 157.251536 124.258072 
L 152.251536 124.258072 
z
" clip-path="url(#pa827c43132)" style="fill: #ffffff; stroke: #000000; stroke-width: 0.4"/>
   </g>
   <g id="PathCollection_19">
    <path d="M 189.27801 94.935648 
L 194.27801 94.935648 
L 194.27801 89.935648 
L 189.27801 89.935648 
z
" clip-path="url(#pa827c43132)" style="fill: #ffffff; stroke: #000000; stroke-width: 0.4"/>
    <path d="M 193.438563 101.115007 
L 198.438563 101.115007 
L 198.438563 96.115007 
L 193.438563 96.115007 
z
" clip-path="url(#pa827c43132)" style="fill: #ffffff; stroke: #000000; stroke-width: 0.4"/>
    <path d="M 191.644237 98.609933 
L 196.644237 98.609933 
L 196.644237 93.609933 
L 191.644237 93.609933 
z
" clip-path="url(#pa827c43132)" style="fill: #ffffff; stroke: #000000; stroke-width: 0.4"/>
    <path d="M 189.32393 98.62845 
L 194.32393 98.62845 
L 194.32393 93.62845 
L 189.32393 93.62845 
z
" clip-path="url(#pa827c43132)" style="fill: #ffffff; stroke: #000000; stroke-width: 0.4"/>
   </g>
   <g id="PathCollection_20">
    <path d="M 217.896824 107.170038 
L 222.896824 107.170038 
L 222.896824 102.170038 
L 217.896824 102.170038 
z
" clip-path="url(#pa827c43132)" style="fill: #ffffff; stroke: #000000; stroke-width: 0.4"/>
    <path d="M 214.839005 111.373378 
L 219.839005 111.373378 
L 219.839005 106.373378 
L 214.839005 106.373378 
z
" clip-path="url(#pa827c43132)" style="fill: #ffffff; stroke: #000000; stroke-width: 0.4"/>
    <path d="M 214.939421 109.101088 
L 219.939421 109.101088 
L 219.939421 104.101088 
L 214.939421 104.101088 
z
" clip-path="url(#pa827c43132)" style="fill: #ffffff; stroke: #000000; stroke-width: 0.4"/>
    <path d="M 220.649585 108.320732 
L 225.649585 108.320732 
L 225.649585 103.320732 
L 220.649585 103.320732 
z
" clip-path="url(#pa827c43132)" style="fill: #ffffff; stroke: #000000; stroke-width: 0.4"/>
   </g>
   <g id="PathCollection_21">
    <path d="M 68.799587 77.00026 
L 66.299587 82.00026 
L 71.299587 82.00026 
z
" clip-path="url(#pa827c43132)" style="fill: #ffffff; stroke: #000000; stroke-width: 0.4"/>
    <path d="M 66.38376 86.340721 
L 63.88376 91.340721 
L 68.88376 91.340721 
z
" clip-path="url(#pa827c43132)" style="fill: #ffffff; stroke: #000000; stroke-width: 0.4"/>
    <path d="M 65.947788 87.163401 
L 63.447788 92.163401 
L 68.447788 92.163401 
z
" clip-path="url(#pa827c43132)" style="fill: #ffffff; stroke: #000000; stroke-width: 0.4"/>
    <path d="M 65.646737 83.957329 
L 63.146737 88.957329 
L 68.146737 88.957329 
z
" clip-path="url(#pa827c43132)" style="fill: #ffffff; stroke: #000000; stroke-width: 0.4"/>
   </g>
   <g id="PathCollection_22">
    <path d="M 95.192827 83.483825 
L 92.692827 88.483825 
L 97.692827 88.483825 
z
" clip-path="url(#pa827c43132)" style="fill: #ffffff; stroke: #000000; stroke-width: 0.4"/>
    <path d="M 94.751072 92.091546 
L 92.251072 97.091546 
L 97.251072 97.091546 
z
" clip-path="url(#pa827c43132)" style="fill: #ffffff; stroke: #000000; stroke-width: 0.4"/>
    <path d="M 91.769048 93.498831 
L 89.269048 98.498831 
L 94.269048 98.498831 
z
" clip-path="url(#pa827c43132)" style="fill: #ffffff; stroke: #000000; stroke-width: 0.4"/>
    <path d="M 95.271897 90.19753 
L 92.771897 95.19753 
L 97.771897 95.19753 
z
" clip-path="url(#pa827c43132)" style="fill: #ffffff; stroke: #000000; stroke-width: 0.4"/>
   </g>
   <g id="PathCollection_23">
    <path d="M 128.480915 65.654681 
L 125.980915 70.654681 
L 130.980915 70.654681 
z
" clip-path="url(#pa827c43132)" style="fill: #ffffff; stroke: #000000; stroke-width: 0.4"/>
    <path d="M 134.300879 78.396964 
L 131.800879 83.396964 
L 136.800879 83.396964 
z
" clip-path="url(#pa827c43132)" style="fill: #ffffff; stroke: #000000; stroke-width: 0.4"/>
    <path d="M 134.370278 90.276888 
L 131.870278 95.276888 
L 136.870278 95.276888 
z
" clip-path="url(#pa827c43132)" style="fill: #ffffff; stroke: #000000; stroke-width: 0.4"/>
    <path d="M 130.189249 81.782914 
L 127.689249 86.782914 
L 132.689249 86.782914 
z
" clip-path="url(#pa827c43132)" style="fill: #ffffff; stroke: #000000; stroke-width: 0.4"/>
   </g>
   <g id="PathCollection_24">
    <path d="M 156.290034 122.853432 
L 153.790034 127.853432 
L 158.790034 127.853432 
z
" clip-path="url(#pa827c43132)" style="fill: #ffffff; stroke: #000000; stroke-width: 0.4"/>
    <path d="M 157.348458 124.371819 
L 154.848458 129.371819 
L 159.848458 129.371819 
z
" clip-path="url(#pa827c43132)" style="fill: #ffffff; stroke: #000000; stroke-width: 0.4"/>
    <path d="M 154.191794 125.969564 
L 151.691794 130.969564 
L 156.691794 130.969564 
z
" clip-path="url(#pa827c43132)" style="fill: #ffffff; stroke: #000000; stroke-width: 0.4"/>
    <path d="M 158.175917 125.186563 
L 155.675917 130.186563 
L 160.675917 130.186563 
z
" clip-path="url(#pa827c43132)" style="fill: #ffffff; stroke: #000000; stroke-width: 0.4"/>
   </g>
   <g id="PathCollection_25">
    <path d="M 193.69349 99.561798 
L 191.19349 104.561798 
L 196.19349 104.561798 
z
" clip-path="url(#pa827c43132)" style="fill: #ffffff; stroke: #000000; stroke-width: 0.4"/>
    <path d="M 191.927036 110.444454 
L 189.427036 115.444454 
L 194.427036 115.444454 
z
" clip-path="url(#pa827c43132)" style="fill: #ffffff; stroke: #000000; stroke-width: 0.4"/>
    <path d="M 195.950473 108.714445 
L 193.450473 113.714445 
L 198.450473 113.714445 
z
" clip-path="url(#pa827c43132)" style="fill: #ffffff; stroke: #000000; stroke-width: 0.4"/>
    <path d="M 193.486349 109.648226 
L 190.986349 114.648226 
L 195.986349 114.648226 
z
" clip-path="url(#pa827c43132)" style="fill: #ffffff; stroke: #000000; stroke-width: 0.4"/>
   </g>
   <g id="PathCollection_26">
    <path d="M 220.543385 107.386517 
L 218.043385 112.386517 
L 223.043385 112.386517 
z
" clip-path="url(#pa827c43132)" style="fill: #ffffff; stroke: #000000; stroke-width: 0.4"/>
    <path d="M 221.20875 115.835521 
L 218.70875 120.835521 
L 223.70875 120.835521 
z
" clip-path="url(#pa827c43132)" style="fill: #ffffff; stroke: #000000; stroke-width: 0.4"/>
    <path d="M 223.235264 114.568435 
L 220.735264 119.568435 
L 225.735264 119.568435 
z
" clip-path="url(#pa827c43132)" style="fill: #ffffff; stroke: #000000; stroke-width: 0.4"/>
    <path d="M 223.084605 115.327629 
L 220.584605 120.327629 
L 225.584605 120.327629 
z
" clip-path="url(#pa827c43132)" style="fill: #ffffff; stroke: #000000; stroke-width: 0.4"/>
   </g>
   <g id="PathCollection_27">
    <path d="M 66.6781 94.939525 
L 70.213634 91.403991 
L 66.6781 87.868457 
L 63.142566 91.403991 
z
" clip-path="url(#pa827c43132)" style="fill: #ffffff; stroke: #000000; stroke-width: 0.4"/>
    <path d="M 68.787675 109.163161 
L 72.323209 105.627627 
L 68.787675 102.092093 
L 65.252141 105.627627 
z
" clip-path="url(#pa827c43132)" style="fill: #ffffff; stroke: #000000; stroke-width: 0.4"/>
    <path d="M 69.411092 104.052492 
L 72.946626 100.516958 
L 69.411092 96.981425 
L 65.875558 100.516958 
z
" clip-path="url(#pa827c43132)" style="fill: #ffffff; stroke: #000000; stroke-width: 0.4"/>
    <path d="M 67.716062 99.058216 
L 71.251596 95.522682 
L 67.716062 91.987148 
L 64.180528 95.522682 
z
" clip-path="url(#pa827c43132)" style="fill: #ffffff; stroke: #000000; stroke-width: 0.4"/>
   </g>
   <g id="PathCollection_28">
    <path d="M 94.325828 100.819968 
L 97.861362 97.284434 
L 94.325828 93.7489 
L 90.790294 97.284434 
z
" clip-path="url(#pa827c43132)" style="fill: #ffffff; stroke: #000000; stroke-width: 0.4"/>
    <path d="M 91.573709 112.530594 
L 95.109243 108.99506 
L 91.573709 105.459526 
L 88.038175 108.99506 
z
" clip-path="url(#pa827c43132)" style="fill: #ffffff; stroke: #000000; stroke-width: 0.4"/>
    <path d="M 93.107722 108.422484 
L 96.643256 104.88695 
L 93.107722 101.351416 
L 89.572188 104.88695 
z
" clip-path="url(#pa827c43132)" style="fill: #ffffff; stroke: #000000; stroke-width: 0.4"/>
    <path d="M 95.414203 104.459864 
L 98.949737 100.924331 
L 95.414203 97.388797 
L 91.878669 100.924331 
z
" clip-path="url(#pa827c43132)" style="fill: #ffffff; stroke: #000000; stroke-width: 0.4"/>
   </g>
   <g id="PathCollection_29">
    <path d="M 132.612744 98.791043 
L 136.148278 95.255509 
L 132.612744 91.719975 
L 129.07721 95.255509 
z
" clip-path="url(#pa827c43132)" style="fill: #ffffff; stroke: #000000; stroke-width: 0.4"/>
    <path d="M 131.569278 91.974173 
L 135.104812 88.438639 
L 131.569278 84.903105 
L 128.033744 88.438639 
z
" clip-path="url(#pa827c43132)" style="fill: #ffffff; stroke: #000000; stroke-width: 0.4"/>
    <path d="M 131.054546 95.529421 
L 134.59008 91.993887 
L 131.054546 88.458353 
L 127.519012 91.993887 
z
" clip-path="url(#pa827c43132)" style="fill: #ffffff; stroke: #000000; stroke-width: 0.4"/>
    <path d="M 133.655915 89.71511 
L 137.191449 86.179576 
L 133.655915 82.644042 
L 130.120381 86.179576 
z
" clip-path="url(#pa827c43132)" style="fill: #ffffff; stroke: #000000; stroke-width: 0.4"/>
   </g>
   <g id="PathCollection_30">
    <path d="M 159.361284 131.637405 
L 162.896818 128.101871 
L 159.361284 124.566337 
L 155.82575 128.101871 
z
" clip-path="url(#pa827c43132)" style="fill: #ffffff; stroke: #000000; stroke-width: 0.4"/>
    <path d="M 159.879919 131.185063 
L 163.415453 127.64953 
L 159.879919 124.113996 
L 156.344385 127.64953 
z
" clip-path="url(#pa827c43132)" style="fill: #ffffff; stroke: #000000; stroke-width: 0.4"/>
    <path d="M 157.652776 130.841178 
L 161.18831 127.305644 
L 157.652776 123.77011 
L 154.117242 127.305644 
z
" clip-path="url(#pa827c43132)" style="fill: #ffffff; stroke: #000000; stroke-width: 0.4"/>
    <path d="M 159.442976 131.145384 
L 162.978509 127.60985 
L 159.442976 124.074317 
L 155.907442 127.60985 
z
" clip-path="url(#pa827c43132)" style="fill: #ffffff; stroke: #000000; stroke-width: 0.4"/>
   </g>
   <g id="PathCollection_31">
    <path d="M 193.70873 116.707481 
L 197.244264 113.171947 
L 193.70873 109.636413 
L 190.173196 113.171947 
z
" clip-path="url(#pa827c43132)" style="fill: #ffffff; stroke: #000000; stroke-width: 0.4"/>
    <path d="M 193.223055 117.916371 
L 196.758589 114.380837 
L 193.223055 110.845303 
L 189.687521 114.380837 
z
" clip-path="url(#pa827c43132)" style="fill: #ffffff; stroke: #000000; stroke-width: 0.4"/>
    <path d="M 195.318031 114.559519 
L 198.853565 111.023985 
L 195.318031 107.488451 
L 191.782497 111.023985 
z
" clip-path="url(#pa827c43132)" style="fill: #ffffff; stroke: #000000; stroke-width: 0.4"/>
    <path d="M 195.223171 106.68454 
L 198.758704 103.149006 
L 195.223171 99.613472 
L 191.687637 103.149006 
z
" clip-path="url(#pa827c43132)" style="fill: #ffffff; stroke: #000000; stroke-width: 0.4"/>
   </g>
   <g id="PathCollection_32">
    <path d="M 220.763562 122.11442 
L 224.299096 118.578886 
L 220.763562 115.043353 
L 217.228029 118.578886 
z
" clip-path="url(#pa827c43132)" style="fill: #ffffff; stroke: #000000; stroke-width: 0.4"/>
    <path d="M 219.368783 122.508566 
L 222.904317 118.973032 
L 219.368783 115.437498 
L 215.833249 118.973032 
z
" clip-path="url(#pa827c43132)" style="fill: #ffffff; stroke: #000000; stroke-width: 0.4"/>
    <path d="M 220.461074 119.984975 
L 223.996608 116.449441 
L 220.461074 112.913907 
L 216.92554 116.449441 
z
" clip-path="url(#pa827c43132)" style="fill: #ffffff; stroke: #000000; stroke-width: 0.4"/>
    <path d="M 218.149453 114.612424 
L 221.684987 111.076891 
L 218.149453 107.541357 
L 214.613919 111.076891 
z
" clip-path="url(#pa827c43132)" style="fill: #ffffff; stroke: #000000; stroke-width: 0.4"/>
   </g>
   <g id="text_10">
    <!-- **** -->
    <g transform="translate(134.04375 49.094896)scale(0.1 -0.1)">
     <defs>
      <path id="DejaVuSans-2a" d="M 3009 3897 
L 1888 3291 
L 3009 2681 
L 2828 2375 
L 1778 3009 
L 1778 1831 
L 1422 1831 
L 1422 3009 
L 372 2375 
L 191 2681 
L 1313 3291 
L 191 3897 
L 372 4206 
L 1422 3572 
L 1422 4750 
L 1778 4750 
L 1778 3572 
L 2828 4206 
L 3009 3897 
z
" transform="scale(0.015625)"/>
     </defs>
     <use xlink:href="#DejaVuSans-2a"/>
     <use xlink:href="#DejaVuSans-2a" x="50"/>
     <use xlink:href="#DejaVuSans-2a" x="100"/>
     <use xlink:href="#DejaVuSans-2a" x="150"/>
    </g>
   </g>
   <g id="text_11">
    <!-- ns -->
    <g transform="translate(74.861222 66.897587)scale(0.1 -0.1)">
     <use xlink:href="#DejaVuSans-6e"/>
     <use xlink:href="#DejaVuSans-73" x="63.378906"/>
    </g>
   </g>
   <g id="text_12">
    <!-- ns -->
    <g transform="translate(201.679403 79.832975)scale(0.1 -0.1)">
     <use xlink:href="#DejaVuSans-6e"/>
     <use xlink:href="#DejaVuSans-73" x="63.378906"/>
    </g>
   </g>
   <g id="text_13">
    <!-- *** -->
    <g transform="translate(180.930114 31.449228)scale(0.1 -0.1)">
     <use xlink:href="#DejaVuSans-2a"/>
     <use xlink:href="#DejaVuSans-2a" x="50"/>
     <use xlink:href="#DejaVuSans-2a" x="100"/>
    </g>
   </g>
   <g id="text_14">
    <!-- 4 dpi -->
    <g transform="translate(129.034375 16.318125)scale(0.12 -0.12)">
     <defs>
      <path id="DejaVuSans-64" d="M 2906 2969 
L 2906 4863 
L 3481 4863 
L 3481 0 
L 2906 0 
L 2906 525 
Q 2725 213 2448 61 
Q 2172 -91 1784 -91 
Q 1150 -91 751 415 
Q 353 922 353 1747 
Q 353 2572 751 3078 
Q 1150 3584 1784 3584 
Q 2172 3584 2448 3432 
Q 2725 3281 2906 2969 
z
M 947 1747 
Q 947 1113 1208 752 
Q 1469 391 1925 391 
Q 2381 391 2643 752 
Q 2906 1113 2906 1747 
Q 2906 2381 2643 2742 
Q 2381 3103 1925 3103 
Q 1469 3103 1208 2742 
Q 947 2381 947 1747 
z
" transform="scale(0.015625)"/>
      <path id="DejaVuSans-70" d="M 1159 525 
L 1159 -1331 
L 581 -1331 
L 581 3500 
L 1159 3500 
L 1159 2969 
Q 1341 3281 1617 3432 
Q 1894 3584 2278 3584 
Q 2916 3584 3314 3078 
Q 3713 2572 3713 1747 
Q 3713 922 3314 415 
Q 2916 -91 2278 -91 
Q 1894 -91 1617 61 
Q 1341 213 1159 525 
z
M 3116 1747 
Q 3116 2381 2855 2742 
Q 2594 3103 2138 3103 
Q 1681 3103 1420 2742 
Q 1159 2381 1159 1747 
Q 1159 1113 1420 752 
Q 1681 391 2138 391 
Q 2594 391 2855 752 
Q 3116 1113 3116 1747 
z
" transform="scale(0.015625)"/>
      <path id="DejaVuSans-69" d="M 603 3500 
L 1178 3500 
L 1178 0 
L 603 0 
L 603 3500 
z
M 603 4863 
L 1178 4863 
L 1178 4134 
L 603 4134 
L 603 4863 
z
" transform="scale(0.015625)"/>
     </defs>
     <use xlink:href="#DejaVuSans-34"/>
     <use xlink:href="#DejaVuSans-20" x="63.623047"/>
     <use xlink:href="#DejaVuSans-64" x="95.410156"/>
     <use xlink:href="#DejaVuSans-70" x="158.886719"/>
     <use xlink:href="#DejaVuSans-69" x="222.363281"/>
    </g>
   </g>
   <g id="legend_1">
    <g id="patch_13">
     <path d="M 250.69375 38.916562 
L 270.69375 38.916562 
L 270.69375 31.916562 
L 250.69375 31.916562 
z
" style="fill: #d3d3d3; opacity: 0.75"/>
    </g>
    <g id="text_15">
     <!-- Bulk -->
     <g transform="translate(278.69375 38.916562)scale(0.1 -0.1)">
      <use xlink:href="#DejaVuSans-42"/>
      <use xlink:href="#DejaVuSans-75" x="68.603516"/>
      <use xlink:href="#DejaVuSans-6c" x="131.982422"/>
      <use xlink:href="#DejaVuSans-6b" x="159.765625"/>
     </g>
    </g>
    <g id="patch_14">
     <path d="M 250.69375 53.594687 
L 270.69375 53.594687 
L 270.69375 46.594687 
L 250.69375 46.594687 
z
" style="fill: #c03d3e; opacity: 0.75"/>
    </g>
    <g id="text_16">
     <!-- mRuby2+ -->
     <g transform="translate(278.69375 53.594687)scale(0.1 -0.1)">
      <defs>
       <path id="DejaVuSans-2b" d="M 2944 4013 
L 2944 2272 
L 4684 2272 
L 4684 1741 
L 2944 1741 
L 2944 0 
L 2419 0 
L 2419 1741 
L 678 1741 
L 678 2272 
L 2419 2272 
L 2419 4013 
L 2944 4013 
z
" transform="scale(0.015625)"/>
      </defs>
      <use xlink:href="#DejaVuSans-6d"/>
      <use xlink:href="#DejaVuSans-52" x="97.412109"/>
      <use xlink:href="#DejaVuSans-75" x="162.394531"/>
      <use xlink:href="#DejaVuSans-62" x="225.773438"/>
      <use xlink:href="#DejaVuSans-79" x="289.25"/>
      <use xlink:href="#DejaVuSans-32" x="348.429688"/>
      <use xlink:href="#DejaVuSans-2b" x="412.052734"/>
     </g>
    </g>
   </g>
  </g>
 </g>
 <defs>
  <clipPath id="pa827c43132">
   <rect x="46.39375" y="22.318125" width="195.3" height="108.72"/>
  </clipPath>
 </defs>
</svg>
