<?xml version="1.0" encoding="utf-8" standalone="no"?>
<!DOCTYPE svg PUBLIC "-//W3C//DTD SVG 1.1//EN"
  "http://www.w3.org/Graphics/SVG/1.1/DTD/svg11.dtd">
<svg xmlns:xlink="http://www.w3.org/1999/xlink" width="210.130185pt" height="207.250313pt" viewBox="0 0 210.130185 207.250313" xmlns="http://www.w3.org/2000/svg" version="1.1">
 <metadata>
  <rdf:RDF xmlns:dc="http://purl.org/dc/elements/1.1/" xmlns:cc="http://creativecommons.org/ns#" xmlns:rdf="http://www.w3.org/1999/02/22-rdf-syntax-ns#">
   <cc:Work>
    <dc:type rdf:resource="http://purl.org/dc/dcmitype/StillImage"/>
    <dc:date>2025-01-25T16:19:31.872710</dc:date>
    <dc:format>image/svg+xml</dc:format>
    <dc:creator>
     <cc:Agent>
      <dc:title>Matplotlib v3.5.2, https://matplotlib.org/</dc:title>
     </cc:Agent>
    </dc:creator>
   </cc:Work>
  </rdf:RDF>
 </metadata>
 <defs>
  <style type="text/css">*{stroke-linejoin: round; stroke-linecap: butt}</style>
 </defs>
 <g id="figure_1">
  <g id="patch_1">
   <path d="M 0 207.250313 
L 210.130185 207.250313 
L 210.130185 0 
L 0 0 
L 0 207.250313 
z
" style="fill: none"/>
  </g>
  <g id="axes_1">
   <g id="patch_2">
    <path d="M 34.240625 158.218125 
L 201.640625 158.218125 
L 201.640625 22.318125 
L 34.240625 22.318125 
z
" style="fill: #ffffff"/>
   </g>
   <g id="patch_3">
    <path d="M 41.849716 158.218125 
L 67.213352 158.218125 
L 67.213352 155.267937 
L 41.849716 155.267937 
z
" clip-path="url(#p391aa87145)" style="fill: #808080; opacity: 0.3"/>
   </g>
   <g id="patch_4">
    <path d="M 73.554261 158.218125 
L 98.917898 158.218125 
L 98.917898 157.393353 
L 73.554261 157.393353 
z
" clip-path="url(#p391aa87145)" style="fill: #e98966; opacity: 0.3"/>
   </g>
   <g id="patch_5">
    <path d="M 105.258807 158.218125 
L 130.622443 158.218125 
L 130.622443 151.411148 
L 105.258807 151.411148 
z
" clip-path="url(#p391aa87145)" style="fill: #107070; opacity: 0.3"/>
   </g>
   <g id="patch_6">
    <path d="M 136.963352 158.218125 
L 162.326989 158.218125 
L 162.326989 155.255803 
L 136.963352 155.255803 
z
" clip-path="url(#p391aa87145)" style="fill: #c32d4b; opacity: 0.3"/>
   </g>
   <g id="patch_7">
    <path d="M 168.667898 158.218125 
L 194.031534 158.218125 
L 194.031534 99.878998 
L 168.667898 99.878998 
z
" clip-path="url(#p391aa87145)" style="fill: #3a90e3; opacity: 0.3"/>
   </g>
   <g id="matplotlib.axis_1">
    <g id="xtick_1">
     <g id="line2d_1">
      <defs>
       <path id="mf022e37b89" d="M 0 0 
L 0 3.5 
" style="stroke: #000000; stroke-width: 0.8"/>
      </defs>
      <g>
       <use xlink:href="#mf022e37b89" x="54.531534" y="158.218125" style="stroke: #000000; stroke-width: 0.8"/>
      </g>
     </g>
     <g id="text_1">
      <!-- Ctrl-puro -->
      <g transform="translate(32.486222 172.816563)scale(0.1 -0.1)">
       <defs>
        <path id="DejaVuSans-43" d="M 4122 4306 
L 4122 3641 
Q 3803 3938 3442 4084 
Q 3081 4231 2675 4231 
Q 1875 4231 1450 3742 
Q 1025 3253 1025 2328 
Q 1025 1406 1450 917 
Q 1875 428 2675 428 
Q 3081 428 3442 575 
Q 3803 722 4122 1019 
L 4122 359 
Q 3791 134 3420 21 
Q 3050 -91 2638 -91 
Q 1578 -91 968 557 
Q 359 1206 359 2328 
Q 359 3453 968 4101 
Q 1578 4750 2638 4750 
Q 3056 4750 3426 4639 
Q 3797 4528 4122 4306 
z
" transform="scale(0.015625)"/>
        <path id="DejaVuSans-74" d="M 1172 4494 
L 1172 3500 
L 2356 3500 
L 2356 3053 
L 1172 3053 
L 1172 1153 
Q 1172 725 1289 603 
Q 1406 481 1766 481 
L 2356 481 
L 2356 0 
L 1766 0 
Q 1100 0 847 248 
Q 594 497 594 1153 
L 594 3053 
L 172 3053 
L 172 3500 
L 594 3500 
L 594 4494 
L 1172 4494 
z
" transform="scale(0.015625)"/>
        <path id="DejaVuSans-72" d="M 2631 2963 
Q 2534 3019 2420 3045 
Q 2306 3072 2169 3072 
Q 1681 3072 1420 2755 
Q 1159 2438 1159 1844 
L 1159 0 
L 581 0 
L 581 3500 
L 1159 3500 
L 1159 2956 
Q 1341 3275 1631 3429 
Q 1922 3584 2338 3584 
Q 2397 3584 2469 3576 
Q 2541 3569 2628 3553 
L 2631 2963 
z
" transform="scale(0.015625)"/>
        <path id="DejaVuSans-6c" d="M 603 4863 
L 1178 4863 
L 1178 0 
L 603 0 
L 603 4863 
z
" transform="scale(0.015625)"/>
        <path id="DejaVuSans-2d" d="M 313 2009 
L 1997 2009 
L 1997 1497 
L 313 1497 
L 313 2009 
z
" transform="scale(0.015625)"/>
        <path id="DejaVuSans-70" d="M 1159 525 
L 1159 -1331 
L 581 -1331 
L 581 3500 
L 1159 3500 
L 1159 2969 
Q 1341 3281 1617 3432 
Q 1894 3584 2278 3584 
Q 2916 3584 3314 3078 
Q 3713 2572 3713 1747 
Q 3713 922 3314 415 
Q 2916 -91 2278 -91 
Q 1894 -91 1617 61 
Q 1341 213 1159 525 
z
M 3116 1747 
Q 3116 2381 2855 2742 
Q 2594 3103 2138 3103 
Q 1681 3103 1420 2742 
Q 1159 2381 1159 1747 
Q 1159 1113 1420 752 
Q 1681 391 2138 391 
Q 2594 391 2855 752 
Q 3116 1113 3116 1747 
z
" transform="scale(0.015625)"/>
        <path id="DejaVuSans-75" d="M 544 1381 
L 544 3500 
L 1119 3500 
L 1119 1403 
Q 1119 906 1312 657 
Q 1506 409 1894 409 
Q 2359 409 2629 706 
Q 2900 1003 2900 1516 
L 2900 3500 
L 3475 3500 
L 3475 0 
L 2900 0 
L 2900 538 
Q 2691 219 2414 64 
Q 2138 -91 1772 -91 
Q 1169 -91 856 284 
Q 544 659 544 1381 
z
M 1991 3584 
L 1991 3584 
z
" transform="scale(0.015625)"/>
        <path id="DejaVuSans-6f" d="M 1959 3097 
Q 1497 3097 1228 2736 
Q 959 2375 959 1747 
Q 959 1119 1226 758 
Q 1494 397 1959 397 
Q 2419 397 2687 759 
Q 2956 1122 2956 1747 
Q 2956 2369 2687 2733 
Q 2419 3097 1959 3097 
z
M 1959 3584 
Q 2709 3584 3137 3096 
Q 3566 2609 3566 1747 
Q 3566 888 3137 398 
Q 2709 -91 1959 -91 
Q 1206 -91 779 398 
Q 353 888 353 1747 
Q 353 2609 779 3096 
Q 1206 3584 1959 3584 
z
" transform="scale(0.015625)"/>
       </defs>
       <use xlink:href="#DejaVuSans-43"/>
       <use xlink:href="#DejaVuSans-74" x="69.824219"/>
       <use xlink:href="#DejaVuSans-72" x="109.033203"/>
       <use xlink:href="#DejaVuSans-6c" x="150.146484"/>
       <use xlink:href="#DejaVuSans-2d" x="177.929688"/>
       <use xlink:href="#DejaVuSans-70" x="214.013672"/>
       <use xlink:href="#DejaVuSans-75" x="277.490234"/>
       <use xlink:href="#DejaVuSans-72" x="340.869141"/>
       <use xlink:href="#DejaVuSans-6f" x="379.732422"/>
      </g>
     </g>
    </g>
    <g id="xtick_2">
     <g id="line2d_2">
      <g>
       <use xlink:href="#mf022e37b89" x="86.23608" y="158.218125" style="stroke: #000000; stroke-width: 0.8"/>
      </g>
     </g>
     <g id="text_2">
      <!-- 6F -->
      <g transform="translate(80.179048 172.816563)scale(0.1 -0.1)">
       <defs>
        <path id="DejaVuSans-36" d="M 2113 2584 
Q 1688 2584 1439 2293 
Q 1191 2003 1191 1497 
Q 1191 994 1439 701 
Q 1688 409 2113 409 
Q 2538 409 2786 701 
Q 3034 994 3034 1497 
Q 3034 2003 2786 2293 
Q 2538 2584 2113 2584 
z
M 3366 4563 
L 3366 3988 
Q 3128 4100 2886 4159 
Q 2644 4219 2406 4219 
Q 1781 4219 1451 3797 
Q 1122 3375 1075 2522 
Q 1259 2794 1537 2939 
Q 1816 3084 2150 3084 
Q 2853 3084 3261 2657 
Q 3669 2231 3669 1497 
Q 3669 778 3244 343 
Q 2819 -91 2113 -91 
Q 1303 -91 875 529 
Q 447 1150 447 2328 
Q 447 3434 972 4092 
Q 1497 4750 2381 4750 
Q 2619 4750 2861 4703 
Q 3103 4656 3366 4563 
z
" transform="scale(0.015625)"/>
        <path id="DejaVuSans-46" d="M 628 4666 
L 3309 4666 
L 3309 4134 
L 1259 4134 
L 1259 2759 
L 3109 2759 
L 3109 2228 
L 1259 2228 
L 1259 0 
L 628 0 
L 628 4666 
z
" transform="scale(0.015625)"/>
       </defs>
       <use xlink:href="#DejaVuSans-36"/>
       <use xlink:href="#DejaVuSans-46" x="63.623047"/>
      </g>
     </g>
    </g>
    <g id="xtick_3">
     <g id="line2d_3">
      <g>
       <use xlink:href="#mf022e37b89" x="117.940625" y="158.218125" style="stroke: #000000; stroke-width: 0.8"/>
      </g>
     </g>
     <g id="text_3">
      <!-- 6F -->
      <g transform="translate(111.883594 172.816563)scale(0.1 -0.1)">
       <use xlink:href="#DejaVuSans-36"/>
       <use xlink:href="#DejaVuSans-46" x="63.623047"/>
      </g>
      <!-- + DDRR -->
      <g transform="translate(97.513281 184.014375)scale(0.1 -0.1)">
       <defs>
        <path id="DejaVuSans-2b" d="M 2944 4013 
L 2944 2272 
L 4684 2272 
L 4684 1741 
L 2944 1741 
L 2944 0 
L 2419 0 
L 2419 1741 
L 678 1741 
L 678 2272 
L 2419 2272 
L 2419 4013 
L 2944 4013 
z
" transform="scale(0.015625)"/>
        <path id="DejaVuSans-20" transform="scale(0.015625)"/>
        <path id="DejaVuSans-44" d="M 1259 4147 
L 1259 519 
L 2022 519 
Q 2988 519 3436 956 
Q 3884 1394 3884 2338 
Q 3884 3275 3436 3711 
Q 2988 4147 2022 4147 
L 1259 4147 
z
M 628 4666 
L 1925 4666 
Q 3281 4666 3915 4102 
Q 4550 3538 4550 2338 
Q 4550 1131 3912 565 
Q 3275 0 1925 0 
L 628 0 
L 628 4666 
z
" transform="scale(0.015625)"/>
        <path id="DejaVuSans-52" d="M 2841 2188 
Q 3044 2119 3236 1894 
Q 3428 1669 3622 1275 
L 4263 0 
L 3584 0 
L 2988 1197 
Q 2756 1666 2539 1819 
Q 2322 1972 1947 1972 
L 1259 1972 
L 1259 0 
L 628 0 
L 628 4666 
L 2053 4666 
Q 2853 4666 3247 4331 
Q 3641 3997 3641 3322 
Q 3641 2881 3436 2590 
Q 3231 2300 2841 2188 
z
M 1259 4147 
L 1259 2491 
L 2053 2491 
Q 2509 2491 2742 2702 
Q 2975 2913 2975 3322 
Q 2975 3731 2742 3939 
Q 2509 4147 2053 4147 
L 1259 4147 
z
" transform="scale(0.015625)"/>
       </defs>
       <use xlink:href="#DejaVuSans-2b"/>
       <use xlink:href="#DejaVuSans-20" x="83.789062"/>
       <use xlink:href="#DejaVuSans-44" x="115.576172"/>
       <use xlink:href="#DejaVuSans-44" x="192.578125"/>
       <use xlink:href="#DejaVuSans-52" x="269.580078"/>
       <use xlink:href="#DejaVuSans-52" x="339.0625"/>
      </g>
     </g>
    </g>
    <g id="xtick_4">
     <g id="line2d_4">
      <g>
       <use xlink:href="#mf022e37b89" x="149.64517" y="158.218125" style="stroke: #000000; stroke-width: 0.8"/>
      </g>
     </g>
     <g id="text_4">
      <!-- NIL -->
      <g transform="translate(141.643608 172.816563)scale(0.1 -0.1)">
       <defs>
        <path id="DejaVuSans-4e" d="M 628 4666 
L 1478 4666 
L 3547 763 
L 3547 4666 
L 4159 4666 
L 4159 0 
L 3309 0 
L 1241 3903 
L 1241 0 
L 628 0 
L 628 4666 
z
" transform="scale(0.015625)"/>
        <path id="DejaVuSans-49" d="M 628 4666 
L 1259 4666 
L 1259 0 
L 628 0 
L 628 4666 
z
" transform="scale(0.015625)"/>
        <path id="DejaVuSans-4c" d="M 628 4666 
L 1259 4666 
L 1259 531 
L 3531 531 
L 3531 0 
L 628 0 
L 628 4666 
z
" transform="scale(0.015625)"/>
       </defs>
       <use xlink:href="#DejaVuSans-4e"/>
       <use xlink:href="#DejaVuSans-49" x="74.804688"/>
       <use xlink:href="#DejaVuSans-4c" x="104.296875"/>
      </g>
     </g>
    </g>
    <g id="xtick_5">
     <g id="line2d_5">
      <g>
       <use xlink:href="#mf022e37b89" x="181.349716" y="158.218125" style="stroke: #000000; stroke-width: 0.8"/>
      </g>
     </g>
     <g id="text_5">
      <!-- NIL -->
      <g transform="translate(173.348153 172.816563)scale(0.1 -0.1)">
       <use xlink:href="#DejaVuSans-4e"/>
       <use xlink:href="#DejaVuSans-49" x="74.804688"/>
       <use xlink:href="#DejaVuSans-4c" x="104.296875"/>
      </g>
      <!-- + DDRR -->
      <g transform="translate(160.922372 184.014375)scale(0.1 -0.1)">
       <use xlink:href="#DejaVuSans-2b"/>
       <use xlink:href="#DejaVuSans-20" x="83.789062"/>
       <use xlink:href="#DejaVuSans-44" x="115.576172"/>
       <use xlink:href="#DejaVuSans-44" x="192.578125"/>
       <use xlink:href="#DejaVuSans-52" x="269.580078"/>
       <use xlink:href="#DejaVuSans-52" x="339.0625"/>
      </g>
     </g>
    </g>
    <g id="text_6">
     <!-- cond.DDRR_cat -->
     <g transform="translate(79.278125 197.6925)scale(0.1 -0.1)">
      <defs>
       <path id="DejaVuSans-63" d="M 3122 3366 
L 3122 2828 
Q 2878 2963 2633 3030 
Q 2388 3097 2138 3097 
Q 1578 3097 1268 2742 
Q 959 2388 959 1747 
Q 959 1106 1268 751 
Q 1578 397 2138 397 
Q 2388 397 2633 464 
Q 2878 531 3122 666 
L 3122 134 
Q 2881 22 2623 -34 
Q 2366 -91 2075 -91 
Q 1284 -91 818 406 
Q 353 903 353 1747 
Q 353 2603 823 3093 
Q 1294 3584 2113 3584 
Q 2378 3584 2631 3529 
Q 2884 3475 3122 3366 
z
" transform="scale(0.015625)"/>
       <path id="DejaVuSans-6e" d="M 3513 2113 
L 3513 0 
L 2938 0 
L 2938 2094 
Q 2938 2591 2744 2837 
Q 2550 3084 2163 3084 
Q 1697 3084 1428 2787 
Q 1159 2491 1159 1978 
L 1159 0 
L 581 0 
L 581 3500 
L 1159 3500 
L 1159 2956 
Q 1366 3272 1645 3428 
Q 1925 3584 2291 3584 
Q 2894 3584 3203 3211 
Q 3513 2838 3513 2113 
z
" transform="scale(0.015625)"/>
       <path id="DejaVuSans-64" d="M 2906 2969 
L 2906 4863 
L 3481 4863 
L 3481 0 
L 2906 0 
L 2906 525 
Q 2725 213 2448 61 
Q 2172 -91 1784 -91 
Q 1150 -91 751 415 
Q 353 922 353 1747 
Q 353 2572 751 3078 
Q 1150 3584 1784 3584 
Q 2172 3584 2448 3432 
Q 2725 3281 2906 2969 
z
M 947 1747 
Q 947 1113 1208 752 
Q 1469 391 1925 391 
Q 2381 391 2643 752 
Q 2906 1113 2906 1747 
Q 2906 2381 2643 2742 
Q 2381 3103 1925 3103 
Q 1469 3103 1208 2742 
Q 947 2381 947 1747 
z
" transform="scale(0.015625)"/>
       <path id="DejaVuSans-2e" d="M 684 794 
L 1344 794 
L 1344 0 
L 684 0 
L 684 794 
z
" transform="scale(0.015625)"/>
       <path id="DejaVuSans-5f" d="M 3263 -1063 
L 3263 -1509 
L -63 -1509 
L -63 -1063 
L 3263 -1063 
z
" transform="scale(0.015625)"/>
       <path id="DejaVuSans-61" d="M 2194 1759 
Q 1497 1759 1228 1600 
Q 959 1441 959 1056 
Q 959 750 1161 570 
Q 1363 391 1709 391 
Q 2188 391 2477 730 
Q 2766 1069 2766 1631 
L 2766 1759 
L 2194 1759 
z
M 3341 1997 
L 3341 0 
L 2766 0 
L 2766 531 
Q 2569 213 2275 61 
Q 1981 -91 1556 -91 
Q 1019 -91 701 211 
Q 384 513 384 1019 
Q 384 1609 779 1909 
Q 1175 2209 1959 2209 
L 2766 2209 
L 2766 2266 
Q 2766 2663 2505 2880 
Q 2244 3097 1772 3097 
Q 1472 3097 1187 3025 
Q 903 2953 641 2809 
L 641 3341 
Q 956 3463 1253 3523 
Q 1550 3584 1831 3584 
Q 2591 3584 2966 3190 
Q 3341 2797 3341 1997 
z
" transform="scale(0.015625)"/>
      </defs>
      <use xlink:href="#DejaVuSans-63"/>
      <use xlink:href="#DejaVuSans-6f" x="54.980469"/>
      <use xlink:href="#DejaVuSans-6e" x="116.162109"/>
      <use xlink:href="#DejaVuSans-64" x="179.541016"/>
      <use xlink:href="#DejaVuSans-2e" x="243.017578"/>
      <use xlink:href="#DejaVuSans-44" x="274.804688"/>
      <use xlink:href="#DejaVuSans-44" x="351.806641"/>
      <use xlink:href="#DejaVuSans-52" x="428.808594"/>
      <use xlink:href="#DejaVuSans-52" x="498.291016"/>
      <use xlink:href="#DejaVuSans-5f" x="567.773438"/>
      <use xlink:href="#DejaVuSans-63" x="617.773438"/>
      <use xlink:href="#DejaVuSans-61" x="672.753906"/>
      <use xlink:href="#DejaVuSans-74" x="734.033203"/>
     </g>
    </g>
   </g>
   <g id="matplotlib.axis_2">
    <g id="ytick_1">
     <g id="line2d_6">
      <defs>
       <path id="m6997ef8fd8" d="M 0 0 
L -3.5 0 
" style="stroke: #000000; stroke-width: 0.8"/>
      </defs>
      <g>
       <use xlink:href="#m6997ef8fd8" x="34.240625" y="158.218125" style="stroke: #000000; stroke-width: 0.8"/>
      </g>
     </g>
     <g id="text_7">
      <!-- 0 -->
      <g transform="translate(20.878125 162.017344)scale(0.1 -0.1)">
       <defs>
        <path id="DejaVuSans-30" d="M 2034 4250 
Q 1547 4250 1301 3770 
Q 1056 3291 1056 2328 
Q 1056 1369 1301 889 
Q 1547 409 2034 409 
Q 2525 409 2770 889 
Q 3016 1369 3016 2328 
Q 3016 3291 2770 3770 
Q 2525 4250 2034 4250 
z
M 2034 4750 
Q 2819 4750 3233 4129 
Q 3647 3509 3647 2328 
Q 3647 1150 3233 529 
Q 2819 -91 2034 -91 
Q 1250 -91 836 529 
Q 422 1150 422 2328 
Q 422 3509 836 4129 
Q 1250 4750 2034 4750 
z
" transform="scale(0.015625)"/>
       </defs>
       <use xlink:href="#DejaVuSans-30"/>
      </g>
     </g>
    </g>
    <g id="ytick_2">
     <g id="line2d_7">
      <g>
       <use xlink:href="#m6997ef8fd8" x="34.240625" y="113.071537" style="stroke: #000000; stroke-width: 0.8"/>
      </g>
     </g>
     <g id="text_8">
      <!-- 2 -->
      <g transform="translate(20.878125 116.870755)scale(0.1 -0.1)">
       <defs>
        <path id="DejaVuSans-32" d="M 1228 531 
L 3431 531 
L 3431 0 
L 469 0 
L 469 531 
Q 828 903 1448 1529 
Q 2069 2156 2228 2338 
Q 2531 2678 2651 2914 
Q 2772 3150 2772 3378 
Q 2772 3750 2511 3984 
Q 2250 4219 1831 4219 
Q 1534 4219 1204 4116 
Q 875 4013 500 3803 
L 500 4441 
Q 881 4594 1212 4672 
Q 1544 4750 1819 4750 
Q 2544 4750 2975 4387 
Q 3406 4025 3406 3419 
Q 3406 3131 3298 2873 
Q 3191 2616 2906 2266 
Q 2828 2175 2409 1742 
Q 1991 1309 1228 531 
z
" transform="scale(0.015625)"/>
       </defs>
       <use xlink:href="#DejaVuSans-32"/>
      </g>
     </g>
    </g>
    <g id="ytick_3">
     <g id="line2d_8">
      <g>
       <use xlink:href="#m6997ef8fd8" x="34.240625" y="67.924948" style="stroke: #000000; stroke-width: 0.8"/>
      </g>
     </g>
     <g id="text_9">
      <!-- 4 -->
      <g transform="translate(20.878125 71.724167)scale(0.1 -0.1)">
       <defs>
        <path id="DejaVuSans-34" d="M 2419 4116 
L 825 1625 
L 2419 1625 
L 2419 4116 
z
M 2253 4666 
L 3047 4666 
L 3047 1625 
L 3713 1625 
L 3713 1100 
L 3047 1100 
L 3047 0 
L 2419 0 
L 2419 1100 
L 313 1100 
L 313 1709 
L 2253 4666 
z
" transform="scale(0.015625)"/>
       </defs>
       <use xlink:href="#DejaVuSans-34"/>
      </g>
     </g>
    </g>
    <g id="ytick_4">
     <g id="line2d_9">
      <g>
       <use xlink:href="#m6997ef8fd8" x="34.240625" y="22.77836" style="stroke: #000000; stroke-width: 0.8"/>
      </g>
     </g>
     <g id="text_10">
      <!-- 6 -->
      <g transform="translate(20.878125 26.577578)scale(0.1 -0.1)">
       <use xlink:href="#DejaVuSans-36"/>
      </g>
     </g>
    </g>
    <g id="text_11">
     <!-- (#) Total hyperP -->
     <g transform="translate(14.798438 130.663438)rotate(-90)scale(0.1 -0.1)">
      <defs>
       <path id="DejaVuSans-28" d="M 1984 4856 
Q 1566 4138 1362 3434 
Q 1159 2731 1159 2009 
Q 1159 1288 1364 580 
Q 1569 -128 1984 -844 
L 1484 -844 
Q 1016 -109 783 600 
Q 550 1309 550 2009 
Q 550 2706 781 3412 
Q 1013 4119 1484 4856 
L 1984 4856 
z
" transform="scale(0.015625)"/>
       <path id="DejaVuSans-23" d="M 3272 2816 
L 2363 2816 
L 2100 1772 
L 3016 1772 
L 3272 2816 
z
M 2803 4594 
L 2478 3297 
L 3391 3297 
L 3719 4594 
L 4219 4594 
L 3897 3297 
L 4872 3297 
L 4872 2816 
L 3775 2816 
L 3519 1772 
L 4513 1772 
L 4513 1294 
L 3397 1294 
L 3072 0 
L 2572 0 
L 2894 1294 
L 1978 1294 
L 1656 0 
L 1153 0 
L 1478 1294 
L 494 1294 
L 494 1772 
L 1594 1772 
L 1856 2816 
L 850 2816 
L 850 3297 
L 1978 3297 
L 2297 4594 
L 2803 4594 
z
" transform="scale(0.015625)"/>
       <path id="DejaVuSans-29" d="M 513 4856 
L 1013 4856 
Q 1481 4119 1714 3412 
Q 1947 2706 1947 2009 
Q 1947 1309 1714 600 
Q 1481 -109 1013 -844 
L 513 -844 
Q 928 -128 1133 580 
Q 1338 1288 1338 2009 
Q 1338 2731 1133 3434 
Q 928 4138 513 4856 
z
" transform="scale(0.015625)"/>
       <path id="DejaVuSans-54" d="M -19 4666 
L 3928 4666 
L 3928 4134 
L 2272 4134 
L 2272 0 
L 1638 0 
L 1638 4134 
L -19 4134 
L -19 4666 
z
" transform="scale(0.015625)"/>
       <path id="DejaVuSans-68" d="M 3513 2113 
L 3513 0 
L 2938 0 
L 2938 2094 
Q 2938 2591 2744 2837 
Q 2550 3084 2163 3084 
Q 1697 3084 1428 2787 
Q 1159 2491 1159 1978 
L 1159 0 
L 581 0 
L 581 4863 
L 1159 4863 
L 1159 2956 
Q 1366 3272 1645 3428 
Q 1925 3584 2291 3584 
Q 2894 3584 3203 3211 
Q 3513 2838 3513 2113 
z
" transform="scale(0.015625)"/>
       <path id="DejaVuSans-79" d="M 2059 -325 
Q 1816 -950 1584 -1140 
Q 1353 -1331 966 -1331 
L 506 -1331 
L 506 -850 
L 844 -850 
Q 1081 -850 1212 -737 
Q 1344 -625 1503 -206 
L 1606 56 
L 191 3500 
L 800 3500 
L 1894 763 
L 2988 3500 
L 3597 3500 
L 2059 -325 
z
" transform="scale(0.015625)"/>
       <path id="DejaVuSans-65" d="M 3597 1894 
L 3597 1613 
L 953 1613 
Q 991 1019 1311 708 
Q 1631 397 2203 397 
Q 2534 397 2845 478 
Q 3156 559 3463 722 
L 3463 178 
Q 3153 47 2828 -22 
Q 2503 -91 2169 -91 
Q 1331 -91 842 396 
Q 353 884 353 1716 
Q 353 2575 817 3079 
Q 1281 3584 2069 3584 
Q 2775 3584 3186 3129 
Q 3597 2675 3597 1894 
z
M 3022 2063 
Q 3016 2534 2758 2815 
Q 2500 3097 2075 3097 
Q 1594 3097 1305 2825 
Q 1016 2553 972 2059 
L 3022 2063 
z
" transform="scale(0.015625)"/>
       <path id="DejaVuSans-50" d="M 1259 4147 
L 1259 2394 
L 2053 2394 
Q 2494 2394 2734 2622 
Q 2975 2850 2975 3272 
Q 2975 3691 2734 3919 
Q 2494 4147 2053 4147 
L 1259 4147 
z
M 628 4666 
L 2053 4666 
Q 2838 4666 3239 4311 
Q 3641 3956 3641 3272 
Q 3641 2581 3239 2228 
Q 2838 1875 2053 1875 
L 1259 1875 
L 1259 0 
L 628 0 
L 628 4666 
z
" transform="scale(0.015625)"/>
      </defs>
      <use xlink:href="#DejaVuSans-28"/>
      <use xlink:href="#DejaVuSans-23" x="39.013672"/>
      <use xlink:href="#DejaVuSans-29" x="122.802734"/>
      <use xlink:href="#DejaVuSans-20" x="161.816406"/>
      <use xlink:href="#DejaVuSans-54" x="193.603516"/>
      <use xlink:href="#DejaVuSans-6f" x="237.6875"/>
      <use xlink:href="#DejaVuSans-74" x="298.869141"/>
      <use xlink:href="#DejaVuSans-61" x="338.078125"/>
      <use xlink:href="#DejaVuSans-6c" x="399.357422"/>
      <use xlink:href="#DejaVuSans-20" x="427.140625"/>
      <use xlink:href="#DejaVuSans-68" x="458.927734"/>
      <use xlink:href="#DejaVuSans-79" x="522.306641"/>
      <use xlink:href="#DejaVuSans-70" x="581.486328"/>
      <use xlink:href="#DejaVuSans-65" x="644.962891"/>
      <use xlink:href="#DejaVuSans-72" x="706.486328"/>
      <use xlink:href="#DejaVuSans-50" x="747.599609"/>
     </g>
    </g>
    <g id="text_12">
     <!-- 1e4 -->
     <g transform="translate(34.240625 19.318125)scale(0.1 -0.1)">
      <defs>
       <path id="DejaVuSans-31" d="M 794 531 
L 1825 531 
L 1825 4091 
L 703 3866 
L 703 4441 
L 1819 4666 
L 2450 4666 
L 2450 531 
L 3481 531 
L 3481 0 
L 794 0 
L 794 531 
z
" transform="scale(0.015625)"/>
      </defs>
      <use xlink:href="#DejaVuSans-31"/>
      <use xlink:href="#DejaVuSans-65" x="63.623047"/>
      <use xlink:href="#DejaVuSans-34" x="125.146484"/>
     </g>
    </g>
   </g>
   <g id="line2d_10">
    <path d="M 54.531534 156.031217 
L 54.531534 154.501531 
" clip-path="url(#p391aa87145)" style="fill: none; stroke: #424242; stroke-width: 2.7; stroke-linecap: square"/>
   </g>
   <g id="line2d_11">
    <path d="M 86.23608 157.707037 
L 86.23608 157.096342 
" clip-path="url(#p391aa87145)" style="fill: none; stroke: #424242; stroke-width: 2.7; stroke-linecap: square"/>
   </g>
   <g id="line2d_12">
    <path d="M 117.940625 153.505569 
L 117.940625 148.876319 
" clip-path="url(#p391aa87145)" style="fill: none; stroke: #424242; stroke-width: 2.7; stroke-linecap: square"/>
   </g>
   <g id="line2d_13">
    <path d="M 149.64517 155.744946 
L 149.64517 154.669289 
" clip-path="url(#p391aa87145)" style="fill: none; stroke: #424242; stroke-width: 2.7; stroke-linecap: square"/>
   </g>
   <g id="line2d_14">
    <path d="M 181.349716 109.876844 
L 181.349716 90.740485 
" clip-path="url(#p391aa87145)" style="fill: none; stroke: #424242; stroke-width: 2.7; stroke-linecap: square"/>
   </g>
   <g id="line2d_15">
    <path d="M 149.64517 56.079255 
L 149.64517 54.06146 
L 181.349716 54.06146 
L 181.349716 56.079255 
" clip-path="url(#p391aa87145)" style="fill: none; stroke: #333333; stroke-width: 1.5; stroke-linecap: square"/>
   </g>
   <g id="line2d_16">
    <path d="M 86.23608 136.799098 
L 86.23608 134.781303 
L 117.940625 134.781303 
L 117.940625 136.799098 
" clip-path="url(#p391aa87145)" style="fill: none; stroke: #333333; stroke-width: 1.5; stroke-linecap: square"/>
   </g>
   <g id="line2d_17">
    <path d="M 117.940625 37.729049 
L 117.940625 35.711254 
L 181.349716 35.711254 
L 181.349716 37.729049 
" clip-path="url(#p391aa87145)" style="fill: none; stroke: #333333; stroke-width: 1.5; stroke-linecap: square"/>
   </g>
   <g id="line2d_18">
    <path d="M 54.531534 126.627303 
L 54.531534 123.909303 
L 86.23608 123.909303 
L 86.23608 126.627303 
" clip-path="url(#p391aa87145)" style="fill: none; stroke: #333333; stroke-width: 1.5; stroke-linecap: square"/>
   </g>
   <g id="line2d_19">
    <path d="M 54.531534 45.90746 
L 54.531534 43.18946 
L 149.64517 43.18946 
L 149.64517 45.90746 
" clip-path="url(#p391aa87145)" style="fill: none; stroke: #333333; stroke-width: 1.5; stroke-linecap: square"/>
   </g>
   <g id="patch_8">
    <path d="M 34.240625 158.218125 
L 34.240625 22.318125 
" style="fill: none; stroke: #000000; stroke-width: 0.8; stroke-linejoin: miter; stroke-linecap: square"/>
   </g>
   <g id="patch_9">
    <path d="M 201.640625 158.218125 
L 201.640625 22.318125 
" style="fill: none; stroke: #000000; stroke-width: 0.8; stroke-linejoin: miter; stroke-linecap: square"/>
   </g>
   <g id="patch_10">
    <path d="M 34.240625 158.218125 
L 201.640625 158.218125 
" style="fill: none; stroke: #000000; stroke-width: 0.8; stroke-linejoin: miter; stroke-linecap: square"/>
   </g>
   <g id="patch_11">
    <path d="M 34.240625 22.318125 
L 201.640625 22.318125 
" style="fill: none; stroke: #000000; stroke-width: 0.8; stroke-linejoin: miter; stroke-linecap: square"/>
   </g>
   <g id="PathCollection_1">
    <defs>
     <path id="C0_0_53762595a7" d="M 0 2.5 
C 0.663008 2.5 1.29895 2.236584 1.767767 1.767767 
C 2.236584 1.29895 2.5 0.663008 2.5 -0 
C 2.5 -0.663008 2.236584 -1.29895 1.767767 -1.767767 
C 1.29895 -2.236584 0.663008 -2.5 0 -2.5 
C -0.663008 -2.5 -1.29895 -2.236584 -1.767767 -1.767767 
C -2.236584 -1.29895 -2.5 -0.663008 -2.5 0 
C -2.5 0.663008 -2.236584 1.29895 -1.767767 1.767767 
C -1.29895 2.236584 -0.663008 2.5 0 2.5 
z
"/>
    </defs>
    <g clip-path="url(#p391aa87145)">
     <use xlink:href="#C0_0_53762595a7" x="54.539533" y="155.344545" style="fill: #ffffff; stroke: #000000; stroke-width: 0.4"/>
    </g>
    <g clip-path="url(#p391aa87145)">
     <use xlink:href="#C0_0_53762595a7" x="54.767788" y="156.577047" style="fill: #ffffff; stroke: #000000; stroke-width: 0.4"/>
    </g>
    <g clip-path="url(#p391aa87145)">
     <use xlink:href="#C0_0_53762595a7" x="55.520377" y="156.10075" style="fill: #ffffff; stroke: #000000; stroke-width: 0.4"/>
    </g>
    <g clip-path="url(#p391aa87145)">
     <use xlink:href="#C0_0_53762595a7" x="53.014937" y="154.430326" style="fill: #ffffff; stroke: #000000; stroke-width: 0.4"/>
    </g>
   </g>
   <g id="PathCollection_2">
    <defs>
     <path id="C1_0_3c7d255762" d="M 0 2.5 
C 0.663008 2.5 1.29895 2.236584 1.767767 1.767767 
C 2.236584 1.29895 2.5 0.663008 2.5 -0 
C 2.5 -0.663008 2.236584 -1.29895 1.767767 -1.767767 
C 1.29895 -2.236584 0.663008 -2.5 0 -2.5 
C -0.663008 -2.5 -1.29895 -2.236584 -1.767767 -1.767767 
C -2.236584 -1.29895 -2.5 -0.663008 -2.5 0 
C -2.5 0.663008 -2.236584 1.29895 -1.767767 1.767767 
C -1.29895 2.236584 -0.663008 2.5 0 2.5 
z
"/>
    </defs>
    <g clip-path="url(#p391aa87145)">
     <use xlink:href="#C1_0_3c7d255762" x="85.970978" y="157.802776" style="fill: #ffffff; stroke: #000000; stroke-width: 0.4"/>
    </g>
    <g clip-path="url(#p391aa87145)">
     <use xlink:href="#C1_0_3c7d255762" x="83.541105" y="157.540926" style="fill: #ffffff; stroke: #000000; stroke-width: 0.4"/>
    </g>
    <g clip-path="url(#p391aa87145)">
     <use xlink:href="#C1_0_3c7d255762" x="87.273889" y="157.52061" style="fill: #ffffff; stroke: #000000; stroke-width: 0.4"/>
    </g>
    <g clip-path="url(#p391aa87145)">
     <use xlink:href="#C1_0_3c7d255762" x="87.857406" y="157.685395" style="fill: #ffffff; stroke: #000000; stroke-width: 0.4"/>
    </g>
   </g>
   <g id="PathCollection_3">
    <defs>
     <path id="C2_0_12d722401f" d="M 0 2.5 
C 0.663008 2.5 1.29895 2.236584 1.767767 1.767767 
C 2.236584 1.29895 2.5 0.663008 2.5 -0 
C 2.5 -0.663008 2.236584 -1.29895 1.767767 -1.767767 
C 1.29895 -2.236584 0.663008 -2.5 0 -2.5 
C -0.663008 -2.5 -1.29895 -2.236584 -1.767767 -1.767767 
C -2.236584 -1.29895 -2.5 -0.663008 -2.5 0 
C -2.5 0.663008 -2.236584 1.29895 -1.767767 1.767767 
C -1.29895 2.236584 -0.663008 2.5 0 2.5 
z
"/>
    </defs>
    <g clip-path="url(#p391aa87145)">
     <use xlink:href="#C2_0_12d722401f" x="120.907272" y="150.949524" style="fill: #ffffff; stroke: #000000; stroke-width: 0.4"/>
    </g>
    <g clip-path="url(#p391aa87145)">
     <use xlink:href="#C2_0_12d722401f" x="120.485596" y="150.94501" style="fill: #ffffff; stroke: #000000; stroke-width: 0.4"/>
    </g>
    <g clip-path="url(#p391aa87145)">
     <use xlink:href="#C2_0_12d722401f" x="120.059352" y="151.03756" style="fill: #ffffff; stroke: #000000; stroke-width: 0.4"/>
    </g>
    <g clip-path="url(#p391aa87145)">
     <use xlink:href="#C2_0_12d722401f" x="119.969512" y="151.622208" style="fill: #ffffff; stroke: #000000; stroke-width: 0.4"/>
    </g>
   </g>
   <g id="PathCollection_4">
    <defs>
     <path id="C3_0_68489629bc" d="M 0 2.5 
C 0.663008 2.5 1.29895 2.236584 1.767767 1.767767 
C 2.236584 1.29895 2.5 0.663008 2.5 -0 
C 2.5 -0.663008 2.236584 -1.29895 1.767767 -1.767767 
C 1.29895 -2.236584 0.663008 -2.5 0 -2.5 
C -0.663008 -2.5 -1.29895 -2.236584 -1.767767 -1.767767 
C -2.236584 -1.29895 -2.5 -0.663008 -2.5 0 
C -2.5 0.663008 -2.236584 1.29895 -1.767767 1.767767 
C -1.29895 2.236584 -0.663008 2.5 0 2.5 
z
"/>
    </defs>
    <g clip-path="url(#p391aa87145)">
     <use xlink:href="#C3_0_68489629bc" x="148.783855" y="156.843411" style="fill: #ffffff; stroke: #000000; stroke-width: 0.4"/>
    </g>
    <g clip-path="url(#p391aa87145)">
     <use xlink:href="#C3_0_68489629bc" x="150.453676" y="156.346799" style="fill: #ffffff; stroke: #000000; stroke-width: 0.4"/>
    </g>
    <g clip-path="url(#p391aa87145)">
     <use xlink:href="#C3_0_68489629bc" x="148.331033" y="155.20459" style="fill: #ffffff; stroke: #000000; stroke-width: 0.4"/>
    </g>
    <g clip-path="url(#p391aa87145)">
     <use xlink:href="#C3_0_68489629bc" x="149.697799" y="155.321971" style="fill: #ffffff; stroke: #000000; stroke-width: 0.4"/>
    </g>
   </g>
   <g id="PathCollection_5">
    <defs>
     <path id="C4_0_8b5f03d6d9" d="M 0 2.5 
C 0.663008 2.5 1.29895 2.236584 1.767767 1.767767 
C 2.236584 1.29895 2.5 0.663008 2.5 -0 
C 2.5 -0.663008 2.236584 -1.29895 1.767767 -1.767767 
C 1.29895 -2.236584 0.663008 -2.5 0 -2.5 
C -0.663008 -2.5 -1.29895 -2.236584 -1.767767 -1.767767 
C -2.236584 -1.29895 -2.5 -0.663008 -2.5 0 
C -2.5 0.663008 -2.236584 1.29895 -1.767767 1.767767 
C -1.29895 2.236584 -0.663008 2.5 0 2.5 
z
"/>
    </defs>
    <g clip-path="url(#p391aa87145)">
     <use xlink:href="#C4_0_8b5f03d6d9" x="178.262177" y="135.200137" style="fill: #ffffff; stroke: #000000; stroke-width: 0.4"/>
    </g>
    <g clip-path="url(#p391aa87145)">
     <use xlink:href="#C4_0_8b5f03d6d9" x="178.470973" y="126.800614" style="fill: #ffffff; stroke: #000000; stroke-width: 0.4"/>
    </g>
    <g clip-path="url(#p391aa87145)">
     <use xlink:href="#C4_0_8b5f03d6d9" x="182.025438" y="128.186614" style="fill: #ffffff; stroke: #000000; stroke-width: 0.4"/>
    </g>
    <g clip-path="url(#p391aa87145)">
     <use xlink:href="#C4_0_8b5f03d6d9" x="180.256228" y="112.179891" style="fill: #ffffff; stroke: #000000; stroke-width: 0.4"/>
    </g>
   </g>
   <g id="PathCollection_6">
    <path d="M 54.394792 154.819723 
L 59.394792 154.819723 
L 59.394792 149.819723 
L 54.394792 149.819723 
z
" clip-path="url(#p391aa87145)" style="fill: #ffffff; stroke: #000000; stroke-width: 0.4"/>
    <path d="M 49.294651 155.548841 
L 54.294651 155.548841 
L 54.294651 150.548841 
L 49.294651 150.548841 
z
" clip-path="url(#p391aa87145)" style="fill: #ffffff; stroke: #000000; stroke-width: 0.4"/>
    <path d="M 54.270549 157.449512 
L 59.270549 157.449512 
L 59.270549 152.449512 
L 54.270549 152.449512 
z
" clip-path="url(#p391aa87145)" style="fill: #ffffff; stroke: #000000; stroke-width: 0.4"/>
    <path d="M 49.632997 157.521747 
L 54.632997 157.521747 
L 54.632997 152.521747 
L 49.632997 152.521747 
z
" clip-path="url(#p391aa87145)" style="fill: #ffffff; stroke: #000000; stroke-width: 0.4"/>
   </g>
   <g id="PathCollection_7">
    <path d="M 82.912799 159.300522 
L 87.912799 159.300522 
L 87.912799 154.300522 
L 82.912799 154.300522 
z
" clip-path="url(#p391aa87145)" style="fill: #ffffff; stroke: #000000; stroke-width: 0.4"/>
    <path d="M 81.706066 159.09962 
L 86.706066 159.09962 
L 86.706066 154.09962 
L 81.706066 154.09962 
z
" clip-path="url(#p391aa87145)" style="fill: #ffffff; stroke: #000000; stroke-width: 0.4"/>
    <path d="M 84.357983 159.426933 
L 89.357983 159.426933 
L 89.357983 154.426933 
L 84.357983 154.426933 
z
" clip-path="url(#p391aa87145)" style="fill: #ffffff; stroke: #000000; stroke-width: 0.4"/>
    <path d="M 86.492589 159.19217 
L 91.492589 159.19217 
L 91.492589 154.19217 
L 86.492589 154.19217 
z
" clip-path="url(#p391aa87145)" style="fill: #ffffff; stroke: #000000; stroke-width: 0.4"/>
   </g>
   <g id="PathCollection_8">
    <path d="M 115.716407 156.955157 
L 120.716407 156.955157 
L 120.716407 151.955157 
L 115.716407 151.955157 
z
" clip-path="url(#p391aa87145)" style="fill: #ffffff; stroke: #000000; stroke-width: 0.4"/>
    <path d="M 117.226747 145.713656 
L 122.226747 145.713656 
L 122.226747 140.713656 
L 117.226747 140.713656 
z
" clip-path="url(#p391aa87145)" style="fill: #ffffff; stroke: #000000; stroke-width: 0.4"/>
    <path d="M 114.200347 145.849096 
L 119.200347 145.849096 
L 119.200347 140.849096 
L 114.200347 140.849096 
z
" clip-path="url(#p391aa87145)" style="fill: #ffffff; stroke: #000000; stroke-width: 0.4"/>
    <path d="M 117.961047 145.352484 
L 122.961047 145.352484 
L 122.961047 140.352484 
L 117.961047 140.352484 
z
" clip-path="url(#p391aa87145)" style="fill: #ffffff; stroke: #000000; stroke-width: 0.4"/>
   </g>
   <g id="PathCollection_9">
    <path d="M 148.372103 155.384056 
L 153.372103 155.384056 
L 153.372103 150.384056 
L 148.372103 150.384056 
z
" clip-path="url(#p391aa87145)" style="fill: #ffffff; stroke: #000000; stroke-width: 0.4"/>
    <path d="M 145.438117 157.413395 
L 150.438117 157.413395 
L 150.438117 152.413395 
L 145.438117 152.413395 
z
" clip-path="url(#p391aa87145)" style="fill: #ffffff; stroke: #000000; stroke-width: 0.4"/>
    <path d="M 145.633595 156.785857 
L 150.633595 156.785857 
L 150.633595 151.785857 
L 145.633595 151.785857 
z
" clip-path="url(#p391aa87145)" style="fill: #ffffff; stroke: #000000; stroke-width: 0.4"/>
    <path d="M 147.720451 158.444994 
L 152.720451 158.444994 
L 152.720451 153.444994 
L 147.720451 153.444994 
z
" clip-path="url(#p391aa87145)" style="fill: #ffffff; stroke: #000000; stroke-width: 0.4"/>
   </g>
   <g id="PathCollection_10">
    <path d="M 181.259863 107.111066 
L 186.259863 107.111066 
L 186.259863 102.111066 
L 181.259863 102.111066 
z
" clip-path="url(#p391aa87145)" style="fill: #ffffff; stroke: #000000; stroke-width: 0.4"/>
    <path d="M 179.871868 98.506126 
L 184.871868 98.506126 
L 184.871868 93.506126 
L 179.871868 93.506126 
z
" clip-path="url(#p391aa87145)" style="fill: #ffffff; stroke: #000000; stroke-width: 0.4"/>
    <path d="M 178.863053 97.002745 
L 183.863053 97.002745 
L 183.863053 92.002745 
L 178.863053 92.002745 
z
" clip-path="url(#p391aa87145)" style="fill: #ffffff; stroke: #000000; stroke-width: 0.4"/>
    <path d="M 180.106799 93.856027 
L 185.106799 93.856027 
L 185.106799 88.856027 
L 180.106799 88.856027 
z
" clip-path="url(#p391aa87145)" style="fill: #ffffff; stroke: #000000; stroke-width: 0.4"/>
   </g>
   <g id="PathCollection_11">
    <path d="M 57.010202 152.977727 
L 54.510202 157.977727 
L 59.510202 157.977727 
z
" clip-path="url(#p391aa87145)" style="fill: #ffffff; stroke: #000000; stroke-width: 0.4"/>
    <path d="M 53.412853 152.058994 
L 50.912853 157.058994 
L 55.912853 157.058994 
z
" clip-path="url(#p391aa87145)" style="fill: #ffffff; stroke: #000000; stroke-width: 0.4"/>
    <path d="M 57.405554 152.138001 
L 54.905554 157.138001 
L 59.905554 157.138001 
z
" clip-path="url(#p391aa87145)" style="fill: #ffffff; stroke: #000000; stroke-width: 0.4"/>
    <path d="M 51.739421 151.889694 
L 49.239421 156.889694 
L 54.239421 156.889694 
z
" clip-path="url(#p391aa87145)" style="fill: #ffffff; stroke: #000000; stroke-width: 0.4"/>
   </g>
   <g id="PathCollection_12">
    <path d="M 84.808907 155.514965 
L 82.308907 160.514965 
L 87.308907 160.514965 
z
" clip-path="url(#p391aa87145)" style="fill: #ffffff; stroke: #000000; stroke-width: 0.4"/>
    <path d="M 86.945916 155.544311 
L 84.445916 160.544311 
L 89.445916 160.544311 
z
" clip-path="url(#p391aa87145)" style="fill: #ffffff; stroke: #000000; stroke-width: 0.4"/>
    <path d="M 88.309295 155.435959 
L 85.809295 160.435959 
L 90.809295 160.435959 
z
" clip-path="url(#p391aa87145)" style="fill: #ffffff; stroke: #000000; stroke-width: 0.4"/>
    <path d="M 87.048462 155.347923 
L 84.548462 160.347923 
L 89.548462 160.347923 
z
" clip-path="url(#p391aa87145)" style="fill: #ffffff; stroke: #000000; stroke-width: 0.4"/>
   </g>
   <g id="PathCollection_13">
    <path d="M 120.017499 152.727164 
L 117.517499 157.727164 
L 122.517499 157.727164 
z
" clip-path="url(#p391aa87145)" style="fill: #ffffff; stroke: #000000; stroke-width: 0.4"/>
    <path d="M 115.088069 151.325362 
L 112.588069 156.325362 
L 117.588069 156.325362 
z
" clip-path="url(#p391aa87145)" style="fill: #ffffff; stroke: #000000; stroke-width: 0.4"/>
    <path d="M 116.6185 151.761027 
L 114.1185 156.761027 
L 119.1185 156.761027 
z
" clip-path="url(#p391aa87145)" style="fill: #ffffff; stroke: #000000; stroke-width: 0.4"/>
    <path d="M 118.77858 152.451769 
L 116.27858 157.451769 
L 121.27858 157.451769 
z
" clip-path="url(#p391aa87145)" style="fill: #ffffff; stroke: #000000; stroke-width: 0.4"/>
   </g>
   <g id="PathCollection_14">
    <path d="M 151.009868 152.230551 
L 148.509868 157.230551 
L 153.509868 157.230551 
z
" clip-path="url(#p391aa87145)" style="fill: #ffffff; stroke: #000000; stroke-width: 0.4"/>
    <path d="M 151.381334 152.302786 
L 148.881334 157.302786 
L 153.881334 157.302786 
z
" clip-path="url(#p391aa87145)" style="fill: #ffffff; stroke: #000000; stroke-width: 0.4"/>
    <path d="M 152.239007 153.124453 
L 149.739007 158.124453 
L 154.739007 158.124453 
z
" clip-path="url(#p391aa87145)" style="fill: #ffffff; stroke: #000000; stroke-width: 0.4"/>
    <path d="M 150.056368 152.539805 
L 147.556368 157.539805 
L 152.556368 157.539805 
z
" clip-path="url(#p391aa87145)" style="fill: #ffffff; stroke: #000000; stroke-width: 0.4"/>
   </g>
   <g id="PathCollection_15">
    <path d="M 181.713534 79.858312 
L 179.213534 84.858312 
L 184.213534 84.858312 
z
" clip-path="url(#p391aa87145)" style="fill: #ffffff; stroke: #000000; stroke-width: 0.4"/>
    <path d="M 182.534651 59.632641 
L 180.034651 64.632641 
L 185.034651 64.632641 
z
" clip-path="url(#p391aa87145)" style="fill: #ffffff; stroke: #000000; stroke-width: 0.4"/>
    <path d="M 182.349444 71.066014 
L 179.849444 76.066014 
L 184.849444 76.066014 
z
" clip-path="url(#p391aa87145)" style="fill: #ffffff; stroke: #000000; stroke-width: 0.4"/>
    <path d="M 178.491729 98.87857 
L 175.991729 103.87857 
L 180.991729 103.87857 
z
" clip-path="url(#p391aa87145)" style="fill: #ffffff; stroke: #000000; stroke-width: 0.4"/>
   </g>
   <g id="PathCollection_16">
    <path d="M 55.169025 159.735606 
L 58.704559 156.200072 
L 55.169025 152.664539 
L 51.633491 156.200072 
z
" clip-path="url(#p391aa87145)" style="fill: #ffffff; stroke: #000000; stroke-width: 0.4"/>
    <path d="M 57.328355 161.058401 
L 60.863889 157.522868 
L 57.328355 153.987334 
L 53.792821 157.522868 
z
" clip-path="url(#p391aa87145)" style="fill: #ffffff; stroke: #000000; stroke-width: 0.4"/>
    <path d="M 57.348755 159.527932 
L 60.884289 155.992398 
L 57.348755 152.456864 
L 53.813221 155.992398 
z
" clip-path="url(#p391aa87145)" style="fill: #ffffff; stroke: #000000; stroke-width: 0.4"/>
    <path d="M 57.698694 161.250274 
L 61.234228 157.714741 
L 57.698694 154.179207 
L 54.16316 157.714741 
z
" clip-path="url(#p391aa87145)" style="fill: #ffffff; stroke: #000000; stroke-width: 0.4"/>
   </g>
   <g id="PathCollection_17">
    <path d="M 86.295515 160.372173 
L 89.831049 156.836639 
L 86.295515 153.301105 
L 82.759981 156.836639 
z
" clip-path="url(#p391aa87145)" style="fill: #ffffff; stroke: #000000; stroke-width: 0.4"/>
    <path d="M 87.872453 161.006483 
L 91.407987 157.470949 
L 87.872453 153.935415 
L 84.336919 157.470949 
z
" clip-path="url(#p391aa87145)" style="fill: #ffffff; stroke: #000000; stroke-width: 0.4"/>
    <path d="M 83.147408 160.812353 
L 86.682942 157.276819 
L 83.147408 153.741285 
L 79.611874 157.276819 
z
" clip-path="url(#p391aa87145)" style="fill: #ffffff; stroke: #000000; stroke-width: 0.4"/>
    <path d="M 84.442237 160.832669 
L 87.977771 157.297135 
L 84.442237 153.761601 
L 80.906703 157.297135 
z
" clip-path="url(#p391aa87145)" style="fill: #ffffff; stroke: #000000; stroke-width: 0.4"/>
   </g>
   <g id="PathCollection_18">
    <path d="M 116.408482 157.50085 
L 119.944016 153.965316 
L 116.408482 150.429782 
L 112.872948 153.965316 
z
" clip-path="url(#p391aa87145)" style="fill: #ffffff; stroke: #000000; stroke-width: 0.4"/>
    <path d="M 117.800523 157.040355 
L 121.336057 153.504821 
L 117.800523 149.969287 
L 114.264989 153.504821 
z
" clip-path="url(#p391aa87145)" style="fill: #ffffff; stroke: #000000; stroke-width: 0.4"/>
    <path d="M 117.892224 157.53471 
L 121.427758 153.999176 
L 117.892224 150.463642 
L 114.356691 153.999176 
z
" clip-path="url(#p391aa87145)" style="fill: #ffffff; stroke: #000000; stroke-width: 0.4"/>
    <path d="M 117.102856 157.954573 
L 120.638389 154.41904 
L 117.102856 150.883506 
L 113.567322 154.41904 
z
" clip-path="url(#p391aa87145)" style="fill: #ffffff; stroke: #000000; stroke-width: 0.4"/>
   </g>
   <g id="PathCollection_19">
    <path d="M 146.534428 159.731092 
L 150.069961 156.195558 
L 146.534428 152.660024 
L 142.998894 156.195558 
z
" clip-path="url(#p391aa87145)" style="fill: #ffffff; stroke: #000000; stroke-width: 0.4"/>
    <path d="M 149.659152 158.144189 
L 153.194686 154.608655 
L 149.659152 151.073121 
L 146.123618 154.608655 
z
" clip-path="url(#p391aa87145)" style="fill: #ffffff; stroke: #000000; stroke-width: 0.4"/>
    <path d="M 149.205895 158.656603 
L 152.741429 155.121069 
L 149.205895 151.585535 
L 145.670361 155.121069 
z
" clip-path="url(#p391aa87145)" style="fill: #ffffff; stroke: #000000; stroke-width: 0.4"/>
    <path d="M 150.993354 159.760437 
L 154.528888 156.224903 
L 150.993354 152.689369 
L 147.45782 156.224903 
z
" clip-path="url(#p391aa87145)" style="fill: #ffffff; stroke: #000000; stroke-width: 0.4"/>
   </g>
   <g id="PathCollection_20">
    <path d="M 180.690065 103.069866 
L 184.225599 99.534332 
L 180.690065 95.998798 
L 177.154531 99.534332 
z
" clip-path="url(#p391aa87145)" style="fill: #ffffff; stroke: #000000; stroke-width: 0.4"/>
    <path d="M 182.137922 99.532631 
L 185.673456 95.997097 
L 182.137922 92.461563 
L 178.602388 95.997097 
z
" clip-path="url(#p391aa87145)" style="fill: #ffffff; stroke: #000000; stroke-width: 0.4"/>
    <path d="M 182.093668 104.875729 
L 185.629202 101.340196 
L 182.093668 97.804662 
L 178.558135 101.340196 
z
" clip-path="url(#p391aa87145)" style="fill: #ffffff; stroke: #000000; stroke-width: 0.4"/>
    <path d="M 182.74017 96.449119 
L 186.275704 92.913585 
L 182.74017 89.378051 
L 179.204636 92.913585 
z
" clip-path="url(#p391aa87145)" style="fill: #ffffff; stroke: #000000; stroke-width: 0.4"/>
   </g>
   <g id="text_13">
    <!-- ** -->
    <g transform="translate(160.497443 50.981773)scale(0.1 -0.1)">
     <defs>
      <path id="DejaVuSans-2a" d="M 3009 3897 
L 1888 3291 
L 3009 2681 
L 2828 2375 
L 1778 3009 
L 1778 1831 
L 1422 1831 
L 1422 3009 
L 372 2375 
L 191 2681 
L 1313 3291 
L 191 3897 
L 372 4206 
L 1422 3572 
L 1422 4750 
L 1778 4750 
L 1778 3572 
L 2828 4206 
L 3009 3897 
z
" transform="scale(0.015625)"/>
     </defs>
     <use xlink:href="#DejaVuSans-2a"/>
     <use xlink:href="#DejaVuSans-2a" x="50"/>
    </g>
   </g>
   <g id="text_14">
    <!-- * -->
    <g transform="translate(99.588352 131.701615)scale(0.1 -0.1)">
     <use xlink:href="#DejaVuSans-2a"/>
    </g>
   </g>
   <g id="text_15">
    <!-- ** -->
    <g transform="translate(144.64517 32.631566)scale(0.1 -0.1)">
     <use xlink:href="#DejaVuSans-2a"/>
     <use xlink:href="#DejaVuSans-2a" x="50"/>
    </g>
   </g>
   <g id="text_16">
    <!-- * -->
    <g transform="translate(67.883807 120.829615)scale(0.1 -0.1)">
     <use xlink:href="#DejaVuSans-2a"/>
    </g>
   </g>
   <g id="text_17">
    <!-- ns -->
    <g transform="translate(96.314915 40.109773)scale(0.1 -0.1)">
     <defs>
      <path id="DejaVuSans-73" d="M 2834 3397 
L 2834 2853 
Q 2591 2978 2328 3040 
Q 2066 3103 1784 3103 
Q 1356 3103 1142 2972 
Q 928 2841 928 2578 
Q 928 2378 1081 2264 
Q 1234 2150 1697 2047 
L 1894 2003 
Q 2506 1872 2764 1633 
Q 3022 1394 3022 966 
Q 3022 478 2636 193 
Q 2250 -91 1575 -91 
Q 1294 -91 989 -36 
Q 684 19 347 128 
L 347 722 
Q 666 556 975 473 
Q 1284 391 1588 391 
Q 1994 391 2212 530 
Q 2431 669 2431 922 
Q 2431 1156 2273 1281 
Q 2116 1406 1581 1522 
L 1381 1569 
Q 847 1681 609 1914 
Q 372 2147 372 2553 
Q 372 3047 722 3315 
Q 1072 3584 1716 3584 
Q 2034 3584 2315 3537 
Q 2597 3491 2834 3397 
z
" transform="scale(0.015625)"/>
     </defs>
     <use xlink:href="#DejaVuSans-6e"/>
     <use xlink:href="#DejaVuSans-73" x="63.378906"/>
    </g>
   </g>
   <g id="text_18">
    <g id="patch_12">
     <path d="M 31.951065 156.267937 
L 77.112003 156.267937 
L 77.112003 144.589812 
L 31.951065 144.589812 
z
" style="fill: #ffffff; opacity: 0.75"/>
    </g>
    <!-- 1.3e+03 -->
    <g transform="translate(32.951065 153.188249)scale(0.1 -0.1)">
     <defs>
      <path id="DejaVuSans-33" d="M 2597 2516 
Q 3050 2419 3304 2112 
Q 3559 1806 3559 1356 
Q 3559 666 3084 287 
Q 2609 -91 1734 -91 
Q 1441 -91 1130 -33 
Q 819 25 488 141 
L 488 750 
Q 750 597 1062 519 
Q 1375 441 1716 441 
Q 2309 441 2620 675 
Q 2931 909 2931 1356 
Q 2931 1769 2642 2001 
Q 2353 2234 1838 2234 
L 1294 2234 
L 1294 2753 
L 1863 2753 
Q 2328 2753 2575 2939 
Q 2822 3125 2822 3475 
Q 2822 3834 2567 4026 
Q 2313 4219 1838 4219 
Q 1578 4219 1281 4162 
Q 984 4106 628 3988 
L 628 4550 
Q 988 4650 1302 4700 
Q 1616 4750 1894 4750 
Q 2613 4750 3031 4423 
Q 3450 4097 3450 3541 
Q 3450 3153 3228 2886 
Q 3006 2619 2597 2516 
z
" transform="scale(0.015625)"/>
     </defs>
     <use xlink:href="#DejaVuSans-31"/>
     <use xlink:href="#DejaVuSans-2e" x="63.623047"/>
     <use xlink:href="#DejaVuSans-33" x="95.410156"/>
     <use xlink:href="#DejaVuSans-65" x="159.033203"/>
     <use xlink:href="#DejaVuSans-2b" x="220.556641"/>
     <use xlink:href="#DejaVuSans-30" x="304.345703"/>
     <use xlink:href="#DejaVuSans-33" x="367.96875"/>
    </g>
   </g>
   <g id="text_19">
    <g id="patch_13">
     <path d="M 63.655611 158.393353 
L 108.816548 158.393353 
L 108.816548 146.715228 
L 63.655611 146.715228 
z
" style="fill: #ffffff; opacity: 0.75"/>
    </g>
    <!-- 3.7e+02 -->
    <g transform="translate(64.655611 155.313666)scale(0.1 -0.1)">
     <defs>
      <path id="DejaVuSans-37" d="M 525 4666 
L 3525 4666 
L 3525 4397 
L 1831 0 
L 1172 0 
L 2766 4134 
L 525 4134 
L 525 4666 
z
" transform="scale(0.015625)"/>
     </defs>
     <use xlink:href="#DejaVuSans-33"/>
     <use xlink:href="#DejaVuSans-2e" x="63.623047"/>
     <use xlink:href="#DejaVuSans-37" x="95.410156"/>
     <use xlink:href="#DejaVuSans-65" x="159.033203"/>
     <use xlink:href="#DejaVuSans-2b" x="220.556641"/>
     <use xlink:href="#DejaVuSans-30" x="304.345703"/>
     <use xlink:href="#DejaVuSans-32" x="367.96875"/>
    </g>
   </g>
   <g id="text_20">
    <g id="patch_14">
     <path d="M 100.130469 152.411148 
L 135.750781 152.411148 
L 135.750781 140.733023 
L 100.130469 140.733023 
z
" style="fill: #ffffff; opacity: 0.75"/>
    </g>
    <!-- 3e+03 -->
    <g transform="translate(101.130469 149.331461)scale(0.1 -0.1)">
     <use xlink:href="#DejaVuSans-33"/>
     <use xlink:href="#DejaVuSans-65" x="63.623047"/>
     <use xlink:href="#DejaVuSans-2b" x="125.146484"/>
     <use xlink:href="#DejaVuSans-30" x="208.935547"/>
     <use xlink:href="#DejaVuSans-33" x="272.558594"/>
    </g>
   </g>
   <g id="text_21">
    <g id="patch_15">
     <path d="M 127.064702 156.255803 
L 172.225639 156.255803 
L 172.225639 144.577678 
L 127.064702 144.577678 
z
" style="fill: #ffffff; opacity: 0.75"/>
    </g>
    <!-- 1.3e+03 -->
    <g transform="translate(128.064702 153.176116)scale(0.1 -0.1)">
     <use xlink:href="#DejaVuSans-31"/>
     <use xlink:href="#DejaVuSans-2e" x="63.623047"/>
     <use xlink:href="#DejaVuSans-33" x="95.410156"/>
     <use xlink:href="#DejaVuSans-65" x="159.033203"/>
     <use xlink:href="#DejaVuSans-2b" x="220.556641"/>
     <use xlink:href="#DejaVuSans-30" x="304.345703"/>
     <use xlink:href="#DejaVuSans-33" x="367.96875"/>
    </g>
   </g>
   <g id="text_22">
    <g id="patch_16">
     <path d="M 158.769247 100.878998 
L 203.930185 100.878998 
L 203.930185 89.200873 
L 158.769247 89.200873 
z
" style="fill: #ffffff; opacity: 0.75"/>
    </g>
    <!-- 2.6e+04 -->
    <g transform="translate(159.769247 97.79931)scale(0.1 -0.1)">
     <use xlink:href="#DejaVuSans-32"/>
     <use xlink:href="#DejaVuSans-2e" x="63.623047"/>
     <use xlink:href="#DejaVuSans-36" x="95.410156"/>
     <use xlink:href="#DejaVuSans-65" x="159.033203"/>
     <use xlink:href="#DejaVuSans-2b" x="220.556641"/>
     <use xlink:href="#DejaVuSans-30" x="304.345703"/>
     <use xlink:href="#DejaVuSans-34" x="367.96875"/>
    </g>
   </g>
   <g id="text_23">
    <!-- 4 dpi -->
    <g transform="translate(102.93125 16.318125)scale(0.12 -0.12)">
     <defs>
      <path id="DejaVuSans-69" d="M 603 3500 
L 1178 3500 
L 1178 0 
L 603 0 
L 603 3500 
z
M 603 4863 
L 1178 4863 
L 1178 4134 
L 603 4134 
L 603 4863 
z
" transform="scale(0.015625)"/>
     </defs>
     <use xlink:href="#DejaVuSans-34"/>
     <use xlink:href="#DejaVuSans-20" x="63.623047"/>
     <use xlink:href="#DejaVuSans-64" x="95.410156"/>
     <use xlink:href="#DejaVuSans-70" x="158.886719"/>
     <use xlink:href="#DejaVuSans-69" x="222.363281"/>
    </g>
   </g>
  </g>
 </g>
 <defs>
  <clipPath id="p391aa87145">
   <rect x="34.240625" y="22.318125" width="167.4" height="135.9"/>
  </clipPath>
 </defs>
</svg>
