<?xml version="1.0" encoding="utf-8" standalone="no"?>
<!DOCTYPE svg PUBLIC "-//W3C//DTD SVG 1.1//EN"
  "http://www.w3.org/Graphics/SVG/1.1/DTD/svg11.dtd">
<svg xmlns:xlink="http://www.w3.org/1999/xlink" width="221.70206pt" height="207.250313pt" viewBox="0 0 221.70206 207.250313" xmlns="http://www.w3.org/2000/svg" version="1.1">
 <metadata>
  <rdf:RDF xmlns:dc="http://purl.org/dc/elements/1.1/" xmlns:cc="http://creativecommons.org/ns#" xmlns:rdf="http://www.w3.org/1999/02/22-rdf-syntax-ns#">
   <cc:Work>
    <dc:type rdf:resource="http://purl.org/dc/dcmitype/StillImage"/>
    <dc:date>2025-01-25T16:19:22.297388</dc:date>
    <dc:format>image/svg+xml</dc:format>
    <dc:creator>
     <cc:Agent>
      <dc:title>Matplotlib v3.5.2, https://matplotlib.org/</dc:title>
     </cc:Agent>
    </dc:creator>
   </cc:Work>
  </rdf:RDF>
 </metadata>
 <defs>
  <style type="text/css">*{stroke-linejoin: round; stroke-linecap: butt}</style>
 </defs>
 <g id="figure_1">
  <g id="patch_1">
   <path d="M 0 207.250313 
L 221.70206 207.250313 
L 221.70206 0 
L 0 0 
L 0 207.250313 
z
" style="fill: none"/>
  </g>
  <g id="axes_1">
   <g id="patch_2">
    <path d="M 46.965625 158.218125 
L 214.365625 158.218125 
L 214.365625 22.318125 
L 46.965625 22.318125 
z
" style="fill: #ffffff"/>
   </g>
   <g id="patch_3">
    <path d="M 54.574716 158.218125 
L 79.938352 158.218125 
L 79.938352 135.604344 
L 54.574716 135.604344 
z
" clip-path="url(#p696ce27251)" style="fill: #808080; opacity: 0.3"/>
   </g>
   <g id="patch_4">
    <path d="M 86.279261 158.218125 
L 111.642898 158.218125 
L 111.642898 148.9535 
L 86.279261 148.9535 
z
" clip-path="url(#p696ce27251)" style="fill: #e98966; opacity: 0.3"/>
   </g>
   <g id="patch_5">
    <path d="M 117.983807 158.218125 
L 143.347443 158.218125 
L 143.347443 125.409801 
L 117.983807 125.409801 
z
" clip-path="url(#p696ce27251)" style="fill: #107070; opacity: 0.3"/>
   </g>
   <g id="patch_6">
    <path d="M 149.688352 158.218125 
L 175.051989 158.218125 
L 175.051989 135.621247 
L 149.688352 135.621247 
z
" clip-path="url(#p696ce27251)" style="fill: #c32d4b; opacity: 0.3"/>
   </g>
   <g id="patch_7">
    <path d="M 181.392898 158.218125 
L 206.756534 158.218125 
L 206.756534 81.399869 
L 181.392898 81.399869 
z
" clip-path="url(#p696ce27251)" style="fill: #3a90e3; opacity: 0.3"/>
   </g>
   <g id="matplotlib.axis_1">
    <g id="xtick_1">
     <g id="line2d_1">
      <defs>
       <path id="m5fccdc8f4f" d="M 0 0 
L 0 3.5 
" style="stroke: #000000; stroke-width: 0.8"/>
      </defs>
      <g>
       <use xlink:href="#m5fccdc8f4f" x="67.256534" y="158.218125" style="stroke: #000000; stroke-width: 0.8"/>
      </g>
     </g>
     <g id="text_1">
      <!-- Ctrl-puro -->
      <g transform="translate(45.211222 172.816563)scale(0.1 -0.1)">
       <defs>
        <path id="DejaVuSans-43" d="M 4122 4306 
L 4122 3641 
Q 3803 3938 3442 4084 
Q 3081 4231 2675 4231 
Q 1875 4231 1450 3742 
Q 1025 3253 1025 2328 
Q 1025 1406 1450 917 
Q 1875 428 2675 428 
Q 3081 428 3442 575 
Q 3803 722 4122 1019 
L 4122 359 
Q 3791 134 3420 21 
Q 3050 -91 2638 -91 
Q 1578 -91 968 557 
Q 359 1206 359 2328 
Q 359 3453 968 4101 
Q 1578 4750 2638 4750 
Q 3056 4750 3426 4639 
Q 3797 4528 4122 4306 
z
" transform="scale(0.015625)"/>
        <path id="DejaVuSans-74" d="M 1172 4494 
L 1172 3500 
L 2356 3500 
L 2356 3053 
L 1172 3053 
L 1172 1153 
Q 1172 725 1289 603 
Q 1406 481 1766 481 
L 2356 481 
L 2356 0 
L 1766 0 
Q 1100 0 847 248 
Q 594 497 594 1153 
L 594 3053 
L 172 3053 
L 172 3500 
L 594 3500 
L 594 4494 
L 1172 4494 
z
" transform="scale(0.015625)"/>
        <path id="DejaVuSans-72" d="M 2631 2963 
Q 2534 3019 2420 3045 
Q 2306 3072 2169 3072 
Q 1681 3072 1420 2755 
Q 1159 2438 1159 1844 
L 1159 0 
L 581 0 
L 581 3500 
L 1159 3500 
L 1159 2956 
Q 1341 3275 1631 3429 
Q 1922 3584 2338 3584 
Q 2397 3584 2469 3576 
Q 2541 3569 2628 3553 
L 2631 2963 
z
" transform="scale(0.015625)"/>
        <path id="DejaVuSans-6c" d="M 603 4863 
L 1178 4863 
L 1178 0 
L 603 0 
L 603 4863 
z
" transform="scale(0.015625)"/>
        <path id="DejaVuSans-2d" d="M 313 2009 
L 1997 2009 
L 1997 1497 
L 313 1497 
L 313 2009 
z
" transform="scale(0.015625)"/>
        <path id="DejaVuSans-70" d="M 1159 525 
L 1159 -1331 
L 581 -1331 
L 581 3500 
L 1159 3500 
L 1159 2969 
Q 1341 3281 1617 3432 
Q 1894 3584 2278 3584 
Q 2916 3584 3314 3078 
Q 3713 2572 3713 1747 
Q 3713 922 3314 415 
Q 2916 -91 2278 -91 
Q 1894 -91 1617 61 
Q 1341 213 1159 525 
z
M 3116 1747 
Q 3116 2381 2855 2742 
Q 2594 3103 2138 3103 
Q 1681 3103 1420 2742 
Q 1159 2381 1159 1747 
Q 1159 1113 1420 752 
Q 1681 391 2138 391 
Q 2594 391 2855 752 
Q 3116 1113 3116 1747 
z
" transform="scale(0.015625)"/>
        <path id="DejaVuSans-75" d="M 544 1381 
L 544 3500 
L 1119 3500 
L 1119 1403 
Q 1119 906 1312 657 
Q 1506 409 1894 409 
Q 2359 409 2629 706 
Q 2900 1003 2900 1516 
L 2900 3500 
L 3475 3500 
L 3475 0 
L 2900 0 
L 2900 538 
Q 2691 219 2414 64 
Q 2138 -91 1772 -91 
Q 1169 -91 856 284 
Q 544 659 544 1381 
z
M 1991 3584 
L 1991 3584 
z
" transform="scale(0.015625)"/>
        <path id="DejaVuSans-6f" d="M 1959 3097 
Q 1497 3097 1228 2736 
Q 959 2375 959 1747 
Q 959 1119 1226 758 
Q 1494 397 1959 397 
Q 2419 397 2687 759 
Q 2956 1122 2956 1747 
Q 2956 2369 2687 2733 
Q 2419 3097 1959 3097 
z
M 1959 3584 
Q 2709 3584 3137 3096 
Q 3566 2609 3566 1747 
Q 3566 888 3137 398 
Q 2709 -91 1959 -91 
Q 1206 -91 779 398 
Q 353 888 353 1747 
Q 353 2609 779 3096 
Q 1206 3584 1959 3584 
z
" transform="scale(0.015625)"/>
       </defs>
       <use xlink:href="#DejaVuSans-43"/>
       <use xlink:href="#DejaVuSans-74" x="69.824219"/>
       <use xlink:href="#DejaVuSans-72" x="109.033203"/>
       <use xlink:href="#DejaVuSans-6c" x="150.146484"/>
       <use xlink:href="#DejaVuSans-2d" x="177.929688"/>
       <use xlink:href="#DejaVuSans-70" x="214.013672"/>
       <use xlink:href="#DejaVuSans-75" x="277.490234"/>
       <use xlink:href="#DejaVuSans-72" x="340.869141"/>
       <use xlink:href="#DejaVuSans-6f" x="379.732422"/>
      </g>
     </g>
    </g>
    <g id="xtick_2">
     <g id="line2d_2">
      <g>
       <use xlink:href="#m5fccdc8f4f" x="98.96108" y="158.218125" style="stroke: #000000; stroke-width: 0.8"/>
      </g>
     </g>
     <g id="text_2">
      <!-- 6F -->
      <g transform="translate(92.904048 172.816563)scale(0.1 -0.1)">
       <defs>
        <path id="DejaVuSans-36" d="M 2113 2584 
Q 1688 2584 1439 2293 
Q 1191 2003 1191 1497 
Q 1191 994 1439 701 
Q 1688 409 2113 409 
Q 2538 409 2786 701 
Q 3034 994 3034 1497 
Q 3034 2003 2786 2293 
Q 2538 2584 2113 2584 
z
M 3366 4563 
L 3366 3988 
Q 3128 4100 2886 4159 
Q 2644 4219 2406 4219 
Q 1781 4219 1451 3797 
Q 1122 3375 1075 2522 
Q 1259 2794 1537 2939 
Q 1816 3084 2150 3084 
Q 2853 3084 3261 2657 
Q 3669 2231 3669 1497 
Q 3669 778 3244 343 
Q 2819 -91 2113 -91 
Q 1303 -91 875 529 
Q 447 1150 447 2328 
Q 447 3434 972 4092 
Q 1497 4750 2381 4750 
Q 2619 4750 2861 4703 
Q 3103 4656 3366 4563 
z
" transform="scale(0.015625)"/>
        <path id="DejaVuSans-46" d="M 628 4666 
L 3309 4666 
L 3309 4134 
L 1259 4134 
L 1259 2759 
L 3109 2759 
L 3109 2228 
L 1259 2228 
L 1259 0 
L 628 0 
L 628 4666 
z
" transform="scale(0.015625)"/>
       </defs>
       <use xlink:href="#DejaVuSans-36"/>
       <use xlink:href="#DejaVuSans-46" x="63.623047"/>
      </g>
     </g>
    </g>
    <g id="xtick_3">
     <g id="line2d_3">
      <g>
       <use xlink:href="#m5fccdc8f4f" x="130.665625" y="158.218125" style="stroke: #000000; stroke-width: 0.8"/>
      </g>
     </g>
     <g id="text_3">
      <!-- 6F -->
      <g transform="translate(124.608594 172.816563)scale(0.1 -0.1)">
       <use xlink:href="#DejaVuSans-36"/>
       <use xlink:href="#DejaVuSans-46" x="63.623047"/>
      </g>
      <!-- + DDRR -->
      <g transform="translate(110.238281 184.014375)scale(0.1 -0.1)">
       <defs>
        <path id="DejaVuSans-2b" d="M 2944 4013 
L 2944 2272 
L 4684 2272 
L 4684 1741 
L 2944 1741 
L 2944 0 
L 2419 0 
L 2419 1741 
L 678 1741 
L 678 2272 
L 2419 2272 
L 2419 4013 
L 2944 4013 
z
" transform="scale(0.015625)"/>
        <path id="DejaVuSans-20" transform="scale(0.015625)"/>
        <path id="DejaVuSans-44" d="M 1259 4147 
L 1259 519 
L 2022 519 
Q 2988 519 3436 956 
Q 3884 1394 3884 2338 
Q 3884 3275 3436 3711 
Q 2988 4147 2022 4147 
L 1259 4147 
z
M 628 4666 
L 1925 4666 
Q 3281 4666 3915 4102 
Q 4550 3538 4550 2338 
Q 4550 1131 3912 565 
Q 3275 0 1925 0 
L 628 0 
L 628 4666 
z
" transform="scale(0.015625)"/>
        <path id="DejaVuSans-52" d="M 2841 2188 
Q 3044 2119 3236 1894 
Q 3428 1669 3622 1275 
L 4263 0 
L 3584 0 
L 2988 1197 
Q 2756 1666 2539 1819 
Q 2322 1972 1947 1972 
L 1259 1972 
L 1259 0 
L 628 0 
L 628 4666 
L 2053 4666 
Q 2853 4666 3247 4331 
Q 3641 3997 3641 3322 
Q 3641 2881 3436 2590 
Q 3231 2300 2841 2188 
z
M 1259 4147 
L 1259 2491 
L 2053 2491 
Q 2509 2491 2742 2702 
Q 2975 2913 2975 3322 
Q 2975 3731 2742 3939 
Q 2509 4147 2053 4147 
L 1259 4147 
z
" transform="scale(0.015625)"/>
       </defs>
       <use xlink:href="#DejaVuSans-2b"/>
       <use xlink:href="#DejaVuSans-20" x="83.789062"/>
       <use xlink:href="#DejaVuSans-44" x="115.576172"/>
       <use xlink:href="#DejaVuSans-44" x="192.578125"/>
       <use xlink:href="#DejaVuSans-52" x="269.580078"/>
       <use xlink:href="#DejaVuSans-52" x="339.0625"/>
      </g>
     </g>
    </g>
    <g id="xtick_4">
     <g id="line2d_4">
      <g>
       <use xlink:href="#m5fccdc8f4f" x="162.37017" y="158.218125" style="stroke: #000000; stroke-width: 0.8"/>
      </g>
     </g>
     <g id="text_4">
      <!-- NIL -->
      <g transform="translate(154.368608 172.816563)scale(0.1 -0.1)">
       <defs>
        <path id="DejaVuSans-4e" d="M 628 4666 
L 1478 4666 
L 3547 763 
L 3547 4666 
L 4159 4666 
L 4159 0 
L 3309 0 
L 1241 3903 
L 1241 0 
L 628 0 
L 628 4666 
z
" transform="scale(0.015625)"/>
        <path id="DejaVuSans-49" d="M 628 4666 
L 1259 4666 
L 1259 0 
L 628 0 
L 628 4666 
z
" transform="scale(0.015625)"/>
        <path id="DejaVuSans-4c" d="M 628 4666 
L 1259 4666 
L 1259 531 
L 3531 531 
L 3531 0 
L 628 0 
L 628 4666 
z
" transform="scale(0.015625)"/>
       </defs>
       <use xlink:href="#DejaVuSans-4e"/>
       <use xlink:href="#DejaVuSans-49" x="74.804688"/>
       <use xlink:href="#DejaVuSans-4c" x="104.296875"/>
      </g>
     </g>
    </g>
    <g id="xtick_5">
     <g id="line2d_5">
      <g>
       <use xlink:href="#m5fccdc8f4f" x="194.074716" y="158.218125" style="stroke: #000000; stroke-width: 0.8"/>
      </g>
     </g>
     <g id="text_5">
      <!-- NIL -->
      <g transform="translate(186.073153 172.816563)scale(0.1 -0.1)">
       <use xlink:href="#DejaVuSans-4e"/>
       <use xlink:href="#DejaVuSans-49" x="74.804688"/>
       <use xlink:href="#DejaVuSans-4c" x="104.296875"/>
      </g>
      <!-- + DDRR -->
      <g transform="translate(173.647372 184.014375)scale(0.1 -0.1)">
       <use xlink:href="#DejaVuSans-2b"/>
       <use xlink:href="#DejaVuSans-20" x="83.789062"/>
       <use xlink:href="#DejaVuSans-44" x="115.576172"/>
       <use xlink:href="#DejaVuSans-44" x="192.578125"/>
       <use xlink:href="#DejaVuSans-52" x="269.580078"/>
       <use xlink:href="#DejaVuSans-52" x="339.0625"/>
      </g>
     </g>
    </g>
    <g id="text_6">
     <!-- cond.DDRR_cat -->
     <g transform="translate(92.003125 197.6925)scale(0.1 -0.1)">
      <defs>
       <path id="DejaVuSans-63" d="M 3122 3366 
L 3122 2828 
Q 2878 2963 2633 3030 
Q 2388 3097 2138 3097 
Q 1578 3097 1268 2742 
Q 959 2388 959 1747 
Q 959 1106 1268 751 
Q 1578 397 2138 397 
Q 2388 397 2633 464 
Q 2878 531 3122 666 
L 3122 134 
Q 2881 22 2623 -34 
Q 2366 -91 2075 -91 
Q 1284 -91 818 406 
Q 353 903 353 1747 
Q 353 2603 823 3093 
Q 1294 3584 2113 3584 
Q 2378 3584 2631 3529 
Q 2884 3475 3122 3366 
z
" transform="scale(0.015625)"/>
       <path id="DejaVuSans-6e" d="M 3513 2113 
L 3513 0 
L 2938 0 
L 2938 2094 
Q 2938 2591 2744 2837 
Q 2550 3084 2163 3084 
Q 1697 3084 1428 2787 
Q 1159 2491 1159 1978 
L 1159 0 
L 581 0 
L 581 3500 
L 1159 3500 
L 1159 2956 
Q 1366 3272 1645 3428 
Q 1925 3584 2291 3584 
Q 2894 3584 3203 3211 
Q 3513 2838 3513 2113 
z
" transform="scale(0.015625)"/>
       <path id="DejaVuSans-64" d="M 2906 2969 
L 2906 4863 
L 3481 4863 
L 3481 0 
L 2906 0 
L 2906 525 
Q 2725 213 2448 61 
Q 2172 -91 1784 -91 
Q 1150 -91 751 415 
Q 353 922 353 1747 
Q 353 2572 751 3078 
Q 1150 3584 1784 3584 
Q 2172 3584 2448 3432 
Q 2725 3281 2906 2969 
z
M 947 1747 
Q 947 1113 1208 752 
Q 1469 391 1925 391 
Q 2381 391 2643 752 
Q 2906 1113 2906 1747 
Q 2906 2381 2643 2742 
Q 2381 3103 1925 3103 
Q 1469 3103 1208 2742 
Q 947 2381 947 1747 
z
" transform="scale(0.015625)"/>
       <path id="DejaVuSans-2e" d="M 684 794 
L 1344 794 
L 1344 0 
L 684 0 
L 684 794 
z
" transform="scale(0.015625)"/>
       <path id="DejaVuSans-5f" d="M 3263 -1063 
L 3263 -1509 
L -63 -1509 
L -63 -1063 
L 3263 -1063 
z
" transform="scale(0.015625)"/>
       <path id="DejaVuSans-61" d="M 2194 1759 
Q 1497 1759 1228 1600 
Q 959 1441 959 1056 
Q 959 750 1161 570 
Q 1363 391 1709 391 
Q 2188 391 2477 730 
Q 2766 1069 2766 1631 
L 2766 1759 
L 2194 1759 
z
M 3341 1997 
L 3341 0 
L 2766 0 
L 2766 531 
Q 2569 213 2275 61 
Q 1981 -91 1556 -91 
Q 1019 -91 701 211 
Q 384 513 384 1019 
Q 384 1609 779 1909 
Q 1175 2209 1959 2209 
L 2766 2209 
L 2766 2266 
Q 2766 2663 2505 2880 
Q 2244 3097 1772 3097 
Q 1472 3097 1187 3025 
Q 903 2953 641 2809 
L 641 3341 
Q 956 3463 1253 3523 
Q 1550 3584 1831 3584 
Q 2591 3584 2966 3190 
Q 3341 2797 3341 1997 
z
" transform="scale(0.015625)"/>
      </defs>
      <use xlink:href="#DejaVuSans-63"/>
      <use xlink:href="#DejaVuSans-6f" x="54.980469"/>
      <use xlink:href="#DejaVuSans-6e" x="116.162109"/>
      <use xlink:href="#DejaVuSans-64" x="179.541016"/>
      <use xlink:href="#DejaVuSans-2e" x="243.017578"/>
      <use xlink:href="#DejaVuSans-44" x="274.804688"/>
      <use xlink:href="#DejaVuSans-44" x="351.806641"/>
      <use xlink:href="#DejaVuSans-52" x="428.808594"/>
      <use xlink:href="#DejaVuSans-52" x="498.291016"/>
      <use xlink:href="#DejaVuSans-5f" x="567.773438"/>
      <use xlink:href="#DejaVuSans-63" x="617.773438"/>
      <use xlink:href="#DejaVuSans-61" x="672.753906"/>
      <use xlink:href="#DejaVuSans-74" x="734.033203"/>
     </g>
    </g>
   </g>
   <g id="matplotlib.axis_2">
    <g id="ytick_1">
     <g id="line2d_6">
      <defs>
       <path id="m3172e1e503" d="M 0 0 
L -3.5 0 
" style="stroke: #000000; stroke-width: 0.8"/>
      </defs>
      <g>
       <use xlink:href="#m3172e1e503" x="46.965625" y="158.218125" style="stroke: #000000; stroke-width: 0.8"/>
      </g>
     </g>
     <g id="text_7">
      <!-- 0 -->
      <g transform="translate(33.603125 162.017344)scale(0.1 -0.1)">
       <defs>
        <path id="DejaVuSans-30" d="M 2034 4250 
Q 1547 4250 1301 3770 
Q 1056 3291 1056 2328 
Q 1056 1369 1301 889 
Q 1547 409 2034 409 
Q 2525 409 2770 889 
Q 3016 1369 3016 2328 
Q 3016 3291 2770 3770 
Q 2525 4250 2034 4250 
z
M 2034 4750 
Q 2819 4750 3233 4129 
Q 3647 3509 3647 2328 
Q 3647 1150 3233 529 
Q 2819 -91 2034 -91 
Q 1250 -91 836 529 
Q 422 1150 422 2328 
Q 422 3509 836 4129 
Q 1250 4750 2034 4750 
z
" transform="scale(0.015625)"/>
       </defs>
       <use xlink:href="#DejaVuSans-30"/>
      </g>
     </g>
    </g>
    <g id="ytick_2">
     <g id="line2d_7">
      <g>
       <use xlink:href="#m3172e1e503" x="46.965625" y="135.568125" style="stroke: #000000; stroke-width: 0.8"/>
      </g>
     </g>
     <g id="text_8">
      <!-- 20 -->
      <g transform="translate(27.240625 139.367344)scale(0.1 -0.1)">
       <defs>
        <path id="DejaVuSans-32" d="M 1228 531 
L 3431 531 
L 3431 0 
L 469 0 
L 469 531 
Q 828 903 1448 1529 
Q 2069 2156 2228 2338 
Q 2531 2678 2651 2914 
Q 2772 3150 2772 3378 
Q 2772 3750 2511 3984 
Q 2250 4219 1831 4219 
Q 1534 4219 1204 4116 
Q 875 4013 500 3803 
L 500 4441 
Q 881 4594 1212 4672 
Q 1544 4750 1819 4750 
Q 2544 4750 2975 4387 
Q 3406 4025 3406 3419 
Q 3406 3131 3298 2873 
Q 3191 2616 2906 2266 
Q 2828 2175 2409 1742 
Q 1991 1309 1228 531 
z
" transform="scale(0.015625)"/>
       </defs>
       <use xlink:href="#DejaVuSans-32"/>
       <use xlink:href="#DejaVuSans-30" x="63.623047"/>
      </g>
     </g>
    </g>
    <g id="ytick_3">
     <g id="line2d_8">
      <g>
       <use xlink:href="#m3172e1e503" x="46.965625" y="112.918125" style="stroke: #000000; stroke-width: 0.8"/>
      </g>
     </g>
     <g id="text_9">
      <!-- 40 -->
      <g transform="translate(27.240625 116.717344)scale(0.1 -0.1)">
       <defs>
        <path id="DejaVuSans-34" d="M 2419 4116 
L 825 1625 
L 2419 1625 
L 2419 4116 
z
M 2253 4666 
L 3047 4666 
L 3047 1625 
L 3713 1625 
L 3713 1100 
L 3047 1100 
L 3047 0 
L 2419 0 
L 2419 1100 
L 313 1100 
L 313 1709 
L 2253 4666 
z
" transform="scale(0.015625)"/>
       </defs>
       <use xlink:href="#DejaVuSans-34"/>
       <use xlink:href="#DejaVuSans-30" x="63.623047"/>
      </g>
     </g>
    </g>
    <g id="ytick_4">
     <g id="line2d_9">
      <g>
       <use xlink:href="#m3172e1e503" x="46.965625" y="90.268125" style="stroke: #000000; stroke-width: 0.8"/>
      </g>
     </g>
     <g id="text_10">
      <!-- 60 -->
      <g transform="translate(27.240625 94.067344)scale(0.1 -0.1)">
       <use xlink:href="#DejaVuSans-36"/>
       <use xlink:href="#DejaVuSans-30" x="63.623047"/>
      </g>
     </g>
    </g>
    <g id="ytick_5">
     <g id="line2d_10">
      <g>
       <use xlink:href="#m3172e1e503" x="46.965625" y="67.618125" style="stroke: #000000; stroke-width: 0.8"/>
      </g>
     </g>
     <g id="text_11">
      <!-- 80 -->
      <g transform="translate(27.240625 71.417344)scale(0.1 -0.1)">
       <defs>
        <path id="DejaVuSans-38" d="M 2034 2216 
Q 1584 2216 1326 1975 
Q 1069 1734 1069 1313 
Q 1069 891 1326 650 
Q 1584 409 2034 409 
Q 2484 409 2743 651 
Q 3003 894 3003 1313 
Q 3003 1734 2745 1975 
Q 2488 2216 2034 2216 
z
M 1403 2484 
Q 997 2584 770 2862 
Q 544 3141 544 3541 
Q 544 4100 942 4425 
Q 1341 4750 2034 4750 
Q 2731 4750 3128 4425 
Q 3525 4100 3525 3541 
Q 3525 3141 3298 2862 
Q 3072 2584 2669 2484 
Q 3125 2378 3379 2068 
Q 3634 1759 3634 1313 
Q 3634 634 3220 271 
Q 2806 -91 2034 -91 
Q 1263 -91 848 271 
Q 434 634 434 1313 
Q 434 1759 690 2068 
Q 947 2378 1403 2484 
z
M 1172 3481 
Q 1172 3119 1398 2916 
Q 1625 2713 2034 2713 
Q 2441 2713 2670 2916 
Q 2900 3119 2900 3481 
Q 2900 3844 2670 4047 
Q 2441 4250 2034 4250 
Q 1625 4250 1398 4047 
Q 1172 3844 1172 3481 
z
" transform="scale(0.015625)"/>
       </defs>
       <use xlink:href="#DejaVuSans-38"/>
       <use xlink:href="#DejaVuSans-30" x="63.623047"/>
      </g>
     </g>
    </g>
    <g id="ytick_6">
     <g id="line2d_11">
      <g>
       <use xlink:href="#m3172e1e503" x="46.965625" y="44.968125" style="stroke: #000000; stroke-width: 0.8"/>
      </g>
     </g>
     <g id="text_12">
      <!-- 100 -->
      <g transform="translate(20.878125 48.767344)scale(0.1 -0.1)">
       <defs>
        <path id="DejaVuSans-31" d="M 794 531 
L 1825 531 
L 1825 4091 
L 703 3866 
L 703 4441 
L 1819 4666 
L 2450 4666 
L 2450 531 
L 3481 531 
L 3481 0 
L 794 0 
L 794 531 
z
" transform="scale(0.015625)"/>
       </defs>
       <use xlink:href="#DejaVuSans-31"/>
       <use xlink:href="#DejaVuSans-30" x="63.623047"/>
       <use xlink:href="#DejaVuSans-30" x="127.246094"/>
      </g>
     </g>
    </g>
    <g id="ytick_7">
     <g id="line2d_12">
      <g>
       <use xlink:href="#m3172e1e503" x="46.965625" y="22.318125" style="stroke: #000000; stroke-width: 0.8"/>
      </g>
     </g>
     <g id="text_13">
      <!-- 120 -->
      <g transform="translate(20.878125 26.117344)scale(0.1 -0.1)">
       <use xlink:href="#DejaVuSans-31"/>
       <use xlink:href="#DejaVuSans-32" x="63.623047"/>
       <use xlink:href="#DejaVuSans-30" x="127.246094"/>
      </g>
     </g>
    </g>
    <g id="text_14">
     <!-- (%) HyperP -->
     <g transform="translate(14.798437 118.550156)rotate(-90)scale(0.1 -0.1)">
      <defs>
       <path id="DejaVuSans-28" d="M 1984 4856 
Q 1566 4138 1362 3434 
Q 1159 2731 1159 2009 
Q 1159 1288 1364 580 
Q 1569 -128 1984 -844 
L 1484 -844 
Q 1016 -109 783 600 
Q 550 1309 550 2009 
Q 550 2706 781 3412 
Q 1013 4119 1484 4856 
L 1984 4856 
z
" transform="scale(0.015625)"/>
       <path id="DejaVuSans-25" d="M 4653 2053 
Q 4381 2053 4226 1822 
Q 4072 1591 4072 1178 
Q 4072 772 4226 539 
Q 4381 306 4653 306 
Q 4919 306 5073 539 
Q 5228 772 5228 1178 
Q 5228 1588 5073 1820 
Q 4919 2053 4653 2053 
z
M 4653 2450 
Q 5147 2450 5437 2106 
Q 5728 1763 5728 1178 
Q 5728 594 5436 251 
Q 5144 -91 4653 -91 
Q 4153 -91 3862 251 
Q 3572 594 3572 1178 
Q 3572 1766 3864 2108 
Q 4156 2450 4653 2450 
z
M 1428 4353 
Q 1159 4353 1004 4120 
Q 850 3888 850 3481 
Q 850 3069 1003 2837 
Q 1156 2606 1428 2606 
Q 1700 2606 1854 2837 
Q 2009 3069 2009 3481 
Q 2009 3884 1853 4118 
Q 1697 4353 1428 4353 
z
M 4250 4750 
L 4750 4750 
L 1831 -91 
L 1331 -91 
L 4250 4750 
z
M 1428 4750 
Q 1922 4750 2215 4408 
Q 2509 4066 2509 3481 
Q 2509 2891 2217 2550 
Q 1925 2209 1428 2209 
Q 931 2209 642 2551 
Q 353 2894 353 3481 
Q 353 4063 643 4406 
Q 934 4750 1428 4750 
z
" transform="scale(0.015625)"/>
       <path id="DejaVuSans-29" d="M 513 4856 
L 1013 4856 
Q 1481 4119 1714 3412 
Q 1947 2706 1947 2009 
Q 1947 1309 1714 600 
Q 1481 -109 1013 -844 
L 513 -844 
Q 928 -128 1133 580 
Q 1338 1288 1338 2009 
Q 1338 2731 1133 3434 
Q 928 4138 513 4856 
z
" transform="scale(0.015625)"/>
       <path id="DejaVuSans-48" d="M 628 4666 
L 1259 4666 
L 1259 2753 
L 3553 2753 
L 3553 4666 
L 4184 4666 
L 4184 0 
L 3553 0 
L 3553 2222 
L 1259 2222 
L 1259 0 
L 628 0 
L 628 4666 
z
" transform="scale(0.015625)"/>
       <path id="DejaVuSans-79" d="M 2059 -325 
Q 1816 -950 1584 -1140 
Q 1353 -1331 966 -1331 
L 506 -1331 
L 506 -850 
L 844 -850 
Q 1081 -850 1212 -737 
Q 1344 -625 1503 -206 
L 1606 56 
L 191 3500 
L 800 3500 
L 1894 763 
L 2988 3500 
L 3597 3500 
L 2059 -325 
z
" transform="scale(0.015625)"/>
       <path id="DejaVuSans-65" d="M 3597 1894 
L 3597 1613 
L 953 1613 
Q 991 1019 1311 708 
Q 1631 397 2203 397 
Q 2534 397 2845 478 
Q 3156 559 3463 722 
L 3463 178 
Q 3153 47 2828 -22 
Q 2503 -91 2169 -91 
Q 1331 -91 842 396 
Q 353 884 353 1716 
Q 353 2575 817 3079 
Q 1281 3584 2069 3584 
Q 2775 3584 3186 3129 
Q 3597 2675 3597 1894 
z
M 3022 2063 
Q 3016 2534 2758 2815 
Q 2500 3097 2075 3097 
Q 1594 3097 1305 2825 
Q 1016 2553 972 2059 
L 3022 2063 
z
" transform="scale(0.015625)"/>
       <path id="DejaVuSans-50" d="M 1259 4147 
L 1259 2394 
L 2053 2394 
Q 2494 2394 2734 2622 
Q 2975 2850 2975 3272 
Q 2975 3691 2734 3919 
Q 2494 4147 2053 4147 
L 1259 4147 
z
M 628 4666 
L 2053 4666 
Q 2838 4666 3239 4311 
Q 3641 3956 3641 3272 
Q 3641 2581 3239 2228 
Q 2838 1875 2053 1875 
L 1259 1875 
L 1259 0 
L 628 0 
L 628 4666 
z
" transform="scale(0.015625)"/>
      </defs>
      <use xlink:href="#DejaVuSans-28"/>
      <use xlink:href="#DejaVuSans-25" x="39.013672"/>
      <use xlink:href="#DejaVuSans-29" x="134.033203"/>
      <use xlink:href="#DejaVuSans-20" x="173.046875"/>
      <use xlink:href="#DejaVuSans-48" x="204.833984"/>
      <use xlink:href="#DejaVuSans-79" x="280.029297"/>
      <use xlink:href="#DejaVuSans-70" x="339.208984"/>
      <use xlink:href="#DejaVuSans-65" x="402.685547"/>
      <use xlink:href="#DejaVuSans-72" x="464.208984"/>
      <use xlink:href="#DejaVuSans-50" x="505.322266"/>
     </g>
    </g>
   </g>
   <g id="line2d_13">
    <path d="M 67.256534 137.066899 
L 67.256534 134.258889 
" clip-path="url(#p696ce27251)" style="fill: none; stroke: #424242; stroke-width: 2.7; stroke-linecap: square"/>
   </g>
   <g id="line2d_14">
    <path d="M 98.96108 151.005689 
L 98.96108 146.903228 
" clip-path="url(#p696ce27251)" style="fill: none; stroke: #424242; stroke-width: 2.7; stroke-linecap: square"/>
   </g>
   <g id="line2d_15">
    <path d="M 130.665625 128.574728 
L 130.665625 122.621082 
" clip-path="url(#p696ce27251)" style="fill: none; stroke: #424242; stroke-width: 2.7; stroke-linecap: square"/>
   </g>
   <g id="line2d_16">
    <path d="M 162.37017 138.725555 
L 162.37017 131.256074 
" clip-path="url(#p696ce27251)" style="fill: none; stroke: #424242; stroke-width: 2.7; stroke-linecap: square"/>
   </g>
   <g id="line2d_17">
    <path d="M 194.074716 86.459155 
L 194.074716 76.611046 
" clip-path="url(#p696ce27251)" style="fill: none; stroke: #424242; stroke-width: 2.7; stroke-linecap: square"/>
   </g>
   <g id="line2d_18">
    <path d="M 162.37017 62.71416 
L 162.37017 60.827441 
L 194.074716 60.827441 
L 194.074716 62.71416 
" clip-path="url(#p696ce27251)" style="fill: none; stroke: #333333; stroke-width: 1.5; stroke-linecap: square"/>
   </g>
   <g id="line2d_19">
    <path d="M 98.96108 111.967471 
L 98.96108 110.080751 
L 130.665625 110.080751 
L 130.665625 111.967471 
" clip-path="url(#p696ce27251)" style="fill: none; stroke: #333333; stroke-width: 1.5; stroke-linecap: square"/>
   </g>
   <g id="line2d_20">
    <path d="M 130.665625 45.555977 
L 130.665625 43.669257 
L 194.074716 43.669257 
L 194.074716 45.555977 
" clip-path="url(#p696ce27251)" style="fill: none; stroke: #333333; stroke-width: 1.5; stroke-linecap: square"/>
   </g>
   <g id="line2d_21">
    <path d="M 67.256534 102.456432 
L 67.256534 99.914992 
L 98.96108 99.914992 
L 98.96108 102.456432 
" clip-path="url(#p696ce27251)" style="fill: none; stroke: #333333; stroke-width: 1.5; stroke-linecap: square"/>
   </g>
   <g id="line2d_22">
    <path d="M 67.256534 53.203122 
L 67.256534 50.661682 
L 162.37017 50.661682 
L 162.37017 53.203122 
" clip-path="url(#p696ce27251)" style="fill: none; stroke: #333333; stroke-width: 1.5; stroke-linecap: square"/>
   </g>
   <g id="patch_8">
    <path d="M 46.965625 158.218125 
L 46.965625 22.318125 
" style="fill: none; stroke: #000000; stroke-width: 0.8; stroke-linejoin: miter; stroke-linecap: square"/>
   </g>
   <g id="patch_9">
    <path d="M 214.365625 158.218125 
L 214.365625 22.318125 
" style="fill: none; stroke: #000000; stroke-width: 0.8; stroke-linejoin: miter; stroke-linecap: square"/>
   </g>
   <g id="patch_10">
    <path d="M 46.965625 158.218125 
L 214.365625 158.218125 
" style="fill: none; stroke: #000000; stroke-width: 0.8; stroke-linejoin: miter; stroke-linecap: square"/>
   </g>
   <g id="patch_11">
    <path d="M 46.965625 22.318125 
L 214.365625 22.318125 
" style="fill: none; stroke: #000000; stroke-width: 0.8; stroke-linejoin: miter; stroke-linecap: square"/>
   </g>
   <g id="PathCollection_1">
    <defs>
     <path id="C0_0_d4ae729eef" d="M 0 2.5 
C 0.663008 2.5 1.29895 2.236584 1.767767 1.767767 
C 2.236584 1.29895 2.5 0.663008 2.5 -0 
C 2.5 -0.663008 2.236584 -1.29895 1.767767 -1.767767 
C 1.29895 -2.236584 0.663008 -2.5 0 -2.5 
C -0.663008 -2.5 -1.29895 -2.236584 -1.767767 -1.767767 
C -2.236584 -1.29895 -2.5 -0.663008 -2.5 0 
C -2.5 0.663008 -2.236584 1.29895 -1.767767 1.767767 
C -1.29895 2.236584 -0.663008 2.5 0 2.5 
z
"/>
    </defs>
    <g clip-path="url(#p696ce27251)">
     <use xlink:href="#C0_0_d4ae729eef" x="66.498457" y="137.429769" style="fill: #ffffff; stroke: #000000; stroke-width: 0.4"/>
    </g>
    <g clip-path="url(#p696ce27251)">
     <use xlink:href="#C0_0_d4ae729eef" x="68.197997" y="134.681032" style="fill: #ffffff; stroke: #000000; stroke-width: 0.4"/>
    </g>
    <g clip-path="url(#p696ce27251)">
     <use xlink:href="#C0_0_d4ae729eef" x="65.534307" y="135.524577" style="fill: #ffffff; stroke: #000000; stroke-width: 0.4"/>
    </g>
    <g clip-path="url(#p696ce27251)">
     <use xlink:href="#C0_0_d4ae729eef" x="65.826486" y="134.308525" style="fill: #ffffff; stroke: #000000; stroke-width: 0.4"/>
    </g>
   </g>
   <g id="PathCollection_2">
    <defs>
     <path id="C1_0_0affa47d34" d="M 0 2.5 
C 0.663008 2.5 1.29895 2.236584 1.767767 1.767767 
C 2.236584 1.29895 2.5 0.663008 2.5 -0 
C 2.5 -0.663008 2.236584 -1.29895 1.767767 -1.767767 
C 1.29895 -2.236584 0.663008 -2.5 0 -2.5 
C -0.663008 -2.5 -1.29895 -2.236584 -1.767767 -1.767767 
C -2.236584 -1.29895 -2.5 -0.663008 -2.5 0 
C -2.5 0.663008 -2.236584 1.29895 -1.767767 1.767767 
C -1.29895 2.236584 -0.663008 2.5 0 2.5 
z
"/>
    </defs>
    <g clip-path="url(#p696ce27251)">
     <use xlink:href="#C1_0_0affa47d34" x="101.957166" y="152.718521" style="fill: #ffffff; stroke: #000000; stroke-width: 0.4"/>
    </g>
    <g clip-path="url(#p696ce27251)">
     <use xlink:href="#C1_0_0affa47d34" x="97.711419" y="148.717286" style="fill: #ffffff; stroke: #000000; stroke-width: 0.4"/>
    </g>
    <g clip-path="url(#p696ce27251)">
     <use xlink:href="#C1_0_0affa47d34" x="99.261427" y="148.87636" style="fill: #ffffff; stroke: #000000; stroke-width: 0.4"/>
    </g>
    <g clip-path="url(#p696ce27251)">
     <use xlink:href="#C1_0_0affa47d34" x="99.342504" y="152.702855" style="fill: #ffffff; stroke: #000000; stroke-width: 0.4"/>
    </g>
   </g>
   <g id="PathCollection_3">
    <defs>
     <path id="C2_0_5cd8901db2" d="M 0 2.5 
C 0.663008 2.5 1.29895 2.236584 1.767767 1.767767 
C 2.236584 1.29895 2.5 0.663008 2.5 -0 
C 2.5 -0.663008 2.236584 -1.29895 1.767767 -1.767767 
C 1.29895 -2.236584 0.663008 -2.5 0 -2.5 
C -0.663008 -2.5 -1.29895 -2.236584 -1.767767 -1.767767 
C -2.236584 -1.29895 -2.5 -0.663008 -2.5 0 
C -2.5 0.663008 -2.236584 1.29895 -1.767767 1.767767 
C -1.29895 2.236584 -0.663008 2.5 0 2.5 
z
"/>
    </defs>
    <g clip-path="url(#p696ce27251)">
     <use xlink:href="#C2_0_5cd8901db2" x="130.473961" y="117.627631" style="fill: #ffffff; stroke: #000000; stroke-width: 0.4"/>
    </g>
    <g clip-path="url(#p696ce27251)">
     <use xlink:href="#C2_0_5cd8901db2" x="128.842106" y="118.512848" style="fill: #ffffff; stroke: #000000; stroke-width: 0.4"/>
    </g>
    <g clip-path="url(#p696ce27251)">
     <use xlink:href="#C2_0_5cd8901db2" x="130.587946" y="123.628759" style="fill: #ffffff; stroke: #000000; stroke-width: 0.4"/>
    </g>
    <g clip-path="url(#p696ce27251)">
     <use xlink:href="#C2_0_5cd8901db2" x="129.434654" y="129.231045" style="fill: #ffffff; stroke: #000000; stroke-width: 0.4"/>
    </g>
   </g>
   <g id="PathCollection_4">
    <defs>
     <path id="C3_0_077465cdec" d="M 0 2.5 
C 0.663008 2.5 1.29895 2.236584 1.767767 1.767767 
C 2.236584 1.29895 2.5 0.663008 2.5 -0 
C 2.5 -0.663008 2.236584 -1.29895 1.767767 -1.767767 
C 1.29895 -2.236584 0.663008 -2.5 0 -2.5 
C -0.663008 -2.5 -1.29895 -2.236584 -1.767767 -1.767767 
C -2.236584 -1.29895 -2.5 -0.663008 -2.5 0 
C -2.5 0.663008 -2.236584 1.29895 -1.767767 1.767767 
C -1.29895 2.236584 -0.663008 2.5 0 2.5 
z
"/>
    </defs>
    <g clip-path="url(#p696ce27251)">
     <use xlink:href="#C3_0_077465cdec" x="162.861033" y="139.332788" style="fill: #ffffff; stroke: #000000; stroke-width: 0.4"/>
    </g>
    <g clip-path="url(#p696ce27251)">
     <use xlink:href="#C3_0_077465cdec" x="162.811701" y="136.714632" style="fill: #ffffff; stroke: #000000; stroke-width: 0.4"/>
    </g>
    <g clip-path="url(#p696ce27251)">
     <use xlink:href="#C3_0_077465cdec" x="164.304503" y="135.729839" style="fill: #ffffff; stroke: #000000; stroke-width: 0.4"/>
    </g>
    <g clip-path="url(#p696ce27251)">
     <use xlink:href="#C3_0_077465cdec" x="165.076528" y="136.01801" style="fill: #ffffff; stroke: #000000; stroke-width: 0.4"/>
    </g>
   </g>
   <g id="PathCollection_5">
    <defs>
     <path id="C4_0_5954ca409f" d="M 0 2.5 
C 0.663008 2.5 1.29895 2.236584 1.767767 1.767767 
C 2.236584 1.29895 2.5 0.663008 2.5 -0 
C 2.5 -0.663008 2.236584 -1.29895 1.767767 -1.767767 
C 1.29895 -2.236584 0.663008 -2.5 0 -2.5 
C -0.663008 -2.5 -1.29895 -2.236584 -1.767767 -1.767767 
C -2.236584 -1.29895 -2.5 -0.663008 -2.5 0 
C -2.5 0.663008 -2.236584 1.29895 -1.767767 1.767767 
C -1.29895 2.236584 -0.663008 2.5 0 2.5 
z
"/>
    </defs>
    <g clip-path="url(#p696ce27251)">
     <use xlink:href="#C4_0_5954ca409f" x="192.599813" y="100.161202" style="fill: #ffffff; stroke: #000000; stroke-width: 0.4"/>
    </g>
    <g clip-path="url(#p696ce27251)">
     <use xlink:href="#C4_0_5954ca409f" x="192.577861" y="89.21911" style="fill: #ffffff; stroke: #000000; stroke-width: 0.4"/>
    </g>
    <g clip-path="url(#p696ce27251)">
     <use xlink:href="#C4_0_5954ca409f" x="197.048867" y="92.498942" style="fill: #ffffff; stroke: #000000; stroke-width: 0.4"/>
    </g>
    <g clip-path="url(#p696ce27251)">
     <use xlink:href="#C4_0_5954ca409f" x="190.913515" y="84.162088" style="fill: #ffffff; stroke: #000000; stroke-width: 0.4"/>
    </g>
   </g>
   <g id="PathCollection_6">
    <path d="M 64.359498 137.513997 
L 69.359498 137.513997 
L 69.359498 132.513997 
L 64.359498 132.513997 
z
" clip-path="url(#p696ce27251)" style="fill: #ffffff; stroke: #000000; stroke-width: 0.4"/>
    <path d="M 67.588665 133.629917 
L 72.588665 133.629917 
L 72.588665 128.629917 
L 67.588665 128.629917 
z
" clip-path="url(#p696ce27251)" style="fill: #ffffff; stroke: #000000; stroke-width: 0.4"/>
    <path d="M 61.811786 139.75609 
L 66.811786 139.75609 
L 66.811786 134.75609 
L 61.811786 134.75609 
z
" clip-path="url(#p696ce27251)" style="fill: #ffffff; stroke: #000000; stroke-width: 0.4"/>
    <path d="M 61.824789 142.247496 
L 66.824789 142.247496 
L 66.824789 137.247496 
L 61.824789 137.247496 
z
" clip-path="url(#p696ce27251)" style="fill: #ffffff; stroke: #000000; stroke-width: 0.4"/>
   </g>
   <g id="PathCollection_7">
    <path d="M 96.111606 148.165884 
L 101.111606 148.165884 
L 101.111606 143.165884 
L 96.111606 143.165884 
z
" clip-path="url(#p696ce27251)" style="fill: #ffffff; stroke: #000000; stroke-width: 0.4"/>
    <path d="M 98.847539 150.179481 
L 103.847539 150.179481 
L 103.847539 145.179481 
L 98.847539 145.179481 
z
" clip-path="url(#p696ce27251)" style="fill: #ffffff; stroke: #000000; stroke-width: 0.4"/>
    <path d="M 93.971178 149.144246 
L 98.971178 149.144246 
L 98.971178 144.144246 
L 93.971178 144.144246 
z
" clip-path="url(#p696ce27251)" style="fill: #ffffff; stroke: #000000; stroke-width: 0.4"/>
    <path d="M 96.675238 147.586564 
L 101.675238 147.586564 
L 101.675238 142.586564 
L 96.675238 142.586564 
z
" clip-path="url(#p696ce27251)" style="fill: #ffffff; stroke: #000000; stroke-width: 0.4"/>
   </g>
   <g id="PathCollection_8">
    <path d="M 127.889478 126.461593 
L 132.889478 126.461593 
L 132.889478 121.461593 
L 127.889478 121.461593 
z
" clip-path="url(#p696ce27251)" style="fill: #ffffff; stroke: #000000; stroke-width: 0.4"/>
    <path d="M 130.367452 122.252476 
L 135.367452 122.252476 
L 135.367452 117.252476 
L 130.367452 117.252476 
z
" clip-path="url(#p696ce27251)" style="fill: #ffffff; stroke: #000000; stroke-width: 0.4"/>
    <path d="M 126.411596 121.476791 
L 131.411596 121.476791 
L 131.411596 116.476791 
L 126.411596 116.476791 
z
" clip-path="url(#p696ce27251)" style="fill: #ffffff; stroke: #000000; stroke-width: 0.4"/>
    <path d="M 125.804254 120.851923 
L 130.804254 120.851923 
L 130.804254 115.851923 
L 125.804254 115.851923 
z
" clip-path="url(#p696ce27251)" style="fill: #ffffff; stroke: #000000; stroke-width: 0.4"/>
   </g>
   <g id="PathCollection_9">
    <path d="M 162.15334 119.948815 
L 167.15334 119.948815 
L 167.15334 114.948815 
L 162.15334 114.948815 
z
" clip-path="url(#p696ce27251)" style="fill: #ffffff; stroke: #000000; stroke-width: 0.4"/>
    <path d="M 157.174341 139.810433 
L 162.174341 139.810433 
L 162.174341 134.810433 
L 157.174341 134.810433 
z
" clip-path="url(#p696ce27251)" style="fill: #ffffff; stroke: #000000; stroke-width: 0.4"/>
    <path d="M 160.217766 139.005435 
L 165.217766 139.005435 
L 165.217766 134.005435 
L 160.217766 134.005435 
z
" clip-path="url(#p696ce27251)" style="fill: #ffffff; stroke: #000000; stroke-width: 0.4"/>
    <path d="M 160.365913 143.865347 
L 165.365913 143.865347 
L 165.365913 138.865347 
L 160.365913 138.865347 
z
" clip-path="url(#p696ce27251)" style="fill: #ffffff; stroke: #000000; stroke-width: 0.4"/>
   </g>
   <g id="PathCollection_10">
    <path d="M 194.060324 88.385787 
L 199.060324 88.385787 
L 199.060324 83.385787 
L 194.060324 83.385787 
z
" clip-path="url(#p696ce27251)" style="fill: #ffffff; stroke: #000000; stroke-width: 0.4"/>
    <path d="M 190.34476 87.164607 
L 195.34476 87.164607 
L 195.34476 82.164607 
L 190.34476 82.164607 
z
" clip-path="url(#p696ce27251)" style="fill: #ffffff; stroke: #000000; stroke-width: 0.4"/>
    <path d="M 192.891202 88.021989 
L 197.891202 88.021989 
L 197.891202 83.021989 
L 192.891202 83.021989 
z
" clip-path="url(#p696ce27251)" style="fill: #ffffff; stroke: #000000; stroke-width: 0.4"/>
    <path d="M 192.442768 85.309776 
L 197.442768 85.309776 
L 197.442768 80.309776 
L 192.442768 80.309776 
z
" clip-path="url(#p696ce27251)" style="fill: #ffffff; stroke: #000000; stroke-width: 0.4"/>
   </g>
   <g id="PathCollection_11">
    <path d="M 69.265633 134.296265 
L 66.765633 139.296265 
L 71.765633 139.296265 
z
" clip-path="url(#p696ce27251)" style="fill: #ffffff; stroke: #000000; stroke-width: 0.4"/>
    <path d="M 68.041296 130.997111 
L 65.541296 135.997111 
L 70.541296 135.997111 
z
" clip-path="url(#p696ce27251)" style="fill: #ffffff; stroke: #000000; stroke-width: 0.4"/>
    <path d="M 68.650655 133.717329 
L 66.150655 138.717329 
L 71.150655 138.717329 
z
" clip-path="url(#p696ce27251)" style="fill: #ffffff; stroke: #000000; stroke-width: 0.4"/>
    <path d="M 68.567922 133.287668 
L 66.067922 138.287668 
L 71.067922 138.287668 
z
" clip-path="url(#p696ce27251)" style="fill: #ffffff; stroke: #000000; stroke-width: 0.4"/>
   </g>
   <g id="PathCollection_12">
    <path d="M 98.964335 150.46967 
L 96.464335 155.46967 
L 101.464335 155.46967 
z
" clip-path="url(#p696ce27251)" style="fill: #ffffff; stroke: #000000; stroke-width: 0.4"/>
    <path d="M 99.979088 150.900307 
L 97.479088 155.900307 
L 102.479088 155.900307 
z
" clip-path="url(#p696ce27251)" style="fill: #ffffff; stroke: #000000; stroke-width: 0.4"/>
    <path d="M 100.714041 149.629415 
L 98.214041 154.629415 
L 103.214041 154.629415 
z
" clip-path="url(#p696ce27251)" style="fill: #ffffff; stroke: #000000; stroke-width: 0.4"/>
    <path d="M 99.814671 148.37121 
L 97.314671 153.37121 
L 102.314671 153.37121 
z
" clip-path="url(#p696ce27251)" style="fill: #ffffff; stroke: #000000; stroke-width: 0.4"/>
   </g>
   <g id="PathCollection_13">
    <path d="M 133.164622 134.024291 
L 130.664622 139.024291 
L 135.664622 139.024291 
z
" clip-path="url(#p696ce27251)" style="fill: #ffffff; stroke: #000000; stroke-width: 0.4"/>
    <path d="M 132.997448 129.293125 
L 130.497448 134.293125 
L 135.497448 134.293125 
z
" clip-path="url(#p696ce27251)" style="fill: #ffffff; stroke: #000000; stroke-width: 0.4"/>
    <path d="M 127.603346 126.96273 
L 125.103346 131.96273 
L 130.103346 131.96273 
z
" clip-path="url(#p696ce27251)" style="fill: #ffffff; stroke: #000000; stroke-width: 0.4"/>
    <path d="M 132.963947 128.941532 
L 130.463947 133.941532 
L 135.463947 133.941532 
z
" clip-path="url(#p696ce27251)" style="fill: #ffffff; stroke: #000000; stroke-width: 0.4"/>
   </g>
   <g id="PathCollection_14">
    <path d="M 160.786756 136.982581 
L 158.286756 141.982581 
L 163.286756 141.982581 
z
" clip-path="url(#p696ce27251)" style="fill: #ffffff; stroke: #000000; stroke-width: 0.4"/>
    <path d="M 161.627859 137.796647 
L 159.127859 142.796647 
L 164.127859 142.796647 
z
" clip-path="url(#p696ce27251)" style="fill: #ffffff; stroke: #000000; stroke-width: 0.4"/>
    <path d="M 160.869287 136.449022 
L 158.369287 141.449022 
L 163.369287 141.449022 
z
" clip-path="url(#p696ce27251)" style="fill: #ffffff; stroke: #000000; stroke-width: 0.4"/>
    <path d="M 164.309355 135.246177 
L 161.809355 140.246177 
L 166.809355 140.246177 
z
" clip-path="url(#p696ce27251)" style="fill: #ffffff; stroke: #000000; stroke-width: 0.4"/>
   </g>
   <g id="PathCollection_15">
    <path d="M 197.025947 79.527392 
L 194.525947 84.527392 
L 199.525947 84.527392 
z
" clip-path="url(#p696ce27251)" style="fill: #ffffff; stroke: #000000; stroke-width: 0.4"/>
    <path d="M 193.819504 76.712626 
L 191.319504 81.712626 
L 196.319504 81.712626 
z
" clip-path="url(#p696ce27251)" style="fill: #ffffff; stroke: #000000; stroke-width: 0.4"/>
    <path d="M 193.112794 74.50755 
L 190.612794 79.50755 
L 195.612794 79.50755 
z
" clip-path="url(#p696ce27251)" style="fill: #ffffff; stroke: #000000; stroke-width: 0.4"/>
    <path d="M 194.289415 78.120503 
L 191.789415 83.120503 
L 196.789415 83.120503 
z
" clip-path="url(#p696ce27251)" style="fill: #ffffff; stroke: #000000; stroke-width: 0.4"/>
   </g>
   <g id="PathCollection_16">
    <path d="M 70.23826 138.857797 
L 73.773794 135.322263 
L 70.23826 131.786729 
L 66.702726 135.322263 
z
" clip-path="url(#p696ce27251)" style="fill: #ffffff; stroke: #000000; stroke-width: 0.4"/>
    <path d="M 67.416075 136.105865 
L 70.951609 132.570331 
L 67.416075 129.034797 
L 63.880541 132.570331 
z
" clip-path="url(#p696ce27251)" style="fill: #ffffff; stroke: #000000; stroke-width: 0.4"/>
    <path d="M 67.306456 139.358051 
L 70.84199 135.822517 
L 67.306456 132.286983 
L 63.770923 135.822517 
z
" clip-path="url(#p696ce27251)" style="fill: #ffffff; stroke: #000000; stroke-width: 0.4"/>
    <path d="M 68.636465 142.100157 
L 72.171999 138.564623 
L 68.636465 135.029089 
L 65.100931 138.564623 
z
" clip-path="url(#p696ce27251)" style="fill: #ffffff; stroke: #000000; stroke-width: 0.4"/>
   </g>
   <g id="PathCollection_17">
    <path d="M 99.705625 147.640647 
L 103.241159 144.105113 
L 99.705625 140.569579 
L 96.170091 144.105113 
z
" clip-path="url(#p696ce27251)" style="fill: #ffffff; stroke: #000000; stroke-width: 0.4"/>
    <path d="M 98.227831 151.625113 
L 101.763364 148.089579 
L 98.227831 144.554045 
L 94.692297 148.089579 
z
" clip-path="url(#p696ce27251)" style="fill: #ffffff; stroke: #000000; stroke-width: 0.4"/>
    <path d="M 99.398681 150.599845 
L 102.934215 147.064311 
L 99.398681 143.528777 
L 95.863147 147.064311 
z
" clip-path="url(#p696ce27251)" style="fill: #ffffff; stroke: #000000; stroke-width: 0.4"/>
    <path d="M 102.125718 150.070726 
L 105.661251 146.535192 
L 102.125718 142.999658 
L 98.590184 146.535192 
z
" clip-path="url(#p696ce27251)" style="fill: #ffffff; stroke: #000000; stroke-width: 0.4"/>
   </g>
   <g id="PathCollection_18">
    <path d="M 130.89009 126.695657 
L 134.425624 123.160123 
L 130.89009 119.624589 
L 127.354556 123.160123 
z
" clip-path="url(#p696ce27251)" style="fill: #ffffff; stroke: #000000; stroke-width: 0.4"/>
    <path d="M 132.023678 130.590507 
L 135.559212 127.054973 
L 132.023678 123.519439 
L 128.488144 127.054973 
z
" clip-path="url(#p696ce27251)" style="fill: #ffffff; stroke: #000000; stroke-width: 0.4"/>
    <path d="M 129.850946 134.748779 
L 133.38648 131.213245 
L 129.850946 127.677711 
L 126.315412 131.213245 
z
" clip-path="url(#p696ce27251)" style="fill: #ffffff; stroke: #000000; stroke-width: 0.4"/>
    <path d="M 131.576088 129.399262 
L 135.111622 125.863728 
L 131.576088 122.328195 
L 128.040554 125.863728 
z
" clip-path="url(#p696ce27251)" style="fill: #ffffff; stroke: #000000; stroke-width: 0.4"/>
   </g>
   <g id="PathCollection_19">
    <path d="M 163.257414 128.818897 
L 166.792948 125.283364 
L 163.257414 121.74783 
L 159.72188 125.283364 
z
" clip-path="url(#p696ce27251)" style="fill: #ffffff; stroke: #000000; stroke-width: 0.4"/>
    <path d="M 159.652077 137.586203 
L 163.187611 134.050669 
L 159.652077 130.515135 
L 156.116543 134.050669 
z
" clip-path="url(#p696ce27251)" style="fill: #ffffff; stroke: #000000; stroke-width: 0.4"/>
    <path d="M 161.802123 138.103887 
L 165.337657 134.568353 
L 161.802123 131.032819 
L 158.266589 134.568353 
z
" clip-path="url(#p696ce27251)" style="fill: #ffffff; stroke: #000000; stroke-width: 0.4"/>
    <path d="M 161.675904 142.673378 
L 165.211437 139.137845 
L 161.675904 135.602311 
L 158.14037 139.137845 
z
" clip-path="url(#p696ce27251)" style="fill: #ffffff; stroke: #000000; stroke-width: 0.4"/>
   </g>
   <g id="PathCollection_20">
    <path d="M 196.467201 73.665808 
L 200.002735 70.130274 
L 196.467201 66.59474 
L 192.931667 70.130274 
z
" clip-path="url(#p696ce27251)" style="fill: #ffffff; stroke: #000000; stroke-width: 0.4"/>
    <path d="M 193.587866 71.909854 
L 197.1234 68.37432 
L 193.587866 64.838786 
L 190.052332 68.37432 
z
" clip-path="url(#p696ce27251)" style="fill: #ffffff; stroke: #000000; stroke-width: 0.4"/>
    <path d="M 195.86864 74.057041 
L 199.404174 70.521507 
L 195.86864 66.985973 
L 192.333106 70.521507 
z
" clip-path="url(#p696ce27251)" style="fill: #ffffff; stroke: #000000; stroke-width: 0.4"/>
    <path d="M 196.350241 73.115764 
L 199.885775 69.58023 
L 196.350241 66.044696 
L 192.814707 69.58023 
z
" clip-path="url(#p696ce27251)" style="fill: #ffffff; stroke: #000000; stroke-width: 0.4"/>
   </g>
   <g id="text_15">
    <!-- **** -->
    <g transform="translate(168.222443 57.747753)scale(0.1 -0.1)">
     <defs>
      <path id="DejaVuSans-2a" d="M 3009 3897 
L 1888 3291 
L 3009 2681 
L 2828 2375 
L 1778 3009 
L 1778 1831 
L 1422 1831 
L 1422 3009 
L 372 2375 
L 191 2681 
L 1313 3291 
L 191 3897 
L 372 4206 
L 1422 3572 
L 1422 4750 
L 1778 4750 
L 1778 3572 
L 2828 4206 
L 3009 3897 
z
" transform="scale(0.015625)"/>
     </defs>
     <use xlink:href="#DejaVuSans-2a"/>
     <use xlink:href="#DejaVuSans-2a" x="50"/>
     <use xlink:href="#DejaVuSans-2a" x="100"/>
     <use xlink:href="#DejaVuSans-2a" x="150"/>
    </g>
   </g>
   <g id="text_16">
    <!-- *** -->
    <g transform="translate(107.313352 107.001064)scale(0.1 -0.1)">
     <use xlink:href="#DejaVuSans-2a"/>
     <use xlink:href="#DejaVuSans-2a" x="50"/>
     <use xlink:href="#DejaVuSans-2a" x="100"/>
    </g>
   </g>
   <g id="text_17">
    <!-- *** -->
    <g transform="translate(154.87017 40.58957)scale(0.1 -0.1)">
     <use xlink:href="#DejaVuSans-2a"/>
     <use xlink:href="#DejaVuSans-2a" x="50"/>
     <use xlink:href="#DejaVuSans-2a" x="100"/>
    </g>
   </g>
   <g id="text_18">
    <!-- *** -->
    <g transform="translate(75.608807 96.835305)scale(0.1 -0.1)">
     <use xlink:href="#DejaVuSans-2a"/>
     <use xlink:href="#DejaVuSans-2a" x="50"/>
     <use xlink:href="#DejaVuSans-2a" x="100"/>
    </g>
   </g>
   <g id="text_19">
    <!-- ns -->
    <g transform="translate(109.039915 47.581994)scale(0.1 -0.1)">
     <defs>
      <path id="DejaVuSans-73" d="M 2834 3397 
L 2834 2853 
Q 2591 2978 2328 3040 
Q 2066 3103 1784 3103 
Q 1356 3103 1142 2972 
Q 928 2841 928 2578 
Q 928 2378 1081 2264 
Q 1234 2150 1697 2047 
L 1894 2003 
Q 2506 1872 2764 1633 
Q 3022 1394 3022 966 
Q 3022 478 2636 193 
Q 2250 -91 1575 -91 
Q 1294 -91 989 -36 
Q 684 19 347 128 
L 347 722 
Q 666 556 975 473 
Q 1284 391 1588 391 
Q 1994 391 2212 530 
Q 2431 669 2431 922 
Q 2431 1156 2273 1281 
Q 2116 1406 1581 1522 
L 1381 1569 
Q 847 1681 609 1914 
Q 372 2147 372 2553 
Q 372 3047 722 3315 
Q 1072 3584 1716 3584 
Q 2034 3584 2315 3537 
Q 2597 3491 2834 3397 
z
" transform="scale(0.015625)"/>
     </defs>
     <use xlink:href="#DejaVuSans-6e"/>
     <use xlink:href="#DejaVuSans-73" x="63.378906"/>
    </g>
   </g>
   <g id="text_20">
    <g id="patch_12">
     <path d="M 59.894034 156.604344 
L 74.619034 156.604344 
L 74.619034 144.926219 
L 59.894034 144.926219 
z
" style="fill: #ffffff; opacity: 0.75"/>
    </g>
    <!-- 20 -->
    <g transform="translate(60.894034 153.524657)scale(0.1 -0.1)">
     <use xlink:href="#DejaVuSans-32"/>
     <use xlink:href="#DejaVuSans-30" x="63.623047"/>
    </g>
   </g>
   <g id="text_21">
    <g id="patch_13">
     <path d="M 94.77983 169.9535 
L 103.14233 169.9535 
L 103.14233 158.275375 
L 94.77983 158.275375 
z
" style="fill: #ffffff; opacity: 0.75"/>
    </g>
    <!-- 8 -->
    <g transform="translate(95.77983 166.873812)scale(0.1 -0.1)">
     <use xlink:href="#DejaVuSans-38"/>
    </g>
   </g>
   <g id="text_22">
    <g id="patch_14">
     <path d="M 123.303125 146.409801 
L 138.028125 146.409801 
L 138.028125 134.731676 
L 123.303125 134.731676 
z
" style="fill: #ffffff; opacity: 0.75"/>
    </g>
    <!-- 29 -->
    <g transform="translate(124.303125 143.330113)scale(0.1 -0.1)">
     <defs>
      <path id="DejaVuSans-39" d="M 703 97 
L 703 672 
Q 941 559 1184 500 
Q 1428 441 1663 441 
Q 2288 441 2617 861 
Q 2947 1281 2994 2138 
Q 2813 1869 2534 1725 
Q 2256 1581 1919 1581 
Q 1219 1581 811 2004 
Q 403 2428 403 3163 
Q 403 3881 828 4315 
Q 1253 4750 1959 4750 
Q 2769 4750 3195 4129 
Q 3622 3509 3622 2328 
Q 3622 1225 3098 567 
Q 2575 -91 1691 -91 
Q 1453 -91 1209 -44 
Q 966 3 703 97 
z
M 1959 2075 
Q 2384 2075 2632 2365 
Q 2881 2656 2881 3163 
Q 2881 3666 2632 3958 
Q 2384 4250 1959 4250 
Q 1534 4250 1286 3958 
Q 1038 3666 1038 3163 
Q 1038 2656 1286 2365 
Q 1534 2075 1959 2075 
z
" transform="scale(0.015625)"/>
     </defs>
     <use xlink:href="#DejaVuSans-32"/>
     <use xlink:href="#DejaVuSans-39" x="63.623047"/>
    </g>
   </g>
   <g id="text_23">
    <g id="patch_15">
     <path d="M 155.00767 156.621247 
L 169.73267 156.621247 
L 169.73267 144.943122 
L 155.00767 144.943122 
z
" style="fill: #ffffff; opacity: 0.75"/>
    </g>
    <!-- 20 -->
    <g transform="translate(156.00767 153.54156)scale(0.1 -0.1)">
     <use xlink:href="#DejaVuSans-32"/>
     <use xlink:href="#DejaVuSans-30" x="63.623047"/>
    </g>
   </g>
   <g id="text_24">
    <g id="patch_16">
     <path d="M 186.712216 102.399869 
L 201.437216 102.399869 
L 201.437216 90.721744 
L 186.712216 90.721744 
z
" style="fill: #ffffff; opacity: 0.75"/>
    </g>
    <!-- 68 -->
    <g transform="translate(187.712216 99.320181)scale(0.1 -0.1)">
     <use xlink:href="#DejaVuSans-36"/>
     <use xlink:href="#DejaVuSans-38" x="63.623047"/>
    </g>
   </g>
   <g id="text_25">
    <!-- 4 dpi -->
    <g transform="translate(115.65625 16.318125)scale(0.12 -0.12)">
     <defs>
      <path id="DejaVuSans-69" d="M 603 3500 
L 1178 3500 
L 1178 0 
L 603 0 
L 603 3500 
z
M 603 4863 
L 1178 4863 
L 1178 4134 
L 603 4134 
L 603 4863 
z
" transform="scale(0.015625)"/>
     </defs>
     <use xlink:href="#DejaVuSans-34"/>
     <use xlink:href="#DejaVuSans-20" x="63.623047"/>
     <use xlink:href="#DejaVuSans-64" x="95.410156"/>
     <use xlink:href="#DejaVuSans-70" x="158.886719"/>
     <use xlink:href="#DejaVuSans-69" x="222.363281"/>
    </g>
   </g>
  </g>
 </g>
 <defs>
  <clipPath id="p696ce27251">
   <rect x="46.965625" y="22.318125" width="167.4" height="135.9"/>
  </clipPath>
 </defs>
</svg>
