<?xml version="1.0" encoding="utf-8" standalone="no"?>
<!DOCTYPE svg PUBLIC "-//W3C//DTD SVG 1.1//EN"
  "http://www.w3.org/Graphics/SVG/1.1/DTD/svg11.dtd">
<svg xmlns:xlink="http://www.w3.org/1999/xlink" width="375.2375pt" height="168.594375pt" viewBox="0 0 375.2375 168.594375" xmlns="http://www.w3.org/2000/svg" version="1.1">
 <metadata>
  <rdf:RDF xmlns:dc="http://purl.org/dc/elements/1.1/" xmlns:cc="http://creativecommons.org/ns#" xmlns:rdf="http://www.w3.org/1999/02/22-rdf-syntax-ns#">
   <cc:Work>
    <dc:type rdf:resource="http://purl.org/dc/dcmitype/StillImage"/>
    <dc:date>2025-01-26T16:33:12.682291</dc:date>
    <dc:format>image/svg+xml</dc:format>
    <dc:creator>
     <cc:Agent>
      <dc:title>Matplotlib v3.5.2, https://matplotlib.org/</dc:title>
     </cc:Agent>
    </dc:creator>
   </cc:Work>
  </rdf:RDF>
 </metadata>
 <defs>
  <style type="text/css">*{stroke-linejoin: round; stroke-linecap: butt}</style>
 </defs>
 <g id="figure_1">
  <g id="patch_1">
   <path d="M 0 168.594375 
L 375.2375 168.594375 
L 375.2375 0 
L 0 0 
L 0 168.594375 
z
" style="fill: none"/>
  </g>
  <g id="axes_1">
   <g id="patch_2">
    <path d="M 50.14375 131.038125 
L 217.54375 131.038125 
L 217.54375 22.318125 
L 50.14375 22.318125 
z
" style="fill: #ffffff"/>
   </g>
   <g id="PolyCollection_1">
    <defs>
     <path id="mf71d365929" d="M 3.127962 -37.556592 
L 3.127962 -37.55625 
L 4.254357 -37.55625 
L 5.380751 -37.55625 
L 6.507145 -37.55625 
L 7.633539 -37.55625 
L 8.759934 -37.55625 
L 9.886328 -37.55625 
L 11.012722 -37.55625 
L 12.139117 -37.55625 
L 13.265511 -37.55625 
L 14.391905 -37.55625 
L 15.5183 -37.55625 
L 16.644694 -37.55625 
L 17.771088 -37.55625 
L 18.897482 -37.55625 
L 20.023877 -37.55625 
L 21.150271 -37.55625 
L 22.276665 -37.55625 
L 23.40306 -37.55625 
L 24.529454 -37.55625 
L 25.655848 -37.55625 
L 26.782242 -37.55625 
L 27.908637 -37.55625 
L 29.035031 -37.55625 
L 30.161425 -37.55625 
L 31.28782 -37.55625 
L 32.414214 -37.55625 
L 33.540608 -37.55625 
L 34.667002 -37.55625 
L 35.793397 -37.55625 
L 36.919791 -37.55625 
L 38.046185 -37.55625 
L 39.17258 -37.55625 
L 40.298974 -37.55625 
L 41.425368 -37.55625 
L 42.551762 -37.55625 
L 43.678157 -37.55625 
L 44.804551 -37.55625 
L 45.930945 -37.55625 
L 47.05734 -37.55625 
L 48.183734 -37.55625 
L 49.310128 -37.55625 
L 50.436522 -37.55625 
L 51.562917 -37.55625 
L 52.689311 -37.55625 
L 53.815705 -37.55625 
L 54.9421 -37.55625 
L 56.068494 -37.55625 
L 57.194888 -37.55625 
L 58.321283 -37.55625 
L 59.447677 -37.55625 
L 60.574071 -37.55625 
L 61.700465 -37.55625 
L 62.82686 -37.55625 
L 63.953254 -37.55625 
L 65.079648 -37.55625 
L 66.206043 -37.55625 
L 67.332437 -37.55625 
L 68.458831 -37.55625 
L 69.585225 -37.55625 
L 70.71162 -37.55625 
L 71.838014 -37.55625 
L 72.964408 -37.55625 
L 74.090803 -37.55625 
L 75.217197 -37.55625 
L 76.343591 -37.55625 
L 77.469985 -37.55625 
L 78.59638 -37.55625 
L 79.722774 -37.55625 
L 80.849168 -37.55625 
L 81.975563 -37.55625 
L 83.101957 -37.55625 
L 84.228351 -37.55625 
L 85.354745 -37.55625 
L 86.48114 -37.55625 
L 87.607534 -37.55625 
L 88.733928 -37.55625 
L 89.860323 -37.55625 
L 90.986717 -37.55625 
L 92.113111 -37.55625 
L 93.239505 -37.55625 
L 94.3659 -37.55625 
L 95.492294 -37.55625 
L 96.618688 -37.55625 
L 97.745083 -37.55625 
L 98.871477 -37.55625 
L 99.997871 -37.55625 
L 101.124265 -37.55625 
L 102.25066 -37.55625 
L 103.377054 -37.55625 
L 104.503448 -37.55625 
L 105.629843 -37.55625 
L 106.756237 -37.55625 
L 107.882631 -37.55625 
L 109.009026 -37.55625 
L 110.13542 -37.55625 
L 111.261814 -37.55625 
L 112.388208 -37.55625 
L 113.514603 -37.55625 
L 114.640997 -37.55625 
L 115.767391 -37.55625 
L 116.893786 -37.55625 
L 118.02018 -37.55625 
L 119.146574 -37.55625 
L 120.272968 -37.55625 
L 121.399363 -37.55625 
L 122.525757 -37.55625 
L 123.652151 -37.55625 
L 124.778546 -37.55625 
L 125.90494 -37.55625 
L 127.031334 -37.55625 
L 128.157728 -37.55625 
L 129.284123 -37.55625 
L 130.410517 -37.55625 
L 131.536911 -37.55625 
L 132.663306 -37.55625 
L 133.7897 -37.55625 
L 134.916094 -37.55625 
L 136.042488 -37.55625 
L 137.168883 -37.55625 
L 138.295277 -37.55625 
L 139.421671 -37.55625 
L 140.548066 -37.55625 
L 141.67446 -37.55625 
L 142.800854 -37.55625 
L 143.927248 -37.55625 
L 145.053643 -37.55625 
L 146.180037 -37.55625 
L 147.306431 -37.55625 
L 148.432826 -37.55625 
L 149.55922 -37.55625 
L 150.685614 -37.55625 
L 151.812009 -37.55625 
L 152.938403 -37.55625 
L 154.064797 -37.55625 
L 155.191191 -37.55625 
L 156.317586 -37.55625 
L 157.44398 -37.55625 
L 158.570374 -37.55625 
L 159.696769 -37.55625 
L 160.823163 -37.55625 
L 161.949557 -37.55625 
L 163.075951 -37.55625 
L 164.202346 -37.55625 
L 165.32874 -37.55625 
L 166.455134 -37.55625 
L 167.581529 -37.55625 
L 168.707923 -37.55625 
L 169.834317 -37.55625 
L 170.960711 -37.55625 
L 172.087106 -37.55625 
L 173.2135 -37.55625 
L 174.339894 -37.55625 
L 175.466289 -37.55625 
L 176.592683 -37.55625 
L 177.719077 -37.55625 
L 178.845471 -37.55625 
L 179.971866 -37.55625 
L 181.09826 -37.55625 
L 182.224654 -37.55625 
L 183.351049 -37.55625 
L 184.477443 -37.55625 
L 185.603837 -37.55625 
L 186.730231 -37.55625 
L 187.856626 -37.55625 
L 188.98302 -37.55625 
L 190.109414 -37.55625 
L 191.235809 -37.55625 
L 192.362203 -37.55625 
L 193.488597 -37.55625 
L 194.614992 -37.55625 
L 195.741386 -37.55625 
L 196.86778 -37.55625 
L 197.994174 -37.55625 
L 199.120569 -37.55625 
L 200.246963 -37.55625 
L 201.373357 -37.55625 
L 202.499752 -37.55625 
L 203.626146 -37.55625 
L 204.75254 -37.55625 
L 205.878934 -37.55625 
L 207.005329 -37.55625 
L 208.131723 -37.55625 
L 209.258117 -37.55625 
L 210.384512 -37.55625 
L 211.510906 -37.55625 
L 212.6373 -37.55625 
L 213.763694 -37.55625 
L 214.890089 -37.55625 
L 216.016483 -37.55625 
L 217.142877 -37.55625 
L 218.269272 -37.55625 
L 219.395666 -37.55625 
L 220.52206 -37.55625 
L 221.648454 -37.55625 
L 222.774849 -37.55625 
L 223.901243 -37.55625 
L 225.027637 -37.55625 
L 226.154032 -37.55625 
L 227.280426 -37.55625 
L 227.280426 -37.558057 
L 227.280426 -37.558057 
L 226.154032 -37.561566 
L 225.027637 -37.569863 
L 223.901243 -37.58664 
L 222.774849 -37.615561 
L 221.648454 -37.657947 
L 220.52206 -37.710703 
L 219.395666 -37.766913 
L 218.269272 -37.820129 
L 217.142877 -37.870052 
L 216.016483 -37.925078 
L 214.890089 -37.998888 
L 213.763694 -38.102576 
L 212.6373 -38.23714 
L 211.510906 -38.391444 
L 210.384512 -38.547932 
L 209.258117 -38.693563 
L 208.131723 -38.829474 
L 207.005329 -38.973583 
L 205.878934 -39.155422 
L 204.75254 -39.406862 
L 203.626146 -39.752644 
L 202.499752 -40.202806 
L 201.373357 -40.749004 
L 200.246963 -41.367626 
L 199.120569 -42.031263 
L 197.994174 -42.725231 
L 196.86778 -43.460579 
L 195.741386 -44.274653 
L 194.614992 -45.217122 
L 193.488597 -46.329383 
L 192.362203 -47.630241 
L 191.235809 -49.116288 
L 190.109414 -50.775306 
L 188.98302 -52.603485 
L 187.856626 -54.616215 
L 186.730231 -56.846409 
L 185.603837 -59.330224 
L 184.477443 -62.08642 
L 183.351049 -65.101788 
L 182.224654 -68.336765 
L 181.09826 -71.754801 
L 179.971866 -75.357626 
L 178.845471 -79.195892 
L 177.719077 -83.339706 
L 176.592683 -87.825361 
L 175.466289 -92.610669 
L 174.339894 -97.560319 
L 173.2135 -102.464846 
L 172.087106 -107.090003 
L 170.960711 -111.247768 
L 169.834317 -114.862854 
L 168.707923 -117.992963 
L 167.581529 -120.777612 
L 166.455134 -123.341691 
L 165.32874 -125.721555 
L 164.202346 -127.863475 
L 163.075951 -129.676958 
L 161.949557 -131.078496 
L 160.823163 -131.984996 
L 159.696769 -132.281062 
L 158.570374 -131.819132 
L 157.44398 -130.482257 
L 156.317586 -128.274969 
L 155.191191 -125.367062 
L 154.064797 -122.039572 
L 152.938403 -118.559239 
L 151.812009 -115.068833 
L 150.685614 -111.565884 
L 149.55922 -107.96997 
L 148.432826 -104.222504 
L 147.306431 -100.35922 
L 146.180037 -96.520317 
L 145.053643 -92.893424 
L 143.927248 -89.622145 
L 142.800854 -86.741617 
L 141.67446 -84.184769 
L 140.548066 -81.842742 
L 139.421671 -79.621608 
L 138.295277 -77.458669 
L 137.168883 -75.313447 
L 136.042488 -73.167986 
L 134.916094 -71.044304 
L 133.7897 -69.015098 
L 132.663306 -67.184398 
L 131.536911 -65.641431 
L 130.410517 -64.413438 
L 129.284123 -63.444815 
L 128.157728 -62.615726 
L 127.031334 -61.793482 
L 125.90494 -60.890667 
L 124.778546 -59.895684 
L 123.652151 -58.85666 
L 122.525757 -57.834059 
L 121.399363 -56.861159 
L 120.272968 -55.939506 
L 119.146574 -55.060388 
L 118.02018 -54.221763 
L 116.893786 -53.423659 
L 115.767391 -52.653725 
L 114.640997 -51.884495 
L 113.514603 -51.087523 
L 112.388208 -50.249881 
L 111.261814 -49.378026 
L 110.13542 -48.48941 
L 109.009026 -47.603522 
L 107.882631 -46.740331 
L 106.756237 -45.922746 
L 105.629843 -45.174366 
L 104.503448 -44.50982 
L 103.377054 -43.925048 
L 102.25066 -43.397918 
L 101.124265 -42.901424 
L 99.997871 -42.420951 
L 98.871477 -41.964202 
L 97.745083 -41.558474 
L 96.618688 -41.237124 
L 95.492294 -41.021132 
L 94.3659 -40.904045 
L 93.239505 -40.849443 
L 92.113111 -40.804883 
L 90.986717 -40.725217 
L 89.860323 -40.590493 
L 88.733928 -40.407876 
L 87.607534 -40.199769 
L 86.48114 -39.989077 
L 85.354745 -39.790428 
L 84.228351 -39.608264 
L 83.101957 -39.438582 
L 81.975563 -39.272521 
L 80.849168 -39.101795 
L 79.722774 -38.924197 
L 78.59638 -38.745524 
L 77.469985 -38.576457 
L 76.343591 -38.427376 
L 75.217197 -38.305088 
L 74.090803 -38.212228 
L 72.964408 -38.147367 
L 71.838014 -38.104737 
L 70.71162 -38.074529 
L 69.585225 -38.044917 
L 68.458831 -38.005655 
L 67.332437 -37.951947 
L 66.206043 -37.886724 
L 65.079648 -37.819591 
L 63.953254 -37.762311 
L 62.82686 -37.723199 
L 61.700465 -37.703832 
L 60.574071 -37.699684 
L 59.447677 -37.703464 
L 58.321283 -37.70855 
L 57.194888 -37.710755 
L 56.068494 -37.708223 
L 54.9421 -37.700462 
L 53.815705 -37.687671 
L 52.689311 -37.67082 
L 51.562917 -37.651975 
L 50.436522 -37.633961 
L 49.310128 -37.619096 
L 48.183734 -37.607977 
L 47.05734 -37.599512 
L 45.930945 -37.592317 
L 44.804551 -37.586213 
L 43.678157 -37.582501 
L 42.551762 -37.582873 
L 41.425368 -37.587929 
L 40.298974 -37.596346 
L 39.17258 -37.605187 
L 38.046185 -37.611077 
L 36.919791 -37.611608 
L 35.793397 -37.606288 
L 34.667002 -37.596596 
L 33.540608 -37.585171 
L 32.414214 -37.574614 
L 31.28782 -37.566539 
L 30.161425 -37.561319 
L 29.035031 -37.558439 
L 27.908637 -37.557077 
L 26.782242 -37.556522 
L 25.655848 -37.556329 
L 24.529454 -37.556275 
L 23.40306 -37.556277 
L 22.276665 -37.556341 
L 21.150271 -37.556554 
L 20.023877 -37.557142 
L 18.897482 -37.558518 
L 17.771088 -37.561252 
L 16.644694 -37.565818 
L 15.5183 -37.572121 
L 14.391905 -37.57908 
L 13.265511 -37.58473 
L 12.139117 -37.58706 
L 11.012722 -37.585155 
L 9.886328 -37.579767 
L 8.759934 -37.572843 
L 7.633539 -37.566403 
L 6.507145 -37.561637 
L 5.380751 -37.558729 
L 4.254357 -37.557239 
L 3.127962 -37.556592 
z
" style="stroke: #2ca02c"/>
    </defs>
    <g clip-path="url(#p984946b210)">
     <use xlink:href="#mf71d365929" x="0" y="168.594375" style="fill: #2ca02c; fill-opacity: 0.25; stroke: #2ca02c"/>
    </g>
   </g>
   <g id="PolyCollection_2">
    <defs>
     <path id="m351880123a" d="M -19.854857 -37.556535 
L -19.854857 -37.55625 
L -18.614654 -37.55625 
L -17.37445 -37.55625 
L -16.134246 -37.55625 
L -14.894042 -37.55625 
L -13.653838 -37.55625 
L -12.413634 -37.55625 
L -11.17343 -37.55625 
L -9.933226 -37.55625 
L -8.693023 -37.55625 
L -7.452819 -37.55625 
L -6.212615 -37.55625 
L -4.972411 -37.55625 
L -3.732207 -37.55625 
L -2.492003 -37.55625 
L -1.251799 -37.55625 
L -0.011595 -37.55625 
L 1.228609 -37.55625 
L 2.468812 -37.55625 
L 3.709016 -37.55625 
L 4.94922 -37.55625 
L 6.189424 -37.55625 
L 7.429628 -37.55625 
L 8.669832 -37.55625 
L 9.910036 -37.55625 
L 11.15024 -37.55625 
L 12.390443 -37.55625 
L 13.630647 -37.55625 
L 14.870851 -37.55625 
L 16.111055 -37.55625 
L 17.351259 -37.55625 
L 18.591463 -37.55625 
L 19.831667 -37.55625 
L 21.071871 -37.55625 
L 22.312074 -37.55625 
L 23.552278 -37.55625 
L 24.792482 -37.55625 
L 26.032686 -37.55625 
L 27.27289 -37.55625 
L 28.513094 -37.55625 
L 29.753298 -37.55625 
L 30.993502 -37.55625 
L 32.233706 -37.55625 
L 33.473909 -37.55625 
L 34.714113 -37.55625 
L 35.954317 -37.55625 
L 37.194521 -37.55625 
L 38.434725 -37.55625 
L 39.674929 -37.55625 
L 40.915133 -37.55625 
L 42.155337 -37.55625 
L 43.39554 -37.55625 
L 44.635744 -37.55625 
L 45.875948 -37.55625 
L 47.116152 -37.55625 
L 48.356356 -37.55625 
L 49.59656 -37.55625 
L 50.836764 -37.55625 
L 52.076968 -37.55625 
L 53.317172 -37.55625 
L 54.557375 -37.55625 
L 55.797579 -37.55625 
L 57.037783 -37.55625 
L 58.277987 -37.55625 
L 59.518191 -37.55625 
L 60.758395 -37.55625 
L 61.998599 -37.55625 
L 63.238803 -37.55625 
L 64.479006 -37.55625 
L 65.71921 -37.55625 
L 66.959414 -37.55625 
L 68.199618 -37.55625 
L 69.439822 -37.55625 
L 70.680026 -37.55625 
L 71.92023 -37.55625 
L 73.160434 -37.55625 
L 74.400637 -37.55625 
L 75.640841 -37.55625 
L 76.881045 -37.55625 
L 78.121249 -37.55625 
L 79.361453 -37.55625 
L 80.601657 -37.55625 
L 81.841861 -37.55625 
L 83.082065 -37.55625 
L 84.322269 -37.55625 
L 85.562472 -37.55625 
L 86.802676 -37.55625 
L 88.04288 -37.55625 
L 89.283084 -37.55625 
L 90.523288 -37.55625 
L 91.763492 -37.55625 
L 93.003696 -37.55625 
L 94.2439 -37.55625 
L 95.484103 -37.55625 
L 96.724307 -37.55625 
L 97.964511 -37.55625 
L 99.204715 -37.55625 
L 100.444919 -37.55625 
L 101.685123 -37.55625 
L 102.925327 -37.55625 
L 104.165531 -37.55625 
L 105.405735 -37.55625 
L 106.645938 -37.55625 
L 107.886142 -37.55625 
L 109.126346 -37.55625 
L 110.36655 -37.55625 
L 111.606754 -37.55625 
L 112.846958 -37.55625 
L 114.087162 -37.55625 
L 115.327366 -37.55625 
L 116.567569 -37.55625 
L 117.807773 -37.55625 
L 119.047977 -37.55625 
L 120.288181 -37.55625 
L 121.528385 -37.55625 
L 122.768589 -37.55625 
L 124.008793 -37.55625 
L 125.248997 -37.55625 
L 126.4892 -37.55625 
L 127.729404 -37.55625 
L 128.969608 -37.55625 
L 130.209812 -37.55625 
L 131.450016 -37.55625 
L 132.69022 -37.55625 
L 133.930424 -37.55625 
L 135.170628 -37.55625 
L 136.410832 -37.55625 
L 137.651035 -37.55625 
L 138.891239 -37.55625 
L 140.131443 -37.55625 
L 141.371647 -37.55625 
L 142.611851 -37.55625 
L 143.852055 -37.55625 
L 145.092259 -37.55625 
L 146.332463 -37.55625 
L 147.572666 -37.55625 
L 148.81287 -37.55625 
L 150.053074 -37.55625 
L 151.293278 -37.55625 
L 152.533482 -37.55625 
L 153.773686 -37.55625 
L 155.01389 -37.55625 
L 156.254094 -37.55625 
L 157.494298 -37.55625 
L 158.734501 -37.55625 
L 159.974705 -37.55625 
L 161.214909 -37.55625 
L 162.455113 -37.55625 
L 163.695317 -37.55625 
L 164.935521 -37.55625 
L 166.175725 -37.55625 
L 167.415929 -37.55625 
L 168.656132 -37.55625 
L 169.896336 -37.55625 
L 171.13654 -37.55625 
L 172.376744 -37.55625 
L 173.616948 -37.55625 
L 174.857152 -37.55625 
L 176.097356 -37.55625 
L 177.33756 -37.55625 
L 178.577763 -37.55625 
L 179.817967 -37.55625 
L 181.058171 -37.55625 
L 182.298375 -37.55625 
L 183.538579 -37.55625 
L 184.778783 -37.55625 
L 186.018987 -37.55625 
L 187.259191 -37.55625 
L 188.499395 -37.55625 
L 189.739598 -37.55625 
L 190.979802 -37.55625 
L 192.220006 -37.55625 
L 193.46021 -37.55625 
L 194.700414 -37.55625 
L 195.940618 -37.55625 
L 197.180822 -37.55625 
L 198.421026 -37.55625 
L 199.661229 -37.55625 
L 200.901433 -37.55625 
L 202.141637 -37.55625 
L 203.381841 -37.55625 
L 204.622045 -37.55625 
L 205.862249 -37.55625 
L 207.102453 -37.55625 
L 208.342657 -37.55625 
L 209.582861 -37.55625 
L 210.823064 -37.55625 
L 212.063268 -37.55625 
L 213.303472 -37.55625 
L 214.543676 -37.55625 
L 215.78388 -37.55625 
L 217.024084 -37.55625 
L 218.264288 -37.55625 
L 219.504492 -37.55625 
L 220.744695 -37.55625 
L 221.984899 -37.55625 
L 223.225103 -37.55625 
L 224.465307 -37.55625 
L 225.705511 -37.55625 
L 226.945715 -37.55625 
L 226.945715 -37.556537 
L 226.945715 -37.556537 
L 225.705511 -37.557162 
L 224.465307 -37.558705 
L 223.225103 -37.561871 
L 221.984899 -37.567265 
L 220.744695 -37.574954 
L 219.504492 -37.584346 
L 218.264288 -37.594739 
L 217.024084 -37.606092 
L 215.78388 -37.619103 
L 214.543676 -37.634602 
L 213.303472 -37.65355 
L 212.063268 -37.678445 
L 210.823064 -37.714724 
L 209.582861 -37.769642 
L 208.342657 -37.847884 
L 207.102453 -37.946701 
L 205.862249 -38.055305 
L 204.622045 -38.160757 
L 203.381841 -38.256823 
L 202.141637 -38.348975 
L 200.901433 -38.451672 
L 199.661229 -38.580018 
L 198.421026 -38.741744 
L 197.180822 -38.935935 
L 195.940618 -39.16134 
L 194.700414 -39.428777 
L 193.46021 -39.765311 
L 192.220006 -40.202752 
L 190.979802 -40.757843 
L 189.739598 -41.420642 
L 188.499395 -42.161094 
L 187.259191 -42.950044 
L 186.018987 -43.783189 
L 184.778783 -44.695762 
L 183.538579 -45.757221 
L 182.298375 -47.042252 
L 181.058171 -48.591297 
L 179.817967 -50.388245 
L 178.577763 -52.375975 
L 177.33756 -54.504471 
L 176.097356 -56.78275 
L 174.857152 -59.299934 
L 173.616948 -62.194571 
L 172.376744 -65.581466 
L 171.13654 -69.479226 
L 169.896336 -73.793476 
L 168.656132 -78.376748 
L 167.415929 -83.118212 
L 166.175725 -87.978043 
L 164.935521 -92.930896 
L 163.695317 -97.8828 
L 162.455113 -102.659194 
L 161.214909 -107.082242 
L 159.974705 -111.057729 
L 158.734501 -114.58972 
L 157.494298 -117.721723 
L 156.254094 -120.464867 
L 155.01389 -122.765063 
L 153.773686 -124.516146 
L 152.533482 -125.595272 
L 151.293278 -125.899128 
L 150.053074 -125.380101 
L 148.81287 -124.085027 
L 147.572666 -122.172786 
L 146.332463 -119.874163 
L 145.092259 -117.39931 
L 143.852055 -114.856398 
L 142.611851 -112.244169 
L 141.371647 -109.517075 
L 140.131443 -106.661612 
L 138.891239 -103.718739 
L 137.651035 -100.739041 
L 136.410832 -97.723034 
L 135.170628 -94.618934 
L 133.930424 -91.395151 
L 132.69022 -88.1242 
L 131.450016 -84.996241 
L 130.209812 -82.242649 
L 128.969608 -80.019486 
L 127.729404 -78.317844 
L 126.4892 -76.950786 
L 125.248997 -75.639633 
L 124.008793 -74.167228 
L 122.768589 -72.497622 
L 121.528385 -70.764404 
L 120.288181 -69.139313 
L 119.047977 -67.70537 
L 117.807773 -66.442443 
L 116.567569 -65.303931 
L 115.327366 -64.27473 
L 114.087162 -63.349606 
L 112.846958 -62.48042 
L 111.606754 -61.572236 
L 110.36655 -60.538243 
L 109.126346 -59.353365 
L 107.886142 -58.05805 
L 106.645938 -56.723587 
L 105.405735 -55.417286 
L 104.165531 -54.184267 
L 102.925327 -53.040914 
L 101.685123 -51.97745 
L 100.444919 -50.971417 
L 99.204715 -50.005921 
L 97.964511 -49.081313 
L 96.724307 -48.215239 
L 95.484103 -47.433672 
L 94.2439 -46.757187 
L 93.003696 -46.186603 
L 91.763492 -45.694307 
L 90.523288 -45.229326 
L 89.283084 -44.738809 
L 88.04288 -44.195004 
L 86.802676 -43.607972 
L 85.562472 -43.014194 
L 84.322269 -42.452014 
L 83.082065 -41.943064 
L 81.841861 -41.488654 
L 80.601657 -41.077761 
L 79.361453 -40.699081 
L 78.121249 -40.349106 
L 76.881045 -40.030123 
L 75.640841 -39.741031 
L 74.400637 -39.472982 
L 73.160434 -39.216634 
L 71.92023 -38.972532 
L 70.680026 -38.751565 
L 69.439822 -38.564961 
L 68.199618 -38.415037 
L 66.959414 -38.295076 
L 65.71921 -38.19598 
L 64.479006 -38.112089 
L 63.238803 -38.041722 
L 61.998599 -37.984135 
L 60.758395 -37.937334 
L 59.518191 -37.899018 
L 58.277987 -37.86875 
L 57.037783 -37.847924 
L 55.797579 -37.836866 
L 54.557375 -37.832041 
L 53.317172 -37.826718 
L 52.076968 -37.81491 
L 50.836764 -37.7951 
L 49.59656 -37.770371 
L 48.356356 -37.745171 
L 47.116152 -37.722238 
L 45.875948 -37.702562 
L 44.635744 -37.687256 
L 43.39554 -37.677951 
L 42.155337 -37.674695 
L 40.915133 -37.67406 
L 39.674929 -37.670315 
L 38.434725 -37.659069 
L 37.194521 -37.640141 
L 35.954317 -37.617303 
L 34.714113 -37.595596 
L 33.473909 -37.578659 
L 32.233706 -37.567722 
L 30.993502 -37.562234 
L 29.753298 -37.561081 
L 28.513094 -37.563364 
L 27.27289 -37.568285 
L 26.032686 -37.574493 
L 24.792482 -37.579803 
L 23.552278 -37.58195 
L 22.312074 -37.579959 
L 21.071871 -37.574884 
L 19.831667 -37.569182 
L 18.591463 -37.565342 
L 17.351259 -37.564861 
L 16.111055 -37.567918 
L 14.870851 -37.573345 
L 13.630647 -37.578847 
L 12.390443 -37.581821 
L 11.15024 -37.580736 
L 9.910036 -37.57604 
L 8.669832 -37.569744 
L 7.429628 -37.564011 
L 6.189424 -37.560015 
L 4.94922 -37.557791 
L 3.709016 -37.556782 
L 2.468812 -37.556406 
L 1.228609 -37.556296 
L -0.011595 -37.556297 
L -1.251799 -37.556411 
L -2.492003 -37.556796 
L -3.732207 -37.557825 
L -4.972411 -37.560083 
L -6.212615 -37.564122 
L -7.452819 -37.569884 
L -8.693023 -37.57617 
L -9.933226 -37.580799 
L -11.17343 -37.58177 
L -12.413634 -37.578627 
L -13.653838 -37.572801 
L -14.894042 -37.566576 
L -16.134246 -37.561684 
L -17.37445 -37.558662 
L -18.614654 -37.557153 
L -19.854857 -37.556535 
z
" style="stroke: #ff7f0e"/>
    </defs>
    <g clip-path="url(#p984946b210)">
     <use xlink:href="#m351880123a" x="0" y="168.594375" style="fill: #ff7f0e; fill-opacity: 0.25; stroke: #ff7f0e"/>
    </g>
   </g>
   <g id="PolyCollection_3">
    <defs>
     <path id="m5ceb652f4d" d="M -4.44223 -37.556768 
L -4.44223 -37.55625 
L -3.300942 -37.55625 
L -2.159653 -37.55625 
L -1.018365 -37.55625 
L 0.122924 -37.55625 
L 1.264213 -37.55625 
L 2.405501 -37.55625 
L 3.54679 -37.55625 
L 4.688078 -37.55625 
L 5.829367 -37.55625 
L 6.970656 -37.55625 
L 8.111944 -37.55625 
L 9.253233 -37.55625 
L 10.394521 -37.55625 
L 11.53581 -37.55625 
L 12.677099 -37.55625 
L 13.818387 -37.55625 
L 14.959676 -37.55625 
L 16.100964 -37.55625 
L 17.242253 -37.55625 
L 18.383542 -37.55625 
L 19.52483 -37.55625 
L 20.666119 -37.55625 
L 21.807407 -37.55625 
L 22.948696 -37.55625 
L 24.089985 -37.55625 
L 25.231273 -37.55625 
L 26.372562 -37.55625 
L 27.51385 -37.55625 
L 28.655139 -37.55625 
L 29.796428 -37.55625 
L 30.937716 -37.55625 
L 32.079005 -37.55625 
L 33.220293 -37.55625 
L 34.361582 -37.55625 
L 35.502871 -37.55625 
L 36.644159 -37.55625 
L 37.785448 -37.55625 
L 38.926736 -37.55625 
L 40.068025 -37.55625 
L 41.209314 -37.55625 
L 42.350602 -37.55625 
L 43.491891 -37.55625 
L 44.633179 -37.55625 
L 45.774468 -37.55625 
L 46.915757 -37.55625 
L 48.057045 -37.55625 
L 49.198334 -37.55625 
L 50.339622 -37.55625 
L 51.480911 -37.55625 
L 52.6222 -37.55625 
L 53.763488 -37.55625 
L 54.904777 -37.55625 
L 56.046065 -37.55625 
L 57.187354 -37.55625 
L 58.328643 -37.55625 
L 59.469931 -37.55625 
L 60.61122 -37.55625 
L 61.752508 -37.55625 
L 62.893797 -37.55625 
L 64.035086 -37.55625 
L 65.176374 -37.55625 
L 66.317663 -37.55625 
L 67.458951 -37.55625 
L 68.60024 -37.55625 
L 69.741529 -37.55625 
L 70.882817 -37.55625 
L 72.024106 -37.55625 
L 73.165394 -37.55625 
L 74.306683 -37.55625 
L 75.447972 -37.55625 
L 76.58926 -37.55625 
L 77.730549 -37.55625 
L 78.871837 -37.55625 
L 80.013126 -37.55625 
L 81.154415 -37.55625 
L 82.295703 -37.55625 
L 83.436992 -37.55625 
L 84.57828 -37.55625 
L 85.719569 -37.55625 
L 86.860858 -37.55625 
L 88.002146 -37.55625 
L 89.143435 -37.55625 
L 90.284723 -37.55625 
L 91.426012 -37.55625 
L 92.567301 -37.55625 
L 93.708589 -37.55625 
L 94.849878 -37.55625 
L 95.991166 -37.55625 
L 97.132455 -37.55625 
L 98.273744 -37.55625 
L 99.415032 -37.55625 
L 100.556321 -37.55625 
L 101.697609 -37.55625 
L 102.838898 -37.55625 
L 103.980187 -37.55625 
L 105.121475 -37.55625 
L 106.262764 -37.55625 
L 107.404052 -37.55625 
L 108.545341 -37.55625 
L 109.68663 -37.55625 
L 110.827918 -37.55625 
L 111.969207 -37.55625 
L 113.110495 -37.55625 
L 114.251784 -37.55625 
L 115.393073 -37.55625 
L 116.534361 -37.55625 
L 117.67565 -37.55625 
L 118.816938 -37.55625 
L 119.958227 -37.55625 
L 121.099516 -37.55625 
L 122.240804 -37.55625 
L 123.382093 -37.55625 
L 124.523381 -37.55625 
L 125.66467 -37.55625 
L 126.805959 -37.55625 
L 127.947247 -37.55625 
L 129.088536 -37.55625 
L 130.229824 -37.55625 
L 131.371113 -37.55625 
L 132.512402 -37.55625 
L 133.65369 -37.55625 
L 134.794979 -37.55625 
L 135.936267 -37.55625 
L 137.077556 -37.55625 
L 138.218845 -37.55625 
L 139.360133 -37.55625 
L 140.501422 -37.55625 
L 141.64271 -37.55625 
L 142.783999 -37.55625 
L 143.925288 -37.55625 
L 145.066576 -37.55625 
L 146.207865 -37.55625 
L 147.349153 -37.55625 
L 148.490442 -37.55625 
L 149.631731 -37.55625 
L 150.773019 -37.55625 
L 151.914308 -37.55625 
L 153.055596 -37.55625 
L 154.196885 -37.55625 
L 155.338174 -37.55625 
L 156.479462 -37.55625 
L 157.620751 -37.55625 
L 158.762039 -37.55625 
L 159.903328 -37.55625 
L 161.044617 -37.55625 
L 162.185905 -37.55625 
L 163.327194 -37.55625 
L 164.468482 -37.55625 
L 165.609771 -37.55625 
L 166.75106 -37.55625 
L 167.892348 -37.55625 
L 169.033637 -37.55625 
L 170.174925 -37.55625 
L 171.316214 -37.55625 
L 172.457503 -37.55625 
L 173.598791 -37.55625 
L 174.74008 -37.55625 
L 175.881368 -37.55625 
L 177.022657 -37.55625 
L 178.163946 -37.55625 
L 179.305234 -37.55625 
L 180.446523 -37.55625 
L 181.587811 -37.55625 
L 182.7291 -37.55625 
L 183.870389 -37.55625 
L 185.011677 -37.55625 
L 186.152966 -37.55625 
L 187.294254 -37.55625 
L 188.435543 -37.55625 
L 189.576832 -37.55625 
L 190.71812 -37.55625 
L 191.859409 -37.55625 
L 193.000697 -37.55625 
L 194.141986 -37.55625 
L 195.283275 -37.55625 
L 196.424563 -37.55625 
L 197.565852 -37.55625 
L 198.70714 -37.55625 
L 199.848429 -37.55625 
L 200.989718 -37.55625 
L 202.131006 -37.55625 
L 203.272295 -37.55625 
L 204.413583 -37.55625 
L 205.554872 -37.55625 
L 206.696161 -37.55625 
L 207.837449 -37.55625 
L 208.978738 -37.55625 
L 210.120026 -37.55625 
L 211.261315 -37.55625 
L 212.402604 -37.55625 
L 213.543892 -37.55625 
L 214.685181 -37.55625 
L 215.826469 -37.55625 
L 216.967758 -37.55625 
L 218.109047 -37.55625 
L 219.250335 -37.55625 
L 220.391624 -37.55625 
L 221.532912 -37.55625 
L 222.674201 -37.55625 
L 222.674201 -37.556804 
L 222.674201 -37.556804 
L 221.532912 -37.55755 
L 220.391624 -37.559062 
L 219.250335 -37.561864 
L 218.109047 -37.566598 
L 216.967758 -37.573872 
L 215.826469 -37.583994 
L 214.685181 -37.596657 
L 213.543892 -37.610728 
L 212.402604 -37.624303 
L 211.261315 -37.635112 
L 210.120026 -37.64121 
L 208.978738 -37.641697 
L 207.837449 -37.637158 
L 206.696161 -37.629611 
L 205.554872 -37.621985 
L 204.413583 -37.617379 
L 203.272295 -37.618457 
L 202.131006 -37.627257 
L 200.989718 -37.645447 
L 199.848429 -37.674767 
L 198.70714 -37.71728 
L 197.565852 -37.775131 
L 196.424563 -37.849772 
L 195.283275 -37.941004 
L 194.141986 -38.046339 
L 193.000697 -38.161176 
L 191.859409 -38.279927 
L 190.71812 -38.397841 
L 189.576832 -38.512832 
L 188.435543 -38.626561 
L 187.294254 -38.74426 
L 186.152966 -38.873422 
L 185.011677 -39.022 
L 183.870389 -39.197037 
L 182.7291 -39.404296 
L 181.587811 -39.648892 
L 180.446523 -39.936384 
L 179.305234 -40.273627 
L 178.163946 -40.668948 
L 177.022657 -41.131706 
L 175.881368 -41.671649 
L 174.74008 -42.298407 
L 173.598791 -43.021064 
L 172.457503 -43.847391 
L 171.316214 -44.782541 
L 170.174925 -45.827647 
L 169.033637 -46.979344 
L 167.892348 -48.231122 
L 166.75106 -49.57646 
L 165.609771 -51.012551 
L 164.468482 -52.542974 
L 163.327194 -54.178342 
L 162.185905 -55.93524 
L 161.044617 -57.8346 
L 159.903328 -59.900029 
L 158.762039 -62.15517 
L 157.620751 -64.618566 
L 156.479462 -67.296029 
L 155.338174 -70.173539 
L 154.196885 -73.215148 
L 153.055596 -76.368201 
L 151.914308 -79.573389 
L 150.773019 -82.77387 
L 149.631731 -85.919107 
L 148.490442 -88.963948 
L 147.349153 -91.867342 
L 146.207865 -94.594202 
L 145.066576 -97.119548 
L 143.925288 -99.430797 
L 142.783999 -101.525116 
L 141.64271 -103.403008 
L 140.501422 -105.06259 
L 139.360133 -106.49854 
L 138.218845 -107.706105 
L 137.077556 -108.686826 
L 135.936267 -109.451283 
L 134.794979 -110.015777 
L 133.65369 -110.393584 
L 132.512402 -110.585352 
L 131.371113 -110.574999 
L 130.229824 -110.335214 
L 129.088536 -109.840849 
L 127.947247 -109.082809 
L 126.805959 -108.074144 
L 125.66467 -106.845151 
L 124.523381 -105.431768 
L 123.382093 -103.865386 
L 122.240804 -102.169601 
L 121.099516 -100.363146 
L 119.958227 -98.463838 
L 118.816938 -96.489286 
L 117.67565 -94.45459 
L 116.534361 -92.37102 
L 115.393073 -90.249241 
L 114.251784 -88.106585 
L 113.110495 -85.973758 
L 111.969207 -83.895404 
L 110.827918 -81.92197 
L 109.68663 -80.095103 
L 108.545341 -78.432412 
L 107.404052 -76.918097 
L 106.262764 -75.50381 
L 105.121475 -74.120541 
L 103.980187 -72.698271 
L 102.838898 -71.187058 
L 101.697609 -69.572083 
L 100.556321 -67.87709 
L 99.415032 -66.155319 
L 98.273744 -64.472433 
L 97.132455 -62.889305 
L 95.991166 -61.451767 
L 94.849878 -60.189867 
L 93.708589 -59.123407 
L 92.567301 -58.267052 
L 91.426012 -57.629355 
L 90.284723 -57.20502 
L 89.143435 -56.965424 
L 88.002146 -56.854862 
L 86.860858 -56.797416 
L 85.719569 -56.713294 
L 84.57828 -56.537889 
L 83.436992 -56.23511 
L 82.295703 -55.79957 
L 81.154415 -55.247924 
L 80.013126 -54.604633 
L 78.871837 -53.889153 
L 77.730549 -53.109717 
L 76.58926 -52.264988 
L 75.447972 -51.35124 
L 74.306683 -50.370955 
L 73.165394 -49.338894 
L 72.024106 -48.283258 
L 70.882817 -47.241519 
L 69.741529 -46.252464 
L 68.60024 -45.347389 
L 67.458951 -44.543693 
L 66.317663 -43.842998 
L 65.176374 -43.233819 
L 64.035086 -42.696919 
L 62.893797 -42.210971 
L 61.752508 -41.756981 
L 60.61122 -41.321145 
L 59.469931 -40.896415 
L 58.328643 -40.482861 
L 57.187354 -40.086688 
L 56.046065 -39.717942 
L 54.904777 -39.38747 
L 53.763488 -39.10405 
L 52.6222 -38.87238 
L 51.480911 -38.692098 
L 50.339622 -38.557694 
L 49.198334 -38.459219 
L 48.057045 -38.383902 
L 46.915757 -38.318713 
L 45.774468 -38.25338 
L 44.633179 -38.182812 
L 43.491891 -38.107847 
L 42.350602 -38.033903 
L 41.209314 -37.968158 
L 40.068025 -37.916531 
L 38.926736 -37.881709 
L 37.785448 -37.862728 
L 36.644159 -37.855864 
L 35.502871 -37.856078 
L 34.361582 -37.858371 
L 33.220293 -37.85868 
L 32.079005 -37.854303 
L 30.937716 -37.843999 
L 29.796428 -37.827952 
L 28.655139 -37.80764 
L 27.51385 -37.785558 
L 26.372562 -37.764654 
L 25.231273 -37.74749 
L 24.089985 -37.735414 
L 22.948696 -37.728182 
L 21.807407 -37.72437 
L 20.666119 -37.722431 
L 19.52483 -37.721794 
L 18.383542 -37.72325 
L 17.242253 -37.728289 
L 16.100964 -37.737696 
L 14.959676 -37.750289 
L 13.818387 -37.762659 
L 12.677099 -37.770204 
L 11.53581 -37.768928 
L 10.394521 -37.75704 
L 9.253233 -37.735517 
L 8.111944 -37.707495 
L 6.970656 -37.676975 
L 5.829367 -37.647567 
L 4.688078 -37.621768 
L 3.54679 -37.600817 
L 2.405501 -37.584934 
L 1.264213 -37.57366 
L 0.122924 -37.566174 
L -1.018365 -37.561541 
L -2.159653 -37.558878 
L -3.300942 -37.557462 
L -4.44223 -37.556768 
z
" style="stroke: #1f77b4"/>
    </defs>
    <g clip-path="url(#p984946b210)">
     <use xlink:href="#m5ceb652f4d" x="0" y="168.594375" style="fill: #1f77b4; fill-opacity: 0.25; stroke: #1f77b4"/>
    </g>
   </g>
   <g id="matplotlib.axis_1">
    <g id="xtick_1">
     <g id="line2d_1">
      <defs>
       <path id="md25c6dc647" d="M 0 0 
L 0 3.5 
" style="stroke: #000000; stroke-width: 0.8"/>
      </defs>
      <g>
       <use xlink:href="#md25c6dc647" x="65.29065" y="131.038125" style="stroke: #000000; stroke-width: 0.8"/>
      </g>
     </g>
     <g id="text_1">
      <!-- $\mathdefault{10^{2}}$ -->
      <g transform="translate(56.49065 145.636562)scale(0.1 -0.1)">
       <defs>
        <path id="DejaVuSans-31" d="M 794 531 
L 1825 531 
L 1825 4091 
L 703 3866 
L 703 4441 
L 1819 4666 
L 2450 4666 
L 2450 531 
L 3481 531 
L 3481 0 
L 794 0 
L 794 531 
z
" transform="scale(0.015625)"/>
        <path id="DejaVuSans-30" d="M 2034 4250 
Q 1547 4250 1301 3770 
Q 1056 3291 1056 2328 
Q 1056 1369 1301 889 
Q 1547 409 2034 409 
Q 2525 409 2770 889 
Q 3016 1369 3016 2328 
Q 3016 3291 2770 3770 
Q 2525 4250 2034 4250 
z
M 2034 4750 
Q 2819 4750 3233 4129 
Q 3647 3509 3647 2328 
Q 3647 1150 3233 529 
Q 2819 -91 2034 -91 
Q 1250 -91 836 529 
Q 422 1150 422 2328 
Q 422 3509 836 4129 
Q 1250 4750 2034 4750 
z
" transform="scale(0.015625)"/>
        <path id="DejaVuSans-32" d="M 1228 531 
L 3431 531 
L 3431 0 
L 469 0 
L 469 531 
Q 828 903 1448 1529 
Q 2069 2156 2228 2338 
Q 2531 2678 2651 2914 
Q 2772 3150 2772 3378 
Q 2772 3750 2511 3984 
Q 2250 4219 1831 4219 
Q 1534 4219 1204 4116 
Q 875 4013 500 3803 
L 500 4441 
Q 881 4594 1212 4672 
Q 1544 4750 1819 4750 
Q 2544 4750 2975 4387 
Q 3406 4025 3406 3419 
Q 3406 3131 3298 2873 
Q 3191 2616 2906 2266 
Q 2828 2175 2409 1742 
Q 1991 1309 1228 531 
z
" transform="scale(0.015625)"/>
       </defs>
       <use xlink:href="#DejaVuSans-31" transform="translate(0 0.765625)"/>
       <use xlink:href="#DejaVuSans-30" transform="translate(63.623047 0.765625)"/>
       <use xlink:href="#DejaVuSans-32" transform="translate(128.203125 39.046875)scale(0.7)"/>
      </g>
     </g>
    </g>
    <g id="xtick_2">
     <g id="line2d_2">
      <g>
       <use xlink:href="#md25c6dc647" x="103.353925" y="131.038125" style="stroke: #000000; stroke-width: 0.8"/>
      </g>
     </g>
     <g id="text_2">
      <!-- $\mathdefault{10^{3}}$ -->
      <g transform="translate(94.553925 145.636562)scale(0.1 -0.1)">
       <defs>
        <path id="DejaVuSans-33" d="M 2597 2516 
Q 3050 2419 3304 2112 
Q 3559 1806 3559 1356 
Q 3559 666 3084 287 
Q 2609 -91 1734 -91 
Q 1441 -91 1130 -33 
Q 819 25 488 141 
L 488 750 
Q 750 597 1062 519 
Q 1375 441 1716 441 
Q 2309 441 2620 675 
Q 2931 909 2931 1356 
Q 2931 1769 2642 2001 
Q 2353 2234 1838 2234 
L 1294 2234 
L 1294 2753 
L 1863 2753 
Q 2328 2753 2575 2939 
Q 2822 3125 2822 3475 
Q 2822 3834 2567 4026 
Q 2313 4219 1838 4219 
Q 1578 4219 1281 4162 
Q 984 4106 628 3988 
L 628 4550 
Q 988 4650 1302 4700 
Q 1616 4750 1894 4750 
Q 2613 4750 3031 4423 
Q 3450 4097 3450 3541 
Q 3450 3153 3228 2886 
Q 3006 2619 2597 2516 
z
" transform="scale(0.015625)"/>
       </defs>
       <use xlink:href="#DejaVuSans-31" transform="translate(0 0.765625)"/>
       <use xlink:href="#DejaVuSans-30" transform="translate(63.623047 0.765625)"/>
       <use xlink:href="#DejaVuSans-33" transform="translate(128.203125 39.046875)scale(0.7)"/>
      </g>
     </g>
    </g>
    <g id="xtick_3">
     <g id="line2d_3">
      <g>
       <use xlink:href="#md25c6dc647" x="141.4172" y="131.038125" style="stroke: #000000; stroke-width: 0.8"/>
      </g>
     </g>
     <g id="text_3">
      <!-- $\mathdefault{10^{4}}$ -->
      <g transform="translate(132.6172 145.636562)scale(0.1 -0.1)">
       <defs>
        <path id="DejaVuSans-34" d="M 2419 4116 
L 825 1625 
L 2419 1625 
L 2419 4116 
z
M 2253 4666 
L 3047 4666 
L 3047 1625 
L 3713 1625 
L 3713 1100 
L 3047 1100 
L 3047 0 
L 2419 0 
L 2419 1100 
L 313 1100 
L 313 1709 
L 2253 4666 
z
" transform="scale(0.015625)"/>
       </defs>
       <use xlink:href="#DejaVuSans-31" transform="translate(0 0.684375)"/>
       <use xlink:href="#DejaVuSans-30" transform="translate(63.623047 0.684375)"/>
       <use xlink:href="#DejaVuSans-34" transform="translate(128.203125 38.965625)scale(0.7)"/>
      </g>
     </g>
    </g>
    <g id="xtick_4">
     <g id="line2d_4">
      <g>
       <use xlink:href="#md25c6dc647" x="179.480475" y="131.038125" style="stroke: #000000; stroke-width: 0.8"/>
      </g>
     </g>
     <g id="text_4">
      <!-- $\mathdefault{10^{5}}$ -->
      <g transform="translate(170.680475 145.636562)scale(0.1 -0.1)">
       <defs>
        <path id="DejaVuSans-35" d="M 691 4666 
L 3169 4666 
L 3169 4134 
L 1269 4134 
L 1269 2991 
Q 1406 3038 1543 3061 
Q 1681 3084 1819 3084 
Q 2600 3084 3056 2656 
Q 3513 2228 3513 1497 
Q 3513 744 3044 326 
Q 2575 -91 1722 -91 
Q 1428 -91 1123 -41 
Q 819 9 494 109 
L 494 744 
Q 775 591 1075 516 
Q 1375 441 1709 441 
Q 2250 441 2565 725 
Q 2881 1009 2881 1497 
Q 2881 1984 2565 2268 
Q 2250 2553 1709 2553 
Q 1456 2553 1204 2497 
Q 953 2441 691 2322 
L 691 4666 
z
" transform="scale(0.015625)"/>
       </defs>
       <use xlink:href="#DejaVuSans-31" transform="translate(0 0.684375)"/>
       <use xlink:href="#DejaVuSans-30" transform="translate(63.623047 0.684375)"/>
       <use xlink:href="#DejaVuSans-35" transform="translate(128.203125 38.965625)scale(0.7)"/>
      </g>
     </g>
    </g>
    <g id="xtick_5">
     <g id="line2d_5">
      <g>
       <use xlink:href="#md25c6dc647" x="217.54375" y="131.038125" style="stroke: #000000; stroke-width: 0.8"/>
      </g>
     </g>
     <g id="text_5">
      <!-- $\mathdefault{10^{6}}$ -->
      <g transform="translate(208.74375 145.636562)scale(0.1 -0.1)">
       <defs>
        <path id="DejaVuSans-36" d="M 2113 2584 
Q 1688 2584 1439 2293 
Q 1191 2003 1191 1497 
Q 1191 994 1439 701 
Q 1688 409 2113 409 
Q 2538 409 2786 701 
Q 3034 994 3034 1497 
Q 3034 2003 2786 2293 
Q 2538 2584 2113 2584 
z
M 3366 4563 
L 3366 3988 
Q 3128 4100 2886 4159 
Q 2644 4219 2406 4219 
Q 1781 4219 1451 3797 
Q 1122 3375 1075 2522 
Q 1259 2794 1537 2939 
Q 1816 3084 2150 3084 
Q 2853 3084 3261 2657 
Q 3669 2231 3669 1497 
Q 3669 778 3244 343 
Q 2819 -91 2113 -91 
Q 1303 -91 875 529 
Q 447 1150 447 2328 
Q 447 3434 972 4092 
Q 1497 4750 2381 4750 
Q 2619 4750 2861 4703 
Q 3103 4656 3366 4563 
z
" transform="scale(0.015625)"/>
       </defs>
       <use xlink:href="#DejaVuSans-31" transform="translate(0 0.765625)"/>
       <use xlink:href="#DejaVuSans-30" transform="translate(63.623047 0.765625)"/>
       <use xlink:href="#DejaVuSans-36" transform="translate(128.203125 39.046875)scale(0.7)"/>
      </g>
     </g>
    </g>
    <g id="xtick_6">
     <g id="line2d_6">
      <defs>
       <path id="mf2af152aa8" d="M 0 0 
L 0 2 
" style="stroke: #000000; stroke-width: 0.6"/>
      </defs>
      <g>
       <use xlink:href="#mf2af152aa8" x="50.14375" y="131.038125" style="stroke: #000000; stroke-width: 0.6"/>
      </g>
     </g>
    </g>
    <g id="xtick_7">
     <g id="line2d_7">
      <g>
       <use xlink:href="#mf2af152aa8" x="53.832462" y="131.038125" style="stroke: #000000; stroke-width: 0.6"/>
      </g>
     </g>
    </g>
    <g id="xtick_8">
     <g id="line2d_8">
      <g>
       <use xlink:href="#mf2af152aa8" x="56.84636" y="131.038125" style="stroke: #000000; stroke-width: 0.6"/>
      </g>
     </g>
    </g>
    <g id="xtick_9">
     <g id="line2d_9">
      <g>
       <use xlink:href="#mf2af152aa8" x="59.394574" y="131.038125" style="stroke: #000000; stroke-width: 0.6"/>
      </g>
     </g>
    </g>
    <g id="xtick_10">
     <g id="line2d_10">
      <g>
       <use xlink:href="#mf2af152aa8" x="61.601938" y="131.038125" style="stroke: #000000; stroke-width: 0.6"/>
      </g>
     </g>
    </g>
    <g id="xtick_11">
     <g id="line2d_11">
      <g>
       <use xlink:href="#mf2af152aa8" x="63.54897" y="131.038125" style="stroke: #000000; stroke-width: 0.6"/>
      </g>
     </g>
    </g>
    <g id="xtick_12">
     <g id="line2d_12">
      <g>
       <use xlink:href="#mf2af152aa8" x="76.748837" y="131.038125" style="stroke: #000000; stroke-width: 0.6"/>
      </g>
     </g>
    </g>
    <g id="xtick_13">
     <g id="line2d_13">
      <g>
       <use xlink:href="#mf2af152aa8" x="83.451448" y="131.038125" style="stroke: #000000; stroke-width: 0.6"/>
      </g>
     </g>
    </g>
    <g id="xtick_14">
     <g id="line2d_14">
      <g>
       <use xlink:href="#mf2af152aa8" x="88.207025" y="131.038125" style="stroke: #000000; stroke-width: 0.6"/>
      </g>
     </g>
    </g>
    <g id="xtick_15">
     <g id="line2d_15">
      <g>
       <use xlink:href="#mf2af152aa8" x="91.895737" y="131.038125" style="stroke: #000000; stroke-width: 0.6"/>
      </g>
     </g>
    </g>
    <g id="xtick_16">
     <g id="line2d_16">
      <g>
       <use xlink:href="#mf2af152aa8" x="94.909635" y="131.038125" style="stroke: #000000; stroke-width: 0.6"/>
      </g>
     </g>
    </g>
    <g id="xtick_17">
     <g id="line2d_17">
      <g>
       <use xlink:href="#mf2af152aa8" x="97.457849" y="131.038125" style="stroke: #000000; stroke-width: 0.6"/>
      </g>
     </g>
    </g>
    <g id="xtick_18">
     <g id="line2d_18">
      <g>
       <use xlink:href="#mf2af152aa8" x="99.665213" y="131.038125" style="stroke: #000000; stroke-width: 0.6"/>
      </g>
     </g>
    </g>
    <g id="xtick_19">
     <g id="line2d_19">
      <g>
       <use xlink:href="#mf2af152aa8" x="101.612245" y="131.038125" style="stroke: #000000; stroke-width: 0.6"/>
      </g>
     </g>
    </g>
    <g id="xtick_20">
     <g id="line2d_20">
      <g>
       <use xlink:href="#mf2af152aa8" x="114.812112" y="131.038125" style="stroke: #000000; stroke-width: 0.6"/>
      </g>
     </g>
    </g>
    <g id="xtick_21">
     <g id="line2d_21">
      <g>
       <use xlink:href="#mf2af152aa8" x="121.514723" y="131.038125" style="stroke: #000000; stroke-width: 0.6"/>
      </g>
     </g>
    </g>
    <g id="xtick_22">
     <g id="line2d_22">
      <g>
       <use xlink:href="#mf2af152aa8" x="126.2703" y="131.038125" style="stroke: #000000; stroke-width: 0.6"/>
      </g>
     </g>
    </g>
    <g id="xtick_23">
     <g id="line2d_23">
      <g>
       <use xlink:href="#mf2af152aa8" x="129.959012" y="131.038125" style="stroke: #000000; stroke-width: 0.6"/>
      </g>
     </g>
    </g>
    <g id="xtick_24">
     <g id="line2d_24">
      <g>
       <use xlink:href="#mf2af152aa8" x="132.97291" y="131.038125" style="stroke: #000000; stroke-width: 0.6"/>
      </g>
     </g>
    </g>
    <g id="xtick_25">
     <g id="line2d_25">
      <g>
       <use xlink:href="#mf2af152aa8" x="135.521124" y="131.038125" style="stroke: #000000; stroke-width: 0.6"/>
      </g>
     </g>
    </g>
    <g id="xtick_26">
     <g id="line2d_26">
      <g>
       <use xlink:href="#mf2af152aa8" x="137.728488" y="131.038125" style="stroke: #000000; stroke-width: 0.6"/>
      </g>
     </g>
    </g>
    <g id="xtick_27">
     <g id="line2d_27">
      <g>
       <use xlink:href="#mf2af152aa8" x="139.67552" y="131.038125" style="stroke: #000000; stroke-width: 0.6"/>
      </g>
     </g>
    </g>
    <g id="xtick_28">
     <g id="line2d_28">
      <g>
       <use xlink:href="#mf2af152aa8" x="152.875388" y="131.038125" style="stroke: #000000; stroke-width: 0.6"/>
      </g>
     </g>
    </g>
    <g id="xtick_29">
     <g id="line2d_29">
      <g>
       <use xlink:href="#mf2af152aa8" x="159.577998" y="131.038125" style="stroke: #000000; stroke-width: 0.6"/>
      </g>
     </g>
    </g>
    <g id="xtick_30">
     <g id="line2d_30">
      <g>
       <use xlink:href="#mf2af152aa8" x="164.333575" y="131.038125" style="stroke: #000000; stroke-width: 0.6"/>
      </g>
     </g>
    </g>
    <g id="xtick_31">
     <g id="line2d_31">
      <g>
       <use xlink:href="#mf2af152aa8" x="168.022287" y="131.038125" style="stroke: #000000; stroke-width: 0.6"/>
      </g>
     </g>
    </g>
    <g id="xtick_32">
     <g id="line2d_32">
      <g>
       <use xlink:href="#mf2af152aa8" x="171.036185" y="131.038125" style="stroke: #000000; stroke-width: 0.6"/>
      </g>
     </g>
    </g>
    <g id="xtick_33">
     <g id="line2d_33">
      <g>
       <use xlink:href="#mf2af152aa8" x="173.584399" y="131.038125" style="stroke: #000000; stroke-width: 0.6"/>
      </g>
     </g>
    </g>
    <g id="xtick_34">
     <g id="line2d_34">
      <g>
       <use xlink:href="#mf2af152aa8" x="175.791763" y="131.038125" style="stroke: #000000; stroke-width: 0.6"/>
      </g>
     </g>
    </g>
    <g id="xtick_35">
     <g id="line2d_35">
      <g>
       <use xlink:href="#mf2af152aa8" x="177.738795" y="131.038125" style="stroke: #000000; stroke-width: 0.6"/>
      </g>
     </g>
    </g>
    <g id="xtick_36">
     <g id="line2d_36">
      <g>
       <use xlink:href="#mf2af152aa8" x="190.938663" y="131.038125" style="stroke: #000000; stroke-width: 0.6"/>
      </g>
     </g>
    </g>
    <g id="xtick_37">
     <g id="line2d_37">
      <g>
       <use xlink:href="#mf2af152aa8" x="197.641273" y="131.038125" style="stroke: #000000; stroke-width: 0.6"/>
      </g>
     </g>
    </g>
    <g id="xtick_38">
     <g id="line2d_38">
      <g>
       <use xlink:href="#mf2af152aa8" x="202.39685" y="131.038125" style="stroke: #000000; stroke-width: 0.6"/>
      </g>
     </g>
    </g>
    <g id="xtick_39">
     <g id="line2d_39">
      <g>
       <use xlink:href="#mf2af152aa8" x="206.085562" y="131.038125" style="stroke: #000000; stroke-width: 0.6"/>
      </g>
     </g>
    </g>
    <g id="xtick_40">
     <g id="line2d_40">
      <g>
       <use xlink:href="#mf2af152aa8" x="209.09946" y="131.038125" style="stroke: #000000; stroke-width: 0.6"/>
      </g>
     </g>
    </g>
    <g id="xtick_41">
     <g id="line2d_41">
      <g>
       <use xlink:href="#mf2af152aa8" x="211.647674" y="131.038125" style="stroke: #000000; stroke-width: 0.6"/>
      </g>
     </g>
    </g>
    <g id="xtick_42">
     <g id="line2d_42">
      <g>
       <use xlink:href="#mf2af152aa8" x="213.855038" y="131.038125" style="stroke: #000000; stroke-width: 0.6"/>
      </g>
     </g>
    </g>
    <g id="xtick_43">
     <g id="line2d_43">
      <g>
       <use xlink:href="#mf2af152aa8" x="215.80207" y="131.038125" style="stroke: #000000; stroke-width: 0.6"/>
      </g>
     </g>
    </g>
    <g id="text_6">
     <!-- mRuby2-A -->
     <g transform="translate(108.128906 159.314687)scale(0.1 -0.1)">
      <defs>
       <path id="DejaVuSans-6d" d="M 3328 2828 
Q 3544 3216 3844 3400 
Q 4144 3584 4550 3584 
Q 5097 3584 5394 3201 
Q 5691 2819 5691 2113 
L 5691 0 
L 5113 0 
L 5113 2094 
Q 5113 2597 4934 2840 
Q 4756 3084 4391 3084 
Q 3944 3084 3684 2787 
Q 3425 2491 3425 1978 
L 3425 0 
L 2847 0 
L 2847 2094 
Q 2847 2600 2669 2842 
Q 2491 3084 2119 3084 
Q 1678 3084 1418 2786 
Q 1159 2488 1159 1978 
L 1159 0 
L 581 0 
L 581 3500 
L 1159 3500 
L 1159 2956 
Q 1356 3278 1631 3431 
Q 1906 3584 2284 3584 
Q 2666 3584 2933 3390 
Q 3200 3197 3328 2828 
z
" transform="scale(0.015625)"/>
       <path id="DejaVuSans-52" d="M 2841 2188 
Q 3044 2119 3236 1894 
Q 3428 1669 3622 1275 
L 4263 0 
L 3584 0 
L 2988 1197 
Q 2756 1666 2539 1819 
Q 2322 1972 1947 1972 
L 1259 1972 
L 1259 0 
L 628 0 
L 628 4666 
L 2053 4666 
Q 2853 4666 3247 4331 
Q 3641 3997 3641 3322 
Q 3641 2881 3436 2590 
Q 3231 2300 2841 2188 
z
M 1259 4147 
L 1259 2491 
L 2053 2491 
Q 2509 2491 2742 2702 
Q 2975 2913 2975 3322 
Q 2975 3731 2742 3939 
Q 2509 4147 2053 4147 
L 1259 4147 
z
" transform="scale(0.015625)"/>
       <path id="DejaVuSans-75" d="M 544 1381 
L 544 3500 
L 1119 3500 
L 1119 1403 
Q 1119 906 1312 657 
Q 1506 409 1894 409 
Q 2359 409 2629 706 
Q 2900 1003 2900 1516 
L 2900 3500 
L 3475 3500 
L 3475 0 
L 2900 0 
L 2900 538 
Q 2691 219 2414 64 
Q 2138 -91 1772 -91 
Q 1169 -91 856 284 
Q 544 659 544 1381 
z
M 1991 3584 
L 1991 3584 
z
" transform="scale(0.015625)"/>
       <path id="DejaVuSans-62" d="M 3116 1747 
Q 3116 2381 2855 2742 
Q 2594 3103 2138 3103 
Q 1681 3103 1420 2742 
Q 1159 2381 1159 1747 
Q 1159 1113 1420 752 
Q 1681 391 2138 391 
Q 2594 391 2855 752 
Q 3116 1113 3116 1747 
z
M 1159 2969 
Q 1341 3281 1617 3432 
Q 1894 3584 2278 3584 
Q 2916 3584 3314 3078 
Q 3713 2572 3713 1747 
Q 3713 922 3314 415 
Q 2916 -91 2278 -91 
Q 1894 -91 1617 61 
Q 1341 213 1159 525 
L 1159 0 
L 581 0 
L 581 4863 
L 1159 4863 
L 1159 2969 
z
" transform="scale(0.015625)"/>
       <path id="DejaVuSans-79" d="M 2059 -325 
Q 1816 -950 1584 -1140 
Q 1353 -1331 966 -1331 
L 506 -1331 
L 506 -850 
L 844 -850 
Q 1081 -850 1212 -737 
Q 1344 -625 1503 -206 
L 1606 56 
L 191 3500 
L 800 3500 
L 1894 763 
L 2988 3500 
L 3597 3500 
L 2059 -325 
z
" transform="scale(0.015625)"/>
       <path id="DejaVuSans-2d" d="M 313 2009 
L 1997 2009 
L 1997 1497 
L 313 1497 
L 313 2009 
z
" transform="scale(0.015625)"/>
       <path id="DejaVuSans-41" d="M 2188 4044 
L 1331 1722 
L 3047 1722 
L 2188 4044 
z
M 1831 4666 
L 2547 4666 
L 4325 0 
L 3669 0 
L 3244 1197 
L 1141 1197 
L 716 0 
L 50 0 
L 1831 4666 
z
" transform="scale(0.015625)"/>
      </defs>
      <use xlink:href="#DejaVuSans-6d"/>
      <use xlink:href="#DejaVuSans-52" x="97.412109"/>
      <use xlink:href="#DejaVuSans-75" x="162.394531"/>
      <use xlink:href="#DejaVuSans-62" x="225.773438"/>
      <use xlink:href="#DejaVuSans-79" x="289.25"/>
      <use xlink:href="#DejaVuSans-32" x="348.429688"/>
      <use xlink:href="#DejaVuSans-2d" x="412.052734"/>
      <use xlink:href="#DejaVuSans-41" x="445.886719"/>
     </g>
    </g>
   </g>
   <g id="matplotlib.axis_2">
    <g id="ytick_1">
     <g id="line2d_44">
      <defs>
       <path id="m87658093e8" d="M 0 0 
L -3.5 0 
" style="stroke: #000000; stroke-width: 0.8"/>
      </defs>
      <g>
       <use xlink:href="#m87658093e8" x="50.14375" y="131.038125" style="stroke: #000000; stroke-width: 0.8"/>
      </g>
     </g>
     <g id="text_7">
      <!-- 0.00 -->
      <g transform="translate(20.878125 134.837344)scale(0.1 -0.1)">
       <defs>
        <path id="DejaVuSans-2e" d="M 684 794 
L 1344 794 
L 1344 0 
L 684 0 
L 684 794 
z
" transform="scale(0.015625)"/>
       </defs>
       <use xlink:href="#DejaVuSans-30"/>
       <use xlink:href="#DejaVuSans-2e" x="63.623047"/>
       <use xlink:href="#DejaVuSans-30" x="95.410156"/>
       <use xlink:href="#DejaVuSans-30" x="159.033203"/>
      </g>
     </g>
    </g>
    <g id="ytick_2">
     <g id="line2d_45">
      <g>
       <use xlink:href="#m87658093e8" x="50.14375" y="104.294712" style="stroke: #000000; stroke-width: 0.8"/>
      </g>
     </g>
     <g id="text_8">
      <!-- 0.25 -->
      <g transform="translate(20.878125 108.093931)scale(0.1 -0.1)">
       <use xlink:href="#DejaVuSans-30"/>
       <use xlink:href="#DejaVuSans-2e" x="63.623047"/>
       <use xlink:href="#DejaVuSans-32" x="95.410156"/>
       <use xlink:href="#DejaVuSans-35" x="159.033203"/>
      </g>
     </g>
    </g>
    <g id="ytick_3">
     <g id="line2d_46">
      <g>
       <use xlink:href="#m87658093e8" x="50.14375" y="77.551299" style="stroke: #000000; stroke-width: 0.8"/>
      </g>
     </g>
     <g id="text_9">
      <!-- 0.50 -->
      <g transform="translate(20.878125 81.350518)scale(0.1 -0.1)">
       <use xlink:href="#DejaVuSans-30"/>
       <use xlink:href="#DejaVuSans-2e" x="63.623047"/>
       <use xlink:href="#DejaVuSans-35" x="95.410156"/>
       <use xlink:href="#DejaVuSans-30" x="159.033203"/>
      </g>
     </g>
    </g>
    <g id="ytick_4">
     <g id="line2d_47">
      <g>
       <use xlink:href="#m87658093e8" x="50.14375" y="50.807886" style="stroke: #000000; stroke-width: 0.8"/>
      </g>
     </g>
     <g id="text_10">
      <!-- 0.75 -->
      <g transform="translate(20.878125 54.607105)scale(0.1 -0.1)">
       <defs>
        <path id="DejaVuSans-37" d="M 525 4666 
L 3525 4666 
L 3525 4397 
L 1831 0 
L 1172 0 
L 2766 4134 
L 525 4134 
L 525 4666 
z
" transform="scale(0.015625)"/>
       </defs>
       <use xlink:href="#DejaVuSans-30"/>
       <use xlink:href="#DejaVuSans-2e" x="63.623047"/>
       <use xlink:href="#DejaVuSans-37" x="95.410156"/>
       <use xlink:href="#DejaVuSans-35" x="159.033203"/>
      </g>
     </g>
    </g>
    <g id="ytick_5">
     <g id="line2d_48">
      <g>
       <use xlink:href="#m87658093e8" x="50.14375" y="24.064473" style="stroke: #000000; stroke-width: 0.8"/>
      </g>
     </g>
     <g id="text_11">
      <!-- 1.00 -->
      <g transform="translate(20.878125 27.863692)scale(0.1 -0.1)">
       <use xlink:href="#DejaVuSans-31"/>
       <use xlink:href="#DejaVuSans-2e" x="63.623047"/>
       <use xlink:href="#DejaVuSans-30" x="95.410156"/>
       <use xlink:href="#DejaVuSans-30" x="159.033203"/>
      </g>
     </g>
    </g>
    <g id="text_12">
     <!-- Density -->
     <g transform="translate(14.798437 95.686719)rotate(-90)scale(0.1 -0.1)">
      <defs>
       <path id="DejaVuSans-44" d="M 1259 4147 
L 1259 519 
L 2022 519 
Q 2988 519 3436 956 
Q 3884 1394 3884 2338 
Q 3884 3275 3436 3711 
Q 2988 4147 2022 4147 
L 1259 4147 
z
M 628 4666 
L 1925 4666 
Q 3281 4666 3915 4102 
Q 4550 3538 4550 2338 
Q 4550 1131 3912 565 
Q 3275 0 1925 0 
L 628 0 
L 628 4666 
z
" transform="scale(0.015625)"/>
       <path id="DejaVuSans-65" d="M 3597 1894 
L 3597 1613 
L 953 1613 
Q 991 1019 1311 708 
Q 1631 397 2203 397 
Q 2534 397 2845 478 
Q 3156 559 3463 722 
L 3463 178 
Q 3153 47 2828 -22 
Q 2503 -91 2169 -91 
Q 1331 -91 842 396 
Q 353 884 353 1716 
Q 353 2575 817 3079 
Q 1281 3584 2069 3584 
Q 2775 3584 3186 3129 
Q 3597 2675 3597 1894 
z
M 3022 2063 
Q 3016 2534 2758 2815 
Q 2500 3097 2075 3097 
Q 1594 3097 1305 2825 
Q 1016 2553 972 2059 
L 3022 2063 
z
" transform="scale(0.015625)"/>
       <path id="DejaVuSans-6e" d="M 3513 2113 
L 3513 0 
L 2938 0 
L 2938 2094 
Q 2938 2591 2744 2837 
Q 2550 3084 2163 3084 
Q 1697 3084 1428 2787 
Q 1159 2491 1159 1978 
L 1159 0 
L 581 0 
L 581 3500 
L 1159 3500 
L 1159 2956 
Q 1366 3272 1645 3428 
Q 1925 3584 2291 3584 
Q 2894 3584 3203 3211 
Q 3513 2838 3513 2113 
z
" transform="scale(0.015625)"/>
       <path id="DejaVuSans-73" d="M 2834 3397 
L 2834 2853 
Q 2591 2978 2328 3040 
Q 2066 3103 1784 3103 
Q 1356 3103 1142 2972 
Q 928 2841 928 2578 
Q 928 2378 1081 2264 
Q 1234 2150 1697 2047 
L 1894 2003 
Q 2506 1872 2764 1633 
Q 3022 1394 3022 966 
Q 3022 478 2636 193 
Q 2250 -91 1575 -91 
Q 1294 -91 989 -36 
Q 684 19 347 128 
L 347 722 
Q 666 556 975 473 
Q 1284 391 1588 391 
Q 1994 391 2212 530 
Q 2431 669 2431 922 
Q 2431 1156 2273 1281 
Q 2116 1406 1581 1522 
L 1381 1569 
Q 847 1681 609 1914 
Q 372 2147 372 2553 
Q 372 3047 722 3315 
Q 1072 3584 1716 3584 
Q 2034 3584 2315 3537 
Q 2597 3491 2834 3397 
z
" transform="scale(0.015625)"/>
       <path id="DejaVuSans-69" d="M 603 3500 
L 1178 3500 
L 1178 0 
L 603 0 
L 603 3500 
z
M 603 4863 
L 1178 4863 
L 1178 4134 
L 603 4134 
L 603 4863 
z
" transform="scale(0.015625)"/>
       <path id="DejaVuSans-74" d="M 1172 4494 
L 1172 3500 
L 2356 3500 
L 2356 3053 
L 1172 3053 
L 1172 1153 
Q 1172 725 1289 603 
Q 1406 481 1766 481 
L 2356 481 
L 2356 0 
L 1766 0 
Q 1100 0 847 248 
Q 594 497 594 1153 
L 594 3053 
L 172 3053 
L 172 3500 
L 594 3500 
L 594 4494 
L 1172 4494 
z
" transform="scale(0.015625)"/>
      </defs>
      <use xlink:href="#DejaVuSans-44"/>
      <use xlink:href="#DejaVuSans-65" x="77.001953"/>
      <use xlink:href="#DejaVuSans-6e" x="138.525391"/>
      <use xlink:href="#DejaVuSans-73" x="201.904297"/>
      <use xlink:href="#DejaVuSans-69" x="254.003906"/>
      <use xlink:href="#DejaVuSans-74" x="281.787109"/>
      <use xlink:href="#DejaVuSans-79" x="320.996094"/>
     </g>
    </g>
   </g>
   <g id="line2d_49">
    <path d="M -1 130.63279 
L -0.075052 130.454827 
L 0.921746 130.414135 
L 3.912143 130.828131 
L 4.908941 130.727615 
L 6.902539 130.306851 
L 7.899338 130.301666 
L 9.892935 130.534153 
L 16.870526 130.157315 
L 25.841715 129.172635 
L 30.825709 128.51298 
L 32.819306 128.221924 
L 38.800099 126.80501 
L 40.793696 126.10646 
L 41.790495 125.564687 
L 43.784093 124.145643 
L 46.774489 121.966803 
L 48.768086 120.563353 
L 50.761684 118.83952 
L 52.755281 116.724071 
L 54.748879 114.049357 
L 57.739275 109.483677 
L 58.736074 107.625734 
L 59.732873 105.379986 
L 60.729671 102.736788 
L 61.72647 99.721156 
L 63.720068 92.634256 
L 67.707263 76.912025 
L 69.70086 68.059321 
L 73.688055 49.119952 
L 75.681652 41.798453 
L 77.67525 35.282635 
L 78.672049 32.515925 
L 79.668847 30.591042 
L 80.665646 29.541602 
L 83.656042 27.614646 
L 84.652841 27.495268 
L 85.64964 28.133577 
L 86.646439 29.437978 
L 87.643237 31.191434 
L 88.640036 33.262824 
L 90.633634 38.151887 
L 92.627231 43.930734 
L 95.617627 53.096056 
L 97.611225 59.07052 
L 98.608024 62.593147 
L 101.59842 74.326418 
L 104.588816 83.995214 
L 108.576011 98.330003 
L 111.566407 107.763425 
L 113.560005 113.509315 
L 114.556804 115.978849 
L 115.553602 117.982488 
L 117.5472 121.108372 
L 119.540797 123.909256 
L 120.537596 125.02324 
L 121.534395 125.883954 
L 123.527992 127.146043 
L 126.518389 128.76244 
L 128.511986 129.510939 
L 130.505584 129.99224 
L 133.49598 130.40034 
L 138.479974 130.841791 
L 143.463967 130.970805 
L 149.44476 131.024765 
L 182.339118 131.03802 
L 182.339118 131.03802 
" clip-path="url(#p984946b210)" style="fill: none; stroke-dasharray: 5.55,2.4; stroke-dashoffset: 0; stroke: #808080; stroke-width: 1.5"/>
   </g>
   <g id="patch_3">
    <path d="M 50.14375 131.038125 
L 50.14375 22.318125 
" style="fill: none; stroke: #000000; stroke-width: 0.8; stroke-linejoin: miter; stroke-linecap: square"/>
   </g>
   <g id="patch_4">
    <path d="M 217.54375 131.038125 
L 217.54375 22.318125 
" style="fill: none; stroke: #000000; stroke-width: 0.8; stroke-linejoin: miter; stroke-linecap: square"/>
   </g>
   <g id="patch_5">
    <path d="M 50.14375 131.038125 
L 217.54375 131.038125 
" style="fill: none; stroke: #000000; stroke-width: 0.8; stroke-linejoin: miter; stroke-linecap: square"/>
   </g>
   <g id="patch_6">
    <path d="M 50.14375 22.318125 
L 217.54375 22.318125 
" style="fill: none; stroke: #000000; stroke-width: 0.8; stroke-linejoin: miter; stroke-linecap: square"/>
   </g>
   <g id="text_13">
    <!-- Neg -->
    <g style="fill: #808080" transform="translate(73.632344 76.678125)scale(0.1 -0.1)">
     <defs>
      <path id="DejaVuSans-4e" d="M 628 4666 
L 1478 4666 
L 3547 763 
L 3547 4666 
L 4159 4666 
L 4159 0 
L 3309 0 
L 1241 3903 
L 1241 0 
L 628 0 
L 628 4666 
z
" transform="scale(0.015625)"/>
      <path id="DejaVuSans-67" d="M 2906 1791 
Q 2906 2416 2648 2759 
Q 2391 3103 1925 3103 
Q 1463 3103 1205 2759 
Q 947 2416 947 1791 
Q 947 1169 1205 825 
Q 1463 481 1925 481 
Q 2391 481 2648 825 
Q 2906 1169 2906 1791 
z
M 3481 434 
Q 3481 -459 3084 -895 
Q 2688 -1331 1869 -1331 
Q 1566 -1331 1297 -1286 
Q 1028 -1241 775 -1147 
L 775 -588 
Q 1028 -725 1275 -790 
Q 1522 -856 1778 -856 
Q 2344 -856 2625 -561 
Q 2906 -266 2906 331 
L 2906 616 
Q 2728 306 2450 153 
Q 2172 0 1784 0 
Q 1141 0 747 490 
Q 353 981 353 1791 
Q 353 2603 747 3093 
Q 1141 3584 1784 3584 
Q 2172 3584 2450 3431 
Q 2728 3278 2906 2969 
L 2906 3500 
L 3481 3500 
L 3481 434 
z
" transform="scale(0.015625)"/>
     </defs>
     <use xlink:href="#DejaVuSans-4e"/>
     <use xlink:href="#DejaVuSans-65" x="74.804688"/>
     <use xlink:href="#DejaVuSans-67" x="136.328125"/>
    </g>
   </g>
   <g id="text_14">
    <!-- 14 dpi, HyperP, post-sort -->
    <g transform="translate(59.002188 16.318125)scale(0.12 -0.12)">
     <defs>
      <path id="DejaVuSans-20" transform="scale(0.015625)"/>
      <path id="DejaVuSans-64" d="M 2906 2969 
L 2906 4863 
L 3481 4863 
L 3481 0 
L 2906 0 
L 2906 525 
Q 2725 213 2448 61 
Q 2172 -91 1784 -91 
Q 1150 -91 751 415 
Q 353 922 353 1747 
Q 353 2572 751 3078 
Q 1150 3584 1784 3584 
Q 2172 3584 2448 3432 
Q 2725 3281 2906 2969 
z
M 947 1747 
Q 947 1113 1208 752 
Q 1469 391 1925 391 
Q 2381 391 2643 752 
Q 2906 1113 2906 1747 
Q 2906 2381 2643 2742 
Q 2381 3103 1925 3103 
Q 1469 3103 1208 2742 
Q 947 2381 947 1747 
z
" transform="scale(0.015625)"/>
      <path id="DejaVuSans-70" d="M 1159 525 
L 1159 -1331 
L 581 -1331 
L 581 3500 
L 1159 3500 
L 1159 2969 
Q 1341 3281 1617 3432 
Q 1894 3584 2278 3584 
Q 2916 3584 3314 3078 
Q 3713 2572 3713 1747 
Q 3713 922 3314 415 
Q 2916 -91 2278 -91 
Q 1894 -91 1617 61 
Q 1341 213 1159 525 
z
M 3116 1747 
Q 3116 2381 2855 2742 
Q 2594 3103 2138 3103 
Q 1681 3103 1420 2742 
Q 1159 2381 1159 1747 
Q 1159 1113 1420 752 
Q 1681 391 2138 391 
Q 2594 391 2855 752 
Q 3116 1113 3116 1747 
z
" transform="scale(0.015625)"/>
      <path id="DejaVuSans-2c" d="M 750 794 
L 1409 794 
L 1409 256 
L 897 -744 
L 494 -744 
L 750 256 
L 750 794 
z
" transform="scale(0.015625)"/>
      <path id="DejaVuSans-48" d="M 628 4666 
L 1259 4666 
L 1259 2753 
L 3553 2753 
L 3553 4666 
L 4184 4666 
L 4184 0 
L 3553 0 
L 3553 2222 
L 1259 2222 
L 1259 0 
L 628 0 
L 628 4666 
z
" transform="scale(0.015625)"/>
      <path id="DejaVuSans-72" d="M 2631 2963 
Q 2534 3019 2420 3045 
Q 2306 3072 2169 3072 
Q 1681 3072 1420 2755 
Q 1159 2438 1159 1844 
L 1159 0 
L 581 0 
L 581 3500 
L 1159 3500 
L 1159 2956 
Q 1341 3275 1631 3429 
Q 1922 3584 2338 3584 
Q 2397 3584 2469 3576 
Q 2541 3569 2628 3553 
L 2631 2963 
z
" transform="scale(0.015625)"/>
      <path id="DejaVuSans-50" d="M 1259 4147 
L 1259 2394 
L 2053 2394 
Q 2494 2394 2734 2622 
Q 2975 2850 2975 3272 
Q 2975 3691 2734 3919 
Q 2494 4147 2053 4147 
L 1259 4147 
z
M 628 4666 
L 2053 4666 
Q 2838 4666 3239 4311 
Q 3641 3956 3641 3272 
Q 3641 2581 3239 2228 
Q 2838 1875 2053 1875 
L 1259 1875 
L 1259 0 
L 628 0 
L 628 4666 
z
" transform="scale(0.015625)"/>
      <path id="DejaVuSans-6f" d="M 1959 3097 
Q 1497 3097 1228 2736 
Q 959 2375 959 1747 
Q 959 1119 1226 758 
Q 1494 397 1959 397 
Q 2419 397 2687 759 
Q 2956 1122 2956 1747 
Q 2956 2369 2687 2733 
Q 2419 3097 1959 3097 
z
M 1959 3584 
Q 2709 3584 3137 3096 
Q 3566 2609 3566 1747 
Q 3566 888 3137 398 
Q 2709 -91 1959 -91 
Q 1206 -91 779 398 
Q 353 888 353 1747 
Q 353 2609 779 3096 
Q 1206 3584 1959 3584 
z
" transform="scale(0.015625)"/>
     </defs>
     <use xlink:href="#DejaVuSans-31"/>
     <use xlink:href="#DejaVuSans-34" x="63.623047"/>
     <use xlink:href="#DejaVuSans-20" x="127.246094"/>
     <use xlink:href="#DejaVuSans-64" x="159.033203"/>
     <use xlink:href="#DejaVuSans-70" x="222.509766"/>
     <use xlink:href="#DejaVuSans-69" x="285.986328"/>
     <use xlink:href="#DejaVuSans-2c" x="313.769531"/>
     <use xlink:href="#DejaVuSans-20" x="345.556641"/>
     <use xlink:href="#DejaVuSans-48" x="377.34375"/>
     <use xlink:href="#DejaVuSans-79" x="452.539062"/>
     <use xlink:href="#DejaVuSans-70" x="511.71875"/>
     <use xlink:href="#DejaVuSans-65" x="575.195312"/>
     <use xlink:href="#DejaVuSans-72" x="636.71875"/>
     <use xlink:href="#DejaVuSans-50" x="677.832031"/>
     <use xlink:href="#DejaVuSans-2c" x="738.134766"/>
     <use xlink:href="#DejaVuSans-20" x="769.921875"/>
     <use xlink:href="#DejaVuSans-70" x="801.708984"/>
     <use xlink:href="#DejaVuSans-6f" x="865.185547"/>
     <use xlink:href="#DejaVuSans-73" x="926.367188"/>
     <use xlink:href="#DejaVuSans-74" x="978.466797"/>
     <use xlink:href="#DejaVuSans-2d" x="1017.675781"/>
     <use xlink:href="#DejaVuSans-73" x="1053.759766"/>
     <use xlink:href="#DejaVuSans-6f" x="1105.859375"/>
     <use xlink:href="#DejaVuSans-72" x="1167.041016"/>
     <use xlink:href="#DejaVuSans-74" x="1208.154297"/>
    </g>
   </g>
   <g id="legend_1">
    <g id="patch_7">
     <path d="M 226.54375 38.916562 
L 246.54375 38.916562 
L 246.54375 31.916562 
L 226.54375 31.916562 
z
" style="fill: #1f77b4; fill-opacity: 0.25; stroke: #1f77b4; stroke-linejoin: miter"/>
    </g>
    <g id="text_15">
     <!-- mRuby2-low, HyperP -->
     <g transform="translate(254.54375 38.916562)scale(0.1 -0.1)">
      <defs>
       <path id="DejaVuSans-6c" d="M 603 4863 
L 1178 4863 
L 1178 0 
L 603 0 
L 603 4863 
z
" transform="scale(0.015625)"/>
       <path id="DejaVuSans-77" d="M 269 3500 
L 844 3500 
L 1563 769 
L 2278 3500 
L 2956 3500 
L 3675 769 
L 4391 3500 
L 4966 3500 
L 4050 0 
L 3372 0 
L 2619 2869 
L 1863 0 
L 1184 0 
L 269 3500 
z
" transform="scale(0.015625)"/>
      </defs>
      <use xlink:href="#DejaVuSans-6d"/>
      <use xlink:href="#DejaVuSans-52" x="97.412109"/>
      <use xlink:href="#DejaVuSans-75" x="162.394531"/>
      <use xlink:href="#DejaVuSans-62" x="225.773438"/>
      <use xlink:href="#DejaVuSans-79" x="289.25"/>
      <use xlink:href="#DejaVuSans-32" x="348.429688"/>
      <use xlink:href="#DejaVuSans-2d" x="412.052734"/>
      <use xlink:href="#DejaVuSans-6c" x="448.136719"/>
      <use xlink:href="#DejaVuSans-6f" x="475.919922"/>
      <use xlink:href="#DejaVuSans-77" x="537.101562"/>
      <use xlink:href="#DejaVuSans-2c" x="618.888672"/>
      <use xlink:href="#DejaVuSans-20" x="650.675781"/>
      <use xlink:href="#DejaVuSans-48" x="682.462891"/>
      <use xlink:href="#DejaVuSans-79" x="757.658203"/>
      <use xlink:href="#DejaVuSans-70" x="816.837891"/>
      <use xlink:href="#DejaVuSans-65" x="880.314453"/>
      <use xlink:href="#DejaVuSans-72" x="941.837891"/>
      <use xlink:href="#DejaVuSans-50" x="982.951172"/>
     </g>
    </g>
    <g id="patch_8">
     <path d="M 226.54375 53.594687 
L 246.54375 53.594687 
L 246.54375 46.594687 
L 226.54375 46.594687 
z
" style="fill: #ff7f0e; fill-opacity: 0.25; stroke: #ff7f0e; stroke-linejoin: miter"/>
    </g>
    <g id="text_16">
     <!-- mRuby2-med, HyperP -->
     <g transform="translate(254.54375 53.594687)scale(0.1 -0.1)">
      <use xlink:href="#DejaVuSans-6d"/>
      <use xlink:href="#DejaVuSans-52" x="97.412109"/>
      <use xlink:href="#DejaVuSans-75" x="162.394531"/>
      <use xlink:href="#DejaVuSans-62" x="225.773438"/>
      <use xlink:href="#DejaVuSans-79" x="289.25"/>
      <use xlink:href="#DejaVuSans-32" x="348.429688"/>
      <use xlink:href="#DejaVuSans-2d" x="412.052734"/>
      <use xlink:href="#DejaVuSans-6d" x="448.136719"/>
      <use xlink:href="#DejaVuSans-65" x="545.548828"/>
      <use xlink:href="#DejaVuSans-64" x="607.072266"/>
      <use xlink:href="#DejaVuSans-2c" x="670.548828"/>
      <use xlink:href="#DejaVuSans-20" x="702.335938"/>
      <use xlink:href="#DejaVuSans-48" x="734.123047"/>
      <use xlink:href="#DejaVuSans-79" x="809.318359"/>
      <use xlink:href="#DejaVuSans-70" x="868.498047"/>
      <use xlink:href="#DejaVuSans-65" x="931.974609"/>
      <use xlink:href="#DejaVuSans-72" x="993.498047"/>
      <use xlink:href="#DejaVuSans-50" x="1034.611328"/>
     </g>
    </g>
    <g id="patch_9">
     <path d="M 226.54375 68.272813 
L 246.54375 68.272813 
L 246.54375 61.272813 
L 226.54375 61.272813 
z
" style="fill: #2ca02c; fill-opacity: 0.25; stroke: #2ca02c; stroke-linejoin: miter"/>
    </g>
    <g id="text_17">
     <!-- mRuby2-high, HyperP -->
     <g transform="translate(254.54375 68.272813)scale(0.1 -0.1)">
      <defs>
       <path id="DejaVuSans-68" d="M 3513 2113 
L 3513 0 
L 2938 0 
L 2938 2094 
Q 2938 2591 2744 2837 
Q 2550 3084 2163 3084 
Q 1697 3084 1428 2787 
Q 1159 2491 1159 1978 
L 1159 0 
L 581 0 
L 581 4863 
L 1159 4863 
L 1159 2956 
Q 1366 3272 1645 3428 
Q 1925 3584 2291 3584 
Q 2894 3584 3203 3211 
Q 3513 2838 3513 2113 
z
" transform="scale(0.015625)"/>
      </defs>
      <use xlink:href="#DejaVuSans-6d"/>
      <use xlink:href="#DejaVuSans-52" x="97.412109"/>
      <use xlink:href="#DejaVuSans-75" x="162.394531"/>
      <use xlink:href="#DejaVuSans-62" x="225.773438"/>
      <use xlink:href="#DejaVuSans-79" x="289.25"/>
      <use xlink:href="#DejaVuSans-32" x="348.429688"/>
      <use xlink:href="#DejaVuSans-2d" x="412.052734"/>
      <use xlink:href="#DejaVuSans-68" x="448.136719"/>
      <use xlink:href="#DejaVuSans-69" x="511.515625"/>
      <use xlink:href="#DejaVuSans-67" x="539.298828"/>
      <use xlink:href="#DejaVuSans-68" x="602.775391"/>
      <use xlink:href="#DejaVuSans-2c" x="666.154297"/>
      <use xlink:href="#DejaVuSans-20" x="697.941406"/>
      <use xlink:href="#DejaVuSans-48" x="729.728516"/>
      <use xlink:href="#DejaVuSans-79" x="804.923828"/>
      <use xlink:href="#DejaVuSans-70" x="864.103516"/>
      <use xlink:href="#DejaVuSans-65" x="927.580078"/>
      <use xlink:href="#DejaVuSans-72" x="989.103516"/>
      <use xlink:href="#DejaVuSans-50" x="1030.216797"/>
     </g>
    </g>
   </g>
  </g>
 </g>
 <defs>
  <clipPath id="p984946b210">
   <rect x="50.14375" y="22.318125" width="167.4" height="108.72"/>
  </clipPath>
 </defs>
</svg>
