<?xml version="1.0" encoding="utf-8" standalone="no"?>
<!DOCTYPE svg PUBLIC "-//W3C//DTD SVG 1.1//EN"
  "http://www.w3.org/Graphics/SVG/1.1/DTD/svg11.dtd">
<svg xmlns:xlink="http://www.w3.org/1999/xlink" width="232.763437pt" height="234.152188pt" viewBox="0 0 232.763437 234.152188" xmlns="http://www.w3.org/2000/svg" version="1.1">
 <metadata>
  <rdf:RDF xmlns:dc="http://purl.org/dc/elements/1.1/" xmlns:cc="http://creativecommons.org/ns#" xmlns:rdf="http://www.w3.org/1999/02/22-rdf-syntax-ns#">
   <cc:Work>
    <dc:type rdf:resource="http://purl.org/dc/dcmitype/StillImage"/>
    <dc:date>2025-01-26T16:00:56.684351</dc:date>
    <dc:format>image/svg+xml</dc:format>
    <dc:creator>
     <cc:Agent>
      <dc:title>Matplotlib v3.5.2, https://matplotlib.org/</dc:title>
     </cc:Agent>
    </dc:creator>
   </cc:Work>
  </rdf:RDF>
 </metadata>
 <defs>
  <style type="text/css">*{stroke-linejoin: round; stroke-linecap: butt}</style>
 </defs>
 <g id="figure_1">
  <g id="patch_1">
   <path d="M 0 234.152188 
L 232.763437 234.152188 
L 232.763437 -0 
L 0 -0 
L 0 234.152188 
z
" style="fill: none"/>
  </g>
  <g id="axes_1">
   <g id="patch_2">
    <path d="M 58.163438 185.398125 
L 225.563438 185.398125 
L 225.563438 22.318125 
L 58.163438 22.318125 
z
" style="fill: #ffffff"/>
   </g>
   <g id="PathCollection_1">
    <defs>
     <path id="m6bdd794a82" d="M 0 3 
C 0.795609 3 1.55874 2.683901 2.12132 2.12132 
C 2.683901 1.55874 3 0.795609 3 0 
C 3 -0.795609 2.683901 -1.55874 2.12132 -2.12132 
C 1.55874 -2.683901 0.795609 -3 0 -3 
C -0.795609 -3 -1.55874 -2.683901 -2.12132 -2.12132 
C -2.683901 -1.55874 -3 -0.795609 -3 0 
C -3 0.795609 -2.683901 1.55874 -2.12132 2.12132 
C -1.55874 2.683901 -0.795609 3 0 3 
z
" style="stroke: #498ac6; stroke-opacity: 0.8"/>
    </defs>
    <g clip-path="url(#pb97736e6fa)">
     <use xlink:href="#m6bdd794a82" x="127.881592" y="96.398927" style="fill: #498ac6; fill-opacity: 0.8; stroke: #498ac6; stroke-opacity: 0.8"/>
     <use xlink:href="#m6bdd794a82" x="109.952132" y="68.876206" style="fill: #498ac6; fill-opacity: 0.8; stroke: #498ac6; stroke-opacity: 0.8"/>
     <use xlink:href="#m6bdd794a82" x="102.906472" y="57.234133" style="fill: #498ac6; fill-opacity: 0.8; stroke: #498ac6; stroke-opacity: 0.8"/>
     <use xlink:href="#m6bdd794a82" x="109.199512" y="105.868031" style="fill: #498ac6; fill-opacity: 0.8; stroke: #498ac6; stroke-opacity: 0.8"/>
     <use xlink:href="#m6bdd794a82" x="101.865366" y="61.036245" style="fill: #498ac6; fill-opacity: 0.8; stroke: #498ac6; stroke-opacity: 0.8"/>
     <use xlink:href="#m6bdd794a82" x="90.98837" y="33.914975" style="fill: #498ac6; fill-opacity: 0.8; stroke: #498ac6; stroke-opacity: 0.8"/>
     <use xlink:href="#m6bdd794a82" x="94.690836" y="50.012686" style="fill: #498ac6; fill-opacity: 0.8; stroke: #498ac6; stroke-opacity: 0.8"/>
     <use xlink:href="#m6bdd794a82" x="97.751953" y="92.10667" style="fill: #498ac6; fill-opacity: 0.8; stroke: #498ac6; stroke-opacity: 0.8"/>
     <use xlink:href="#m6bdd794a82" x="123.527601" y="98.436523" style="fill: #498ac6; fill-opacity: 0.8; stroke: #498ac6; stroke-opacity: 0.8"/>
     <use xlink:href="#m6bdd794a82" x="113.129181" y="79.664029" style="fill: #498ac6; fill-opacity: 0.8; stroke: #498ac6; stroke-opacity: 0.8"/>
     <use xlink:href="#m6bdd794a82" x="125.37805" y="73.404198" style="fill: #498ac6; fill-opacity: 0.8; stroke: #498ac6; stroke-opacity: 0.8"/>
     <use xlink:href="#m6bdd794a82" x="130.686059" y="121.081149" style="fill: #498ac6; fill-opacity: 0.8; stroke: #498ac6; stroke-opacity: 0.8"/>
     <use xlink:href="#m6bdd794a82" x="125.041566" y="82.124083" style="fill: #498ac6; fill-opacity: 0.8; stroke: #498ac6; stroke-opacity: 0.8"/>
     <use xlink:href="#m6bdd794a82" x="113.173798" y="65.244477" style="fill: #498ac6; fill-opacity: 0.8; stroke: #498ac6; stroke-opacity: 0.8"/>
     <use xlink:href="#m6bdd794a82" x="150.812616" y="82.765937" style="fill: #498ac6; fill-opacity: 0.8; stroke: #498ac6; stroke-opacity: 0.8"/>
     <use xlink:href="#m6bdd794a82" x="160.259347" y="134.807499" style="fill: #498ac6; fill-opacity: 0.8; stroke: #498ac6; stroke-opacity: 0.8"/>
     <use xlink:href="#m6bdd794a82" x="116.582076" y="86.558714" style="fill: #498ac6; fill-opacity: 0.8; stroke: #498ac6; stroke-opacity: 0.8"/>
     <use xlink:href="#m6bdd794a82" x="99.700806" y="59.379094" style="fill: #498ac6; fill-opacity: 0.8; stroke: #498ac6; stroke-opacity: 0.8"/>
     <use xlink:href="#m6bdd794a82" x="107.730191" y="81.991044" style="fill: #498ac6; fill-opacity: 0.8; stroke: #498ac6; stroke-opacity: 0.8"/>
     <use xlink:href="#m6bdd794a82" x="118.161959" y="108.202047" style="fill: #498ac6; fill-opacity: 0.8; stroke: #498ac6; stroke-opacity: 0.8"/>
     <use xlink:href="#m6bdd794a82" x="128.66388" y="100.994605" style="fill: #498ac6; fill-opacity: 0.8; stroke: #498ac6; stroke-opacity: 0.8"/>
     <use xlink:href="#m6bdd794a82" x="115.894963" y="111.098561" style="fill: #498ac6; fill-opacity: 0.8; stroke: #498ac6; stroke-opacity: 0.8"/>
     <use xlink:href="#m6bdd794a82" x="95.069864" y="106.173787" style="fill: #498ac6; fill-opacity: 0.8; stroke: #498ac6; stroke-opacity: 0.8"/>
     <use xlink:href="#m6bdd794a82" x="97.678522" y="145.303571" style="fill: #498ac6; fill-opacity: 0.8; stroke: #498ac6; stroke-opacity: 0.8"/>
    </g>
   </g>
   <g id="PolyCollection_1">
    <path d="M 90.98837 52.09907 
L 90.98837 95.373894 
L 91.688077 95.331875 
L 92.387784 95.259372 
L 93.08749 95.370746 
L 93.787197 95.523248 
L 94.486904 95.67243 
L 95.186611 95.700985 
L 95.886318 95.881567 
L 96.586025 95.806759 
L 97.285731 95.775845 
L 97.985438 95.801345 
L 98.685145 95.831005 
L 99.384852 95.852489 
L 100.084559 95.797094 
L 100.784266 95.775459 
L 101.483972 95.92885 
L 102.183679 95.953311 
L 102.883386 95.977772 
L 103.583093 96.002233 
L 104.2828 96.026695 
L 104.982507 96.029136 
L 105.682213 96.063397 
L 106.38192 95.964321 
L 107.081627 95.860689 
L 107.781334 95.764955 
L 108.481041 95.669962 
L 109.180748 95.563539 
L 109.880454 95.472818 
L 110.580161 95.619923 
L 111.279868 95.755837 
L 111.979575 95.957082 
L 112.679282 96.156753 
L 113.378989 96.371345 
L 114.078696 96.450003 
L 114.778402 97.021682 
L 115.478109 97.52914 
L 116.177816 97.910526 
L 116.877523 98.419569 
L 117.57723 98.516381 
L 118.276937 98.969683 
L 118.976643 99.317058 
L 119.67635 99.737779 
L 120.376057 100.138572 
L 121.075764 100.67763 
L 121.775471 101.309424 
L 122.475178 101.757829 
L 123.174884 102.235352 
L 123.874591 102.802134 
L 124.574298 103.583315 
L 125.274005 104.353046 
L 125.973712 104.93246 
L 126.673419 105.604589 
L 127.373125 106.193504 
L 128.072832 107.057098 
L 128.772539 107.721677 
L 129.472246 108.247613 
L 130.171953 108.988435 
L 130.87166 109.986624 
L 131.571366 110.792845 
L 132.271073 111.652951 
L 132.97078 112.347005 
L 133.670487 113.251616 
L 134.370194 114.136614 
L 135.069901 114.910001 
L 135.769607 115.821769 
L 136.469314 116.661956 
L 137.169021 117.28028 
L 137.868728 117.985743 
L 138.568435 118.930397 
L 139.268142 119.875051 
L 139.967849 120.777789 
L 140.667555 121.564132 
L 141.367262 122.350476 
L 142.066969 123.13682 
L 142.766676 124.054232 
L 143.466383 125.108397 
L 144.16609 126.162562 
L 144.865796 127.211795 
L 145.565503 127.923273 
L 146.26521 128.581005 
L 146.964917 129.388491 
L 147.664624 130.101139 
L 148.364331 130.81282 
L 149.064037 131.519751 
L 149.763744 132.226682 
L 150.463451 133.052298 
L 151.163158 133.946277 
L 151.862865 134.840255 
L 152.562572 135.742981 
L 153.262278 136.676258 
L 153.961985 137.609535 
L 154.661692 138.542811 
L 155.361399 139.476088 
L 156.061106 140.409364 
L 156.760813 141.342641 
L 157.460519 142.275918 
L 158.160226 143.209194 
L 158.859933 144.142471 
L 159.55964 144.981479 
L 160.259347 145.820139 
L 160.259347 86.342782 
L 160.259347 86.342782 
L 159.55964 86.402233 
L 158.859933 86.462225 
L 158.160226 86.518405 
L 157.460519 86.570579 
L 156.760813 86.622753 
L 156.061106 86.674928 
L 155.361399 86.727102 
L 154.661692 86.615946 
L 153.961985 86.439686 
L 153.262278 86.263426 
L 152.562572 86.087165 
L 151.862865 85.910905 
L 151.163158 85.734644 
L 150.463451 85.558384 
L 149.763744 85.429945 
L 149.064037 85.518192 
L 148.364331 85.611646 
L 147.664624 85.7051 
L 146.964917 85.798553 
L 146.26521 85.892007 
L 145.565503 86.014339 
L 144.865796 86.15295 
L 144.16609 86.291561 
L 143.466383 86.257009 
L 142.766676 86.349407 
L 142.066969 86.453605 
L 141.367262 86.396902 
L 140.667555 86.468709 
L 139.967849 86.562251 
L 139.268142 86.657412 
L 138.568435 86.758284 
L 137.868728 86.859156 
L 137.169021 86.93911 
L 136.469314 87.050748 
L 135.769607 86.926967 
L 135.069901 86.886286 
L 134.370194 87.035309 
L 133.670487 87.005625 
L 132.97078 86.682871 
L 132.271073 86.503602 
L 131.571366 86.486506 
L 130.87166 86.002012 
L 130.171953 86.037991 
L 129.472246 85.728723 
L 128.772539 85.570769 
L 128.072832 85.24488 
L 127.373125 85.290071 
L 126.673419 85.235516 
L 125.973712 85.054631 
L 125.274005 84.874527 
L 124.574298 84.653165 
L 123.874591 84.524192 
L 123.174884 84.312864 
L 122.475178 83.977116 
L 121.775471 83.785355 
L 121.075764 83.636568 
L 120.376057 83.211563 
L 119.67635 82.795182 
L 118.976643 82.372608 
L 118.276937 81.913389 
L 117.57723 81.313447 
L 116.877523 80.63271 
L 116.177816 80.251652 
L 115.478109 79.445759 
L 114.778402 78.719679 
L 114.078696 78.066123 
L 113.378989 77.355316 
L 112.679282 76.735654 
L 111.979575 76.117946 
L 111.279868 75.523666 
L 110.580161 74.998949 
L 109.880454 74.285972 
L 109.180748 73.576865 
L 108.481041 72.700512 
L 107.781334 71.852975 
L 107.081627 71.021864 
L 106.38192 70.205459 
L 105.682213 69.489339 
L 104.982507 68.701461 
L 104.2828 67.915312 
L 103.583093 67.102377 
L 102.883386 66.340492 
L 102.183679 65.551372 
L 101.483972 64.765416 
L 100.784266 63.980903 
L 100.084559 63.265313 
L 99.384852 62.405689 
L 98.685145 61.61547 
L 97.985438 60.829611 
L 97.285731 59.957031 
L 96.586025 59.219256 
L 95.886318 58.350399 
L 95.186611 57.634768 
L 94.486904 56.826322 
L 93.787197 55.883957 
L 93.08749 54.941591 
L 92.387784 53.901656 
L 91.688077 53.049309 
L 90.98837 52.09907 
z
" clip-path="url(#pb97736e6fa)" style="fill: #498ac6; fill-opacity: 0.15"/>
   </g>
   <g id="PathCollection_2">
    <defs>
     <path id="m61f49443cc" d="M 0 3.162278 
C 0.838646 3.162278 1.643056 2.82908 2.236068 2.236068 
C 2.82908 1.643056 3.162278 0.838646 3.162278 0 
C 3.162278 -0.838646 2.82908 -1.643056 2.236068 -2.236068 
C 1.643056 -2.82908 0.838646 -3.162278 0 -3.162278 
C -0.838646 -3.162278 -1.643056 -2.82908 -2.236068 -2.236068 
C -2.82908 -1.643056 -3.162278 -0.838646 -3.162278 0 
C -3.162278 0.838646 -2.82908 1.643056 -2.236068 2.236068 
C -1.643056 2.82908 -0.838646 3.162278 0 3.162278 
z
" style="stroke: #498ac6; stroke-width: 2"/>
    </defs>
    <g clip-path="url(#pb97736e6fa)">
     <use xlink:href="#m61f49443cc" x="67.155398" y="166.403078" style="fill: #ffffff; stroke: #498ac6; stroke-width: 2"/>
     <use xlink:href="#m61f49443cc" x="65.877439" y="176.070574" style="fill: #ffffff; stroke: #498ac6; stroke-width: 2"/>
     <use xlink:href="#m61f49443cc" x="67.517221" y="160.771097" style="fill: #ffffff; stroke: #498ac6; stroke-width: 2"/>
     <use xlink:href="#m61f49443cc" x="67.74215" y="176.9575" style="fill: #ffffff; stroke: #498ac6; stroke-width: 2"/>
    </g>
   </g>
   <g id="PathCollection_3">
    <defs>
     <path id="m99e4af45d9" d="M 0 3 
C 0.795609 3 1.55874 2.683901 2.12132 2.12132 
C 2.683901 1.55874 3 0.795609 3 0 
C 3 -0.795609 2.683901 -1.55874 2.12132 -2.12132 
C 1.55874 -2.683901 0.795609 -3 0 -3 
C -0.795609 -3 -1.55874 -2.683901 -2.12132 -2.12132 
C -2.683901 -1.55874 -3 -0.795609 -3 0 
C -3 0.795609 -2.683901 1.55874 -2.12132 2.12132 
C -1.55874 2.683901 -0.795609 3 0 3 
z
" style="stroke: #808080; stroke-opacity: 0.8"/>
    </defs>
    <g clip-path="url(#pb97736e6fa)">
     <use xlink:href="#m99e4af45d9" x="130.79949" y="96.398927" style="fill: #808080; fill-opacity: 0.8; stroke: #808080; stroke-opacity: 0.8"/>
     <use xlink:href="#m99e4af45d9" x="179.748055" y="68.876206" style="fill: #808080; fill-opacity: 0.8; stroke: #808080; stroke-opacity: 0.8"/>
     <use xlink:href="#m99e4af45d9" x="131.675145" y="57.234133" style="fill: #808080; fill-opacity: 0.8; stroke: #808080; stroke-opacity: 0.8"/>
     <use xlink:href="#m99e4af45d9" x="123.653386" y="105.868031" style="fill: #808080; fill-opacity: 0.8; stroke: #808080; stroke-opacity: 0.8"/>
     <use xlink:href="#m99e4af45d9" x="119.164785" y="61.036245" style="fill: #808080; fill-opacity: 0.8; stroke: #808080; stroke-opacity: 0.8"/>
     <use xlink:href="#m99e4af45d9" x="139.019402" y="33.914975" style="fill: #808080; fill-opacity: 0.8; stroke: #808080; stroke-opacity: 0.8"/>
     <use xlink:href="#m99e4af45d9" x="122.65681" y="50.012686" style="fill: #808080; fill-opacity: 0.8; stroke: #808080; stroke-opacity: 0.8"/>
     <use xlink:href="#m99e4af45d9" x="118.991916" y="92.10667" style="fill: #808080; fill-opacity: 0.8; stroke: #808080; stroke-opacity: 0.8"/>
     <use xlink:href="#m99e4af45d9" x="130.932997" y="98.436523" style="fill: #808080; fill-opacity: 0.8; stroke: #808080; stroke-opacity: 0.8"/>
     <use xlink:href="#m99e4af45d9" x="194.44978" y="79.664029" style="fill: #808080; fill-opacity: 0.8; stroke: #808080; stroke-opacity: 0.8"/>
     <use xlink:href="#m99e4af45d9" x="158.859112" y="73.404198" style="fill: #808080; fill-opacity: 0.8; stroke: #808080; stroke-opacity: 0.8"/>
     <use xlink:href="#m99e4af45d9" x="137.321911" y="121.081149" style="fill: #808080; fill-opacity: 0.8; stroke: #808080; stroke-opacity: 0.8"/>
     <use xlink:href="#m99e4af45d9" x="131.759099" y="82.124083" style="fill: #808080; fill-opacity: 0.8; stroke: #808080; stroke-opacity: 0.8"/>
     <use xlink:href="#m99e4af45d9" x="188.863878" y="65.244477" style="fill: #808080; fill-opacity: 0.8; stroke: #808080; stroke-opacity: 0.8"/>
     <use xlink:href="#m99e4af45d9" x="186.68129" y="82.765937" style="fill: #808080; fill-opacity: 0.8; stroke: #808080; stroke-opacity: 0.8"/>
     <use xlink:href="#m99e4af45d9" x="160.240058" y="134.807499" style="fill: #808080; fill-opacity: 0.8; stroke: #808080; stroke-opacity: 0.8"/>
     <use xlink:href="#m99e4af45d9" x="125.667225" y="86.558714" style="fill: #808080; fill-opacity: 0.8; stroke: #808080; stroke-opacity: 0.8"/>
     <use xlink:href="#m99e4af45d9" x="160.165162" y="59.379094" style="fill: #808080; fill-opacity: 0.8; stroke: #808080; stroke-opacity: 0.8"/>
     <use xlink:href="#m99e4af45d9" x="142.817261" y="81.991044" style="fill: #808080; fill-opacity: 0.8; stroke: #808080; stroke-opacity: 0.8"/>
     <use xlink:href="#m99e4af45d9" x="134.163114" y="108.202047" style="fill: #808080; fill-opacity: 0.8; stroke: #808080; stroke-opacity: 0.8"/>
     <use xlink:href="#m99e4af45d9" x="136.329975" y="100.994605" style="fill: #808080; fill-opacity: 0.8; stroke: #808080; stroke-opacity: 0.8"/>
     <use xlink:href="#m99e4af45d9" x="191.206056" y="111.098561" style="fill: #808080; fill-opacity: 0.8; stroke: #808080; stroke-opacity: 0.8"/>
     <use xlink:href="#m99e4af45d9" x="126.165339" y="106.173787" style="fill: #808080; fill-opacity: 0.8; stroke: #808080; stroke-opacity: 0.8"/>
     <use xlink:href="#m99e4af45d9" x="117.825967" y="145.303571" style="fill: #808080; fill-opacity: 0.8; stroke: #808080; stroke-opacity: 0.8"/>
    </g>
   </g>
   <g id="PolyCollection_2">
    <path d="M 117.825967 72.903853 
L 117.825967 107.588322 
L 118.599945 107.207052 
L 119.373923 106.830055 
L 120.147901 106.456261 
L 120.921879 106.208197 
L 121.695857 106.078445 
L 122.469835 105.821154 
L 123.243813 105.451768 
L 124.01779 105.140378 
L 124.791768 104.887288 
L 125.565746 104.58507 
L 126.339724 104.344287 
L 127.113702 104.148554 
L 127.88768 103.895799 
L 128.661658 103.528025 
L 129.435636 103.26253 
L 130.209614 102.996272 
L 130.983592 102.572698 
L 131.75757 102.342646 
L 132.531547 102.199841 
L 133.305525 101.936552 
L 134.079503 101.67686 
L 134.853481 101.463087 
L 135.627459 101.239215 
L 136.401437 100.973278 
L 137.175415 100.636569 
L 137.949393 100.393217 
L 138.723371 100.091045 
L 139.497349 99.7442 
L 140.271327 99.562625 
L 141.045304 99.205814 
L 141.819282 99.013656 
L 142.59326 98.835548 
L 143.367238 98.97228 
L 144.141216 99.11645 
L 144.915194 98.839674 
L 145.689172 98.528084 
L 146.46315 98.354797 
L 147.237128 98.31018 
L 148.011106 98.101175 
L 148.785084 97.90725 
L 149.559062 97.705464 
L 150.333039 97.621446 
L 151.107017 97.719984 
L 151.880995 97.664122 
L 152.654973 97.476907 
L 153.428951 97.410366 
L 154.202929 97.625165 
L 154.976907 97.84545 
L 155.750885 97.829486 
L 156.524863 97.765731 
L 157.298841 97.901131 
L 158.072819 98.036531 
L 158.846796 98.164278 
L 159.620774 97.985287 
L 160.394752 98.007428 
L 161.16873 98.210128 
L 161.942708 98.163975 
L 162.716686 98.231858 
L 163.490664 98.370456 
L 164.264642 98.498129 
L 165.03862 98.630798 
L 165.812598 98.818839 
L 166.586576 98.998146 
L 167.360553 99.071644 
L 168.134531 99.159834 
L 168.908509 99.332987 
L 169.682487 99.421831 
L 170.456465 99.552829 
L 171.230443 99.685446 
L 172.004421 99.818182 
L 172.778399 99.803341 
L 173.552377 99.847601 
L 174.326355 99.920283 
L 175.100333 100.047526 
L 175.87431 100.197566 
L 176.648288 100.347606 
L 177.422266 100.497646 
L 178.196244 100.647686 
L 178.970222 100.797726 
L 179.7442 100.947766 
L 180.518178 101.097806 
L 181.292156 101.247846 
L 182.066134 101.397886 
L 182.840112 101.547926 
L 183.61409 101.697966 
L 184.388067 101.848006 
L 185.162045 101.986759 
L 185.936023 102.139454 
L 186.710001 102.297674 
L 187.483979 102.448166 
L 188.257957 102.598205 
L 189.031935 102.733899 
L 189.805913 102.866881 
L 190.579891 102.999863 
L 191.353869 103.132845 
L 192.127847 103.295982 
L 192.901825 103.477193 
L 193.675802 103.651732 
L 194.44978 103.803008 
L 194.44978 59.116251 
L 194.44978 59.116251 
L 193.675802 59.62738 
L 192.901825 60.153174 
L 192.127847 60.64202 
L 191.353869 60.902032 
L 190.579891 61.162489 
L 189.805913 61.573792 
L 189.031935 61.996106 
L 188.257957 62.418419 
L 187.483979 62.844894 
L 186.710001 63.375859 
L 185.936023 63.907044 
L 185.162045 64.439532 
L 184.388067 64.921543 
L 183.61409 65.274227 
L 182.840112 65.632732 
L 182.066134 66.113487 
L 181.292156 66.4727 
L 180.518178 66.845662 
L 179.7442 67.179217 
L 178.970222 67.51518 
L 178.196244 67.915488 
L 177.422266 68.336081 
L 176.648288 68.620335 
L 175.87431 68.849511 
L 175.100333 69.178466 
L 174.326355 69.516909 
L 173.552377 69.851035 
L 172.778399 70.18516 
L 172.004421 70.519286 
L 171.230443 70.852124 
L 170.456465 71.184726 
L 169.682487 71.520018 
L 168.908509 71.785447 
L 168.134531 72.010312 
L 167.360553 72.237356 
L 166.586576 72.461404 
L 165.812598 72.765672 
L 165.03862 73.151525 
L 164.264642 73.393442 
L 163.490664 73.75866 
L 162.716686 73.854425 
L 161.942708 73.949245 
L 161.16873 74.182962 
L 160.394752 74.311322 
L 159.620774 74.495449 
L 158.846796 74.71984 
L 158.072819 75.062261 
L 157.298841 75.170599 
L 156.524863 75.391344 
L 155.750885 75.454083 
L 154.976907 75.724295 
L 154.202929 75.933547 
L 153.428951 75.958974 
L 152.654973 75.993344 
L 151.880995 76.008399 
L 151.107017 75.866776 
L 150.333039 75.917013 
L 149.559062 76.006356 
L 148.785084 76.074426 
L 148.011106 76.082248 
L 147.237128 76.191699 
L 146.46315 76.213301 
L 145.689172 76.244352 
L 144.915194 76.283859 
L 144.141216 76.514745 
L 143.367238 76.615862 
L 142.59326 76.65785 
L 141.819282 76.737968 
L 141.045304 76.793869 
L 140.271327 76.589841 
L 139.497349 76.719599 
L 138.723371 76.722194 
L 137.949393 76.641377 
L 137.175415 76.551419 
L 136.401437 76.368696 
L 135.627459 76.229266 
L 134.853481 76.093807 
L 134.079503 75.982775 
L 133.305525 75.964174 
L 132.531547 75.889265 
L 131.75757 75.685094 
L 130.983592 75.480923 
L 130.209614 75.276751 
L 129.435636 75.135974 
L 128.661658 75.011958 
L 127.88768 74.862652 
L 127.113702 74.747855 
L 126.339724 74.70198 
L 125.565746 74.480518 
L 124.791768 74.313138 
L 124.01779 74.161564 
L 123.243813 73.996635 
L 122.469835 73.898455 
L 121.695857 73.657364 
L 120.921879 73.556487 
L 120.147901 73.481446 
L 119.373923 73.291447 
L 118.599945 73.123266 
L 117.825967 72.903853 
z
" clip-path="url(#pb97736e6fa)" style="fill: #808080; fill-opacity: 0.15"/>
   </g>
   <g id="PathCollection_4">
    <defs>
     <path id="mf9b08ad3bd" d="M 0 3.162278 
C 0.838646 3.162278 1.643056 2.82908 2.236068 2.236068 
C 2.82908 1.643056 3.162278 0.838646 3.162278 0 
C 3.162278 -0.838646 2.82908 -1.643056 2.236068 -2.236068 
C 1.643056 -2.82908 0.838646 -3.162278 0 -3.162278 
C -0.838646 -3.162278 -1.643056 -2.82908 -2.236068 -2.236068 
C -2.82908 -1.643056 -3.162278 -0.838646 -3.162278 0 
C -3.162278 0.838646 -2.82908 1.643056 -2.236068 2.236068 
C -1.643056 2.82908 -0.838646 3.162278 0 3.162278 
z
" style="stroke: #808080; stroke-width: 2"/>
    </defs>
    <g clip-path="url(#pb97736e6fa)">
     <use xlink:href="#mf9b08ad3bd" x="85.004468" y="166.403078" style="fill: #ffffff; stroke: #808080; stroke-width: 2"/>
     <use xlink:href="#mf9b08ad3bd" x="73.655594" y="176.070574" style="fill: #ffffff; stroke: #808080; stroke-width: 2"/>
     <use xlink:href="#mf9b08ad3bd" x="85.302951" y="160.771097" style="fill: #ffffff; stroke: #808080; stroke-width: 2"/>
     <use xlink:href="#mf9b08ad3bd" x="85.505988" y="176.9575" style="fill: #ffffff; stroke: #808080; stroke-width: 2"/>
    </g>
   </g>
   <g id="matplotlib.axis_1">
    <g id="xtick_1">
     <g id="line2d_1">
      <defs>
       <path id="m7c5525681b" d="M 0 0 
L 0 3.5 
" style="stroke: #000000; stroke-width: 0.8"/>
      </defs>
      <g>
       <use xlink:href="#m7c5525681b" x="61.261804" y="185.398125" style="stroke: #000000; stroke-width: 0.8"/>
      </g>
     </g>
     <g id="text_1">
      <!-- 0 -->
      <g transform="translate(58.080554 199.996563)scale(0.1 -0.1)">
       <defs>
        <path id="DejaVuSans-30" d="M 2034 4250 
Q 1547 4250 1301 3770 
Q 1056 3291 1056 2328 
Q 1056 1369 1301 889 
Q 1547 409 2034 409 
Q 2525 409 2770 889 
Q 3016 1369 3016 2328 
Q 3016 3291 2770 3770 
Q 2525 4250 2034 4250 
z
M 2034 4750 
Q 2819 4750 3233 4129 
Q 3647 3509 3647 2328 
Q 3647 1150 3233 529 
Q 2819 -91 2034 -91 
Q 1250 -91 836 529 
Q 422 1150 422 2328 
Q 422 3509 836 4129 
Q 1250 4750 2034 4750 
z
" transform="scale(0.015625)"/>
       </defs>
       <use xlink:href="#DejaVuSans-30"/>
      </g>
     </g>
    </g>
    <g id="xtick_2">
     <g id="line2d_2">
      <g>
       <use xlink:href="#m7c5525681b" x="95.887252" y="185.398125" style="stroke: #000000; stroke-width: 0.8"/>
      </g>
     </g>
     <g id="text_2">
      <!-- 1000 -->
      <g transform="translate(83.162252 199.996563)scale(0.1 -0.1)">
       <defs>
        <path id="DejaVuSans-31" d="M 794 531 
L 1825 531 
L 1825 4091 
L 703 3866 
L 703 4441 
L 1819 4666 
L 2450 4666 
L 2450 531 
L 3481 531 
L 3481 0 
L 794 0 
L 794 531 
z
" transform="scale(0.015625)"/>
       </defs>
       <use xlink:href="#DejaVuSans-31"/>
       <use xlink:href="#DejaVuSans-30" x="63.623047"/>
       <use xlink:href="#DejaVuSans-30" x="127.246094"/>
       <use xlink:href="#DejaVuSans-30" x="190.869141"/>
      </g>
     </g>
    </g>
    <g id="xtick_3">
     <g id="line2d_3">
      <g>
       <use xlink:href="#m7c5525681b" x="130.512701" y="185.398125" style="stroke: #000000; stroke-width: 0.8"/>
      </g>
     </g>
     <g id="text_3">
      <!-- 2000 -->
      <g transform="translate(117.787701 199.996563)scale(0.1 -0.1)">
       <defs>
        <path id="DejaVuSans-32" d="M 1228 531 
L 3431 531 
L 3431 0 
L 469 0 
L 469 531 
Q 828 903 1448 1529 
Q 2069 2156 2228 2338 
Q 2531 2678 2651 2914 
Q 2772 3150 2772 3378 
Q 2772 3750 2511 3984 
Q 2250 4219 1831 4219 
Q 1534 4219 1204 4116 
Q 875 4013 500 3803 
L 500 4441 
Q 881 4594 1212 4672 
Q 1544 4750 1819 4750 
Q 2544 4750 2975 4387 
Q 3406 4025 3406 3419 
Q 3406 3131 3298 2873 
Q 3191 2616 2906 2266 
Q 2828 2175 2409 1742 
Q 1991 1309 1228 531 
z
" transform="scale(0.015625)"/>
       </defs>
       <use xlink:href="#DejaVuSans-32"/>
       <use xlink:href="#DejaVuSans-30" x="63.623047"/>
       <use xlink:href="#DejaVuSans-30" x="127.246094"/>
       <use xlink:href="#DejaVuSans-30" x="190.869141"/>
      </g>
     </g>
    </g>
    <g id="xtick_4">
     <g id="line2d_4">
      <g>
       <use xlink:href="#m7c5525681b" x="165.138149" y="185.398125" style="stroke: #000000; stroke-width: 0.8"/>
      </g>
     </g>
     <g id="text_4">
      <!-- 3000 -->
      <g transform="translate(152.413149 199.996563)scale(0.1 -0.1)">
       <defs>
        <path id="DejaVuSans-33" d="M 2597 2516 
Q 3050 2419 3304 2112 
Q 3559 1806 3559 1356 
Q 3559 666 3084 287 
Q 2609 -91 1734 -91 
Q 1441 -91 1130 -33 
Q 819 25 488 141 
L 488 750 
Q 750 597 1062 519 
Q 1375 441 1716 441 
Q 2309 441 2620 675 
Q 2931 909 2931 1356 
Q 2931 1769 2642 2001 
Q 2353 2234 1838 2234 
L 1294 2234 
L 1294 2753 
L 1863 2753 
Q 2328 2753 2575 2939 
Q 2822 3125 2822 3475 
Q 2822 3834 2567 4026 
Q 2313 4219 1838 4219 
Q 1578 4219 1281 4162 
Q 984 4106 628 3988 
L 628 4550 
Q 988 4650 1302 4700 
Q 1616 4750 1894 4750 
Q 2613 4750 3031 4423 
Q 3450 4097 3450 3541 
Q 3450 3153 3228 2886 
Q 3006 2619 2597 2516 
z
" transform="scale(0.015625)"/>
       </defs>
       <use xlink:href="#DejaVuSans-33"/>
       <use xlink:href="#DejaVuSans-30" x="63.623047"/>
       <use xlink:href="#DejaVuSans-30" x="127.246094"/>
       <use xlink:href="#DejaVuSans-30" x="190.869141"/>
      </g>
     </g>
    </g>
    <g id="xtick_5">
     <g id="line2d_5">
      <g>
       <use xlink:href="#m7c5525681b" x="199.763597" y="185.398125" style="stroke: #000000; stroke-width: 0.8"/>
      </g>
     </g>
     <g id="text_5">
      <!-- 4000 -->
      <g transform="translate(187.038597 199.996563)scale(0.1 -0.1)">
       <defs>
        <path id="DejaVuSans-34" d="M 2419 4116 
L 825 1625 
L 2419 1625 
L 2419 4116 
z
M 2253 4666 
L 3047 4666 
L 3047 1625 
L 3713 1625 
L 3713 1100 
L 3047 1100 
L 3047 0 
L 2419 0 
L 2419 1100 
L 313 1100 
L 313 1709 
L 2253 4666 
z
" transform="scale(0.015625)"/>
       </defs>
       <use xlink:href="#DejaVuSans-34"/>
       <use xlink:href="#DejaVuSans-30" x="63.623047"/>
       <use xlink:href="#DejaVuSans-30" x="127.246094"/>
       <use xlink:href="#DejaVuSans-30" x="190.869141"/>
      </g>
     </g>
    </g>
    <g id="text_6">
     <!-- mRuby2, 4 dpi -->
     <g transform="translate(105.574375 213.674688)scale(0.1 -0.1)">
      <defs>
       <path id="DejaVuSans-6d" d="M 3328 2828 
Q 3544 3216 3844 3400 
Q 4144 3584 4550 3584 
Q 5097 3584 5394 3201 
Q 5691 2819 5691 2113 
L 5691 0 
L 5113 0 
L 5113 2094 
Q 5113 2597 4934 2840 
Q 4756 3084 4391 3084 
Q 3944 3084 3684 2787 
Q 3425 2491 3425 1978 
L 3425 0 
L 2847 0 
L 2847 2094 
Q 2847 2600 2669 2842 
Q 2491 3084 2119 3084 
Q 1678 3084 1418 2786 
Q 1159 2488 1159 1978 
L 1159 0 
L 581 0 
L 581 3500 
L 1159 3500 
L 1159 2956 
Q 1356 3278 1631 3431 
Q 1906 3584 2284 3584 
Q 2666 3584 2933 3390 
Q 3200 3197 3328 2828 
z
" transform="scale(0.015625)"/>
       <path id="DejaVuSans-52" d="M 2841 2188 
Q 3044 2119 3236 1894 
Q 3428 1669 3622 1275 
L 4263 0 
L 3584 0 
L 2988 1197 
Q 2756 1666 2539 1819 
Q 2322 1972 1947 1972 
L 1259 1972 
L 1259 0 
L 628 0 
L 628 4666 
L 2053 4666 
Q 2853 4666 3247 4331 
Q 3641 3997 3641 3322 
Q 3641 2881 3436 2590 
Q 3231 2300 2841 2188 
z
M 1259 4147 
L 1259 2491 
L 2053 2491 
Q 2509 2491 2742 2702 
Q 2975 2913 2975 3322 
Q 2975 3731 2742 3939 
Q 2509 4147 2053 4147 
L 1259 4147 
z
" transform="scale(0.015625)"/>
       <path id="DejaVuSans-75" d="M 544 1381 
L 544 3500 
L 1119 3500 
L 1119 1403 
Q 1119 906 1312 657 
Q 1506 409 1894 409 
Q 2359 409 2629 706 
Q 2900 1003 2900 1516 
L 2900 3500 
L 3475 3500 
L 3475 0 
L 2900 0 
L 2900 538 
Q 2691 219 2414 64 
Q 2138 -91 1772 -91 
Q 1169 -91 856 284 
Q 544 659 544 1381 
z
M 1991 3584 
L 1991 3584 
z
" transform="scale(0.015625)"/>
       <path id="DejaVuSans-62" d="M 3116 1747 
Q 3116 2381 2855 2742 
Q 2594 3103 2138 3103 
Q 1681 3103 1420 2742 
Q 1159 2381 1159 1747 
Q 1159 1113 1420 752 
Q 1681 391 2138 391 
Q 2594 391 2855 752 
Q 3116 1113 3116 1747 
z
M 1159 2969 
Q 1341 3281 1617 3432 
Q 1894 3584 2278 3584 
Q 2916 3584 3314 3078 
Q 3713 2572 3713 1747 
Q 3713 922 3314 415 
Q 2916 -91 2278 -91 
Q 1894 -91 1617 61 
Q 1341 213 1159 525 
L 1159 0 
L 581 0 
L 581 4863 
L 1159 4863 
L 1159 2969 
z
" transform="scale(0.015625)"/>
       <path id="DejaVuSans-79" d="M 2059 -325 
Q 1816 -950 1584 -1140 
Q 1353 -1331 966 -1331 
L 506 -1331 
L 506 -850 
L 844 -850 
Q 1081 -850 1212 -737 
Q 1344 -625 1503 -206 
L 1606 56 
L 191 3500 
L 800 3500 
L 1894 763 
L 2988 3500 
L 3597 3500 
L 2059 -325 
z
" transform="scale(0.015625)"/>
       <path id="DejaVuSans-2c" d="M 750 794 
L 1409 794 
L 1409 256 
L 897 -744 
L 494 -744 
L 750 256 
L 750 794 
z
" transform="scale(0.015625)"/>
       <path id="DejaVuSans-20" transform="scale(0.015625)"/>
       <path id="DejaVuSans-64" d="M 2906 2969 
L 2906 4863 
L 3481 4863 
L 3481 0 
L 2906 0 
L 2906 525 
Q 2725 213 2448 61 
Q 2172 -91 1784 -91 
Q 1150 -91 751 415 
Q 353 922 353 1747 
Q 353 2572 751 3078 
Q 1150 3584 1784 3584 
Q 2172 3584 2448 3432 
Q 2725 3281 2906 2969 
z
M 947 1747 
Q 947 1113 1208 752 
Q 1469 391 1925 391 
Q 2381 391 2643 752 
Q 2906 1113 2906 1747 
Q 2906 2381 2643 2742 
Q 2381 3103 1925 3103 
Q 1469 3103 1208 2742 
Q 947 2381 947 1747 
z
" transform="scale(0.015625)"/>
       <path id="DejaVuSans-70" d="M 1159 525 
L 1159 -1331 
L 581 -1331 
L 581 3500 
L 1159 3500 
L 1159 2969 
Q 1341 3281 1617 3432 
Q 1894 3584 2278 3584 
Q 2916 3584 3314 3078 
Q 3713 2572 3713 1747 
Q 3713 922 3314 415 
Q 2916 -91 2278 -91 
Q 1894 -91 1617 61 
Q 1341 213 1159 525 
z
M 3116 1747 
Q 3116 2381 2855 2742 
Q 2594 3103 2138 3103 
Q 1681 3103 1420 2742 
Q 1159 2381 1159 1747 
Q 1159 1113 1420 752 
Q 1681 391 2138 391 
Q 2594 391 2855 752 
Q 3116 1113 3116 1747 
z
" transform="scale(0.015625)"/>
       <path id="DejaVuSans-69" d="M 603 3500 
L 1178 3500 
L 1178 0 
L 603 0 
L 603 3500 
z
M 603 4863 
L 1178 4863 
L 1178 4134 
L 603 4134 
L 603 4863 
z
" transform="scale(0.015625)"/>
      </defs>
      <use xlink:href="#DejaVuSans-6d"/>
      <use xlink:href="#DejaVuSans-52" x="97.412109"/>
      <use xlink:href="#DejaVuSans-75" x="162.394531"/>
      <use xlink:href="#DejaVuSans-62" x="225.773438"/>
      <use xlink:href="#DejaVuSans-79" x="289.25"/>
      <use xlink:href="#DejaVuSans-32" x="348.429688"/>
      <use xlink:href="#DejaVuSans-2c" x="412.052734"/>
      <use xlink:href="#DejaVuSans-20" x="443.839844"/>
      <use xlink:href="#DejaVuSans-34" x="475.626953"/>
      <use xlink:href="#DejaVuSans-20" x="539.25"/>
      <use xlink:href="#DejaVuSans-64" x="571.037109"/>
      <use xlink:href="#DejaVuSans-70" x="634.513672"/>
      <use xlink:href="#DejaVuSans-69" x="697.990234"/>
     </g>
     <!-- (gmean) -->
     <g transform="translate(120.607969 224.8725)scale(0.1 -0.1)">
      <defs>
       <path id="DejaVuSans-28" d="M 1984 4856 
Q 1566 4138 1362 3434 
Q 1159 2731 1159 2009 
Q 1159 1288 1364 580 
Q 1569 -128 1984 -844 
L 1484 -844 
Q 1016 -109 783 600 
Q 550 1309 550 2009 
Q 550 2706 781 3412 
Q 1013 4119 1484 4856 
L 1984 4856 
z
" transform="scale(0.015625)"/>
       <path id="DejaVuSans-67" d="M 2906 1791 
Q 2906 2416 2648 2759 
Q 2391 3103 1925 3103 
Q 1463 3103 1205 2759 
Q 947 2416 947 1791 
Q 947 1169 1205 825 
Q 1463 481 1925 481 
Q 2391 481 2648 825 
Q 2906 1169 2906 1791 
z
M 3481 434 
Q 3481 -459 3084 -895 
Q 2688 -1331 1869 -1331 
Q 1566 -1331 1297 -1286 
Q 1028 -1241 775 -1147 
L 775 -588 
Q 1028 -725 1275 -790 
Q 1522 -856 1778 -856 
Q 2344 -856 2625 -561 
Q 2906 -266 2906 331 
L 2906 616 
Q 2728 306 2450 153 
Q 2172 0 1784 0 
Q 1141 0 747 490 
Q 353 981 353 1791 
Q 353 2603 747 3093 
Q 1141 3584 1784 3584 
Q 2172 3584 2450 3431 
Q 2728 3278 2906 2969 
L 2906 3500 
L 3481 3500 
L 3481 434 
z
" transform="scale(0.015625)"/>
       <path id="DejaVuSans-65" d="M 3597 1894 
L 3597 1613 
L 953 1613 
Q 991 1019 1311 708 
Q 1631 397 2203 397 
Q 2534 397 2845 478 
Q 3156 559 3463 722 
L 3463 178 
Q 3153 47 2828 -22 
Q 2503 -91 2169 -91 
Q 1331 -91 842 396 
Q 353 884 353 1716 
Q 353 2575 817 3079 
Q 1281 3584 2069 3584 
Q 2775 3584 3186 3129 
Q 3597 2675 3597 1894 
z
M 3022 2063 
Q 3016 2534 2758 2815 
Q 2500 3097 2075 3097 
Q 1594 3097 1305 2825 
Q 1016 2553 972 2059 
L 3022 2063 
z
" transform="scale(0.015625)"/>
       <path id="DejaVuSans-61" d="M 2194 1759 
Q 1497 1759 1228 1600 
Q 959 1441 959 1056 
Q 959 750 1161 570 
Q 1363 391 1709 391 
Q 2188 391 2477 730 
Q 2766 1069 2766 1631 
L 2766 1759 
L 2194 1759 
z
M 3341 1997 
L 3341 0 
L 2766 0 
L 2766 531 
Q 2569 213 2275 61 
Q 1981 -91 1556 -91 
Q 1019 -91 701 211 
Q 384 513 384 1019 
Q 384 1609 779 1909 
Q 1175 2209 1959 2209 
L 2766 2209 
L 2766 2266 
Q 2766 2663 2505 2880 
Q 2244 3097 1772 3097 
Q 1472 3097 1187 3025 
Q 903 2953 641 2809 
L 641 3341 
Q 956 3463 1253 3523 
Q 1550 3584 1831 3584 
Q 2591 3584 2966 3190 
Q 3341 2797 3341 1997 
z
" transform="scale(0.015625)"/>
       <path id="DejaVuSans-6e" d="M 3513 2113 
L 3513 0 
L 2938 0 
L 2938 2094 
Q 2938 2591 2744 2837 
Q 2550 3084 2163 3084 
Q 1697 3084 1428 2787 
Q 1159 2491 1159 1978 
L 1159 0 
L 581 0 
L 581 3500 
L 1159 3500 
L 1159 2956 
Q 1366 3272 1645 3428 
Q 1925 3584 2291 3584 
Q 2894 3584 3203 3211 
Q 3513 2838 3513 2113 
z
" transform="scale(0.015625)"/>
       <path id="DejaVuSans-29" d="M 513 4856 
L 1013 4856 
Q 1481 4119 1714 3412 
Q 1947 2706 1947 2009 
Q 1947 1309 1714 600 
Q 1481 -109 1013 -844 
L 513 -844 
Q 928 -128 1133 580 
Q 1338 1288 1338 2009 
Q 1338 2731 1133 3434 
Q 928 4138 513 4856 
z
" transform="scale(0.015625)"/>
      </defs>
      <use xlink:href="#DejaVuSans-28"/>
      <use xlink:href="#DejaVuSans-67" x="39.013672"/>
      <use xlink:href="#DejaVuSans-6d" x="102.490234"/>
      <use xlink:href="#DejaVuSans-65" x="199.902344"/>
      <use xlink:href="#DejaVuSans-61" x="261.425781"/>
      <use xlink:href="#DejaVuSans-6e" x="322.705078"/>
      <use xlink:href="#DejaVuSans-29" x="386.083984"/>
     </g>
    </g>
   </g>
   <g id="matplotlib.axis_2">
    <g id="ytick_1">
     <g id="line2d_6">
      <defs>
       <path id="m7dc205fb54" d="M 0 0 
L -3.5 0 
" style="stroke: #000000; stroke-width: 0.8"/>
      </defs>
      <g>
       <use xlink:href="#m7dc205fb54" x="58.163438" y="153.53798" style="stroke: #000000; stroke-width: 0.8"/>
      </g>
     </g>
     <g id="text_7">
      <!-- 50 -->
      <g transform="translate(38.438437 157.337199)scale(0.1 -0.1)">
       <defs>
        <path id="DejaVuSans-35" d="M 691 4666 
L 3169 4666 
L 3169 4134 
L 1269 4134 
L 1269 2991 
Q 1406 3038 1543 3061 
Q 1681 3084 1819 3084 
Q 2600 3084 3056 2656 
Q 3513 2228 3513 1497 
Q 3513 744 3044 326 
Q 2575 -91 1722 -91 
Q 1428 -91 1123 -41 
Q 819 9 494 109 
L 494 744 
Q 775 591 1075 516 
Q 1375 441 1709 441 
Q 2250 441 2565 725 
Q 2881 1009 2881 1497 
Q 2881 1984 2565 2268 
Q 2250 2553 1709 2553 
Q 1456 2553 1204 2497 
Q 953 2441 691 2322 
L 691 4666 
z
" transform="scale(0.015625)"/>
       </defs>
       <use xlink:href="#DejaVuSans-35"/>
       <use xlink:href="#DejaVuSans-30" x="63.623047"/>
      </g>
     </g>
    </g>
    <g id="ytick_2">
     <g id="line2d_7">
      <g>
       <use xlink:href="#m7dc205fb54" x="58.163438" y="118.527735" style="stroke: #000000; stroke-width: 0.8"/>
      </g>
     </g>
     <g id="text_8">
      <!-- 100 -->
      <g transform="translate(32.075937 122.326954)scale(0.1 -0.1)">
       <use xlink:href="#DejaVuSans-31"/>
       <use xlink:href="#DejaVuSans-30" x="63.623047"/>
       <use xlink:href="#DejaVuSans-30" x="127.246094"/>
      </g>
     </g>
    </g>
    <g id="ytick_3">
     <g id="line2d_8">
      <g>
       <use xlink:href="#m7dc205fb54" x="58.163438" y="83.51749" style="stroke: #000000; stroke-width: 0.8"/>
      </g>
     </g>
     <g id="text_9">
      <!-- 150 -->
      <g transform="translate(32.075937 87.316709)scale(0.1 -0.1)">
       <use xlink:href="#DejaVuSans-31"/>
       <use xlink:href="#DejaVuSans-35" x="63.623047"/>
       <use xlink:href="#DejaVuSans-30" x="127.246094"/>
      </g>
     </g>
    </g>
    <g id="ytick_4">
     <g id="line2d_9">
      <g>
       <use xlink:href="#m7dc205fb54" x="58.163438" y="48.507246" style="stroke: #000000; stroke-width: 0.8"/>
      </g>
     </g>
     <g id="text_10">
      <!-- 200 -->
      <g transform="translate(32.075937 52.306464)scale(0.1 -0.1)">
       <use xlink:href="#DejaVuSans-32"/>
       <use xlink:href="#DejaVuSans-30" x="63.623047"/>
       <use xlink:href="#DejaVuSans-30" x="127.246094"/>
      </g>
     </g>
    </g>
    <g id="text_11">
     <!-- (%) iMN yield -->
     <g transform="translate(14.798437 137.120625)rotate(-90)scale(0.1 -0.1)">
      <defs>
       <path id="DejaVuSans-25" d="M 4653 2053 
Q 4381 2053 4226 1822 
Q 4072 1591 4072 1178 
Q 4072 772 4226 539 
Q 4381 306 4653 306 
Q 4919 306 5073 539 
Q 5228 772 5228 1178 
Q 5228 1588 5073 1820 
Q 4919 2053 4653 2053 
z
M 4653 2450 
Q 5147 2450 5437 2106 
Q 5728 1763 5728 1178 
Q 5728 594 5436 251 
Q 5144 -91 4653 -91 
Q 4153 -91 3862 251 
Q 3572 594 3572 1178 
Q 3572 1766 3864 2108 
Q 4156 2450 4653 2450 
z
M 1428 4353 
Q 1159 4353 1004 4120 
Q 850 3888 850 3481 
Q 850 3069 1003 2837 
Q 1156 2606 1428 2606 
Q 1700 2606 1854 2837 
Q 2009 3069 2009 3481 
Q 2009 3884 1853 4118 
Q 1697 4353 1428 4353 
z
M 4250 4750 
L 4750 4750 
L 1831 -91 
L 1331 -91 
L 4250 4750 
z
M 1428 4750 
Q 1922 4750 2215 4408 
Q 2509 4066 2509 3481 
Q 2509 2891 2217 2550 
Q 1925 2209 1428 2209 
Q 931 2209 642 2551 
Q 353 2894 353 3481 
Q 353 4063 643 4406 
Q 934 4750 1428 4750 
z
" transform="scale(0.015625)"/>
       <path id="DejaVuSans-4d" d="M 628 4666 
L 1569 4666 
L 2759 1491 
L 3956 4666 
L 4897 4666 
L 4897 0 
L 4281 0 
L 4281 4097 
L 3078 897 
L 2444 897 
L 1241 4097 
L 1241 0 
L 628 0 
L 628 4666 
z
" transform="scale(0.015625)"/>
       <path id="DejaVuSans-4e" d="M 628 4666 
L 1478 4666 
L 3547 763 
L 3547 4666 
L 4159 4666 
L 4159 0 
L 3309 0 
L 1241 3903 
L 1241 0 
L 628 0 
L 628 4666 
z
" transform="scale(0.015625)"/>
       <path id="DejaVuSans-6c" d="M 603 4863 
L 1178 4863 
L 1178 0 
L 603 0 
L 603 4863 
z
" transform="scale(0.015625)"/>
      </defs>
      <use xlink:href="#DejaVuSans-28"/>
      <use xlink:href="#DejaVuSans-25" x="39.013672"/>
      <use xlink:href="#DejaVuSans-29" x="134.033203"/>
      <use xlink:href="#DejaVuSans-20" x="173.046875"/>
      <use xlink:href="#DejaVuSans-69" x="204.833984"/>
      <use xlink:href="#DejaVuSans-4d" x="232.617188"/>
      <use xlink:href="#DejaVuSans-4e" x="318.896484"/>
      <use xlink:href="#DejaVuSans-20" x="393.701172"/>
      <use xlink:href="#DejaVuSans-79" x="425.488281"/>
      <use xlink:href="#DejaVuSans-69" x="484.667969"/>
      <use xlink:href="#DejaVuSans-65" x="512.451172"/>
      <use xlink:href="#DejaVuSans-6c" x="573.974609"/>
      <use xlink:href="#DejaVuSans-64" x="601.757812"/>
     </g>
     <!-- per MEF plated -->
     <g transform="translate(25.99625 141.53)rotate(-90)scale(0.1 -0.1)">
      <defs>
       <path id="DejaVuSans-72" d="M 2631 2963 
Q 2534 3019 2420 3045 
Q 2306 3072 2169 3072 
Q 1681 3072 1420 2755 
Q 1159 2438 1159 1844 
L 1159 0 
L 581 0 
L 581 3500 
L 1159 3500 
L 1159 2956 
Q 1341 3275 1631 3429 
Q 1922 3584 2338 3584 
Q 2397 3584 2469 3576 
Q 2541 3569 2628 3553 
L 2631 2963 
z
" transform="scale(0.015625)"/>
       <path id="DejaVuSans-45" d="M 628 4666 
L 3578 4666 
L 3578 4134 
L 1259 4134 
L 1259 2753 
L 3481 2753 
L 3481 2222 
L 1259 2222 
L 1259 531 
L 3634 531 
L 3634 0 
L 628 0 
L 628 4666 
z
" transform="scale(0.015625)"/>
       <path id="DejaVuSans-46" d="M 628 4666 
L 3309 4666 
L 3309 4134 
L 1259 4134 
L 1259 2759 
L 3109 2759 
L 3109 2228 
L 1259 2228 
L 1259 0 
L 628 0 
L 628 4666 
z
" transform="scale(0.015625)"/>
       <path id="DejaVuSans-74" d="M 1172 4494 
L 1172 3500 
L 2356 3500 
L 2356 3053 
L 1172 3053 
L 1172 1153 
Q 1172 725 1289 603 
Q 1406 481 1766 481 
L 2356 481 
L 2356 0 
L 1766 0 
Q 1100 0 847 248 
Q 594 497 594 1153 
L 594 3053 
L 172 3053 
L 172 3500 
L 594 3500 
L 594 4494 
L 1172 4494 
z
" transform="scale(0.015625)"/>
      </defs>
      <use xlink:href="#DejaVuSans-70"/>
      <use xlink:href="#DejaVuSans-65" x="63.476562"/>
      <use xlink:href="#DejaVuSans-72" x="125"/>
      <use xlink:href="#DejaVuSans-20" x="166.113281"/>
      <use xlink:href="#DejaVuSans-4d" x="197.900391"/>
      <use xlink:href="#DejaVuSans-45" x="284.179688"/>
      <use xlink:href="#DejaVuSans-46" x="347.363281"/>
      <use xlink:href="#DejaVuSans-20" x="404.882812"/>
      <use xlink:href="#DejaVuSans-70" x="436.669922"/>
      <use xlink:href="#DejaVuSans-6c" x="500.146484"/>
      <use xlink:href="#DejaVuSans-61" x="527.929688"/>
      <use xlink:href="#DejaVuSans-74" x="589.208984"/>
      <use xlink:href="#DejaVuSans-65" x="628.417969"/>
      <use xlink:href="#DejaVuSans-64" x="689.941406"/>
     </g>
    </g>
   </g>
   <g id="line2d_10">
    <path d="M 90.98837 71.654907 
L 91.688077 72.122545 
L 92.387784 72.590183 
L 93.08749 73.057821 
L 93.787197 73.525459 
L 94.486904 73.993097 
L 95.186611 74.460735 
L 95.886318 74.928373 
L 96.586025 75.396011 
L 97.285731 75.863649 
L 97.985438 76.331287 
L 98.685145 76.798925 
L 99.384852 77.266563 
L 100.084559 77.734202 
L 100.784266 78.20184 
L 101.483972 78.669478 
L 102.183679 79.137116 
L 102.883386 79.604754 
L 103.583093 80.072392 
L 104.2828 80.54003 
L 104.982507 81.007668 
L 105.682213 81.475306 
L 106.38192 81.942944 
L 107.081627 82.410582 
L 107.781334 82.87822 
L 108.481041 83.345858 
L 109.180748 83.813496 
L 109.880454 84.281134 
L 110.580161 84.748772 
L 111.279868 85.21641 
L 111.979575 85.684048 
L 112.679282 86.151686 
L 113.378989 86.619324 
L 114.078696 87.086962 
L 114.778402 87.5546 
L 115.478109 88.022238 
L 116.177816 88.489876 
L 116.877523 88.957515 
L 117.57723 89.425153 
L 118.276937 89.892791 
L 118.976643 90.360429 
L 119.67635 90.828067 
L 120.376057 91.295705 
L 121.075764 91.763343 
L 121.775471 92.230981 
L 122.475178 92.698619 
L 123.174884 93.166257 
L 123.874591 93.633895 
L 124.574298 94.101533 
L 125.274005 94.569171 
L 125.973712 95.036809 
L 126.673419 95.504447 
L 127.373125 95.972085 
L 128.072832 96.439723 
L 128.772539 96.907361 
L 129.472246 97.374999 
L 130.171953 97.842637 
L 130.87166 98.310275 
L 131.571366 98.777913 
L 132.271073 99.245551 
L 132.97078 99.713189 
L 133.670487 100.180827 
L 134.370194 100.648466 
L 135.069901 101.116104 
L 135.769607 101.583742 
L 136.469314 102.05138 
L 137.169021 102.519018 
L 137.868728 102.986656 
L 138.568435 103.454294 
L 139.268142 103.921932 
L 139.967849 104.38957 
L 140.667555 104.857208 
L 141.367262 105.324846 
L 142.066969 105.792484 
L 142.766676 106.260122 
L 143.466383 106.72776 
L 144.16609 107.195398 
L 144.865796 107.663036 
L 145.565503 108.130674 
L 146.26521 108.598312 
L 146.964917 109.06595 
L 147.664624 109.533588 
L 148.364331 110.001226 
L 149.064037 110.468864 
L 149.763744 110.936502 
L 150.463451 111.40414 
L 151.163158 111.871779 
L 151.862865 112.339417 
L 152.562572 112.807055 
L 153.262278 113.274693 
L 153.961985 113.742331 
L 154.661692 114.209969 
L 155.361399 114.677607 
L 156.061106 115.145245 
L 156.760813 115.612883 
L 157.460519 116.080521 
L 158.160226 116.548159 
L 158.859933 117.015797 
L 159.55964 117.483435 
L 160.259347 117.951073 
" clip-path="url(#pb97736e6fa)" style="fill: none; stroke: #498ac6; stroke-width: 2.25; stroke-linecap: square"/>
   </g>
   <g id="LineCollection_1">
    <path d="M 120.028632 96.398927 
L 135.734552 96.398927 
" clip-path="url(#pb97736e6fa)" style="fill: none; stroke: #000000; stroke-width: 0.5"/>
    <path d="M 98.710902 68.876206 
L 121.193361 68.876206 
" clip-path="url(#pb97736e6fa)" style="fill: none; stroke: #000000; stroke-width: 0.5"/>
    <path d="M 99.761788 57.234133 
L 106.051156 57.234133 
" clip-path="url(#pb97736e6fa)" style="fill: none; stroke: #000000; stroke-width: 0.5"/>
    <path d="M 107.011638 105.868031 
L 111.387385 105.868031 
" clip-path="url(#pb97736e6fa)" style="fill: none; stroke: #000000; stroke-width: 0.5"/>
    <path d="M 101.62592 61.036245 
L 102.104812 61.036245 
" clip-path="url(#pb97736e6fa)" style="fill: none; stroke: #000000; stroke-width: 0.5"/>
    <path d="M 86.832977 33.914975 
L 95.143763 33.914975 
" clip-path="url(#pb97736e6fa)" style="fill: none; stroke: #000000; stroke-width: 0.5"/>
    <path d="M 92.493018 50.012686 
L 96.888653 50.012686 
" clip-path="url(#pb97736e6fa)" style="fill: none; stroke: #000000; stroke-width: 0.5"/>
    <path d="M 94.203687 92.10667 
L 101.300219 92.10667 
" clip-path="url(#pb97736e6fa)" style="fill: none; stroke: #000000; stroke-width: 0.5"/>
    <path d="M 116.847248 98.436523 
L 130.207954 98.436523 
" clip-path="url(#pb97736e6fa)" style="fill: none; stroke: #000000; stroke-width: 0.5"/>
    <path d="M 101.962729 79.664029 
L 124.295632 79.664029 
" clip-path="url(#pb97736e6fa)" style="fill: none; stroke: #000000; stroke-width: 0.5"/>
    <path d="M 117.363492 73.404198 
L 133.392609 73.404198 
" clip-path="url(#pb97736e6fa)" style="fill: none; stroke: #000000; stroke-width: 0.5"/>
    <path d="M 122.754999 121.081149 
L 138.617118 121.081149 
" clip-path="url(#pb97736e6fa)" style="fill: none; stroke: #000000; stroke-width: 0.5"/>
    <path d="M 121.369593 82.124083 
L 128.713539 82.124083 
" clip-path="url(#pb97736e6fa)" style="fill: none; stroke: #000000; stroke-width: 0.5"/>
    <path d="M 101.302648 65.244477 
L 125.044948 65.244477 
" clip-path="url(#pb97736e6fa)" style="fill: none; stroke: #000000; stroke-width: 0.5"/>
    <path d="M 143.38428 82.765937 
L 158.240953 82.765937 
" clip-path="url(#pb97736e6fa)" style="fill: none; stroke: #000000; stroke-width: 0.5"/>
    <path d="M 151.824684 134.807499 
L 168.694009 134.807499 
" clip-path="url(#pb97736e6fa)" style="fill: none; stroke: #000000; stroke-width: 0.5"/>
    <path d="M 109.866948 86.558714 
L 123.297205 86.558714 
" clip-path="url(#pb97736e6fa)" style="fill: none; stroke: #000000; stroke-width: 0.5"/>
    <path d="M 92.354355 59.379094 
L 107.047257 59.379094 
" clip-path="url(#pb97736e6fa)" style="fill: none; stroke: #000000; stroke-width: 0.5"/>
    <path d="M 103.904031 81.991044 
L 111.556351 81.991044 
" clip-path="url(#pb97736e6fa)" style="fill: none; stroke: #000000; stroke-width: 0.5"/>
    <path d="M 112.342858 108.202047 
L 123.98106 108.202047 
" clip-path="url(#pb97736e6fa)" style="fill: none; stroke: #000000; stroke-width: 0.5"/>
    <path d="M 124.529095 100.994605 
L 132.798666 100.994605 
" clip-path="url(#pb97736e6fa)" style="fill: none; stroke: #000000; stroke-width: 0.5"/>
    <path d="M 111.762368 111.098561 
L 120.027559 111.098561 
" clip-path="url(#pb97736e6fa)" style="fill: none; stroke: #000000; stroke-width: 0.5"/>
    <path d="M 93.250644 106.173787 
L 96.889085 106.173787 
" clip-path="url(#pb97736e6fa)" style="fill: none; stroke: #000000; stroke-width: 0.5"/>
    <path d="M 95.709035 145.303571 
L 99.648009 145.303571 
" clip-path="url(#pb97736e6fa)" style="fill: none; stroke: #000000; stroke-width: 0.5"/>
   </g>
   <g id="LineCollection_2">
    <path d="M 127.881592 104.242755 
L 127.881592 88.555098 
" clip-path="url(#pb97736e6fa)" style="fill: none; stroke: #000000; stroke-width: 0.5"/>
    <path d="M 109.952132 77.168415 
L 109.952132 60.583997 
" clip-path="url(#pb97736e6fa)" style="fill: none; stroke: #000000; stroke-width: 0.5"/>
    <path d="M 102.906472 68.717645 
L 102.906472 45.75062 
" clip-path="url(#pb97736e6fa)" style="fill: none; stroke: #000000; stroke-width: 0.5"/>
    <path d="M 109.199512 110.404645 
L 109.199512 101.331416 
" clip-path="url(#pb97736e6fa)" style="fill: none; stroke: #000000; stroke-width: 0.5"/>
    <path d="M 101.865366 75.613658 
L 101.865366 46.458832 
" clip-path="url(#pb97736e6fa)" style="fill: none; stroke: #000000; stroke-width: 0.5"/>
    <path d="M 90.98837 38.099099 
L 90.98837 29.730852 
" clip-path="url(#pb97736e6fa)" style="fill: none; stroke: #000000; stroke-width: 0.5"/>
    <path d="M 94.690836 58.457564 
L 94.690836 41.567808 
" clip-path="url(#pb97736e6fa)" style="fill: none; stroke: #000000; stroke-width: 0.5"/>
    <path d="M 97.751953 106.814541 
L 97.751953 77.3988 
" clip-path="url(#pb97736e6fa)" style="fill: none; stroke: #000000; stroke-width: 0.5"/>
    <path d="M 123.527601 107.379775 
L 123.527601 89.49327 
" clip-path="url(#pb97736e6fa)" style="fill: none; stroke: #000000; stroke-width: 0.5"/>
    <path d="M 113.129181 83.163376 
L 113.129181 76.164683 
" clip-path="url(#pb97736e6fa)" style="fill: none; stroke: #000000; stroke-width: 0.5"/>
    <path d="M 125.37805 85.11494 
L 125.37805 61.693455 
" clip-path="url(#pb97736e6fa)" style="fill: none; stroke: #000000; stroke-width: 0.5"/>
    <path d="M 130.686059 123.682924 
L 130.686059 118.479374 
" clip-path="url(#pb97736e6fa)" style="fill: none; stroke: #000000; stroke-width: 0.5"/>
    <path d="M 125.041566 88.912854 
L 125.041566 75.335312 
" clip-path="url(#pb97736e6fa)" style="fill: none; stroke: #000000; stroke-width: 0.5"/>
    <path d="M 113.173798 73.82348 
L 113.173798 56.665474 
" clip-path="url(#pb97736e6fa)" style="fill: none; stroke: #000000; stroke-width: 0.5"/>
    <path d="M 150.812616 93.168478 
L 150.812616 72.363396 
" clip-path="url(#pb97736e6fa)" style="fill: none; stroke: #000000; stroke-width: 0.5"/>
    <path d="M 160.259347 139.814984 
L 160.259347 129.800014 
" clip-path="url(#pb97736e6fa)" style="fill: none; stroke: #000000; stroke-width: 0.5"/>
    <path d="M 116.582076 92.163877 
L 116.582076 80.953551 
" clip-path="url(#pb97736e6fa)" style="fill: none; stroke: #000000; stroke-width: 0.5"/>
    <path d="M 99.700806 67.076399 
L 99.700806 51.681788 
" clip-path="url(#pb97736e6fa)" style="fill: none; stroke: #000000; stroke-width: 0.5"/>
    <path d="M 107.730191 97.974379 
L 107.730191 66.007709 
" clip-path="url(#pb97736e6fa)" style="fill: none; stroke: #000000; stroke-width: 0.5"/>
    <path d="M 118.161959 111.485563 
L 118.161959 104.918531 
" clip-path="url(#pb97736e6fa)" style="fill: none; stroke: #000000; stroke-width: 0.5"/>
    <path d="M 128.66388 104.765677 
L 128.66388 97.223533 
" clip-path="url(#pb97736e6fa)" style="fill: none; stroke: #000000; stroke-width: 0.5"/>
    <path d="M 115.894963 117.359428 
L 115.894963 104.837694 
" clip-path="url(#pb97736e6fa)" style="fill: none; stroke: #000000; stroke-width: 0.5"/>
    <path d="M 95.069864 112.649402 
L 95.069864 99.698172 
" clip-path="url(#pb97736e6fa)" style="fill: none; stroke: #000000; stroke-width: 0.5"/>
    <path d="M 97.678522 146.86442 
L 97.678522 143.742721 
" clip-path="url(#pb97736e6fa)" style="fill: none; stroke: #000000; stroke-width: 0.5"/>
   </g>
   <g id="LineCollection_3">
    <path d="M 66.938312 166.403078 
L 67.372484 166.403078 
" clip-path="url(#pb97736e6fa)" style="fill: none; stroke: #000000; stroke-width: 0.5"/>
    <path d="M 65.772528 176.070574 
L 65.98235 176.070574 
" clip-path="url(#pb97736e6fa)" style="fill: none; stroke: #000000; stroke-width: 0.5"/>
    <path d="M 67.439047 160.771097 
L 67.595395 160.771097 
" clip-path="url(#pb97736e6fa)" style="fill: none; stroke: #000000; stroke-width: 0.5"/>
    <path d="M 67.695495 176.9575 
L 67.788805 176.9575 
" clip-path="url(#pb97736e6fa)" style="fill: none; stroke: #000000; stroke-width: 0.5"/>
   </g>
   <g id="LineCollection_4">
    <path d="M 67.155398 167.33308 
L 67.155398 165.473076 
" clip-path="url(#pb97736e6fa)" style="fill: none; stroke: #000000; stroke-width: 0.5"/>
    <path d="M 65.877439 176.854584 
L 65.877439 175.286563 
" clip-path="url(#pb97736e6fa)" style="fill: none; stroke: #000000; stroke-width: 0.5"/>
    <path d="M 67.517221 167.413131 
L 67.517221 154.129062 
" clip-path="url(#pb97736e6fa)" style="fill: none; stroke: #000000; stroke-width: 0.5"/>
    <path d="M 67.74215 177.985398 
L 67.74215 175.929602 
" clip-path="url(#pb97736e6fa)" style="fill: none; stroke: #000000; stroke-width: 0.5"/>
   </g>
   <g id="line2d_11">
    <path d="M 117.825967 91.283679 
L 118.599945 91.180537 
L 119.373923 91.077394 
L 120.147901 90.974252 
L 120.921879 90.87111 
L 121.695857 90.767967 
L 122.469835 90.664825 
L 123.243813 90.561683 
L 124.01779 90.45854 
L 124.791768 90.355398 
L 125.565746 90.252256 
L 126.339724 90.149113 
L 127.113702 90.045971 
L 127.88768 89.942829 
L 128.661658 89.839686 
L 129.435636 89.736544 
L 130.209614 89.633402 
L 130.983592 89.530259 
L 131.75757 89.427117 
L 132.531547 89.323975 
L 133.305525 89.220832 
L 134.079503 89.11769 
L 134.853481 89.014548 
L 135.627459 88.911405 
L 136.401437 88.808263 
L 137.175415 88.705121 
L 137.949393 88.601978 
L 138.723371 88.498836 
L 139.497349 88.395694 
L 140.271327 88.292551 
L 141.045304 88.189409 
L 141.819282 88.086267 
L 142.59326 87.983124 
L 143.367238 87.879982 
L 144.141216 87.77684 
L 144.915194 87.673697 
L 145.689172 87.570555 
L 146.46315 87.467413 
L 147.237128 87.36427 
L 148.011106 87.261128 
L 148.785084 87.157986 
L 149.559062 87.054843 
L 150.333039 86.951701 
L 151.107017 86.848559 
L 151.880995 86.745416 
L 152.654973 86.642274 
L 153.428951 86.539132 
L 154.202929 86.43599 
L 154.976907 86.332847 
L 155.750885 86.229705 
L 156.524863 86.126563 
L 157.298841 86.02342 
L 158.072819 85.920278 
L 158.846796 85.817136 
L 159.620774 85.713993 
L 160.394752 85.610851 
L 161.16873 85.507709 
L 161.942708 85.404566 
L 162.716686 85.301424 
L 163.490664 85.198282 
L 164.264642 85.095139 
L 165.03862 84.991997 
L 165.812598 84.888855 
L 166.586576 84.785712 
L 167.360553 84.68257 
L 168.134531 84.579428 
L 168.908509 84.476285 
L 169.682487 84.373143 
L 170.456465 84.270001 
L 171.230443 84.166858 
L 172.004421 84.063716 
L 172.778399 83.960574 
L 173.552377 83.857431 
L 174.326355 83.754289 
L 175.100333 83.651147 
L 175.87431 83.548004 
L 176.648288 83.444862 
L 177.422266 83.34172 
L 178.196244 83.238577 
L 178.970222 83.135435 
L 179.7442 83.032293 
L 180.518178 82.92915 
L 181.292156 82.826008 
L 182.066134 82.722866 
L 182.840112 82.619723 
L 183.61409 82.516581 
L 184.388067 82.413439 
L 185.162045 82.310296 
L 185.936023 82.207154 
L 186.710001 82.104012 
L 187.483979 82.000869 
L 188.257957 81.897727 
L 189.031935 81.794585 
L 189.805913 81.691442 
L 190.579891 81.5883 
L 191.353869 81.485158 
L 192.127847 81.382016 
L 192.901825 81.278873 
L 193.675802 81.175731 
L 194.44978 81.072589 
" clip-path="url(#pb97736e6fa)" style="fill: none; stroke: #808080; stroke-width: 2.25; stroke-linecap: square"/>
   </g>
   <g id="LineCollection_5">
    <path d="M 126.006836 96.398927 
L 135.592144 96.398927 
" clip-path="url(#pb97736e6fa)" style="fill: none; stroke: #000000; stroke-width: 0.5"/>
    <path d="M 155.529602 68.876206 
L 203.966508 68.876206 
" clip-path="url(#pb97736e6fa)" style="fill: none; stroke: #000000; stroke-width: 0.5"/>
    <path d="M 127.710839 57.234133 
L 135.63945 57.234133 
" clip-path="url(#pb97736e6fa)" style="fill: none; stroke: #000000; stroke-width: 0.5"/>
    <path d="M 118.848705 105.868031 
L 128.458067 105.868031 
" clip-path="url(#pb97736e6fa)" style="fill: none; stroke: #000000; stroke-width: 0.5"/>
    <path d="M 117.028169 61.036245 
L 121.3014 61.036245 
" clip-path="url(#pb97736e6fa)" style="fill: none; stroke: #000000; stroke-width: 0.5"/>
    <path d="M 127.822554 33.914975 
L 150.216249 33.914975 
" clip-path="url(#pb97736e6fa)" style="fill: none; stroke: #000000; stroke-width: 0.5"/>
    <path d="M 120.079874 50.012686 
L 125.233746 50.012686 
" clip-path="url(#pb97736e6fa)" style="fill: none; stroke: #000000; stroke-width: 0.5"/>
    <path d="M 116.00131 92.10667 
L 121.982523 92.10667 
" clip-path="url(#pb97736e6fa)" style="fill: none; stroke: #000000; stroke-width: 0.5"/>
    <path d="M 128.261091 98.436523 
L 133.604904 98.436523 
" clip-path="url(#pb97736e6fa)" style="fill: none; stroke: #000000; stroke-width: 0.5"/>
    <path d="M 170.945214 79.664029 
L 217.954347 79.664029 
" clip-path="url(#pb97736e6fa)" style="fill: none; stroke: #000000; stroke-width: 0.5"/>
    <path d="M 153.272704 73.404198 
L 164.44552 73.404198 
" clip-path="url(#pb97736e6fa)" style="fill: none; stroke: #000000; stroke-width: 0.5"/>
    <path d="M 129.428123 121.081149 
L 145.2157 121.081149 
" clip-path="url(#pb97736e6fa)" style="fill: none; stroke: #000000; stroke-width: 0.5"/>
    <path d="M 128.647552 82.124083 
L 134.870645 82.124083 
" clip-path="url(#pb97736e6fa)" style="fill: none; stroke: #000000; stroke-width: 0.5"/>
    <path d="M 160.82098 65.244477 
L 216.906775 65.244477 
" clip-path="url(#pb97736e6fa)" style="fill: none; stroke: #000000; stroke-width: 0.5"/>
    <path d="M 176.603104 82.765937 
L 196.759476 82.765937 
" clip-path="url(#pb97736e6fa)" style="fill: none; stroke: #000000; stroke-width: 0.5"/>
    <path d="M 149.696581 134.807499 
L 170.783535 134.807499 
" clip-path="url(#pb97736e6fa)" style="fill: none; stroke: #000000; stroke-width: 0.5"/>
    <path d="M 124.012764 86.558714 
L 127.321686 86.558714 
" clip-path="url(#pb97736e6fa)" style="fill: none; stroke: #000000; stroke-width: 0.5"/>
    <path d="M 140.837737 59.379094 
L 179.492587 59.379094 
" clip-path="url(#pb97736e6fa)" style="fill: none; stroke: #000000; stroke-width: 0.5"/>
    <path d="M 138.522599 81.991044 
L 147.111923 81.991044 
" clip-path="url(#pb97736e6fa)" style="fill: none; stroke: #000000; stroke-width: 0.5"/>
    <path d="M 126.851232 108.202047 
L 141.474996 108.202047 
" clip-path="url(#pb97736e6fa)" style="fill: none; stroke: #000000; stroke-width: 0.5"/>
    <path d="M 135.714225 100.994605 
L 136.945725 100.994605 
" clip-path="url(#pb97736e6fa)" style="fill: none; stroke: #000000; stroke-width: 0.5"/>
    <path d="M 185.405552 111.098561 
L 197.00656 111.098561 
" clip-path="url(#pb97736e6fa)" style="fill: none; stroke: #000000; stroke-width: 0.5"/>
    <path d="M 121.254101 106.173787 
L 131.076577 106.173787 
" clip-path="url(#pb97736e6fa)" style="fill: none; stroke: #000000; stroke-width: 0.5"/>
    <path d="M 116.004239 145.303571 
L 119.647696 145.303571 
" clip-path="url(#pb97736e6fa)" style="fill: none; stroke: #000000; stroke-width: 0.5"/>
   </g>
   <g id="LineCollection_6">
    <path d="M 130.79949 104.242755 
L 130.79949 88.555098 
" clip-path="url(#pb97736e6fa)" style="fill: none; stroke: #000000; stroke-width: 0.5"/>
    <path d="M 179.748055 77.168415 
L 179.748055 60.583997 
" clip-path="url(#pb97736e6fa)" style="fill: none; stroke: #000000; stroke-width: 0.5"/>
    <path d="M 131.675145 68.717645 
L 131.675145 45.75062 
" clip-path="url(#pb97736e6fa)" style="fill: none; stroke: #000000; stroke-width: 0.5"/>
    <path d="M 123.653386 110.404645 
L 123.653386 101.331416 
" clip-path="url(#pb97736e6fa)" style="fill: none; stroke: #000000; stroke-width: 0.5"/>
    <path d="M 119.164785 75.613658 
L 119.164785 46.458832 
" clip-path="url(#pb97736e6fa)" style="fill: none; stroke: #000000; stroke-width: 0.5"/>
    <path d="M 139.019402 38.099099 
L 139.019402 29.730852 
" clip-path="url(#pb97736e6fa)" style="fill: none; stroke: #000000; stroke-width: 0.5"/>
    <path d="M 122.65681 58.457564 
L 122.65681 41.567808 
" clip-path="url(#pb97736e6fa)" style="fill: none; stroke: #000000; stroke-width: 0.5"/>
    <path d="M 118.991916 106.814541 
L 118.991916 77.3988 
" clip-path="url(#pb97736e6fa)" style="fill: none; stroke: #000000; stroke-width: 0.5"/>
    <path d="M 130.932997 107.379775 
L 130.932997 89.49327 
" clip-path="url(#pb97736e6fa)" style="fill: none; stroke: #000000; stroke-width: 0.5"/>
    <path d="M 194.44978 83.163376 
L 194.44978 76.164683 
" clip-path="url(#pb97736e6fa)" style="fill: none; stroke: #000000; stroke-width: 0.5"/>
    <path d="M 158.859112 85.11494 
L 158.859112 61.693455 
" clip-path="url(#pb97736e6fa)" style="fill: none; stroke: #000000; stroke-width: 0.5"/>
    <path d="M 137.321911 123.682924 
L 137.321911 118.479374 
" clip-path="url(#pb97736e6fa)" style="fill: none; stroke: #000000; stroke-width: 0.5"/>
    <path d="M 131.759099 88.912854 
L 131.759099 75.335312 
" clip-path="url(#pb97736e6fa)" style="fill: none; stroke: #000000; stroke-width: 0.5"/>
    <path d="M 188.863878 73.82348 
L 188.863878 56.665474 
" clip-path="url(#pb97736e6fa)" style="fill: none; stroke: #000000; stroke-width: 0.5"/>
    <path d="M 186.68129 93.168478 
L 186.68129 72.363396 
" clip-path="url(#pb97736e6fa)" style="fill: none; stroke: #000000; stroke-width: 0.5"/>
    <path d="M 160.240058 139.814984 
L 160.240058 129.800014 
" clip-path="url(#pb97736e6fa)" style="fill: none; stroke: #000000; stroke-width: 0.5"/>
    <path d="M 125.667225 92.163877 
L 125.667225 80.953551 
" clip-path="url(#pb97736e6fa)" style="fill: none; stroke: #000000; stroke-width: 0.5"/>
    <path d="M 160.165162 67.076399 
L 160.165162 51.681788 
" clip-path="url(#pb97736e6fa)" style="fill: none; stroke: #000000; stroke-width: 0.5"/>
    <path d="M 142.817261 97.974379 
L 142.817261 66.007709 
" clip-path="url(#pb97736e6fa)" style="fill: none; stroke: #000000; stroke-width: 0.5"/>
    <path d="M 134.163114 111.485563 
L 134.163114 104.918531 
" clip-path="url(#pb97736e6fa)" style="fill: none; stroke: #000000; stroke-width: 0.5"/>
    <path d="M 136.329975 104.765677 
L 136.329975 97.223533 
" clip-path="url(#pb97736e6fa)" style="fill: none; stroke: #000000; stroke-width: 0.5"/>
    <path d="M 191.206056 117.359428 
L 191.206056 104.837694 
" clip-path="url(#pb97736e6fa)" style="fill: none; stroke: #000000; stroke-width: 0.5"/>
    <path d="M 126.165339 112.649402 
L 126.165339 99.698172 
" clip-path="url(#pb97736e6fa)" style="fill: none; stroke: #000000; stroke-width: 0.5"/>
    <path d="M 117.825967 146.86442 
L 117.825967 143.742721 
" clip-path="url(#pb97736e6fa)" style="fill: none; stroke: #000000; stroke-width: 0.5"/>
   </g>
   <g id="LineCollection_7">
    <path d="M 84.899396 166.403078 
L 85.10954 166.403078 
" clip-path="url(#pb97736e6fa)" style="fill: none; stroke: #000000; stroke-width: 0.5"/>
    <path d="M 73.48876 176.070574 
L 73.822428 176.070574 
" clip-path="url(#pb97736e6fa)" style="fill: none; stroke: #000000; stroke-width: 0.5"/>
    <path d="M 84.732772 160.771097 
L 85.87313 160.771097 
" clip-path="url(#pb97736e6fa)" style="fill: none; stroke: #000000; stroke-width: 0.5"/>
    <path d="M 84.7981 176.9575 
L 86.213876 176.9575 
" clip-path="url(#pb97736e6fa)" style="fill: none; stroke: #000000; stroke-width: 0.5"/>
   </g>
   <g id="LineCollection_8">
    <path d="M 85.004468 167.33308 
L 85.004468 165.473076 
" clip-path="url(#pb97736e6fa)" style="fill: none; stroke: #000000; stroke-width: 0.5"/>
    <path d="M 73.655594 176.854584 
L 73.655594 175.286563 
" clip-path="url(#pb97736e6fa)" style="fill: none; stroke: #000000; stroke-width: 0.5"/>
    <path d="M 85.302951 167.413131 
L 85.302951 154.129062 
" clip-path="url(#pb97736e6fa)" style="fill: none; stroke: #000000; stroke-width: 0.5"/>
    <path d="M 85.505988 177.985398 
L 85.505988 175.929602 
" clip-path="url(#pb97736e6fa)" style="fill: none; stroke: #000000; stroke-width: 0.5"/>
   </g>
   <g id="line2d_12">
    <path d="M 127.881592 96.398927 
L 109.952132 68.876206 
L 102.906472 57.234133 
L 109.199512 105.868031 
L 101.865366 61.036245 
L 90.98837 33.914975 
L 94.690836 50.012686 
L 97.751953 92.10667 
L 123.527601 98.436523 
L 113.129181 79.664029 
L 125.37805 73.404198 
L 130.686059 121.081149 
L 125.041566 82.124083 
L 113.173798 65.244477 
L 150.812616 82.765937 
L 160.259347 134.807499 
L 116.582076 86.558714 
L 99.700806 59.379094 
L 107.730191 81.991044 
L 118.161959 108.202047 
L 128.66388 100.994605 
L 115.894963 111.098561 
L 95.069864 106.173787 
L 97.678522 145.303571 
" clip-path="url(#pb97736e6fa)" style="fill: none; stroke: #000000; stroke-opacity: 0; stroke-width: 1.5; stroke-linecap: square"/>
   </g>
   <g id="line2d_13">
    <path d="M 67.155398 166.403078 
L 65.877439 176.070574 
L 67.517221 160.771097 
L 67.74215 176.9575 
" clip-path="url(#pb97736e6fa)" style="fill: none; stroke: #000000; stroke-opacity: 0; stroke-width: 1.5; stroke-linecap: square"/>
   </g>
   <g id="line2d_14">
    <path d="M 130.79949 96.398927 
L 179.748055 68.876206 
L 131.675145 57.234133 
L 123.653386 105.868031 
L 119.164785 61.036245 
L 139.019402 33.914975 
L 122.65681 50.012686 
L 118.991916 92.10667 
L 130.932997 98.436523 
L 194.44978 79.664029 
L 158.859112 73.404198 
L 137.321911 121.081149 
L 131.759099 82.124083 
L 188.863878 65.244477 
L 186.68129 82.765937 
L 160.240058 134.807499 
L 125.667225 86.558714 
L 160.165162 59.379094 
L 142.817261 81.991044 
L 134.163114 108.202047 
L 136.329975 100.994605 
L 191.206056 111.098561 
L 126.165339 106.173787 
L 117.825967 145.303571 
" clip-path="url(#pb97736e6fa)" style="fill: none; stroke: #000000; stroke-opacity: 0; stroke-width: 1.5; stroke-linecap: square"/>
   </g>
   <g id="line2d_15">
    <path d="M 85.004468 166.403078 
L 73.655594 176.070574 
L 85.302951 160.771097 
L 85.505988 176.9575 
" clip-path="url(#pb97736e6fa)" style="fill: none; stroke: #000000; stroke-opacity: 0; stroke-width: 1.5; stroke-linecap: square"/>
   </g>
   <g id="patch_3">
    <path d="M 58.163438 185.398125 
L 58.163438 22.318125 
" style="fill: none; stroke: #000000; stroke-width: 0.8; stroke-linejoin: miter; stroke-linecap: square"/>
   </g>
   <g id="patch_4">
    <path d="M 225.563438 185.398125 
L 225.563438 22.318125 
" style="fill: none; stroke: #000000; stroke-width: 0.8; stroke-linejoin: miter; stroke-linecap: square"/>
   </g>
   <g id="patch_5">
    <path d="M 58.163438 185.398125 
L 225.563438 185.398125 
" style="fill: none; stroke: #000000; stroke-width: 0.8; stroke-linejoin: miter; stroke-linecap: square"/>
   </g>
   <g id="patch_6">
    <path d="M 58.163438 22.318125 
L 225.563438 22.318125 
" style="fill: none; stroke: #000000; stroke-width: 0.8; stroke-linejoin: miter; stroke-linecap: square"/>
   </g>
   <g id="text_12">
    <!-- No -->
    <g transform="translate(74.903438 157.892313)scale(0.1 -0.1)">
     <defs>
      <path id="DejaVuSans-6f" d="M 1959 3097 
Q 1497 3097 1228 2736 
Q 959 2375 959 1747 
Q 959 1119 1226 758 
Q 1494 397 1959 397 
Q 2419 397 2687 759 
Q 2956 1122 2956 1747 
Q 2956 2369 2687 2733 
Q 2419 3097 1959 3097 
z
M 1959 3584 
Q 2709 3584 3137 3096 
Q 3566 2609 3566 1747 
Q 3566 888 3137 398 
Q 2709 -91 1959 -91 
Q 1206 -91 779 398 
Q 353 888 353 1747 
Q 353 2609 779 3096 
Q 1206 3584 1959 3584 
z
" transform="scale(0.015625)"/>
     </defs>
     <use xlink:href="#DejaVuSans-4e"/>
     <use xlink:href="#DejaVuSans-6f" x="74.804688"/>
    </g>
    <!-- Lhx3 -->
    <g transform="translate(74.903438 169.090125)scale(0.1 -0.1)">
     <defs>
      <path id="DejaVuSans-4c" d="M 628 4666 
L 1259 4666 
L 1259 531 
L 3531 531 
L 3531 0 
L 628 0 
L 628 4666 
z
" transform="scale(0.015625)"/>
      <path id="DejaVuSans-68" d="M 3513 2113 
L 3513 0 
L 2938 0 
L 2938 2094 
Q 2938 2591 2744 2837 
Q 2550 3084 2163 3084 
Q 1697 3084 1428 2787 
Q 1159 2491 1159 1978 
L 1159 0 
L 581 0 
L 581 4863 
L 1159 4863 
L 1159 2956 
Q 1366 3272 1645 3428 
Q 1925 3584 2291 3584 
Q 2894 3584 3203 3211 
Q 3513 2838 3513 2113 
z
" transform="scale(0.015625)"/>
      <path id="DejaVuSans-78" d="M 3513 3500 
L 2247 1797 
L 3578 0 
L 2900 0 
L 1881 1375 
L 863 0 
L 184 0 
L 1544 1831 
L 300 3500 
L 978 3500 
L 1906 2253 
L 2834 3500 
L 3513 3500 
z
" transform="scale(0.015625)"/>
     </defs>
     <use xlink:href="#DejaVuSans-4c"/>
     <use xlink:href="#DejaVuSans-68" x="55.712891"/>
     <use xlink:href="#DejaVuSans-78" x="119.091797"/>
     <use xlink:href="#DejaVuSans-33" x="178.271484"/>
    </g>
   </g>
   <g id="text_13">
    <!-- Lhx3 -->
    <g transform="translate(127.349063 16.318125)scale(0.12 -0.12)">
     <use xlink:href="#DejaVuSans-4c"/>
     <use xlink:href="#DejaVuSans-68" x="55.712891"/>
     <use xlink:href="#DejaVuSans-78" x="119.091797"/>
     <use xlink:href="#DejaVuSans-33" x="178.271484"/>
    </g>
   </g>
  </g>
 </g>
 <defs>
  <clipPath id="pb97736e6fa">
   <rect x="58.163438" y="22.318125" width="167.4" height="163.08"/>
  </clipPath>
 </defs>
</svg>
