<?xml version="1.0" encoding="utf-8" standalone="no"?>
<!DOCTYPE svg PUBLIC "-//W3C//DTD SVG 1.1//EN"
  "http://www.w3.org/Graphics/SVG/1.1/DTD/svg11.dtd">
<svg xmlns:xlink="http://www.w3.org/1999/xlink" width="232.763437pt" height="234.152188pt" viewBox="0 0 232.763437 234.152188" xmlns="http://www.w3.org/2000/svg" version="1.1">
 <metadata>
  <rdf:RDF xmlns:dc="http://purl.org/dc/elements/1.1/" xmlns:cc="http://creativecommons.org/ns#" xmlns:rdf="http://www.w3.org/1999/02/22-rdf-syntax-ns#">
   <cc:Work>
    <dc:type rdf:resource="http://purl.org/dc/dcmitype/StillImage"/>
    <dc:date>2025-01-26T16:01:49.419645</dc:date>
    <dc:format>image/svg+xml</dc:format>
    <dc:creator>
     <cc:Agent>
      <dc:title>Matplotlib v3.5.2, https://matplotlib.org/</dc:title>
     </cc:Agent>
    </dc:creator>
   </cc:Work>
  </rdf:RDF>
 </metadata>
 <defs>
  <style type="text/css">*{stroke-linejoin: round; stroke-linecap: butt}</style>
 </defs>
 <g id="figure_1">
  <g id="patch_1">
   <path d="M 0 234.152188 
L 232.763437 234.152188 
L 232.763437 -0 
L 0 -0 
L 0 234.152188 
z
" style="fill: none"/>
  </g>
  <g id="axes_1">
   <g id="patch_2">
    <path d="M 58.163438 185.398125 
L 225.563438 185.398125 
L 225.563438 22.318125 
L 58.163438 22.318125 
z
" style="fill: #ffffff"/>
   </g>
   <g id="PathCollection_1">
    <defs>
     <path id="m0e2d4721bb" d="M 0 3 
C 0.795609 3 1.55874 2.683901 2.12132 2.12132 
C 2.683901 1.55874 3 0.795609 3 0 
C 3 -0.795609 2.683901 -1.55874 2.12132 -2.12132 
C 1.55874 -2.683901 0.795609 -3 0 -3 
C -0.795609 -3 -1.55874 -2.683901 -2.12132 -2.12132 
C -2.683901 -1.55874 -3 -0.795609 -3 0 
C -3 0.795609 -2.683901 1.55874 -2.12132 2.12132 
C -1.55874 2.683901 -0.795609 3 0 3 
z
" style="stroke: #498ac6; stroke-opacity: 0.8"/>
    </defs>
    <g clip-path="url(#p1fb70815da)">
     <use xlink:href="#m0e2d4721bb" x="208.551424" y="114.11183" style="fill: #498ac6; fill-opacity: 0.8; stroke: #498ac6; stroke-opacity: 0.8"/>
     <use xlink:href="#m0e2d4721bb" x="181.833349" y="79.276655" style="fill: #498ac6; fill-opacity: 0.8; stroke: #498ac6; stroke-opacity: 0.8"/>
     <use xlink:href="#m0e2d4721bb" x="79.026614" y="64.541423" style="fill: #498ac6; fill-opacity: 0.8; stroke: #498ac6; stroke-opacity: 0.8"/>
     <use xlink:href="#m0e2d4721bb" x="86.875639" y="126.096761" style="fill: #498ac6; fill-opacity: 0.8; stroke: #498ac6; stroke-opacity: 0.8"/>
     <use xlink:href="#m0e2d4721bb" x="172.553052" y="69.353711" style="fill: #498ac6; fill-opacity: 0.8; stroke: #498ac6; stroke-opacity: 0.8"/>
     <use xlink:href="#m0e2d4721bb" x="163.183137" y="35.026647" style="fill: #498ac6; fill-opacity: 0.8; stroke: #498ac6; stroke-opacity: 0.8"/>
     <use xlink:href="#m0e2d4721bb" x="84.397053" y="55.401325" style="fill: #498ac6; fill-opacity: 0.8; stroke: #498ac6; stroke-opacity: 0.8"/>
     <use xlink:href="#m0e2d4721bb" x="119.4973" y="108.679174" style="fill: #498ac6; fill-opacity: 0.8; stroke: #498ac6; stroke-opacity: 0.8"/>
     <use xlink:href="#m0e2d4721bb" x="203.635484" y="116.690791" style="fill: #498ac6; fill-opacity: 0.8; stroke: #498ac6; stroke-opacity: 0.8"/>
     <use xlink:href="#m0e2d4721bb" x="180.819909" y="92.930673" style="fill: #498ac6; fill-opacity: 0.8; stroke: #498ac6; stroke-opacity: 0.8"/>
     <use xlink:href="#m0e2d4721bb" x="90.243355" y="85.007679" style="fill: #498ac6; fill-opacity: 0.8; stroke: #498ac6; stroke-opacity: 0.8"/>
     <use xlink:href="#m0e2d4721bb" x="100.868274" y="145.351822" style="fill: #498ac6; fill-opacity: 0.8; stroke: #498ac6; stroke-opacity: 0.8"/>
     <use xlink:href="#m0e2d4721bb" x="199.144711" y="96.044333" style="fill: #498ac6; fill-opacity: 0.8; stroke: #498ac6; stroke-opacity: 0.8"/>
     <use xlink:href="#m0e2d4721bb" x="194.923815" y="74.680019" style="fill: #498ac6; fill-opacity: 0.8; stroke: #498ac6; stroke-opacity: 0.8"/>
     <use xlink:href="#m0e2d4721bb" x="110.304738" y="96.85672" style="fill: #498ac6; fill-opacity: 0.8; stroke: #498ac6; stroke-opacity: 0.8"/>
     <use xlink:href="#m0e2d4721bb" x="119.834947" y="162.725098" style="fill: #498ac6; fill-opacity: 0.8; stroke: #498ac6; stroke-opacity: 0.8"/>
     <use xlink:href="#m0e2d4721bb" x="196.034208" y="101.657192" style="fill: #498ac6; fill-opacity: 0.8; stroke: #498ac6; stroke-opacity: 0.8"/>
     <use xlink:href="#m0e2d4721bb" x="174.076438" y="67.256274" style="fill: #498ac6; fill-opacity: 0.8; stroke: #498ac6; stroke-opacity: 0.8"/>
     <use xlink:href="#m0e2d4721bb" x="81.246869" y="95.875947" style="fill: #498ac6; fill-opacity: 0.8; stroke: #498ac6; stroke-opacity: 0.8"/>
     <use xlink:href="#m0e2d4721bb" x="101.173352" y="129.050898" style="fill: #498ac6; fill-opacity: 0.8; stroke: #498ac6; stroke-opacity: 0.8"/>
     <use xlink:href="#m0e2d4721bb" x="194.507922" y="119.928525" style="fill: #498ac6; fill-opacity: 0.8; stroke: #498ac6; stroke-opacity: 0.8"/>
     <use xlink:href="#m0e2d4721bb" x="174.462538" y="132.716981" style="fill: #498ac6; fill-opacity: 0.8; stroke: #498ac6; stroke-opacity: 0.8"/>
     <use xlink:href="#m0e2d4721bb" x="68.067269" y="126.483753" style="fill: #498ac6; fill-opacity: 0.8; stroke: #498ac6; stroke-opacity: 0.8"/>
     <use xlink:href="#m0e2d4721bb" x="77.629872" y="176.009849" style="fill: #498ac6; fill-opacity: 0.8; stroke: #498ac6; stroke-opacity: 0.8"/>
    </g>
   </g>
   <g id="PolyCollection_1">
    <path d="M 68.067269 86.80824 
L 68.067269 140.846339 
L 69.4863 140.278983 
L 70.905332 139.711466 
L 72.324364 139.141524 
L 73.743396 138.568341 
L 75.162428 138.08676 
L 76.58146 137.428117 
L 78.000492 136.856565 
L 79.419524 136.27359 
L 80.838555 135.625968 
L 82.257587 135.121368 
L 83.676619 134.583181 
L 85.095651 134.10007 
L 86.514683 133.611978 
L 87.933715 133.109536 
L 89.352747 132.607094 
L 90.771779 132.104652 
L 92.19081 131.524051 
L 93.609842 130.66038 
L 95.028874 130.293602 
L 96.447906 129.939176 
L 97.866938 129.58475 
L 99.28597 129.024565 
L 100.705002 128.438798 
L 102.124033 128.080486 
L 103.543065 127.582312 
L 104.962097 127.080234 
L 106.381129 126.577072 
L 107.800161 126.069921 
L 109.219193 125.491762 
L 110.638225 124.823645 
L 112.057257 124.149018 
L 113.476288 123.479647 
L 114.89532 123.035512 
L 116.314352 122.740159 
L 117.733384 122.377242 
L 119.152416 121.797488 
L 120.571448 121.284775 
L 121.99048 120.854482 
L 123.409512 120.535522 
L 124.828543 120.035818 
L 126.247575 119.52976 
L 127.666607 119.028548 
L 129.085639 118.579612 
L 130.504671 118.136499 
L 131.923703 117.821564 
L 133.342735 117.389852 
L 134.761766 116.954459 
L 136.180798 116.619228 
L 137.59983 116.237793 
L 139.018862 115.766179 
L 140.437894 115.556809 
L 141.856926 115.455124 
L 143.275958 115.200461 
L 144.69499 115.041713 
L 146.114021 114.876287 
L 147.533053 114.592395 
L 148.952085 114.428423 
L 150.371117 114.155425 
L 151.790149 113.821941 
L 153.209181 113.394209 
L 154.628213 113.037831 
L 156.047244 112.86371 
L 157.466276 112.703017 
L 158.885308 112.53684 
L 160.30434 112.316995 
L 161.723372 112.129578 
L 163.142404 111.880622 
L 164.561436 111.626742 
L 165.980468 111.37107 
L 167.399499 111.12558 
L 168.818531 110.965005 
L 170.237563 110.73154 
L 171.656595 110.55516 
L 173.075627 110.377686 
L 174.494659 110.206084 
L 175.913691 110.057174 
L 177.332723 109.896211 
L 178.751754 109.716145 
L 180.170786 109.568723 
L 181.589818 109.416796 
L 183.00885 109.342943 
L 184.427882 109.300653 
L 185.846914 109.126837 
L 187.265946 109.152256 
L 188.684977 109.097687 
L 190.104009 108.922771 
L 191.523041 108.892858 
L 192.942073 108.947471 
L 194.361105 109.054533 
L 195.780137 109.069858 
L 197.199169 109.040868 
L 198.618201 109.115938 
L 200.037232 109.139713 
L 201.456264 109.209736 
L 202.875296 109.20404 
L 204.294328 109.233244 
L 205.71336 109.226713 
L 207.132392 109.299078 
L 208.551424 109.295583 
L 208.551424 72.623367 
L 208.551424 72.623367 
L 207.132392 73.195698 
L 205.71336 73.749838 
L 204.294328 74.166256 
L 202.875296 74.536516 
L 201.456264 75.103849 
L 200.037232 75.626903 
L 198.618201 76.182661 
L 197.199169 76.746426 
L 195.780137 77.307697 
L 194.361105 77.871742 
L 192.942073 78.430286 
L 191.523041 78.880497 
L 190.104009 79.336634 
L 188.684977 79.89942 
L 187.265946 80.329792 
L 185.846914 80.686068 
L 184.427882 81.067294 
L 183.00885 81.549415 
L 181.589818 81.870179 
L 180.170786 82.116273 
L 178.751754 82.409602 
L 177.332723 82.677631 
L 175.913691 83.038874 
L 174.494659 83.515896 
L 173.075627 83.873625 
L 171.656595 84.288845 
L 170.237563 84.581323 
L 168.818531 84.90451 
L 167.399499 85.25586 
L 165.980468 85.680334 
L 164.561436 86.083098 
L 163.142404 86.139417 
L 161.723372 86.534529 
L 160.30434 86.753133 
L 158.885308 86.931937 
L 157.466276 87.188866 
L 156.047244 87.508882 
L 154.628213 87.796124 
L 153.209181 88.065865 
L 151.790149 88.197797 
L 150.371117 88.503557 
L 148.952085 88.673563 
L 147.533053 88.785132 
L 146.114021 88.912888 
L 144.69499 88.856774 
L 143.275958 88.956157 
L 141.856926 89.11494 
L 140.437894 89.099873 
L 139.018862 89.264408 
L 137.59983 89.303226 
L 136.180798 89.306949 
L 134.761766 89.694728 
L 133.342735 89.58752 
L 131.923703 89.528407 
L 130.504671 89.396356 
L 129.085639 89.415862 
L 127.666607 89.632227 
L 126.247575 89.877585 
L 124.828543 89.697607 
L 123.409512 89.861566 
L 121.99048 89.816471 
L 120.571448 89.766707 
L 119.152416 89.716944 
L 117.733384 89.668624 
L 116.314352 89.621513 
L 114.89532 89.755164 
L 113.476288 89.573263 
L 112.057257 89.472978 
L 110.638225 89.417586 
L 109.219193 89.05071 
L 107.800161 88.940732 
L 106.381129 88.85391 
L 104.962097 88.767087 
L 103.543065 88.684277 
L 102.124033 88.603426 
L 100.705002 88.518091 
L 99.28597 88.428986 
L 97.866938 88.344426 
L 96.447906 88.261527 
L 95.028874 88.178629 
L 93.609842 88.09573 
L 92.19081 88.012832 
L 90.771779 87.879985 
L 89.352747 87.845852 
L 87.933715 87.762155 
L 86.514683 87.673082 
L 85.095651 87.591148 
L 83.676619 87.509214 
L 82.257587 87.50062 
L 80.838555 87.509857 
L 79.419524 87.519094 
L 78.000492 87.468635 
L 76.58146 87.374293 
L 75.162428 87.279951 
L 73.743396 87.185609 
L 72.324364 87.091267 
L 70.905332 86.996924 
L 69.4863 86.902582 
L 68.067269 86.80824 
z
" clip-path="url(#p1fb70815da)" style="fill: #498ac6; fill-opacity: 0.15"/>
   </g>
   <g id="matplotlib.axis_1">
    <g id="xtick_1">
     <g id="line2d_1">
      <defs>
       <path id="m00a034ac00" d="M 0 0 
L 0 3.5 
" style="stroke: #000000; stroke-width: 0.8"/>
      </defs>
      <g>
       <use xlink:href="#m00a034ac00" x="70.639868" y="185.398125" style="stroke: #000000; stroke-width: 0.8"/>
      </g>
     </g>
     <g id="text_1">
      <!-- 1500 -->
      <g transform="translate(57.914868 199.996563)scale(0.1 -0.1)">
       <defs>
        <path id="DejaVuSans-31" d="M 794 531 
L 1825 531 
L 1825 4091 
L 703 3866 
L 703 4441 
L 1819 4666 
L 2450 4666 
L 2450 531 
L 3481 531 
L 3481 0 
L 794 0 
L 794 531 
z
" transform="scale(0.015625)"/>
        <path id="DejaVuSans-35" d="M 691 4666 
L 3169 4666 
L 3169 4134 
L 1269 4134 
L 1269 2991 
Q 1406 3038 1543 3061 
Q 1681 3084 1819 3084 
Q 2600 3084 3056 2656 
Q 3513 2228 3513 1497 
Q 3513 744 3044 326 
Q 2575 -91 1722 -91 
Q 1428 -91 1123 -41 
Q 819 9 494 109 
L 494 744 
Q 775 591 1075 516 
Q 1375 441 1709 441 
Q 2250 441 2565 725 
Q 2881 1009 2881 1497 
Q 2881 1984 2565 2268 
Q 2250 2553 1709 2553 
Q 1456 2553 1204 2497 
Q 953 2441 691 2322 
L 691 4666 
z
" transform="scale(0.015625)"/>
        <path id="DejaVuSans-30" d="M 2034 4250 
Q 1547 4250 1301 3770 
Q 1056 3291 1056 2328 
Q 1056 1369 1301 889 
Q 1547 409 2034 409 
Q 2525 409 2770 889 
Q 3016 1369 3016 2328 
Q 3016 3291 2770 3770 
Q 2525 4250 2034 4250 
z
M 2034 4750 
Q 2819 4750 3233 4129 
Q 3647 3509 3647 2328 
Q 3647 1150 3233 529 
Q 2819 -91 2034 -91 
Q 1250 -91 836 529 
Q 422 1150 422 2328 
Q 422 3509 836 4129 
Q 1250 4750 2034 4750 
z
" transform="scale(0.015625)"/>
       </defs>
       <use xlink:href="#DejaVuSans-31"/>
       <use xlink:href="#DejaVuSans-35" x="63.623047"/>
       <use xlink:href="#DejaVuSans-30" x="127.246094"/>
       <use xlink:href="#DejaVuSans-30" x="190.869141"/>
      </g>
     </g>
    </g>
    <g id="xtick_2">
     <g id="line2d_2">
      <g>
       <use xlink:href="#m00a034ac00" x="109.898963" y="185.398125" style="stroke: #000000; stroke-width: 0.8"/>
      </g>
     </g>
     <g id="text_2">
      <!-- 2000 -->
      <g transform="translate(97.173963 199.996563)scale(0.1 -0.1)">
       <defs>
        <path id="DejaVuSans-32" d="M 1228 531 
L 3431 531 
L 3431 0 
L 469 0 
L 469 531 
Q 828 903 1448 1529 
Q 2069 2156 2228 2338 
Q 2531 2678 2651 2914 
Q 2772 3150 2772 3378 
Q 2772 3750 2511 3984 
Q 2250 4219 1831 4219 
Q 1534 4219 1204 4116 
Q 875 4013 500 3803 
L 500 4441 
Q 881 4594 1212 4672 
Q 1544 4750 1819 4750 
Q 2544 4750 2975 4387 
Q 3406 4025 3406 3419 
Q 3406 3131 3298 2873 
Q 3191 2616 2906 2266 
Q 2828 2175 2409 1742 
Q 1991 1309 1228 531 
z
" transform="scale(0.015625)"/>
       </defs>
       <use xlink:href="#DejaVuSans-32"/>
       <use xlink:href="#DejaVuSans-30" x="63.623047"/>
       <use xlink:href="#DejaVuSans-30" x="127.246094"/>
       <use xlink:href="#DejaVuSans-30" x="190.869141"/>
      </g>
     </g>
    </g>
    <g id="xtick_3">
     <g id="line2d_3">
      <g>
       <use xlink:href="#m00a034ac00" x="149.158059" y="185.398125" style="stroke: #000000; stroke-width: 0.8"/>
      </g>
     </g>
     <g id="text_3">
      <!-- 2500 -->
      <g transform="translate(136.433059 199.996563)scale(0.1 -0.1)">
       <use xlink:href="#DejaVuSans-32"/>
       <use xlink:href="#DejaVuSans-35" x="63.623047"/>
       <use xlink:href="#DejaVuSans-30" x="127.246094"/>
       <use xlink:href="#DejaVuSans-30" x="190.869141"/>
      </g>
     </g>
    </g>
    <g id="xtick_4">
     <g id="line2d_4">
      <g>
       <use xlink:href="#m00a034ac00" x="188.417154" y="185.398125" style="stroke: #000000; stroke-width: 0.8"/>
      </g>
     </g>
     <g id="text_4">
      <!-- 3000 -->
      <g transform="translate(175.692154 199.996563)scale(0.1 -0.1)">
       <defs>
        <path id="DejaVuSans-33" d="M 2597 2516 
Q 3050 2419 3304 2112 
Q 3559 1806 3559 1356 
Q 3559 666 3084 287 
Q 2609 -91 1734 -91 
Q 1441 -91 1130 -33 
Q 819 25 488 141 
L 488 750 
Q 750 597 1062 519 
Q 1375 441 1716 441 
Q 2309 441 2620 675 
Q 2931 909 2931 1356 
Q 2931 1769 2642 2001 
Q 2353 2234 1838 2234 
L 1294 2234 
L 1294 2753 
L 1863 2753 
Q 2328 2753 2575 2939 
Q 2822 3125 2822 3475 
Q 2822 3834 2567 4026 
Q 2313 4219 1838 4219 
Q 1578 4219 1281 4162 
Q 984 4106 628 3988 
L 628 4550 
Q 988 4650 1302 4700 
Q 1616 4750 1894 4750 
Q 2613 4750 3031 4423 
Q 3450 4097 3450 3541 
Q 3450 3153 3228 2886 
Q 3006 2619 2597 2516 
z
" transform="scale(0.015625)"/>
       </defs>
       <use xlink:href="#DejaVuSans-33"/>
       <use xlink:href="#DejaVuSans-30" x="63.623047"/>
       <use xlink:href="#DejaVuSans-30" x="127.246094"/>
       <use xlink:href="#DejaVuSans-30" x="190.869141"/>
      </g>
     </g>
    </g>
    <g id="text_5">
     <!-- mRuby2, 14 dpi -->
     <g transform="translate(102.393125 213.674688)scale(0.1 -0.1)">
      <defs>
       <path id="DejaVuSans-6d" d="M 3328 2828 
Q 3544 3216 3844 3400 
Q 4144 3584 4550 3584 
Q 5097 3584 5394 3201 
Q 5691 2819 5691 2113 
L 5691 0 
L 5113 0 
L 5113 2094 
Q 5113 2597 4934 2840 
Q 4756 3084 4391 3084 
Q 3944 3084 3684 2787 
Q 3425 2491 3425 1978 
L 3425 0 
L 2847 0 
L 2847 2094 
Q 2847 2600 2669 2842 
Q 2491 3084 2119 3084 
Q 1678 3084 1418 2786 
Q 1159 2488 1159 1978 
L 1159 0 
L 581 0 
L 581 3500 
L 1159 3500 
L 1159 2956 
Q 1356 3278 1631 3431 
Q 1906 3584 2284 3584 
Q 2666 3584 2933 3390 
Q 3200 3197 3328 2828 
z
" transform="scale(0.015625)"/>
       <path id="DejaVuSans-52" d="M 2841 2188 
Q 3044 2119 3236 1894 
Q 3428 1669 3622 1275 
L 4263 0 
L 3584 0 
L 2988 1197 
Q 2756 1666 2539 1819 
Q 2322 1972 1947 1972 
L 1259 1972 
L 1259 0 
L 628 0 
L 628 4666 
L 2053 4666 
Q 2853 4666 3247 4331 
Q 3641 3997 3641 3322 
Q 3641 2881 3436 2590 
Q 3231 2300 2841 2188 
z
M 1259 4147 
L 1259 2491 
L 2053 2491 
Q 2509 2491 2742 2702 
Q 2975 2913 2975 3322 
Q 2975 3731 2742 3939 
Q 2509 4147 2053 4147 
L 1259 4147 
z
" transform="scale(0.015625)"/>
       <path id="DejaVuSans-75" d="M 544 1381 
L 544 3500 
L 1119 3500 
L 1119 1403 
Q 1119 906 1312 657 
Q 1506 409 1894 409 
Q 2359 409 2629 706 
Q 2900 1003 2900 1516 
L 2900 3500 
L 3475 3500 
L 3475 0 
L 2900 0 
L 2900 538 
Q 2691 219 2414 64 
Q 2138 -91 1772 -91 
Q 1169 -91 856 284 
Q 544 659 544 1381 
z
M 1991 3584 
L 1991 3584 
z
" transform="scale(0.015625)"/>
       <path id="DejaVuSans-62" d="M 3116 1747 
Q 3116 2381 2855 2742 
Q 2594 3103 2138 3103 
Q 1681 3103 1420 2742 
Q 1159 2381 1159 1747 
Q 1159 1113 1420 752 
Q 1681 391 2138 391 
Q 2594 391 2855 752 
Q 3116 1113 3116 1747 
z
M 1159 2969 
Q 1341 3281 1617 3432 
Q 1894 3584 2278 3584 
Q 2916 3584 3314 3078 
Q 3713 2572 3713 1747 
Q 3713 922 3314 415 
Q 2916 -91 2278 -91 
Q 1894 -91 1617 61 
Q 1341 213 1159 525 
L 1159 0 
L 581 0 
L 581 4863 
L 1159 4863 
L 1159 2969 
z
" transform="scale(0.015625)"/>
       <path id="DejaVuSans-79" d="M 2059 -325 
Q 1816 -950 1584 -1140 
Q 1353 -1331 966 -1331 
L 506 -1331 
L 506 -850 
L 844 -850 
Q 1081 -850 1212 -737 
Q 1344 -625 1503 -206 
L 1606 56 
L 191 3500 
L 800 3500 
L 1894 763 
L 2988 3500 
L 3597 3500 
L 2059 -325 
z
" transform="scale(0.015625)"/>
       <path id="DejaVuSans-2c" d="M 750 794 
L 1409 794 
L 1409 256 
L 897 -744 
L 494 -744 
L 750 256 
L 750 794 
z
" transform="scale(0.015625)"/>
       <path id="DejaVuSans-20" transform="scale(0.015625)"/>
       <path id="DejaVuSans-34" d="M 2419 4116 
L 825 1625 
L 2419 1625 
L 2419 4116 
z
M 2253 4666 
L 3047 4666 
L 3047 1625 
L 3713 1625 
L 3713 1100 
L 3047 1100 
L 3047 0 
L 2419 0 
L 2419 1100 
L 313 1100 
L 313 1709 
L 2253 4666 
z
" transform="scale(0.015625)"/>
       <path id="DejaVuSans-64" d="M 2906 2969 
L 2906 4863 
L 3481 4863 
L 3481 0 
L 2906 0 
L 2906 525 
Q 2725 213 2448 61 
Q 2172 -91 1784 -91 
Q 1150 -91 751 415 
Q 353 922 353 1747 
Q 353 2572 751 3078 
Q 1150 3584 1784 3584 
Q 2172 3584 2448 3432 
Q 2725 3281 2906 2969 
z
M 947 1747 
Q 947 1113 1208 752 
Q 1469 391 1925 391 
Q 2381 391 2643 752 
Q 2906 1113 2906 1747 
Q 2906 2381 2643 2742 
Q 2381 3103 1925 3103 
Q 1469 3103 1208 2742 
Q 947 2381 947 1747 
z
" transform="scale(0.015625)"/>
       <path id="DejaVuSans-70" d="M 1159 525 
L 1159 -1331 
L 581 -1331 
L 581 3500 
L 1159 3500 
L 1159 2969 
Q 1341 3281 1617 3432 
Q 1894 3584 2278 3584 
Q 2916 3584 3314 3078 
Q 3713 2572 3713 1747 
Q 3713 922 3314 415 
Q 2916 -91 2278 -91 
Q 1894 -91 1617 61 
Q 1341 213 1159 525 
z
M 3116 1747 
Q 3116 2381 2855 2742 
Q 2594 3103 2138 3103 
Q 1681 3103 1420 2742 
Q 1159 2381 1159 1747 
Q 1159 1113 1420 752 
Q 1681 391 2138 391 
Q 2594 391 2855 752 
Q 3116 1113 3116 1747 
z
" transform="scale(0.015625)"/>
       <path id="DejaVuSans-69" d="M 603 3500 
L 1178 3500 
L 1178 0 
L 603 0 
L 603 3500 
z
M 603 4863 
L 1178 4863 
L 1178 4134 
L 603 4134 
L 603 4863 
z
" transform="scale(0.015625)"/>
      </defs>
      <use xlink:href="#DejaVuSans-6d"/>
      <use xlink:href="#DejaVuSans-52" x="97.412109"/>
      <use xlink:href="#DejaVuSans-75" x="162.394531"/>
      <use xlink:href="#DejaVuSans-62" x="225.773438"/>
      <use xlink:href="#DejaVuSans-79" x="289.25"/>
      <use xlink:href="#DejaVuSans-32" x="348.429688"/>
      <use xlink:href="#DejaVuSans-2c" x="412.052734"/>
      <use xlink:href="#DejaVuSans-20" x="443.839844"/>
      <use xlink:href="#DejaVuSans-31" x="475.626953"/>
      <use xlink:href="#DejaVuSans-34" x="539.25"/>
      <use xlink:href="#DejaVuSans-20" x="602.873047"/>
      <use xlink:href="#DejaVuSans-64" x="634.660156"/>
      <use xlink:href="#DejaVuSans-70" x="698.136719"/>
      <use xlink:href="#DejaVuSans-69" x="761.613281"/>
     </g>
     <!-- (gmean) -->
     <g transform="translate(120.607969 224.8725)scale(0.1 -0.1)">
      <defs>
       <path id="DejaVuSans-28" d="M 1984 4856 
Q 1566 4138 1362 3434 
Q 1159 2731 1159 2009 
Q 1159 1288 1364 580 
Q 1569 -128 1984 -844 
L 1484 -844 
Q 1016 -109 783 600 
Q 550 1309 550 2009 
Q 550 2706 781 3412 
Q 1013 4119 1484 4856 
L 1984 4856 
z
" transform="scale(0.015625)"/>
       <path id="DejaVuSans-67" d="M 2906 1791 
Q 2906 2416 2648 2759 
Q 2391 3103 1925 3103 
Q 1463 3103 1205 2759 
Q 947 2416 947 1791 
Q 947 1169 1205 825 
Q 1463 481 1925 481 
Q 2391 481 2648 825 
Q 2906 1169 2906 1791 
z
M 3481 434 
Q 3481 -459 3084 -895 
Q 2688 -1331 1869 -1331 
Q 1566 -1331 1297 -1286 
Q 1028 -1241 775 -1147 
L 775 -588 
Q 1028 -725 1275 -790 
Q 1522 -856 1778 -856 
Q 2344 -856 2625 -561 
Q 2906 -266 2906 331 
L 2906 616 
Q 2728 306 2450 153 
Q 2172 0 1784 0 
Q 1141 0 747 490 
Q 353 981 353 1791 
Q 353 2603 747 3093 
Q 1141 3584 1784 3584 
Q 2172 3584 2450 3431 
Q 2728 3278 2906 2969 
L 2906 3500 
L 3481 3500 
L 3481 434 
z
" transform="scale(0.015625)"/>
       <path id="DejaVuSans-65" d="M 3597 1894 
L 3597 1613 
L 953 1613 
Q 991 1019 1311 708 
Q 1631 397 2203 397 
Q 2534 397 2845 478 
Q 3156 559 3463 722 
L 3463 178 
Q 3153 47 2828 -22 
Q 2503 -91 2169 -91 
Q 1331 -91 842 396 
Q 353 884 353 1716 
Q 353 2575 817 3079 
Q 1281 3584 2069 3584 
Q 2775 3584 3186 3129 
Q 3597 2675 3597 1894 
z
M 3022 2063 
Q 3016 2534 2758 2815 
Q 2500 3097 2075 3097 
Q 1594 3097 1305 2825 
Q 1016 2553 972 2059 
L 3022 2063 
z
" transform="scale(0.015625)"/>
       <path id="DejaVuSans-61" d="M 2194 1759 
Q 1497 1759 1228 1600 
Q 959 1441 959 1056 
Q 959 750 1161 570 
Q 1363 391 1709 391 
Q 2188 391 2477 730 
Q 2766 1069 2766 1631 
L 2766 1759 
L 2194 1759 
z
M 3341 1997 
L 3341 0 
L 2766 0 
L 2766 531 
Q 2569 213 2275 61 
Q 1981 -91 1556 -91 
Q 1019 -91 701 211 
Q 384 513 384 1019 
Q 384 1609 779 1909 
Q 1175 2209 1959 2209 
L 2766 2209 
L 2766 2266 
Q 2766 2663 2505 2880 
Q 2244 3097 1772 3097 
Q 1472 3097 1187 3025 
Q 903 2953 641 2809 
L 641 3341 
Q 956 3463 1253 3523 
Q 1550 3584 1831 3584 
Q 2591 3584 2966 3190 
Q 3341 2797 3341 1997 
z
" transform="scale(0.015625)"/>
       <path id="DejaVuSans-6e" d="M 3513 2113 
L 3513 0 
L 2938 0 
L 2938 2094 
Q 2938 2591 2744 2837 
Q 2550 3084 2163 3084 
Q 1697 3084 1428 2787 
Q 1159 2491 1159 1978 
L 1159 0 
L 581 0 
L 581 3500 
L 1159 3500 
L 1159 2956 
Q 1366 3272 1645 3428 
Q 1925 3584 2291 3584 
Q 2894 3584 3203 3211 
Q 3513 2838 3513 2113 
z
" transform="scale(0.015625)"/>
       <path id="DejaVuSans-29" d="M 513 4856 
L 1013 4856 
Q 1481 4119 1714 3412 
Q 1947 2706 1947 2009 
Q 1947 1309 1714 600 
Q 1481 -109 1013 -844 
L 513 -844 
Q 928 -128 1133 580 
Q 1338 1288 1338 2009 
Q 1338 2731 1133 3434 
Q 928 4138 513 4856 
z
" transform="scale(0.015625)"/>
      </defs>
      <use xlink:href="#DejaVuSans-28"/>
      <use xlink:href="#DejaVuSans-67" x="39.013672"/>
      <use xlink:href="#DejaVuSans-6d" x="102.490234"/>
      <use xlink:href="#DejaVuSans-65" x="199.902344"/>
      <use xlink:href="#DejaVuSans-61" x="261.425781"/>
      <use xlink:href="#DejaVuSans-6e" x="322.705078"/>
      <use xlink:href="#DejaVuSans-29" x="386.083984"/>
     </g>
    </g>
   </g>
   <g id="matplotlib.axis_2">
    <g id="ytick_1">
     <g id="line2d_5">
      <defs>
       <path id="md5cf05fd5f" d="M 0 0 
L -3.5 0 
" style="stroke: #000000; stroke-width: 0.8"/>
      </defs>
      <g>
       <use xlink:href="#md5cf05fd5f" x="58.163438" y="164.276019" style="stroke: #000000; stroke-width: 0.8"/>
      </g>
     </g>
     <g id="text_6">
      <!-- 75 -->
      <g transform="translate(38.438437 168.075238)scale(0.1 -0.1)">
       <defs>
        <path id="DejaVuSans-37" d="M 525 4666 
L 3525 4666 
L 3525 4397 
L 1831 0 
L 1172 0 
L 2766 4134 
L 525 4134 
L 525 4666 
z
" transform="scale(0.015625)"/>
       </defs>
       <use xlink:href="#DejaVuSans-37"/>
       <use xlink:href="#DejaVuSans-35" x="63.623047"/>
      </g>
     </g>
    </g>
    <g id="ytick_2">
     <g id="line2d_6">
      <g>
       <use xlink:href="#md5cf05fd5f" x="58.163438" y="142.119997" style="stroke: #000000; stroke-width: 0.8"/>
      </g>
     </g>
     <g id="text_7">
      <!-- 100 -->
      <g transform="translate(32.075937 145.919216)scale(0.1 -0.1)">
       <use xlink:href="#DejaVuSans-31"/>
       <use xlink:href="#DejaVuSans-30" x="63.623047"/>
       <use xlink:href="#DejaVuSans-30" x="127.246094"/>
      </g>
     </g>
    </g>
    <g id="ytick_3">
     <g id="line2d_7">
      <g>
       <use xlink:href="#md5cf05fd5f" x="58.163438" y="119.963974" style="stroke: #000000; stroke-width: 0.8"/>
      </g>
     </g>
     <g id="text_8">
      <!-- 125 -->
      <g transform="translate(32.075937 123.763193)scale(0.1 -0.1)">
       <use xlink:href="#DejaVuSans-31"/>
       <use xlink:href="#DejaVuSans-32" x="63.623047"/>
       <use xlink:href="#DejaVuSans-35" x="127.246094"/>
      </g>
     </g>
    </g>
    <g id="ytick_4">
     <g id="line2d_8">
      <g>
       <use xlink:href="#md5cf05fd5f" x="58.163438" y="97.807952" style="stroke: #000000; stroke-width: 0.8"/>
      </g>
     </g>
     <g id="text_9">
      <!-- 150 -->
      <g transform="translate(32.075937 101.607171)scale(0.1 -0.1)">
       <use xlink:href="#DejaVuSans-31"/>
       <use xlink:href="#DejaVuSans-35" x="63.623047"/>
       <use xlink:href="#DejaVuSans-30" x="127.246094"/>
      </g>
     </g>
    </g>
    <g id="ytick_5">
     <g id="line2d_9">
      <g>
       <use xlink:href="#md5cf05fd5f" x="58.163438" y="75.651929" style="stroke: #000000; stroke-width: 0.8"/>
      </g>
     </g>
     <g id="text_10">
      <!-- 175 -->
      <g transform="translate(32.075937 79.451148)scale(0.1 -0.1)">
       <use xlink:href="#DejaVuSans-31"/>
       <use xlink:href="#DejaVuSans-37" x="63.623047"/>
       <use xlink:href="#DejaVuSans-35" x="127.246094"/>
      </g>
     </g>
    </g>
    <g id="ytick_6">
     <g id="line2d_10">
      <g>
       <use xlink:href="#md5cf05fd5f" x="58.163438" y="53.495907" style="stroke: #000000; stroke-width: 0.8"/>
      </g>
     </g>
     <g id="text_11">
      <!-- 200 -->
      <g transform="translate(32.075937 57.295126)scale(0.1 -0.1)">
       <use xlink:href="#DejaVuSans-32"/>
       <use xlink:href="#DejaVuSans-30" x="63.623047"/>
       <use xlink:href="#DejaVuSans-30" x="127.246094"/>
      </g>
     </g>
    </g>
    <g id="ytick_7">
     <g id="line2d_11">
      <g>
       <use xlink:href="#md5cf05fd5f" x="58.163438" y="31.339884" style="stroke: #000000; stroke-width: 0.8"/>
      </g>
     </g>
     <g id="text_12">
      <!-- 225 -->
      <g transform="translate(32.075937 35.139103)scale(0.1 -0.1)">
       <use xlink:href="#DejaVuSans-32"/>
       <use xlink:href="#DejaVuSans-32" x="63.623047"/>
       <use xlink:href="#DejaVuSans-35" x="127.246094"/>
      </g>
     </g>
    </g>
    <g id="text_13">
     <!-- (%) iMN yield -->
     <g transform="translate(14.798437 137.120625)rotate(-90)scale(0.1 -0.1)">
      <defs>
       <path id="DejaVuSans-25" d="M 4653 2053 
Q 4381 2053 4226 1822 
Q 4072 1591 4072 1178 
Q 4072 772 4226 539 
Q 4381 306 4653 306 
Q 4919 306 5073 539 
Q 5228 772 5228 1178 
Q 5228 1588 5073 1820 
Q 4919 2053 4653 2053 
z
M 4653 2450 
Q 5147 2450 5437 2106 
Q 5728 1763 5728 1178 
Q 5728 594 5436 251 
Q 5144 -91 4653 -91 
Q 4153 -91 3862 251 
Q 3572 594 3572 1178 
Q 3572 1766 3864 2108 
Q 4156 2450 4653 2450 
z
M 1428 4353 
Q 1159 4353 1004 4120 
Q 850 3888 850 3481 
Q 850 3069 1003 2837 
Q 1156 2606 1428 2606 
Q 1700 2606 1854 2837 
Q 2009 3069 2009 3481 
Q 2009 3884 1853 4118 
Q 1697 4353 1428 4353 
z
M 4250 4750 
L 4750 4750 
L 1831 -91 
L 1331 -91 
L 4250 4750 
z
M 1428 4750 
Q 1922 4750 2215 4408 
Q 2509 4066 2509 3481 
Q 2509 2891 2217 2550 
Q 1925 2209 1428 2209 
Q 931 2209 642 2551 
Q 353 2894 353 3481 
Q 353 4063 643 4406 
Q 934 4750 1428 4750 
z
" transform="scale(0.015625)"/>
       <path id="DejaVuSans-4d" d="M 628 4666 
L 1569 4666 
L 2759 1491 
L 3956 4666 
L 4897 4666 
L 4897 0 
L 4281 0 
L 4281 4097 
L 3078 897 
L 2444 897 
L 1241 4097 
L 1241 0 
L 628 0 
L 628 4666 
z
" transform="scale(0.015625)"/>
       <path id="DejaVuSans-4e" d="M 628 4666 
L 1478 4666 
L 3547 763 
L 3547 4666 
L 4159 4666 
L 4159 0 
L 3309 0 
L 1241 3903 
L 1241 0 
L 628 0 
L 628 4666 
z
" transform="scale(0.015625)"/>
       <path id="DejaVuSans-6c" d="M 603 4863 
L 1178 4863 
L 1178 0 
L 603 0 
L 603 4863 
z
" transform="scale(0.015625)"/>
      </defs>
      <use xlink:href="#DejaVuSans-28"/>
      <use xlink:href="#DejaVuSans-25" x="39.013672"/>
      <use xlink:href="#DejaVuSans-29" x="134.033203"/>
      <use xlink:href="#DejaVuSans-20" x="173.046875"/>
      <use xlink:href="#DejaVuSans-69" x="204.833984"/>
      <use xlink:href="#DejaVuSans-4d" x="232.617188"/>
      <use xlink:href="#DejaVuSans-4e" x="318.896484"/>
      <use xlink:href="#DejaVuSans-20" x="393.701172"/>
      <use xlink:href="#DejaVuSans-79" x="425.488281"/>
      <use xlink:href="#DejaVuSans-69" x="484.667969"/>
      <use xlink:href="#DejaVuSans-65" x="512.451172"/>
      <use xlink:href="#DejaVuSans-6c" x="573.974609"/>
      <use xlink:href="#DejaVuSans-64" x="601.757812"/>
     </g>
     <!-- per MEF plated -->
     <g transform="translate(25.99625 141.53)rotate(-90)scale(0.1 -0.1)">
      <defs>
       <path id="DejaVuSans-72" d="M 2631 2963 
Q 2534 3019 2420 3045 
Q 2306 3072 2169 3072 
Q 1681 3072 1420 2755 
Q 1159 2438 1159 1844 
L 1159 0 
L 581 0 
L 581 3500 
L 1159 3500 
L 1159 2956 
Q 1341 3275 1631 3429 
Q 1922 3584 2338 3584 
Q 2397 3584 2469 3576 
Q 2541 3569 2628 3553 
L 2631 2963 
z
" transform="scale(0.015625)"/>
       <path id="DejaVuSans-45" d="M 628 4666 
L 3578 4666 
L 3578 4134 
L 1259 4134 
L 1259 2753 
L 3481 2753 
L 3481 2222 
L 1259 2222 
L 1259 531 
L 3634 531 
L 3634 0 
L 628 0 
L 628 4666 
z
" transform="scale(0.015625)"/>
       <path id="DejaVuSans-46" d="M 628 4666 
L 3309 4666 
L 3309 4134 
L 1259 4134 
L 1259 2759 
L 3109 2759 
L 3109 2228 
L 1259 2228 
L 1259 0 
L 628 0 
L 628 4666 
z
" transform="scale(0.015625)"/>
       <path id="DejaVuSans-74" d="M 1172 4494 
L 1172 3500 
L 2356 3500 
L 2356 3053 
L 1172 3053 
L 1172 1153 
Q 1172 725 1289 603 
Q 1406 481 1766 481 
L 2356 481 
L 2356 0 
L 1766 0 
Q 1100 0 847 248 
Q 594 497 594 1153 
L 594 3053 
L 172 3053 
L 172 3500 
L 594 3500 
L 594 4494 
L 1172 4494 
z
" transform="scale(0.015625)"/>
      </defs>
      <use xlink:href="#DejaVuSans-70"/>
      <use xlink:href="#DejaVuSans-65" x="63.476562"/>
      <use xlink:href="#DejaVuSans-72" x="125"/>
      <use xlink:href="#DejaVuSans-20" x="166.113281"/>
      <use xlink:href="#DejaVuSans-4d" x="197.900391"/>
      <use xlink:href="#DejaVuSans-45" x="284.179688"/>
      <use xlink:href="#DejaVuSans-46" x="347.363281"/>
      <use xlink:href="#DejaVuSans-20" x="404.882812"/>
      <use xlink:href="#DejaVuSans-70" x="436.669922"/>
      <use xlink:href="#DejaVuSans-6c" x="500.146484"/>
      <use xlink:href="#DejaVuSans-61" x="527.929688"/>
      <use xlink:href="#DejaVuSans-74" x="589.208984"/>
      <use xlink:href="#DejaVuSans-65" x="628.417969"/>
      <use xlink:href="#DejaVuSans-64" x="689.941406"/>
     </g>
    </g>
   </g>
   <g id="line2d_12">
    <path d="M 68.067269 113.810549 
L 69.4863 113.597442 
L 70.905332 113.384334 
L 72.324364 113.171227 
L 73.743396 112.95812 
L 75.162428 112.745013 
L 76.58146 112.531906 
L 78.000492 112.318799 
L 79.419524 112.105691 
L 80.838555 111.892584 
L 82.257587 111.679477 
L 83.676619 111.46637 
L 85.095651 111.253263 
L 86.514683 111.040156 
L 87.933715 110.827048 
L 89.352747 110.613941 
L 90.771779 110.400834 
L 92.19081 110.187727 
L 93.609842 109.97462 
L 95.028874 109.761513 
L 96.447906 109.548405 
L 97.866938 109.335298 
L 99.28597 109.122191 
L 100.705002 108.909084 
L 102.124033 108.695977 
L 103.543065 108.48287 
L 104.962097 108.269762 
L 106.381129 108.056655 
L 107.800161 107.843548 
L 109.219193 107.630441 
L 110.638225 107.417334 
L 112.057257 107.204227 
L 113.476288 106.991119 
L 114.89532 106.778012 
L 116.314352 106.564905 
L 117.733384 106.351798 
L 119.152416 106.138691 
L 120.571448 105.925584 
L 121.99048 105.712476 
L 123.409512 105.499369 
L 124.828543 105.286262 
L 126.247575 105.073155 
L 127.666607 104.860048 
L 129.085639 104.64694 
L 130.504671 104.433833 
L 131.923703 104.220726 
L 133.342735 104.007619 
L 134.761766 103.794512 
L 136.180798 103.581405 
L 137.59983 103.368297 
L 139.018862 103.15519 
L 140.437894 102.942083 
L 141.856926 102.728976 
L 143.275958 102.515869 
L 144.69499 102.302762 
L 146.114021 102.089654 
L 147.533053 101.876547 
L 148.952085 101.66344 
L 150.371117 101.450333 
L 151.790149 101.237226 
L 153.209181 101.024119 
L 154.628213 100.811011 
L 156.047244 100.597904 
L 157.466276 100.384797 
L 158.885308 100.17169 
L 160.30434 99.958583 
L 161.723372 99.745476 
L 163.142404 99.532368 
L 164.561436 99.319261 
L 165.980468 99.106154 
L 167.399499 98.893047 
L 168.818531 98.67994 
L 170.237563 98.466833 
L 171.656595 98.253725 
L 173.075627 98.040618 
L 174.494659 97.827511 
L 175.913691 97.614404 
L 177.332723 97.401297 
L 178.751754 97.18819 
L 180.170786 96.975082 
L 181.589818 96.761975 
L 183.00885 96.548868 
L 184.427882 96.335761 
L 185.846914 96.122654 
L 187.265946 95.909547 
L 188.684977 95.696439 
L 190.104009 95.483332 
L 191.523041 95.270225 
L 192.942073 95.057118 
L 194.361105 94.844011 
L 195.780137 94.630904 
L 197.199169 94.417796 
L 198.618201 94.204689 
L 200.037232 93.991582 
L 201.456264 93.778475 
L 202.875296 93.565368 
L 204.294328 93.35226 
L 205.71336 93.139153 
L 207.132392 92.926046 
L 208.551424 92.712939 
" clip-path="url(#p1fb70815da)" style="fill: none; stroke: #498ac6; stroke-width: 2.25; stroke-linecap: square"/>
   </g>
   <g id="LineCollection_1">
    <path d="M 199.148501 114.11183 
L 217.954347 114.11183 
" clip-path="url(#p1fb70815da)" style="fill: none; stroke: #000000; stroke-width: 0.5"/>
    <path d="M 175.875248 79.276655 
L 187.791449 79.276655 
" clip-path="url(#p1fb70815da)" style="fill: none; stroke: #000000; stroke-width: 0.5"/>
    <path d="M 76.029467 64.541423 
L 82.02376 64.541423 
" clip-path="url(#p1fb70815da)" style="fill: none; stroke: #000000; stroke-width: 0.5"/>
    <path d="M 83.653975 126.096761 
L 90.097303 126.096761 
" clip-path="url(#p1fb70815da)" style="fill: none; stroke: #000000; stroke-width: 0.5"/>
    <path d="M 165.565427 69.353711 
L 179.540676 69.353711 
" clip-path="url(#p1fb70815da)" style="fill: none; stroke: #000000; stroke-width: 0.5"/>
    <path d="M 160.021354 35.026647 
L 166.344919 35.026647 
" clip-path="url(#p1fb70815da)" style="fill: none; stroke: #000000; stroke-width: 0.5"/>
    <path d="M 82.574925 55.401325 
L 86.219181 55.401325 
" clip-path="url(#p1fb70815da)" style="fill: none; stroke: #000000; stroke-width: 0.5"/>
    <path d="M 113.94677 108.679174 
L 125.04783 108.679174 
" clip-path="url(#p1fb70815da)" style="fill: none; stroke: #000000; stroke-width: 0.5"/>
    <path d="M 200.465485 116.690791 
L 206.805484 116.690791 
" clip-path="url(#p1fb70815da)" style="fill: none; stroke: #000000; stroke-width: 0.5"/>
    <path d="M 173.354299 92.930673 
L 188.285519 92.930673 
" clip-path="url(#p1fb70815da)" style="fill: none; stroke: #000000; stroke-width: 0.5"/>
    <path d="M 89.370023 85.007679 
L 91.116688 85.007679 
" clip-path="url(#p1fb70815da)" style="fill: none; stroke: #000000; stroke-width: 0.5"/>
    <path d="M 98.652032 145.351822 
L 103.084516 145.351822 
" clip-path="url(#p1fb70815da)" style="fill: none; stroke: #000000; stroke-width: 0.5"/>
    <path d="M 183.4766 96.044333 
L 214.812822 96.044333 
" clip-path="url(#p1fb70815da)" style="fill: none; stroke: #000000; stroke-width: 0.5"/>
    <path d="M 189.938188 74.680019 
L 199.909443 74.680019 
" clip-path="url(#p1fb70815da)" style="fill: none; stroke: #000000; stroke-width: 0.5"/>
    <path d="M 103.534496 96.85672 
L 117.07498 96.85672 
" clip-path="url(#p1fb70815da)" style="fill: none; stroke: #000000; stroke-width: 0.5"/>
    <path d="M 113.743933 162.725098 
L 125.925961 162.725098 
" clip-path="url(#p1fb70815da)" style="fill: none; stroke: #000000; stroke-width: 0.5"/>
    <path d="M 184.993069 101.657192 
L 207.075347 101.657192 
" clip-path="url(#p1fb70815da)" style="fill: none; stroke: #000000; stroke-width: 0.5"/>
    <path d="M 167.412397 67.256274 
L 180.74048 67.256274 
" clip-path="url(#p1fb70815da)" style="fill: none; stroke: #000000; stroke-width: 0.5"/>
    <path d="M 77.864851 95.875947 
L 84.628886 95.875947 
" clip-path="url(#p1fb70815da)" style="fill: none; stroke: #000000; stroke-width: 0.5"/>
    <path d="M 98.52959 129.050898 
L 103.817115 129.050898 
" clip-path="url(#p1fb70815da)" style="fill: none; stroke: #000000; stroke-width: 0.5"/>
    <path d="M 188.928028 119.928525 
L 200.087816 119.928525 
" clip-path="url(#p1fb70815da)" style="fill: none; stroke: #000000; stroke-width: 0.5"/>
    <path d="M 172.387212 132.716981 
L 176.537863 132.716981 
" clip-path="url(#p1fb70815da)" style="fill: none; stroke: #000000; stroke-width: 0.5"/>
    <path d="M 65.772528 126.483753 
L 70.362009 126.483753 
" clip-path="url(#p1fb70815da)" style="fill: none; stroke: #000000; stroke-width: 0.5"/>
    <path d="M 76.85934 176.009849 
L 78.400404 176.009849 
" clip-path="url(#p1fb70815da)" style="fill: none; stroke: #000000; stroke-width: 0.5"/>
   </g>
   <g id="LineCollection_2">
    <path d="M 208.551424 124.03967 
L 208.551424 104.183991 
" clip-path="url(#p1fb70815da)" style="fill: none; stroke: #000000; stroke-width: 0.5"/>
    <path d="M 181.833349 89.772004 
L 181.833349 68.781306 
" clip-path="url(#p1fb70815da)" style="fill: none; stroke: #000000; stroke-width: 0.5"/>
    <path d="M 79.026614 79.075966 
L 79.026614 50.006879 
" clip-path="url(#p1fb70815da)" style="fill: none; stroke: #000000; stroke-width: 0.5"/>
    <path d="M 86.875639 131.8387 
L 86.875639 120.354823 
" clip-path="url(#p1fb70815da)" style="fill: none; stroke: #000000; stroke-width: 0.5"/>
    <path d="M 172.553052 87.804167 
L 172.553052 50.903255 
" clip-path="url(#p1fb70815da)" style="fill: none; stroke: #000000; stroke-width: 0.5"/>
    <path d="M 163.183137 40.322441 
L 163.183137 29.730852 
" clip-path="url(#p1fb70815da)" style="fill: none; stroke: #000000; stroke-width: 0.5"/>
    <path d="M 84.397053 66.089906 
L 84.397053 44.712744 
" clip-path="url(#p1fb70815da)" style="fill: none; stroke: #000000; stroke-width: 0.5"/>
    <path d="M 119.4973 127.294749 
L 119.4973 90.063599 
" clip-path="url(#p1fb70815da)" style="fill: none; stroke: #000000; stroke-width: 0.5"/>
    <path d="M 203.635484 128.010158 
L 203.635484 105.371424 
" clip-path="url(#p1fb70815da)" style="fill: none; stroke: #000000; stroke-width: 0.5"/>
    <path d="M 180.819909 97.359754 
L 180.819909 88.501592 
" clip-path="url(#p1fb70815da)" style="fill: none; stroke: #000000; stroke-width: 0.5"/>
    <path d="M 90.243355 99.829825 
L 90.243355 70.185534 
" clip-path="url(#p1fb70815da)" style="fill: none; stroke: #000000; stroke-width: 0.5"/>
    <path d="M 100.868274 148.644857 
L 100.868274 142.058787 
" clip-path="url(#p1fb70815da)" style="fill: none; stroke: #000000; stroke-width: 0.5"/>
    <path d="M 199.144711 104.636798 
L 199.144711 87.451867 
" clip-path="url(#p1fb70815da)" style="fill: none; stroke: #000000; stroke-width: 0.5"/>
    <path d="M 194.923815 85.538359 
L 194.923815 63.821678 
" clip-path="url(#p1fb70815da)" style="fill: none; stroke: #000000; stroke-width: 0.5"/>
    <path d="M 110.304738 110.023091 
L 110.304738 83.690349 
" clip-path="url(#p1fb70815da)" style="fill: none; stroke: #000000; stroke-width: 0.5"/>
    <path d="M 119.834947 169.063011 
L 119.834947 156.387184 
" clip-path="url(#p1fb70815da)" style="fill: none; stroke: #000000; stroke-width: 0.5"/>
    <path d="M 196.034208 108.751579 
L 196.034208 94.562804 
" clip-path="url(#p1fb70815da)" style="fill: none; stroke: #000000; stroke-width: 0.5"/>
    <path d="M 174.076438 76.998661 
L 174.076438 57.513887 
" clip-path="url(#p1fb70815da)" style="fill: none; stroke: #000000; stroke-width: 0.5"/>
    <path d="M 81.246869 116.105861 
L 81.246869 75.646032 
" clip-path="url(#p1fb70815da)" style="fill: none; stroke: #000000; stroke-width: 0.5"/>
    <path d="M 101.173352 133.206805 
L 101.173352 124.894991 
" clip-path="url(#p1fb70815da)" style="fill: none; stroke: #000000; stroke-width: 0.5"/>
    <path d="M 194.507922 124.701525 
L 194.507922 115.155524 
" clip-path="url(#p1fb70815da)" style="fill: none; stroke: #000000; stroke-width: 0.5"/>
    <path d="M 174.462538 140.641285 
L 174.462538 124.792677 
" clip-path="url(#p1fb70815da)" style="fill: none; stroke: #000000; stroke-width: 0.5"/>
    <path d="M 68.067269 134.679861 
L 68.067269 118.287645 
" clip-path="url(#p1fb70815da)" style="fill: none; stroke: #000000; stroke-width: 0.5"/>
    <path d="M 77.629872 177.985398 
L 77.629872 174.0343 
" clip-path="url(#p1fb70815da)" style="fill: none; stroke: #000000; stroke-width: 0.5"/>
   </g>
   <g id="line2d_13">
    <path d="M 208.551424 114.11183 
L 181.833349 79.276655 
L 79.026614 64.541423 
L 86.875639 126.096761 
L 172.553052 69.353711 
L 163.183137 35.026647 
L 84.397053 55.401325 
L 119.4973 108.679174 
L 203.635484 116.690791 
L 180.819909 92.930673 
L 90.243355 85.007679 
L 100.868274 145.351822 
L 199.144711 96.044333 
L 194.923815 74.680019 
L 110.304738 96.85672 
L 119.834947 162.725098 
L 196.034208 101.657192 
L 174.076438 67.256274 
L 81.246869 95.875947 
L 101.173352 129.050898 
L 194.507922 119.928525 
L 174.462538 132.716981 
L 68.067269 126.483753 
L 77.629872 176.009849 
" clip-path="url(#p1fb70815da)" style="fill: none; stroke: #000000; stroke-opacity: 0; stroke-width: 1.5; stroke-linecap: square"/>
   </g>
   <g id="patch_3">
    <path d="M 58.163438 185.398125 
L 58.163438 22.318125 
" style="fill: none; stroke: #000000; stroke-width: 0.8; stroke-linejoin: miter; stroke-linecap: square"/>
   </g>
   <g id="patch_4">
    <path d="M 225.563438 185.398125 
L 225.563438 22.318125 
" style="fill: none; stroke: #000000; stroke-width: 0.8; stroke-linejoin: miter; stroke-linecap: square"/>
   </g>
   <g id="patch_5">
    <path d="M 58.163437 185.398125 
L 225.563437 185.398125 
" style="fill: none; stroke: #000000; stroke-width: 0.8; stroke-linejoin: miter; stroke-linecap: square"/>
   </g>
   <g id="patch_6">
    <path d="M 58.163437 22.318125 
L 225.563437 22.318125 
" style="fill: none; stroke: #000000; stroke-width: 0.8; stroke-linejoin: miter; stroke-linecap: square"/>
   </g>
   <g id="text_14">
    <!-- r = 0.22 -->
    <g transform="translate(66.533438 38.626125)scale(0.1 -0.1)">
     <defs>
      <path id="DejaVuSans-3d" d="M 678 2906 
L 4684 2906 
L 4684 2381 
L 678 2381 
L 678 2906 
z
M 678 1631 
L 4684 1631 
L 4684 1100 
L 678 1100 
L 678 1631 
z
" transform="scale(0.015625)"/>
      <path id="DejaVuSans-2e" d="M 684 794 
L 1344 794 
L 1344 0 
L 684 0 
L 684 794 
z
" transform="scale(0.015625)"/>
     </defs>
     <use xlink:href="#DejaVuSans-72"/>
     <use xlink:href="#DejaVuSans-20" x="41.113281"/>
     <use xlink:href="#DejaVuSans-3d" x="72.900391"/>
     <use xlink:href="#DejaVuSans-20" x="156.689453"/>
     <use xlink:href="#DejaVuSans-30" x="188.476562"/>
     <use xlink:href="#DejaVuSans-2e" x="252.099609"/>
     <use xlink:href="#DejaVuSans-32" x="283.886719"/>
     <use xlink:href="#DejaVuSans-32" x="347.509766"/>
    </g>
   </g>
   <g id="text_15">
    <!-- Lhx3 -->
    <g transform="translate(127.349063 16.318125)scale(0.12 -0.12)">
     <defs>
      <path id="DejaVuSans-4c" d="M 628 4666 
L 1259 4666 
L 1259 531 
L 3531 531 
L 3531 0 
L 628 0 
L 628 4666 
z
" transform="scale(0.015625)"/>
      <path id="DejaVuSans-68" d="M 3513 2113 
L 3513 0 
L 2938 0 
L 2938 2094 
Q 2938 2591 2744 2837 
Q 2550 3084 2163 3084 
Q 1697 3084 1428 2787 
Q 1159 2491 1159 1978 
L 1159 0 
L 581 0 
L 581 4863 
L 1159 4863 
L 1159 2956 
Q 1366 3272 1645 3428 
Q 1925 3584 2291 3584 
Q 2894 3584 3203 3211 
Q 3513 2838 3513 2113 
z
" transform="scale(0.015625)"/>
      <path id="DejaVuSans-78" d="M 3513 3500 
L 2247 1797 
L 3578 0 
L 2900 0 
L 1881 1375 
L 863 0 
L 184 0 
L 1544 1831 
L 300 3500 
L 978 3500 
L 1906 2253 
L 2834 3500 
L 3513 3500 
z
" transform="scale(0.015625)"/>
     </defs>
     <use xlink:href="#DejaVuSans-4c"/>
     <use xlink:href="#DejaVuSans-68" x="55.712891"/>
     <use xlink:href="#DejaVuSans-78" x="119.091797"/>
     <use xlink:href="#DejaVuSans-33" x="178.271484"/>
    </g>
   </g>
  </g>
 </g>
 <defs>
  <clipPath id="p1fb70815da">
   <rect x="58.163438" y="22.318125" width="167.4" height="163.08"/>
  </clipPath>
 </defs>
</svg>
