<?xml version="1.0" encoding="utf-8" standalone="no"?>
<!DOCTYPE svg PUBLIC "-//W3C//DTD SVG 1.1//EN"
  "http://www.w3.org/Graphics/SVG/1.1/DTD/svg11.dtd">
<svg xmlns:xlink="http://www.w3.org/1999/xlink" width="280.125938pt" height="234.152188pt" viewBox="0 0 280.125938 234.152188" xmlns="http://www.w3.org/2000/svg" version="1.1">
 <metadata>
  <rdf:RDF xmlns:dc="http://purl.org/dc/elements/1.1/" xmlns:cc="http://creativecommons.org/ns#" xmlns:rdf="http://www.w3.org/1999/02/22-rdf-syntax-ns#">
   <cc:Work>
    <dc:type rdf:resource="http://purl.org/dc/dcmitype/StillImage"/>
    <dc:date>2025-01-26T16:01:24.751030</dc:date>
    <dc:format>image/svg+xml</dc:format>
    <dc:creator>
     <cc:Agent>
      <dc:title>Matplotlib v3.5.2, https://matplotlib.org/</dc:title>
     </cc:Agent>
    </dc:creator>
   </cc:Work>
  </rdf:RDF>
 </metadata>
 <defs>
  <style type="text/css">*{stroke-linejoin: round; stroke-linecap: butt}</style>
 </defs>
 <g id="figure_1">
  <g id="patch_1">
   <path d="M 0 234.152188 
L 280.125938 234.152188 
L 280.125938 -0 
L 0 -0 
L 0 234.152188 
z
" style="fill: none"/>
  </g>
  <g id="axes_1">
   <g id="patch_2">
    <path d="M 58.163438 185.398125 
L 225.563438 185.398125 
L 225.563438 22.318125 
L 58.163438 22.318125 
z
" style="fill: #ffffff"/>
   </g>
   <g id="PathCollection_1">
    <defs>
     <path id="m16738b18b2" d="M 0 3 
C 0.795609 3 1.55874 2.683901 2.12132 2.12132 
C 2.683901 1.55874 3 0.795609 3 0 
C 3 -0.795609 2.683901 -1.55874 2.12132 -2.12132 
C 1.55874 -2.683901 0.795609 -3 0 -3 
C -0.795609 -3 -1.55874 -2.683901 -2.12132 -2.12132 
C -2.683901 -1.55874 -3 -0.795609 -3 0 
C -3 0.795609 -2.683901 1.55874 -2.12132 2.12132 
C -1.55874 2.683901 -0.795609 3 0 3 
z
" style="stroke: #1f77b4; stroke-opacity: 0.8"/>
    </defs>
    <g clip-path="url(#pcd9b9c7465)">
     <use xlink:href="#m16738b18b2" x="155.954828" y="95.72451" style="fill: #1f77b4; fill-opacity: 0.8; stroke: #1f77b4; stroke-opacity: 0.8"/>
     <use xlink:href="#m16738b18b2" x="141.334782" y="94.054639" style="fill: #1f77b4; fill-opacity: 0.8; stroke: #1f77b4; stroke-opacity: 0.8"/>
     <use xlink:href="#m16738b18b2" x="148.86975" y="111.195026" style="fill: #1f77b4; fill-opacity: 0.8; stroke: #1f77b4; stroke-opacity: 0.8"/>
     <use xlink:href="#m16738b18b2" x="133.741862" y="95.310015" style="fill: #1f77b4; fill-opacity: 0.8; stroke: #1f77b4; stroke-opacity: 0.8"/>
     <use xlink:href="#m16738b18b2" x="118.30423" y="110.486648" style="fill: #1f77b4; fill-opacity: 0.8; stroke: #1f77b4; stroke-opacity: 0.8"/>
     <use xlink:href="#m16738b18b2" x="154.130127" y="101.366059" style="fill: #1f77b4; fill-opacity: 0.8; stroke: #1f77b4; stroke-opacity: 0.8"/>
    </g>
   </g>
   <g id="PolyCollection_1">
    <path d="M 118.30423 83.658132 
L 118.30423 111.936654 
L 118.684539 111.828173 
L 119.064848 111.719692 
L 119.445157 111.611211 
L 119.825466 111.50273 
L 120.205775 111.39425 
L 120.586084 111.285769 
L 120.966393 111.182747 
L 121.346702 111.080821 
L 121.727011 110.978895 
L 122.10732 110.876969 
L 122.48763 110.775043 
L 122.867939 110.69287 
L 123.248248 110.626064 
L 123.628557 110.502873 
L 124.008866 110.379682 
L 124.389175 110.265412 
L 124.769484 110.17184 
L 125.149793 110.111408 
L 125.530102 110.032336 
L 125.910411 109.950066 
L 126.29072 109.867796 
L 126.671029 109.785526 
L 127.051338 109.703255 
L 127.431647 109.620985 
L 127.811957 109.538715 
L 128.192266 109.456445 
L 128.572575 109.374175 
L 128.952884 109.291905 
L 129.333193 109.209635 
L 129.713502 109.127365 
L 130.093811 109.045094 
L 130.47412 108.962824 
L 130.854429 108.880554 
L 131.234738 108.798776 
L 131.615047 108.717203 
L 131.995356 108.635631 
L 132.375665 108.554058 
L 132.755974 108.472486 
L 133.136284 108.390913 
L 133.516593 108.309341 
L 133.896902 108.226589 
L 134.277211 108.206727 
L 134.65752 108.152016 
L 135.037829 108.032902 
L 135.418138 107.913788 
L 135.798447 107.811042 
L 136.178756 107.728772 
L 136.559065 107.648458 
L 136.939374 107.71172 
L 137.319683 107.718045 
L 137.699992 107.621128 
L 138.080301 107.522657 
L 138.460611 107.422799 
L 138.84092 107.322942 
L 139.221229 107.223084 
L 139.601538 107.12279 
L 139.981847 107.022277 
L 140.362156 106.921763 
L 140.742465 106.82125 
L 141.122774 106.769104 
L 141.503083 106.780091 
L 141.883392 106.791077 
L 142.263701 106.801849 
L 142.64401 106.812122 
L 143.024319 106.822626 
L 143.404628 106.799415 
L 143.784938 106.721166 
L 144.165247 106.642917 
L 144.545556 106.564669 
L 144.925865 106.495915 
L 145.306174 106.471401 
L 145.686483 106.450697 
L 146.066792 106.788101 
L 146.447101 106.729976 
L 146.82741 106.70603 
L 147.207719 107.191193 
L 147.588028 107.471745 
L 147.968337 107.423832 
L 148.348646 107.616396 
L 148.728955 107.973814 
L 149.109265 108.362714 
L 149.489574 108.704035 
L 149.869883 109.087394 
L 150.250192 108.54144 
L 150.630501 108.056342 
L 151.01081 107.911863 
L 151.391119 108.309427 
L 151.771428 108.323404 
L 152.151737 108.29012 
L 152.532046 108.595089 
L 152.912355 108.743935 
L 153.292664 108.770129 
L 153.672973 108.961994 
L 154.053282 109.199362 
L 154.433592 109.345761 
L 154.813901 109.615471 
L 155.19421 109.925069 
L 155.574519 110.169816 
L 155.954828 110.414563 
L 155.954828 90.125164 
L 155.954828 90.125164 
L 155.574519 90.296771 
L 155.19421 90.468378 
L 154.813901 90.639985 
L 154.433592 90.802497 
L 154.053282 90.958768 
L 153.672973 91.115039 
L 153.292664 91.27131 
L 152.912355 91.452326 
L 152.532046 91.640497 
L 152.151737 91.828667 
L 151.771428 91.996642 
L 151.391119 92.158842 
L 151.01081 92.303989 
L 150.630501 92.449136 
L 150.250192 92.57913 
L 149.869883 92.677749 
L 149.489574 92.83402 
L 149.109265 92.990291 
L 148.728955 93.146562 
L 148.348646 93.302833 
L 147.968337 93.465166 
L 147.588028 93.615375 
L 147.207719 93.755444 
L 146.82741 93.899907 
L 146.447101 94.044769 
L 146.066792 94.189631 
L 145.686483 94.334493 
L 145.306174 94.479355 
L 144.925865 94.624217 
L 144.545556 94.769078 
L 144.165247 94.838341 
L 143.784938 94.795832 
L 143.404628 94.789193 
L 143.024319 94.782553 
L 142.64401 94.774995 
L 142.263701 94.669107 
L 141.883392 94.605885 
L 141.503083 94.452665 
L 141.122774 94.295594 
L 140.742465 94.152324 
L 140.362156 94.184912 
L 139.981847 94.259522 
L 139.601538 94.405884 
L 139.221229 94.403961 
L 138.84092 94.381599 
L 138.460611 94.416874 
L 138.080301 94.292205 
L 137.699992 94.331445 
L 137.319683 94.281151 
L 136.939374 94.017987 
L 136.559065 93.958364 
L 136.178756 93.737842 
L 135.798447 93.500935 
L 135.418138 93.364663 
L 135.037829 93.195589 
L 134.65752 92.923816 
L 134.277211 92.752286 
L 133.896902 92.528419 
L 133.516593 92.410923 
L 133.136284 92.277274 
L 132.755974 92.143625 
L 132.375665 91.916564 
L 131.995356 91.501524 
L 131.615047 91.211439 
L 131.234738 91.076964 
L 130.854429 90.919569 
L 130.47412 90.637574 
L 130.093811 90.35558 
L 129.713502 90.073586 
L 129.333193 89.791591 
L 128.952884 89.509597 
L 128.572575 89.227602 
L 128.192266 89.022127 
L 127.811957 88.863196 
L 127.431647 88.704266 
L 127.051338 88.545541 
L 126.671029 88.38721 
L 126.29072 88.22888 
L 125.910411 88.070618 
L 125.530102 87.913332 
L 125.149793 87.740771 
L 124.769484 87.519288 
L 124.389175 87.297804 
L 124.008866 87.076321 
L 123.628557 86.854837 
L 123.248248 86.633354 
L 122.867939 86.41187 
L 122.48763 86.190387 
L 122.10732 85.968903 
L 121.727011 85.74742 
L 121.346702 85.525936 
L 120.966393 85.304453 
L 120.586084 85.082969 
L 120.205775 84.861486 
L 119.825466 84.640002 
L 119.445157 84.418519 
L 119.064848 84.197035 
L 118.684539 83.937075 
L 118.30423 83.658132 
z
" clip-path="url(#pcd9b9c7465)" style="fill: #1f77b4; fill-opacity: 0.15"/>
   </g>
   <g id="PathCollection_2">
    <defs>
     <path id="m6083a25b32" d="M 0 3 
C 0.795609 3 1.55874 2.683901 2.12132 2.12132 
C 2.683901 1.55874 3 0.795609 3 0 
C 3 -0.795609 2.683901 -1.55874 2.12132 -2.12132 
C 1.55874 -2.683901 0.795609 -3 0 -3 
C -0.795609 -3 -1.55874 -2.683901 -2.12132 -2.12132 
C -2.683901 -1.55874 -3 -0.795609 -3 0 
C -3 0.795609 -2.683901 1.55874 -2.12132 2.12132 
C -1.55874 2.683901 -0.795609 3 0 3 
z
" style="stroke: #ff7f0e; stroke-opacity: 0.8"/>
    </defs>
    <g clip-path="url(#pcd9b9c7465)">
     <use xlink:href="#m6083a25b32" x="115.453061" y="97.93968" style="fill: #ff7f0e; fill-opacity: 0.8; stroke: #ff7f0e; stroke-opacity: 0.8"/>
     <use xlink:href="#m6083a25b32" x="118.947052" y="117.99852" style="fill: #ff7f0e; fill-opacity: 0.8; stroke: #ff7f0e; stroke-opacity: 0.8"/>
     <use xlink:href="#m6083a25b32" x="106.749802" y="102.934005" style="fill: #ff7f0e; fill-opacity: 0.8; stroke: #ff7f0e; stroke-opacity: 0.8"/>
     <use xlink:href="#m6083a25b32" x="102.575863" y="120.21369" style="fill: #ff7f0e; fill-opacity: 0.8; stroke: #ff7f0e; stroke-opacity: 0.8"/>
     <use xlink:href="#m6083a25b32" x="100.317476" y="127.475846" style="fill: #ff7f0e; fill-opacity: 0.8; stroke: #ff7f0e; stroke-opacity: 0.8"/>
     <use xlink:href="#m6083a25b32" x="113.029749" y="112.978714" style="fill: #ff7f0e; fill-opacity: 0.8; stroke: #ff7f0e; stroke-opacity: 0.8"/>
    </g>
   </g>
   <g id="PolyCollection_2">
    <path d="M 100.317476 93.719345 
L 100.317476 127.859505 
L 100.505653 127.1528 
L 100.693831 126.596445 
L 100.882008 126.169704 
L 101.070186 125.841233 
L 101.258364 125.639894 
L 101.446541 125.396766 
L 101.634719 125.184206 
L 101.822896 124.971647 
L 102.011074 124.843116 
L 102.199251 124.67116 
L 102.387429 124.472084 
L 102.575606 124.349515 
L 102.763784 124.229437 
L 102.951961 123.950759 
L 103.140139 123.666833 
L 103.328316 123.485565 
L 103.516494 123.393185 
L 103.704671 123.300804 
L 103.892849 123.208424 
L 104.081027 123.116043 
L 104.269204 123.023662 
L 104.457382 122.931282 
L 104.645559 122.838901 
L 104.833737 122.746521 
L 105.021914 122.65414 
L 105.210092 122.561759 
L 105.398269 122.469379 
L 105.586447 122.376998 
L 105.774624 122.284618 
L 105.962802 122.192237 
L 106.150979 122.099856 
L 106.339157 122.007476 
L 106.527334 121.890809 
L 106.715512 121.773878 
L 106.90369 121.636615 
L 107.091867 121.49409 
L 107.280045 121.351564 
L 107.468222 121.209038 
L 107.6564 121.116823 
L 107.844577 121.061628 
L 108.032755 120.956635 
L 108.220932 120.841247 
L 108.40911 120.725859 
L 108.597287 120.609563 
L 108.785465 120.492689 
L 108.973642 120.375816 
L 109.16182 120.287453 
L 109.349997 120.235511 
L 109.538175 120.183568 
L 109.726352 120.116839 
L 109.91453 120.002223 
L 110.102708 119.887606 
L 110.290885 119.77299 
L 110.479063 119.658374 
L 110.66724 119.543757 
L 110.855418 119.429141 
L 111.043595 119.314525 
L 111.231773 119.199908 
L 111.41995 119.085292 
L 111.608128 118.970676 
L 111.796305 118.856059 
L 111.984483 118.742081 
L 112.17266 118.626827 
L 112.360838 118.51221 
L 112.549015 118.397594 
L 112.737193 118.282978 
L 112.925371 118.168362 
L 113.113548 118.053745 
L 113.301726 117.939129 
L 113.489903 117.824513 
L 113.678081 117.730214 
L 113.866258 117.702963 
L 114.054436 117.675711 
L 114.242613 117.64846 
L 114.430791 117.621208 
L 114.618968 117.593957 
L 114.807146 117.566705 
L 114.995323 117.539454 
L 115.183501 117.512202 
L 115.371678 117.484951 
L 115.559856 117.457699 
L 115.748034 117.388446 
L 115.936211 117.296065 
L 116.124389 117.203685 
L 116.312566 117.111304 
L 116.500744 117.018923 
L 116.688921 116.926543 
L 116.877099 116.872551 
L 117.065276 116.859948 
L 117.253454 116.847751 
L 117.441631 116.922705 
L 117.629809 117.152161 
L 117.817986 117.130681 
L 118.006164 117.10343 
L 118.194341 117.076502 
L 118.382519 117.146981 
L 118.570696 117.202753 
L 118.758874 117.124163 
L 118.947052 117.043852 
L 118.947052 84.55226 
L 118.947052 84.55226 
L 118.758874 84.948518 
L 118.570696 85.344776 
L 118.382519 85.717002 
L 118.194341 86.084777 
L 118.006164 86.452551 
L 117.817986 86.820325 
L 117.629809 87.1881 
L 117.441631 87.555874 
L 117.253454 87.923649 
L 117.065276 88.291423 
L 116.877099 88.659197 
L 116.688921 89.026972 
L 116.500744 89.365451 
L 116.312566 89.703288 
L 116.124389 90.041126 
L 115.936211 90.440877 
L 115.748034 90.85207 
L 115.559856 91.233618 
L 115.371678 91.601393 
L 115.183501 91.969167 
L 114.995323 92.336941 
L 114.807146 92.704716 
L 114.618968 93.07249 
L 114.430791 93.440265 
L 114.242613 93.808039 
L 114.054436 94.175814 
L 113.866258 94.543588 
L 113.678081 94.911362 
L 113.489903 95.279137 
L 113.301726 95.646911 
L 113.113548 96.014686 
L 112.925371 96.38246 
L 112.737193 96.750234 
L 112.549015 97.118009 
L 112.360838 97.485783 
L 112.17266 97.824427 
L 111.984483 97.763236 
L 111.796305 98.160621 
L 111.608128 98.552608 
L 111.41995 98.487058 
L 111.231773 98.824896 
L 111.043595 99.162733 
L 110.855418 99.50057 
L 110.66724 99.838407 
L 110.479063 100.176245 
L 110.290885 100.503638 
L 110.102708 100.259304 
L 109.91453 99.912442 
L 109.726352 99.565581 
L 109.538175 99.267365 
L 109.349997 99.056855 
L 109.16182 98.854802 
L 108.973642 98.64788 
L 108.785465 98.440958 
L 108.597287 98.234037 
L 108.40911 98.027115 
L 108.220932 98.045074 
L 108.032755 98.707414 
L 107.844577 99.416681 
L 107.6564 99.999819 
L 107.468222 100.665515 
L 107.280045 101.013953 
L 107.091867 101.151622 
L 106.90369 101.05951 
L 106.715512 100.967397 
L 106.527334 100.875285 
L 106.339157 100.706633 
L 106.150979 100.476857 
L 105.962802 100.247081 
L 105.774624 100.017304 
L 105.586447 99.830925 
L 105.398269 99.609432 
L 105.210092 99.387939 
L 105.021914 99.166786 
L 104.833737 98.945702 
L 104.645559 98.724617 
L 104.457382 98.503533 
L 104.269204 98.282449 
L 104.081027 98.061364 
L 103.892849 97.84028 
L 103.704671 97.619196 
L 103.516494 97.397951 
L 103.328316 97.176671 
L 103.140139 96.95539 
L 102.951961 96.73411 
L 102.763784 96.512829 
L 102.575606 96.290695 
L 102.387429 96.067422 
L 102.199251 95.844149 
L 102.011074 95.622559 
L 101.822896 95.401363 
L 101.634719 95.180975 
L 101.446541 94.960588 
L 101.258364 94.7402 
L 101.070186 94.519812 
L 100.882008 94.299424 
L 100.693831 94.090481 
L 100.505653 93.904913 
L 100.317476 93.719345 
z
" clip-path="url(#pcd9b9c7465)" style="fill: #ff7f0e; fill-opacity: 0.15"/>
   </g>
   <g id="PathCollection_3">
    <defs>
     <path id="ma85361b5ea" d="M 0 3 
C 0.795609 3 1.55874 2.683901 2.12132 2.12132 
C 2.683901 1.55874 3 0.795609 3 0 
C 3 -0.795609 2.683901 -1.55874 2.12132 -2.12132 
C 1.55874 -2.683901 0.795609 -3 0 -3 
C -0.795609 -3 -1.55874 -2.683901 -2.12132 -2.12132 
C -2.683901 -1.55874 -3 -0.795609 -3 0 
C -3 0.795609 -2.683901 1.55874 -2.12132 2.12132 
C -1.55874 2.683901 -0.795609 3 0 3 
z
" style="stroke: #2ca02c; stroke-opacity: 0.8"/>
    </defs>
    <g clip-path="url(#pcd9b9c7465)">
     <use xlink:href="#ma85361b5ea" x="176.380999" y="74.039966" style="fill: #2ca02c; fill-opacity: 0.8; stroke: #2ca02c; stroke-opacity: 0.8"/>
     <use xlink:href="#ma85361b5ea" x="193.991801" y="79.010509" style="fill: #2ca02c; fill-opacity: 0.8; stroke: #2ca02c; stroke-opacity: 0.8"/>
     <use xlink:href="#ma85361b5ea" x="183.353459" y="74.643023" style="fill: #2ca02c; fill-opacity: 0.8; stroke: #2ca02c; stroke-opacity: 0.8"/>
     <use xlink:href="#ma85361b5ea" x="173.31548" y="100.462324" style="fill: #2ca02c; fill-opacity: 0.8; stroke: #2ca02c; stroke-opacity: 0.8"/>
     <use xlink:href="#ma85361b5ea" x="177.064058" y="102.612941" style="fill: #2ca02c; fill-opacity: 0.8; stroke: #2ca02c; stroke-opacity: 0.8"/>
     <use xlink:href="#ma85361b5ea" x="211.465542" y="74.855366" style="fill: #2ca02c; fill-opacity: 0.8; stroke: #2ca02c; stroke-opacity: 0.8"/>
    </g>
   </g>
   <g id="PolyCollection_3">
    <path d="M 173.31548 74.465345 
L 173.31548 103.659176 
L 173.700834 103.109674 
L 174.086188 102.789416 
L 174.471543 102.427791 
L 174.856897 102.140051 
L 175.242251 101.572606 
L 175.627605 101.372329 
L 176.012959 100.938803 
L 176.398313 100.543497 
L 176.783668 100.259651 
L 177.169022 99.927788 
L 177.554376 99.455721 
L 177.93973 98.783885 
L 178.325084 98.364966 
L 178.710438 98.039518 
L 179.095792 97.567451 
L 179.481147 97.204339 
L 179.866501 96.900124 
L 180.251855 96.594787 
L 180.637209 96.321302 
L 181.022563 96.057703 
L 181.407917 95.755319 
L 181.793272 95.44672 
L 182.178626 95.138121 
L 182.56398 94.828049 
L 182.949334 94.460702 
L 183.334688 94.155774 
L 183.720042 93.850846 
L 184.105396 93.545918 
L 184.490751 93.240991 
L 184.876105 92.936063 
L 185.261459 92.631135 
L 185.646813 92.326207 
L 186.032167 92.02128 
L 186.417521 91.716352 
L 186.802876 91.411424 
L 187.18823 91.150703 
L 187.573584 90.892047 
L 187.958938 90.673768 
L 188.344292 90.470685 
L 188.729646 90.267603 
L 189.115001 90.06452 
L 189.500355 89.861437 
L 189.885709 89.619344 
L 190.271063 89.298304 
L 190.656417 88.977264 
L 191.041771 88.656225 
L 191.427125 88.335185 
L 191.81248 88.046829 
L 192.197834 87.788173 
L 192.583188 87.529517 
L 192.968542 87.286742 
L 193.353896 87.047128 
L 193.73925 86.75063 
L 194.124605 86.455006 
L 194.509959 86.159381 
L 194.895313 85.863756 
L 195.280667 85.568131 
L 195.666021 85.272506 
L 196.051375 84.976882 
L 196.436729 84.681257 
L 196.822084 84.432962 
L 197.207438 84.192692 
L 197.592792 83.952422 
L 197.978146 83.712151 
L 198.3635 83.471662 
L 198.748854 83.229908 
L 199.134209 82.988154 
L 199.519563 82.686869 
L 199.904917 82.368858 
L 200.290271 82.050847 
L 200.675625 81.732836 
L 201.060979 81.414825 
L 201.446333 81.215767 
L 201.831688 81.309449 
L 202.217042 81.332033 
L 202.602396 81.29618 
L 202.98775 81.042785 
L 203.373104 80.975059 
L 203.758458 80.883661 
L 204.143813 80.764057 
L 204.529167 80.453878 
L 204.914521 80.143699 
L 205.299875 79.96107 
L 205.685229 79.679911 
L 206.070583 79.398764 
L 206.455938 79.117932 
L 206.841292 78.837101 
L 207.226646 78.556269 
L 207.612 78.275438 
L 207.997354 77.999562 
L 208.382708 77.875864 
L 208.768062 77.901162 
L 209.153417 77.92646 
L 209.538771 77.951758 
L 209.924125 77.977056 
L 210.309479 78.002712 
L 210.694833 78.029533 
L 211.080187 78.056353 
L 211.465542 78.083173 
L 211.465542 3.35358 
L 211.465542 3.35358 
L 211.080187 4.299469 
L 210.694833 5.245358 
L 210.309479 6.191247 
L 209.924125 7.137135 
L 209.538771 8.083024 
L 209.153417 9.028913 
L 208.768062 9.974802 
L 208.382708 10.92069 
L 207.997354 11.866579 
L 207.612 12.812468 
L 207.226646 13.758356 
L 206.841292 14.704245 
L 206.455938 15.650134 
L 206.070583 16.596023 
L 205.685229 17.541911 
L 205.299875 18.4878 
L 204.914521 19.433689 
L 204.529167 20.379578 
L 204.143813 21.325466 
L 203.758458 22.271355 
L 203.373104 23.217244 
L 202.98775 24.163132 
L 202.602396 25.131648 
L 202.217042 26.122841 
L 201.831688 27.114034 
L 201.446333 28.105227 
L 201.060979 29.09642 
L 200.675625 30.087613 
L 200.290271 31.078807 
L 199.904917 32.07 
L 199.519563 33.061193 
L 199.134209 34.052386 
L 198.748854 35.043579 
L 198.3635 36.034772 
L 197.978146 37.061825 
L 197.592792 38.127815 
L 197.207438 39.192579 
L 196.822084 40.11665 
L 196.436729 41.025171 
L 196.051375 41.980725 
L 195.666021 42.969851 
L 195.280667 43.958977 
L 194.895313 44.948104 
L 194.509959 45.93723 
L 194.124605 46.926356 
L 193.73925 47.915483 
L 193.353896 48.904609 
L 192.968542 49.893735 
L 192.583188 50.882862 
L 192.197834 51.871988 
L 191.81248 52.861114 
L 191.427125 53.850241 
L 191.041771 54.755832 
L 190.656417 55.573574 
L 190.271063 56.391317 
L 189.885709 57.209059 
L 189.500355 58.026801 
L 189.115001 58.844543 
L 188.729646 59.662285 
L 188.344292 60.480027 
L 187.958938 61.297769 
L 187.573584 62.116302 
L 187.18823 62.934949 
L 186.802876 63.839978 
L 186.417521 64.783472 
L 186.032167 65.727294 
L 185.646813 66.671116 
L 185.261459 67.614938 
L 184.876105 68.55876 
L 184.490751 69.585312 
L 184.105396 71.283306 
L 183.720042 72.213411 
L 183.334688 72.797627 
L 182.949334 73.381842 
L 182.56398 74.234249 
L 182.178626 74.433581 
L 181.793272 74.50808 
L 181.407917 74.823556 
L 181.022563 74.799517 
L 180.637209 74.741492 
L 180.251855 74.631391 
L 179.866501 74.601394 
L 179.481147 74.49964 
L 179.095792 74.400532 
L 178.710438 74.380339 
L 178.325084 74.374423 
L 177.93973 74.479909 
L 177.554376 74.371145 
L 177.169022 74.356676 
L 176.783668 74.35076 
L 176.398313 74.344844 
L 176.012959 74.605721 
L 175.627605 74.586031 
L 175.242251 74.565946 
L 174.856897 74.545825 
L 174.471543 74.525705 
L 174.086188 74.505585 
L 173.700834 74.485465 
L 173.31548 74.465345 
z
" clip-path="url(#pcd9b9c7465)" style="fill: #2ca02c; fill-opacity: 0.15"/>
   </g>
   <g id="PathCollection_4">
    <defs>
     <path id="m08aa0a808b" d="M 0 3 
C 0.795609 3 1.55874 2.683901 2.12132 2.12132 
C 2.683901 1.55874 3 0.795609 3 0 
C 3 -0.795609 2.683901 -1.55874 2.12132 -2.12132 
C 1.55874 -2.683901 0.795609 -3 0 -3 
C -0.795609 -3 -1.55874 -2.683901 -2.12132 -2.12132 
C -2.683901 -1.55874 -3 -0.795609 -3 0 
C -3 0.795609 -2.683901 1.55874 -2.12132 2.12132 
C -1.55874 2.683901 -0.795609 3 0 3 
z
" style="stroke: #d62728; stroke-opacity: 0.8"/>
    </defs>
    <g clip-path="url(#pcd9b9c7465)">
     <use xlink:href="#m08aa0a808b" x="177.751165" y="50.563241" style="fill: #d62728; fill-opacity: 0.8; stroke: #d62728; stroke-opacity: 0.8"/>
     <use xlink:href="#m08aa0a808b" x="175.862612" y="52.2501" style="fill: #d62728; fill-opacity: 0.8; stroke: #d62728; stroke-opacity: 0.8"/>
     <use xlink:href="#m08aa0a808b" x="167.186544" y="49.425079" style="fill: #d62728; fill-opacity: 0.8; stroke: #d62728; stroke-opacity: 0.8"/>
     <use xlink:href="#m08aa0a808b" x="137.205232" y="88.241516" style="fill: #d62728; fill-opacity: 0.8; stroke: #d62728; stroke-opacity: 0.8"/>
     <use xlink:href="#m08aa0a808b" x="126.314214" y="97.005367" style="fill: #d62728; fill-opacity: 0.8; stroke: #d62728; stroke-opacity: 0.8"/>
     <use xlink:href="#m08aa0a808b" x="94.698142" y="94.249995" style="fill: #d62728; fill-opacity: 0.8; stroke: #d62728; stroke-opacity: 0.8"/>
    </g>
   </g>
   <g id="PolyCollection_4">
    <path d="M 94.698142 93.216702 
L 94.698142 132.430075 
L 95.537062 131.504422 
L 96.375981 130.57877 
L 97.214901 129.653117 
L 98.05382 128.727508 
L 98.89274 127.803063 
L 99.731659 126.878619 
L 100.570578 125.954174 
L 101.409498 125.02973 
L 102.248417 124.105285 
L 103.087337 123.180841 
L 103.926256 122.256396 
L 104.765176 121.331952 
L 105.604095 120.407507 
L 106.443014 119.483063 
L 107.281934 118.558618 
L 108.120853 117.633758 
L 108.959773 116.727356 
L 109.798692 115.826162 
L 110.637611 114.924968 
L 111.476531 114.023774 
L 112.31545 113.12258 
L 113.15437 112.221386 
L 113.993289 111.320192 
L 114.832209 110.420208 
L 115.671128 109.520948 
L 116.510047 108.621687 
L 117.348967 107.722427 
L 118.187886 106.823166 
L 119.026806 105.923906 
L 119.865725 105.024645 
L 120.704645 104.144887 
L 121.543564 103.280743 
L 122.382483 102.405044 
L 123.221403 101.449809 
L 124.060322 100.616052 
L 124.899242 99.782295 
L 125.738161 98.948286 
L 126.57708 98.124792 
L 127.416 97.344537 
L 128.254919 96.558633 
L 129.093839 95.680879 
L 129.932758 94.785607 
L 130.771678 93.950376 
L 131.610597 93.266167 
L 132.449516 92.327457 
L 133.288436 91.539196 
L 134.127355 90.720671 
L 134.966275 90.001565 
L 135.805194 89.342658 
L 136.644114 88.469368 
L 137.483033 87.980709 
L 138.321952 87.200903 
L 139.160872 86.420464 
L 139.999791 85.639684 
L 140.838711 84.85863 
L 141.67763 84.077577 
L 142.516549 83.296523 
L 143.355469 82.515469 
L 144.194388 81.734416 
L 145.033308 80.953362 
L 145.872227 80.172308 
L 146.711147 79.391255 
L 147.550066 78.610201 
L 148.388985 77.829147 
L 149.227905 77.1803 
L 150.066824 76.717695 
L 150.905744 76.25509 
L 151.744663 75.792485 
L 152.583582 75.32988 
L 153.422502 74.867275 
L 154.261421 74.40467 
L 155.100341 73.841569 
L 155.93926 73.166502 
L 156.77818 72.594858 
L 157.617099 72.121464 
L 158.456018 71.715846 
L 159.294938 71.318317 
L 160.133857 70.920789 
L 160.972777 70.52326 
L 161.811696 70.125731 
L 162.650616 69.728203 
L 163.489535 69.316013 
L 164.328454 68.853408 
L 165.167374 68.390803 
L 166.006293 67.928198 
L 166.845213 67.465593 
L 167.684132 67.002988 
L 168.523051 66.540383 
L 169.361971 66.077778 
L 170.20089 65.615173 
L 171.03981 65.15941 
L 171.878729 64.76459 
L 172.717649 64.369769 
L 173.556568 63.974948 
L 174.395487 63.580127 
L 175.234407 63.185307 
L 176.073326 62.790486 
L 176.912246 62.395665 
L 177.751165 62.000844 
L 177.751165 41.99352 
L 177.751165 41.99352 
L 176.912246 42.889289 
L 176.073326 43.785059 
L 175.234407 44.680829 
L 174.395487 45.576598 
L 173.556568 46.472368 
L 172.717649 47.284411 
L 171.878729 48.215064 
L 171.03981 49.141943 
L 170.20089 49.816781 
L 169.361971 50.101754 
L 168.523051 50.883961 
L 167.684132 51.452571 
L 166.845213 52.021181 
L 166.006293 52.589792 
L 165.167374 53.348672 
L 164.328454 54.114431 
L 163.489535 54.657181 
L 162.650616 55.174545 
L 161.811696 56.065372 
L 160.972777 56.586354 
L 160.133857 57.107336 
L 159.294938 57.628318 
L 158.456018 58.1493 
L 157.617099 58.670282 
L 156.77818 59.138788 
L 155.93926 59.607133 
L 155.100341 60.075479 
L 154.261421 60.543824 
L 153.422502 61.117535 
L 152.583582 61.609754 
L 151.744663 62.145825 
L 150.905744 62.616229 
L 150.066824 63.086634 
L 149.227905 63.557039 
L 148.388985 64.027443 
L 147.550066 64.497848 
L 146.711147 64.968252 
L 145.872227 65.438657 
L 145.033308 65.896064 
L 144.194388 66.351123 
L 143.355469 66.806182 
L 142.516549 67.261241 
L 141.67763 67.716301 
L 140.838711 68.17136 
L 139.999791 68.626419 
L 139.160872 69.081478 
L 138.321952 69.536538 
L 137.483033 69.991322 
L 136.644114 70.446076 
L 135.805194 70.900829 
L 134.966275 71.355583 
L 134.127355 71.810337 
L 133.288436 72.265091 
L 132.449516 72.719845 
L 131.610597 73.174598 
L 130.771678 73.629352 
L 129.932758 74.084106 
L 129.093839 74.53886 
L 128.254919 74.993614 
L 127.416 75.448368 
L 126.57708 75.903121 
L 125.738161 76.357875 
L 124.899242 76.812629 
L 124.060322 77.267383 
L 123.221403 77.722137 
L 122.382483 78.176891 
L 121.543564 78.631644 
L 120.704645 79.086398 
L 119.865725 79.541152 
L 119.026806 79.995906 
L 118.187886 80.45066 
L 117.348967 80.905414 
L 116.510047 81.360167 
L 115.671128 81.814921 
L 114.832209 82.269675 
L 113.993289 82.724429 
L 113.15437 83.179183 
L 112.31545 83.633936 
L 111.476531 84.08869 
L 110.637611 84.543444 
L 109.798692 84.998198 
L 108.959773 85.452952 
L 108.120853 85.907706 
L 107.281934 86.362459 
L 106.443014 86.817213 
L 105.604095 87.271967 
L 104.765176 87.726721 
L 103.926256 88.181475 
L 103.087337 88.636229 
L 102.248417 89.090982 
L 101.409498 89.545736 
L 100.570578 90.00049 
L 99.731659 90.478893 
L 98.89274 90.947414 
L 98.05382 91.401198 
L 97.214901 91.854982 
L 96.375981 92.308766 
L 95.537062 92.762571 
L 94.698142 93.216702 
z
" clip-path="url(#pcd9b9c7465)" style="fill: #d62728; fill-opacity: 0.15"/>
   </g>
   <g id="PathCollection_5">
    <defs>
     <path id="mec8f694760" d="M 0 3.162278 
C 0.838646 3.162278 1.643056 2.82908 2.236068 2.236068 
C 2.82908 1.643056 3.162278 0.838646 3.162278 0 
C 3.162278 -0.838646 2.82908 -1.643056 2.236068 -2.236068 
C 1.643056 -2.82908 0.838646 -3.162278 0 -3.162278 
C -0.838646 -3.162278 -1.643056 -2.82908 -2.236068 -2.236068 
C -2.82908 -1.643056 -3.162278 -0.838646 -3.162278 0 
C -3.162278 0.838646 -2.82908 1.643056 -2.236068 2.236068 
C -1.643056 2.82908 -0.838646 3.162278 0 3.162278 
z
" style="stroke: #1f77b4; stroke-width: 2"/>
    </defs>
    <g clip-path="url(#pcd9b9c7465)">
     <use xlink:href="#mec8f694760" x="68.869188" y="179.770166" style="fill: #ffffff; stroke: #1f77b4; stroke-width: 2"/>
    </g>
   </g>
   <g id="PathCollection_6">
    <defs>
     <path id="mb8c35d9c2c" d="M 0 3.162278 
C 0.838646 3.162278 1.643056 2.82908 2.236068 2.236068 
C 2.82908 1.643056 3.162278 0.838646 3.162278 0 
C 3.162278 -0.838646 2.82908 -1.643056 2.236068 -2.236068 
C 1.643056 -2.82908 0.838646 -3.162278 0 -3.162278 
C -0.838646 -3.162278 -1.643056 -2.82908 -2.236068 -2.236068 
C -2.82908 -1.643056 -3.162278 -0.838646 -3.162278 0 
C -3.162278 0.838646 -2.82908 1.643056 -2.236068 2.236068 
C -1.643056 2.82908 -0.838646 3.162278 0 3.162278 
z
" style="stroke: #ff7f0e; stroke-width: 2"/>
    </defs>
    <g clip-path="url(#pcd9b9c7465)">
     <use xlink:href="#mb8c35d9c2c" x="66.205969" y="178.608221" style="fill: #ffffff; stroke: #ff7f0e; stroke-width: 2"/>
    </g>
   </g>
   <g id="PathCollection_7">
    <defs>
     <path id="m840400bf0f" d="M 0 3.162278 
C 0.838646 3.162278 1.643056 2.82908 2.236068 2.236068 
C 2.82908 1.643056 3.162278 0.838646 3.162278 0 
C 3.162278 -0.838646 2.82908 -1.643056 2.236068 -2.236068 
C 1.643056 -2.82908 0.838646 -3.162278 0 -3.162278 
C -0.838646 -3.162278 -1.643056 -2.82908 -2.236068 -2.236068 
C -2.82908 -1.643056 -3.162278 -0.838646 -3.162278 0 
C -3.162278 0.838646 -2.82908 1.643056 -2.236068 2.236068 
C -1.643056 2.82908 -0.838646 3.162278 0 3.162278 
z
" style="stroke: #2ca02c; stroke-width: 2"/>
    </defs>
    <g clip-path="url(#pcd9b9c7465)">
     <use xlink:href="#m840400bf0f" x="66.828946" y="180.174469" style="fill: #ffffff; stroke: #2ca02c; stroke-width: 2"/>
    </g>
   </g>
   <g id="PathCollection_8">
    <defs>
     <path id="md9f33d1c18" d="M 0 3.162278 
C 0.838646 3.162278 1.643056 2.82908 2.236068 2.236068 
C 2.82908 1.643056 3.162278 0.838646 3.162278 0 
C 3.162278 -0.838646 2.82908 -1.643056 2.236068 -2.236068 
C 1.643056 -2.82908 0.838646 -3.162278 0 -3.162278 
C -0.838646 -3.162278 -1.643056 -2.82908 -2.236068 -2.236068 
C -2.82908 -1.643056 -3.162278 -0.838646 -3.162278 0 
C -3.162278 0.838646 -2.82908 1.643056 -2.236068 2.236068 
C -1.643056 2.82908 -0.838646 3.162278 0 3.162278 
z
" style="stroke: #d62728; stroke-width: 2"/>
    </defs>
    <g clip-path="url(#pcd9b9c7465)">
     <use xlink:href="#md9f33d1c18" x="64.987861" y="180.252611" style="fill: #ffffff; stroke: #d62728; stroke-width: 2"/>
    </g>
   </g>
   <g id="matplotlib.axis_1">
    <g id="xtick_1">
     <g id="line2d_1">
      <defs>
       <path id="m8e77d4a1d6" d="M 0 0 
L 0 3.5 
" style="stroke: #000000; stroke-width: 0.8"/>
      </defs>
      <g>
       <use xlink:href="#m8e77d4a1d6" x="58.163438" y="185.398125" style="stroke: #000000; stroke-width: 0.8"/>
      </g>
     </g>
     <g id="text_1">
      <!-- 0 -->
      <g transform="translate(54.982188 199.996563)scale(0.1 -0.1)">
       <defs>
        <path id="DejaVuSans-30" d="M 2034 4250 
Q 1547 4250 1301 3770 
Q 1056 3291 1056 2328 
Q 1056 1369 1301 889 
Q 1547 409 2034 409 
Q 2525 409 2770 889 
Q 3016 1369 3016 2328 
Q 3016 3291 2770 3770 
Q 2525 4250 2034 4250 
z
M 2034 4750 
Q 2819 4750 3233 4129 
Q 3647 3509 3647 2328 
Q 3647 1150 3233 529 
Q 2819 -91 2034 -91 
Q 1250 -91 836 529 
Q 422 1150 422 2328 
Q 422 3509 836 4129 
Q 1250 4750 2034 4750 
z
" transform="scale(0.015625)"/>
       </defs>
       <use xlink:href="#DejaVuSans-30"/>
      </g>
     </g>
    </g>
    <g id="xtick_2">
     <g id="line2d_2">
      <g>
       <use xlink:href="#m8e77d4a1d6" x="103.406681" y="185.398125" style="stroke: #000000; stroke-width: 0.8"/>
      </g>
     </g>
     <g id="text_2">
      <!-- 1000 -->
      <g transform="translate(90.681681 199.996563)scale(0.1 -0.1)">
       <defs>
        <path id="DejaVuSans-31" d="M 794 531 
L 1825 531 
L 1825 4091 
L 703 3866 
L 703 4441 
L 1819 4666 
L 2450 4666 
L 2450 531 
L 3481 531 
L 3481 0 
L 794 0 
L 794 531 
z
" transform="scale(0.015625)"/>
       </defs>
       <use xlink:href="#DejaVuSans-31"/>
       <use xlink:href="#DejaVuSans-30" x="63.623047"/>
       <use xlink:href="#DejaVuSans-30" x="127.246094"/>
       <use xlink:href="#DejaVuSans-30" x="190.869141"/>
      </g>
     </g>
    </g>
    <g id="xtick_3">
     <g id="line2d_3">
      <g>
       <use xlink:href="#m8e77d4a1d6" x="148.649924" y="185.398125" style="stroke: #000000; stroke-width: 0.8"/>
      </g>
     </g>
     <g id="text_3">
      <!-- 2000 -->
      <g transform="translate(135.924924 199.996563)scale(0.1 -0.1)">
       <defs>
        <path id="DejaVuSans-32" d="M 1228 531 
L 3431 531 
L 3431 0 
L 469 0 
L 469 531 
Q 828 903 1448 1529 
Q 2069 2156 2228 2338 
Q 2531 2678 2651 2914 
Q 2772 3150 2772 3378 
Q 2772 3750 2511 3984 
Q 2250 4219 1831 4219 
Q 1534 4219 1204 4116 
Q 875 4013 500 3803 
L 500 4441 
Q 881 4594 1212 4672 
Q 1544 4750 1819 4750 
Q 2544 4750 2975 4387 
Q 3406 4025 3406 3419 
Q 3406 3131 3298 2873 
Q 3191 2616 2906 2266 
Q 2828 2175 2409 1742 
Q 1991 1309 1228 531 
z
" transform="scale(0.015625)"/>
       </defs>
       <use xlink:href="#DejaVuSans-32"/>
       <use xlink:href="#DejaVuSans-30" x="63.623047"/>
       <use xlink:href="#DejaVuSans-30" x="127.246094"/>
       <use xlink:href="#DejaVuSans-30" x="190.869141"/>
      </g>
     </g>
    </g>
    <g id="xtick_4">
     <g id="line2d_4">
      <g>
       <use xlink:href="#m8e77d4a1d6" x="193.893167" y="185.398125" style="stroke: #000000; stroke-width: 0.8"/>
      </g>
     </g>
     <g id="text_4">
      <!-- 3000 -->
      <g transform="translate(181.168167 199.996563)scale(0.1 -0.1)">
       <defs>
        <path id="DejaVuSans-33" d="M 2597 2516 
Q 3050 2419 3304 2112 
Q 3559 1806 3559 1356 
Q 3559 666 3084 287 
Q 2609 -91 1734 -91 
Q 1441 -91 1130 -33 
Q 819 25 488 141 
L 488 750 
Q 750 597 1062 519 
Q 1375 441 1716 441 
Q 2309 441 2620 675 
Q 2931 909 2931 1356 
Q 2931 1769 2642 2001 
Q 2353 2234 1838 2234 
L 1294 2234 
L 1294 2753 
L 1863 2753 
Q 2328 2753 2575 2939 
Q 2822 3125 2822 3475 
Q 2822 3834 2567 4026 
Q 2313 4219 1838 4219 
Q 1578 4219 1281 4162 
Q 984 4106 628 3988 
L 628 4550 
Q 988 4650 1302 4700 
Q 1616 4750 1894 4750 
Q 2613 4750 3031 4423 
Q 3450 4097 3450 3541 
Q 3450 3153 3228 2886 
Q 3006 2619 2597 2516 
z
" transform="scale(0.015625)"/>
       </defs>
       <use xlink:href="#DejaVuSans-33"/>
       <use xlink:href="#DejaVuSans-30" x="63.623047"/>
       <use xlink:href="#DejaVuSans-30" x="127.246094"/>
       <use xlink:href="#DejaVuSans-30" x="190.869141"/>
      </g>
     </g>
    </g>
    <g id="text_5">
     <!-- mRuby2, 4 dpi -->
     <g transform="translate(105.574375 213.674688)scale(0.1 -0.1)">
      <defs>
       <path id="DejaVuSans-6d" d="M 3328 2828 
Q 3544 3216 3844 3400 
Q 4144 3584 4550 3584 
Q 5097 3584 5394 3201 
Q 5691 2819 5691 2113 
L 5691 0 
L 5113 0 
L 5113 2094 
Q 5113 2597 4934 2840 
Q 4756 3084 4391 3084 
Q 3944 3084 3684 2787 
Q 3425 2491 3425 1978 
L 3425 0 
L 2847 0 
L 2847 2094 
Q 2847 2600 2669 2842 
Q 2491 3084 2119 3084 
Q 1678 3084 1418 2786 
Q 1159 2488 1159 1978 
L 1159 0 
L 581 0 
L 581 3500 
L 1159 3500 
L 1159 2956 
Q 1356 3278 1631 3431 
Q 1906 3584 2284 3584 
Q 2666 3584 2933 3390 
Q 3200 3197 3328 2828 
z
" transform="scale(0.015625)"/>
       <path id="DejaVuSans-52" d="M 2841 2188 
Q 3044 2119 3236 1894 
Q 3428 1669 3622 1275 
L 4263 0 
L 3584 0 
L 2988 1197 
Q 2756 1666 2539 1819 
Q 2322 1972 1947 1972 
L 1259 1972 
L 1259 0 
L 628 0 
L 628 4666 
L 2053 4666 
Q 2853 4666 3247 4331 
Q 3641 3997 3641 3322 
Q 3641 2881 3436 2590 
Q 3231 2300 2841 2188 
z
M 1259 4147 
L 1259 2491 
L 2053 2491 
Q 2509 2491 2742 2702 
Q 2975 2913 2975 3322 
Q 2975 3731 2742 3939 
Q 2509 4147 2053 4147 
L 1259 4147 
z
" transform="scale(0.015625)"/>
       <path id="DejaVuSans-75" d="M 544 1381 
L 544 3500 
L 1119 3500 
L 1119 1403 
Q 1119 906 1312 657 
Q 1506 409 1894 409 
Q 2359 409 2629 706 
Q 2900 1003 2900 1516 
L 2900 3500 
L 3475 3500 
L 3475 0 
L 2900 0 
L 2900 538 
Q 2691 219 2414 64 
Q 2138 -91 1772 -91 
Q 1169 -91 856 284 
Q 544 659 544 1381 
z
M 1991 3584 
L 1991 3584 
z
" transform="scale(0.015625)"/>
       <path id="DejaVuSans-62" d="M 3116 1747 
Q 3116 2381 2855 2742 
Q 2594 3103 2138 3103 
Q 1681 3103 1420 2742 
Q 1159 2381 1159 1747 
Q 1159 1113 1420 752 
Q 1681 391 2138 391 
Q 2594 391 2855 752 
Q 3116 1113 3116 1747 
z
M 1159 2969 
Q 1341 3281 1617 3432 
Q 1894 3584 2278 3584 
Q 2916 3584 3314 3078 
Q 3713 2572 3713 1747 
Q 3713 922 3314 415 
Q 2916 -91 2278 -91 
Q 1894 -91 1617 61 
Q 1341 213 1159 525 
L 1159 0 
L 581 0 
L 581 4863 
L 1159 4863 
L 1159 2969 
z
" transform="scale(0.015625)"/>
       <path id="DejaVuSans-79" d="M 2059 -325 
Q 1816 -950 1584 -1140 
Q 1353 -1331 966 -1331 
L 506 -1331 
L 506 -850 
L 844 -850 
Q 1081 -850 1212 -737 
Q 1344 -625 1503 -206 
L 1606 56 
L 191 3500 
L 800 3500 
L 1894 763 
L 2988 3500 
L 3597 3500 
L 2059 -325 
z
" transform="scale(0.015625)"/>
       <path id="DejaVuSans-2c" d="M 750 794 
L 1409 794 
L 1409 256 
L 897 -744 
L 494 -744 
L 750 256 
L 750 794 
z
" transform="scale(0.015625)"/>
       <path id="DejaVuSans-20" transform="scale(0.015625)"/>
       <path id="DejaVuSans-34" d="M 2419 4116 
L 825 1625 
L 2419 1625 
L 2419 4116 
z
M 2253 4666 
L 3047 4666 
L 3047 1625 
L 3713 1625 
L 3713 1100 
L 3047 1100 
L 3047 0 
L 2419 0 
L 2419 1100 
L 313 1100 
L 313 1709 
L 2253 4666 
z
" transform="scale(0.015625)"/>
       <path id="DejaVuSans-64" d="M 2906 2969 
L 2906 4863 
L 3481 4863 
L 3481 0 
L 2906 0 
L 2906 525 
Q 2725 213 2448 61 
Q 2172 -91 1784 -91 
Q 1150 -91 751 415 
Q 353 922 353 1747 
Q 353 2572 751 3078 
Q 1150 3584 1784 3584 
Q 2172 3584 2448 3432 
Q 2725 3281 2906 2969 
z
M 947 1747 
Q 947 1113 1208 752 
Q 1469 391 1925 391 
Q 2381 391 2643 752 
Q 2906 1113 2906 1747 
Q 2906 2381 2643 2742 
Q 2381 3103 1925 3103 
Q 1469 3103 1208 2742 
Q 947 2381 947 1747 
z
" transform="scale(0.015625)"/>
       <path id="DejaVuSans-70" d="M 1159 525 
L 1159 -1331 
L 581 -1331 
L 581 3500 
L 1159 3500 
L 1159 2969 
Q 1341 3281 1617 3432 
Q 1894 3584 2278 3584 
Q 2916 3584 3314 3078 
Q 3713 2572 3713 1747 
Q 3713 922 3314 415 
Q 2916 -91 2278 -91 
Q 1894 -91 1617 61 
Q 1341 213 1159 525 
z
M 3116 1747 
Q 3116 2381 2855 2742 
Q 2594 3103 2138 3103 
Q 1681 3103 1420 2742 
Q 1159 2381 1159 1747 
Q 1159 1113 1420 752 
Q 1681 391 2138 391 
Q 2594 391 2855 752 
Q 3116 1113 3116 1747 
z
" transform="scale(0.015625)"/>
       <path id="DejaVuSans-69" d="M 603 3500 
L 1178 3500 
L 1178 0 
L 603 0 
L 603 3500 
z
M 603 4863 
L 1178 4863 
L 1178 4134 
L 603 4134 
L 603 4863 
z
" transform="scale(0.015625)"/>
      </defs>
      <use xlink:href="#DejaVuSans-6d"/>
      <use xlink:href="#DejaVuSans-52" x="97.412109"/>
      <use xlink:href="#DejaVuSans-75" x="162.394531"/>
      <use xlink:href="#DejaVuSans-62" x="225.773438"/>
      <use xlink:href="#DejaVuSans-79" x="289.25"/>
      <use xlink:href="#DejaVuSans-32" x="348.429688"/>
      <use xlink:href="#DejaVuSans-2c" x="412.052734"/>
      <use xlink:href="#DejaVuSans-20" x="443.839844"/>
      <use xlink:href="#DejaVuSans-34" x="475.626953"/>
      <use xlink:href="#DejaVuSans-20" x="539.25"/>
      <use xlink:href="#DejaVuSans-64" x="571.037109"/>
      <use xlink:href="#DejaVuSans-70" x="634.513672"/>
      <use xlink:href="#DejaVuSans-69" x="697.990234"/>
     </g>
     <!-- (gmean) -->
     <g transform="translate(120.607969 224.8725)scale(0.1 -0.1)">
      <defs>
       <path id="DejaVuSans-28" d="M 1984 4856 
Q 1566 4138 1362 3434 
Q 1159 2731 1159 2009 
Q 1159 1288 1364 580 
Q 1569 -128 1984 -844 
L 1484 -844 
Q 1016 -109 783 600 
Q 550 1309 550 2009 
Q 550 2706 781 3412 
Q 1013 4119 1484 4856 
L 1984 4856 
z
" transform="scale(0.015625)"/>
       <path id="DejaVuSans-67" d="M 2906 1791 
Q 2906 2416 2648 2759 
Q 2391 3103 1925 3103 
Q 1463 3103 1205 2759 
Q 947 2416 947 1791 
Q 947 1169 1205 825 
Q 1463 481 1925 481 
Q 2391 481 2648 825 
Q 2906 1169 2906 1791 
z
M 3481 434 
Q 3481 -459 3084 -895 
Q 2688 -1331 1869 -1331 
Q 1566 -1331 1297 -1286 
Q 1028 -1241 775 -1147 
L 775 -588 
Q 1028 -725 1275 -790 
Q 1522 -856 1778 -856 
Q 2344 -856 2625 -561 
Q 2906 -266 2906 331 
L 2906 616 
Q 2728 306 2450 153 
Q 2172 0 1784 0 
Q 1141 0 747 490 
Q 353 981 353 1791 
Q 353 2603 747 3093 
Q 1141 3584 1784 3584 
Q 2172 3584 2450 3431 
Q 2728 3278 2906 2969 
L 2906 3500 
L 3481 3500 
L 3481 434 
z
" transform="scale(0.015625)"/>
       <path id="DejaVuSans-65" d="M 3597 1894 
L 3597 1613 
L 953 1613 
Q 991 1019 1311 708 
Q 1631 397 2203 397 
Q 2534 397 2845 478 
Q 3156 559 3463 722 
L 3463 178 
Q 3153 47 2828 -22 
Q 2503 -91 2169 -91 
Q 1331 -91 842 396 
Q 353 884 353 1716 
Q 353 2575 817 3079 
Q 1281 3584 2069 3584 
Q 2775 3584 3186 3129 
Q 3597 2675 3597 1894 
z
M 3022 2063 
Q 3016 2534 2758 2815 
Q 2500 3097 2075 3097 
Q 1594 3097 1305 2825 
Q 1016 2553 972 2059 
L 3022 2063 
z
" transform="scale(0.015625)"/>
       <path id="DejaVuSans-61" d="M 2194 1759 
Q 1497 1759 1228 1600 
Q 959 1441 959 1056 
Q 959 750 1161 570 
Q 1363 391 1709 391 
Q 2188 391 2477 730 
Q 2766 1069 2766 1631 
L 2766 1759 
L 2194 1759 
z
M 3341 1997 
L 3341 0 
L 2766 0 
L 2766 531 
Q 2569 213 2275 61 
Q 1981 -91 1556 -91 
Q 1019 -91 701 211 
Q 384 513 384 1019 
Q 384 1609 779 1909 
Q 1175 2209 1959 2209 
L 2766 2209 
L 2766 2266 
Q 2766 2663 2505 2880 
Q 2244 3097 1772 3097 
Q 1472 3097 1187 3025 
Q 903 2953 641 2809 
L 641 3341 
Q 956 3463 1253 3523 
Q 1550 3584 1831 3584 
Q 2591 3584 2966 3190 
Q 3341 2797 3341 1997 
z
" transform="scale(0.015625)"/>
       <path id="DejaVuSans-6e" d="M 3513 2113 
L 3513 0 
L 2938 0 
L 2938 2094 
Q 2938 2591 2744 2837 
Q 2550 3084 2163 3084 
Q 1697 3084 1428 2787 
Q 1159 2491 1159 1978 
L 1159 0 
L 581 0 
L 581 3500 
L 1159 3500 
L 1159 2956 
Q 1366 3272 1645 3428 
Q 1925 3584 2291 3584 
Q 2894 3584 3203 3211 
Q 3513 2838 3513 2113 
z
" transform="scale(0.015625)"/>
       <path id="DejaVuSans-29" d="M 513 4856 
L 1013 4856 
Q 1481 4119 1714 3412 
Q 1947 2706 1947 2009 
Q 1947 1309 1714 600 
Q 1481 -109 1013 -844 
L 513 -844 
Q 928 -128 1133 580 
Q 1338 1288 1338 2009 
Q 1338 2731 1133 3434 
Q 928 4138 513 4856 
z
" transform="scale(0.015625)"/>
      </defs>
      <use xlink:href="#DejaVuSans-28"/>
      <use xlink:href="#DejaVuSans-67" x="39.013672"/>
      <use xlink:href="#DejaVuSans-6d" x="102.490234"/>
      <use xlink:href="#DejaVuSans-65" x="199.902344"/>
      <use xlink:href="#DejaVuSans-61" x="261.425781"/>
      <use xlink:href="#DejaVuSans-6e" x="322.705078"/>
      <use xlink:href="#DejaVuSans-29" x="386.083984"/>
     </g>
    </g>
   </g>
   <g id="matplotlib.axis_2">
    <g id="ytick_1">
     <g id="line2d_5">
      <defs>
       <path id="mcb0ba90794" d="M 0 0 
L -3.5 0 
" style="stroke: #000000; stroke-width: 0.8"/>
      </defs>
      <g>
       <use xlink:href="#mcb0ba90794" x="58.163438" y="180.301875" style="stroke: #000000; stroke-width: 0.8"/>
      </g>
     </g>
     <g id="text_6">
      <!-- 0 -->
      <g transform="translate(44.800938 184.101094)scale(0.1 -0.1)">
       <use xlink:href="#DejaVuSans-30"/>
      </g>
     </g>
    </g>
    <g id="ytick_2">
     <g id="line2d_6">
      <g>
       <use xlink:href="#mcb0ba90794" x="58.163438" y="154.820625" style="stroke: #000000; stroke-width: 0.8"/>
      </g>
     </g>
     <g id="text_7">
      <!-- 50 -->
      <g transform="translate(38.438437 158.619844)scale(0.1 -0.1)">
       <defs>
        <path id="DejaVuSans-35" d="M 691 4666 
L 3169 4666 
L 3169 4134 
L 1269 4134 
L 1269 2991 
Q 1406 3038 1543 3061 
Q 1681 3084 1819 3084 
Q 2600 3084 3056 2656 
Q 3513 2228 3513 1497 
Q 3513 744 3044 326 
Q 2575 -91 1722 -91 
Q 1428 -91 1123 -41 
Q 819 9 494 109 
L 494 744 
Q 775 591 1075 516 
Q 1375 441 1709 441 
Q 2250 441 2565 725 
Q 2881 1009 2881 1497 
Q 2881 1984 2565 2268 
Q 2250 2553 1709 2553 
Q 1456 2553 1204 2497 
Q 953 2441 691 2322 
L 691 4666 
z
" transform="scale(0.015625)"/>
       </defs>
       <use xlink:href="#DejaVuSans-35"/>
       <use xlink:href="#DejaVuSans-30" x="63.623047"/>
      </g>
     </g>
    </g>
    <g id="ytick_3">
     <g id="line2d_7">
      <g>
       <use xlink:href="#mcb0ba90794" x="58.163438" y="129.339375" style="stroke: #000000; stroke-width: 0.8"/>
      </g>
     </g>
     <g id="text_8">
      <!-- 100 -->
      <g transform="translate(32.075937 133.138594)scale(0.1 -0.1)">
       <use xlink:href="#DejaVuSans-31"/>
       <use xlink:href="#DejaVuSans-30" x="63.623047"/>
       <use xlink:href="#DejaVuSans-30" x="127.246094"/>
      </g>
     </g>
    </g>
    <g id="ytick_4">
     <g id="line2d_8">
      <g>
       <use xlink:href="#mcb0ba90794" x="58.163438" y="103.858125" style="stroke: #000000; stroke-width: 0.8"/>
      </g>
     </g>
     <g id="text_9">
      <!-- 150 -->
      <g transform="translate(32.075937 107.657344)scale(0.1 -0.1)">
       <use xlink:href="#DejaVuSans-31"/>
       <use xlink:href="#DejaVuSans-35" x="63.623047"/>
       <use xlink:href="#DejaVuSans-30" x="127.246094"/>
      </g>
     </g>
    </g>
    <g id="ytick_5">
     <g id="line2d_9">
      <g>
       <use xlink:href="#mcb0ba90794" x="58.163438" y="78.376875" style="stroke: #000000; stroke-width: 0.8"/>
      </g>
     </g>
     <g id="text_10">
      <!-- 200 -->
      <g transform="translate(32.075937 82.176094)scale(0.1 -0.1)">
       <use xlink:href="#DejaVuSans-32"/>
       <use xlink:href="#DejaVuSans-30" x="63.623047"/>
       <use xlink:href="#DejaVuSans-30" x="127.246094"/>
      </g>
     </g>
    </g>
    <g id="ytick_6">
     <g id="line2d_10">
      <g>
       <use xlink:href="#mcb0ba90794" x="58.163438" y="52.895625" style="stroke: #000000; stroke-width: 0.8"/>
      </g>
     </g>
     <g id="text_11">
      <!-- 250 -->
      <g transform="translate(32.075937 56.694844)scale(0.1 -0.1)">
       <use xlink:href="#DejaVuSans-32"/>
       <use xlink:href="#DejaVuSans-35" x="63.623047"/>
       <use xlink:href="#DejaVuSans-30" x="127.246094"/>
      </g>
     </g>
    </g>
    <g id="ytick_7">
     <g id="line2d_11">
      <g>
       <use xlink:href="#mcb0ba90794" x="58.163438" y="27.414375" style="stroke: #000000; stroke-width: 0.8"/>
      </g>
     </g>
     <g id="text_12">
      <!-- 300 -->
      <g transform="translate(32.075937 31.213594)scale(0.1 -0.1)">
       <use xlink:href="#DejaVuSans-33"/>
       <use xlink:href="#DejaVuSans-30" x="63.623047"/>
       <use xlink:href="#DejaVuSans-30" x="127.246094"/>
      </g>
     </g>
    </g>
    <g id="text_13">
     <!-- (%) iMN yield -->
     <g transform="translate(14.798437 137.120625)rotate(-90)scale(0.1 -0.1)">
      <defs>
       <path id="DejaVuSans-25" d="M 4653 2053 
Q 4381 2053 4226 1822 
Q 4072 1591 4072 1178 
Q 4072 772 4226 539 
Q 4381 306 4653 306 
Q 4919 306 5073 539 
Q 5228 772 5228 1178 
Q 5228 1588 5073 1820 
Q 4919 2053 4653 2053 
z
M 4653 2450 
Q 5147 2450 5437 2106 
Q 5728 1763 5728 1178 
Q 5728 594 5436 251 
Q 5144 -91 4653 -91 
Q 4153 -91 3862 251 
Q 3572 594 3572 1178 
Q 3572 1766 3864 2108 
Q 4156 2450 4653 2450 
z
M 1428 4353 
Q 1159 4353 1004 4120 
Q 850 3888 850 3481 
Q 850 3069 1003 2837 
Q 1156 2606 1428 2606 
Q 1700 2606 1854 2837 
Q 2009 3069 2009 3481 
Q 2009 3884 1853 4118 
Q 1697 4353 1428 4353 
z
M 4250 4750 
L 4750 4750 
L 1831 -91 
L 1331 -91 
L 4250 4750 
z
M 1428 4750 
Q 1922 4750 2215 4408 
Q 2509 4066 2509 3481 
Q 2509 2891 2217 2550 
Q 1925 2209 1428 2209 
Q 931 2209 642 2551 
Q 353 2894 353 3481 
Q 353 4063 643 4406 
Q 934 4750 1428 4750 
z
" transform="scale(0.015625)"/>
       <path id="DejaVuSans-4d" d="M 628 4666 
L 1569 4666 
L 2759 1491 
L 3956 4666 
L 4897 4666 
L 4897 0 
L 4281 0 
L 4281 4097 
L 3078 897 
L 2444 897 
L 1241 4097 
L 1241 0 
L 628 0 
L 628 4666 
z
" transform="scale(0.015625)"/>
       <path id="DejaVuSans-4e" d="M 628 4666 
L 1478 4666 
L 3547 763 
L 3547 4666 
L 4159 4666 
L 4159 0 
L 3309 0 
L 1241 3903 
L 1241 0 
L 628 0 
L 628 4666 
z
" transform="scale(0.015625)"/>
       <path id="DejaVuSans-6c" d="M 603 4863 
L 1178 4863 
L 1178 0 
L 603 0 
L 603 4863 
z
" transform="scale(0.015625)"/>
      </defs>
      <use xlink:href="#DejaVuSans-28"/>
      <use xlink:href="#DejaVuSans-25" x="39.013672"/>
      <use xlink:href="#DejaVuSans-29" x="134.033203"/>
      <use xlink:href="#DejaVuSans-20" x="173.046875"/>
      <use xlink:href="#DejaVuSans-69" x="204.833984"/>
      <use xlink:href="#DejaVuSans-4d" x="232.617188"/>
      <use xlink:href="#DejaVuSans-4e" x="318.896484"/>
      <use xlink:href="#DejaVuSans-20" x="393.701172"/>
      <use xlink:href="#DejaVuSans-79" x="425.488281"/>
      <use xlink:href="#DejaVuSans-69" x="484.667969"/>
      <use xlink:href="#DejaVuSans-65" x="512.451172"/>
      <use xlink:href="#DejaVuSans-6c" x="573.974609"/>
      <use xlink:href="#DejaVuSans-64" x="601.757812"/>
     </g>
     <!-- per MEF plated -->
     <g transform="translate(25.99625 141.53)rotate(-90)scale(0.1 -0.1)">
      <defs>
       <path id="DejaVuSans-72" d="M 2631 2963 
Q 2534 3019 2420 3045 
Q 2306 3072 2169 3072 
Q 1681 3072 1420 2755 
Q 1159 2438 1159 1844 
L 1159 0 
L 581 0 
L 581 3500 
L 1159 3500 
L 1159 2956 
Q 1341 3275 1631 3429 
Q 1922 3584 2338 3584 
Q 2397 3584 2469 3576 
Q 2541 3569 2628 3553 
L 2631 2963 
z
" transform="scale(0.015625)"/>
       <path id="DejaVuSans-45" d="M 628 4666 
L 3578 4666 
L 3578 4134 
L 1259 4134 
L 1259 2753 
L 3481 2753 
L 3481 2222 
L 1259 2222 
L 1259 531 
L 3634 531 
L 3634 0 
L 628 0 
L 628 4666 
z
" transform="scale(0.015625)"/>
       <path id="DejaVuSans-46" d="M 628 4666 
L 3309 4666 
L 3309 4134 
L 1259 4134 
L 1259 2759 
L 3109 2759 
L 3109 2228 
L 1259 2228 
L 1259 0 
L 628 0 
L 628 4666 
z
" transform="scale(0.015625)"/>
       <path id="DejaVuSans-74" d="M 1172 4494 
L 1172 3500 
L 2356 3500 
L 2356 3053 
L 1172 3053 
L 1172 1153 
Q 1172 725 1289 603 
Q 1406 481 1766 481 
L 2356 481 
L 2356 0 
L 1766 0 
Q 1100 0 847 248 
Q 594 497 594 1153 
L 594 3053 
L 172 3053 
L 172 3500 
L 594 3500 
L 594 4494 
L 1172 4494 
z
" transform="scale(0.015625)"/>
      </defs>
      <use xlink:href="#DejaVuSans-70"/>
      <use xlink:href="#DejaVuSans-65" x="63.476562"/>
      <use xlink:href="#DejaVuSans-72" x="125"/>
      <use xlink:href="#DejaVuSans-20" x="166.113281"/>
      <use xlink:href="#DejaVuSans-4d" x="197.900391"/>
      <use xlink:href="#DejaVuSans-45" x="284.179688"/>
      <use xlink:href="#DejaVuSans-46" x="347.363281"/>
      <use xlink:href="#DejaVuSans-20" x="404.882812"/>
      <use xlink:href="#DejaVuSans-70" x="436.669922"/>
      <use xlink:href="#DejaVuSans-6c" x="500.146484"/>
      <use xlink:href="#DejaVuSans-61" x="527.929688"/>
      <use xlink:href="#DejaVuSans-74" x="589.208984"/>
      <use xlink:href="#DejaVuSans-65" x="628.417969"/>
      <use xlink:href="#DejaVuSans-64" x="689.941406"/>
     </g>
    </g>
   </g>
   <g id="line2d_12">
    <path d="M 118.30423 105.374928 
L 118.684539 105.31058 
L 119.064848 105.246232 
L 119.445157 105.181884 
L 119.825466 105.117536 
L 120.205775 105.053187 
L 120.586084 104.988839 
L 120.966393 104.924491 
L 121.346702 104.860143 
L 121.727011 104.795795 
L 122.10732 104.731447 
L 122.48763 104.667098 
L 122.867939 104.60275 
L 123.248248 104.538402 
L 123.628557 104.474054 
L 124.008866 104.409706 
L 124.389175 104.345358 
L 124.769484 104.28101 
L 125.149793 104.216661 
L 125.530102 104.152313 
L 125.910411 104.087965 
L 126.29072 104.023617 
L 126.671029 103.959269 
L 127.051338 103.894921 
L 127.431647 103.830572 
L 127.811957 103.766224 
L 128.192266 103.701876 
L 128.572575 103.637528 
L 128.952884 103.57318 
L 129.333193 103.508832 
L 129.713502 103.444484 
L 130.093811 103.380135 
L 130.47412 103.315787 
L 130.854429 103.251439 
L 131.234738 103.187091 
L 131.615047 103.122743 
L 131.995356 103.058395 
L 132.375665 102.994046 
L 132.755974 102.929698 
L 133.136284 102.86535 
L 133.516593 102.801002 
L 133.896902 102.736654 
L 134.277211 102.672306 
L 134.65752 102.607958 
L 135.037829 102.543609 
L 135.418138 102.479261 
L 135.798447 102.414913 
L 136.178756 102.350565 
L 136.559065 102.286217 
L 136.939374 102.221869 
L 137.319683 102.157521 
L 137.699992 102.093172 
L 138.080301 102.028824 
L 138.460611 101.964476 
L 138.84092 101.900128 
L 139.221229 101.83578 
L 139.601538 101.771432 
L 139.981847 101.707083 
L 140.362156 101.642735 
L 140.742465 101.578387 
L 141.122774 101.514039 
L 141.503083 101.449691 
L 141.883392 101.385343 
L 142.263701 101.320995 
L 142.64401 101.256646 
L 143.024319 101.192298 
L 143.404628 101.12795 
L 143.784938 101.063602 
L 144.165247 100.999254 
L 144.545556 100.934906 
L 144.925865 100.870557 
L 145.306174 100.806209 
L 145.686483 100.741861 
L 146.066792 100.677513 
L 146.447101 100.613165 
L 146.82741 100.548817 
L 147.207719 100.484469 
L 147.588028 100.42012 
L 147.968337 100.355772 
L 148.348646 100.291424 
L 148.728955 100.227076 
L 149.109265 100.162728 
L 149.489574 100.09838 
L 149.869883 100.034031 
L 150.250192 99.969683 
L 150.630501 99.905335 
L 151.01081 99.840987 
L 151.391119 99.776639 
L 151.771428 99.712291 
L 152.151737 99.647943 
L 152.532046 99.583594 
L 152.912355 99.519246 
L 153.292664 99.454898 
L 153.672973 99.39055 
L 154.053282 99.326202 
L 154.433592 99.261854 
L 154.813901 99.197505 
L 155.19421 99.133157 
L 155.574519 99.068809 
L 155.954828 99.004461 
" clip-path="url(#pcd9b9c7465)" style="fill: none; stroke: #1f77b4; stroke-width: 2.25; stroke-linecap: square"/>
   </g>
   <g id="line2d_13">
    <path d="M 100.317476 119.820456 
L 100.505653 119.686123 
L 100.693831 119.551791 
L 100.882008 119.417459 
L 101.070186 119.283127 
L 101.258364 119.148795 
L 101.446541 119.014462 
L 101.634719 118.88013 
L 101.822896 118.745798 
L 102.011074 118.611466 
L 102.199251 118.477133 
L 102.387429 118.342801 
L 102.575606 118.208469 
L 102.763784 118.074137 
L 102.951961 117.939804 
L 103.140139 117.805472 
L 103.328316 117.67114 
L 103.516494 117.536808 
L 103.704671 117.402476 
L 103.892849 117.268143 
L 104.081027 117.133811 
L 104.269204 116.999479 
L 104.457382 116.865147 
L 104.645559 116.730814 
L 104.833737 116.596482 
L 105.021914 116.46215 
L 105.210092 116.327818 
L 105.398269 116.193486 
L 105.586447 116.059153 
L 105.774624 115.924821 
L 105.962802 115.790489 
L 106.150979 115.656157 
L 106.339157 115.521824 
L 106.527334 115.387492 
L 106.715512 115.25316 
L 106.90369 115.118828 
L 107.091867 114.984495 
L 107.280045 114.850163 
L 107.468222 114.715831 
L 107.6564 114.581499 
L 107.844577 114.447167 
L 108.032755 114.312834 
L 108.220932 114.178502 
L 108.40911 114.04417 
L 108.597287 113.909838 
L 108.785465 113.775505 
L 108.973642 113.641173 
L 109.16182 113.506841 
L 109.349997 113.372509 
L 109.538175 113.238177 
L 109.726352 113.103844 
L 109.91453 112.969512 
L 110.102708 112.83518 
L 110.290885 112.700848 
L 110.479063 112.566515 
L 110.66724 112.432183 
L 110.855418 112.297851 
L 111.043595 112.163519 
L 111.231773 112.029186 
L 111.41995 111.894854 
L 111.608128 111.760522 
L 111.796305 111.62619 
L 111.984483 111.491858 
L 112.17266 111.357525 
L 112.360838 111.223193 
L 112.549015 111.088861 
L 112.737193 110.954529 
L 112.925371 110.820196 
L 113.113548 110.685864 
L 113.301726 110.551532 
L 113.489903 110.4172 
L 113.678081 110.282868 
L 113.866258 110.148535 
L 114.054436 110.014203 
L 114.242613 109.879871 
L 114.430791 109.745539 
L 114.618968 109.611206 
L 114.807146 109.476874 
L 114.995323 109.342542 
L 115.183501 109.20821 
L 115.371678 109.073877 
L 115.559856 108.939545 
L 115.748034 108.805213 
L 115.936211 108.670881 
L 116.124389 108.536549 
L 116.312566 108.402216 
L 116.500744 108.267884 
L 116.688921 108.133552 
L 116.877099 107.99922 
L 117.065276 107.864887 
L 117.253454 107.730555 
L 117.441631 107.596223 
L 117.629809 107.461891 
L 117.817986 107.327559 
L 118.006164 107.193226 
L 118.194341 107.058894 
L 118.382519 106.924562 
L 118.570696 106.79023 
L 118.758874 106.655897 
L 118.947052 106.521565 
" clip-path="url(#pcd9b9c7465)" style="fill: none; stroke: #ff7f0e; stroke-width: 2.25; stroke-linecap: square"/>
   </g>
   <g id="line2d_14">
    <path d="M 173.31548 90.587997 
L 173.700834 90.394991 
L 174.086188 90.201985 
L 174.471543 90.008979 
L 174.856897 89.815973 
L 175.242251 89.622967 
L 175.627605 89.42996 
L 176.012959 89.236954 
L 176.398313 89.043948 
L 176.783668 88.850942 
L 177.169022 88.657936 
L 177.554376 88.46493 
L 177.93973 88.271924 
L 178.325084 88.078917 
L 178.710438 87.885911 
L 179.095792 87.692905 
L 179.481147 87.499899 
L 179.866501 87.306893 
L 180.251855 87.113887 
L 180.637209 86.92088 
L 181.022563 86.727874 
L 181.407917 86.534868 
L 181.793272 86.341862 
L 182.178626 86.148856 
L 182.56398 85.95585 
L 182.949334 85.762843 
L 183.334688 85.569837 
L 183.720042 85.376831 
L 184.105396 85.183825 
L 184.490751 84.990819 
L 184.876105 84.797813 
L 185.261459 84.604807 
L 185.646813 84.4118 
L 186.032167 84.218794 
L 186.417521 84.025788 
L 186.802876 83.832782 
L 187.18823 83.639776 
L 187.573584 83.44677 
L 187.958938 83.253763 
L 188.344292 83.060757 
L 188.729646 82.867751 
L 189.115001 82.674745 
L 189.500355 82.481739 
L 189.885709 82.288733 
L 190.271063 82.095726 
L 190.656417 81.90272 
L 191.041771 81.709714 
L 191.427125 81.516708 
L 191.81248 81.323702 
L 192.197834 81.130696 
L 192.583188 80.937689 
L 192.968542 80.744683 
L 193.353896 80.551677 
L 193.73925 80.358671 
L 194.124605 80.165665 
L 194.509959 79.972659 
L 194.895313 79.779653 
L 195.280667 79.586646 
L 195.666021 79.39364 
L 196.051375 79.200634 
L 196.436729 79.007628 
L 196.822084 78.814622 
L 197.207438 78.621616 
L 197.592792 78.428609 
L 197.978146 78.235603 
L 198.3635 78.042597 
L 198.748854 77.849591 
L 199.134209 77.656585 
L 199.519563 77.463579 
L 199.904917 77.270572 
L 200.290271 77.077566 
L 200.675625 76.88456 
L 201.060979 76.691554 
L 201.446333 76.498548 
L 201.831688 76.305542 
L 202.217042 76.112535 
L 202.602396 75.919529 
L 202.98775 75.726523 
L 203.373104 75.533517 
L 203.758458 75.340511 
L 204.143813 75.147505 
L 204.529167 74.954499 
L 204.914521 74.761492 
L 205.299875 74.568486 
L 205.685229 74.37548 
L 206.070583 74.182474 
L 206.455938 73.989468 
L 206.841292 73.796462 
L 207.226646 73.603455 
L 207.612 73.410449 
L 207.997354 73.217443 
L 208.382708 73.024437 
L 208.768062 72.831431 
L 209.153417 72.638425 
L 209.538771 72.445418 
L 209.924125 72.252412 
L 210.309479 72.059406 
L 210.694833 71.8664 
L 211.080187 71.673394 
L 211.465542 71.480388 
" clip-path="url(#pcd9b9c7465)" style="fill: none; stroke: #2ca02c; stroke-width: 2.25; stroke-linecap: square"/>
   </g>
   <g id="line2d_15">
    <path d="M 94.698142 105.500749 
L 95.537062 104.957529 
L 96.375981 104.414309 
L 97.214901 103.871088 
L 98.05382 103.327868 
L 98.89274 102.784648 
L 99.731659 102.241427 
L 100.570578 101.698207 
L 101.409498 101.154987 
L 102.248417 100.611767 
L 103.087337 100.068546 
L 103.926256 99.525326 
L 104.765176 98.982106 
L 105.604095 98.438886 
L 106.443014 97.895665 
L 107.281934 97.352445 
L 108.120853 96.809225 
L 108.959773 96.266005 
L 109.798692 95.722784 
L 110.637611 95.179564 
L 111.476531 94.636344 
L 112.31545 94.093124 
L 113.15437 93.549903 
L 113.993289 93.006683 
L 114.832209 92.463463 
L 115.671128 91.920243 
L 116.510047 91.377022 
L 117.348967 90.833802 
L 118.187886 90.290582 
L 119.026806 89.747362 
L 119.865725 89.204141 
L 120.704645 88.660921 
L 121.543564 88.117701 
L 122.382483 87.574481 
L 123.221403 87.03126 
L 124.060322 86.48804 
L 124.899242 85.94482 
L 125.738161 85.4016 
L 126.57708 84.858379 
L 127.416 84.315159 
L 128.254919 83.771939 
L 129.093839 83.228719 
L 129.932758 82.685498 
L 130.771678 82.142278 
L 131.610597 81.599058 
L 132.449516 81.055838 
L 133.288436 80.512617 
L 134.127355 79.969397 
L 134.966275 79.426177 
L 135.805194 78.882957 
L 136.644114 78.339736 
L 137.483033 77.796516 
L 138.321952 77.253296 
L 139.160872 76.710076 
L 139.999791 76.166855 
L 140.838711 75.623635 
L 141.67763 75.080415 
L 142.516549 74.537195 
L 143.355469 73.993974 
L 144.194388 73.450754 
L 145.033308 72.907534 
L 145.872227 72.364314 
L 146.711147 71.821093 
L 147.550066 71.277873 
L 148.388985 70.734653 
L 149.227905 70.191433 
L 150.066824 69.648212 
L 150.905744 69.104992 
L 151.744663 68.561772 
L 152.583582 68.018552 
L 153.422502 67.475331 
L 154.261421 66.932111 
L 155.100341 66.388891 
L 155.93926 65.845671 
L 156.77818 65.30245 
L 157.617099 64.75923 
L 158.456018 64.21601 
L 159.294938 63.67279 
L 160.133857 63.129569 
L 160.972777 62.586349 
L 161.811696 62.043129 
L 162.650616 61.499909 
L 163.489535 60.956688 
L 164.328454 60.413468 
L 165.167374 59.870248 
L 166.006293 59.327028 
L 166.845213 58.783807 
L 167.684132 58.240587 
L 168.523051 57.697367 
L 169.361971 57.154147 
L 170.20089 56.610926 
L 171.03981 56.067706 
L 171.878729 55.524486 
L 172.717649 54.981266 
L 173.556568 54.438045 
L 174.395487 53.894825 
L 175.234407 53.351605 
L 176.073326 52.808385 
L 176.912246 52.265164 
L 177.751165 51.721944 
" clip-path="url(#pcd9b9c7465)" style="fill: none; stroke: #d62728; stroke-width: 2.25; stroke-linecap: square"/>
   </g>
   <g id="patch_3">
    <path d="M 58.163438 185.398125 
L 58.163438 22.318125 
" style="fill: none; stroke: #000000; stroke-width: 0.8; stroke-linejoin: miter; stroke-linecap: square"/>
   </g>
   <g id="patch_4">
    <path d="M 225.563438 185.398125 
L 225.563438 22.318125 
" style="fill: none; stroke: #000000; stroke-width: 0.8; stroke-linejoin: miter; stroke-linecap: square"/>
   </g>
   <g id="patch_5">
    <path d="M 58.163438 185.398125 
L 225.563438 185.398125 
" style="fill: none; stroke: #000000; stroke-width: 0.8; stroke-linejoin: miter; stroke-linecap: square"/>
   </g>
   <g id="patch_6">
    <path d="M 58.163438 22.318125 
L 225.563438 22.318125 
" style="fill: none; stroke: #000000; stroke-width: 0.8; stroke-linejoin: miter; stroke-linecap: square"/>
   </g>
   <g id="text_14">
    <!-- No -->
    <g transform="translate(74.903438 166.046312)scale(0.1 -0.1)">
     <defs>
      <path id="DejaVuSans-6f" d="M 1959 3097 
Q 1497 3097 1228 2736 
Q 959 2375 959 1747 
Q 959 1119 1226 758 
Q 1494 397 1959 397 
Q 2419 397 2687 759 
Q 2956 1122 2956 1747 
Q 2956 2369 2687 2733 
Q 2419 3097 1959 3097 
z
M 1959 3584 
Q 2709 3584 3137 3096 
Q 3566 2609 3566 1747 
Q 3566 888 3137 398 
Q 2709 -91 1959 -91 
Q 1206 -91 779 398 
Q 353 888 353 1747 
Q 353 2609 779 3096 
Q 1206 3584 1959 3584 
z
" transform="scale(0.015625)"/>
     </defs>
     <use xlink:href="#DejaVuSans-4e"/>
     <use xlink:href="#DejaVuSans-6f" x="74.804688"/>
    </g>
    <!-- Ngn2x3HA -->
    <g transform="translate(74.903438 177.244125)scale(0.1 -0.1)">
     <defs>
      <path id="DejaVuSans-78" d="M 3513 3500 
L 2247 1797 
L 3578 0 
L 2900 0 
L 1881 1375 
L 863 0 
L 184 0 
L 1544 1831 
L 300 3500 
L 978 3500 
L 1906 2253 
L 2834 3500 
L 3513 3500 
z
" transform="scale(0.015625)"/>
      <path id="DejaVuSans-48" d="M 628 4666 
L 1259 4666 
L 1259 2753 
L 3553 2753 
L 3553 4666 
L 4184 4666 
L 4184 0 
L 3553 0 
L 3553 2222 
L 1259 2222 
L 1259 0 
L 628 0 
L 628 4666 
z
" transform="scale(0.015625)"/>
      <path id="DejaVuSans-41" d="M 2188 4044 
L 1331 1722 
L 3047 1722 
L 2188 4044 
z
M 1831 4666 
L 2547 4666 
L 4325 0 
L 3669 0 
L 3244 1197 
L 1141 1197 
L 716 0 
L 50 0 
L 1831 4666 
z
" transform="scale(0.015625)"/>
     </defs>
     <use xlink:href="#DejaVuSans-4e"/>
     <use xlink:href="#DejaVuSans-67" x="74.804688"/>
     <use xlink:href="#DejaVuSans-6e" x="138.28125"/>
     <use xlink:href="#DejaVuSans-32" x="201.660156"/>
     <use xlink:href="#DejaVuSans-78" x="265.283203"/>
     <use xlink:href="#DejaVuSans-33" x="324.462891"/>
     <use xlink:href="#DejaVuSans-48" x="388.085938"/>
     <use xlink:href="#DejaVuSans-41" x="463.28125"/>
    </g>
   </g>
   <g id="text_15">
    <!-- Ngn2x3HA -->
    <g transform="translate(109.960313 16.318125)scale(0.12 -0.12)">
     <use xlink:href="#DejaVuSans-4e"/>
     <use xlink:href="#DejaVuSans-67" x="74.804688"/>
     <use xlink:href="#DejaVuSans-6e" x="138.28125"/>
     <use xlink:href="#DejaVuSans-32" x="201.660156"/>
     <use xlink:href="#DejaVuSans-78" x="265.283203"/>
     <use xlink:href="#DejaVuSans-33" x="324.462891"/>
     <use xlink:href="#DejaVuSans-48" x="388.085938"/>
     <use xlink:href="#DejaVuSans-41" x="463.28125"/>
    </g>
   </g>
   <g id="legend_1">
    <g id="PathCollection_9">
     <g>
      <use xlink:href="#m16738b18b2" x="244.563438" y="36.291562" style="fill: #1f77b4; fill-opacity: 0.8; stroke: #1f77b4; stroke-opacity: 0.8"/>
     </g>
    </g>
    <g id="text_16">
     <!-- 0 -->
     <g transform="translate(262.563438 38.916562)scale(0.1 -0.1)">
      <use xlink:href="#DejaVuSans-30"/>
     </g>
    </g>
    <g id="PathCollection_10">
     <g>
      <use xlink:href="#m6083a25b32" x="244.563438" y="50.969687" style="fill: #ff7f0e; fill-opacity: 0.8; stroke: #ff7f0e; stroke-opacity: 0.8"/>
     </g>
    </g>
    <g id="text_17">
     <!-- 1 -->
     <g transform="translate(262.563438 53.594687)scale(0.1 -0.1)">
      <use xlink:href="#DejaVuSans-31"/>
     </g>
    </g>
    <g id="PathCollection_11">
     <g>
      <use xlink:href="#ma85361b5ea" x="244.563438" y="65.647812" style="fill: #2ca02c; fill-opacity: 0.8; stroke: #2ca02c; stroke-opacity: 0.8"/>
     </g>
    </g>
    <g id="text_18">
     <!-- 2 -->
     <g transform="translate(262.563438 68.272812)scale(0.1 -0.1)">
      <use xlink:href="#DejaVuSans-32"/>
     </g>
    </g>
    <g id="PathCollection_12">
     <g>
      <use xlink:href="#m08aa0a808b" x="244.563438" y="80.325938" style="fill: #d62728; fill-opacity: 0.8; stroke: #d62728; stroke-opacity: 0.8"/>
     </g>
    </g>
    <g id="text_19">
     <!-- 3 -->
     <g transform="translate(262.563438 82.950938)scale(0.1 -0.1)">
      <use xlink:href="#DejaVuSans-33"/>
     </g>
    </g>
   </g>
  </g>
 </g>
 <defs>
  <clipPath id="pcd9b9c7465">
   <rect x="58.163438" y="22.318125" width="167.4" height="163.08"/>
  </clipPath>
 </defs>
</svg>
