<?xml version="1.0" encoding="utf-8" standalone="no"?>
<!DOCTYPE svg PUBLIC "-//W3C//DTD SVG 1.1//EN"
  "http://www.w3.org/Graphics/SVG/1.1/DTD/svg11.dtd">
<svg xmlns:xlink="http://www.w3.org/1999/xlink" width="226.400937pt" height="234.152188pt" viewBox="0 0 226.400937 234.152188" xmlns="http://www.w3.org/2000/svg" version="1.1">
 <metadata>
  <rdf:RDF xmlns:dc="http://purl.org/dc/elements/1.1/" xmlns:cc="http://creativecommons.org/ns#" xmlns:rdf="http://www.w3.org/1999/02/22-rdf-syntax-ns#">
   <cc:Work>
    <dc:type rdf:resource="http://purl.org/dc/dcmitype/StillImage"/>
    <dc:date>2025-01-26T16:01:17.719601</dc:date>
    <dc:format>image/svg+xml</dc:format>
    <dc:creator>
     <cc:Agent>
      <dc:title>Matplotlib v3.5.2, https://matplotlib.org/</dc:title>
     </cc:Agent>
    </dc:creator>
   </cc:Work>
  </rdf:RDF>
 </metadata>
 <defs>
  <style type="text/css">*{stroke-linejoin: round; stroke-linecap: butt}</style>
 </defs>
 <g id="figure_1">
  <g id="patch_1">
   <path d="M 0 234.152188 
L 226.400937 234.152188 
L 226.400937 -0 
L 0 -0 
L 0 234.152188 
z
" style="fill: none"/>
  </g>
  <g id="axes_1">
   <g id="patch_2">
    <path d="M 51.800938 185.398125 
L 219.200938 185.398125 
L 219.200938 22.318125 
L 51.800938 22.318125 
z
" style="fill: #ffffff"/>
   </g>
   <g id="PathCollection_1">
    <defs>
     <path id="m0f5e9869e5" d="M 0 3 
C 0.795609 3 1.55874 2.683901 2.12132 2.12132 
C 2.683901 1.55874 3 0.795609 3 0 
C 3 -0.795609 2.683901 -1.55874 2.12132 -2.12132 
C 1.55874 -2.683901 0.795609 -3 0 -3 
C -0.795609 -3 -1.55874 -2.683901 -2.12132 -2.12132 
C -2.683901 -1.55874 -3 -0.795609 -3 0 
C -3 0.795609 -2.683901 1.55874 -2.12132 2.12132 
C -1.55874 2.683901 -0.795609 3 0 3 
z
" style="stroke: #498ac6; stroke-opacity: 0.8"/>
    </defs>
    <g clip-path="url(#pa8a6bc97c2)">
     <use xlink:href="#m0f5e9869e5" x="151.245767" y="101.644033" style="fill: #498ac6; fill-opacity: 0.8; stroke: #498ac6; stroke-opacity: 0.8"/>
     <use xlink:href="#m0f5e9869e5" x="124.734899" y="83.201881" style="fill: #498ac6; fill-opacity: 0.8; stroke: #498ac6; stroke-opacity: 0.8"/>
     <use xlink:href="#m0f5e9869e5" x="114.31704" y="104.604269" style="fill: #498ac6; fill-opacity: 0.8; stroke: #498ac6; stroke-opacity: 0.8"/>
     <use xlink:href="#m0f5e9869e5" x="123.622059" y="125.316303" style="fill: #498ac6; fill-opacity: 0.8; stroke: #498ac6; stroke-opacity: 0.8"/>
     <use xlink:href="#m0f5e9869e5" x="112.77764" y="62.45055" style="fill: #498ac6; fill-opacity: 0.8; stroke: #498ac6; stroke-opacity: 0.8"/>
     <use xlink:href="#m0f5e9869e5" x="96.69469" y="44.253832" style="fill: #498ac6; fill-opacity: 0.8; stroke: #498ac6; stroke-opacity: 0.8"/>
     <use xlink:href="#m0f5e9869e5" x="102.169232" y="91.719878" style="fill: #498ac6; fill-opacity: 0.8; stroke: #498ac6; stroke-opacity: 0.8"/>
     <use xlink:href="#m0f5e9869e5" x="106.695463" y="98.612371" style="fill: #498ac6; fill-opacity: 0.8; stroke: #498ac6; stroke-opacity: 0.8"/>
     <use xlink:href="#m0f5e9869e5" x="144.807867" y="103.913222" style="fill: #498ac6; fill-opacity: 0.8; stroke: #498ac6; stroke-opacity: 0.8"/>
     <use xlink:href="#m0f5e9869e5" x="129.432548" y="96.329891" style="fill: #498ac6; fill-opacity: 0.8; stroke: #498ac6; stroke-opacity: 0.8"/>
     <use xlink:href="#m0f5e9869e5" x="147.543979" y="115.025081" style="fill: #498ac6; fill-opacity: 0.8; stroke: #498ac6; stroke-opacity: 0.8"/>
     <use xlink:href="#m0f5e9869e5" x="155.392509" y="133.477937" style="fill: #498ac6; fill-opacity: 0.8; stroke: #498ac6; stroke-opacity: 0.8"/>
     <use xlink:href="#m0f5e9869e5" x="147.046446" y="95.463852" style="fill: #498ac6; fill-opacity: 0.8; stroke: #498ac6; stroke-opacity: 0.8"/>
     <use xlink:href="#m0f5e9869e5" x="129.498521" y="86.007821" style="fill: #498ac6; fill-opacity: 0.8; stroke: #498ac6; stroke-opacity: 0.8"/>
     <use xlink:href="#m0f5e9869e5" x="185.152051" y="124.761278" style="fill: #498ac6; fill-opacity: 0.8; stroke: #498ac6; stroke-opacity: 0.8"/>
     <use xlink:href="#m0f5e9869e5" x="199.120181" y="144.010432" style="fill: #498ac6; fill-opacity: 0.8; stroke: #498ac6; stroke-opacity: 0.8"/>
     <use xlink:href="#m0f5e9869e5" x="134.538071" y="92.777828" style="fill: #498ac6; fill-opacity: 0.8; stroke: #498ac6; stroke-opacity: 0.8"/>
     <use xlink:href="#m0f5e9869e5" x="109.577077" y="80.468624" style="fill: #498ac6; fill-opacity: 0.8; stroke: #498ac6; stroke-opacity: 0.8"/>
     <use xlink:href="#m0f5e9869e5" x="121.449491" y="111.532591" style="fill: #498ac6; fill-opacity: 0.8; stroke: #498ac6; stroke-opacity: 0.8"/>
     <use xlink:href="#m0f5e9869e5" x="136.874117" y="125.534059" style="fill: #498ac6; fill-opacity: 0.8; stroke: #498ac6; stroke-opacity: 0.8"/>
     <use xlink:href="#m0f5e9869e5" x="152.402475" y="104.255379" style="fill: #498ac6; fill-opacity: 0.8; stroke: #498ac6; stroke-opacity: 0.8"/>
     <use xlink:href="#m0f5e9869e5" x="133.522091" y="113.026104" style="fill: #498ac6; fill-opacity: 0.8; stroke: #498ac6; stroke-opacity: 0.8"/>
     <use xlink:href="#m0f5e9869e5" x="102.729672" y="128.999523" style="fill: #498ac6; fill-opacity: 0.8; stroke: #498ac6; stroke-opacity: 0.8"/>
     <use xlink:href="#m0f5e9869e5" x="106.586887" y="145.155924" style="fill: #498ac6; fill-opacity: 0.8; stroke: #498ac6; stroke-opacity: 0.8"/>
    </g>
   </g>
   <g id="PolyCollection_1">
    <path d="M 96.69469 70.094423 
L 96.69469 109.867372 
L 97.729291 109.996036 
L 98.763892 110.125921 
L 99.798493 110.274312 
L 100.833094 110.365205 
L 101.867695 110.335298 
L 102.902296 110.305392 
L 103.936897 110.357071 
L 104.971498 110.432068 
L 106.006098 110.50406 
L 107.040699 110.563095 
L 108.0753 110.657057 
L 109.109901 110.701407 
L 110.144502 110.813981 
L 111.179103 110.89427 
L 112.213704 110.91494 
L 113.248305 111.043623 
L 114.282906 111.122332 
L 115.317507 111.15312 
L 116.352108 111.115823 
L 117.386709 111.16536 
L 118.421309 111.287279 
L 119.45591 111.410957 
L 120.490511 111.58545 
L 121.525112 111.66455 
L 122.559713 111.772484 
L 123.594314 112.07972 
L 124.628915 112.109783 
L 125.663516 112.170128 
L 126.698117 112.293666 
L 127.732718 112.489286 
L 128.767319 112.684907 
L 129.80192 112.880528 
L 130.836521 113.095792 
L 131.871121 113.328188 
L 132.905722 113.544641 
L 133.940323 113.785013 
L 134.974924 114.014511 
L 136.009525 114.239141 
L 137.044126 114.484026 
L 138.078727 114.753532 
L 139.113328 114.978886 
L 140.147929 115.27023 
L 141.18253 115.778607 
L 142.217131 115.998429 
L 143.251732 116.360263 
L 144.286332 116.675915 
L 145.320933 117.16255 
L 146.355534 117.608352 
L 147.390135 117.906616 
L 148.424736 118.183486 
L 149.459337 118.744673 
L 150.493938 119.243107 
L 151.528539 119.619236 
L 152.56314 120.128267 
L 153.597741 120.596977 
L 154.632342 121.141507 
L 155.666943 121.685985 
L 156.701544 122.234818 
L 157.736144 122.921278 
L 158.770745 123.75015 
L 159.805346 124.576058 
L 160.839947 125.343699 
L 161.874548 125.87063 
L 162.909149 126.629774 
L 163.94375 127.390057 
L 164.978351 128.155008 
L 166.012952 128.967115 
L 167.047553 129.795902 
L 168.082154 130.623379 
L 169.116755 131.39623 
L 170.151355 132.263494 
L 171.185956 133.110313 
L 172.220557 133.847884 
L 173.255158 134.57551 
L 174.289759 135.39777 
L 175.32436 136.217093 
L 176.358961 137.001683 
L 177.393562 137.70525 
L 178.428163 138.408256 
L 179.462764 139.111262 
L 180.497365 139.824223 
L 181.531966 140.615534 
L 182.566567 141.385959 
L 183.601167 142.065988 
L 184.635768 142.862628 
L 185.670369 143.665024 
L 186.70497 144.352858 
L 187.739571 145.134779 
L 188.774172 145.872992 
L 189.808773 146.696128 
L 190.843374 147.642028 
L 191.877975 148.572317 
L 192.912576 149.339303 
L 193.947177 150.00953 
L 194.981778 150.682069 
L 196.016378 151.537407 
L 197.050979 152.275148 
L 198.08558 153.148147 
L 199.120181 153.939742 
L 199.120181 109.172432 
L 199.120181 109.172432 
L 198.08558 109.187379 
L 197.050979 109.202327 
L 196.016378 109.217274 
L 194.981778 109.233044 
L 193.947177 109.249756 
L 192.912576 109.266469 
L 191.877975 109.283181 
L 190.843374 109.277719 
L 189.808773 109.173616 
L 188.774172 109.037092 
L 187.739571 108.890334 
L 186.70497 108.784647 
L 185.670369 108.752207 
L 184.635768 108.645473 
L 183.601167 108.54236 
L 182.566567 108.557841 
L 181.531966 108.594052 
L 180.497365 108.630263 
L 179.462764 108.666474 
L 178.428163 108.702685 
L 177.393562 108.74294 
L 176.358961 108.720453 
L 175.32436 108.628938 
L 174.289759 108.537424 
L 173.255158 108.349915 
L 172.220557 108.275401 
L 171.185956 108.112959 
L 170.151355 108.066059 
L 169.116755 108.061586 
L 168.082154 107.964542 
L 167.047553 107.874083 
L 166.012952 107.82561 
L 164.978351 107.828615 
L 163.94375 107.699114 
L 162.909149 107.495595 
L 161.874548 107.397455 
L 160.839947 107.304187 
L 159.805346 107.116321 
L 158.770745 107.111314 
L 157.736144 106.961959 
L 156.701544 106.924474 
L 155.666943 106.912737 
L 154.632342 106.7142 
L 153.597741 106.381436 
L 152.56314 106.140889 
L 151.528539 105.958159 
L 150.493938 105.585712 
L 149.459337 105.249903 
L 148.424736 104.957462 
L 147.390135 104.539923 
L 146.355534 104.262259 
L 145.320933 103.834445 
L 144.286332 103.296016 
L 143.251732 102.645171 
L 142.217131 102.185564 
L 141.18253 101.528574 
L 140.147929 100.93871 
L 139.113328 100.277602 
L 138.078727 99.617895 
L 137.044126 99.169446 
L 136.009525 98.571218 
L 134.974924 97.978785 
L 133.940323 97.198938 
L 132.905722 96.406927 
L 131.871121 95.848364 
L 130.836521 94.988738 
L 129.80192 94.32763 
L 128.767319 93.666522 
L 127.732718 93.005414 
L 126.698117 92.276687 
L 125.663516 91.487378 
L 124.628915 90.723362 
L 123.594314 89.958365 
L 122.559713 89.123483 
L 121.525112 88.392754 
L 120.490511 87.62984 
L 119.45591 86.752854 
L 118.421309 85.993574 
L 117.386709 85.176471 
L 116.352108 84.361825 
L 115.317507 83.579334 
L 114.282906 82.870934 
L 113.248305 82.163487 
L 112.213704 81.457332 
L 111.179103 80.751177 
L 110.144502 80.025593 
L 109.109901 79.262768 
L 108.0753 78.480572 
L 107.040699 77.579964 
L 106.006098 76.82623 
L 104.971498 75.971541 
L 103.936897 75.16717 
L 102.902296 74.463784 
L 101.867695 73.760397 
L 100.833094 73.059539 
L 99.798493 72.359423 
L 98.763892 71.620083 
L 97.729291 70.857253 
L 96.69469 70.094423 
z
" clip-path="url(#pa8a6bc97c2)" style="fill: #498ac6; fill-opacity: 0.15"/>
   </g>
   <g id="PathCollection_2">
    <defs>
     <path id="mb65cf1a351" d="M 0 3.162278 
C 0.838646 3.162278 1.643056 2.82908 2.236068 2.236068 
C 2.82908 1.643056 3.162278 0.838646 3.162278 0 
C 3.162278 -0.838646 2.82908 -1.643056 2.236068 -2.236068 
C 1.643056 -2.82908 0.838646 -3.162278 0 -3.162278 
C -0.838646 -3.162278 -1.643056 -2.82908 -2.236068 -2.236068 
C -2.82908 -1.643056 -3.162278 -0.838646 -3.162278 0 
C -3.162278 0.838646 -2.82908 1.643056 -2.236068 2.236068 
C -1.643056 2.82908 -0.838646 3.162278 0 3.162278 
z
" style="stroke: #498ac6; stroke-width: 2"/>
    </defs>
    <g clip-path="url(#pa8a6bc97c2)">
     <use xlink:href="#mb65cf1a351" x="61.454768" y="164.665356" style="fill: #ffffff; stroke: #498ac6; stroke-width: 2"/>
     <use xlink:href="#mb65cf1a351" x="59.565152" y="169.375211" style="fill: #ffffff; stroke: #498ac6; stroke-width: 2"/>
     <use xlink:href="#mb65cf1a351" x="61.989767" y="166.785257" style="fill: #ffffff; stroke: #498ac6; stroke-width: 2"/>
     <use xlink:href="#mb65cf1a351" x="62.322352" y="173.480047" style="fill: #ffffff; stroke: #498ac6; stroke-width: 2"/>
    </g>
   </g>
   <g id="matplotlib.axis_1">
    <g id="xtick_1">
     <g id="line2d_1">
      <defs>
       <path id="m086d68df52" d="M 0 0 
L 0 3.5 
" style="stroke: #000000; stroke-width: 0.8"/>
      </defs>
      <g>
       <use xlink:href="#m086d68df52" x="52.740379" y="185.398125" style="stroke: #000000; stroke-width: 0.8"/>
      </g>
     </g>
     <g id="text_1">
      <!-- 0 -->
      <g transform="translate(49.559129 199.996563)scale(0.1 -0.1)">
       <defs>
        <path id="DejaVuSans-30" d="M 2034 4250 
Q 1547 4250 1301 3770 
Q 1056 3291 1056 2328 
Q 1056 1369 1301 889 
Q 1547 409 2034 409 
Q 2525 409 2770 889 
Q 3016 1369 3016 2328 
Q 3016 3291 2770 3770 
Q 2525 4250 2034 4250 
z
M 2034 4750 
Q 2819 4750 3233 4129 
Q 3647 3509 3647 2328 
Q 3647 1150 3233 529 
Q 2819 -91 2034 -91 
Q 1250 -91 836 529 
Q 422 1150 422 2328 
Q 422 3509 836 4129 
Q 1250 4750 2034 4750 
z
" transform="scale(0.015625)"/>
       </defs>
       <use xlink:href="#DejaVuSans-30"/>
      </g>
     </g>
    </g>
    <g id="xtick_2">
     <g id="line2d_2">
      <g>
       <use xlink:href="#m086d68df52" x="103.938279" y="185.398125" style="stroke: #000000; stroke-width: 0.8"/>
      </g>
     </g>
     <g id="text_2">
      <!-- 1000 -->
      <g transform="translate(91.213279 199.996563)scale(0.1 -0.1)">
       <defs>
        <path id="DejaVuSans-31" d="M 794 531 
L 1825 531 
L 1825 4091 
L 703 3866 
L 703 4441 
L 1819 4666 
L 2450 4666 
L 2450 531 
L 3481 531 
L 3481 0 
L 794 0 
L 794 531 
z
" transform="scale(0.015625)"/>
       </defs>
       <use xlink:href="#DejaVuSans-31"/>
       <use xlink:href="#DejaVuSans-30" x="63.623047"/>
       <use xlink:href="#DejaVuSans-30" x="127.246094"/>
       <use xlink:href="#DejaVuSans-30" x="190.869141"/>
      </g>
     </g>
    </g>
    <g id="xtick_3">
     <g id="line2d_3">
      <g>
       <use xlink:href="#m086d68df52" x="155.136178" y="185.398125" style="stroke: #000000; stroke-width: 0.8"/>
      </g>
     </g>
     <g id="text_3">
      <!-- 2000 -->
      <g transform="translate(142.411178 199.996563)scale(0.1 -0.1)">
       <defs>
        <path id="DejaVuSans-32" d="M 1228 531 
L 3431 531 
L 3431 0 
L 469 0 
L 469 531 
Q 828 903 1448 1529 
Q 2069 2156 2228 2338 
Q 2531 2678 2651 2914 
Q 2772 3150 2772 3378 
Q 2772 3750 2511 3984 
Q 2250 4219 1831 4219 
Q 1534 4219 1204 4116 
Q 875 4013 500 3803 
L 500 4441 
Q 881 4594 1212 4672 
Q 1544 4750 1819 4750 
Q 2544 4750 2975 4387 
Q 3406 4025 3406 3419 
Q 3406 3131 3298 2873 
Q 3191 2616 2906 2266 
Q 2828 2175 2409 1742 
Q 1991 1309 1228 531 
z
" transform="scale(0.015625)"/>
       </defs>
       <use xlink:href="#DejaVuSans-32"/>
       <use xlink:href="#DejaVuSans-30" x="63.623047"/>
       <use xlink:href="#DejaVuSans-30" x="127.246094"/>
       <use xlink:href="#DejaVuSans-30" x="190.869141"/>
      </g>
     </g>
    </g>
    <g id="xtick_4">
     <g id="line2d_4">
      <g>
       <use xlink:href="#m086d68df52" x="206.334078" y="185.398125" style="stroke: #000000; stroke-width: 0.8"/>
      </g>
     </g>
     <g id="text_4">
      <!-- 3000 -->
      <g transform="translate(193.609078 199.996563)scale(0.1 -0.1)">
       <defs>
        <path id="DejaVuSans-33" d="M 2597 2516 
Q 3050 2419 3304 2112 
Q 3559 1806 3559 1356 
Q 3559 666 3084 287 
Q 2609 -91 1734 -91 
Q 1441 -91 1130 -33 
Q 819 25 488 141 
L 488 750 
Q 750 597 1062 519 
Q 1375 441 1716 441 
Q 2309 441 2620 675 
Q 2931 909 2931 1356 
Q 2931 1769 2642 2001 
Q 2353 2234 1838 2234 
L 1294 2234 
L 1294 2753 
L 1863 2753 
Q 2328 2753 2575 2939 
Q 2822 3125 2822 3475 
Q 2822 3834 2567 4026 
Q 2313 4219 1838 4219 
Q 1578 4219 1281 4162 
Q 984 4106 628 3988 
L 628 4550 
Q 988 4650 1302 4700 
Q 1616 4750 1894 4750 
Q 2613 4750 3031 4423 
Q 3450 4097 3450 3541 
Q 3450 3153 3228 2886 
Q 3006 2619 2597 2516 
z
" transform="scale(0.015625)"/>
       </defs>
       <use xlink:href="#DejaVuSans-33"/>
       <use xlink:href="#DejaVuSans-30" x="63.623047"/>
       <use xlink:href="#DejaVuSans-30" x="127.246094"/>
       <use xlink:href="#DejaVuSans-30" x="190.869141"/>
      </g>
     </g>
    </g>
    <g id="text_5">
     <!-- mRuby2, 4 dpi -->
     <g transform="translate(99.211875 213.674688)scale(0.1 -0.1)">
      <defs>
       <path id="DejaVuSans-6d" d="M 3328 2828 
Q 3544 3216 3844 3400 
Q 4144 3584 4550 3584 
Q 5097 3584 5394 3201 
Q 5691 2819 5691 2113 
L 5691 0 
L 5113 0 
L 5113 2094 
Q 5113 2597 4934 2840 
Q 4756 3084 4391 3084 
Q 3944 3084 3684 2787 
Q 3425 2491 3425 1978 
L 3425 0 
L 2847 0 
L 2847 2094 
Q 2847 2600 2669 2842 
Q 2491 3084 2119 3084 
Q 1678 3084 1418 2786 
Q 1159 2488 1159 1978 
L 1159 0 
L 581 0 
L 581 3500 
L 1159 3500 
L 1159 2956 
Q 1356 3278 1631 3431 
Q 1906 3584 2284 3584 
Q 2666 3584 2933 3390 
Q 3200 3197 3328 2828 
z
" transform="scale(0.015625)"/>
       <path id="DejaVuSans-52" d="M 2841 2188 
Q 3044 2119 3236 1894 
Q 3428 1669 3622 1275 
L 4263 0 
L 3584 0 
L 2988 1197 
Q 2756 1666 2539 1819 
Q 2322 1972 1947 1972 
L 1259 1972 
L 1259 0 
L 628 0 
L 628 4666 
L 2053 4666 
Q 2853 4666 3247 4331 
Q 3641 3997 3641 3322 
Q 3641 2881 3436 2590 
Q 3231 2300 2841 2188 
z
M 1259 4147 
L 1259 2491 
L 2053 2491 
Q 2509 2491 2742 2702 
Q 2975 2913 2975 3322 
Q 2975 3731 2742 3939 
Q 2509 4147 2053 4147 
L 1259 4147 
z
" transform="scale(0.015625)"/>
       <path id="DejaVuSans-75" d="M 544 1381 
L 544 3500 
L 1119 3500 
L 1119 1403 
Q 1119 906 1312 657 
Q 1506 409 1894 409 
Q 2359 409 2629 706 
Q 2900 1003 2900 1516 
L 2900 3500 
L 3475 3500 
L 3475 0 
L 2900 0 
L 2900 538 
Q 2691 219 2414 64 
Q 2138 -91 1772 -91 
Q 1169 -91 856 284 
Q 544 659 544 1381 
z
M 1991 3584 
L 1991 3584 
z
" transform="scale(0.015625)"/>
       <path id="DejaVuSans-62" d="M 3116 1747 
Q 3116 2381 2855 2742 
Q 2594 3103 2138 3103 
Q 1681 3103 1420 2742 
Q 1159 2381 1159 1747 
Q 1159 1113 1420 752 
Q 1681 391 2138 391 
Q 2594 391 2855 752 
Q 3116 1113 3116 1747 
z
M 1159 2969 
Q 1341 3281 1617 3432 
Q 1894 3584 2278 3584 
Q 2916 3584 3314 3078 
Q 3713 2572 3713 1747 
Q 3713 922 3314 415 
Q 2916 -91 2278 -91 
Q 1894 -91 1617 61 
Q 1341 213 1159 525 
L 1159 0 
L 581 0 
L 581 4863 
L 1159 4863 
L 1159 2969 
z
" transform="scale(0.015625)"/>
       <path id="DejaVuSans-79" d="M 2059 -325 
Q 1816 -950 1584 -1140 
Q 1353 -1331 966 -1331 
L 506 -1331 
L 506 -850 
L 844 -850 
Q 1081 -850 1212 -737 
Q 1344 -625 1503 -206 
L 1606 56 
L 191 3500 
L 800 3500 
L 1894 763 
L 2988 3500 
L 3597 3500 
L 2059 -325 
z
" transform="scale(0.015625)"/>
       <path id="DejaVuSans-2c" d="M 750 794 
L 1409 794 
L 1409 256 
L 897 -744 
L 494 -744 
L 750 256 
L 750 794 
z
" transform="scale(0.015625)"/>
       <path id="DejaVuSans-20" transform="scale(0.015625)"/>
       <path id="DejaVuSans-34" d="M 2419 4116 
L 825 1625 
L 2419 1625 
L 2419 4116 
z
M 2253 4666 
L 3047 4666 
L 3047 1625 
L 3713 1625 
L 3713 1100 
L 3047 1100 
L 3047 0 
L 2419 0 
L 2419 1100 
L 313 1100 
L 313 1709 
L 2253 4666 
z
" transform="scale(0.015625)"/>
       <path id="DejaVuSans-64" d="M 2906 2969 
L 2906 4863 
L 3481 4863 
L 3481 0 
L 2906 0 
L 2906 525 
Q 2725 213 2448 61 
Q 2172 -91 1784 -91 
Q 1150 -91 751 415 
Q 353 922 353 1747 
Q 353 2572 751 3078 
Q 1150 3584 1784 3584 
Q 2172 3584 2448 3432 
Q 2725 3281 2906 2969 
z
M 947 1747 
Q 947 1113 1208 752 
Q 1469 391 1925 391 
Q 2381 391 2643 752 
Q 2906 1113 2906 1747 
Q 2906 2381 2643 2742 
Q 2381 3103 1925 3103 
Q 1469 3103 1208 2742 
Q 947 2381 947 1747 
z
" transform="scale(0.015625)"/>
       <path id="DejaVuSans-70" d="M 1159 525 
L 1159 -1331 
L 581 -1331 
L 581 3500 
L 1159 3500 
L 1159 2969 
Q 1341 3281 1617 3432 
Q 1894 3584 2278 3584 
Q 2916 3584 3314 3078 
Q 3713 2572 3713 1747 
Q 3713 922 3314 415 
Q 2916 -91 2278 -91 
Q 1894 -91 1617 61 
Q 1341 213 1159 525 
z
M 3116 1747 
Q 3116 2381 2855 2742 
Q 2594 3103 2138 3103 
Q 1681 3103 1420 2742 
Q 1159 2381 1159 1747 
Q 1159 1113 1420 752 
Q 1681 391 2138 391 
Q 2594 391 2855 752 
Q 3116 1113 3116 1747 
z
" transform="scale(0.015625)"/>
       <path id="DejaVuSans-69" d="M 603 3500 
L 1178 3500 
L 1178 0 
L 603 0 
L 603 3500 
z
M 603 4863 
L 1178 4863 
L 1178 4134 
L 603 4134 
L 603 4863 
z
" transform="scale(0.015625)"/>
      </defs>
      <use xlink:href="#DejaVuSans-6d"/>
      <use xlink:href="#DejaVuSans-52" x="97.412109"/>
      <use xlink:href="#DejaVuSans-75" x="162.394531"/>
      <use xlink:href="#DejaVuSans-62" x="225.773438"/>
      <use xlink:href="#DejaVuSans-79" x="289.25"/>
      <use xlink:href="#DejaVuSans-32" x="348.429688"/>
      <use xlink:href="#DejaVuSans-2c" x="412.052734"/>
      <use xlink:href="#DejaVuSans-20" x="443.839844"/>
      <use xlink:href="#DejaVuSans-34" x="475.626953"/>
      <use xlink:href="#DejaVuSans-20" x="539.25"/>
      <use xlink:href="#DejaVuSans-64" x="571.037109"/>
      <use xlink:href="#DejaVuSans-70" x="634.513672"/>
      <use xlink:href="#DejaVuSans-69" x="697.990234"/>
     </g>
     <!-- (gmean) -->
     <g transform="translate(114.245469 224.8725)scale(0.1 -0.1)">
      <defs>
       <path id="DejaVuSans-28" d="M 1984 4856 
Q 1566 4138 1362 3434 
Q 1159 2731 1159 2009 
Q 1159 1288 1364 580 
Q 1569 -128 1984 -844 
L 1484 -844 
Q 1016 -109 783 600 
Q 550 1309 550 2009 
Q 550 2706 781 3412 
Q 1013 4119 1484 4856 
L 1984 4856 
z
" transform="scale(0.015625)"/>
       <path id="DejaVuSans-67" d="M 2906 1791 
Q 2906 2416 2648 2759 
Q 2391 3103 1925 3103 
Q 1463 3103 1205 2759 
Q 947 2416 947 1791 
Q 947 1169 1205 825 
Q 1463 481 1925 481 
Q 2391 481 2648 825 
Q 2906 1169 2906 1791 
z
M 3481 434 
Q 3481 -459 3084 -895 
Q 2688 -1331 1869 -1331 
Q 1566 -1331 1297 -1286 
Q 1028 -1241 775 -1147 
L 775 -588 
Q 1028 -725 1275 -790 
Q 1522 -856 1778 -856 
Q 2344 -856 2625 -561 
Q 2906 -266 2906 331 
L 2906 616 
Q 2728 306 2450 153 
Q 2172 0 1784 0 
Q 1141 0 747 490 
Q 353 981 353 1791 
Q 353 2603 747 3093 
Q 1141 3584 1784 3584 
Q 2172 3584 2450 3431 
Q 2728 3278 2906 2969 
L 2906 3500 
L 3481 3500 
L 3481 434 
z
" transform="scale(0.015625)"/>
       <path id="DejaVuSans-65" d="M 3597 1894 
L 3597 1613 
L 953 1613 
Q 991 1019 1311 708 
Q 1631 397 2203 397 
Q 2534 397 2845 478 
Q 3156 559 3463 722 
L 3463 178 
Q 3153 47 2828 -22 
Q 2503 -91 2169 -91 
Q 1331 -91 842 396 
Q 353 884 353 1716 
Q 353 2575 817 3079 
Q 1281 3584 2069 3584 
Q 2775 3584 3186 3129 
Q 3597 2675 3597 1894 
z
M 3022 2063 
Q 3016 2534 2758 2815 
Q 2500 3097 2075 3097 
Q 1594 3097 1305 2825 
Q 1016 2553 972 2059 
L 3022 2063 
z
" transform="scale(0.015625)"/>
       <path id="DejaVuSans-61" d="M 2194 1759 
Q 1497 1759 1228 1600 
Q 959 1441 959 1056 
Q 959 750 1161 570 
Q 1363 391 1709 391 
Q 2188 391 2477 730 
Q 2766 1069 2766 1631 
L 2766 1759 
L 2194 1759 
z
M 3341 1997 
L 3341 0 
L 2766 0 
L 2766 531 
Q 2569 213 2275 61 
Q 1981 -91 1556 -91 
Q 1019 -91 701 211 
Q 384 513 384 1019 
Q 384 1609 779 1909 
Q 1175 2209 1959 2209 
L 2766 2209 
L 2766 2266 
Q 2766 2663 2505 2880 
Q 2244 3097 1772 3097 
Q 1472 3097 1187 3025 
Q 903 2953 641 2809 
L 641 3341 
Q 956 3463 1253 3523 
Q 1550 3584 1831 3584 
Q 2591 3584 2966 3190 
Q 3341 2797 3341 1997 
z
" transform="scale(0.015625)"/>
       <path id="DejaVuSans-6e" d="M 3513 2113 
L 3513 0 
L 2938 0 
L 2938 2094 
Q 2938 2591 2744 2837 
Q 2550 3084 2163 3084 
Q 1697 3084 1428 2787 
Q 1159 2491 1159 1978 
L 1159 0 
L 581 0 
L 581 3500 
L 1159 3500 
L 1159 2956 
Q 1366 3272 1645 3428 
Q 1925 3584 2291 3584 
Q 2894 3584 3203 3211 
Q 3513 2838 3513 2113 
z
" transform="scale(0.015625)"/>
       <path id="DejaVuSans-29" d="M 513 4856 
L 1013 4856 
Q 1481 4119 1714 3412 
Q 1947 2706 1947 2009 
Q 1947 1309 1714 600 
Q 1481 -109 1013 -844 
L 513 -844 
Q 928 -128 1133 580 
Q 1338 1288 1338 2009 
Q 1338 2731 1133 3434 
Q 928 4138 513 4856 
z
" transform="scale(0.015625)"/>
      </defs>
      <use xlink:href="#DejaVuSans-28"/>
      <use xlink:href="#DejaVuSans-67" x="39.013672"/>
      <use xlink:href="#DejaVuSans-6d" x="102.490234"/>
      <use xlink:href="#DejaVuSans-65" x="199.902344"/>
      <use xlink:href="#DejaVuSans-61" x="261.425781"/>
      <use xlink:href="#DejaVuSans-6e" x="322.705078"/>
      <use xlink:href="#DejaVuSans-29" x="386.083984"/>
     </g>
    </g>
   </g>
   <g id="matplotlib.axis_2">
    <g id="ytick_1">
     <g id="line2d_5">
      <defs>
       <path id="m73b62c2160" d="M 0 0 
L -3.5 0 
" style="stroke: #000000; stroke-width: 0.8"/>
      </defs>
      <g>
       <use xlink:href="#m73b62c2160" x="51.800938" y="182.485982" style="stroke: #000000; stroke-width: 0.8"/>
      </g>
     </g>
     <g id="text_6">
      <!-- 0 -->
      <g transform="translate(38.438438 186.285201)scale(0.1 -0.1)">
       <use xlink:href="#DejaVuSans-30"/>
      </g>
     </g>
    </g>
    <g id="ytick_2">
     <g id="line2d_6">
      <g>
       <use xlink:href="#m73b62c2160" x="51.800938" y="153.364554" style="stroke: #000000; stroke-width: 0.8"/>
      </g>
     </g>
     <g id="text_7">
      <!-- 10 -->
      <g transform="translate(32.075938 157.163772)scale(0.1 -0.1)">
       <use xlink:href="#DejaVuSans-31"/>
       <use xlink:href="#DejaVuSans-30" x="63.623047"/>
      </g>
     </g>
    </g>
    <g id="ytick_3">
     <g id="line2d_7">
      <g>
       <use xlink:href="#m73b62c2160" x="51.800938" y="124.243125" style="stroke: #000000; stroke-width: 0.8"/>
      </g>
     </g>
     <g id="text_8">
      <!-- 20 -->
      <g transform="translate(32.075938 128.042344)scale(0.1 -0.1)">
       <use xlink:href="#DejaVuSans-32"/>
       <use xlink:href="#DejaVuSans-30" x="63.623047"/>
      </g>
     </g>
    </g>
    <g id="ytick_4">
     <g id="line2d_8">
      <g>
       <use xlink:href="#m73b62c2160" x="51.800938" y="95.121696" style="stroke: #000000; stroke-width: 0.8"/>
      </g>
     </g>
     <g id="text_9">
      <!-- 30 -->
      <g transform="translate(32.075938 98.920915)scale(0.1 -0.1)">
       <use xlink:href="#DejaVuSans-33"/>
       <use xlink:href="#DejaVuSans-30" x="63.623047"/>
      </g>
     </g>
    </g>
    <g id="ytick_5">
     <g id="line2d_9">
      <g>
       <use xlink:href="#m73b62c2160" x="51.800938" y="66.000268" style="stroke: #000000; stroke-width: 0.8"/>
      </g>
     </g>
     <g id="text_10">
      <!-- 40 -->
      <g transform="translate(32.075938 69.799487)scale(0.1 -0.1)">
       <use xlink:href="#DejaVuSans-34"/>
       <use xlink:href="#DejaVuSans-30" x="63.623047"/>
      </g>
     </g>
    </g>
    <g id="ytick_6">
     <g id="line2d_10">
      <g>
       <use xlink:href="#m73b62c2160" x="51.800938" y="36.878839" style="stroke: #000000; stroke-width: 0.8"/>
      </g>
     </g>
     <g id="text_11">
      <!-- 50 -->
      <g transform="translate(32.075938 40.678058)scale(0.1 -0.1)">
       <defs>
        <path id="DejaVuSans-35" d="M 691 4666 
L 3169 4666 
L 3169 4134 
L 1269 4134 
L 1269 2991 
Q 1406 3038 1543 3061 
Q 1681 3084 1819 3084 
Q 2600 3084 3056 2656 
Q 3513 2228 3513 1497 
Q 3513 744 3044 326 
Q 2575 -91 1722 -91 
Q 1428 -91 1123 -41 
Q 819 9 494 109 
L 494 744 
Q 775 591 1075 516 
Q 1375 441 1709 441 
Q 2250 441 2565 725 
Q 2881 1009 2881 1497 
Q 2881 1984 2565 2268 
Q 2250 2553 1709 2553 
Q 1456 2553 1204 2497 
Q 953 2441 691 2322 
L 691 4666 
z
" transform="scale(0.015625)"/>
       </defs>
       <use xlink:href="#DejaVuSans-35"/>
       <use xlink:href="#DejaVuSans-30" x="63.623047"/>
      </g>
     </g>
    </g>
    <g id="text_12">
     <!-- (%) iMN -->
     <g transform="translate(14.798438 123.543281)rotate(-90)scale(0.1 -0.1)">
      <defs>
       <path id="DejaVuSans-25" d="M 4653 2053 
Q 4381 2053 4226 1822 
Q 4072 1591 4072 1178 
Q 4072 772 4226 539 
Q 4381 306 4653 306 
Q 4919 306 5073 539 
Q 5228 772 5228 1178 
Q 5228 1588 5073 1820 
Q 4919 2053 4653 2053 
z
M 4653 2450 
Q 5147 2450 5437 2106 
Q 5728 1763 5728 1178 
Q 5728 594 5436 251 
Q 5144 -91 4653 -91 
Q 4153 -91 3862 251 
Q 3572 594 3572 1178 
Q 3572 1766 3864 2108 
Q 4156 2450 4653 2450 
z
M 1428 4353 
Q 1159 4353 1004 4120 
Q 850 3888 850 3481 
Q 850 3069 1003 2837 
Q 1156 2606 1428 2606 
Q 1700 2606 1854 2837 
Q 2009 3069 2009 3481 
Q 2009 3884 1853 4118 
Q 1697 4353 1428 4353 
z
M 4250 4750 
L 4750 4750 
L 1831 -91 
L 1331 -91 
L 4250 4750 
z
M 1428 4750 
Q 1922 4750 2215 4408 
Q 2509 4066 2509 3481 
Q 2509 2891 2217 2550 
Q 1925 2209 1428 2209 
Q 931 2209 642 2551 
Q 353 2894 353 3481 
Q 353 4063 643 4406 
Q 934 4750 1428 4750 
z
" transform="scale(0.015625)"/>
       <path id="DejaVuSans-4d" d="M 628 4666 
L 1569 4666 
L 2759 1491 
L 3956 4666 
L 4897 4666 
L 4897 0 
L 4281 0 
L 4281 4097 
L 3078 897 
L 2444 897 
L 1241 4097 
L 1241 0 
L 628 0 
L 628 4666 
z
" transform="scale(0.015625)"/>
       <path id="DejaVuSans-4e" d="M 628 4666 
L 1478 4666 
L 3547 763 
L 3547 4666 
L 4159 4666 
L 4159 0 
L 3309 0 
L 1241 3903 
L 1241 0 
L 628 0 
L 628 4666 
z
" transform="scale(0.015625)"/>
      </defs>
      <use xlink:href="#DejaVuSans-28"/>
      <use xlink:href="#DejaVuSans-25" x="39.013672"/>
      <use xlink:href="#DejaVuSans-29" x="134.033203"/>
      <use xlink:href="#DejaVuSans-20" x="173.046875"/>
      <use xlink:href="#DejaVuSans-69" x="204.833984"/>
      <use xlink:href="#DejaVuSans-4d" x="232.617188"/>
      <use xlink:href="#DejaVuSans-4e" x="318.896484"/>
     </g>
     <!-- of all cells -->
     <g transform="translate(25.99625 128.906563)rotate(-90)scale(0.1 -0.1)">
      <defs>
       <path id="DejaVuSans-6f" d="M 1959 3097 
Q 1497 3097 1228 2736 
Q 959 2375 959 1747 
Q 959 1119 1226 758 
Q 1494 397 1959 397 
Q 2419 397 2687 759 
Q 2956 1122 2956 1747 
Q 2956 2369 2687 2733 
Q 2419 3097 1959 3097 
z
M 1959 3584 
Q 2709 3584 3137 3096 
Q 3566 2609 3566 1747 
Q 3566 888 3137 398 
Q 2709 -91 1959 -91 
Q 1206 -91 779 398 
Q 353 888 353 1747 
Q 353 2609 779 3096 
Q 1206 3584 1959 3584 
z
" transform="scale(0.015625)"/>
       <path id="DejaVuSans-66" d="M 2375 4863 
L 2375 4384 
L 1825 4384 
Q 1516 4384 1395 4259 
Q 1275 4134 1275 3809 
L 1275 3500 
L 2222 3500 
L 2222 3053 
L 1275 3053 
L 1275 0 
L 697 0 
L 697 3053 
L 147 3053 
L 147 3500 
L 697 3500 
L 697 3744 
Q 697 4328 969 4595 
Q 1241 4863 1831 4863 
L 2375 4863 
z
" transform="scale(0.015625)"/>
       <path id="DejaVuSans-6c" d="M 603 4863 
L 1178 4863 
L 1178 0 
L 603 0 
L 603 4863 
z
" transform="scale(0.015625)"/>
       <path id="DejaVuSans-63" d="M 3122 3366 
L 3122 2828 
Q 2878 2963 2633 3030 
Q 2388 3097 2138 3097 
Q 1578 3097 1268 2742 
Q 959 2388 959 1747 
Q 959 1106 1268 751 
Q 1578 397 2138 397 
Q 2388 397 2633 464 
Q 2878 531 3122 666 
L 3122 134 
Q 2881 22 2623 -34 
Q 2366 -91 2075 -91 
Q 1284 -91 818 406 
Q 353 903 353 1747 
Q 353 2603 823 3093 
Q 1294 3584 2113 3584 
Q 2378 3584 2631 3529 
Q 2884 3475 3122 3366 
z
" transform="scale(0.015625)"/>
       <path id="DejaVuSans-73" d="M 2834 3397 
L 2834 2853 
Q 2591 2978 2328 3040 
Q 2066 3103 1784 3103 
Q 1356 3103 1142 2972 
Q 928 2841 928 2578 
Q 928 2378 1081 2264 
Q 1234 2150 1697 2047 
L 1894 2003 
Q 2506 1872 2764 1633 
Q 3022 1394 3022 966 
Q 3022 478 2636 193 
Q 2250 -91 1575 -91 
Q 1294 -91 989 -36 
Q 684 19 347 128 
L 347 722 
Q 666 556 975 473 
Q 1284 391 1588 391 
Q 1994 391 2212 530 
Q 2431 669 2431 922 
Q 2431 1156 2273 1281 
Q 2116 1406 1581 1522 
L 1381 1569 
Q 847 1681 609 1914 
Q 372 2147 372 2553 
Q 372 3047 722 3315 
Q 1072 3584 1716 3584 
Q 2034 3584 2315 3537 
Q 2597 3491 2834 3397 
z
" transform="scale(0.015625)"/>
      </defs>
      <use xlink:href="#DejaVuSans-6f"/>
      <use xlink:href="#DejaVuSans-66" x="61.181641"/>
      <use xlink:href="#DejaVuSans-20" x="96.386719"/>
      <use xlink:href="#DejaVuSans-61" x="128.173828"/>
      <use xlink:href="#DejaVuSans-6c" x="189.453125"/>
      <use xlink:href="#DejaVuSans-6c" x="217.236328"/>
      <use xlink:href="#DejaVuSans-20" x="245.019531"/>
      <use xlink:href="#DejaVuSans-63" x="276.806641"/>
      <use xlink:href="#DejaVuSans-65" x="331.787109"/>
      <use xlink:href="#DejaVuSans-6c" x="393.310547"/>
      <use xlink:href="#DejaVuSans-6c" x="421.09375"/>
      <use xlink:href="#DejaVuSans-73" x="448.876953"/>
     </g>
    </g>
   </g>
   <g id="line2d_11">
    <path d="M 96.69469 89.013836 
L 97.729291 89.473233 
L 98.763892 89.93263 
L 99.798493 90.392027 
L 100.833094 90.851424 
L 101.867695 91.31082 
L 102.902296 91.770217 
L 103.936897 92.229614 
L 104.971498 92.689011 
L 106.006098 93.148408 
L 107.040699 93.607805 
L 108.0753 94.067202 
L 109.109901 94.526599 
L 110.144502 94.985996 
L 111.179103 95.445393 
L 112.213704 95.90479 
L 113.248305 96.364187 
L 114.282906 96.823584 
L 115.317507 97.282981 
L 116.352108 97.742378 
L 117.386709 98.201775 
L 118.421309 98.661172 
L 119.45591 99.120569 
L 120.490511 99.579966 
L 121.525112 100.039363 
L 122.559713 100.498759 
L 123.594314 100.958156 
L 124.628915 101.417553 
L 125.663516 101.87695 
L 126.698117 102.336347 
L 127.732718 102.795744 
L 128.767319 103.255141 
L 129.80192 103.714538 
L 130.836521 104.173935 
L 131.871121 104.633332 
L 132.905722 105.092729 
L 133.940323 105.552126 
L 134.974924 106.011523 
L 136.009525 106.47092 
L 137.044126 106.930317 
L 138.078727 107.389714 
L 139.113328 107.849111 
L 140.147929 108.308508 
L 141.18253 108.767905 
L 142.217131 109.227302 
L 143.251732 109.686699 
L 144.286332 110.146095 
L 145.320933 110.605492 
L 146.355534 111.064889 
L 147.390135 111.524286 
L 148.424736 111.983683 
L 149.459337 112.44308 
L 150.493938 112.902477 
L 151.528539 113.361874 
L 152.56314 113.821271 
L 153.597741 114.280668 
L 154.632342 114.740065 
L 155.666943 115.199462 
L 156.701544 115.658859 
L 157.736144 116.118256 
L 158.770745 116.577653 
L 159.805346 117.03705 
L 160.839947 117.496447 
L 161.874548 117.955844 
L 162.909149 118.415241 
L 163.94375 118.874638 
L 164.978351 119.334035 
L 166.012952 119.793431 
L 167.047553 120.252828 
L 168.082154 120.712225 
L 169.116755 121.171622 
L 170.151355 121.631019 
L 171.185956 122.090416 
L 172.220557 122.549813 
L 173.255158 123.00921 
L 174.289759 123.468607 
L 175.32436 123.928004 
L 176.358961 124.387401 
L 177.393562 124.846798 
L 178.428163 125.306195 
L 179.462764 125.765592 
L 180.497365 126.224989 
L 181.531966 126.684386 
L 182.566567 127.143783 
L 183.601167 127.60318 
L 184.635768 128.062577 
L 185.670369 128.521974 
L 186.70497 128.98137 
L 187.739571 129.440767 
L 188.774172 129.900164 
L 189.808773 130.359561 
L 190.843374 130.818958 
L 191.877975 131.278355 
L 192.912576 131.737752 
L 193.947177 132.197149 
L 194.981778 132.656546 
L 196.016378 133.115943 
L 197.050979 133.57534 
L 198.08558 134.034737 
L 199.120181 134.494134 
" clip-path="url(#pa8a6bc97c2)" style="fill: none; stroke: #498ac6; stroke-width: 2.25; stroke-linecap: square"/>
   </g>
   <g id="LineCollection_1">
    <path d="M 139.634219 101.644033 
L 162.857316 101.644033 
" clip-path="url(#pa8a6bc97c2)" style="fill: none; stroke: #000000; stroke-width: 0.5"/>
    <path d="M 108.113386 83.201881 
L 141.356412 83.201881 
" clip-path="url(#pa8a6bc97c2)" style="fill: none; stroke: #000000; stroke-width: 0.5"/>
    <path d="M 109.667246 104.604269 
L 118.966835 104.604269 
" clip-path="url(#pa8a6bc97c2)" style="fill: none; stroke: #000000; stroke-width: 0.5"/>
    <path d="M 120.387024 125.316303 
L 126.857094 125.316303 
" clip-path="url(#pa8a6bc97c2)" style="fill: none; stroke: #000000; stroke-width: 0.5"/>
    <path d="M 112.42359 62.45055 
L 113.13169 62.45055 
" clip-path="url(#pa8a6bc97c2)" style="fill: none; stroke: #000000; stroke-width: 0.5"/>
    <path d="M 90.550441 44.253832 
L 102.83894 44.253832 
" clip-path="url(#pa8a6bc97c2)" style="fill: none; stroke: #000000; stroke-width: 0.5"/>
    <path d="M 98.919494 91.719878 
L 105.41897 91.719878 
" clip-path="url(#pa8a6bc97c2)" style="fill: none; stroke: #000000; stroke-width: 0.5"/>
    <path d="M 101.448925 98.612371 
L 111.942002 98.612371 
" clip-path="url(#pa8a6bc97c2)" style="fill: none; stroke: #000000; stroke-width: 0.5"/>
    <path d="M 134.930159 103.913222 
L 154.685574 103.913222 
" clip-path="url(#pa8a6bc97c2)" style="fill: none; stroke: #000000; stroke-width: 0.5"/>
    <path d="M 112.921603 96.329891 
L 145.943493 96.329891 
" clip-path="url(#pa8a6bc97c2)" style="fill: none; stroke: #000000; stroke-width: 0.5"/>
    <path d="M 135.693488 115.025081 
L 159.394471 115.025081 
" clip-path="url(#pa8a6bc97c2)" style="fill: none; stroke: #000000; stroke-width: 0.5"/>
    <path d="M 143.665482 133.477937 
L 167.119537 133.477937 
" clip-path="url(#pa8a6bc97c2)" style="fill: none; stroke: #000000; stroke-width: 0.5"/>
    <path d="M 141.616991 95.463852 
L 152.475901 95.463852 
" clip-path="url(#pa8a6bc97c2)" style="fill: none; stroke: #000000; stroke-width: 0.5"/>
    <path d="M 111.945594 86.007821 
L 147.051447 86.007821 
" clip-path="url(#pa8a6bc97c2)" style="fill: none; stroke: #000000; stroke-width: 0.5"/>
    <path d="M 174.168361 124.761278 
L 196.135742 124.761278 
" clip-path="url(#pa8a6bc97c2)" style="fill: none; stroke: #000000; stroke-width: 0.5"/>
    <path d="M 186.648516 144.010432 
L 211.591847 144.010432 
" clip-path="url(#pa8a6bc97c2)" style="fill: none; stroke: #000000; stroke-width: 0.5"/>
    <path d="M 124.608943 92.777828 
L 144.467198 92.777828 
" clip-path="url(#pa8a6bc97c2)" style="fill: none; stroke: #000000; stroke-width: 0.5"/>
    <path d="M 98.714463 80.468624 
L 120.439691 80.468624 
" clip-path="url(#pa8a6bc97c2)" style="fill: none; stroke: #000000; stroke-width: 0.5"/>
    <path d="M 115.792052 111.532591 
L 127.10693 111.532591 
" clip-path="url(#pa8a6bc97c2)" style="fill: none; stroke: #000000; stroke-width: 0.5"/>
    <path d="M 128.269875 125.534059 
L 145.47836 125.534059 
" clip-path="url(#pa8a6bc97c2)" style="fill: none; stroke: #000000; stroke-width: 0.5"/>
    <path d="M 146.288696 104.255379 
L 158.516253 104.255379 
" clip-path="url(#pa8a6bc97c2)" style="fill: none; stroke: #000000; stroke-width: 0.5"/>
    <path d="M 127.411551 113.026104 
L 139.632632 113.026104 
" clip-path="url(#pa8a6bc97c2)" style="fill: none; stroke: #000000; stroke-width: 0.5"/>
    <path d="M 100.039735 128.999523 
L 105.419609 128.999523 
" clip-path="url(#pa8a6bc97c2)" style="fill: none; stroke: #000000; stroke-width: 0.5"/>
    <path d="M 103.674763 145.155924 
L 109.49901 145.155924 
" clip-path="url(#pa8a6bc97c2)" style="fill: none; stroke: #000000; stroke-width: 0.5"/>
   </g>
   <g id="LineCollection_2">
    <path d="M 151.245767 108.400001 
L 151.245767 94.888065 
" clip-path="url(#pa8a6bc97c2)" style="fill: none; stroke: #000000; stroke-width: 0.5"/>
    <path d="M 124.734899 88.538732 
L 124.734899 77.86503 
" clip-path="url(#pa8a6bc97c2)" style="fill: none; stroke: #000000; stroke-width: 0.5"/>
    <path d="M 114.31704 109.097243 
L 114.31704 100.111296 
" clip-path="url(#pa8a6bc97c2)" style="fill: none; stroke: #000000; stroke-width: 0.5"/>
    <path d="M 123.622059 127.744999 
L 123.622059 122.887607 
" clip-path="url(#pa8a6bc97c2)" style="fill: none; stroke: #000000; stroke-width: 0.5"/>
    <path d="M 112.77764 71.729356 
L 112.77764 53.171743 
" clip-path="url(#pa8a6bc97c2)" style="fill: none; stroke: #000000; stroke-width: 0.5"/>
    <path d="M 96.69469 47.09055 
L 96.69469 41.417113 
" clip-path="url(#pa8a6bc97c2)" style="fill: none; stroke: #000000; stroke-width: 0.5"/>
    <path d="M 102.169232 96.403735 
L 102.169232 87.036022 
" clip-path="url(#pa8a6bc97c2)" style="fill: none; stroke: #000000; stroke-width: 0.5"/>
    <path d="M 106.695463 107.768122 
L 106.695463 89.45662 
" clip-path="url(#pa8a6bc97c2)" style="fill: none; stroke: #000000; stroke-width: 0.5"/>
    <path d="M 144.807867 110.885676 
L 144.807867 96.940768 
" clip-path="url(#pa8a6bc97c2)" style="fill: none; stroke: #000000; stroke-width: 0.5"/>
    <path d="M 129.432548 98.52352 
L 129.432548 94.136263 
" clip-path="url(#pa8a6bc97c2)" style="fill: none; stroke: #000000; stroke-width: 0.5"/>
    <path d="M 147.543979 118.919882 
L 147.543979 111.130281 
" clip-path="url(#pa8a6bc97c2)" style="fill: none; stroke: #000000; stroke-width: 0.5"/>
    <path d="M 155.392509 134.670524 
L 155.392509 132.28535 
" clip-path="url(#pa8a6bc97c2)" style="fill: none; stroke: #000000; stroke-width: 0.5"/>
    <path d="M 147.046446 101.371208 
L 147.046446 89.556496 
" clip-path="url(#pa8a6bc97c2)" style="fill: none; stroke: #000000; stroke-width: 0.5"/>
    <path d="M 129.498521 89.836722 
L 129.498521 82.178921 
" clip-path="url(#pa8a6bc97c2)" style="fill: none; stroke: #000000; stroke-width: 0.5"/>
    <path d="M 185.152051 129.527624 
L 185.152051 119.994931 
" clip-path="url(#pa8a6bc97c2)" style="fill: none; stroke: #000000; stroke-width: 0.5"/>
    <path d="M 199.120181 147.189598 
L 199.120181 140.831265 
" clip-path="url(#pa8a6bc97c2)" style="fill: none; stroke: #000000; stroke-width: 0.5"/>
    <path d="M 134.538071 97.530217 
L 134.538071 88.025439 
" clip-path="url(#pa8a6bc97c2)" style="fill: none; stroke: #000000; stroke-width: 0.5"/>
    <path d="M 109.577077 86.676281 
L 109.577077 74.260967 
" clip-path="url(#pa8a6bc97c2)" style="fill: none; stroke: #000000; stroke-width: 0.5"/>
    <path d="M 121.449491 116.28874 
L 121.449491 106.776441 
" clip-path="url(#pa8a6bc97c2)" style="fill: none; stroke: #000000; stroke-width: 0.5"/>
    <path d="M 136.874117 128.660839 
L 136.874117 122.407279 
" clip-path="url(#pa8a6bc97c2)" style="fill: none; stroke: #000000; stroke-width: 0.5"/>
    <path d="M 152.402475 108.010158 
L 152.402475 100.500599 
" clip-path="url(#pa8a6bc97c2)" style="fill: none; stroke: #000000; stroke-width: 0.5"/>
    <path d="M 133.522091 116.360339 
L 133.522091 109.69187 
" clip-path="url(#pa8a6bc97c2)" style="fill: none; stroke: #000000; stroke-width: 0.5"/>
    <path d="M 102.729672 130.024664 
L 102.729672 127.974383 
" clip-path="url(#pa8a6bc97c2)" style="fill: none; stroke: #000000; stroke-width: 0.5"/>
    <path d="M 106.586887 146.394972 
L 106.586887 143.916875 
" clip-path="url(#pa8a6bc97c2)" style="fill: none; stroke: #000000; stroke-width: 0.5"/>
   </g>
   <g id="LineCollection_3">
    <path d="M 61.133779 164.665356 
L 61.775756 164.665356 
" clip-path="url(#pa8a6bc97c2)" style="fill: none; stroke: #000000; stroke-width: 0.5"/>
    <path d="M 59.410028 169.375211 
L 59.720275 169.375211 
" clip-path="url(#pa8a6bc97c2)" style="fill: none; stroke: #000000; stroke-width: 0.5"/>
    <path d="M 61.874178 166.785257 
L 62.105356 166.785257 
" clip-path="url(#pa8a6bc97c2)" style="fill: none; stroke: #000000; stroke-width: 0.5"/>
    <path d="M 62.253366 173.480047 
L 62.391337 173.480047 
" clip-path="url(#pa8a6bc97c2)" style="fill: none; stroke: #000000; stroke-width: 0.5"/>
   </g>
   <g id="LineCollection_4">
    <path d="M 61.454768 165.904419 
L 61.454768 163.426293 
" clip-path="url(#pa8a6bc97c2)" style="fill: none; stroke: #000000; stroke-width: 0.5"/>
    <path d="M 59.565152 170.425908 
L 59.565152 168.324513 
" clip-path="url(#pa8a6bc97c2)" style="fill: none; stroke: #000000; stroke-width: 0.5"/>
    <path d="M 61.989767 170.344061 
L 61.989767 163.226453 
" clip-path="url(#pa8a6bc97c2)" style="fill: none; stroke: #000000; stroke-width: 0.5"/>
    <path d="M 62.322352 174.278448 
L 62.322352 172.681646 
" clip-path="url(#pa8a6bc97c2)" style="fill: none; stroke: #000000; stroke-width: 0.5"/>
   </g>
   <g id="line2d_12">
    <path d="M 151.245767 101.644033 
L 124.734899 83.201881 
L 114.31704 104.604269 
L 123.622059 125.316303 
L 112.77764 62.45055 
L 96.69469 44.253832 
L 102.169232 91.719878 
L 106.695463 98.612371 
L 144.807867 103.913222 
L 129.432548 96.329891 
L 147.543979 115.025081 
L 155.392509 133.477937 
L 147.046446 95.463852 
L 129.498521 86.007821 
L 185.152051 124.761278 
L 199.120181 144.010432 
L 134.538071 92.777828 
L 109.577077 80.468624 
L 121.449491 111.532591 
L 136.874117 125.534059 
L 152.402475 104.255379 
L 133.522091 113.026104 
L 102.729672 128.999523 
L 106.586887 145.155924 
" clip-path="url(#pa8a6bc97c2)" style="fill: none; stroke: #000000; stroke-opacity: 0; stroke-width: 1.5; stroke-linecap: square"/>
   </g>
   <g id="line2d_13">
    <path d="M 61.454768 164.665356 
L 59.565152 169.375211 
L 61.989767 166.785257 
L 62.322352 173.480047 
" clip-path="url(#pa8a6bc97c2)" style="fill: none; stroke: #000000; stroke-opacity: 0; stroke-width: 1.5; stroke-linecap: square"/>
   </g>
   <g id="patch_3">
    <path d="M 51.800938 185.398125 
L 51.800938 22.318125 
" style="fill: none; stroke: #000000; stroke-width: 0.8; stroke-linejoin: miter; stroke-linecap: square"/>
   </g>
   <g id="patch_4">
    <path d="M 219.200938 185.398125 
L 219.200938 22.318125 
" style="fill: none; stroke: #000000; stroke-width: 0.8; stroke-linejoin: miter; stroke-linecap: square"/>
   </g>
   <g id="patch_5">
    <path d="M 51.800938 185.398125 
L 219.200938 185.398125 
" style="fill: none; stroke: #000000; stroke-width: 0.8; stroke-linejoin: miter; stroke-linecap: square"/>
   </g>
   <g id="patch_6">
    <path d="M 51.800938 22.318125 
L 219.200938 22.318125 
" style="fill: none; stroke: #000000; stroke-width: 0.8; stroke-linejoin: miter; stroke-linecap: square"/>
   </g>
   <g id="text_13">
    <!-- No -->
    <g transform="translate(68.540938 166.046312)scale(0.1 -0.1)">
     <use xlink:href="#DejaVuSans-4e"/>
     <use xlink:href="#DejaVuSans-6f" x="74.804688"/>
    </g>
    <!-- Lhx3 -->
    <g transform="translate(68.540938 177.244125)scale(0.1 -0.1)">
     <defs>
      <path id="DejaVuSans-4c" d="M 628 4666 
L 1259 4666 
L 1259 531 
L 3531 531 
L 3531 0 
L 628 0 
L 628 4666 
z
" transform="scale(0.015625)"/>
      <path id="DejaVuSans-68" d="M 3513 2113 
L 3513 0 
L 2938 0 
L 2938 2094 
Q 2938 2591 2744 2837 
Q 2550 3084 2163 3084 
Q 1697 3084 1428 2787 
Q 1159 2491 1159 1978 
L 1159 0 
L 581 0 
L 581 4863 
L 1159 4863 
L 1159 2956 
Q 1366 3272 1645 3428 
Q 1925 3584 2291 3584 
Q 2894 3584 3203 3211 
Q 3513 2838 3513 2113 
z
" transform="scale(0.015625)"/>
      <path id="DejaVuSans-78" d="M 3513 3500 
L 2247 1797 
L 3578 0 
L 2900 0 
L 1881 1375 
L 863 0 
L 184 0 
L 1544 1831 
L 300 3500 
L 978 3500 
L 1906 2253 
L 2834 3500 
L 3513 3500 
z
" transform="scale(0.015625)"/>
     </defs>
     <use xlink:href="#DejaVuSans-4c"/>
     <use xlink:href="#DejaVuSans-68" x="55.712891"/>
     <use xlink:href="#DejaVuSans-78" x="119.091797"/>
     <use xlink:href="#DejaVuSans-33" x="178.271484"/>
    </g>
   </g>
   <g id="text_14">
    <!-- r = -0.47 -->
    <g transform="translate(60.170938 38.626125)scale(0.1 -0.1)">
     <defs>
      <path id="DejaVuSans-72" d="M 2631 2963 
Q 2534 3019 2420 3045 
Q 2306 3072 2169 3072 
Q 1681 3072 1420 2755 
Q 1159 2438 1159 1844 
L 1159 0 
L 581 0 
L 581 3500 
L 1159 3500 
L 1159 2956 
Q 1341 3275 1631 3429 
Q 1922 3584 2338 3584 
Q 2397 3584 2469 3576 
Q 2541 3569 2628 3553 
L 2631 2963 
z
" transform="scale(0.015625)"/>
      <path id="DejaVuSans-3d" d="M 678 2906 
L 4684 2906 
L 4684 2381 
L 678 2381 
L 678 2906 
z
M 678 1631 
L 4684 1631 
L 4684 1100 
L 678 1100 
L 678 1631 
z
" transform="scale(0.015625)"/>
      <path id="DejaVuSans-2d" d="M 313 2009 
L 1997 2009 
L 1997 1497 
L 313 1497 
L 313 2009 
z
" transform="scale(0.015625)"/>
      <path id="DejaVuSans-2e" d="M 684 794 
L 1344 794 
L 1344 0 
L 684 0 
L 684 794 
z
" transform="scale(0.015625)"/>
      <path id="DejaVuSans-37" d="M 525 4666 
L 3525 4666 
L 3525 4397 
L 1831 0 
L 1172 0 
L 2766 4134 
L 525 4134 
L 525 4666 
z
" transform="scale(0.015625)"/>
     </defs>
     <use xlink:href="#DejaVuSans-72"/>
     <use xlink:href="#DejaVuSans-20" x="41.113281"/>
     <use xlink:href="#DejaVuSans-3d" x="72.900391"/>
     <use xlink:href="#DejaVuSans-20" x="156.689453"/>
     <use xlink:href="#DejaVuSans-2d" x="188.476562"/>
     <use xlink:href="#DejaVuSans-30" x="224.560547"/>
     <use xlink:href="#DejaVuSans-2e" x="288.183594"/>
     <use xlink:href="#DejaVuSans-34" x="319.970703"/>
     <use xlink:href="#DejaVuSans-37" x="383.59375"/>
    </g>
   </g>
   <g id="text_15">
    <!-- Lhx3 -->
    <g transform="translate(120.986563 16.318125)scale(0.12 -0.12)">
     <use xlink:href="#DejaVuSans-4c"/>
     <use xlink:href="#DejaVuSans-68" x="55.712891"/>
     <use xlink:href="#DejaVuSans-78" x="119.091797"/>
     <use xlink:href="#DejaVuSans-33" x="178.271484"/>
    </g>
   </g>
  </g>
 </g>
 <defs>
  <clipPath id="pa8a6bc97c2">
   <rect x="51.800938" y="22.318125" width="167.4" height="163.08"/>
  </clipPath>
 </defs>
</svg>
