<?xml version="1.0" encoding="utf-8" standalone="no"?>
<!DOCTYPE svg PUBLIC "-//W3C//DTD SVG 1.1//EN"
  "http://www.w3.org/Graphics/SVG/1.1/DTD/svg11.dtd">
<svg xmlns:xlink="http://www.w3.org/1999/xlink" width="232.763437pt" height="234.152188pt" viewBox="0 0 232.763437 234.152188" xmlns="http://www.w3.org/2000/svg" version="1.1">
 <metadata>
  <rdf:RDF xmlns:dc="http://purl.org/dc/elements/1.1/" xmlns:cc="http://creativecommons.org/ns#" xmlns:rdf="http://www.w3.org/1999/02/22-rdf-syntax-ns#">
   <cc:Work>
    <dc:type rdf:resource="http://purl.org/dc/dcmitype/StillImage"/>
    <dc:date>2025-01-26T16:01:49.258741</dc:date>
    <dc:format>image/svg+xml</dc:format>
    <dc:creator>
     <cc:Agent>
      <dc:title>Matplotlib v3.5.2, https://matplotlib.org/</dc:title>
     </cc:Agent>
    </dc:creator>
   </cc:Work>
  </rdf:RDF>
 </metadata>
 <defs>
  <style type="text/css">*{stroke-linejoin: round; stroke-linecap: butt}</style>
 </defs>
 <g id="figure_1">
  <g id="patch_1">
   <path d="M 0 234.152188 
L 232.763437 234.152188 
L 232.763437 -0 
L 0 -0 
L 0 234.152188 
z
" style="fill: none"/>
  </g>
  <g id="axes_1">
   <g id="patch_2">
    <path d="M 58.163438 185.398125 
L 225.563438 185.398125 
L 225.563438 22.318125 
L 58.163438 22.318125 
z
" style="fill: #ffffff"/>
   </g>
   <g id="PathCollection_1">
    <defs>
     <path id="mdf2148bcde" d="M 0 3 
C 0.795609 3 1.55874 2.683901 2.12132 2.12132 
C 2.683901 1.55874 3 0.795609 3 0 
C 3 -0.795609 2.683901 -1.55874 2.12132 -2.12132 
C 1.55874 -2.683901 0.795609 -3 0 -3 
C -0.795609 -3 -1.55874 -2.683901 -2.12132 -2.12132 
C -2.683901 -1.55874 -3 -0.795609 -3 0 
C -3 0.795609 -2.683901 1.55874 -2.12132 2.12132 
C -1.55874 2.683901 -0.795609 3 0 3 
z
" style="stroke: #068583; stroke-opacity: 0.8"/>
    </defs>
    <g clip-path="url(#p36b202a400)">
     <use xlink:href="#mdf2148bcde" x="164.731227" y="116.386735" style="fill: #068583; fill-opacity: 0.8; stroke: #068583; stroke-opacity: 0.8"/>
     <use xlink:href="#mdf2148bcde" x="155.460355" y="119.848049" style="fill: #068583; fill-opacity: 0.8; stroke: #068583; stroke-opacity: 0.8"/>
     <use xlink:href="#mdf2148bcde" x="133.212151" y="82.503547" style="fill: #068583; fill-opacity: 0.8; stroke: #068583; stroke-opacity: 0.8"/>
     <use xlink:href="#mdf2148bcde" x="122.045912" y="45.819987" style="fill: #068583; fill-opacity: 0.8; stroke: #068583; stroke-opacity: 0.8"/>
     <use xlink:href="#mdf2148bcde" x="189.025758" y="113.777477" style="fill: #068583; fill-opacity: 0.8; stroke: #068583; stroke-opacity: 0.8"/>
     <use xlink:href="#mdf2148bcde" x="175.159981" y="151.190993" style="fill: #068583; fill-opacity: 0.8; stroke: #068583; stroke-opacity: 0.8"/>
     <use xlink:href="#mdf2148bcde" x="138.93482" y="90.270269" style="fill: #068583; fill-opacity: 0.8; stroke: #068583; stroke-opacity: 0.8"/>
     <use xlink:href="#mdf2148bcde" x="123.336195" y="48.455788" style="fill: #068583; fill-opacity: 0.8; stroke: #068583; stroke-opacity: 0.8"/>
     <use xlink:href="#mdf2148bcde" x="145.308652" y="140.560193" style="fill: #068583; fill-opacity: 0.8; stroke: #068583; stroke-opacity: 0.8"/>
     <use xlink:href="#mdf2148bcde" x="142.50653" y="127.651933" style="fill: #068583; fill-opacity: 0.8; stroke: #068583; stroke-opacity: 0.8"/>
     <use xlink:href="#mdf2148bcde" x="125.787832" y="83.445853" style="fill: #068583; fill-opacity: 0.8; stroke: #068583; stroke-opacity: 0.8"/>
     <use xlink:href="#mdf2148bcde" x="117.515795" y="44.041551" style="fill: #068583; fill-opacity: 0.8; stroke: #068583; stroke-opacity: 0.8"/>
     <use xlink:href="#mdf2148bcde" x="132.266162" y="115.739066" style="fill: #068583; fill-opacity: 0.8; stroke: #068583; stroke-opacity: 0.8"/>
     <use xlink:href="#mdf2148bcde" x="120.769001" y="154.652307" style="fill: #068583; fill-opacity: 0.8; stroke: #068583; stroke-opacity: 0.8"/>
     <use xlink:href="#mdf2148bcde" x="118.494944" y="123.789807" style="fill: #068583; fill-opacity: 0.8; stroke: #068583; stroke-opacity: 0.8"/>
     <use xlink:href="#mdf2148bcde" x="116.345178" y="104.694182" style="fill: #068583; fill-opacity: 0.8; stroke: #068583; stroke-opacity: 0.8"/>
     <use xlink:href="#mdf2148bcde" x="112.656617" y="139.453315" style="fill: #068583; fill-opacity: 0.8; stroke: #068583; stroke-opacity: 0.8"/>
     <use xlink:href="#mdf2148bcde" x="124.713208" y="165.999791" style="fill: #068583; fill-opacity: 0.8; stroke: #068583; stroke-opacity: 0.8"/>
     <use xlink:href="#mdf2148bcde" x="115.123845" y="127.150254" style="fill: #068583; fill-opacity: 0.8; stroke: #068583; stroke-opacity: 0.8"/>
     <use xlink:href="#mdf2148bcde" x="113.668267" y="118.388139" style="fill: #068583; fill-opacity: 0.8; stroke: #068583; stroke-opacity: 0.8"/>
     <use xlink:href="#mdf2148bcde" x="162.223841" y="125.201938" style="fill: #068583; fill-opacity: 0.8; stroke: #068583; stroke-opacity: 0.8"/>
     <use xlink:href="#mdf2148bcde" x="133.385265" y="143.347294" style="fill: #068583; fill-opacity: 0.8; stroke: #068583; stroke-opacity: 0.8"/>
     <use xlink:href="#mdf2148bcde" x="107.137338" y="83.777651" style="fill: #068583; fill-opacity: 0.8; stroke: #068583; stroke-opacity: 0.8"/>
     <use xlink:href="#mdf2148bcde" x="69.344979" y="114.082731" style="fill: #068583; fill-opacity: 0.8; stroke: #068583; stroke-opacity: 0.8"/>
    </g>
   </g>
   <g id="PolyCollection_1">
    <path d="M 69.344979 56.777051 
L 69.344979 121.218952 
L 70.553875 121.194602 
L 71.762772 121.223849 
L 72.971669 121.268741 
L 74.180566 121.313633 
L 75.389462 121.358525 
L 76.598359 121.403417 
L 77.807256 121.447717 
L 79.016153 121.491437 
L 80.225049 121.565261 
L 81.433946 121.666081 
L 82.642843 121.713523 
L 83.85174 121.760965 
L 85.060637 121.808407 
L 86.269533 121.855849 
L 87.47843 121.903291 
L 88.687327 121.948265 
L 89.896224 121.991945 
L 91.10512 122.035625 
L 92.314017 122.079305 
L 93.522914 122.122985 
L 94.731811 122.166665 
L 95.940707 122.23425 
L 97.149604 122.37734 
L 98.358501 122.520284 
L 99.567398 122.631003 
L 100.776294 122.672216 
L 101.985191 122.673501 
L 103.194088 122.567149 
L 104.402985 122.518568 
L 105.611881 122.587055 
L 106.820778 122.655542 
L 108.029675 122.722669 
L 109.238572 122.733072 
L 110.447468 123.000556 
L 111.656365 123.131494 
L 112.865262 123.143468 
L 114.074159 123.147388 
L 115.283056 123.154723 
L 116.491952 123.381226 
L 117.700849 123.309799 
L 118.909746 123.354245 
L 120.118643 123.259944 
L 121.327539 123.164151 
L 122.536436 123.189683 
L 123.745333 123.355588 
L 124.95423 123.544241 
L 126.163126 123.732894 
L 127.372023 123.851397 
L 128.58092 123.933469 
L 129.789817 124.051748 
L 130.998713 124.156985 
L 132.20761 124.402938 
L 133.416507 124.642357 
L 134.625404 125.034879 
L 135.8343 125.258984 
L 137.043197 125.429373 
L 138.252094 125.656167 
L 139.460991 126.159534 
L 140.669888 126.362978 
L 141.878784 126.44614 
L 143.087681 126.5392 
L 144.296578 126.9402 
L 145.505475 127.157948 
L 146.714371 127.42198 
L 147.923268 127.860028 
L 149.132165 128.39518 
L 150.341062 128.835587 
L 151.549958 129.37092 
L 152.758855 129.819898 
L 153.967752 130.238107 
L 155.176649 130.561417 
L 156.385545 130.888193 
L 157.594442 131.407151 
L 158.803339 131.870584 
L 160.012236 132.691039 
L 161.221132 133.690036 
L 162.430029 134.600289 
L 163.638926 135.349917 
L 164.847823 136.061383 
L 166.056719 136.844495 
L 167.265616 137.444796 
L 168.474513 138.037109 
L 169.68341 138.697486 
L 170.892307 139.537134 
L 172.101203 140.483891 
L 173.3101 141.228003 
L 174.518997 141.870613 
L 175.727894 142.711773 
L 176.93679 143.763816 
L 178.145687 144.398552 
L 179.354584 145.248373 
L 180.563481 146.085589 
L 181.772377 147.020817 
L 182.981274 147.954481 
L 184.190171 148.837479 
L 185.399068 149.685286 
L 186.607964 150.533092 
L 187.816861 151.380899 
L 189.025758 152.228705 
L 189.025758 110.579089 
L 189.025758 110.579089 
L 187.816861 110.563058 
L 186.607964 110.411904 
L 185.399068 110.214983 
L 184.190171 109.998346 
L 182.981274 109.782232 
L 181.772377 109.566119 
L 180.563481 109.480698 
L 179.354584 109.4189 
L 178.145687 109.353826 
L 176.93679 109.171022 
L 175.727894 108.958303 
L 174.518997 108.745584 
L 173.3101 108.529352 
L 172.101203 108.258766 
L 170.892307 108.100763 
L 169.68341 107.88122 
L 168.474513 107.666473 
L 167.265616 107.455818 
L 166.056719 107.25581 
L 164.847823 107.110434 
L 163.638926 106.935322 
L 162.430029 106.708225 
L 161.221132 106.381042 
L 160.012236 106.155677 
L 158.803339 106.053408 
L 157.594442 105.842609 
L 156.385545 105.519195 
L 155.176649 105.374815 
L 153.967752 105.178743 
L 152.758855 104.874051 
L 151.549958 104.657903 
L 150.341062 104.218079 
L 149.132165 103.820558 
L 147.923268 103.531889 
L 146.714371 103.403033 
L 145.505475 103.007852 
L 144.296578 102.802911 
L 143.087681 102.51584 
L 141.878784 102.323739 
L 140.669888 101.980939 
L 139.460991 101.560025 
L 138.252094 101.000882 
L 137.043197 100.168018 
L 135.8343 99.899581 
L 134.625404 99.6588 
L 133.416507 98.933574 
L 132.20761 98.530102 
L 130.998713 98.13856 
L 129.789817 97.703782 
L 128.58092 97.169019 
L 127.372023 96.716237 
L 126.163126 96.108431 
L 124.95423 95.390061 
L 123.745333 94.648357 
L 122.536436 93.831046 
L 121.327539 93.18579 
L 120.118643 92.457974 
L 118.909746 91.752354 
L 117.700849 90.999827 
L 116.491952 90.466146 
L 115.283056 89.538552 
L 114.074159 88.873813 
L 112.865262 88.078911 
L 111.656365 87.349357 
L 110.447468 86.657657 
L 109.238572 86.099405 
L 108.029675 85.327301 
L 106.820778 84.425309 
L 105.611881 83.696753 
L 104.402985 82.970565 
L 103.194088 82.234615 
L 101.985191 81.498665 
L 100.776294 80.645592 
L 99.567398 79.652564 
L 98.358501 78.663876 
L 97.149604 77.675187 
L 95.940707 76.686499 
L 94.731811 75.803315 
L 93.522914 75.004013 
L 92.314017 74.20534 
L 91.10512 73.34817 
L 89.896224 72.607273 
L 88.687327 71.773517 
L 87.47843 70.939261 
L 86.269533 69.968873 
L 85.060637 68.95287 
L 83.85174 67.936867 
L 82.642843 66.920863 
L 81.433946 65.90486 
L 80.225049 64.889831 
L 79.016153 63.877705 
L 77.807256 62.885861 
L 76.598359 62.010977 
L 75.389462 61.038591 
L 74.180566 60.155904 
L 72.971669 59.391421 
L 71.762772 58.519964 
L 70.553875 57.648507 
L 69.344979 56.777051 
z
" clip-path="url(#p36b202a400)" style="fill: #068583; fill-opacity: 0.15"/>
   </g>
   <g id="matplotlib.axis_1">
    <g id="xtick_1">
     <g id="line2d_1">
      <defs>
       <path id="mf0e2aa1f21" d="M 0 0 
L 0 3.5 
" style="stroke: #000000; stroke-width: 0.8"/>
      </defs>
      <g>
       <use xlink:href="#mf0e2aa1f21" x="71.705399" y="185.398125" style="stroke: #000000; stroke-width: 0.8"/>
      </g>
     </g>
     <g id="text_1">
      <!-- 3000 -->
      <g transform="translate(58.980399 199.996563)scale(0.1 -0.1)">
       <defs>
        <path id="DejaVuSans-33" d="M 2597 2516 
Q 3050 2419 3304 2112 
Q 3559 1806 3559 1356 
Q 3559 666 3084 287 
Q 2609 -91 1734 -91 
Q 1441 -91 1130 -33 
Q 819 25 488 141 
L 488 750 
Q 750 597 1062 519 
Q 1375 441 1716 441 
Q 2309 441 2620 675 
Q 2931 909 2931 1356 
Q 2931 1769 2642 2001 
Q 2353 2234 1838 2234 
L 1294 2234 
L 1294 2753 
L 1863 2753 
Q 2328 2753 2575 2939 
Q 2822 3125 2822 3475 
Q 2822 3834 2567 4026 
Q 2313 4219 1838 4219 
Q 1578 4219 1281 4162 
Q 984 4106 628 3988 
L 628 4550 
Q 988 4650 1302 4700 
Q 1616 4750 1894 4750 
Q 2613 4750 3031 4423 
Q 3450 4097 3450 3541 
Q 3450 3153 3228 2886 
Q 3006 2619 2597 2516 
z
" transform="scale(0.015625)"/>
        <path id="DejaVuSans-30" d="M 2034 4250 
Q 1547 4250 1301 3770 
Q 1056 3291 1056 2328 
Q 1056 1369 1301 889 
Q 1547 409 2034 409 
Q 2525 409 2770 889 
Q 3016 1369 3016 2328 
Q 3016 3291 2770 3770 
Q 2525 4250 2034 4250 
z
M 2034 4750 
Q 2819 4750 3233 4129 
Q 3647 3509 3647 2328 
Q 3647 1150 3233 529 
Q 2819 -91 2034 -91 
Q 1250 -91 836 529 
Q 422 1150 422 2328 
Q 422 3509 836 4129 
Q 1250 4750 2034 4750 
z
" transform="scale(0.015625)"/>
       </defs>
       <use xlink:href="#DejaVuSans-33"/>
       <use xlink:href="#DejaVuSans-30" x="63.623047"/>
       <use xlink:href="#DejaVuSans-30" x="127.246094"/>
       <use xlink:href="#DejaVuSans-30" x="190.869141"/>
      </g>
     </g>
    </g>
    <g id="xtick_2">
     <g id="line2d_2">
      <g>
       <use xlink:href="#mf0e2aa1f21" x="129.249481" y="185.398125" style="stroke: #000000; stroke-width: 0.8"/>
      </g>
     </g>
     <g id="text_2">
      <!-- 4000 -->
      <g transform="translate(116.524481 199.996563)scale(0.1 -0.1)">
       <defs>
        <path id="DejaVuSans-34" d="M 2419 4116 
L 825 1625 
L 2419 1625 
L 2419 4116 
z
M 2253 4666 
L 3047 4666 
L 3047 1625 
L 3713 1625 
L 3713 1100 
L 3047 1100 
L 3047 0 
L 2419 0 
L 2419 1100 
L 313 1100 
L 313 1709 
L 2253 4666 
z
" transform="scale(0.015625)"/>
       </defs>
       <use xlink:href="#DejaVuSans-34"/>
       <use xlink:href="#DejaVuSans-30" x="63.623047"/>
       <use xlink:href="#DejaVuSans-30" x="127.246094"/>
       <use xlink:href="#DejaVuSans-30" x="190.869141"/>
      </g>
     </g>
    </g>
    <g id="xtick_3">
     <g id="line2d_3">
      <g>
       <use xlink:href="#mf0e2aa1f21" x="186.793563" y="185.398125" style="stroke: #000000; stroke-width: 0.8"/>
      </g>
     </g>
     <g id="text_3">
      <!-- 5000 -->
      <g transform="translate(174.068563 199.996563)scale(0.1 -0.1)">
       <defs>
        <path id="DejaVuSans-35" d="M 691 4666 
L 3169 4666 
L 3169 4134 
L 1269 4134 
L 1269 2991 
Q 1406 3038 1543 3061 
Q 1681 3084 1819 3084 
Q 2600 3084 3056 2656 
Q 3513 2228 3513 1497 
Q 3513 744 3044 326 
Q 2575 -91 1722 -91 
Q 1428 -91 1123 -41 
Q 819 9 494 109 
L 494 744 
Q 775 591 1075 516 
Q 1375 441 1709 441 
Q 2250 441 2565 725 
Q 2881 1009 2881 1497 
Q 2881 1984 2565 2268 
Q 2250 2553 1709 2553 
Q 1456 2553 1204 2497 
Q 953 2441 691 2322 
L 691 4666 
z
" transform="scale(0.015625)"/>
       </defs>
       <use xlink:href="#DejaVuSans-35"/>
       <use xlink:href="#DejaVuSans-30" x="63.623047"/>
       <use xlink:href="#DejaVuSans-30" x="127.246094"/>
       <use xlink:href="#DejaVuSans-30" x="190.869141"/>
      </g>
     </g>
    </g>
    <g id="text_4">
     <!-- mRuby2, 14 dpi -->
     <g transform="translate(102.393125 213.674688)scale(0.1 -0.1)">
      <defs>
       <path id="DejaVuSans-6d" d="M 3328 2828 
Q 3544 3216 3844 3400 
Q 4144 3584 4550 3584 
Q 5097 3584 5394 3201 
Q 5691 2819 5691 2113 
L 5691 0 
L 5113 0 
L 5113 2094 
Q 5113 2597 4934 2840 
Q 4756 3084 4391 3084 
Q 3944 3084 3684 2787 
Q 3425 2491 3425 1978 
L 3425 0 
L 2847 0 
L 2847 2094 
Q 2847 2600 2669 2842 
Q 2491 3084 2119 3084 
Q 1678 3084 1418 2786 
Q 1159 2488 1159 1978 
L 1159 0 
L 581 0 
L 581 3500 
L 1159 3500 
L 1159 2956 
Q 1356 3278 1631 3431 
Q 1906 3584 2284 3584 
Q 2666 3584 2933 3390 
Q 3200 3197 3328 2828 
z
" transform="scale(0.015625)"/>
       <path id="DejaVuSans-52" d="M 2841 2188 
Q 3044 2119 3236 1894 
Q 3428 1669 3622 1275 
L 4263 0 
L 3584 0 
L 2988 1197 
Q 2756 1666 2539 1819 
Q 2322 1972 1947 1972 
L 1259 1972 
L 1259 0 
L 628 0 
L 628 4666 
L 2053 4666 
Q 2853 4666 3247 4331 
Q 3641 3997 3641 3322 
Q 3641 2881 3436 2590 
Q 3231 2300 2841 2188 
z
M 1259 4147 
L 1259 2491 
L 2053 2491 
Q 2509 2491 2742 2702 
Q 2975 2913 2975 3322 
Q 2975 3731 2742 3939 
Q 2509 4147 2053 4147 
L 1259 4147 
z
" transform="scale(0.015625)"/>
       <path id="DejaVuSans-75" d="M 544 1381 
L 544 3500 
L 1119 3500 
L 1119 1403 
Q 1119 906 1312 657 
Q 1506 409 1894 409 
Q 2359 409 2629 706 
Q 2900 1003 2900 1516 
L 2900 3500 
L 3475 3500 
L 3475 0 
L 2900 0 
L 2900 538 
Q 2691 219 2414 64 
Q 2138 -91 1772 -91 
Q 1169 -91 856 284 
Q 544 659 544 1381 
z
M 1991 3584 
L 1991 3584 
z
" transform="scale(0.015625)"/>
       <path id="DejaVuSans-62" d="M 3116 1747 
Q 3116 2381 2855 2742 
Q 2594 3103 2138 3103 
Q 1681 3103 1420 2742 
Q 1159 2381 1159 1747 
Q 1159 1113 1420 752 
Q 1681 391 2138 391 
Q 2594 391 2855 752 
Q 3116 1113 3116 1747 
z
M 1159 2969 
Q 1341 3281 1617 3432 
Q 1894 3584 2278 3584 
Q 2916 3584 3314 3078 
Q 3713 2572 3713 1747 
Q 3713 922 3314 415 
Q 2916 -91 2278 -91 
Q 1894 -91 1617 61 
Q 1341 213 1159 525 
L 1159 0 
L 581 0 
L 581 4863 
L 1159 4863 
L 1159 2969 
z
" transform="scale(0.015625)"/>
       <path id="DejaVuSans-79" d="M 2059 -325 
Q 1816 -950 1584 -1140 
Q 1353 -1331 966 -1331 
L 506 -1331 
L 506 -850 
L 844 -850 
Q 1081 -850 1212 -737 
Q 1344 -625 1503 -206 
L 1606 56 
L 191 3500 
L 800 3500 
L 1894 763 
L 2988 3500 
L 3597 3500 
L 2059 -325 
z
" transform="scale(0.015625)"/>
       <path id="DejaVuSans-32" d="M 1228 531 
L 3431 531 
L 3431 0 
L 469 0 
L 469 531 
Q 828 903 1448 1529 
Q 2069 2156 2228 2338 
Q 2531 2678 2651 2914 
Q 2772 3150 2772 3378 
Q 2772 3750 2511 3984 
Q 2250 4219 1831 4219 
Q 1534 4219 1204 4116 
Q 875 4013 500 3803 
L 500 4441 
Q 881 4594 1212 4672 
Q 1544 4750 1819 4750 
Q 2544 4750 2975 4387 
Q 3406 4025 3406 3419 
Q 3406 3131 3298 2873 
Q 3191 2616 2906 2266 
Q 2828 2175 2409 1742 
Q 1991 1309 1228 531 
z
" transform="scale(0.015625)"/>
       <path id="DejaVuSans-2c" d="M 750 794 
L 1409 794 
L 1409 256 
L 897 -744 
L 494 -744 
L 750 256 
L 750 794 
z
" transform="scale(0.015625)"/>
       <path id="DejaVuSans-20" transform="scale(0.015625)"/>
       <path id="DejaVuSans-31" d="M 794 531 
L 1825 531 
L 1825 4091 
L 703 3866 
L 703 4441 
L 1819 4666 
L 2450 4666 
L 2450 531 
L 3481 531 
L 3481 0 
L 794 0 
L 794 531 
z
" transform="scale(0.015625)"/>
       <path id="DejaVuSans-64" d="M 2906 2969 
L 2906 4863 
L 3481 4863 
L 3481 0 
L 2906 0 
L 2906 525 
Q 2725 213 2448 61 
Q 2172 -91 1784 -91 
Q 1150 -91 751 415 
Q 353 922 353 1747 
Q 353 2572 751 3078 
Q 1150 3584 1784 3584 
Q 2172 3584 2448 3432 
Q 2725 3281 2906 2969 
z
M 947 1747 
Q 947 1113 1208 752 
Q 1469 391 1925 391 
Q 2381 391 2643 752 
Q 2906 1113 2906 1747 
Q 2906 2381 2643 2742 
Q 2381 3103 1925 3103 
Q 1469 3103 1208 2742 
Q 947 2381 947 1747 
z
" transform="scale(0.015625)"/>
       <path id="DejaVuSans-70" d="M 1159 525 
L 1159 -1331 
L 581 -1331 
L 581 3500 
L 1159 3500 
L 1159 2969 
Q 1341 3281 1617 3432 
Q 1894 3584 2278 3584 
Q 2916 3584 3314 3078 
Q 3713 2572 3713 1747 
Q 3713 922 3314 415 
Q 2916 -91 2278 -91 
Q 1894 -91 1617 61 
Q 1341 213 1159 525 
z
M 3116 1747 
Q 3116 2381 2855 2742 
Q 2594 3103 2138 3103 
Q 1681 3103 1420 2742 
Q 1159 2381 1159 1747 
Q 1159 1113 1420 752 
Q 1681 391 2138 391 
Q 2594 391 2855 752 
Q 3116 1113 3116 1747 
z
" transform="scale(0.015625)"/>
       <path id="DejaVuSans-69" d="M 603 3500 
L 1178 3500 
L 1178 0 
L 603 0 
L 603 3500 
z
M 603 4863 
L 1178 4863 
L 1178 4134 
L 603 4134 
L 603 4863 
z
" transform="scale(0.015625)"/>
      </defs>
      <use xlink:href="#DejaVuSans-6d"/>
      <use xlink:href="#DejaVuSans-52" x="97.412109"/>
      <use xlink:href="#DejaVuSans-75" x="162.394531"/>
      <use xlink:href="#DejaVuSans-62" x="225.773438"/>
      <use xlink:href="#DejaVuSans-79" x="289.25"/>
      <use xlink:href="#DejaVuSans-32" x="348.429688"/>
      <use xlink:href="#DejaVuSans-2c" x="412.052734"/>
      <use xlink:href="#DejaVuSans-20" x="443.839844"/>
      <use xlink:href="#DejaVuSans-31" x="475.626953"/>
      <use xlink:href="#DejaVuSans-34" x="539.25"/>
      <use xlink:href="#DejaVuSans-20" x="602.873047"/>
      <use xlink:href="#DejaVuSans-64" x="634.660156"/>
      <use xlink:href="#DejaVuSans-70" x="698.136719"/>
      <use xlink:href="#DejaVuSans-69" x="761.613281"/>
     </g>
     <!-- (gmean) -->
     <g transform="translate(120.607969 224.8725)scale(0.1 -0.1)">
      <defs>
       <path id="DejaVuSans-28" d="M 1984 4856 
Q 1566 4138 1362 3434 
Q 1159 2731 1159 2009 
Q 1159 1288 1364 580 
Q 1569 -128 1984 -844 
L 1484 -844 
Q 1016 -109 783 600 
Q 550 1309 550 2009 
Q 550 2706 781 3412 
Q 1013 4119 1484 4856 
L 1984 4856 
z
" transform="scale(0.015625)"/>
       <path id="DejaVuSans-67" d="M 2906 1791 
Q 2906 2416 2648 2759 
Q 2391 3103 1925 3103 
Q 1463 3103 1205 2759 
Q 947 2416 947 1791 
Q 947 1169 1205 825 
Q 1463 481 1925 481 
Q 2391 481 2648 825 
Q 2906 1169 2906 1791 
z
M 3481 434 
Q 3481 -459 3084 -895 
Q 2688 -1331 1869 -1331 
Q 1566 -1331 1297 -1286 
Q 1028 -1241 775 -1147 
L 775 -588 
Q 1028 -725 1275 -790 
Q 1522 -856 1778 -856 
Q 2344 -856 2625 -561 
Q 2906 -266 2906 331 
L 2906 616 
Q 2728 306 2450 153 
Q 2172 0 1784 0 
Q 1141 0 747 490 
Q 353 981 353 1791 
Q 353 2603 747 3093 
Q 1141 3584 1784 3584 
Q 2172 3584 2450 3431 
Q 2728 3278 2906 2969 
L 2906 3500 
L 3481 3500 
L 3481 434 
z
" transform="scale(0.015625)"/>
       <path id="DejaVuSans-65" d="M 3597 1894 
L 3597 1613 
L 953 1613 
Q 991 1019 1311 708 
Q 1631 397 2203 397 
Q 2534 397 2845 478 
Q 3156 559 3463 722 
L 3463 178 
Q 3153 47 2828 -22 
Q 2503 -91 2169 -91 
Q 1331 -91 842 396 
Q 353 884 353 1716 
Q 353 2575 817 3079 
Q 1281 3584 2069 3584 
Q 2775 3584 3186 3129 
Q 3597 2675 3597 1894 
z
M 3022 2063 
Q 3016 2534 2758 2815 
Q 2500 3097 2075 3097 
Q 1594 3097 1305 2825 
Q 1016 2553 972 2059 
L 3022 2063 
z
" transform="scale(0.015625)"/>
       <path id="DejaVuSans-61" d="M 2194 1759 
Q 1497 1759 1228 1600 
Q 959 1441 959 1056 
Q 959 750 1161 570 
Q 1363 391 1709 391 
Q 2188 391 2477 730 
Q 2766 1069 2766 1631 
L 2766 1759 
L 2194 1759 
z
M 3341 1997 
L 3341 0 
L 2766 0 
L 2766 531 
Q 2569 213 2275 61 
Q 1981 -91 1556 -91 
Q 1019 -91 701 211 
Q 384 513 384 1019 
Q 384 1609 779 1909 
Q 1175 2209 1959 2209 
L 2766 2209 
L 2766 2266 
Q 2766 2663 2505 2880 
Q 2244 3097 1772 3097 
Q 1472 3097 1187 3025 
Q 903 2953 641 2809 
L 641 3341 
Q 956 3463 1253 3523 
Q 1550 3584 1831 3584 
Q 2591 3584 2966 3190 
Q 3341 2797 3341 1997 
z
" transform="scale(0.015625)"/>
       <path id="DejaVuSans-6e" d="M 3513 2113 
L 3513 0 
L 2938 0 
L 2938 2094 
Q 2938 2591 2744 2837 
Q 2550 3084 2163 3084 
Q 1697 3084 1428 2787 
Q 1159 2491 1159 1978 
L 1159 0 
L 581 0 
L 581 3500 
L 1159 3500 
L 1159 2956 
Q 1366 3272 1645 3428 
Q 1925 3584 2291 3584 
Q 2894 3584 3203 3211 
Q 3513 2838 3513 2113 
z
" transform="scale(0.015625)"/>
       <path id="DejaVuSans-29" d="M 513 4856 
L 1013 4856 
Q 1481 4119 1714 3412 
Q 1947 2706 1947 2009 
Q 1947 1309 1714 600 
Q 1481 -109 1013 -844 
L 513 -844 
Q 928 -128 1133 580 
Q 1338 1288 1338 2009 
Q 1338 2731 1133 3434 
Q 928 4138 513 4856 
z
" transform="scale(0.015625)"/>
      </defs>
      <use xlink:href="#DejaVuSans-28"/>
      <use xlink:href="#DejaVuSans-67" x="39.013672"/>
      <use xlink:href="#DejaVuSans-6d" x="102.490234"/>
      <use xlink:href="#DejaVuSans-65" x="199.902344"/>
      <use xlink:href="#DejaVuSans-61" x="261.425781"/>
      <use xlink:href="#DejaVuSans-6e" x="322.705078"/>
      <use xlink:href="#DejaVuSans-29" x="386.083984"/>
     </g>
    </g>
   </g>
   <g id="matplotlib.axis_2">
    <g id="ytick_1">
     <g id="line2d_4">
      <defs>
       <path id="m0f60cb834f" d="M 0 0 
L -3.5 0 
" style="stroke: #000000; stroke-width: 0.8"/>
      </defs>
      <g>
       <use xlink:href="#m0f60cb834f" x="58.163438" y="168.911648" style="stroke: #000000; stroke-width: 0.8"/>
      </g>
     </g>
     <g id="text_5">
      <!-- 100 -->
      <g transform="translate(32.075937 172.710867)scale(0.1 -0.1)">
       <use xlink:href="#DejaVuSans-31"/>
       <use xlink:href="#DejaVuSans-30" x="63.623047"/>
       <use xlink:href="#DejaVuSans-30" x="127.246094"/>
      </g>
     </g>
    </g>
    <g id="ytick_2">
     <g id="line2d_5">
      <g>
       <use xlink:href="#m0f60cb834f" x="58.163438" y="129.095916" style="stroke: #000000; stroke-width: 0.8"/>
      </g>
     </g>
     <g id="text_6">
      <!-- 150 -->
      <g transform="translate(32.075937 132.895135)scale(0.1 -0.1)">
       <use xlink:href="#DejaVuSans-31"/>
       <use xlink:href="#DejaVuSans-35" x="63.623047"/>
       <use xlink:href="#DejaVuSans-30" x="127.246094"/>
      </g>
     </g>
    </g>
    <g id="ytick_3">
     <g id="line2d_6">
      <g>
       <use xlink:href="#m0f60cb834f" x="58.163438" y="89.280185" style="stroke: #000000; stroke-width: 0.8"/>
      </g>
     </g>
     <g id="text_7">
      <!-- 200 -->
      <g transform="translate(32.075937 93.079404)scale(0.1 -0.1)">
       <use xlink:href="#DejaVuSans-32"/>
       <use xlink:href="#DejaVuSans-30" x="63.623047"/>
       <use xlink:href="#DejaVuSans-30" x="127.246094"/>
      </g>
     </g>
    </g>
    <g id="ytick_4">
     <g id="line2d_7">
      <g>
       <use xlink:href="#m0f60cb834f" x="58.163438" y="49.464453" style="stroke: #000000; stroke-width: 0.8"/>
      </g>
     </g>
     <g id="text_8">
      <!-- 250 -->
      <g transform="translate(32.075937 53.263672)scale(0.1 -0.1)">
       <use xlink:href="#DejaVuSans-32"/>
       <use xlink:href="#DejaVuSans-35" x="63.623047"/>
       <use xlink:href="#DejaVuSans-30" x="127.246094"/>
      </g>
     </g>
    </g>
    <g id="text_9">
     <!-- (%) iMN yield -->
     <g transform="translate(14.798437 137.120625)rotate(-90)scale(0.1 -0.1)">
      <defs>
       <path id="DejaVuSans-25" d="M 4653 2053 
Q 4381 2053 4226 1822 
Q 4072 1591 4072 1178 
Q 4072 772 4226 539 
Q 4381 306 4653 306 
Q 4919 306 5073 539 
Q 5228 772 5228 1178 
Q 5228 1588 5073 1820 
Q 4919 2053 4653 2053 
z
M 4653 2450 
Q 5147 2450 5437 2106 
Q 5728 1763 5728 1178 
Q 5728 594 5436 251 
Q 5144 -91 4653 -91 
Q 4153 -91 3862 251 
Q 3572 594 3572 1178 
Q 3572 1766 3864 2108 
Q 4156 2450 4653 2450 
z
M 1428 4353 
Q 1159 4353 1004 4120 
Q 850 3888 850 3481 
Q 850 3069 1003 2837 
Q 1156 2606 1428 2606 
Q 1700 2606 1854 2837 
Q 2009 3069 2009 3481 
Q 2009 3884 1853 4118 
Q 1697 4353 1428 4353 
z
M 4250 4750 
L 4750 4750 
L 1831 -91 
L 1331 -91 
L 4250 4750 
z
M 1428 4750 
Q 1922 4750 2215 4408 
Q 2509 4066 2509 3481 
Q 2509 2891 2217 2550 
Q 1925 2209 1428 2209 
Q 931 2209 642 2551 
Q 353 2894 353 3481 
Q 353 4063 643 4406 
Q 934 4750 1428 4750 
z
" transform="scale(0.015625)"/>
       <path id="DejaVuSans-4d" d="M 628 4666 
L 1569 4666 
L 2759 1491 
L 3956 4666 
L 4897 4666 
L 4897 0 
L 4281 0 
L 4281 4097 
L 3078 897 
L 2444 897 
L 1241 4097 
L 1241 0 
L 628 0 
L 628 4666 
z
" transform="scale(0.015625)"/>
       <path id="DejaVuSans-4e" d="M 628 4666 
L 1478 4666 
L 3547 763 
L 3547 4666 
L 4159 4666 
L 4159 0 
L 3309 0 
L 1241 3903 
L 1241 0 
L 628 0 
L 628 4666 
z
" transform="scale(0.015625)"/>
       <path id="DejaVuSans-6c" d="M 603 4863 
L 1178 4863 
L 1178 0 
L 603 0 
L 603 4863 
z
" transform="scale(0.015625)"/>
      </defs>
      <use xlink:href="#DejaVuSans-28"/>
      <use xlink:href="#DejaVuSans-25" x="39.013672"/>
      <use xlink:href="#DejaVuSans-29" x="134.033203"/>
      <use xlink:href="#DejaVuSans-20" x="173.046875"/>
      <use xlink:href="#DejaVuSans-69" x="204.833984"/>
      <use xlink:href="#DejaVuSans-4d" x="232.617188"/>
      <use xlink:href="#DejaVuSans-4e" x="318.896484"/>
      <use xlink:href="#DejaVuSans-20" x="393.701172"/>
      <use xlink:href="#DejaVuSans-79" x="425.488281"/>
      <use xlink:href="#DejaVuSans-69" x="484.667969"/>
      <use xlink:href="#DejaVuSans-65" x="512.451172"/>
      <use xlink:href="#DejaVuSans-6c" x="573.974609"/>
      <use xlink:href="#DejaVuSans-64" x="601.757812"/>
     </g>
     <!-- per MEF plated -->
     <g transform="translate(25.99625 141.53)rotate(-90)scale(0.1 -0.1)">
      <defs>
       <path id="DejaVuSans-72" d="M 2631 2963 
Q 2534 3019 2420 3045 
Q 2306 3072 2169 3072 
Q 1681 3072 1420 2755 
Q 1159 2438 1159 1844 
L 1159 0 
L 581 0 
L 581 3500 
L 1159 3500 
L 1159 2956 
Q 1341 3275 1631 3429 
Q 1922 3584 2338 3584 
Q 2397 3584 2469 3576 
Q 2541 3569 2628 3553 
L 2631 2963 
z
" transform="scale(0.015625)"/>
       <path id="DejaVuSans-45" d="M 628 4666 
L 3578 4666 
L 3578 4134 
L 1259 4134 
L 1259 2753 
L 3481 2753 
L 3481 2222 
L 1259 2222 
L 1259 531 
L 3634 531 
L 3634 0 
L 628 0 
L 628 4666 
z
" transform="scale(0.015625)"/>
       <path id="DejaVuSans-46" d="M 628 4666 
L 3309 4666 
L 3309 4134 
L 1259 4134 
L 1259 2759 
L 3109 2759 
L 3109 2228 
L 1259 2228 
L 1259 0 
L 628 0 
L 628 4666 
z
" transform="scale(0.015625)"/>
       <path id="DejaVuSans-74" d="M 1172 4494 
L 1172 3500 
L 2356 3500 
L 2356 3053 
L 1172 3053 
L 1172 1153 
Q 1172 725 1289 603 
Q 1406 481 1766 481 
L 2356 481 
L 2356 0 
L 1766 0 
Q 1100 0 847 248 
Q 594 497 594 1153 
L 594 3053 
L 172 3053 
L 172 3500 
L 594 3500 
L 594 4494 
L 1172 4494 
z
" transform="scale(0.015625)"/>
      </defs>
      <use xlink:href="#DejaVuSans-70"/>
      <use xlink:href="#DejaVuSans-65" x="63.476562"/>
      <use xlink:href="#DejaVuSans-72" x="125"/>
      <use xlink:href="#DejaVuSans-20" x="166.113281"/>
      <use xlink:href="#DejaVuSans-4d" x="197.900391"/>
      <use xlink:href="#DejaVuSans-45" x="284.179688"/>
      <use xlink:href="#DejaVuSans-46" x="347.363281"/>
      <use xlink:href="#DejaVuSans-20" x="404.882812"/>
      <use xlink:href="#DejaVuSans-70" x="436.669922"/>
      <use xlink:href="#DejaVuSans-6c" x="500.146484"/>
      <use xlink:href="#DejaVuSans-61" x="527.929688"/>
      <use xlink:href="#DejaVuSans-74" x="589.208984"/>
      <use xlink:href="#DejaVuSans-65" x="628.417969"/>
      <use xlink:href="#DejaVuSans-64" x="689.941406"/>
     </g>
    </g>
   </g>
   <g id="line2d_8">
    <path d="M 69.344979 94.385094 
L 70.553875 94.720692 
L 71.762772 95.056289 
L 72.971669 95.391886 
L 74.180566 95.727484 
L 75.389462 96.063081 
L 76.598359 96.398679 
L 77.807256 96.734276 
L 79.016153 97.069873 
L 80.225049 97.405471 
L 81.433946 97.741068 
L 82.642843 98.076666 
L 83.85174 98.412263 
L 85.060637 98.74786 
L 86.269533 99.083458 
L 87.47843 99.419055 
L 88.687327 99.754653 
L 89.896224 100.09025 
L 91.10512 100.425847 
L 92.314017 100.761445 
L 93.522914 101.097042 
L 94.731811 101.43264 
L 95.940707 101.768237 
L 97.149604 102.103834 
L 98.358501 102.439432 
L 99.567398 102.775029 
L 100.776294 103.110627 
L 101.985191 103.446224 
L 103.194088 103.781821 
L 104.402985 104.117419 
L 105.611881 104.453016 
L 106.820778 104.788614 
L 108.029675 105.124211 
L 109.238572 105.459808 
L 110.447468 105.795406 
L 111.656365 106.131003 
L 112.865262 106.4666 
L 114.074159 106.802198 
L 115.283056 107.137795 
L 116.491952 107.473393 
L 117.700849 107.80899 
L 118.909746 108.144587 
L 120.118643 108.480185 
L 121.327539 108.815782 
L 122.536436 109.15138 
L 123.745333 109.486977 
L 124.95423 109.822574 
L 126.163126 110.158172 
L 127.372023 110.493769 
L 128.58092 110.829367 
L 129.789817 111.164964 
L 130.998713 111.500561 
L 132.20761 111.836159 
L 133.416507 112.171756 
L 134.625404 112.507354 
L 135.8343 112.842951 
L 137.043197 113.178548 
L 138.252094 113.514146 
L 139.460991 113.849743 
L 140.669888 114.185341 
L 141.878784 114.520938 
L 143.087681 114.856535 
L 144.296578 115.192133 
L 145.505475 115.52773 
L 146.714371 115.863328 
L 147.923268 116.198925 
L 149.132165 116.534522 
L 150.341062 116.87012 
L 151.549958 117.205717 
L 152.758855 117.541315 
L 153.967752 117.876912 
L 155.176649 118.212509 
L 156.385545 118.548107 
L 157.594442 118.883704 
L 158.803339 119.219302 
L 160.012236 119.554899 
L 161.221132 119.890496 
L 162.430029 120.226094 
L 163.638926 120.561691 
L 164.847823 120.897289 
L 166.056719 121.232886 
L 167.265616 121.568483 
L 168.474513 121.904081 
L 169.68341 122.239678 
L 170.892307 122.575276 
L 172.101203 122.910873 
L 173.3101 123.24647 
L 174.518997 123.582068 
L 175.727894 123.917665 
L 176.93679 124.253263 
L 178.145687 124.58886 
L 179.354584 124.924457 
L 180.563481 125.260055 
L 181.772377 125.595652 
L 182.981274 125.93125 
L 184.190171 126.266847 
L 185.399068 126.602444 
L 186.607964 126.938042 
L 187.816861 127.273639 
L 189.025758 127.609236 
" clip-path="url(#p36b202a400)" style="fill: none; stroke: #068583; stroke-width: 2.25; stroke-linecap: square"/>
   </g>
   <g id="LineCollection_1">
    <path d="M 137.047558 116.386735 
L 192.414897 116.386735 
" clip-path="url(#p36b202a400)" style="fill: none; stroke: #000000; stroke-width: 0.5"/>
    <path d="M 128.633958 119.848049 
L 182.286751 119.848049 
" clip-path="url(#p36b202a400)" style="fill: none; stroke: #000000; stroke-width: 0.5"/>
    <path d="M 129.536501 82.503547 
L 136.8878 82.503547 
" clip-path="url(#p36b202a400)" style="fill: none; stroke: #000000; stroke-width: 0.5"/>
    <path d="M 118.682742 45.819987 
L 125.409081 45.819987 
" clip-path="url(#p36b202a400)" style="fill: none; stroke: #000000; stroke-width: 0.5"/>
    <path d="M 160.097169 113.777477 
L 217.954347 113.777477 
" clip-path="url(#p36b202a400)" style="fill: none; stroke: #000000; stroke-width: 0.5"/>
    <path d="M 156.516029 151.190993 
L 193.803934 151.190993 
" clip-path="url(#p36b202a400)" style="fill: none; stroke: #000000; stroke-width: 0.5"/>
    <path d="M 135.834621 90.270269 
L 142.035018 90.270269 
" clip-path="url(#p36b202a400)" style="fill: none; stroke: #000000; stroke-width: 0.5"/>
    <path d="M 120.312078 48.455788 
L 126.360311 48.455788 
" clip-path="url(#p36b202a400)" style="fill: none; stroke: #000000; stroke-width: 0.5"/>
    <path d="M 119.650768 140.560193 
L 170.966537 140.560193 
" clip-path="url(#p36b202a400)" style="fill: none; stroke: #000000; stroke-width: 0.5"/>
    <path d="M 116.027357 127.651933 
L 168.985704 127.651933 
" clip-path="url(#p36b202a400)" style="fill: none; stroke: #000000; stroke-width: 0.5"/>
    <path d="M 123.255987 83.445853 
L 128.319678 83.445853 
" clip-path="url(#p36b202a400)" style="fill: none; stroke: #000000; stroke-width: 0.5"/>
    <path d="M 115.107843 44.041551 
L 119.923747 44.041551 
" clip-path="url(#p36b202a400)" style="fill: none; stroke: #000000; stroke-width: 0.5"/>
    <path d="M 101.884613 115.739066 
L 162.647712 115.739066 
" clip-path="url(#p36b202a400)" style="fill: none; stroke: #000000; stroke-width: 0.5"/>
    <path d="M 95.822742 154.652307 
L 145.715259 154.652307 
" clip-path="url(#p36b202a400)" style="fill: none; stroke: #000000; stroke-width: 0.5"/>
    <path d="M 111.672366 123.789807 
L 125.317521 123.789807 
" clip-path="url(#p36b202a400)" style="fill: none; stroke: #000000; stroke-width: 0.5"/>
    <path d="M 111.086836 104.694182 
L 121.60352 104.694182 
" clip-path="url(#p36b202a400)" style="fill: none; stroke: #000000; stroke-width: 0.5"/>
    <path d="M 85.129339 139.453315 
L 140.183894 139.453315 
" clip-path="url(#p36b202a400)" style="fill: none; stroke: #000000; stroke-width: 0.5"/>
    <path d="M 100.958681 165.999791 
L 148.467735 165.999791 
" clip-path="url(#p36b202a400)" style="fill: none; stroke: #000000; stroke-width: 0.5"/>
    <path d="M 108.75688 127.150254 
L 121.490809 127.150254 
" clip-path="url(#p36b202a400)" style="fill: none; stroke: #000000; stroke-width: 0.5"/>
    <path d="M 110.856389 118.388139 
L 116.480144 118.388139 
" clip-path="url(#p36b202a400)" style="fill: none; stroke: #000000; stroke-width: 0.5"/>
    <path d="M 122.77845 125.201938 
L 201.669231 125.201938 
" clip-path="url(#p36b202a400)" style="fill: none; stroke: #000000; stroke-width: 0.5"/>
    <path d="M 111.279985 143.347294 
L 155.490546 143.347294 
" clip-path="url(#p36b202a400)" style="fill: none; stroke: #000000; stroke-width: 0.5"/>
    <path d="M 99.204827 83.777651 
L 115.069848 83.777651 
" clip-path="url(#p36b202a400)" style="fill: none; stroke: #000000; stroke-width: 0.5"/>
    <path d="M 65.772528 114.082731 
L 72.917429 114.082731 
" clip-path="url(#p36b202a400)" style="fill: none; stroke: #000000; stroke-width: 0.5"/>
   </g>
   <g id="LineCollection_2">
    <path d="M 164.731227 121.96919 
L 164.731227 110.80428 
" clip-path="url(#p36b202a400)" style="fill: none; stroke: #000000; stroke-width: 0.5"/>
    <path d="M 155.460355 127.1954 
L 155.460355 112.500698 
" clip-path="url(#p36b202a400)" style="fill: none; stroke: #000000; stroke-width: 0.5"/>
    <path d="M 133.212151 86.076144 
L 133.212151 78.930951 
" clip-path="url(#p36b202a400)" style="fill: none; stroke: #000000; stroke-width: 0.5"/>
    <path d="M 122.045912 56.626459 
L 122.045912 35.013515 
" clip-path="url(#p36b202a400)" style="fill: none; stroke: #000000; stroke-width: 0.5"/>
    <path d="M 189.025758 126.371357 
L 189.025758 101.183597 
" clip-path="url(#p36b202a400)" style="fill: none; stroke: #000000; stroke-width: 0.5"/>
    <path d="M 175.159981 156.4979 
L 175.159981 145.884087 
" clip-path="url(#p36b202a400)" style="fill: none; stroke: #000000; stroke-width: 0.5"/>
    <path d="M 138.93482 96.765006 
L 138.93482 83.775533 
" clip-path="url(#p36b202a400)" style="fill: none; stroke: #000000; stroke-width: 0.5"/>
    <path d="M 123.336195 53.75072 
L 123.336195 43.160856 
" clip-path="url(#p36b202a400)" style="fill: none; stroke: #000000; stroke-width: 0.5"/>
    <path d="M 145.308652 146.825569 
L 145.308652 134.294817 
" clip-path="url(#p36b202a400)" style="fill: none; stroke: #000000; stroke-width: 0.5"/>
    <path d="M 142.50653 152.463697 
L 142.50653 102.840168 
" clip-path="url(#p36b202a400)" style="fill: none; stroke: #000000; stroke-width: 0.5"/>
    <path d="M 125.787832 84.141499 
L 125.787832 82.750207 
" clip-path="url(#p36b202a400)" style="fill: none; stroke: #000000; stroke-width: 0.5"/>
    <path d="M 117.515795 58.352249 
L 117.515795 29.730852 
" clip-path="url(#p36b202a400)" style="fill: none; stroke: #000000; stroke-width: 0.5"/>
    <path d="M 132.266162 119.590618 
L 132.266162 111.887513 
" clip-path="url(#p36b202a400)" style="fill: none; stroke: #000000; stroke-width: 0.5"/>
    <path d="M 120.769001 169.478249 
L 120.769001 139.826366 
" clip-path="url(#p36b202a400)" style="fill: none; stroke: #000000; stroke-width: 0.5"/>
    <path d="M 118.494944 132.218079 
L 118.494944 115.361534 
" clip-path="url(#p36b202a400)" style="fill: none; stroke: #000000; stroke-width: 0.5"/>
    <path d="M 116.345178 113.436513 
L 116.345178 95.951851 
" clip-path="url(#p36b202a400)" style="fill: none; stroke: #000000; stroke-width: 0.5"/>
    <path d="M 112.656617 141.256022 
L 112.656617 137.650609 
" clip-path="url(#p36b202a400)" style="fill: none; stroke: #000000; stroke-width: 0.5"/>
    <path d="M 124.713208 177.985398 
L 124.713208 154.014184 
" clip-path="url(#p36b202a400)" style="fill: none; stroke: #000000; stroke-width: 0.5"/>
    <path d="M 115.123845 132.683551 
L 115.123845 121.616958 
" clip-path="url(#p36b202a400)" style="fill: none; stroke: #000000; stroke-width: 0.5"/>
    <path d="M 113.668267 121.634572 
L 113.668267 115.141706 
" clip-path="url(#p36b202a400)" style="fill: none; stroke: #000000; stroke-width: 0.5"/>
    <path d="M 162.223841 131.197115 
L 162.223841 119.206761 
" clip-path="url(#p36b202a400)" style="fill: none; stroke: #000000; stroke-width: 0.5"/>
    <path d="M 133.385265 156.253899 
L 133.385265 130.440689 
" clip-path="url(#p36b202a400)" style="fill: none; stroke: #000000; stroke-width: 0.5"/>
    <path d="M 107.137338 84.887541 
L 107.137338 82.66776 
" clip-path="url(#p36b202a400)" style="fill: none; stroke: #000000; stroke-width: 0.5"/>
    <path d="M 69.344979 123.344577 
L 69.344979 104.820885 
" clip-path="url(#p36b202a400)" style="fill: none; stroke: #000000; stroke-width: 0.5"/>
   </g>
   <g id="line2d_9">
    <path d="M 164.731227 116.386735 
L 155.460355 119.848049 
L 133.212151 82.503547 
L 122.045912 45.819987 
L 189.025758 113.777477 
L 175.159981 151.190993 
L 138.93482 90.270269 
L 123.336195 48.455788 
L 145.308652 140.560193 
L 142.50653 127.651933 
L 125.787832 83.445853 
L 117.515795 44.041551 
L 132.266162 115.739066 
L 120.769001 154.652307 
L 118.494944 123.789807 
L 116.345178 104.694182 
L 112.656617 139.453315 
L 124.713208 165.999791 
L 115.123845 127.150254 
L 113.668267 118.388139 
L 162.223841 125.201938 
L 133.385265 143.347294 
L 107.137338 83.777651 
L 69.344979 114.082731 
" clip-path="url(#p36b202a400)" style="fill: none; stroke: #000000; stroke-opacity: 0; stroke-width: 1.5; stroke-linecap: square"/>
   </g>
   <g id="patch_3">
    <path d="M 58.163438 185.398125 
L 58.163438 22.318125 
" style="fill: none; stroke: #000000; stroke-width: 0.8; stroke-linejoin: miter; stroke-linecap: square"/>
   </g>
   <g id="patch_4">
    <path d="M 225.563438 185.398125 
L 225.563438 22.318125 
" style="fill: none; stroke: #000000; stroke-width: 0.8; stroke-linejoin: miter; stroke-linecap: square"/>
   </g>
   <g id="patch_5">
    <path d="M 58.163438 185.398125 
L 225.563438 185.398125 
" style="fill: none; stroke: #000000; stroke-width: 0.8; stroke-linejoin: miter; stroke-linecap: square"/>
   </g>
   <g id="patch_6">
    <path d="M 58.163438 22.318125 
L 225.563438 22.318125 
" style="fill: none; stroke: #000000; stroke-width: 0.8; stroke-linejoin: miter; stroke-linecap: square"/>
   </g>
   <g id="text_10">
    <!-- r = -0.21 -->
    <g transform="translate(66.533438 38.626125)scale(0.1 -0.1)">
     <defs>
      <path id="DejaVuSans-3d" d="M 678 2906 
L 4684 2906 
L 4684 2381 
L 678 2381 
L 678 2906 
z
M 678 1631 
L 4684 1631 
L 4684 1100 
L 678 1100 
L 678 1631 
z
" transform="scale(0.015625)"/>
      <path id="DejaVuSans-2d" d="M 313 2009 
L 1997 2009 
L 1997 1497 
L 313 1497 
L 313 2009 
z
" transform="scale(0.015625)"/>
      <path id="DejaVuSans-2e" d="M 684 794 
L 1344 794 
L 1344 0 
L 684 0 
L 684 794 
z
" transform="scale(0.015625)"/>
     </defs>
     <use xlink:href="#DejaVuSans-72"/>
     <use xlink:href="#DejaVuSans-20" x="41.113281"/>
     <use xlink:href="#DejaVuSans-3d" x="72.900391"/>
     <use xlink:href="#DejaVuSans-20" x="156.689453"/>
     <use xlink:href="#DejaVuSans-2d" x="188.476562"/>
     <use xlink:href="#DejaVuSans-30" x="224.560547"/>
     <use xlink:href="#DejaVuSans-2e" x="288.183594"/>
     <use xlink:href="#DejaVuSans-32" x="319.970703"/>
     <use xlink:href="#DejaVuSans-31" x="383.59375"/>
    </g>
   </g>
   <g id="text_11">
    <!-- Ngn2x3HA -->
    <g transform="translate(109.960313 16.318125)scale(0.12 -0.12)">
     <defs>
      <path id="DejaVuSans-78" d="M 3513 3500 
L 2247 1797 
L 3578 0 
L 2900 0 
L 1881 1375 
L 863 0 
L 184 0 
L 1544 1831 
L 300 3500 
L 978 3500 
L 1906 2253 
L 2834 3500 
L 3513 3500 
z
" transform="scale(0.015625)"/>
      <path id="DejaVuSans-48" d="M 628 4666 
L 1259 4666 
L 1259 2753 
L 3553 2753 
L 3553 4666 
L 4184 4666 
L 4184 0 
L 3553 0 
L 3553 2222 
L 1259 2222 
L 1259 0 
L 628 0 
L 628 4666 
z
" transform="scale(0.015625)"/>
      <path id="DejaVuSans-41" d="M 2188 4044 
L 1331 1722 
L 3047 1722 
L 2188 4044 
z
M 1831 4666 
L 2547 4666 
L 4325 0 
L 3669 0 
L 3244 1197 
L 1141 1197 
L 716 0 
L 50 0 
L 1831 4666 
z
" transform="scale(0.015625)"/>
     </defs>
     <use xlink:href="#DejaVuSans-4e"/>
     <use xlink:href="#DejaVuSans-67" x="74.804688"/>
     <use xlink:href="#DejaVuSans-6e" x="138.28125"/>
     <use xlink:href="#DejaVuSans-32" x="201.660156"/>
     <use xlink:href="#DejaVuSans-78" x="265.283203"/>
     <use xlink:href="#DejaVuSans-33" x="324.462891"/>
     <use xlink:href="#DejaVuSans-48" x="388.085938"/>
     <use xlink:href="#DejaVuSans-41" x="463.28125"/>
    </g>
   </g>
  </g>
 </g>
 <defs>
  <clipPath id="p36b202a400">
   <rect x="58.163438" y="22.318125" width="167.4" height="163.08"/>
  </clipPath>
 </defs>
</svg>
