<?xml version="1.0" encoding="utf-8" standalone="no"?>
<!DOCTYPE svg PUBLIC "-//W3C//DTD SVG 1.1//EN"
  "http://www.w3.org/Graphics/SVG/1.1/DTD/svg11.dtd">
<svg xmlns:xlink="http://www.w3.org/1999/xlink" width="232.763437pt" height="234.152188pt" viewBox="0 0 232.763437 234.152188" xmlns="http://www.w3.org/2000/svg" version="1.1">
 <metadata>
  <rdf:RDF xmlns:dc="http://purl.org/dc/elements/1.1/" xmlns:cc="http://creativecommons.org/ns#" xmlns:rdf="http://www.w3.org/1999/02/22-rdf-syntax-ns#">
   <cc:Work>
    <dc:type rdf:resource="http://purl.org/dc/dcmitype/StillImage"/>
    <dc:date>2025-01-26T16:01:49.336165</dc:date>
    <dc:format>image/svg+xml</dc:format>
    <dc:creator>
     <cc:Agent>
      <dc:title>Matplotlib v3.5.2, https://matplotlib.org/</dc:title>
     </cc:Agent>
    </dc:creator>
   </cc:Work>
  </rdf:RDF>
 </metadata>
 <defs>
  <style type="text/css">*{stroke-linejoin: round; stroke-linecap: butt}</style>
 </defs>
 <g id="figure_1">
  <g id="patch_1">
   <path d="M 0 234.152188 
L 232.763437 234.152188 
L 232.763437 -0 
L 0 -0 
L 0 234.152188 
z
" style="fill: none"/>
  </g>
  <g id="axes_1">
   <g id="patch_2">
    <path d="M 58.163438 185.398125 
L 225.563438 185.398125 
L 225.563438 22.318125 
L 58.163438 22.318125 
z
" style="fill: #ffffff"/>
   </g>
   <g id="PathCollection_1">
    <defs>
     <path id="m66b5446e78" d="M 0 3 
C 0.795609 3 1.55874 2.683901 2.12132 2.12132 
C 2.683901 1.55874 3 0.795609 3 0 
C 3 -0.795609 2.683901 -1.55874 2.12132 -2.12132 
C 1.55874 -2.683901 0.795609 -3 0 -3 
C -0.795609 -3 -1.55874 -2.683901 -2.12132 -2.12132 
C -2.683901 -1.55874 -3 -0.795609 -3 0 
C -3 0.795609 -2.683901 1.55874 -2.12132 2.12132 
C -1.55874 2.683901 -0.795609 3 0 3 
z
" style="stroke: #ec8063; stroke-opacity: 0.8"/>
    </defs>
    <g clip-path="url(#p6359ce4931)">
     <use xlink:href="#m66b5446e78" x="163.941544" y="107.810716" style="fill: #ec8063; fill-opacity: 0.8; stroke: #ec8063; stroke-opacity: 0.8"/>
     <use xlink:href="#m66b5446e78" x="166.821167" y="130.89149" style="fill: #ec8063; fill-opacity: 0.8; stroke: #ec8063; stroke-opacity: 0.8"/>
     <use xlink:href="#m66b5446e78" x="210.410869" y="72.434892" style="fill: #ec8063; fill-opacity: 0.8; stroke: #ec8063; stroke-opacity: 0.8"/>
     <use xlink:href="#m66b5446e78" x="180.223793" y="74.647016" style="fill: #ec8063; fill-opacity: 0.8; stroke: #ec8063; stroke-opacity: 0.8"/>
     <use xlink:href="#m66b5446e78" x="70.679034" y="149.013788" style="fill: #ec8063; fill-opacity: 0.8; stroke: #ec8063; stroke-opacity: 0.8"/>
     <use xlink:href="#m66b5446e78" x="88.583237" y="110.10064" style="fill: #ec8063; fill-opacity: 0.8; stroke: #ec8063; stroke-opacity: 0.8"/>
     <use xlink:href="#m66b5446e78" x="104.230152" y="97.349161" style="fill: #ec8063; fill-opacity: 0.8; stroke: #ec8063; stroke-opacity: 0.8"/>
     <use xlink:href="#m66b5446e78" x="98.214357" y="48.060039" style="fill: #ec8063; fill-opacity: 0.8; stroke: #ec8063; stroke-opacity: 0.8"/>
     <use xlink:href="#m66b5446e78" x="115.288975" y="120.824124" style="fill: #ec8063; fill-opacity: 0.8; stroke: #ec8063; stroke-opacity: 0.8"/>
     <use xlink:href="#m66b5446e78" x="126.835785" y="123.72089" style="fill: #ec8063; fill-opacity: 0.8; stroke: #ec8063; stroke-opacity: 0.8"/>
     <use xlink:href="#m66b5446e78" x="172.576493" y="76.436424" style="fill: #ec8063; fill-opacity: 0.8; stroke: #ec8063; stroke-opacity: 0.8"/>
     <use xlink:href="#m66b5446e78" x="159.26736" y="79.605492" style="fill: #ec8063; fill-opacity: 0.8; stroke: #ec8063; stroke-opacity: 0.8"/>
     <use xlink:href="#m66b5446e78" x="129.514221" y="97.260987" style="fill: #ec8063; fill-opacity: 0.8; stroke: #ec8063; stroke-opacity: 0.8"/>
     <use xlink:href="#m66b5446e78" x="129.664981" y="144.623254" style="fill: #ec8063; fill-opacity: 0.8; stroke: #ec8063; stroke-opacity: 0.8"/>
     <use xlink:href="#m66b5446e78" x="205.821849" y="97.769283" style="fill: #ec8063; fill-opacity: 0.8; stroke: #ec8063; stroke-opacity: 0.8"/>
     <use xlink:href="#m66b5446e78" x="190.308552" y="91.011025" style="fill: #ec8063; fill-opacity: 0.8; stroke: #ec8063; stroke-opacity: 0.8"/>
     <use xlink:href="#m66b5446e78" x="128.105435" y="101.30142" style="fill: #ec8063; fill-opacity: 0.8; stroke: #ec8063; stroke-opacity: 0.8"/>
     <use xlink:href="#m66b5446e78" x="130.365595" y="139.236876" style="fill: #ec8063; fill-opacity: 0.8; stroke: #ec8063; stroke-opacity: 0.8"/>
     <use xlink:href="#m66b5446e78" x="168.008225" y="88.109072" style="fill: #ec8063; fill-opacity: 0.8; stroke: #ec8063; stroke-opacity: 0.8"/>
     <use xlink:href="#m66b5446e78" x="176.329908" y="90.616837" style="fill: #ec8063; fill-opacity: 0.8; stroke: #ec8063; stroke-opacity: 0.8"/>
     <use xlink:href="#m66b5446e78" x="137.150126" y="172.296843" style="fill: #ec8063; fill-opacity: 0.8; stroke: #ec8063; stroke-opacity: 0.8"/>
     <use xlink:href="#m66b5446e78" x="122.762064" y="174.744961" style="fill: #ec8063; fill-opacity: 0.8; stroke: #ec8063; stroke-opacity: 0.8"/>
     <use xlink:href="#m66b5446e78" x="157.943061" y="162.729992" style="fill: #ec8063; fill-opacity: 0.8; stroke: #ec8063; stroke-opacity: 0.8"/>
     <use xlink:href="#m66b5446e78" x="155.871849" y="162.714432" style="fill: #ec8063; fill-opacity: 0.8; stroke: #ec8063; stroke-opacity: 0.8"/>
    </g>
   </g>
   <g id="PolyCollection_1">
    <path d="M 70.679034 99.683689 
L 70.679034 167.846663 
L 72.090467 167.055008 
L 73.5019 166.263353 
L 74.913332 165.471697 
L 76.324765 164.680042 
L 77.736198 163.888386 
L 79.14763 163.096731 
L 80.559063 162.305076 
L 81.970496 161.51342 
L 83.381928 160.721765 
L 84.793361 159.930109 
L 86.204794 159.138454 
L 87.616226 158.346798 
L 89.027659 157.555143 
L 90.439092 156.763488 
L 91.850524 155.971832 
L 93.261957 155.285149 
L 94.67339 154.628439 
L 96.084822 153.968513 
L 97.496255 153.308587 
L 98.907688 152.497696 
L 100.31912 151.600408 
L 101.730553 150.700167 
L 103.141986 149.798345 
L 104.553419 148.896271 
L 105.964851 148.03048 
L 107.376284 147.143673 
L 108.787717 146.424339 
L 110.199149 145.642661 
L 111.610582 144.754086 
L 113.022015 143.989318 
L 114.433447 143.226551 
L 115.84488 142.463593 
L 117.256313 141.689607 
L 118.667745 140.798447 
L 120.079178 140.017469 
L 121.490611 139.313234 
L 122.902043 138.411093 
L 124.313476 137.43512 
L 125.724909 136.459147 
L 127.136341 135.874763 
L 128.547774 135.006612 
L 129.959207 134.263114 
L 131.370639 133.766293 
L 132.782072 133.242024 
L 134.193505 132.558926 
L 135.604937 131.799515 
L 137.01637 131.079699 
L 138.427803 130.480471 
L 139.839235 130.060417 
L 141.250668 129.666917 
L 142.662101 129.108131 
L 144.073534 128.363723 
L 145.484966 127.947218 
L 146.896399 127.310934 
L 148.307832 126.942755 
L 149.719264 126.432271 
L 151.130697 126.063564 
L 152.54213 125.45028 
L 153.953562 124.917854 
L 155.364995 124.27708 
L 156.776428 123.872899 
L 158.18786 123.613887 
L 159.599293 123.298764 
L 161.010726 123.101607 
L 162.422158 123.083731 
L 163.833591 122.589732 
L 165.245024 122.32858 
L 166.656456 121.997328 
L 168.067889 121.813851 
L 169.479322 121.838556 
L 170.890754 121.973786 
L 172.302187 121.924579 
L 173.71362 121.746801 
L 175.125052 121.522209 
L 176.536485 121.537355 
L 177.947918 121.820132 
L 179.35935 122.101395 
L 180.770783 122.379545 
L 182.182216 122.657694 
L 183.593649 122.596637 
L 185.005081 122.676756 
L 186.416514 122.963516 
L 187.827947 123.222832 
L 189.239379 123.41484 
L 190.650812 123.495635 
L 192.062245 123.506702 
L 193.473677 123.517769 
L 194.88511 123.600014 
L 196.296543 123.861259 
L 197.707975 123.549035 
L 199.119408 123.562036 
L 200.530841 123.573103 
L 201.942273 123.580524 
L 203.353706 123.582329 
L 204.765139 123.584134 
L 206.176571 123.589167 
L 207.588004 123.605555 
L 208.999437 123.621944 
L 210.410869 123.667089 
L 210.410869 75.560716 
L 210.410869 75.560716 
L 208.999437 76.281684 
L 207.588004 76.927154 
L 206.176571 77.608093 
L 204.765139 78.329792 
L 203.353706 79.07484 
L 201.942273 79.877038 
L 200.530841 80.788378 
L 199.119408 81.559474 
L 197.707975 82.493616 
L 196.296543 83.380778 
L 194.88511 84.139955 
L 193.473677 84.67172 
L 192.062245 85.38387 
L 190.650812 85.99972 
L 189.239379 86.620116 
L 187.827947 87.224386 
L 186.416514 87.995369 
L 185.005081 88.551861 
L 183.593649 89.130178 
L 182.182216 89.671239 
L 180.770783 90.312041 
L 179.35935 90.895995 
L 177.947918 91.50742 
L 176.536485 92.279689 
L 175.125052 92.963478 
L 173.71362 93.423029 
L 172.302187 93.974929 
L 170.890754 94.406684 
L 169.479322 94.860026 
L 168.067889 95.218118 
L 166.656456 95.422785 
L 165.245024 95.947695 
L 163.833591 96.192497 
L 162.422158 96.776304 
L 161.010726 97.038039 
L 159.599293 97.446467 
L 158.18786 97.719575 
L 156.776428 97.982071 
L 155.364995 98.092122 
L 153.953562 98.29859 
L 152.54213 98.507395 
L 151.130697 98.715346 
L 149.719264 98.894797 
L 148.307832 99.121051 
L 146.896399 99.316968 
L 145.484966 99.366849 
L 144.073534 99.431867 
L 142.662101 99.700255 
L 141.250668 99.883735 
L 139.839235 100.051199 
L 138.427803 100.28929 
L 137.01637 100.476089 
L 135.604937 100.545648 
L 134.193505 100.570855 
L 132.782072 100.660184 
L 131.370639 100.715208 
L 129.959207 100.770232 
L 128.547774 100.773362 
L 127.136341 100.881582 
L 125.724909 100.970694 
L 124.313476 101.041997 
L 122.902043 101.178371 
L 121.490611 101.314744 
L 120.079178 101.451417 
L 118.667745 101.591105 
L 117.256313 101.730793 
L 115.84488 101.870481 
L 114.433447 102.010169 
L 113.022015 102.11704 
L 111.610582 102.293139 
L 110.199149 102.365487 
L 108.787717 102.389864 
L 107.376284 102.333403 
L 105.964851 102.332086 
L 104.553419 102.213486 
L 103.141986 102.109731 
L 101.730553 102.218368 
L 100.31912 102.333414 
L 98.907688 102.158396 
L 97.496255 101.915989 
L 96.084822 101.727306 
L 94.67339 101.796339 
L 93.261957 101.91222 
L 91.850524 101.628545 
L 90.439092 101.599261 
L 89.027659 101.569977 
L 87.616226 101.452379 
L 86.204794 101.433786 
L 84.793361 101.106509 
L 83.381928 100.760418 
L 81.970496 100.417808 
L 80.559063 100.475171 
L 79.14763 100.579857 
L 77.736198 100.308651 
L 76.324765 100.160734 
L 74.913332 100.181767 
L 73.5019 100.20765 
L 72.090467 99.954009 
L 70.679034 99.683689 
z
" clip-path="url(#p6359ce4931)" style="fill: #ec8063; fill-opacity: 0.15"/>
   </g>
   <g id="matplotlib.axis_1">
    <g id="xtick_1">
     <g id="line2d_1">
      <defs>
       <path id="m318962374f" d="M 0 0 
L 0 3.5 
" style="stroke: #000000; stroke-width: 0.8"/>
      </defs>
      <g>
       <use xlink:href="#m318962374f" x="72.083087" y="185.398125" style="stroke: #000000; stroke-width: 0.8"/>
      </g>
     </g>
     <g id="text_1">
      <!-- 2000 -->
      <g transform="translate(59.358087 199.996563)scale(0.1 -0.1)">
       <defs>
        <path id="DejaVuSans-32" d="M 1228 531 
L 3431 531 
L 3431 0 
L 469 0 
L 469 531 
Q 828 903 1448 1529 
Q 2069 2156 2228 2338 
Q 2531 2678 2651 2914 
Q 2772 3150 2772 3378 
Q 2772 3750 2511 3984 
Q 2250 4219 1831 4219 
Q 1534 4219 1204 4116 
Q 875 4013 500 3803 
L 500 4441 
Q 881 4594 1212 4672 
Q 1544 4750 1819 4750 
Q 2544 4750 2975 4387 
Q 3406 4025 3406 3419 
Q 3406 3131 3298 2873 
Q 3191 2616 2906 2266 
Q 2828 2175 2409 1742 
Q 1991 1309 1228 531 
z
" transform="scale(0.015625)"/>
        <path id="DejaVuSans-30" d="M 2034 4250 
Q 1547 4250 1301 3770 
Q 1056 3291 1056 2328 
Q 1056 1369 1301 889 
Q 1547 409 2034 409 
Q 2525 409 2770 889 
Q 3016 1369 3016 2328 
Q 3016 3291 2770 3770 
Q 2525 4250 2034 4250 
z
M 2034 4750 
Q 2819 4750 3233 4129 
Q 3647 3509 3647 2328 
Q 3647 1150 3233 529 
Q 2819 -91 2034 -91 
Q 1250 -91 836 529 
Q 422 1150 422 2328 
Q 422 3509 836 4129 
Q 1250 4750 2034 4750 
z
" transform="scale(0.015625)"/>
       </defs>
       <use xlink:href="#DejaVuSans-32"/>
       <use xlink:href="#DejaVuSans-30" x="63.623047"/>
       <use xlink:href="#DejaVuSans-30" x="127.246094"/>
       <use xlink:href="#DejaVuSans-30" x="190.869141"/>
      </g>
     </g>
    </g>
    <g id="xtick_2">
     <g id="line2d_2">
      <g>
       <use xlink:href="#m318962374f" x="118.832437" y="185.398125" style="stroke: #000000; stroke-width: 0.8"/>
      </g>
     </g>
     <g id="text_2">
      <!-- 2500 -->
      <g transform="translate(106.107437 199.996563)scale(0.1 -0.1)">
       <defs>
        <path id="DejaVuSans-35" d="M 691 4666 
L 3169 4666 
L 3169 4134 
L 1269 4134 
L 1269 2991 
Q 1406 3038 1543 3061 
Q 1681 3084 1819 3084 
Q 2600 3084 3056 2656 
Q 3513 2228 3513 1497 
Q 3513 744 3044 326 
Q 2575 -91 1722 -91 
Q 1428 -91 1123 -41 
Q 819 9 494 109 
L 494 744 
Q 775 591 1075 516 
Q 1375 441 1709 441 
Q 2250 441 2565 725 
Q 2881 1009 2881 1497 
Q 2881 1984 2565 2268 
Q 2250 2553 1709 2553 
Q 1456 2553 1204 2497 
Q 953 2441 691 2322 
L 691 4666 
z
" transform="scale(0.015625)"/>
       </defs>
       <use xlink:href="#DejaVuSans-32"/>
       <use xlink:href="#DejaVuSans-35" x="63.623047"/>
       <use xlink:href="#DejaVuSans-30" x="127.246094"/>
       <use xlink:href="#DejaVuSans-30" x="190.869141"/>
      </g>
     </g>
    </g>
    <g id="xtick_3">
     <g id="line2d_3">
      <g>
       <use xlink:href="#m318962374f" x="165.581788" y="185.398125" style="stroke: #000000; stroke-width: 0.8"/>
      </g>
     </g>
     <g id="text_3">
      <!-- 3000 -->
      <g transform="translate(152.856788 199.996563)scale(0.1 -0.1)">
       <defs>
        <path id="DejaVuSans-33" d="M 2597 2516 
Q 3050 2419 3304 2112 
Q 3559 1806 3559 1356 
Q 3559 666 3084 287 
Q 2609 -91 1734 -91 
Q 1441 -91 1130 -33 
Q 819 25 488 141 
L 488 750 
Q 750 597 1062 519 
Q 1375 441 1716 441 
Q 2309 441 2620 675 
Q 2931 909 2931 1356 
Q 2931 1769 2642 2001 
Q 2353 2234 1838 2234 
L 1294 2234 
L 1294 2753 
L 1863 2753 
Q 2328 2753 2575 2939 
Q 2822 3125 2822 3475 
Q 2822 3834 2567 4026 
Q 2313 4219 1838 4219 
Q 1578 4219 1281 4162 
Q 984 4106 628 3988 
L 628 4550 
Q 988 4650 1302 4700 
Q 1616 4750 1894 4750 
Q 2613 4750 3031 4423 
Q 3450 4097 3450 3541 
Q 3450 3153 3228 2886 
Q 3006 2619 2597 2516 
z
" transform="scale(0.015625)"/>
       </defs>
       <use xlink:href="#DejaVuSans-33"/>
       <use xlink:href="#DejaVuSans-30" x="63.623047"/>
       <use xlink:href="#DejaVuSans-30" x="127.246094"/>
       <use xlink:href="#DejaVuSans-30" x="190.869141"/>
      </g>
     </g>
    </g>
    <g id="xtick_4">
     <g id="line2d_4">
      <g>
       <use xlink:href="#m318962374f" x="212.331138" y="185.398125" style="stroke: #000000; stroke-width: 0.8"/>
      </g>
     </g>
     <g id="text_4">
      <!-- 3500 -->
      <g transform="translate(199.606138 199.996563)scale(0.1 -0.1)">
       <use xlink:href="#DejaVuSans-33"/>
       <use xlink:href="#DejaVuSans-35" x="63.623047"/>
       <use xlink:href="#DejaVuSans-30" x="127.246094"/>
       <use xlink:href="#DejaVuSans-30" x="190.869141"/>
      </g>
     </g>
    </g>
    <g id="text_5">
     <!-- mRuby2, 14 dpi -->
     <g transform="translate(102.393125 213.674688)scale(0.1 -0.1)">
      <defs>
       <path id="DejaVuSans-6d" d="M 3328 2828 
Q 3544 3216 3844 3400 
Q 4144 3584 4550 3584 
Q 5097 3584 5394 3201 
Q 5691 2819 5691 2113 
L 5691 0 
L 5113 0 
L 5113 2094 
Q 5113 2597 4934 2840 
Q 4756 3084 4391 3084 
Q 3944 3084 3684 2787 
Q 3425 2491 3425 1978 
L 3425 0 
L 2847 0 
L 2847 2094 
Q 2847 2600 2669 2842 
Q 2491 3084 2119 3084 
Q 1678 3084 1418 2786 
Q 1159 2488 1159 1978 
L 1159 0 
L 581 0 
L 581 3500 
L 1159 3500 
L 1159 2956 
Q 1356 3278 1631 3431 
Q 1906 3584 2284 3584 
Q 2666 3584 2933 3390 
Q 3200 3197 3328 2828 
z
" transform="scale(0.015625)"/>
       <path id="DejaVuSans-52" d="M 2841 2188 
Q 3044 2119 3236 1894 
Q 3428 1669 3622 1275 
L 4263 0 
L 3584 0 
L 2988 1197 
Q 2756 1666 2539 1819 
Q 2322 1972 1947 1972 
L 1259 1972 
L 1259 0 
L 628 0 
L 628 4666 
L 2053 4666 
Q 2853 4666 3247 4331 
Q 3641 3997 3641 3322 
Q 3641 2881 3436 2590 
Q 3231 2300 2841 2188 
z
M 1259 4147 
L 1259 2491 
L 2053 2491 
Q 2509 2491 2742 2702 
Q 2975 2913 2975 3322 
Q 2975 3731 2742 3939 
Q 2509 4147 2053 4147 
L 1259 4147 
z
" transform="scale(0.015625)"/>
       <path id="DejaVuSans-75" d="M 544 1381 
L 544 3500 
L 1119 3500 
L 1119 1403 
Q 1119 906 1312 657 
Q 1506 409 1894 409 
Q 2359 409 2629 706 
Q 2900 1003 2900 1516 
L 2900 3500 
L 3475 3500 
L 3475 0 
L 2900 0 
L 2900 538 
Q 2691 219 2414 64 
Q 2138 -91 1772 -91 
Q 1169 -91 856 284 
Q 544 659 544 1381 
z
M 1991 3584 
L 1991 3584 
z
" transform="scale(0.015625)"/>
       <path id="DejaVuSans-62" d="M 3116 1747 
Q 3116 2381 2855 2742 
Q 2594 3103 2138 3103 
Q 1681 3103 1420 2742 
Q 1159 2381 1159 1747 
Q 1159 1113 1420 752 
Q 1681 391 2138 391 
Q 2594 391 2855 752 
Q 3116 1113 3116 1747 
z
M 1159 2969 
Q 1341 3281 1617 3432 
Q 1894 3584 2278 3584 
Q 2916 3584 3314 3078 
Q 3713 2572 3713 1747 
Q 3713 922 3314 415 
Q 2916 -91 2278 -91 
Q 1894 -91 1617 61 
Q 1341 213 1159 525 
L 1159 0 
L 581 0 
L 581 4863 
L 1159 4863 
L 1159 2969 
z
" transform="scale(0.015625)"/>
       <path id="DejaVuSans-79" d="M 2059 -325 
Q 1816 -950 1584 -1140 
Q 1353 -1331 966 -1331 
L 506 -1331 
L 506 -850 
L 844 -850 
Q 1081 -850 1212 -737 
Q 1344 -625 1503 -206 
L 1606 56 
L 191 3500 
L 800 3500 
L 1894 763 
L 2988 3500 
L 3597 3500 
L 2059 -325 
z
" transform="scale(0.015625)"/>
       <path id="DejaVuSans-2c" d="M 750 794 
L 1409 794 
L 1409 256 
L 897 -744 
L 494 -744 
L 750 256 
L 750 794 
z
" transform="scale(0.015625)"/>
       <path id="DejaVuSans-20" transform="scale(0.015625)"/>
       <path id="DejaVuSans-31" d="M 794 531 
L 1825 531 
L 1825 4091 
L 703 3866 
L 703 4441 
L 1819 4666 
L 2450 4666 
L 2450 531 
L 3481 531 
L 3481 0 
L 794 0 
L 794 531 
z
" transform="scale(0.015625)"/>
       <path id="DejaVuSans-34" d="M 2419 4116 
L 825 1625 
L 2419 1625 
L 2419 4116 
z
M 2253 4666 
L 3047 4666 
L 3047 1625 
L 3713 1625 
L 3713 1100 
L 3047 1100 
L 3047 0 
L 2419 0 
L 2419 1100 
L 313 1100 
L 313 1709 
L 2253 4666 
z
" transform="scale(0.015625)"/>
       <path id="DejaVuSans-64" d="M 2906 2969 
L 2906 4863 
L 3481 4863 
L 3481 0 
L 2906 0 
L 2906 525 
Q 2725 213 2448 61 
Q 2172 -91 1784 -91 
Q 1150 -91 751 415 
Q 353 922 353 1747 
Q 353 2572 751 3078 
Q 1150 3584 1784 3584 
Q 2172 3584 2448 3432 
Q 2725 3281 2906 2969 
z
M 947 1747 
Q 947 1113 1208 752 
Q 1469 391 1925 391 
Q 2381 391 2643 752 
Q 2906 1113 2906 1747 
Q 2906 2381 2643 2742 
Q 2381 3103 1925 3103 
Q 1469 3103 1208 2742 
Q 947 2381 947 1747 
z
" transform="scale(0.015625)"/>
       <path id="DejaVuSans-70" d="M 1159 525 
L 1159 -1331 
L 581 -1331 
L 581 3500 
L 1159 3500 
L 1159 2969 
Q 1341 3281 1617 3432 
Q 1894 3584 2278 3584 
Q 2916 3584 3314 3078 
Q 3713 2572 3713 1747 
Q 3713 922 3314 415 
Q 2916 -91 2278 -91 
Q 1894 -91 1617 61 
Q 1341 213 1159 525 
z
M 3116 1747 
Q 3116 2381 2855 2742 
Q 2594 3103 2138 3103 
Q 1681 3103 1420 2742 
Q 1159 2381 1159 1747 
Q 1159 1113 1420 752 
Q 1681 391 2138 391 
Q 2594 391 2855 752 
Q 3116 1113 3116 1747 
z
" transform="scale(0.015625)"/>
       <path id="DejaVuSans-69" d="M 603 3500 
L 1178 3500 
L 1178 0 
L 603 0 
L 603 3500 
z
M 603 4863 
L 1178 4863 
L 1178 4134 
L 603 4134 
L 603 4863 
z
" transform="scale(0.015625)"/>
      </defs>
      <use xlink:href="#DejaVuSans-6d"/>
      <use xlink:href="#DejaVuSans-52" x="97.412109"/>
      <use xlink:href="#DejaVuSans-75" x="162.394531"/>
      <use xlink:href="#DejaVuSans-62" x="225.773438"/>
      <use xlink:href="#DejaVuSans-79" x="289.25"/>
      <use xlink:href="#DejaVuSans-32" x="348.429688"/>
      <use xlink:href="#DejaVuSans-2c" x="412.052734"/>
      <use xlink:href="#DejaVuSans-20" x="443.839844"/>
      <use xlink:href="#DejaVuSans-31" x="475.626953"/>
      <use xlink:href="#DejaVuSans-34" x="539.25"/>
      <use xlink:href="#DejaVuSans-20" x="602.873047"/>
      <use xlink:href="#DejaVuSans-64" x="634.660156"/>
      <use xlink:href="#DejaVuSans-70" x="698.136719"/>
      <use xlink:href="#DejaVuSans-69" x="761.613281"/>
     </g>
     <!-- (gmean) -->
     <g transform="translate(120.607969 224.8725)scale(0.1 -0.1)">
      <defs>
       <path id="DejaVuSans-28" d="M 1984 4856 
Q 1566 4138 1362 3434 
Q 1159 2731 1159 2009 
Q 1159 1288 1364 580 
Q 1569 -128 1984 -844 
L 1484 -844 
Q 1016 -109 783 600 
Q 550 1309 550 2009 
Q 550 2706 781 3412 
Q 1013 4119 1484 4856 
L 1984 4856 
z
" transform="scale(0.015625)"/>
       <path id="DejaVuSans-67" d="M 2906 1791 
Q 2906 2416 2648 2759 
Q 2391 3103 1925 3103 
Q 1463 3103 1205 2759 
Q 947 2416 947 1791 
Q 947 1169 1205 825 
Q 1463 481 1925 481 
Q 2391 481 2648 825 
Q 2906 1169 2906 1791 
z
M 3481 434 
Q 3481 -459 3084 -895 
Q 2688 -1331 1869 -1331 
Q 1566 -1331 1297 -1286 
Q 1028 -1241 775 -1147 
L 775 -588 
Q 1028 -725 1275 -790 
Q 1522 -856 1778 -856 
Q 2344 -856 2625 -561 
Q 2906 -266 2906 331 
L 2906 616 
Q 2728 306 2450 153 
Q 2172 0 1784 0 
Q 1141 0 747 490 
Q 353 981 353 1791 
Q 353 2603 747 3093 
Q 1141 3584 1784 3584 
Q 2172 3584 2450 3431 
Q 2728 3278 2906 2969 
L 2906 3500 
L 3481 3500 
L 3481 434 
z
" transform="scale(0.015625)"/>
       <path id="DejaVuSans-65" d="M 3597 1894 
L 3597 1613 
L 953 1613 
Q 991 1019 1311 708 
Q 1631 397 2203 397 
Q 2534 397 2845 478 
Q 3156 559 3463 722 
L 3463 178 
Q 3153 47 2828 -22 
Q 2503 -91 2169 -91 
Q 1331 -91 842 396 
Q 353 884 353 1716 
Q 353 2575 817 3079 
Q 1281 3584 2069 3584 
Q 2775 3584 3186 3129 
Q 3597 2675 3597 1894 
z
M 3022 2063 
Q 3016 2534 2758 2815 
Q 2500 3097 2075 3097 
Q 1594 3097 1305 2825 
Q 1016 2553 972 2059 
L 3022 2063 
z
" transform="scale(0.015625)"/>
       <path id="DejaVuSans-61" d="M 2194 1759 
Q 1497 1759 1228 1600 
Q 959 1441 959 1056 
Q 959 750 1161 570 
Q 1363 391 1709 391 
Q 2188 391 2477 730 
Q 2766 1069 2766 1631 
L 2766 1759 
L 2194 1759 
z
M 3341 1997 
L 3341 0 
L 2766 0 
L 2766 531 
Q 2569 213 2275 61 
Q 1981 -91 1556 -91 
Q 1019 -91 701 211 
Q 384 513 384 1019 
Q 384 1609 779 1909 
Q 1175 2209 1959 2209 
L 2766 2209 
L 2766 2266 
Q 2766 2663 2505 2880 
Q 2244 3097 1772 3097 
Q 1472 3097 1187 3025 
Q 903 2953 641 2809 
L 641 3341 
Q 956 3463 1253 3523 
Q 1550 3584 1831 3584 
Q 2591 3584 2966 3190 
Q 3341 2797 3341 1997 
z
" transform="scale(0.015625)"/>
       <path id="DejaVuSans-6e" d="M 3513 2113 
L 3513 0 
L 2938 0 
L 2938 2094 
Q 2938 2591 2744 2837 
Q 2550 3084 2163 3084 
Q 1697 3084 1428 2787 
Q 1159 2491 1159 1978 
L 1159 0 
L 581 0 
L 581 3500 
L 1159 3500 
L 1159 2956 
Q 1366 3272 1645 3428 
Q 1925 3584 2291 3584 
Q 2894 3584 3203 3211 
Q 3513 2838 3513 2113 
z
" transform="scale(0.015625)"/>
       <path id="DejaVuSans-29" d="M 513 4856 
L 1013 4856 
Q 1481 4119 1714 3412 
Q 1947 2706 1947 2009 
Q 1947 1309 1714 600 
Q 1481 -109 1013 -844 
L 513 -844 
Q 928 -128 1133 580 
Q 1338 1288 1338 2009 
Q 1338 2731 1133 3434 
Q 928 4138 513 4856 
z
" transform="scale(0.015625)"/>
      </defs>
      <use xlink:href="#DejaVuSans-28"/>
      <use xlink:href="#DejaVuSans-67" x="39.013672"/>
      <use xlink:href="#DejaVuSans-6d" x="102.490234"/>
      <use xlink:href="#DejaVuSans-65" x="199.902344"/>
      <use xlink:href="#DejaVuSans-61" x="261.425781"/>
      <use xlink:href="#DejaVuSans-6e" x="322.705078"/>
      <use xlink:href="#DejaVuSans-29" x="386.083984"/>
     </g>
    </g>
   </g>
   <g id="matplotlib.axis_2">
    <g id="ytick_1">
     <g id="line2d_5">
      <defs>
       <path id="m7868f7bd4a" d="M 0 0 
L -3.5 0 
" style="stroke: #000000; stroke-width: 0.8"/>
      </defs>
      <g>
       <use xlink:href="#m7868f7bd4a" x="58.163438" y="175.393297" style="stroke: #000000; stroke-width: 0.8"/>
      </g>
     </g>
     <g id="text_6">
      <!-- 50 -->
      <g transform="translate(38.438437 179.192516)scale(0.1 -0.1)">
       <use xlink:href="#DejaVuSans-35"/>
       <use xlink:href="#DejaVuSans-30" x="63.623047"/>
      </g>
     </g>
    </g>
    <g id="ytick_2">
     <g id="line2d_6">
      <g>
       <use xlink:href="#m7868f7bd4a" x="58.163438" y="136.493117" style="stroke: #000000; stroke-width: 0.8"/>
      </g>
     </g>
     <g id="text_7">
      <!-- 100 -->
      <g transform="translate(32.075937 140.292335)scale(0.1 -0.1)">
       <use xlink:href="#DejaVuSans-31"/>
       <use xlink:href="#DejaVuSans-30" x="63.623047"/>
       <use xlink:href="#DejaVuSans-30" x="127.246094"/>
      </g>
     </g>
    </g>
    <g id="ytick_3">
     <g id="line2d_7">
      <g>
       <use xlink:href="#m7868f7bd4a" x="58.163438" y="97.592936" style="stroke: #000000; stroke-width: 0.8"/>
      </g>
     </g>
     <g id="text_8">
      <!-- 150 -->
      <g transform="translate(32.075937 101.392154)scale(0.1 -0.1)">
       <use xlink:href="#DejaVuSans-31"/>
       <use xlink:href="#DejaVuSans-35" x="63.623047"/>
       <use xlink:href="#DejaVuSans-30" x="127.246094"/>
      </g>
     </g>
    </g>
    <g id="ytick_4">
     <g id="line2d_8">
      <g>
       <use xlink:href="#m7868f7bd4a" x="58.163438" y="58.692755" style="stroke: #000000; stroke-width: 0.8"/>
      </g>
     </g>
     <g id="text_9">
      <!-- 200 -->
      <g transform="translate(32.075937 62.491974)scale(0.1 -0.1)">
       <use xlink:href="#DejaVuSans-32"/>
       <use xlink:href="#DejaVuSans-30" x="63.623047"/>
       <use xlink:href="#DejaVuSans-30" x="127.246094"/>
      </g>
     </g>
    </g>
    <g id="text_10">
     <!-- (%) iMN yield -->
     <g transform="translate(14.798437 137.120625)rotate(-90)scale(0.1 -0.1)">
      <defs>
       <path id="DejaVuSans-25" d="M 4653 2053 
Q 4381 2053 4226 1822 
Q 4072 1591 4072 1178 
Q 4072 772 4226 539 
Q 4381 306 4653 306 
Q 4919 306 5073 539 
Q 5228 772 5228 1178 
Q 5228 1588 5073 1820 
Q 4919 2053 4653 2053 
z
M 4653 2450 
Q 5147 2450 5437 2106 
Q 5728 1763 5728 1178 
Q 5728 594 5436 251 
Q 5144 -91 4653 -91 
Q 4153 -91 3862 251 
Q 3572 594 3572 1178 
Q 3572 1766 3864 2108 
Q 4156 2450 4653 2450 
z
M 1428 4353 
Q 1159 4353 1004 4120 
Q 850 3888 850 3481 
Q 850 3069 1003 2837 
Q 1156 2606 1428 2606 
Q 1700 2606 1854 2837 
Q 2009 3069 2009 3481 
Q 2009 3884 1853 4118 
Q 1697 4353 1428 4353 
z
M 4250 4750 
L 4750 4750 
L 1831 -91 
L 1331 -91 
L 4250 4750 
z
M 1428 4750 
Q 1922 4750 2215 4408 
Q 2509 4066 2509 3481 
Q 2509 2891 2217 2550 
Q 1925 2209 1428 2209 
Q 931 2209 642 2551 
Q 353 2894 353 3481 
Q 353 4063 643 4406 
Q 934 4750 1428 4750 
z
" transform="scale(0.015625)"/>
       <path id="DejaVuSans-4d" d="M 628 4666 
L 1569 4666 
L 2759 1491 
L 3956 4666 
L 4897 4666 
L 4897 0 
L 4281 0 
L 4281 4097 
L 3078 897 
L 2444 897 
L 1241 4097 
L 1241 0 
L 628 0 
L 628 4666 
z
" transform="scale(0.015625)"/>
       <path id="DejaVuSans-4e" d="M 628 4666 
L 1478 4666 
L 3547 763 
L 3547 4666 
L 4159 4666 
L 4159 0 
L 3309 0 
L 1241 3903 
L 1241 0 
L 628 0 
L 628 4666 
z
" transform="scale(0.015625)"/>
       <path id="DejaVuSans-6c" d="M 603 4863 
L 1178 4863 
L 1178 0 
L 603 0 
L 603 4863 
z
" transform="scale(0.015625)"/>
      </defs>
      <use xlink:href="#DejaVuSans-28"/>
      <use xlink:href="#DejaVuSans-25" x="39.013672"/>
      <use xlink:href="#DejaVuSans-29" x="134.033203"/>
      <use xlink:href="#DejaVuSans-20" x="173.046875"/>
      <use xlink:href="#DejaVuSans-69" x="204.833984"/>
      <use xlink:href="#DejaVuSans-4d" x="232.617188"/>
      <use xlink:href="#DejaVuSans-4e" x="318.896484"/>
      <use xlink:href="#DejaVuSans-20" x="393.701172"/>
      <use xlink:href="#DejaVuSans-79" x="425.488281"/>
      <use xlink:href="#DejaVuSans-69" x="484.667969"/>
      <use xlink:href="#DejaVuSans-65" x="512.451172"/>
      <use xlink:href="#DejaVuSans-6c" x="573.974609"/>
      <use xlink:href="#DejaVuSans-64" x="601.757812"/>
     </g>
     <!-- per MEF plated -->
     <g transform="translate(25.99625 141.53)rotate(-90)scale(0.1 -0.1)">
      <defs>
       <path id="DejaVuSans-72" d="M 2631 2963 
Q 2534 3019 2420 3045 
Q 2306 3072 2169 3072 
Q 1681 3072 1420 2755 
Q 1159 2438 1159 1844 
L 1159 0 
L 581 0 
L 581 3500 
L 1159 3500 
L 1159 2956 
Q 1341 3275 1631 3429 
Q 1922 3584 2338 3584 
Q 2397 3584 2469 3576 
Q 2541 3569 2628 3553 
L 2631 2963 
z
" transform="scale(0.015625)"/>
       <path id="DejaVuSans-45" d="M 628 4666 
L 3578 4666 
L 3578 4134 
L 1259 4134 
L 1259 2753 
L 3481 2753 
L 3481 2222 
L 1259 2222 
L 1259 531 
L 3634 531 
L 3634 0 
L 628 0 
L 628 4666 
z
" transform="scale(0.015625)"/>
       <path id="DejaVuSans-46" d="M 628 4666 
L 3309 4666 
L 3309 4134 
L 1259 4134 
L 1259 2759 
L 3109 2759 
L 3109 2228 
L 1259 2228 
L 1259 0 
L 628 0 
L 628 4666 
z
" transform="scale(0.015625)"/>
       <path id="DejaVuSans-74" d="M 1172 4494 
L 1172 3500 
L 2356 3500 
L 2356 3053 
L 1172 3053 
L 1172 1153 
Q 1172 725 1289 603 
Q 1406 481 1766 481 
L 2356 481 
L 2356 0 
L 1766 0 
Q 1100 0 847 248 
Q 594 497 594 1153 
L 594 3053 
L 172 3053 
L 172 3500 
L 594 3500 
L 594 4494 
L 1172 4494 
z
" transform="scale(0.015625)"/>
      </defs>
      <use xlink:href="#DejaVuSans-70"/>
      <use xlink:href="#DejaVuSans-65" x="63.476562"/>
      <use xlink:href="#DejaVuSans-72" x="125"/>
      <use xlink:href="#DejaVuSans-20" x="166.113281"/>
      <use xlink:href="#DejaVuSans-4d" x="197.900391"/>
      <use xlink:href="#DejaVuSans-45" x="284.179688"/>
      <use xlink:href="#DejaVuSans-46" x="347.363281"/>
      <use xlink:href="#DejaVuSans-20" x="404.882812"/>
      <use xlink:href="#DejaVuSans-70" x="436.669922"/>
      <use xlink:href="#DejaVuSans-6c" x="500.146484"/>
      <use xlink:href="#DejaVuSans-61" x="527.929688"/>
      <use xlink:href="#DejaVuSans-74" x="589.208984"/>
      <use xlink:href="#DejaVuSans-65" x="628.417969"/>
      <use xlink:href="#DejaVuSans-64" x="689.941406"/>
     </g>
    </g>
   </g>
   <g id="line2d_9">
    <path d="M 70.679034 134.69585 
L 72.090467 134.286904 
L 73.5019 133.877958 
L 74.913332 133.469012 
L 76.324765 133.060067 
L 77.736198 132.651121 
L 79.14763 132.242175 
L 80.559063 131.833229 
L 81.970496 131.424284 
L 83.381928 131.015338 
L 84.793361 130.606392 
L 86.204794 130.197447 
L 87.616226 129.788501 
L 89.027659 129.379555 
L 90.439092 128.970609 
L 91.850524 128.561664 
L 93.261957 128.152718 
L 94.67339 127.743772 
L 96.084822 127.334826 
L 97.496255 126.925881 
L 98.907688 126.516935 
L 100.31912 126.107989 
L 101.730553 125.699043 
L 103.141986 125.290098 
L 104.553419 124.881152 
L 105.964851 124.472206 
L 107.376284 124.06326 
L 108.787717 123.654315 
L 110.199149 123.245369 
L 111.610582 122.836423 
L 113.022015 122.427477 
L 114.433447 122.018532 
L 115.84488 121.609586 
L 117.256313 121.20064 
L 118.667745 120.791694 
L 120.079178 120.382749 
L 121.490611 119.973803 
L 122.902043 119.564857 
L 124.313476 119.155911 
L 125.724909 118.746966 
L 127.136341 118.33802 
L 128.547774 117.929074 
L 129.959207 117.520128 
L 131.370639 117.111183 
L 132.782072 116.702237 
L 134.193505 116.293291 
L 135.604937 115.884345 
L 137.01637 115.4754 
L 138.427803 115.066454 
L 139.839235 114.657508 
L 141.250668 114.248562 
L 142.662101 113.839617 
L 144.073534 113.430671 
L 145.484966 113.021725 
L 146.896399 112.612779 
L 148.307832 112.203834 
L 149.719264 111.794888 
L 151.130697 111.385942 
L 152.54213 110.976997 
L 153.953562 110.568051 
L 155.364995 110.159105 
L 156.776428 109.750159 
L 158.18786 109.341214 
L 159.599293 108.932268 
L 161.010726 108.523322 
L 162.422158 108.114376 
L 163.833591 107.705431 
L 165.245024 107.296485 
L 166.656456 106.887539 
L 168.067889 106.478593 
L 169.479322 106.069648 
L 170.890754 105.660702 
L 172.302187 105.251756 
L 173.71362 104.84281 
L 175.125052 104.433865 
L 176.536485 104.024919 
L 177.947918 103.615973 
L 179.35935 103.207027 
L 180.770783 102.798082 
L 182.182216 102.389136 
L 183.593649 101.98019 
L 185.005081 101.571244 
L 186.416514 101.162299 
L 187.827947 100.753353 
L 189.239379 100.344407 
L 190.650812 99.935461 
L 192.062245 99.526516 
L 193.473677 99.11757 
L 194.88511 98.708624 
L 196.296543 98.299678 
L 197.707975 97.890733 
L 199.119408 97.481787 
L 200.530841 97.072841 
L 201.942273 96.663895 
L 203.353706 96.25495 
L 204.765139 95.846004 
L 206.176571 95.437058 
L 207.588004 95.028112 
L 208.999437 94.619167 
L 210.410869 94.210221 
" clip-path="url(#p6359ce4931)" style="fill: none; stroke: #ec8063; stroke-width: 2.25; stroke-linecap: square"/>
   </g>
   <g id="LineCollection_1">
    <path d="M 155.566877 107.810716 
L 172.316212 107.810716 
" clip-path="url(#p6359ce4931)" style="fill: none; stroke: #000000; stroke-width: 0.5"/>
    <path d="M 161.233018 130.89149 
L 172.409317 130.89149 
" clip-path="url(#p6359ce4931)" style="fill: none; stroke: #000000; stroke-width: 0.5"/>
    <path d="M 202.867392 72.434892 
L 217.954347 72.434892 
" clip-path="url(#p6359ce4931)" style="fill: none; stroke: #000000; stroke-width: 0.5"/>
    <path d="M 179.037168 74.647016 
L 181.410419 74.647016 
" clip-path="url(#p6359ce4931)" style="fill: none; stroke: #000000; stroke-width: 0.5"/>
    <path d="M 65.772528 149.013788 
L 75.58554 149.013788 
" clip-path="url(#p6359ce4931)" style="fill: none; stroke: #000000; stroke-width: 0.5"/>
    <path d="M 84.438374 110.10064 
L 92.7281 110.10064 
" clip-path="url(#p6359ce4931)" style="fill: none; stroke: #000000; stroke-width: 0.5"/>
    <path d="M 101.497595 97.349161 
L 106.96271 97.349161 
" clip-path="url(#p6359ce4931)" style="fill: none; stroke: #000000; stroke-width: 0.5"/>
    <path d="M 96.360037 48.060039 
L 100.068676 48.060039 
" clip-path="url(#p6359ce4931)" style="fill: none; stroke: #000000; stroke-width: 0.5"/>
    <path d="M 106.854436 120.824124 
L 123.723514 120.824124 
" clip-path="url(#p6359ce4931)" style="fill: none; stroke: #000000; stroke-width: 0.5"/>
    <path d="M 126.244163 123.72089 
L 127.427406 123.72089 
" clip-path="url(#p6359ce4931)" style="fill: none; stroke: #000000; stroke-width: 0.5"/>
    <path d="M 170.415122 76.436424 
L 174.737865 76.436424 
" clip-path="url(#p6359ce4931)" style="fill: none; stroke: #000000; stroke-width: 0.5"/>
    <path d="M 155.808392 79.605492 
L 162.726328 79.605492 
" clip-path="url(#p6359ce4931)" style="fill: none; stroke: #000000; stroke-width: 0.5"/>
    <path d="M 122.920091 97.260987 
L 136.108352 97.260987 
" clip-path="url(#p6359ce4931)" style="fill: none; stroke: #000000; stroke-width: 0.5"/>
    <path d="M 116.831402 144.623254 
L 142.498559 144.623254 
" clip-path="url(#p6359ce4931)" style="fill: none; stroke: #000000; stroke-width: 0.5"/>
    <path d="M 202.736257 97.769283 
L 208.907441 97.769283 
" clip-path="url(#p6359ce4931)" style="fill: none; stroke: #000000; stroke-width: 0.5"/>
    <path d="M 184.661472 91.011025 
L 195.955631 91.011025 
" clip-path="url(#p6359ce4931)" style="fill: none; stroke: #000000; stroke-width: 0.5"/>
    <path d="M 122.536244 101.30142 
L 133.674626 101.30142 
" clip-path="url(#p6359ce4931)" style="fill: none; stroke: #000000; stroke-width: 0.5"/>
    <path d="M 126.512424 139.236876 
L 134.218767 139.236876 
" clip-path="url(#p6359ce4931)" style="fill: none; stroke: #000000; stroke-width: 0.5"/>
    <path d="M 161.702005 88.109072 
L 174.314444 88.109072 
" clip-path="url(#p6359ce4931)" style="fill: none; stroke: #000000; stroke-width: 0.5"/>
    <path d="M 170.140376 90.616837 
L 182.51944 90.616837 
" clip-path="url(#p6359ce4931)" style="fill: none; stroke: #000000; stroke-width: 0.5"/>
    <path d="M 126.045539 172.296843 
L 148.254713 172.296843 
" clip-path="url(#p6359ce4931)" style="fill: none; stroke: #000000; stroke-width: 0.5"/>
    <path d="M 120.007801 174.744961 
L 125.516327 174.744961 
" clip-path="url(#p6359ce4931)" style="fill: none; stroke: #000000; stroke-width: 0.5"/>
    <path d="M 155.151848 162.729992 
L 160.734273 162.729992 
" clip-path="url(#p6359ce4931)" style="fill: none; stroke: #000000; stroke-width: 0.5"/>
    <path d="M 154.961911 162.714432 
L 156.781787 162.714432 
" clip-path="url(#p6359ce4931)" style="fill: none; stroke: #000000; stroke-width: 0.5"/>
   </g>
   <g id="LineCollection_2">
    <path d="M 163.941544 110.727529 
L 163.941544 104.893904 
" clip-path="url(#p6359ce4931)" style="fill: none; stroke: #000000; stroke-width: 0.5"/>
    <path d="M 166.821167 132.0036 
L 166.821167 129.779381 
" clip-path="url(#p6359ce4931)" style="fill: none; stroke: #000000; stroke-width: 0.5"/>
    <path d="M 210.410869 80.325862 
L 210.410869 64.543922 
" clip-path="url(#p6359ce4931)" style="fill: none; stroke: #000000; stroke-width: 0.5"/>
    <path d="M 180.223793 81.796946 
L 180.223793 67.497086 
" clip-path="url(#p6359ce4931)" style="fill: none; stroke: #000000; stroke-width: 0.5"/>
    <path d="M 70.679034 163.313833 
L 70.679034 134.713743 
" clip-path="url(#p6359ce4931)" style="fill: none; stroke: #000000; stroke-width: 0.5"/>
    <path d="M 88.583237 111.340186 
L 88.583237 108.861095 
" clip-path="url(#p6359ce4931)" style="fill: none; stroke: #000000; stroke-width: 0.5"/>
    <path d="M 104.230152 103.182705 
L 104.230152 91.515617 
" clip-path="url(#p6359ce4931)" style="fill: none; stroke: #000000; stroke-width: 0.5"/>
    <path d="M 98.214357 66.389225 
L 98.214357 29.730852 
" clip-path="url(#p6359ce4931)" style="fill: none; stroke: #000000; stroke-width: 0.5"/>
    <path d="M 115.288975 126.755925 
L 115.288975 114.892322 
" clip-path="url(#p6359ce4931)" style="fill: none; stroke: #000000; stroke-width: 0.5"/>
    <path d="M 126.835785 127.603059 
L 126.835785 119.838722 
" clip-path="url(#p6359ce4931)" style="fill: none; stroke: #000000; stroke-width: 0.5"/>
    <path d="M 172.576493 89.78487 
L 172.576493 63.087978 
" clip-path="url(#p6359ce4931)" style="fill: none; stroke: #000000; stroke-width: 0.5"/>
    <path d="M 159.26736 85.1495 
L 159.26736 74.061484 
" clip-path="url(#p6359ce4931)" style="fill: none; stroke: #000000; stroke-width: 0.5"/>
    <path d="M 129.514221 100.328613 
L 129.514221 94.193362 
" clip-path="url(#p6359ce4931)" style="fill: none; stroke: #000000; stroke-width: 0.5"/>
    <path d="M 129.664981 149.74375 
L 129.664981 139.502759 
" clip-path="url(#p6359ce4931)" style="fill: none; stroke: #000000; stroke-width: 0.5"/>
    <path d="M 205.821849 100.0698 
L 205.821849 95.468767 
" clip-path="url(#p6359ce4931)" style="fill: none; stroke: #000000; stroke-width: 0.5"/>
    <path d="M 190.308552 95.092661 
L 190.308552 86.929389 
" clip-path="url(#p6359ce4931)" style="fill: none; stroke: #000000; stroke-width: 0.5"/>
    <path d="M 128.105435 105.175787 
L 128.105435 97.427052 
" clip-path="url(#p6359ce4931)" style="fill: none; stroke: #000000; stroke-width: 0.5"/>
    <path d="M 130.365595 142.557704 
L 130.365595 135.916048 
" clip-path="url(#p6359ce4931)" style="fill: none; stroke: #000000; stroke-width: 0.5"/>
    <path d="M 168.008225 104.799617 
L 168.008225 71.418526 
" clip-path="url(#p6359ce4931)" style="fill: none; stroke: #000000; stroke-width: 0.5"/>
    <path d="M 176.329908 97.532731 
L 176.329908 83.700943 
" clip-path="url(#p6359ce4931)" style="fill: none; stroke: #000000; stroke-width: 0.5"/>
    <path d="M 137.150126 173.313213 
L 137.150126 171.280473 
" clip-path="url(#p6359ce4931)" style="fill: none; stroke: #000000; stroke-width: 0.5"/>
    <path d="M 122.762064 177.985398 
L 122.762064 171.504524 
" clip-path="url(#p6359ce4931)" style="fill: none; stroke: #000000; stroke-width: 0.5"/>
    <path d="M 157.943061 171.021676 
L 157.943061 154.438307 
" clip-path="url(#p6359ce4931)" style="fill: none; stroke: #000000; stroke-width: 0.5"/>
    <path d="M 155.871849 167.704635 
L 155.871849 157.724229 
" clip-path="url(#p6359ce4931)" style="fill: none; stroke: #000000; stroke-width: 0.5"/>
   </g>
   <g id="line2d_10">
    <path d="M 163.941544 107.810716 
L 166.821167 130.89149 
L 210.410869 72.434892 
L 180.223793 74.647016 
L 70.679034 149.013788 
L 88.583237 110.10064 
L 104.230152 97.349161 
L 98.214357 48.060039 
L 115.288975 120.824124 
L 126.835785 123.72089 
L 172.576493 76.436424 
L 159.26736 79.605492 
L 129.514221 97.260987 
L 129.664981 144.623254 
L 205.821849 97.769283 
L 190.308552 91.011025 
L 128.105435 101.30142 
L 130.365595 139.236876 
L 168.008225 88.109072 
L 176.329908 90.616837 
L 137.150126 172.296843 
L 122.762064 174.744961 
L 157.943061 162.729992 
L 155.871849 162.714432 
" clip-path="url(#p6359ce4931)" style="fill: none; stroke: #000000; stroke-opacity: 0; stroke-width: 1.5; stroke-linecap: square"/>
   </g>
   <g id="patch_3">
    <path d="M 58.163438 185.398125 
L 58.163438 22.318125 
" style="fill: none; stroke: #000000; stroke-width: 0.8; stroke-linejoin: miter; stroke-linecap: square"/>
   </g>
   <g id="patch_4">
    <path d="M 225.563438 185.398125 
L 225.563438 22.318125 
" style="fill: none; stroke: #000000; stroke-width: 0.8; stroke-linejoin: miter; stroke-linecap: square"/>
   </g>
   <g id="patch_5">
    <path d="M 58.163438 185.398125 
L 225.563438 185.398125 
" style="fill: none; stroke: #000000; stroke-width: 0.8; stroke-linejoin: miter; stroke-linecap: square"/>
   </g>
   <g id="patch_6">
    <path d="M 58.163438 22.318125 
L 225.563438 22.318125 
" style="fill: none; stroke: #000000; stroke-width: 0.8; stroke-linejoin: miter; stroke-linecap: square"/>
   </g>
   <g id="text_11">
    <!-- r = 0.30 -->
    <g transform="translate(66.533438 38.626125)scale(0.1 -0.1)">
     <defs>
      <path id="DejaVuSans-3d" d="M 678 2906 
L 4684 2906 
L 4684 2381 
L 678 2381 
L 678 2906 
z
M 678 1631 
L 4684 1631 
L 4684 1100 
L 678 1100 
L 678 1631 
z
" transform="scale(0.015625)"/>
      <path id="DejaVuSans-2e" d="M 684 794 
L 1344 794 
L 1344 0 
L 684 0 
L 684 794 
z
" transform="scale(0.015625)"/>
     </defs>
     <use xlink:href="#DejaVuSans-72"/>
     <use xlink:href="#DejaVuSans-20" x="41.113281"/>
     <use xlink:href="#DejaVuSans-3d" x="72.900391"/>
     <use xlink:href="#DejaVuSans-20" x="156.689453"/>
     <use xlink:href="#DejaVuSans-30" x="188.476562"/>
     <use xlink:href="#DejaVuSans-2e" x="252.099609"/>
     <use xlink:href="#DejaVuSans-33" x="283.886719"/>
     <use xlink:href="#DejaVuSans-30" x="347.509766"/>
    </g>
   </g>
   <g id="text_12">
    <!-- Isl1 -->
    <g transform="translate(131.483438 16.318125)scale(0.12 -0.12)">
     <defs>
      <path id="DejaVuSans-49" d="M 628 4666 
L 1259 4666 
L 1259 0 
L 628 0 
L 628 4666 
z
" transform="scale(0.015625)"/>
      <path id="DejaVuSans-73" d="M 2834 3397 
L 2834 2853 
Q 2591 2978 2328 3040 
Q 2066 3103 1784 3103 
Q 1356 3103 1142 2972 
Q 928 2841 928 2578 
Q 928 2378 1081 2264 
Q 1234 2150 1697 2047 
L 1894 2003 
Q 2506 1872 2764 1633 
Q 3022 1394 3022 966 
Q 3022 478 2636 193 
Q 2250 -91 1575 -91 
Q 1294 -91 989 -36 
Q 684 19 347 128 
L 347 722 
Q 666 556 975 473 
Q 1284 391 1588 391 
Q 1994 391 2212 530 
Q 2431 669 2431 922 
Q 2431 1156 2273 1281 
Q 2116 1406 1581 1522 
L 1381 1569 
Q 847 1681 609 1914 
Q 372 2147 372 2553 
Q 372 3047 722 3315 
Q 1072 3584 1716 3584 
Q 2034 3584 2315 3537 
Q 2597 3491 2834 3397 
z
" transform="scale(0.015625)"/>
     </defs>
     <use xlink:href="#DejaVuSans-49"/>
     <use xlink:href="#DejaVuSans-73" x="29.492188"/>
     <use xlink:href="#DejaVuSans-6c" x="81.591797"/>
     <use xlink:href="#DejaVuSans-31" x="109.375"/>
    </g>
   </g>
  </g>
 </g>
 <defs>
  <clipPath id="p6359ce4931">
   <rect x="58.163438" y="22.318125" width="167.4" height="163.08"/>
  </clipPath>
 </defs>
</svg>
