<?xml version="1.0" encoding="utf-8" standalone="no"?>
<!DOCTYPE svg PUBLIC "-//W3C//DTD SVG 1.1//EN"
  "http://www.w3.org/Graphics/SVG/1.1/DTD/svg11.dtd">
<svg xmlns:xlink="http://www.w3.org/1999/xlink" width="232.763437pt" height="234.152188pt" viewBox="0 0 232.763437 234.152188" xmlns="http://www.w3.org/2000/svg" version="1.1">
 <metadata>
  <rdf:RDF xmlns:dc="http://purl.org/dc/elements/1.1/" xmlns:cc="http://creativecommons.org/ns#" xmlns:rdf="http://www.w3.org/1999/02/22-rdf-syntax-ns#">
   <cc:Work>
    <dc:type rdf:resource="http://purl.org/dc/dcmitype/StillImage"/>
    <dc:date>2025-01-26T16:00:56.556093</dc:date>
    <dc:format>image/svg+xml</dc:format>
    <dc:creator>
     <cc:Agent>
      <dc:title>Matplotlib v3.5.2, https://matplotlib.org/</dc:title>
     </cc:Agent>
    </dc:creator>
   </cc:Work>
  </rdf:RDF>
 </metadata>
 <defs>
  <style type="text/css">*{stroke-linejoin: round; stroke-linecap: butt}</style>
 </defs>
 <g id="figure_1">
  <g id="patch_1">
   <path d="M 0 234.152188 
L 232.763437 234.152188 
L 232.763437 -0 
L 0 -0 
L 0 234.152188 
z
" style="fill: none"/>
  </g>
  <g id="axes_1">
   <g id="patch_2">
    <path d="M 58.163438 185.398125 
L 225.563438 185.398125 
L 225.563438 22.318125 
L 58.163438 22.318125 
z
" style="fill: #ffffff"/>
   </g>
   <g id="PathCollection_1">
    <defs>
     <path id="m2680efa629" d="M 0 3 
C 0.795609 3 1.55874 2.683901 2.12132 2.12132 
C 2.683901 1.55874 3 0.795609 3 0 
C 3 -0.795609 2.683901 -1.55874 2.12132 -2.12132 
C 1.55874 -2.683901 0.795609 -3 0 -3 
C -0.795609 -3 -1.55874 -2.683901 -2.12132 -2.12132 
C -2.683901 -1.55874 -3 -0.795609 -3 0 
C -3 0.795609 -2.683901 1.55874 -2.12132 2.12132 
C -1.55874 2.683901 -0.795609 3 0 3 
z
" style="stroke: #ec8063; stroke-opacity: 0.8"/>
    </defs>
    <g clip-path="url(#p01f10a6b0a)">
     <use xlink:href="#m2680efa629" x="131.089088" y="93.057188" style="fill: #ec8063; fill-opacity: 0.8; stroke: #ec8063; stroke-opacity: 0.8"/>
     <use xlink:href="#m2680efa629" x="109.450958" y="111.77675" style="fill: #ec8063; fill-opacity: 0.8; stroke: #ec8063; stroke-opacity: 0.8"/>
     <use xlink:href="#m2680efa629" x="145.892672" y="64.365779" style="fill: #ec8063; fill-opacity: 0.8; stroke: #ec8063; stroke-opacity: 0.8"/>
     <use xlink:href="#m2680efa629" x="117.002373" y="66.159912" style="fill: #ec8063; fill-opacity: 0.8; stroke: #ec8063; stroke-opacity: 0.8"/>
     <use xlink:href="#m2680efa629" x="84.312321" y="126.474761" style="fill: #ec8063; fill-opacity: 0.8; stroke: #ec8063; stroke-opacity: 0.8"/>
     <use xlink:href="#m2680efa629" x="76.586608" y="94.914421" style="fill: #ec8063; fill-opacity: 0.8; stroke: #ec8063; stroke-opacity: 0.8"/>
     <use xlink:href="#m2680efa629" x="92.486738" y="84.572389" style="fill: #ec8063; fill-opacity: 0.8; stroke: #ec8063; stroke-opacity: 0.8"/>
     <use xlink:href="#m2680efa629" x="80.902479" y="44.59666" style="fill: #ec8063; fill-opacity: 0.8; stroke: #ec8063; stroke-opacity: 0.8"/>
     <use xlink:href="#m2680efa629" x="107.524893" y="103.611655" style="fill: #ec8063; fill-opacity: 0.8; stroke: #ec8063; stroke-opacity: 0.8"/>
     <use xlink:href="#m2680efa629" x="88.310789" y="105.961066" style="fill: #ec8063; fill-opacity: 0.8; stroke: #ec8063; stroke-opacity: 0.8"/>
     <use xlink:href="#m2680efa629" x="120.23434" y="67.611204" style="fill: #ec8063; fill-opacity: 0.8; stroke: #ec8063; stroke-opacity: 0.8"/>
     <use xlink:href="#m2680efa629" x="95.072258" y="70.181463" style="fill: #ec8063; fill-opacity: 0.8; stroke: #ec8063; stroke-opacity: 0.8"/>
     <use xlink:href="#m2680efa629" x="107.515906" y="84.500876" style="fill: #ec8063; fill-opacity: 0.8; stroke: #ec8063; stroke-opacity: 0.8"/>
     <use xlink:href="#m2680efa629" x="92.326176" y="122.913837" style="fill: #ec8063; fill-opacity: 0.8; stroke: #ec8063; stroke-opacity: 0.8"/>
     <use xlink:href="#m2680efa629" x="147.998358" y="84.913127" style="fill: #ec8063; fill-opacity: 0.8; stroke: #ec8063; stroke-opacity: 0.8"/>
     <use xlink:href="#m2680efa629" x="109.372325" y="79.431871" style="fill: #ec8063; fill-opacity: 0.8; stroke: #ec8063; stroke-opacity: 0.8"/>
     <use xlink:href="#m2680efa629" x="102.739809" y="87.777851" style="fill: #ec8063; fill-opacity: 0.8; stroke: #ec8063; stroke-opacity: 0.8"/>
     <use xlink:href="#m2680efa629" x="88.79827" y="118.545238" style="fill: #ec8063; fill-opacity: 0.8; stroke: #ec8063; stroke-opacity: 0.8"/>
     <use xlink:href="#m2680efa629" x="134.682052" y="77.078254" style="fill: #ec8063; fill-opacity: 0.8; stroke: #ec8063; stroke-opacity: 0.8"/>
     <use xlink:href="#m2680efa629" x="96.281981" y="79.112166" style="fill: #ec8063; fill-opacity: 0.8; stroke: #ec8063; stroke-opacity: 0.8"/>
     <use xlink:href="#m2680efa629" x="115.896477" y="144.560171" style="fill: #ec8063; fill-opacity: 0.8; stroke: #ec8063; stroke-opacity: 0.8"/>
     <use xlink:href="#m2680efa629" x="93.218776" y="147.343917" style="fill: #ec8063; fill-opacity: 0.8; stroke: #ec8063; stroke-opacity: 0.8"/>
     <use xlink:href="#m2680efa629" x="154.589323" y="137.599228" style="fill: #ec8063; fill-opacity: 0.8; stroke: #ec8063; stroke-opacity: 0.8"/>
     <use xlink:href="#m2680efa629" x="104.563423" y="137.586608" style="fill: #ec8063; fill-opacity: 0.8; stroke: #ec8063; stroke-opacity: 0.8"/>
    </g>
   </g>
   <g id="PolyCollection_1">
    <path d="M 76.586608 78.843311 
L 76.586608 123.184446 
L 77.374515 122.65807 
L 78.162421 122.126035 
L 78.950327 121.580392 
L 79.738233 121.034655 
L 80.52614 120.487594 
L 81.314046 119.911994 
L 82.101952 119.330339 
L 82.889858 118.850519 
L 83.677764 118.306531 
L 84.465671 117.925327 
L 85.253577 117.519045 
L 86.041483 117.152343 
L 86.829389 116.783805 
L 87.617295 116.317035 
L 88.405202 115.76792 
L 89.193108 115.434201 
L 89.981014 114.868576 
L 90.76892 114.46296 
L 91.556826 114.146846 
L 92.344733 113.91692 
L 93.132639 113.559502 
L 93.920545 113.14884 
L 94.708451 112.860218 
L 95.496357 112.573869 
L 96.284264 112.256946 
L 97.07217 111.692477 
L 97.860076 111.090766 
L 98.647982 110.873165 
L 99.435889 110.473952 
L 100.223795 110.055827 
L 101.011701 109.761131 
L 101.799607 109.522174 
L 102.587513 109.417105 
L 103.37542 109.171657 
L 104.163326 109.155115 
L 104.951232 109.058526 
L 105.739138 109.129115 
L 106.527044 108.956383 
L 107.314951 108.826962 
L 108.102857 108.72293 
L 108.890763 108.471253 
L 109.678669 108.521419 
L 110.466575 108.552606 
L 111.254482 108.370041 
L 112.042388 108.553923 
L 112.830294 108.740713 
L 113.6182 108.817509 
L 114.406106 108.788353 
L 115.194013 108.920865 
L 115.981919 108.965922 
L 116.769825 109.049653 
L 117.557731 109.306041 
L 118.345638 109.70375 
L 119.133544 109.97104 
L 119.92145 109.877858 
L 120.709356 110.051147 
L 121.497262 110.335713 
L 122.285169 110.459746 
L 123.073075 110.489146 
L 123.860981 110.567748 
L 124.648887 110.758114 
L 125.436793 111.213825 
L 126.2247 111.426226 
L 127.012606 111.61729 
L 127.800512 111.808355 
L 128.588418 112.076885 
L 129.376324 112.418269 
L 130.164231 112.794046 
L 130.952137 112.985071 
L 131.740043 113.176095 
L 132.527949 113.365691 
L 133.315855 113.717883 
L 134.103762 114.15196 
L 134.891668 114.557881 
L 135.679574 114.88477 
L 136.46748 115.379345 
L 137.255387 115.873921 
L 138.043293 116.101269 
L 138.831199 116.276939 
L 139.619105 116.452609 
L 140.407011 116.62828 
L 141.194918 116.90442 
L 141.982824 117.33957 
L 142.77073 117.828387 
L 143.558636 118.339961 
L 144.346542 118.846484 
L 145.134449 119.353006 
L 145.922355 119.859528 
L 146.710261 120.260077 
L 147.498167 120.471237 
L 148.286073 120.801852 
L 149.07398 121.238731 
L 149.861886 121.671904 
L 150.649792 122.102723 
L 151.437698 122.533543 
L 152.225604 122.964362 
L 153.013511 123.366134 
L 153.801417 123.642108 
L 154.589323 123.925935 
L 154.589323 62.284415 
L 154.589323 62.284415 
L 153.801417 62.857337 
L 153.013511 63.430258 
L 152.225604 63.96069 
L 151.437698 64.46669 
L 150.649792 65.005565 
L 149.861886 65.52601 
L 149.07398 66.046454 
L 148.286073 66.569074 
L 147.498167 67.095085 
L 146.710261 67.564376 
L 145.922355 68.138898 
L 145.134449 68.657165 
L 144.346542 69.181143 
L 143.558636 69.652974 
L 142.77073 70.049642 
L 141.982824 70.535782 
L 141.194918 71.106836 
L 140.407011 71.681114 
L 139.619105 72.206003 
L 138.831199 72.817268 
L 138.043293 73.366472 
L 137.255387 73.891123 
L 136.46748 74.416334 
L 135.679574 75.007406 
L 134.891668 75.584516 
L 134.103762 75.97819 
L 133.315855 76.495062 
L 132.527949 76.968489 
L 131.740043 77.393978 
L 130.952137 77.819468 
L 130.164231 78.220192 
L 129.376324 78.667119 
L 128.588418 79.242846 
L 127.800512 79.666019 
L 127.012606 79.933723 
L 126.2247 80.3564 
L 125.436793 80.662136 
L 124.648887 81.150579 
L 123.860981 81.497397 
L 123.073075 81.736019 
L 122.285169 82.226061 
L 121.497262 82.595048 
L 120.709356 82.945406 
L 119.92145 83.341775 
L 119.133544 83.441924 
L 118.345638 83.860613 
L 117.557731 84.050358 
L 116.769825 83.958815 
L 115.981919 84.18559 
L 115.194013 84.478829 
L 114.406106 84.652854 
L 113.6182 84.768347 
L 112.830294 84.950728 
L 112.042388 85.340074 
L 111.254482 85.562177 
L 110.466575 85.68427 
L 109.678669 85.765626 
L 108.890763 85.678668 
L 108.102857 85.648114 
L 107.314951 85.735242 
L 106.527044 85.815467 
L 105.739138 85.782718 
L 104.951232 86.12565 
L 104.163326 85.946766 
L 103.37542 85.677043 
L 102.587513 86.041507 
L 101.799607 86.023958 
L 101.011701 86.073483 
L 100.223795 85.921776 
L 99.435889 85.766671 
L 98.647982 85.609527 
L 97.860076 85.619512 
L 97.07217 85.474456 
L 96.284264 85.161473 
L 95.496357 84.994859 
L 94.708451 84.712754 
L 93.920545 84.494055 
L 93.132639 84.26983 
L 92.344733 84.272314 
L 91.556826 84.101929 
L 90.76892 83.84546 
L 89.981014 83.335667 
L 89.193108 82.983372 
L 88.405202 82.925617 
L 87.617295 82.8037 
L 86.829389 82.637451 
L 86.041483 82.315455 
L 85.253577 82.197139 
L 84.465671 82.081743 
L 83.677764 81.826803 
L 82.889858 81.606195 
L 82.101952 81.161478 
L 81.314046 80.697054 
L 80.52614 80.317103 
L 79.738233 79.941856 
L 78.950327 79.608097 
L 78.162421 79.465665 
L 77.374515 79.194726 
L 76.586608 78.843311 
z
" clip-path="url(#p01f10a6b0a)" style="fill: #ec8063; fill-opacity: 0.15"/>
   </g>
   <g id="PathCollection_2">
    <defs>
     <path id="m65516a711f" d="M 0 3.162278 
C 0.838646 3.162278 1.643056 2.82908 2.236068 2.236068 
C 2.82908 1.643056 3.162278 0.838646 3.162278 0 
C 3.162278 -0.838646 2.82908 -1.643056 2.236068 -2.236068 
C 1.643056 -2.82908 0.838646 -3.162278 0 -3.162278 
C -0.838646 -3.162278 -1.643056 -2.82908 -2.236068 -2.236068 
C -2.82908 -1.643056 -3.162278 -0.838646 -3.162278 0 
C -3.162278 0.838646 -2.82908 1.643056 -2.236068 2.236068 
C -1.643056 2.82908 -0.838646 3.162278 0 3.162278 
z
" style="stroke: #ec8063; stroke-width: 2"/>
    </defs>
    <g clip-path="url(#p01f10a6b0a)">
     <use xlink:href="#m65516a711f" x="68.535817" y="177.781083" style="fill: #ffffff; stroke: #ec8063; stroke-width: 2"/>
     <use xlink:href="#m65516a711f" x="68.042007" y="175.963813" style="fill: #ffffff; stroke: #ec8063; stroke-width: 2"/>
     <use xlink:href="#m65516a711f" x="67.593529" y="176.981821" style="fill: #ffffff; stroke: #ec8063; stroke-width: 2"/>
     <use xlink:href="#m65516a711f" x="65.848653" y="170.844329" style="fill: #ffffff; stroke: #ec8063; stroke-width: 2"/>
    </g>
   </g>
   <g id="PathCollection_3">
    <defs>
     <path id="m4b9b99d301" d="M 0 3 
C 0.795609 3 1.55874 2.683901 2.12132 2.12132 
C 2.683901 1.55874 3 0.795609 3 0 
C 3 -0.795609 2.683901 -1.55874 2.12132 -2.12132 
C 1.55874 -2.683901 0.795609 -3 0 -3 
C -0.795609 -3 -1.55874 -2.683901 -2.12132 -2.12132 
C -2.683901 -1.55874 -3 -0.795609 -3 0 
C -3 0.795609 -2.683901 1.55874 -2.12132 2.12132 
C -1.55874 2.683901 -0.795609 3 0 3 
z
" style="stroke: #808080; stroke-opacity: 0.8"/>
    </defs>
    <g clip-path="url(#p01f10a6b0a)">
     <use xlink:href="#m4b9b99d301" x="207.236804" y="93.057188" style="fill: #808080; fill-opacity: 0.8; stroke: #808080; stroke-opacity: 0.8"/>
     <use xlink:href="#m4b9b99d301" x="159.661192" y="111.77675" style="fill: #808080; fill-opacity: 0.8; stroke: #808080; stroke-opacity: 0.8"/>
     <use xlink:href="#m4b9b99d301" x="177.619654" y="64.365779" style="fill: #808080; fill-opacity: 0.8; stroke: #808080; stroke-opacity: 0.8"/>
     <use xlink:href="#m4b9b99d301" x="210.973606" y="66.159912" style="fill: #808080; fill-opacity: 0.8; stroke: #808080; stroke-opacity: 0.8"/>
     <use xlink:href="#m4b9b99d301" x="134.856699" y="126.474761" style="fill: #808080; fill-opacity: 0.8; stroke: #808080; stroke-opacity: 0.8"/>
     <use xlink:href="#m4b9b99d301" x="103.332724" y="94.914421" style="fill: #808080; fill-opacity: 0.8; stroke: #808080; stroke-opacity: 0.8"/>
     <use xlink:href="#m4b9b99d301" x="131.249563" y="84.572389" style="fill: #808080; fill-opacity: 0.8; stroke: #808080; stroke-opacity: 0.8"/>
     <use xlink:href="#m4b9b99d301" x="123.888483" y="44.59666" style="fill: #808080; fill-opacity: 0.8; stroke: #808080; stroke-opacity: 0.8"/>
     <use xlink:href="#m4b9b99d301" x="178.837777" y="103.611655" style="fill: #808080; fill-opacity: 0.8; stroke: #808080; stroke-opacity: 0.8"/>
     <use xlink:href="#m4b9b99d301" x="124.445536" y="105.961066" style="fill: #808080; fill-opacity: 0.8; stroke: #808080; stroke-opacity: 0.8"/>
     <use xlink:href="#m4b9b99d301" x="151.993508" y="67.611204" style="fill: #808080; fill-opacity: 0.8; stroke: #808080; stroke-opacity: 0.8"/>
     <use xlink:href="#m4b9b99d301" x="155.683042" y="70.181463" style="fill: #808080; fill-opacity: 0.8; stroke: #808080; stroke-opacity: 0.8"/>
     <use xlink:href="#m4b9b99d301" x="180.617081" y="84.500876" style="fill: #808080; fill-opacity: 0.8; stroke: #808080; stroke-opacity: 0.8"/>
     <use xlink:href="#m4b9b99d301" x="130.912781" y="122.913837" style="fill: #808080; fill-opacity: 0.8; stroke: #808080; stroke-opacity: 0.8"/>
     <use xlink:href="#m4b9b99d301" x="174.123805" y="84.913127" style="fill: #808080; fill-opacity: 0.8; stroke: #808080; stroke-opacity: 0.8"/>
     <use xlink:href="#m4b9b99d301" x="197.864521" y="79.431871" style="fill: #808080; fill-opacity: 0.8; stroke: #808080; stroke-opacity: 0.8"/>
     <use xlink:href="#m4b9b99d301" x="172.685845" y="87.777851" style="fill: #808080; fill-opacity: 0.8; stroke: #808080; stroke-opacity: 0.8"/>
     <use xlink:href="#m4b9b99d301" x="128.788615" y="118.545238" style="fill: #808080; fill-opacity: 0.8; stroke: #808080; stroke-opacity: 0.8"/>
     <use xlink:href="#m4b9b99d301" x="160.862385" y="77.078254" style="fill: #808080; fill-opacity: 0.8; stroke: #808080; stroke-opacity: 0.8"/>
     <use xlink:href="#m4b9b99d301" x="161.187006" y="79.112166" style="fill: #808080; fill-opacity: 0.8; stroke: #808080; stroke-opacity: 0.8"/>
     <use xlink:href="#m4b9b99d301" x="199.109024" y="144.560171" style="fill: #808080; fill-opacity: 0.8; stroke: #808080; stroke-opacity: 0.8"/>
     <use xlink:href="#m4b9b99d301" x="147.003244" y="147.343917" style="fill: #808080; fill-opacity: 0.8; stroke: #808080; stroke-opacity: 0.8"/>
     <use xlink:href="#m4b9b99d301" x="183.814865" y="137.599228" style="fill: #808080; fill-opacity: 0.8; stroke: #808080; stroke-opacity: 0.8"/>
     <use xlink:href="#m4b9b99d301" x="182.837575" y="137.586608" style="fill: #808080; fill-opacity: 0.8; stroke: #808080; stroke-opacity: 0.8"/>
    </g>
   </g>
   <g id="PolyCollection_2">
    <path d="M 103.332724 67.031628 
L 103.332724 120.79588 
L 104.420005 120.375618 
L 105.507287 119.905045 
L 106.594569 119.434472 
L 107.68185 119.156438 
L 108.769132 118.778809 
L 109.856414 118.422445 
L 110.943695 118.120021 
L 112.030977 117.910173 
L 113.118258 117.656779 
L 114.20554 117.222914 
L 115.292822 116.826907 
L 116.380103 116.416639 
L 117.467385 116.032107 
L 118.554667 115.869665 
L 119.641948 115.705533 
L 120.72923 115.5414 
L 121.816512 115.377267 
L 122.903793 115.210314 
L 123.991075 114.884379 
L 125.078356 114.559484 
L 126.165638 114.350825 
L 127.25292 114.139826 
L 128.340201 113.806857 
L 129.427483 113.390544 
L 130.514765 113.184942 
L 131.602046 112.872674 
L 132.689328 112.669266 
L 133.77661 112.463799 
L 134.863891 112.146899 
L 135.951173 111.767368 
L 137.038454 111.38591 
L 138.125736 111.146051 
L 139.213018 110.811262 
L 140.300299 110.66826 
L 141.387581 110.514581 
L 142.474863 110.303999 
L 143.562144 110.008313 
L 144.649426 109.81598 
L 145.736708 109.944182 
L 146.823989 109.79863 
L 147.911271 109.548133 
L 148.998552 109.589322 
L 150.085834 109.457977 
L 151.173116 109.323184 
L 152.260397 109.191322 
L 153.347679 109.018828 
L 154.434961 108.923501 
L 155.522242 108.732729 
L 156.609524 108.640342 
L 157.696806 108.582672 
L 158.784087 108.627858 
L 159.871369 108.659412 
L 160.958651 108.72093 
L 162.045932 108.781931 
L 163.133214 108.842942 
L 164.220495 109.037017 
L 165.307777 108.942204 
L 166.395059 108.996081 
L 167.48234 109.085989 
L 168.569622 109.305338 
L 169.656904 109.49006 
L 170.744185 109.535775 
L 171.831467 109.686399 
L 172.918749 109.753199 
L 174.00603 110.096985 
L 175.093312 110.506629 
L 176.180593 110.840993 
L 177.267875 110.83903 
L 178.355157 110.771218 
L 179.442438 111.085619 
L 180.52972 111.585727 
L 181.617002 112.012737 
L 182.704283 112.558999 
L 183.791565 113.098078 
L 184.878847 113.635203 
L 185.966128 114.164597 
L 187.05341 114.50847 
L 188.140691 114.847404 
L 189.227973 115.184679 
L 190.315255 115.475129 
L 191.402536 115.832126 
L 192.489818 116.171005 
L 193.5771 116.538967 
L 194.664381 116.877279 
L 195.751663 117.275259 
L 196.838945 117.624915 
L 197.926226 118.113064 
L 199.013508 118.711427 
L 200.100789 118.977595 
L 201.188071 119.33038 
L 202.275353 119.815059 
L 203.362634 120.182836 
L 204.449916 120.75564 
L 205.537198 121.197517 
L 206.624479 121.544933 
L 207.711761 122.008492 
L 208.799043 122.66106 
L 209.886324 123.309882 
L 210.973606 123.951982 
L 210.973606 74.756135 
L 210.973606 74.756135 
L 209.886324 75.087621 
L 208.799043 75.397846 
L 207.711761 75.781286 
L 206.624479 76.026311 
L 205.537198 76.491333 
L 204.449916 76.929133 
L 203.362634 77.309539 
L 202.275353 77.691668 
L 201.188071 78.07455 
L 200.100789 78.458485 
L 199.013508 78.803812 
L 197.926226 78.948043 
L 196.838945 79.09522 
L 195.751663 79.622704 
L 194.664381 79.963143 
L 193.5771 80.154046 
L 192.489818 80.441905 
L 191.402536 80.834026 
L 190.315255 81.237152 
L 189.227973 81.462153 
L 188.140691 81.717253 
L 187.05341 81.970913 
L 185.966128 82.339945 
L 184.878847 82.70635 
L 183.791565 82.94297 
L 182.704283 83.006873 
L 181.617002 83.258752 
L 180.52972 83.509216 
L 179.442438 83.732718 
L 178.355157 83.893809 
L 177.267875 84.133181 
L 176.180593 84.233276 
L 175.093312 84.376724 
L 174.00603 84.711125 
L 172.918749 84.913152 
L 171.831467 85.122854 
L 170.744185 85.32336 
L 169.656904 85.487405 
L 168.569622 85.543151 
L 167.48234 85.65679 
L 166.395059 85.573705 
L 165.307777 85.435912 
L 164.220495 85.499717 
L 163.133214 85.682298 
L 162.045932 85.898709 
L 160.958651 86.08976 
L 159.871369 85.887795 
L 158.784087 85.918991 
L 157.696806 85.703059 
L 156.609524 85.450602 
L 155.522242 85.491307 
L 154.434961 84.967374 
L 153.347679 84.803662 
L 152.260397 84.644917 
L 151.173116 84.775108 
L 150.085834 84.903211 
L 148.998552 84.950327 
L 147.911271 84.729925 
L 146.823989 84.252071 
L 145.736708 84.224488 
L 144.649426 84.088023 
L 143.562144 83.750774 
L 142.474863 83.615683 
L 141.387581 83.265065 
L 140.300299 82.807052 
L 139.213018 82.463677 
L 138.125736 82.262176 
L 137.038454 81.765132 
L 135.951173 81.268868 
L 134.863891 80.820311 
L 133.77661 80.575167 
L 132.689328 80.076517 
L 131.602046 79.598126 
L 130.514765 79.082081 
L 129.427483 78.565675 
L 128.340201 78.073101 
L 127.25292 77.571964 
L 126.165638 77.130683 
L 125.078356 76.718221 
L 123.991075 76.307544 
L 122.903793 75.891945 
L 121.816512 75.490943 
L 120.72923 75.161363 
L 119.641948 74.85002 
L 118.554667 74.28469 
L 117.467385 73.785752 
L 116.380103 73.108458 
L 115.292822 72.517542 
L 114.20554 71.926626 
L 113.118258 71.341113 
L 112.030977 70.756025 
L 110.943695 70.286469 
L 109.856414 69.819671 
L 108.769132 69.344953 
L 107.68185 68.806122 
L 106.594569 68.429759 
L 105.507287 67.963716 
L 104.420005 67.497672 
L 103.332724 67.031628 
z
" clip-path="url(#p01f10a6b0a)" style="fill: #808080; fill-opacity: 0.15"/>
   </g>
   <g id="PathCollection_4">
    <defs>
     <path id="m06e6df4618" d="M 0 3.162278 
C 0.838646 3.162278 1.643056 2.82908 2.236068 2.236068 
C 2.82908 1.643056 3.162278 0.838646 3.162278 0 
C 3.162278 -0.838646 2.82908 -1.643056 2.236068 -2.236068 
C 1.643056 -2.82908 0.838646 -3.162278 0 -3.162278 
C -0.838646 -3.162278 -1.643056 -2.82908 -2.236068 -2.236068 
C -2.82908 -1.643056 -3.162278 -0.838646 -3.162278 0 
C -3.162278 0.838646 -2.82908 1.643056 -2.236068 2.236068 
C -1.643056 2.82908 -0.838646 3.162278 0 3.162278 
z
" style="stroke: #808080; stroke-width: 2"/>
    </defs>
    <g clip-path="url(#p01f10a6b0a)">
     <use xlink:href="#m06e6df4618" x="105.50624" y="177.781083" style="fill: #ffffff; stroke: #808080; stroke-width: 2"/>
     <use xlink:href="#m06e6df4618" x="84.090235" y="175.963813" style="fill: #ffffff; stroke: #808080; stroke-width: 2"/>
     <use xlink:href="#m06e6df4618" x="99.24375" y="176.981821" style="fill: #ffffff; stroke: #808080; stroke-width: 2"/>
     <use xlink:href="#m06e6df4618" x="77.805907" y="170.844329" style="fill: #ffffff; stroke: #808080; stroke-width: 2"/>
    </g>
   </g>
   <g id="matplotlib.axis_1">
    <g id="xtick_1">
     <g id="line2d_1">
      <defs>
       <path id="m6c9caf0874" d="M 0 0 
L 0 3.5 
" style="stroke: #000000; stroke-width: 0.8"/>
      </defs>
      <g>
       <use xlink:href="#m6c9caf0874" x="58.610652" y="185.398125" style="stroke: #000000; stroke-width: 0.8"/>
      </g>
     </g>
     <g id="text_1">
      <!-- 0 -->
      <g transform="translate(55.429402 199.996563)scale(0.1 -0.1)">
       <defs>
        <path id="DejaVuSans-30" d="M 2034 4250 
Q 1547 4250 1301 3770 
Q 1056 3291 1056 2328 
Q 1056 1369 1301 889 
Q 1547 409 2034 409 
Q 2525 409 2770 889 
Q 3016 1369 3016 2328 
Q 3016 3291 2770 3770 
Q 2525 4250 2034 4250 
z
M 2034 4750 
Q 2819 4750 3233 4129 
Q 3647 3509 3647 2328 
Q 3647 1150 3233 529 
Q 2819 -91 2034 -91 
Q 1250 -91 836 529 
Q 422 1150 422 2328 
Q 422 3509 836 4129 
Q 1250 4750 2034 4750 
z
" transform="scale(0.015625)"/>
       </defs>
       <use xlink:href="#DejaVuSans-30"/>
      </g>
     </g>
    </g>
    <g id="xtick_2">
     <g id="line2d_2">
      <g>
       <use xlink:href="#m6c9caf0874" x="119.633334" y="185.398125" style="stroke: #000000; stroke-width: 0.8"/>
      </g>
     </g>
     <g id="text_2">
      <!-- 1000 -->
      <g transform="translate(106.908334 199.996563)scale(0.1 -0.1)">
       <defs>
        <path id="DejaVuSans-31" d="M 794 531 
L 1825 531 
L 1825 4091 
L 703 3866 
L 703 4441 
L 1819 4666 
L 2450 4666 
L 2450 531 
L 3481 531 
L 3481 0 
L 794 0 
L 794 531 
z
" transform="scale(0.015625)"/>
       </defs>
       <use xlink:href="#DejaVuSans-31"/>
       <use xlink:href="#DejaVuSans-30" x="63.623047"/>
       <use xlink:href="#DejaVuSans-30" x="127.246094"/>
       <use xlink:href="#DejaVuSans-30" x="190.869141"/>
      </g>
     </g>
    </g>
    <g id="xtick_3">
     <g id="line2d_3">
      <g>
       <use xlink:href="#m6c9caf0874" x="180.656016" y="185.398125" style="stroke: #000000; stroke-width: 0.8"/>
      </g>
     </g>
     <g id="text_3">
      <!-- 2000 -->
      <g transform="translate(167.931016 199.996563)scale(0.1 -0.1)">
       <defs>
        <path id="DejaVuSans-32" d="M 1228 531 
L 3431 531 
L 3431 0 
L 469 0 
L 469 531 
Q 828 903 1448 1529 
Q 2069 2156 2228 2338 
Q 2531 2678 2651 2914 
Q 2772 3150 2772 3378 
Q 2772 3750 2511 3984 
Q 2250 4219 1831 4219 
Q 1534 4219 1204 4116 
Q 875 4013 500 3803 
L 500 4441 
Q 881 4594 1212 4672 
Q 1544 4750 1819 4750 
Q 2544 4750 2975 4387 
Q 3406 4025 3406 3419 
Q 3406 3131 3298 2873 
Q 3191 2616 2906 2266 
Q 2828 2175 2409 1742 
Q 1991 1309 1228 531 
z
" transform="scale(0.015625)"/>
       </defs>
       <use xlink:href="#DejaVuSans-32"/>
       <use xlink:href="#DejaVuSans-30" x="63.623047"/>
       <use xlink:href="#DejaVuSans-30" x="127.246094"/>
       <use xlink:href="#DejaVuSans-30" x="190.869141"/>
      </g>
     </g>
    </g>
    <g id="text_4">
     <!-- mRuby2, 4 dpi -->
     <g transform="translate(105.574375 213.674688)scale(0.1 -0.1)">
      <defs>
       <path id="DejaVuSans-6d" d="M 3328 2828 
Q 3544 3216 3844 3400 
Q 4144 3584 4550 3584 
Q 5097 3584 5394 3201 
Q 5691 2819 5691 2113 
L 5691 0 
L 5113 0 
L 5113 2094 
Q 5113 2597 4934 2840 
Q 4756 3084 4391 3084 
Q 3944 3084 3684 2787 
Q 3425 2491 3425 1978 
L 3425 0 
L 2847 0 
L 2847 2094 
Q 2847 2600 2669 2842 
Q 2491 3084 2119 3084 
Q 1678 3084 1418 2786 
Q 1159 2488 1159 1978 
L 1159 0 
L 581 0 
L 581 3500 
L 1159 3500 
L 1159 2956 
Q 1356 3278 1631 3431 
Q 1906 3584 2284 3584 
Q 2666 3584 2933 3390 
Q 3200 3197 3328 2828 
z
" transform="scale(0.015625)"/>
       <path id="DejaVuSans-52" d="M 2841 2188 
Q 3044 2119 3236 1894 
Q 3428 1669 3622 1275 
L 4263 0 
L 3584 0 
L 2988 1197 
Q 2756 1666 2539 1819 
Q 2322 1972 1947 1972 
L 1259 1972 
L 1259 0 
L 628 0 
L 628 4666 
L 2053 4666 
Q 2853 4666 3247 4331 
Q 3641 3997 3641 3322 
Q 3641 2881 3436 2590 
Q 3231 2300 2841 2188 
z
M 1259 4147 
L 1259 2491 
L 2053 2491 
Q 2509 2491 2742 2702 
Q 2975 2913 2975 3322 
Q 2975 3731 2742 3939 
Q 2509 4147 2053 4147 
L 1259 4147 
z
" transform="scale(0.015625)"/>
       <path id="DejaVuSans-75" d="M 544 1381 
L 544 3500 
L 1119 3500 
L 1119 1403 
Q 1119 906 1312 657 
Q 1506 409 1894 409 
Q 2359 409 2629 706 
Q 2900 1003 2900 1516 
L 2900 3500 
L 3475 3500 
L 3475 0 
L 2900 0 
L 2900 538 
Q 2691 219 2414 64 
Q 2138 -91 1772 -91 
Q 1169 -91 856 284 
Q 544 659 544 1381 
z
M 1991 3584 
L 1991 3584 
z
" transform="scale(0.015625)"/>
       <path id="DejaVuSans-62" d="M 3116 1747 
Q 3116 2381 2855 2742 
Q 2594 3103 2138 3103 
Q 1681 3103 1420 2742 
Q 1159 2381 1159 1747 
Q 1159 1113 1420 752 
Q 1681 391 2138 391 
Q 2594 391 2855 752 
Q 3116 1113 3116 1747 
z
M 1159 2969 
Q 1341 3281 1617 3432 
Q 1894 3584 2278 3584 
Q 2916 3584 3314 3078 
Q 3713 2572 3713 1747 
Q 3713 922 3314 415 
Q 2916 -91 2278 -91 
Q 1894 -91 1617 61 
Q 1341 213 1159 525 
L 1159 0 
L 581 0 
L 581 4863 
L 1159 4863 
L 1159 2969 
z
" transform="scale(0.015625)"/>
       <path id="DejaVuSans-79" d="M 2059 -325 
Q 1816 -950 1584 -1140 
Q 1353 -1331 966 -1331 
L 506 -1331 
L 506 -850 
L 844 -850 
Q 1081 -850 1212 -737 
Q 1344 -625 1503 -206 
L 1606 56 
L 191 3500 
L 800 3500 
L 1894 763 
L 2988 3500 
L 3597 3500 
L 2059 -325 
z
" transform="scale(0.015625)"/>
       <path id="DejaVuSans-2c" d="M 750 794 
L 1409 794 
L 1409 256 
L 897 -744 
L 494 -744 
L 750 256 
L 750 794 
z
" transform="scale(0.015625)"/>
       <path id="DejaVuSans-20" transform="scale(0.015625)"/>
       <path id="DejaVuSans-34" d="M 2419 4116 
L 825 1625 
L 2419 1625 
L 2419 4116 
z
M 2253 4666 
L 3047 4666 
L 3047 1625 
L 3713 1625 
L 3713 1100 
L 3047 1100 
L 3047 0 
L 2419 0 
L 2419 1100 
L 313 1100 
L 313 1709 
L 2253 4666 
z
" transform="scale(0.015625)"/>
       <path id="DejaVuSans-64" d="M 2906 2969 
L 2906 4863 
L 3481 4863 
L 3481 0 
L 2906 0 
L 2906 525 
Q 2725 213 2448 61 
Q 2172 -91 1784 -91 
Q 1150 -91 751 415 
Q 353 922 353 1747 
Q 353 2572 751 3078 
Q 1150 3584 1784 3584 
Q 2172 3584 2448 3432 
Q 2725 3281 2906 2969 
z
M 947 1747 
Q 947 1113 1208 752 
Q 1469 391 1925 391 
Q 2381 391 2643 752 
Q 2906 1113 2906 1747 
Q 2906 2381 2643 2742 
Q 2381 3103 1925 3103 
Q 1469 3103 1208 2742 
Q 947 2381 947 1747 
z
" transform="scale(0.015625)"/>
       <path id="DejaVuSans-70" d="M 1159 525 
L 1159 -1331 
L 581 -1331 
L 581 3500 
L 1159 3500 
L 1159 2969 
Q 1341 3281 1617 3432 
Q 1894 3584 2278 3584 
Q 2916 3584 3314 3078 
Q 3713 2572 3713 1747 
Q 3713 922 3314 415 
Q 2916 -91 2278 -91 
Q 1894 -91 1617 61 
Q 1341 213 1159 525 
z
M 3116 1747 
Q 3116 2381 2855 2742 
Q 2594 3103 2138 3103 
Q 1681 3103 1420 2742 
Q 1159 2381 1159 1747 
Q 1159 1113 1420 752 
Q 1681 391 2138 391 
Q 2594 391 2855 752 
Q 3116 1113 3116 1747 
z
" transform="scale(0.015625)"/>
       <path id="DejaVuSans-69" d="M 603 3500 
L 1178 3500 
L 1178 0 
L 603 0 
L 603 3500 
z
M 603 4863 
L 1178 4863 
L 1178 4134 
L 603 4134 
L 603 4863 
z
" transform="scale(0.015625)"/>
      </defs>
      <use xlink:href="#DejaVuSans-6d"/>
      <use xlink:href="#DejaVuSans-52" x="97.412109"/>
      <use xlink:href="#DejaVuSans-75" x="162.394531"/>
      <use xlink:href="#DejaVuSans-62" x="225.773438"/>
      <use xlink:href="#DejaVuSans-79" x="289.25"/>
      <use xlink:href="#DejaVuSans-32" x="348.429688"/>
      <use xlink:href="#DejaVuSans-2c" x="412.052734"/>
      <use xlink:href="#DejaVuSans-20" x="443.839844"/>
      <use xlink:href="#DejaVuSans-34" x="475.626953"/>
      <use xlink:href="#DejaVuSans-20" x="539.25"/>
      <use xlink:href="#DejaVuSans-64" x="571.037109"/>
      <use xlink:href="#DejaVuSans-70" x="634.513672"/>
      <use xlink:href="#DejaVuSans-69" x="697.990234"/>
     </g>
     <!-- (gmean) -->
     <g transform="translate(120.607969 224.8725)scale(0.1 -0.1)">
      <defs>
       <path id="DejaVuSans-28" d="M 1984 4856 
Q 1566 4138 1362 3434 
Q 1159 2731 1159 2009 
Q 1159 1288 1364 580 
Q 1569 -128 1984 -844 
L 1484 -844 
Q 1016 -109 783 600 
Q 550 1309 550 2009 
Q 550 2706 781 3412 
Q 1013 4119 1484 4856 
L 1984 4856 
z
" transform="scale(0.015625)"/>
       <path id="DejaVuSans-67" d="M 2906 1791 
Q 2906 2416 2648 2759 
Q 2391 3103 1925 3103 
Q 1463 3103 1205 2759 
Q 947 2416 947 1791 
Q 947 1169 1205 825 
Q 1463 481 1925 481 
Q 2391 481 2648 825 
Q 2906 1169 2906 1791 
z
M 3481 434 
Q 3481 -459 3084 -895 
Q 2688 -1331 1869 -1331 
Q 1566 -1331 1297 -1286 
Q 1028 -1241 775 -1147 
L 775 -588 
Q 1028 -725 1275 -790 
Q 1522 -856 1778 -856 
Q 2344 -856 2625 -561 
Q 2906 -266 2906 331 
L 2906 616 
Q 2728 306 2450 153 
Q 2172 0 1784 0 
Q 1141 0 747 490 
Q 353 981 353 1791 
Q 353 2603 747 3093 
Q 1141 3584 1784 3584 
Q 2172 3584 2450 3431 
Q 2728 3278 2906 2969 
L 2906 3500 
L 3481 3500 
L 3481 434 
z
" transform="scale(0.015625)"/>
       <path id="DejaVuSans-65" d="M 3597 1894 
L 3597 1613 
L 953 1613 
Q 991 1019 1311 708 
Q 1631 397 2203 397 
Q 2534 397 2845 478 
Q 3156 559 3463 722 
L 3463 178 
Q 3153 47 2828 -22 
Q 2503 -91 2169 -91 
Q 1331 -91 842 396 
Q 353 884 353 1716 
Q 353 2575 817 3079 
Q 1281 3584 2069 3584 
Q 2775 3584 3186 3129 
Q 3597 2675 3597 1894 
z
M 3022 2063 
Q 3016 2534 2758 2815 
Q 2500 3097 2075 3097 
Q 1594 3097 1305 2825 
Q 1016 2553 972 2059 
L 3022 2063 
z
" transform="scale(0.015625)"/>
       <path id="DejaVuSans-61" d="M 2194 1759 
Q 1497 1759 1228 1600 
Q 959 1441 959 1056 
Q 959 750 1161 570 
Q 1363 391 1709 391 
Q 2188 391 2477 730 
Q 2766 1069 2766 1631 
L 2766 1759 
L 2194 1759 
z
M 3341 1997 
L 3341 0 
L 2766 0 
L 2766 531 
Q 2569 213 2275 61 
Q 1981 -91 1556 -91 
Q 1019 -91 701 211 
Q 384 513 384 1019 
Q 384 1609 779 1909 
Q 1175 2209 1959 2209 
L 2766 2209 
L 2766 2266 
Q 2766 2663 2505 2880 
Q 2244 3097 1772 3097 
Q 1472 3097 1187 3025 
Q 903 2953 641 2809 
L 641 3341 
Q 956 3463 1253 3523 
Q 1550 3584 1831 3584 
Q 2591 3584 2966 3190 
Q 3341 2797 3341 1997 
z
" transform="scale(0.015625)"/>
       <path id="DejaVuSans-6e" d="M 3513 2113 
L 3513 0 
L 2938 0 
L 2938 2094 
Q 2938 2591 2744 2837 
Q 2550 3084 2163 3084 
Q 1697 3084 1428 2787 
Q 1159 2491 1159 1978 
L 1159 0 
L 581 0 
L 581 3500 
L 1159 3500 
L 1159 2956 
Q 1366 3272 1645 3428 
Q 1925 3584 2291 3584 
Q 2894 3584 3203 3211 
Q 3513 2838 3513 2113 
z
" transform="scale(0.015625)"/>
       <path id="DejaVuSans-29" d="M 513 4856 
L 1013 4856 
Q 1481 4119 1714 3412 
Q 1947 2706 1947 2009 
Q 1947 1309 1714 600 
Q 1481 -109 1013 -844 
L 513 -844 
Q 928 -128 1133 580 
Q 1338 1288 1338 2009 
Q 1338 2731 1133 3434 
Q 928 4138 513 4856 
z
" transform="scale(0.015625)"/>
      </defs>
      <use xlink:href="#DejaVuSans-28"/>
      <use xlink:href="#DejaVuSans-67" x="39.013672"/>
      <use xlink:href="#DejaVuSans-6d" x="102.490234"/>
      <use xlink:href="#DejaVuSans-65" x="199.902344"/>
      <use xlink:href="#DejaVuSans-61" x="261.425781"/>
      <use xlink:href="#DejaVuSans-6e" x="322.705078"/>
      <use xlink:href="#DejaVuSans-29" x="386.083984"/>
     </g>
    </g>
   </g>
   <g id="matplotlib.axis_2">
    <g id="ytick_1">
     <g id="line2d_4">
      <defs>
       <path id="m0a4a8c0200" d="M 0 0 
L -3.5 0 
" style="stroke: #000000; stroke-width: 0.8"/>
      </defs>
      <g>
       <use xlink:href="#m0a4a8c0200" x="58.163438" y="179.41957" style="stroke: #000000; stroke-width: 0.8"/>
      </g>
     </g>
     <g id="text_5">
      <!-- 0 -->
      <g transform="translate(44.800938 183.218789)scale(0.1 -0.1)">
       <use xlink:href="#DejaVuSans-30"/>
      </g>
     </g>
    </g>
    <g id="ytick_2">
     <g id="line2d_5">
      <g>
       <use xlink:href="#m0a4a8c0200" x="58.163438" y="147.869747" style="stroke: #000000; stroke-width: 0.8"/>
      </g>
     </g>
     <g id="text_6">
      <!-- 50 -->
      <g transform="translate(38.438437 151.668966)scale(0.1 -0.1)">
       <defs>
        <path id="DejaVuSans-35" d="M 691 4666 
L 3169 4666 
L 3169 4134 
L 1269 4134 
L 1269 2991 
Q 1406 3038 1543 3061 
Q 1681 3084 1819 3084 
Q 2600 3084 3056 2656 
Q 3513 2228 3513 1497 
Q 3513 744 3044 326 
Q 2575 -91 1722 -91 
Q 1428 -91 1123 -41 
Q 819 9 494 109 
L 494 744 
Q 775 591 1075 516 
Q 1375 441 1709 441 
Q 2250 441 2565 725 
Q 2881 1009 2881 1497 
Q 2881 1984 2565 2268 
Q 2250 2553 1709 2553 
Q 1456 2553 1204 2497 
Q 953 2441 691 2322 
L 691 4666 
z
" transform="scale(0.015625)"/>
       </defs>
       <use xlink:href="#DejaVuSans-35"/>
       <use xlink:href="#DejaVuSans-30" x="63.623047"/>
      </g>
     </g>
    </g>
    <g id="ytick_3">
     <g id="line2d_6">
      <g>
       <use xlink:href="#m0a4a8c0200" x="58.163438" y="116.319924" style="stroke: #000000; stroke-width: 0.8"/>
      </g>
     </g>
     <g id="text_7">
      <!-- 100 -->
      <g transform="translate(32.075937 120.119143)scale(0.1 -0.1)">
       <use xlink:href="#DejaVuSans-31"/>
       <use xlink:href="#DejaVuSans-30" x="63.623047"/>
       <use xlink:href="#DejaVuSans-30" x="127.246094"/>
      </g>
     </g>
    </g>
    <g id="ytick_4">
     <g id="line2d_7">
      <g>
       <use xlink:href="#m0a4a8c0200" x="58.163438" y="84.770101" style="stroke: #000000; stroke-width: 0.8"/>
      </g>
     </g>
     <g id="text_8">
      <!-- 150 -->
      <g transform="translate(32.075937 88.56932)scale(0.1 -0.1)">
       <use xlink:href="#DejaVuSans-31"/>
       <use xlink:href="#DejaVuSans-35" x="63.623047"/>
       <use xlink:href="#DejaVuSans-30" x="127.246094"/>
      </g>
     </g>
    </g>
    <g id="ytick_5">
     <g id="line2d_8">
      <g>
       <use xlink:href="#m0a4a8c0200" x="58.163438" y="53.220278" style="stroke: #000000; stroke-width: 0.8"/>
      </g>
     </g>
     <g id="text_9">
      <!-- 200 -->
      <g transform="translate(32.075937 57.019497)scale(0.1 -0.1)">
       <use xlink:href="#DejaVuSans-32"/>
       <use xlink:href="#DejaVuSans-30" x="63.623047"/>
       <use xlink:href="#DejaVuSans-30" x="127.246094"/>
      </g>
     </g>
    </g>
    <g id="text_10">
     <!-- (%) iMN yield -->
     <g transform="translate(14.798437 137.120625)rotate(-90)scale(0.1 -0.1)">
      <defs>
       <path id="DejaVuSans-25" d="M 4653 2053 
Q 4381 2053 4226 1822 
Q 4072 1591 4072 1178 
Q 4072 772 4226 539 
Q 4381 306 4653 306 
Q 4919 306 5073 539 
Q 5228 772 5228 1178 
Q 5228 1588 5073 1820 
Q 4919 2053 4653 2053 
z
M 4653 2450 
Q 5147 2450 5437 2106 
Q 5728 1763 5728 1178 
Q 5728 594 5436 251 
Q 5144 -91 4653 -91 
Q 4153 -91 3862 251 
Q 3572 594 3572 1178 
Q 3572 1766 3864 2108 
Q 4156 2450 4653 2450 
z
M 1428 4353 
Q 1159 4353 1004 4120 
Q 850 3888 850 3481 
Q 850 3069 1003 2837 
Q 1156 2606 1428 2606 
Q 1700 2606 1854 2837 
Q 2009 3069 2009 3481 
Q 2009 3884 1853 4118 
Q 1697 4353 1428 4353 
z
M 4250 4750 
L 4750 4750 
L 1831 -91 
L 1331 -91 
L 4250 4750 
z
M 1428 4750 
Q 1922 4750 2215 4408 
Q 2509 4066 2509 3481 
Q 2509 2891 2217 2550 
Q 1925 2209 1428 2209 
Q 931 2209 642 2551 
Q 353 2894 353 3481 
Q 353 4063 643 4406 
Q 934 4750 1428 4750 
z
" transform="scale(0.015625)"/>
       <path id="DejaVuSans-4d" d="M 628 4666 
L 1569 4666 
L 2759 1491 
L 3956 4666 
L 4897 4666 
L 4897 0 
L 4281 0 
L 4281 4097 
L 3078 897 
L 2444 897 
L 1241 4097 
L 1241 0 
L 628 0 
L 628 4666 
z
" transform="scale(0.015625)"/>
       <path id="DejaVuSans-4e" d="M 628 4666 
L 1478 4666 
L 3547 763 
L 3547 4666 
L 4159 4666 
L 4159 0 
L 3309 0 
L 1241 3903 
L 1241 0 
L 628 0 
L 628 4666 
z
" transform="scale(0.015625)"/>
       <path id="DejaVuSans-6c" d="M 603 4863 
L 1178 4863 
L 1178 0 
L 603 0 
L 603 4863 
z
" transform="scale(0.015625)"/>
      </defs>
      <use xlink:href="#DejaVuSans-28"/>
      <use xlink:href="#DejaVuSans-25" x="39.013672"/>
      <use xlink:href="#DejaVuSans-29" x="134.033203"/>
      <use xlink:href="#DejaVuSans-20" x="173.046875"/>
      <use xlink:href="#DejaVuSans-69" x="204.833984"/>
      <use xlink:href="#DejaVuSans-4d" x="232.617188"/>
      <use xlink:href="#DejaVuSans-4e" x="318.896484"/>
      <use xlink:href="#DejaVuSans-20" x="393.701172"/>
      <use xlink:href="#DejaVuSans-79" x="425.488281"/>
      <use xlink:href="#DejaVuSans-69" x="484.667969"/>
      <use xlink:href="#DejaVuSans-65" x="512.451172"/>
      <use xlink:href="#DejaVuSans-6c" x="573.974609"/>
      <use xlink:href="#DejaVuSans-64" x="601.757812"/>
     </g>
     <!-- per MEF plated -->
     <g transform="translate(25.99625 141.53)rotate(-90)scale(0.1 -0.1)">
      <defs>
       <path id="DejaVuSans-72" d="M 2631 2963 
Q 2534 3019 2420 3045 
Q 2306 3072 2169 3072 
Q 1681 3072 1420 2755 
Q 1159 2438 1159 1844 
L 1159 0 
L 581 0 
L 581 3500 
L 1159 3500 
L 1159 2956 
Q 1341 3275 1631 3429 
Q 1922 3584 2338 3584 
Q 2397 3584 2469 3576 
Q 2541 3569 2628 3553 
L 2631 2963 
z
" transform="scale(0.015625)"/>
       <path id="DejaVuSans-45" d="M 628 4666 
L 3578 4666 
L 3578 4134 
L 1259 4134 
L 1259 2753 
L 3481 2753 
L 3481 2222 
L 1259 2222 
L 1259 531 
L 3634 531 
L 3634 0 
L 628 0 
L 628 4666 
z
" transform="scale(0.015625)"/>
       <path id="DejaVuSans-46" d="M 628 4666 
L 3309 4666 
L 3309 4134 
L 1259 4134 
L 1259 2759 
L 3109 2759 
L 3109 2228 
L 1259 2228 
L 1259 0 
L 628 0 
L 628 4666 
z
" transform="scale(0.015625)"/>
       <path id="DejaVuSans-74" d="M 1172 4494 
L 1172 3500 
L 2356 3500 
L 2356 3053 
L 1172 3053 
L 1172 1153 
Q 1172 725 1289 603 
Q 1406 481 1766 481 
L 2356 481 
L 2356 0 
L 1766 0 
Q 1100 0 847 248 
Q 594 497 594 1153 
L 594 3053 
L 172 3053 
L 172 3500 
L 594 3500 
L 594 4494 
L 1172 4494 
z
" transform="scale(0.015625)"/>
      </defs>
      <use xlink:href="#DejaVuSans-70"/>
      <use xlink:href="#DejaVuSans-65" x="63.476562"/>
      <use xlink:href="#DejaVuSans-72" x="125"/>
      <use xlink:href="#DejaVuSans-20" x="166.113281"/>
      <use xlink:href="#DejaVuSans-4d" x="197.900391"/>
      <use xlink:href="#DejaVuSans-45" x="284.179688"/>
      <use xlink:href="#DejaVuSans-46" x="347.363281"/>
      <use xlink:href="#DejaVuSans-20" x="404.882812"/>
      <use xlink:href="#DejaVuSans-70" x="436.669922"/>
      <use xlink:href="#DejaVuSans-6c" x="500.146484"/>
      <use xlink:href="#DejaVuSans-61" x="527.929688"/>
      <use xlink:href="#DejaVuSans-74" x="589.208984"/>
      <use xlink:href="#DejaVuSans-65" x="628.417969"/>
      <use xlink:href="#DejaVuSans-64" x="689.941406"/>
     </g>
    </g>
   </g>
   <g id="line2d_9">
    <path d="M 76.586608 100.220678 
L 77.374515 100.147315 
L 78.162421 100.073953 
L 78.950327 100.00059 
L 79.738233 99.927227 
L 80.52614 99.853864 
L 81.314046 99.780501 
L 82.101952 99.707139 
L 82.889858 99.633776 
L 83.677764 99.560413 
L 84.465671 99.48705 
L 85.253577 99.413687 
L 86.041483 99.340325 
L 86.829389 99.266962 
L 87.617295 99.193599 
L 88.405202 99.120236 
L 89.193108 99.046873 
L 89.981014 98.97351 
L 90.76892 98.900148 
L 91.556826 98.826785 
L 92.344733 98.753422 
L 93.132639 98.680059 
L 93.920545 98.606696 
L 94.708451 98.533334 
L 95.496357 98.459971 
L 96.284264 98.386608 
L 97.07217 98.313245 
L 97.860076 98.239882 
L 98.647982 98.16652 
L 99.435889 98.093157 
L 100.223795 98.019794 
L 101.011701 97.946431 
L 101.799607 97.873068 
L 102.587513 97.799705 
L 103.37542 97.726343 
L 104.163326 97.65298 
L 104.951232 97.579617 
L 105.739138 97.506254 
L 106.527044 97.432891 
L 107.314951 97.359529 
L 108.102857 97.286166 
L 108.890763 97.212803 
L 109.678669 97.13944 
L 110.466575 97.066077 
L 111.254482 96.992715 
L 112.042388 96.919352 
L 112.830294 96.845989 
L 113.6182 96.772626 
L 114.406106 96.699263 
L 115.194013 96.6259 
L 115.981919 96.552538 
L 116.769825 96.479175 
L 117.557731 96.405812 
L 118.345638 96.332449 
L 119.133544 96.259086 
L 119.92145 96.185724 
L 120.709356 96.112361 
L 121.497262 96.038998 
L 122.285169 95.965635 
L 123.073075 95.892272 
L 123.860981 95.81891 
L 124.648887 95.745547 
L 125.436793 95.672184 
L 126.2247 95.598821 
L 127.012606 95.525458 
L 127.800512 95.452095 
L 128.588418 95.378733 
L 129.376324 95.30537 
L 130.164231 95.232007 
L 130.952137 95.158644 
L 131.740043 95.085281 
L 132.527949 95.011919 
L 133.315855 94.938556 
L 134.103762 94.865193 
L 134.891668 94.79183 
L 135.679574 94.718467 
L 136.46748 94.645105 
L 137.255387 94.571742 
L 138.043293 94.498379 
L 138.831199 94.425016 
L 139.619105 94.351653 
L 140.407011 94.27829 
L 141.194918 94.204928 
L 141.982824 94.131565 
L 142.77073 94.058202 
L 143.558636 93.984839 
L 144.346542 93.911476 
L 145.134449 93.838114 
L 145.922355 93.764751 
L 146.710261 93.691388 
L 147.498167 93.618025 
L 148.286073 93.544662 
L 149.07398 93.4713 
L 149.861886 93.397937 
L 150.649792 93.324574 
L 151.437698 93.251211 
L 152.225604 93.177848 
L 153.013511 93.104485 
L 153.801417 93.031123 
L 154.589323 92.95776 
" clip-path="url(#p01f10a6b0a)" style="fill: none; stroke: #ec8063; stroke-width: 2.25; stroke-linecap: square"/>
   </g>
   <g id="LineCollection_1">
    <path d="M 127.909585 93.057188 
L 134.268591 93.057188 
" clip-path="url(#p01f10a6b0a)" style="fill: none; stroke: #000000; stroke-width: 0.5"/>
    <path d="M 104.856351 111.77675 
L 114.045565 111.77675 
" clip-path="url(#p01f10a6b0a)" style="fill: none; stroke: #000000; stroke-width: 0.5"/>
    <path d="M 141.839279 64.365779 
L 149.946065 64.365779 
" clip-path="url(#p01f10a6b0a)" style="fill: none; stroke: #000000; stroke-width: 0.5"/>
    <path d="M 114.128834 66.159912 
L 119.875911 66.159912 
" clip-path="url(#p01f10a6b0a)" style="fill: none; stroke: #000000; stroke-width: 0.5"/>
    <path d="M 83.594179 126.474761 
L 85.030463 126.474761 
" clip-path="url(#p01f10a6b0a)" style="fill: none; stroke: #000000; stroke-width: 0.5"/>
    <path d="M 76.241547 94.914421 
L 76.93167 94.914421 
" clip-path="url(#p01f10a6b0a)" style="fill: none; stroke: #000000; stroke-width: 0.5"/>
    <path d="M 92.046205 84.572389 
L 92.927271 84.572389 
" clip-path="url(#p01f10a6b0a)" style="fill: none; stroke: #000000; stroke-width: 0.5"/>
    <path d="M 79.690862 44.59666 
L 82.114096 44.59666 
" clip-path="url(#p01f10a6b0a)" style="fill: none; stroke: #000000; stroke-width: 0.5"/>
    <path d="M 105.360882 103.611655 
L 109.688904 103.611655 
" clip-path="url(#p01f10a6b0a)" style="fill: none; stroke: #000000; stroke-width: 0.5"/>
    <path d="M 87.496225 105.961066 
L 89.125352 105.961066 
" clip-path="url(#p01f10a6b0a)" style="fill: none; stroke: #000000; stroke-width: 0.5"/>
    <path d="M 117.700532 67.611204 
L 122.768148 67.611204 
" clip-path="url(#p01f10a6b0a)" style="fill: none; stroke: #000000; stroke-width: 0.5"/>
    <path d="M 94.026813 70.181463 
L 96.117703 70.181463 
" clip-path="url(#p01f10a6b0a)" style="fill: none; stroke: #000000; stroke-width: 0.5"/>
    <path d="M 105.531764 84.500876 
L 109.500048 84.500876 
" clip-path="url(#p01f10a6b0a)" style="fill: none; stroke: #000000; stroke-width: 0.5"/>
    <path d="M 91.091698 122.913837 
L 93.560654 122.913837 
" clip-path="url(#p01f10a6b0a)" style="fill: none; stroke: #000000; stroke-width: 0.5"/>
    <path d="M 140.613847 84.913127 
L 155.382868 84.913127 
" clip-path="url(#p01f10a6b0a)" style="fill: none; stroke: #000000; stroke-width: 0.5"/>
    <path d="M 106.922948 79.431871 
L 111.821702 79.431871 
" clip-path="url(#p01f10a6b0a)" style="fill: none; stroke: #000000; stroke-width: 0.5"/>
    <path d="M 100.660053 87.777851 
L 104.819566 87.777851 
" clip-path="url(#p01f10a6b0a)" style="fill: none; stroke: #000000; stroke-width: 0.5"/>
    <path d="M 87.525053 118.545238 
L 90.071487 118.545238 
" clip-path="url(#p01f10a6b0a)" style="fill: none; stroke: #000000; stroke-width: 0.5"/>
    <path d="M 129.733147 77.078254 
L 139.630956 77.078254 
" clip-path="url(#p01f10a6b0a)" style="fill: none; stroke: #000000; stroke-width: 0.5"/>
    <path d="M 94.696529 79.112166 
L 97.867434 79.112166 
" clip-path="url(#p01f10a6b0a)" style="fill: none; stroke: #000000; stroke-width: 0.5"/>
    <path d="M 113.685578 144.560171 
L 118.107376 144.560171 
" clip-path="url(#p01f10a6b0a)" style="fill: none; stroke: #000000; stroke-width: 0.5"/>
    <path d="M 92.359469 147.343917 
L 94.078083 147.343917 
" clip-path="url(#p01f10a6b0a)" style="fill: none; stroke: #000000; stroke-width: 0.5"/>
    <path d="M 150.678748 137.599228 
L 158.499898 137.599228 
" clip-path="url(#p01f10a6b0a)" style="fill: none; stroke: #000000; stroke-width: 0.5"/>
    <path d="M 101.54846 137.586608 
L 107.578385 137.586608 
" clip-path="url(#p01f10a6b0a)" style="fill: none; stroke: #000000; stroke-width: 0.5"/>
   </g>
   <g id="LineCollection_2">
    <path d="M 131.089088 95.422856 
L 131.089088 90.69152 
" clip-path="url(#p01f10a6b0a)" style="fill: none; stroke: #000000; stroke-width: 0.5"/>
    <path d="M 109.450958 112.678722 
L 109.450958 110.874778 
" clip-path="url(#p01f10a6b0a)" style="fill: none; stroke: #000000; stroke-width: 0.5"/>
    <path d="M 145.892672 70.765715 
L 145.892672 57.965842 
" clip-path="url(#p01f10a6b0a)" style="fill: none; stroke: #000000; stroke-width: 0.5"/>
    <path d="M 117.002373 71.958832 
L 117.002373 60.360992 
" clip-path="url(#p01f10a6b0a)" style="fill: none; stroke: #000000; stroke-width: 0.5"/>
    <path d="M 84.312321 138.07275 
L 84.312321 114.876771 
" clip-path="url(#p01f10a6b0a)" style="fill: none; stroke: #000000; stroke-width: 0.5"/>
    <path d="M 76.586608 95.919749 
L 76.586608 93.909093 
" clip-path="url(#p01f10a6b0a)" style="fill: none; stroke: #000000; stroke-width: 0.5"/>
    <path d="M 92.486738 89.303659 
L 92.486738 79.841118 
" clip-path="url(#p01f10a6b0a)" style="fill: none; stroke: #000000; stroke-width: 0.5"/>
    <path d="M 80.902479 59.462467 
L 80.902479 29.730852 
" clip-path="url(#p01f10a6b0a)" style="fill: none; stroke: #000000; stroke-width: 0.5"/>
    <path d="M 107.524893 108.422618 
L 107.524893 98.800693 
" clip-path="url(#p01f10a6b0a)" style="fill: none; stroke: #000000; stroke-width: 0.5"/>
    <path d="M 88.310789 109.109682 
L 88.310789 102.812449 
" clip-path="url(#p01f10a6b0a)" style="fill: none; stroke: #000000; stroke-width: 0.5"/>
    <path d="M 120.23434 78.437403 
L 120.23434 56.785005 
" clip-path="url(#p01f10a6b0a)" style="fill: none; stroke: #000000; stroke-width: 0.5"/>
    <path d="M 95.072258 74.677906 
L 95.072258 65.685019 
" clip-path="url(#p01f10a6b0a)" style="fill: none; stroke: #000000; stroke-width: 0.5"/>
    <path d="M 107.515906 86.98886 
L 107.515906 82.012892 
" clip-path="url(#p01f10a6b0a)" style="fill: none; stroke: #000000; stroke-width: 0.5"/>
    <path d="M 92.326176 127.066793 
L 92.326176 118.760882 
" clip-path="url(#p01f10a6b0a)" style="fill: none; stroke: #000000; stroke-width: 0.5"/>
    <path d="M 147.998358 86.778951 
L 147.998358 83.047303 
" clip-path="url(#p01f10a6b0a)" style="fill: none; stroke: #000000; stroke-width: 0.5"/>
    <path d="M 109.372325 82.742264 
L 109.372325 76.121478 
" clip-path="url(#p01f10a6b0a)" style="fill: none; stroke: #000000; stroke-width: 0.5"/>
    <path d="M 102.739809 90.92014 
L 102.739809 84.635562 
" clip-path="url(#p01f10a6b0a)" style="fill: none; stroke: #000000; stroke-width: 0.5"/>
    <path d="M 88.79827 121.238582 
L 88.79827 115.851895 
" clip-path="url(#p01f10a6b0a)" style="fill: none; stroke: #000000; stroke-width: 0.5"/>
    <path d="M 134.682052 90.615049 
L 134.682052 63.541459 
" clip-path="url(#p01f10a6b0a)" style="fill: none; stroke: #000000; stroke-width: 0.5"/>
    <path d="M 96.281981 84.721272 
L 96.281981 73.50306 
" clip-path="url(#p01f10a6b0a)" style="fill: none; stroke: #000000; stroke-width: 0.5"/>
    <path d="M 115.896477 144.916684 
L 115.896477 144.203658 
" clip-path="url(#p01f10a6b0a)" style="fill: none; stroke: #000000; stroke-width: 0.5"/>
    <path d="M 93.218776 149.972059 
L 93.218776 144.715775 
" clip-path="url(#p01f10a6b0a)" style="fill: none; stroke: #000000; stroke-width: 0.5"/>
    <path d="M 154.589323 144.324163 
L 154.589323 130.874293 
" clip-path="url(#p01f10a6b0a)" style="fill: none; stroke: #000000; stroke-width: 0.5"/>
    <path d="M 104.563423 141.633891 
L 104.563423 133.539326 
" clip-path="url(#p01f10a6b0a)" style="fill: none; stroke: #000000; stroke-width: 0.5"/>
   </g>
   <g id="LineCollection_3">
    <path d="M 68.329969 177.781083 
L 68.741666 177.781083 
" clip-path="url(#p01f10a6b0a)" style="fill: none; stroke: #000000; stroke-width: 0.5"/>
    <path d="M 67.967922 175.963813 
L 68.116093 175.963813 
" clip-path="url(#p01f10a6b0a)" style="fill: none; stroke: #000000; stroke-width: 0.5"/>
    <path d="M 67.455913 176.981821 
L 67.731145 176.981821 
" clip-path="url(#p01f10a6b0a)" style="fill: none; stroke: #000000; stroke-width: 0.5"/>
    <path d="M 65.772528 170.844329 
L 65.924778 170.844329 
" clip-path="url(#p01f10a6b0a)" style="fill: none; stroke: #000000; stroke-width: 0.5"/>
   </g>
   <g id="LineCollection_4">
    <path d="M 68.535817 177.985398 
L 68.535817 177.576768 
" clip-path="url(#p01f10a6b0a)" style="fill: none; stroke: #000000; stroke-width: 0.5"/>
    <path d="M 68.042007 176.371923 
L 68.042007 175.555704 
" clip-path="url(#p01f10a6b0a)" style="fill: none; stroke: #000000; stroke-width: 0.5"/>
    <path d="M 67.593529 177.377312 
L 67.593529 176.586329 
" clip-path="url(#p01f10a6b0a)" style="fill: none; stroke: #000000; stroke-width: 0.5"/>
    <path d="M 65.848653 172.190739 
L 65.848653 169.497919 
" clip-path="url(#p01f10a6b0a)" style="fill: none; stroke: #000000; stroke-width: 0.5"/>
   </g>
   <g id="line2d_10">
    <path d="M 103.332724 97.697571 
L 104.420005 97.689728 
L 105.507287 97.681886 
L 106.594569 97.674043 
L 107.68185 97.6662 
L 108.769132 97.658358 
L 109.856414 97.650515 
L 110.943695 97.642673 
L 112.030977 97.63483 
L 113.118258 97.626988 
L 114.20554 97.619145 
L 115.292822 97.611303 
L 116.380103 97.60346 
L 117.467385 97.595617 
L 118.554667 97.587775 
L 119.641948 97.579932 
L 120.72923 97.57209 
L 121.816512 97.564247 
L 122.903793 97.556405 
L 123.991075 97.548562 
L 125.078356 97.54072 
L 126.165638 97.532877 
L 127.25292 97.525034 
L 128.340201 97.517192 
L 129.427483 97.509349 
L 130.514765 97.501507 
L 131.602046 97.493664 
L 132.689328 97.485822 
L 133.77661 97.477979 
L 134.863891 97.470137 
L 135.951173 97.462294 
L 137.038454 97.454451 
L 138.125736 97.446609 
L 139.213018 97.438766 
L 140.300299 97.430924 
L 141.387581 97.423081 
L 142.474863 97.415239 
L 143.562144 97.407396 
L 144.649426 97.399554 
L 145.736708 97.391711 
L 146.823989 97.383868 
L 147.911271 97.376026 
L 148.998552 97.368183 
L 150.085834 97.360341 
L 151.173116 97.352498 
L 152.260397 97.344656 
L 153.347679 97.336813 
L 154.434961 97.328971 
L 155.522242 97.321128 
L 156.609524 97.313285 
L 157.696806 97.305443 
L 158.784087 97.2976 
L 159.871369 97.289758 
L 160.958651 97.281915 
L 162.045932 97.274073 
L 163.133214 97.26623 
L 164.220495 97.258388 
L 165.307777 97.250545 
L 166.395059 97.242702 
L 167.48234 97.23486 
L 168.569622 97.227017 
L 169.656904 97.219175 
L 170.744185 97.211332 
L 171.831467 97.20349 
L 172.918749 97.195647 
L 174.00603 97.187805 
L 175.093312 97.179962 
L 176.180593 97.172119 
L 177.267875 97.164277 
L 178.355157 97.156434 
L 179.442438 97.148592 
L 180.52972 97.140749 
L 181.617002 97.132907 
L 182.704283 97.125064 
L 183.791565 97.117222 
L 184.878847 97.109379 
L 185.966128 97.101536 
L 187.05341 97.093694 
L 188.140691 97.085851 
L 189.227973 97.078009 
L 190.315255 97.070166 
L 191.402536 97.062324 
L 192.489818 97.054481 
L 193.5771 97.046639 
L 194.664381 97.038796 
L 195.751663 97.030953 
L 196.838945 97.023111 
L 197.926226 97.015268 
L 199.013508 97.007426 
L 200.100789 96.999583 
L 201.188071 96.991741 
L 202.275353 96.983898 
L 203.362634 96.976056 
L 204.449916 96.968213 
L 205.537198 96.96037 
L 206.624479 96.952528 
L 207.711761 96.944685 
L 208.799043 96.936843 
L 209.886324 96.929 
L 210.973606 96.921158 
" clip-path="url(#p01f10a6b0a)" style="fill: none; stroke: #808080; stroke-width: 2.25; stroke-linecap: square"/>
   </g>
   <g id="LineCollection_5">
    <path d="M 202.612812 93.057188 
L 211.860796 93.057188 
" clip-path="url(#p01f10a6b0a)" style="fill: none; stroke: #000000; stroke-width: 0.5"/>
    <path d="M 151.589845 111.77675 
L 167.732539 111.77675 
" clip-path="url(#p01f10a6b0a)" style="fill: none; stroke: #000000; stroke-width: 0.5"/>
    <path d="M 175.767996 64.365779 
L 179.471312 64.365779 
" clip-path="url(#p01f10a6b0a)" style="fill: none; stroke: #000000; stroke-width: 0.5"/>
    <path d="M 203.992865 66.159912 
L 217.954347 66.159912 
" clip-path="url(#p01f10a6b0a)" style="fill: none; stroke: #000000; stroke-width: 0.5"/>
    <path d="M 132.391885 126.474761 
L 137.321514 126.474761 
" clip-path="url(#p01f10a6b0a)" style="fill: none; stroke: #000000; stroke-width: 0.5"/>
    <path d="M 103.191567 94.914421 
L 103.473881 94.914421 
" clip-path="url(#p01f10a6b0a)" style="fill: none; stroke: #000000; stroke-width: 0.5"/>
    <path d="M 130.603985 84.572389 
L 131.89514 84.572389 
" clip-path="url(#p01f10a6b0a)" style="fill: none; stroke: #000000; stroke-width: 0.5"/>
    <path d="M 120.528602 44.59666 
L 127.248364 44.59666 
" clip-path="url(#p01f10a6b0a)" style="fill: none; stroke: #000000; stroke-width: 0.5"/>
    <path d="M 173.086655 103.611655 
L 184.588898 103.611655 
" clip-path="url(#p01f10a6b0a)" style="fill: none; stroke: #000000; stroke-width: 0.5"/>
    <path d="M 121.463215 105.961066 
L 127.427858 105.961066 
" clip-path="url(#p01f10a6b0a)" style="fill: none; stroke: #000000; stroke-width: 0.5"/>
    <path d="M 151.396459 67.611204 
L 152.590558 67.611204 
" clip-path="url(#p01f10a6b0a)" style="fill: none; stroke: #000000; stroke-width: 0.5"/>
    <path d="M 154.347775 70.181463 
L 157.018308 70.181463 
" clip-path="url(#p01f10a6b0a)" style="fill: none; stroke: #000000; stroke-width: 0.5"/>
    <path d="M 175.201919 84.500876 
L 186.032242 84.500876 
" clip-path="url(#p01f10a6b0a)" style="fill: none; stroke: #000000; stroke-width: 0.5"/>
    <path d="M 128.549964 122.913837 
L 133.275597 122.913837 
" clip-path="url(#p01f10a6b0a)" style="fill: none; stroke: #000000; stroke-width: 0.5"/>
    <path d="M 169.224129 84.913127 
L 179.02348 84.913127 
" clip-path="url(#p01f10a6b0a)" style="fill: none; stroke: #000000; stroke-width: 0.5"/>
    <path d="M 194.446661 79.431871 
L 201.282381 79.431871 
" clip-path="url(#p01f10a6b0a)" style="fill: none; stroke: #000000; stroke-width: 0.5"/>
    <path d="M 167.494128 87.777851 
L 177.877561 87.777851 
" clip-path="url(#p01f10a6b0a)" style="fill: none; stroke: #000000; stroke-width: 0.5"/>
    <path d="M 126.023565 118.545238 
L 131.553664 118.545238 
" clip-path="url(#p01f10a6b0a)" style="fill: none; stroke: #000000; stroke-width: 0.5"/>
    <path d="M 157.791606 77.078254 
L 163.933163 77.078254 
" clip-path="url(#p01f10a6b0a)" style="fill: none; stroke: #000000; stroke-width: 0.5"/>
    <path d="M 154.843388 79.112166 
L 167.530624 79.112166 
" clip-path="url(#p01f10a6b0a)" style="fill: none; stroke: #000000; stroke-width: 0.5"/>
    <path d="M 198.931432 144.560171 
L 199.286617 144.560171 
" clip-path="url(#p01f10a6b0a)" style="fill: none; stroke: #000000; stroke-width: 0.5"/>
    <path d="M 142.498074 147.343917 
L 151.508414 147.343917 
" clip-path="url(#p01f10a6b0a)" style="fill: none; stroke: #000000; stroke-width: 0.5"/>
    <path d="M 181.067688 137.599228 
L 186.562043 137.599228 
" clip-path="url(#p01f10a6b0a)" style="fill: none; stroke: #000000; stroke-width: 0.5"/>
    <path d="M 169.894113 137.586608 
L 195.781036 137.586608 
" clip-path="url(#p01f10a6b0a)" style="fill: none; stroke: #000000; stroke-width: 0.5"/>
   </g>
   <g id="LineCollection_6">
    <path d="M 207.236804 95.422856 
L 207.236804 90.69152 
" clip-path="url(#p01f10a6b0a)" style="fill: none; stroke: #000000; stroke-width: 0.5"/>
    <path d="M 159.661192 112.678722 
L 159.661192 110.874778 
" clip-path="url(#p01f10a6b0a)" style="fill: none; stroke: #000000; stroke-width: 0.5"/>
    <path d="M 177.619654 70.765715 
L 177.619654 57.965842 
" clip-path="url(#p01f10a6b0a)" style="fill: none; stroke: #000000; stroke-width: 0.5"/>
    <path d="M 210.973606 71.958832 
L 210.973606 60.360992 
" clip-path="url(#p01f10a6b0a)" style="fill: none; stroke: #000000; stroke-width: 0.5"/>
    <path d="M 134.856699 138.07275 
L 134.856699 114.876771 
" clip-path="url(#p01f10a6b0a)" style="fill: none; stroke: #000000; stroke-width: 0.5"/>
    <path d="M 103.332724 95.919749 
L 103.332724 93.909093 
" clip-path="url(#p01f10a6b0a)" style="fill: none; stroke: #000000; stroke-width: 0.5"/>
    <path d="M 131.249563 89.303659 
L 131.249563 79.841118 
" clip-path="url(#p01f10a6b0a)" style="fill: none; stroke: #000000; stroke-width: 0.5"/>
    <path d="M 123.888483 59.462467 
L 123.888483 29.730852 
" clip-path="url(#p01f10a6b0a)" style="fill: none; stroke: #000000; stroke-width: 0.5"/>
    <path d="M 178.837777 108.422618 
L 178.837777 98.800693 
" clip-path="url(#p01f10a6b0a)" style="fill: none; stroke: #000000; stroke-width: 0.5"/>
    <path d="M 124.445536 109.109682 
L 124.445536 102.812449 
" clip-path="url(#p01f10a6b0a)" style="fill: none; stroke: #000000; stroke-width: 0.5"/>
    <path d="M 151.993508 78.437403 
L 151.993508 56.785005 
" clip-path="url(#p01f10a6b0a)" style="fill: none; stroke: #000000; stroke-width: 0.5"/>
    <path d="M 155.683042 74.677906 
L 155.683042 65.685019 
" clip-path="url(#p01f10a6b0a)" style="fill: none; stroke: #000000; stroke-width: 0.5"/>
    <path d="M 180.617081 86.98886 
L 180.617081 82.012892 
" clip-path="url(#p01f10a6b0a)" style="fill: none; stroke: #000000; stroke-width: 0.5"/>
    <path d="M 130.912781 127.066793 
L 130.912781 118.760882 
" clip-path="url(#p01f10a6b0a)" style="fill: none; stroke: #000000; stroke-width: 0.5"/>
    <path d="M 174.123805 86.778951 
L 174.123805 83.047303 
" clip-path="url(#p01f10a6b0a)" style="fill: none; stroke: #000000; stroke-width: 0.5"/>
    <path d="M 197.864521 82.742264 
L 197.864521 76.121478 
" clip-path="url(#p01f10a6b0a)" style="fill: none; stroke: #000000; stroke-width: 0.5"/>
    <path d="M 172.685845 90.92014 
L 172.685845 84.635562 
" clip-path="url(#p01f10a6b0a)" style="fill: none; stroke: #000000; stroke-width: 0.5"/>
    <path d="M 128.788615 121.238582 
L 128.788615 115.851895 
" clip-path="url(#p01f10a6b0a)" style="fill: none; stroke: #000000; stroke-width: 0.5"/>
    <path d="M 160.862385 90.615049 
L 160.862385 63.541459 
" clip-path="url(#p01f10a6b0a)" style="fill: none; stroke: #000000; stroke-width: 0.5"/>
    <path d="M 161.187006 84.721272 
L 161.187006 73.50306 
" clip-path="url(#p01f10a6b0a)" style="fill: none; stroke: #000000; stroke-width: 0.5"/>
    <path d="M 199.109024 144.916684 
L 199.109024 144.203658 
" clip-path="url(#p01f10a6b0a)" style="fill: none; stroke: #000000; stroke-width: 0.5"/>
    <path d="M 147.003244 149.972059 
L 147.003244 144.715775 
" clip-path="url(#p01f10a6b0a)" style="fill: none; stroke: #000000; stroke-width: 0.5"/>
    <path d="M 183.814865 144.324163 
L 183.814865 130.874293 
" clip-path="url(#p01f10a6b0a)" style="fill: none; stroke: #000000; stroke-width: 0.5"/>
    <path d="M 182.837575 141.633891 
L 182.837575 133.539326 
" clip-path="url(#p01f10a6b0a)" style="fill: none; stroke: #000000; stroke-width: 0.5"/>
   </g>
   <g id="LineCollection_7">
    <path d="M 104.505 177.781083 
L 106.50748 177.781083 
" clip-path="url(#p01f10a6b0a)" style="fill: none; stroke: #000000; stroke-width: 0.5"/>
    <path d="M 83.133547 175.963813 
L 85.046922 175.963813 
" clip-path="url(#p01f10a6b0a)" style="fill: none; stroke: #000000; stroke-width: 0.5"/>
    <path d="M 98.624123 176.981821 
L 99.863378 176.981821 
" clip-path="url(#p01f10a6b0a)" style="fill: none; stroke: #000000; stroke-width: 0.5"/>
    <path d="M 77.610708 170.844329 
L 78.001106 170.844329 
" clip-path="url(#p01f10a6b0a)" style="fill: none; stroke: #000000; stroke-width: 0.5"/>
   </g>
   <g id="LineCollection_8">
    <path d="M 105.50624 177.985398 
L 105.50624 177.576768 
" clip-path="url(#p01f10a6b0a)" style="fill: none; stroke: #000000; stroke-width: 0.5"/>
    <path d="M 84.090235 176.371923 
L 84.090235 175.555704 
" clip-path="url(#p01f10a6b0a)" style="fill: none; stroke: #000000; stroke-width: 0.5"/>
    <path d="M 99.24375 177.377312 
L 99.24375 176.586329 
" clip-path="url(#p01f10a6b0a)" style="fill: none; stroke: #000000; stroke-width: 0.5"/>
    <path d="M 77.805907 172.190739 
L 77.805907 169.497919 
" clip-path="url(#p01f10a6b0a)" style="fill: none; stroke: #000000; stroke-width: 0.5"/>
   </g>
   <g id="line2d_11">
    <path d="M 131.089088 93.057188 
L 109.450958 111.77675 
L 145.892672 64.365779 
L 117.002373 66.159912 
L 84.312321 126.474761 
L 76.586608 94.914421 
L 92.486738 84.572389 
L 80.902479 44.59666 
L 107.524893 103.611655 
L 88.310789 105.961066 
L 120.23434 67.611204 
L 95.072258 70.181463 
L 107.515906 84.500876 
L 92.326176 122.913837 
L 147.998358 84.913127 
L 109.372325 79.431871 
L 102.739809 87.777851 
L 88.79827 118.545238 
L 134.682052 77.078254 
L 96.281981 79.112166 
L 115.896477 144.560171 
L 93.218776 147.343917 
L 154.589323 137.599228 
L 104.563423 137.586608 
" clip-path="url(#p01f10a6b0a)" style="fill: none; stroke: #000000; stroke-opacity: 0; stroke-width: 1.5; stroke-linecap: square"/>
   </g>
   <g id="line2d_12">
    <path d="M 68.535817 177.781083 
L 68.042007 175.963813 
L 67.593529 176.981821 
L 65.848653 170.844329 
" clip-path="url(#p01f10a6b0a)" style="fill: none; stroke: #000000; stroke-opacity: 0; stroke-width: 1.5; stroke-linecap: square"/>
   </g>
   <g id="line2d_13">
    <path d="M 207.236804 93.057188 
L 159.661192 111.77675 
L 177.619654 64.365779 
L 210.973606 66.159912 
L 134.856699 126.474761 
L 103.332724 94.914421 
L 131.249563 84.572389 
L 123.888483 44.59666 
L 178.837777 103.611655 
L 124.445536 105.961066 
L 151.993508 67.611204 
L 155.683042 70.181463 
L 180.617081 84.500876 
L 130.912781 122.913837 
L 174.123805 84.913127 
L 197.864521 79.431871 
L 172.685845 87.777851 
L 128.788615 118.545238 
L 160.862385 77.078254 
L 161.187006 79.112166 
L 199.109024 144.560171 
L 147.003244 147.343917 
L 183.814865 137.599228 
L 182.837575 137.586608 
" clip-path="url(#p01f10a6b0a)" style="fill: none; stroke: #000000; stroke-opacity: 0; stroke-width: 1.5; stroke-linecap: square"/>
   </g>
   <g id="line2d_14">
    <path d="M 105.50624 177.781083 
L 84.090235 175.963813 
L 99.24375 176.981821 
L 77.805907 170.844329 
" clip-path="url(#p01f10a6b0a)" style="fill: none; stroke: #000000; stroke-opacity: 0; stroke-width: 1.5; stroke-linecap: square"/>
   </g>
   <g id="patch_3">
    <path d="M 58.163438 185.398125 
L 58.163438 22.318125 
" style="fill: none; stroke: #000000; stroke-width: 0.8; stroke-linejoin: miter; stroke-linecap: square"/>
   </g>
   <g id="patch_4">
    <path d="M 225.563438 185.398125 
L 225.563438 22.318125 
" style="fill: none; stroke: #000000; stroke-width: 0.8; stroke-linejoin: miter; stroke-linecap: square"/>
   </g>
   <g id="patch_5">
    <path d="M 58.163438 185.398125 
L 225.563438 185.398125 
" style="fill: none; stroke: #000000; stroke-width: 0.8; stroke-linejoin: miter; stroke-linecap: square"/>
   </g>
   <g id="patch_6">
    <path d="M 58.163438 22.318125 
L 225.563438 22.318125 
" style="fill: none; stroke: #000000; stroke-width: 0.8; stroke-linejoin: miter; stroke-linecap: square"/>
   </g>
   <g id="text_11">
    <!-- No -->
    <g transform="translate(74.903438 157.892313)scale(0.1 -0.1)">
     <defs>
      <path id="DejaVuSans-6f" d="M 1959 3097 
Q 1497 3097 1228 2736 
Q 959 2375 959 1747 
Q 959 1119 1226 758 
Q 1494 397 1959 397 
Q 2419 397 2687 759 
Q 2956 1122 2956 1747 
Q 2956 2369 2687 2733 
Q 2419 3097 1959 3097 
z
M 1959 3584 
Q 2709 3584 3137 3096 
Q 3566 2609 3566 1747 
Q 3566 888 3137 398 
Q 2709 -91 1959 -91 
Q 1206 -91 779 398 
Q 353 888 353 1747 
Q 353 2609 779 3096 
Q 1206 3584 1959 3584 
z
" transform="scale(0.015625)"/>
     </defs>
     <use xlink:href="#DejaVuSans-4e"/>
     <use xlink:href="#DejaVuSans-6f" x="74.804688"/>
    </g>
    <!-- Isl1 -->
    <g transform="translate(74.903438 169.090125)scale(0.1 -0.1)">
     <defs>
      <path id="DejaVuSans-49" d="M 628 4666 
L 1259 4666 
L 1259 0 
L 628 0 
L 628 4666 
z
" transform="scale(0.015625)"/>
      <path id="DejaVuSans-73" d="M 2834 3397 
L 2834 2853 
Q 2591 2978 2328 3040 
Q 2066 3103 1784 3103 
Q 1356 3103 1142 2972 
Q 928 2841 928 2578 
Q 928 2378 1081 2264 
Q 1234 2150 1697 2047 
L 1894 2003 
Q 2506 1872 2764 1633 
Q 3022 1394 3022 966 
Q 3022 478 2636 193 
Q 2250 -91 1575 -91 
Q 1294 -91 989 -36 
Q 684 19 347 128 
L 347 722 
Q 666 556 975 473 
Q 1284 391 1588 391 
Q 1994 391 2212 530 
Q 2431 669 2431 922 
Q 2431 1156 2273 1281 
Q 2116 1406 1581 1522 
L 1381 1569 
Q 847 1681 609 1914 
Q 372 2147 372 2553 
Q 372 3047 722 3315 
Q 1072 3584 1716 3584 
Q 2034 3584 2315 3537 
Q 2597 3491 2834 3397 
z
" transform="scale(0.015625)"/>
     </defs>
     <use xlink:href="#DejaVuSans-49"/>
     <use xlink:href="#DejaVuSans-73" x="29.492188"/>
     <use xlink:href="#DejaVuSans-6c" x="81.591797"/>
     <use xlink:href="#DejaVuSans-31" x="109.375"/>
    </g>
   </g>
   <g id="text_12">
    <!-- Isl1 -->
    <g transform="translate(131.483438 16.318125)scale(0.12 -0.12)">
     <use xlink:href="#DejaVuSans-49"/>
     <use xlink:href="#DejaVuSans-73" x="29.492188"/>
     <use xlink:href="#DejaVuSans-6c" x="81.591797"/>
     <use xlink:href="#DejaVuSans-31" x="109.375"/>
    </g>
   </g>
  </g>
 </g>
 <defs>
  <clipPath id="p01f10a6b0a">
   <rect x="58.163438" y="22.318125" width="167.4" height="163.08"/>
  </clipPath>
 </defs>
</svg>
