<?xml version="1.0" encoding="utf-8" standalone="no"?>
<!DOCTYPE svg PUBLIC "-//W3C//DTD SVG 1.1//EN"
  "http://www.w3.org/Graphics/SVG/1.1/DTD/svg11.dtd">
<svg xmlns:xlink="http://www.w3.org/1999/xlink" width="226.400937pt" height="234.152188pt" viewBox="0 0 226.400937 234.152188" xmlns="http://www.w3.org/2000/svg" version="1.1">
 <metadata>
  <rdf:RDF xmlns:dc="http://purl.org/dc/elements/1.1/" xmlns:cc="http://creativecommons.org/ns#" xmlns:rdf="http://www.w3.org/1999/02/22-rdf-syntax-ns#">
   <cc:Work>
    <dc:type rdf:resource="http://purl.org/dc/dcmitype/StillImage"/>
    <dc:date>2025-01-26T16:01:17.600896</dc:date>
    <dc:format>image/svg+xml</dc:format>
    <dc:creator>
     <cc:Agent>
      <dc:title>Matplotlib v3.5.2, https://matplotlib.org/</dc:title>
     </cc:Agent>
    </dc:creator>
   </cc:Work>
  </rdf:RDF>
 </metadata>
 <defs>
  <style type="text/css">*{stroke-linejoin: round; stroke-linecap: butt}</style>
 </defs>
 <g id="figure_1">
  <g id="patch_1">
   <path d="M 0 234.152188 
L 226.400937 234.152188 
L 226.400937 -0 
L 0 -0 
L 0 234.152188 
z
" style="fill: none"/>
  </g>
  <g id="axes_1">
   <g id="patch_2">
    <path d="M 51.800938 185.398125 
L 219.200938 185.398125 
L 219.200938 22.318125 
L 51.800938 22.318125 
z
" style="fill: #ffffff"/>
   </g>
   <g id="PathCollection_1">
    <defs>
     <path id="mdf5f2d5a6e" d="M 0 3 
C 0.795609 3 1.55874 2.683901 2.12132 2.12132 
C 2.683901 1.55874 3 0.795609 3 0 
C 3 -0.795609 2.683901 -1.55874 2.12132 -2.12132 
C 1.55874 -2.683901 0.795609 -3 0 -3 
C -0.795609 -3 -1.55874 -2.683901 -2.12132 -2.12132 
C -2.683901 -1.55874 -3 -0.795609 -3 0 
C -3 0.795609 -2.683901 1.55874 -2.12132 2.12132 
C -1.55874 2.683901 -0.795609 3 0 3 
z
" style="stroke: #ec8063; stroke-opacity: 0.8"/>
    </defs>
    <g clip-path="url(#pc3c75f5765)">
     <use xlink:href="#mdf5f2d5a6e" x="166.605918" y="118.222669" style="fill: #ec8063; fill-opacity: 0.8; stroke: #ec8063; stroke-opacity: 0.8"/>
     <use xlink:href="#mdf5f2d5a6e" x="131.093964" y="125.916647" style="fill: #ec8063; fill-opacity: 0.8; stroke: #ec8063; stroke-opacity: 0.8"/>
     <use xlink:href="#mdf5f2d5a6e" x="190.901185" y="76.354396" style="fill: #ec8063; fill-opacity: 0.8; stroke: #ec8063; stroke-opacity: 0.8"/>
     <use xlink:href="#mdf5f2d5a6e" x="143.487155" y="77.571378" style="fill: #ec8063; fill-opacity: 0.8; stroke: #ec8063; stroke-opacity: 0.8"/>
     <use xlink:href="#mdf5f2d5a6e" x="89.837068" y="137.66987" style="fill: #ec8063; fill-opacity: 0.8; stroke: #ec8063; stroke-opacity: 0.8"/>
     <use xlink:href="#mdf5f2d5a6e" x="77.157824" y="117.673228" style="fill: #ec8063; fill-opacity: 0.8; stroke: #ec8063; stroke-opacity: 0.8"/>
     <use xlink:href="#mdf5f2d5a6e" x="103.252714" y="105.335391" style="fill: #ec8063; fill-opacity: 0.8; stroke: #ec8063; stroke-opacity: 0.8"/>
     <use xlink:href="#mdf5f2d5a6e" x="84.240921" y="82.607759" style="fill: #ec8063; fill-opacity: 0.8; stroke: #ec8063; stroke-opacity: 0.8"/>
     <use xlink:href="#mdf5f2d5a6e" x="127.932955" y="125.578337" style="fill: #ec8063; fill-opacity: 0.8; stroke: #ec8063; stroke-opacity: 0.8"/>
     <use xlink:href="#mdf5f2d5a6e" x="96.399252" y="118.40493" style="fill: #ec8063; fill-opacity: 0.8; stroke: #ec8063; stroke-opacity: 0.8"/>
     <use xlink:href="#mdf5f2d5a6e" x="148.791378" y="79.807017" style="fill: #ec8063; fill-opacity: 0.8; stroke: #ec8063; stroke-opacity: 0.8"/>
     <use xlink:href="#mdf5f2d5a6e" x="107.496004" y="84.043046" style="fill: #ec8063; fill-opacity: 0.8; stroke: #ec8063; stroke-opacity: 0.8"/>
     <use xlink:href="#mdf5f2d5a6e" x="127.918206" y="114.379259" style="fill: #ec8063; fill-opacity: 0.8; stroke: #ec8063; stroke-opacity: 0.8"/>
     <use xlink:href="#mdf5f2d5a6e" x="102.989204" y="126.899323" style="fill: #ec8063; fill-opacity: 0.8; stroke: #ec8063; stroke-opacity: 0.8"/>
     <use xlink:href="#mdf5f2d5a6e" x="194.356983" y="89.972096" style="fill: #ec8063; fill-opacity: 0.8; stroke: #ec8063; stroke-opacity: 0.8"/>
     <use xlink:href="#mdf5f2d5a6e" x="130.964914" y="79.292451" style="fill: #ec8063; fill-opacity: 0.8; stroke: #ec8063; stroke-opacity: 0.8"/>
     <use xlink:href="#mdf5f2d5a6e" x="120.079797" y="113.878137" style="fill: #ec8063; fill-opacity: 0.8; stroke: #ec8063; stroke-opacity: 0.8"/>
     <use xlink:href="#mdf5f2d5a6e" x="97.199294" y="121.591955" style="fill: #ec8063; fill-opacity: 0.8; stroke: #ec8063; stroke-opacity: 0.8"/>
     <use xlink:href="#mdf5f2d5a6e" x="172.502598" y="81.745223" style="fill: #ec8063; fill-opacity: 0.8; stroke: #ec8063; stroke-opacity: 0.8"/>
     <use xlink:href="#mdf5f2d5a6e" x="109.481372" y="86.482677" style="fill: #ec8063; fill-opacity: 0.8; stroke: #ec8063; stroke-opacity: 0.8"/>
     <use xlink:href="#mdf5f2d5a6e" x="141.672187" y="150.595429" style="fill: #ec8063; fill-opacity: 0.8; stroke: #ec8063; stroke-opacity: 0.8"/>
     <use xlink:href="#mdf5f2d5a6e" x="104.454117" y="146.982118" style="fill: #ec8063; fill-opacity: 0.8; stroke: #ec8063; stroke-opacity: 0.8"/>
     <use xlink:href="#mdf5f2d5a6e" x="205.173909" y="132.989115" style="fill: #ec8063; fill-opacity: 0.8; stroke: #ec8063; stroke-opacity: 0.8"/>
     <use xlink:href="#mdf5f2d5a6e" x="123.072665" y="131.178065" style="fill: #ec8063; fill-opacity: 0.8; stroke: #ec8063; stroke-opacity: 0.8"/>
    </g>
   </g>
   <g id="PolyCollection_1">
    <path d="M 77.157824 101.545011 
L 77.157824 134.205348 
L 78.450915 133.560499 
L 79.744007 133.106596 
L 81.037099 132.557837 
L 82.330191 131.958392 
L 83.623282 131.358947 
L 84.916374 130.759092 
L 86.209466 130.199765 
L 87.502558 129.876594 
L 88.79565 129.343173 
L 90.088741 128.757895 
L 91.381833 128.30375 
L 92.674925 127.773873 
L 93.968017 127.313925 
L 95.261108 126.999832 
L 96.5542 126.592596 
L 97.847292 126.055141 
L 99.140384 125.619507 
L 100.433476 125.188334 
L 101.726567 124.690399 
L 103.019659 124.296906 
L 104.312751 123.944397 
L 105.605843 123.35323 
L 106.898934 122.86693 
L 108.192026 122.498772 
L 109.485118 122.18457 
L 110.77821 121.827979 
L 112.071302 121.456509 
L 113.364393 121.24899 
L 114.657485 120.93844 
L 115.950577 120.628014 
L 117.243669 120.329601 
L 118.53676 120.169217 
L 119.829852 119.96838 
L 121.122944 119.76989 
L 122.416036 119.511437 
L 123.709128 119.127511 
L 125.002219 119.017777 
L 126.295311 118.861311 
L 127.588403 118.736907 
L 128.881495 118.741522 
L 130.174586 118.468889 
L 131.467678 118.415912 
L 132.76077 118.369013 
L 134.053862 118.312635 
L 135.346954 118.138133 
L 136.640045 117.959564 
L 137.933137 117.688775 
L 139.226229 117.858694 
L 140.519321 118.021186 
L 141.812412 118.016576 
L 143.105504 117.956481 
L 144.398596 117.604481 
L 145.691688 117.623255 
L 146.98478 117.42141 
L 148.277871 117.477057 
L 149.570963 117.532703 
L 150.864055 117.58835 
L 152.157147 117.600373 
L 153.450238 117.55218 
L 154.74333 117.554632 
L 156.036422 117.661088 
L 157.329514 117.724787 
L 158.622606 117.874884 
L 159.915697 118.02201 
L 161.208789 118.140984 
L 162.501881 118.1358 
L 163.794973 118.284828 
L 165.088064 118.460589 
L 166.381156 118.610051 
L 167.674248 118.595509 
L 168.96734 118.579862 
L 170.260432 118.610441 
L 171.553523 118.641569 
L 172.846615 118.666983 
L 174.139707 118.763364 
L 175.432799 118.859257 
L 176.72589 118.999579 
L 178.018982 119.180083 
L 179.312074 119.291723 
L 180.605166 119.356509 
L 181.898258 119.401467 
L 183.191349 119.632347 
L 184.484441 119.707438 
L 185.777533 119.739854 
L 187.070625 119.849503 
L 188.363716 119.975187 
L 189.656808 120.100871 
L 190.9499 120.201028 
L 192.242992 120.300597 
L 193.536084 120.400165 
L 194.829175 120.499734 
L 196.122267 120.599303 
L 197.415359 120.696892 
L 198.708451 120.747798 
L 200.001542 120.71784 
L 201.294634 120.842938 
L 202.587726 121.030897 
L 203.880818 121.189933 
L 205.173909 121.28968 
L 205.173909 71.505907 
L 205.173909 71.505907 
L 203.880818 72.111774 
L 202.587726 72.719391 
L 201.294634 73.327008 
L 200.001542 73.934625 
L 198.708451 74.463697 
L 197.415359 74.940493 
L 196.122267 75.451389 
L 194.829175 76.061907 
L 193.536084 76.673029 
L 192.242992 77.290173 
L 190.9499 77.89451 
L 189.656808 78.504748 
L 188.363716 79.114724 
L 187.070625 79.618131 
L 185.777533 80.086144 
L 184.484441 80.556693 
L 183.191349 81.201779 
L 181.898258 81.730233 
L 180.605166 82.201325 
L 179.312074 82.672417 
L 178.018982 83.14351 
L 176.72589 83.614602 
L 175.432799 84.085695 
L 174.139707 84.556787 
L 172.846615 85.027879 
L 171.553523 85.500339 
L 170.260432 85.9745 
L 168.96734 86.478872 
L 167.674248 87.067444 
L 166.381156 87.659855 
L 165.088064 88.20496 
L 163.794973 88.834775 
L 162.501881 89.386888 
L 161.208789 89.848316 
L 159.915697 90.415009 
L 158.622606 91.031586 
L 157.329514 91.651822 
L 156.036422 92.268586 
L 154.74333 92.663776 
L 153.450238 92.980017 
L 152.157147 93.41617 
L 150.864055 93.992975 
L 149.570963 94.4452 
L 148.277871 94.953052 
L 146.98478 95.361086 
L 145.691688 95.594818 
L 144.398596 96.013806 
L 143.105504 96.673944 
L 141.812412 97.161433 
L 140.519321 97.375967 
L 139.226229 97.853551 
L 137.933137 98.323186 
L 136.640045 98.700756 
L 135.346954 99.082314 
L 134.053862 99.388569 
L 132.76077 99.578926 
L 131.467678 99.963804 
L 130.174586 100.24429 
L 128.881495 100.652135 
L 127.588403 100.755711 
L 126.295311 100.99322 
L 125.002219 101.450698 
L 123.709128 101.715588 
L 122.416036 101.977193 
L 121.122944 102.187145 
L 119.829852 102.205013 
L 118.53676 102.223775 
L 117.243669 102.291336 
L 115.950577 102.40579 
L 114.657485 102.377053 
L 113.364393 102.395303 
L 112.071302 102.481679 
L 110.77821 102.494651 
L 109.485118 102.502418 
L 108.192026 102.514785 
L 106.898934 102.529707 
L 105.605843 102.625377 
L 104.312751 102.755391 
L 103.019659 102.837228 
L 101.726567 102.711627 
L 100.433476 102.720625 
L 99.140384 102.807376 
L 97.847292 102.895177 
L 96.5542 102.772498 
L 95.261108 102.632407 
L 93.968017 102.642716 
L 92.674925 102.654407 
L 91.381833 102.633951 
L 90.088741 102.588655 
L 88.79565 102.480427 
L 87.502558 102.223256 
L 86.209466 102.040106 
L 84.916374 102.022304 
L 83.623282 101.898706 
L 82.330191 101.893933 
L 81.037099 101.862172 
L 79.744007 101.757059 
L 78.450915 101.651946 
L 77.157824 101.545011 
z
" clip-path="url(#pc3c75f5765)" style="fill: #ec8063; fill-opacity: 0.15"/>
   </g>
   <g id="PathCollection_2">
    <defs>
     <path id="mf7e18671b9" d="M 0 3.162278 
C 0.838646 3.162278 1.643056 2.82908 2.236068 2.236068 
C 2.82908 1.643056 3.162278 0.838646 3.162278 0 
C 3.162278 -0.838646 2.82908 -1.643056 2.236068 -2.236068 
C 1.643056 -2.82908 0.838646 -3.162278 0 -3.162278 
C -0.838646 -3.162278 -1.643056 -2.82908 -2.236068 -2.236068 
C -2.82908 -1.643056 -3.162278 -0.838646 -3.162278 0 
C -3.162278 0.838646 -2.82908 1.643056 -2.236068 2.236068 
C -1.643056 2.82908 -0.838646 3.162278 0 3.162278 
z
" style="stroke: #ec8063; stroke-width: 2"/>
    </defs>
    <g clip-path="url(#pc3c75f5765)">
     <use xlink:href="#mf7e18671b9" x="63.945068" y="181.536914" style="fill: #ffffff; stroke: #ec8063; stroke-width: 2"/>
     <use xlink:href="#mf7e18671b9" x="63.13464" y="180.034437" style="fill: #ffffff; stroke: #ec8063; stroke-width: 2"/>
     <use xlink:href="#mf7e18671b9" x="62.398608" y="179.894499" style="fill: #ffffff; stroke: #ec8063; stroke-width: 2"/>
     <use xlink:href="#mf7e18671b9" x="59.534962" y="175.885935" style="fill: #ffffff; stroke: #ec8063; stroke-width: 2"/>
    </g>
   </g>
   <g id="matplotlib.axis_1">
    <g id="xtick_1">
     <g id="line2d_1">
      <defs>
       <path id="m26b91215b6" d="M 0 0 
L 0 3.5 
" style="stroke: #000000; stroke-width: 0.8"/>
      </defs>
      <g>
       <use xlink:href="#m26b91215b6" x="97.73058" y="185.398125" style="stroke: #000000; stroke-width: 0.8"/>
      </g>
     </g>
     <g id="text_1">
      <!-- 500 -->
      <g transform="translate(88.18683 199.996563)scale(0.1 -0.1)">
       <defs>
        <path id="DejaVuSans-35" d="M 691 4666 
L 3169 4666 
L 3169 4134 
L 1269 4134 
L 1269 2991 
Q 1406 3038 1543 3061 
Q 1681 3084 1819 3084 
Q 2600 3084 3056 2656 
Q 3513 2228 3513 1497 
Q 3513 744 3044 326 
Q 2575 -91 1722 -91 
Q 1428 -91 1123 -41 
Q 819 9 494 109 
L 494 744 
Q 775 591 1075 516 
Q 1375 441 1709 441 
Q 2250 441 2565 725 
Q 2881 1009 2881 1497 
Q 2881 1984 2565 2268 
Q 2250 2553 1709 2553 
Q 1456 2553 1204 2497 
Q 953 2441 691 2322 
L 691 4666 
z
" transform="scale(0.015625)"/>
        <path id="DejaVuSans-30" d="M 2034 4250 
Q 1547 4250 1301 3770 
Q 1056 3291 1056 2328 
Q 1056 1369 1301 889 
Q 1547 409 2034 409 
Q 2525 409 2770 889 
Q 3016 1369 3016 2328 
Q 3016 3291 2770 3770 
Q 2525 4250 2034 4250 
z
M 2034 4750 
Q 2819 4750 3233 4129 
Q 3647 3509 3647 2328 
Q 3647 1150 3233 529 
Q 2819 -91 2034 -91 
Q 1250 -91 836 529 
Q 422 1150 422 2328 
Q 422 3509 836 4129 
Q 1250 4750 2034 4750 
z
" transform="scale(0.015625)"/>
       </defs>
       <use xlink:href="#DejaVuSans-35"/>
       <use xlink:href="#DejaVuSans-30" x="63.623047"/>
       <use xlink:href="#DejaVuSans-30" x="127.246094"/>
      </g>
     </g>
    </g>
    <g id="xtick_2">
     <g id="line2d_2">
      <g>
       <use xlink:href="#m26b91215b6" x="147.805023" y="185.398125" style="stroke: #000000; stroke-width: 0.8"/>
      </g>
     </g>
     <g id="text_2">
      <!-- 1000 -->
      <g transform="translate(135.080023 199.996563)scale(0.1 -0.1)">
       <defs>
        <path id="DejaVuSans-31" d="M 794 531 
L 1825 531 
L 1825 4091 
L 703 3866 
L 703 4441 
L 1819 4666 
L 2450 4666 
L 2450 531 
L 3481 531 
L 3481 0 
L 794 0 
L 794 531 
z
" transform="scale(0.015625)"/>
       </defs>
       <use xlink:href="#DejaVuSans-31"/>
       <use xlink:href="#DejaVuSans-30" x="63.623047"/>
       <use xlink:href="#DejaVuSans-30" x="127.246094"/>
       <use xlink:href="#DejaVuSans-30" x="190.869141"/>
      </g>
     </g>
    </g>
    <g id="xtick_3">
     <g id="line2d_3">
      <g>
       <use xlink:href="#m26b91215b6" x="197.879465" y="185.398125" style="stroke: #000000; stroke-width: 0.8"/>
      </g>
     </g>
     <g id="text_3">
      <!-- 1500 -->
      <g transform="translate(185.154465 199.996563)scale(0.1 -0.1)">
       <use xlink:href="#DejaVuSans-31"/>
       <use xlink:href="#DejaVuSans-35" x="63.623047"/>
       <use xlink:href="#DejaVuSans-30" x="127.246094"/>
       <use xlink:href="#DejaVuSans-30" x="190.869141"/>
      </g>
     </g>
    </g>
    <g id="text_4">
     <!-- mRuby2, 4 dpi -->
     <g transform="translate(99.211875 213.674688)scale(0.1 -0.1)">
      <defs>
       <path id="DejaVuSans-6d" d="M 3328 2828 
Q 3544 3216 3844 3400 
Q 4144 3584 4550 3584 
Q 5097 3584 5394 3201 
Q 5691 2819 5691 2113 
L 5691 0 
L 5113 0 
L 5113 2094 
Q 5113 2597 4934 2840 
Q 4756 3084 4391 3084 
Q 3944 3084 3684 2787 
Q 3425 2491 3425 1978 
L 3425 0 
L 2847 0 
L 2847 2094 
Q 2847 2600 2669 2842 
Q 2491 3084 2119 3084 
Q 1678 3084 1418 2786 
Q 1159 2488 1159 1978 
L 1159 0 
L 581 0 
L 581 3500 
L 1159 3500 
L 1159 2956 
Q 1356 3278 1631 3431 
Q 1906 3584 2284 3584 
Q 2666 3584 2933 3390 
Q 3200 3197 3328 2828 
z
" transform="scale(0.015625)"/>
       <path id="DejaVuSans-52" d="M 2841 2188 
Q 3044 2119 3236 1894 
Q 3428 1669 3622 1275 
L 4263 0 
L 3584 0 
L 2988 1197 
Q 2756 1666 2539 1819 
Q 2322 1972 1947 1972 
L 1259 1972 
L 1259 0 
L 628 0 
L 628 4666 
L 2053 4666 
Q 2853 4666 3247 4331 
Q 3641 3997 3641 3322 
Q 3641 2881 3436 2590 
Q 3231 2300 2841 2188 
z
M 1259 4147 
L 1259 2491 
L 2053 2491 
Q 2509 2491 2742 2702 
Q 2975 2913 2975 3322 
Q 2975 3731 2742 3939 
Q 2509 4147 2053 4147 
L 1259 4147 
z
" transform="scale(0.015625)"/>
       <path id="DejaVuSans-75" d="M 544 1381 
L 544 3500 
L 1119 3500 
L 1119 1403 
Q 1119 906 1312 657 
Q 1506 409 1894 409 
Q 2359 409 2629 706 
Q 2900 1003 2900 1516 
L 2900 3500 
L 3475 3500 
L 3475 0 
L 2900 0 
L 2900 538 
Q 2691 219 2414 64 
Q 2138 -91 1772 -91 
Q 1169 -91 856 284 
Q 544 659 544 1381 
z
M 1991 3584 
L 1991 3584 
z
" transform="scale(0.015625)"/>
       <path id="DejaVuSans-62" d="M 3116 1747 
Q 3116 2381 2855 2742 
Q 2594 3103 2138 3103 
Q 1681 3103 1420 2742 
Q 1159 2381 1159 1747 
Q 1159 1113 1420 752 
Q 1681 391 2138 391 
Q 2594 391 2855 752 
Q 3116 1113 3116 1747 
z
M 1159 2969 
Q 1341 3281 1617 3432 
Q 1894 3584 2278 3584 
Q 2916 3584 3314 3078 
Q 3713 2572 3713 1747 
Q 3713 922 3314 415 
Q 2916 -91 2278 -91 
Q 1894 -91 1617 61 
Q 1341 213 1159 525 
L 1159 0 
L 581 0 
L 581 4863 
L 1159 4863 
L 1159 2969 
z
" transform="scale(0.015625)"/>
       <path id="DejaVuSans-79" d="M 2059 -325 
Q 1816 -950 1584 -1140 
Q 1353 -1331 966 -1331 
L 506 -1331 
L 506 -850 
L 844 -850 
Q 1081 -850 1212 -737 
Q 1344 -625 1503 -206 
L 1606 56 
L 191 3500 
L 800 3500 
L 1894 763 
L 2988 3500 
L 3597 3500 
L 2059 -325 
z
" transform="scale(0.015625)"/>
       <path id="DejaVuSans-32" d="M 1228 531 
L 3431 531 
L 3431 0 
L 469 0 
L 469 531 
Q 828 903 1448 1529 
Q 2069 2156 2228 2338 
Q 2531 2678 2651 2914 
Q 2772 3150 2772 3378 
Q 2772 3750 2511 3984 
Q 2250 4219 1831 4219 
Q 1534 4219 1204 4116 
Q 875 4013 500 3803 
L 500 4441 
Q 881 4594 1212 4672 
Q 1544 4750 1819 4750 
Q 2544 4750 2975 4387 
Q 3406 4025 3406 3419 
Q 3406 3131 3298 2873 
Q 3191 2616 2906 2266 
Q 2828 2175 2409 1742 
Q 1991 1309 1228 531 
z
" transform="scale(0.015625)"/>
       <path id="DejaVuSans-2c" d="M 750 794 
L 1409 794 
L 1409 256 
L 897 -744 
L 494 -744 
L 750 256 
L 750 794 
z
" transform="scale(0.015625)"/>
       <path id="DejaVuSans-20" transform="scale(0.015625)"/>
       <path id="DejaVuSans-34" d="M 2419 4116 
L 825 1625 
L 2419 1625 
L 2419 4116 
z
M 2253 4666 
L 3047 4666 
L 3047 1625 
L 3713 1625 
L 3713 1100 
L 3047 1100 
L 3047 0 
L 2419 0 
L 2419 1100 
L 313 1100 
L 313 1709 
L 2253 4666 
z
" transform="scale(0.015625)"/>
       <path id="DejaVuSans-64" d="M 2906 2969 
L 2906 4863 
L 3481 4863 
L 3481 0 
L 2906 0 
L 2906 525 
Q 2725 213 2448 61 
Q 2172 -91 1784 -91 
Q 1150 -91 751 415 
Q 353 922 353 1747 
Q 353 2572 751 3078 
Q 1150 3584 1784 3584 
Q 2172 3584 2448 3432 
Q 2725 3281 2906 2969 
z
M 947 1747 
Q 947 1113 1208 752 
Q 1469 391 1925 391 
Q 2381 391 2643 752 
Q 2906 1113 2906 1747 
Q 2906 2381 2643 2742 
Q 2381 3103 1925 3103 
Q 1469 3103 1208 2742 
Q 947 2381 947 1747 
z
" transform="scale(0.015625)"/>
       <path id="DejaVuSans-70" d="M 1159 525 
L 1159 -1331 
L 581 -1331 
L 581 3500 
L 1159 3500 
L 1159 2969 
Q 1341 3281 1617 3432 
Q 1894 3584 2278 3584 
Q 2916 3584 3314 3078 
Q 3713 2572 3713 1747 
Q 3713 922 3314 415 
Q 2916 -91 2278 -91 
Q 1894 -91 1617 61 
Q 1341 213 1159 525 
z
M 3116 1747 
Q 3116 2381 2855 2742 
Q 2594 3103 2138 3103 
Q 1681 3103 1420 2742 
Q 1159 2381 1159 1747 
Q 1159 1113 1420 752 
Q 1681 391 2138 391 
Q 2594 391 2855 752 
Q 3116 1113 3116 1747 
z
" transform="scale(0.015625)"/>
       <path id="DejaVuSans-69" d="M 603 3500 
L 1178 3500 
L 1178 0 
L 603 0 
L 603 3500 
z
M 603 4863 
L 1178 4863 
L 1178 4134 
L 603 4134 
L 603 4863 
z
" transform="scale(0.015625)"/>
      </defs>
      <use xlink:href="#DejaVuSans-6d"/>
      <use xlink:href="#DejaVuSans-52" x="97.412109"/>
      <use xlink:href="#DejaVuSans-75" x="162.394531"/>
      <use xlink:href="#DejaVuSans-62" x="225.773438"/>
      <use xlink:href="#DejaVuSans-79" x="289.25"/>
      <use xlink:href="#DejaVuSans-32" x="348.429688"/>
      <use xlink:href="#DejaVuSans-2c" x="412.052734"/>
      <use xlink:href="#DejaVuSans-20" x="443.839844"/>
      <use xlink:href="#DejaVuSans-34" x="475.626953"/>
      <use xlink:href="#DejaVuSans-20" x="539.25"/>
      <use xlink:href="#DejaVuSans-64" x="571.037109"/>
      <use xlink:href="#DejaVuSans-70" x="634.513672"/>
      <use xlink:href="#DejaVuSans-69" x="697.990234"/>
     </g>
     <!-- (gmean) -->
     <g transform="translate(114.245469 224.8725)scale(0.1 -0.1)">
      <defs>
       <path id="DejaVuSans-28" d="M 1984 4856 
Q 1566 4138 1362 3434 
Q 1159 2731 1159 2009 
Q 1159 1288 1364 580 
Q 1569 -128 1984 -844 
L 1484 -844 
Q 1016 -109 783 600 
Q 550 1309 550 2009 
Q 550 2706 781 3412 
Q 1013 4119 1484 4856 
L 1984 4856 
z
" transform="scale(0.015625)"/>
       <path id="DejaVuSans-67" d="M 2906 1791 
Q 2906 2416 2648 2759 
Q 2391 3103 1925 3103 
Q 1463 3103 1205 2759 
Q 947 2416 947 1791 
Q 947 1169 1205 825 
Q 1463 481 1925 481 
Q 2391 481 2648 825 
Q 2906 1169 2906 1791 
z
M 3481 434 
Q 3481 -459 3084 -895 
Q 2688 -1331 1869 -1331 
Q 1566 -1331 1297 -1286 
Q 1028 -1241 775 -1147 
L 775 -588 
Q 1028 -725 1275 -790 
Q 1522 -856 1778 -856 
Q 2344 -856 2625 -561 
Q 2906 -266 2906 331 
L 2906 616 
Q 2728 306 2450 153 
Q 2172 0 1784 0 
Q 1141 0 747 490 
Q 353 981 353 1791 
Q 353 2603 747 3093 
Q 1141 3584 1784 3584 
Q 2172 3584 2450 3431 
Q 2728 3278 2906 2969 
L 2906 3500 
L 3481 3500 
L 3481 434 
z
" transform="scale(0.015625)"/>
       <path id="DejaVuSans-65" d="M 3597 1894 
L 3597 1613 
L 953 1613 
Q 991 1019 1311 708 
Q 1631 397 2203 397 
Q 2534 397 2845 478 
Q 3156 559 3463 722 
L 3463 178 
Q 3153 47 2828 -22 
Q 2503 -91 2169 -91 
Q 1331 -91 842 396 
Q 353 884 353 1716 
Q 353 2575 817 3079 
Q 1281 3584 2069 3584 
Q 2775 3584 3186 3129 
Q 3597 2675 3597 1894 
z
M 3022 2063 
Q 3016 2534 2758 2815 
Q 2500 3097 2075 3097 
Q 1594 3097 1305 2825 
Q 1016 2553 972 2059 
L 3022 2063 
z
" transform="scale(0.015625)"/>
       <path id="DejaVuSans-61" d="M 2194 1759 
Q 1497 1759 1228 1600 
Q 959 1441 959 1056 
Q 959 750 1161 570 
Q 1363 391 1709 391 
Q 2188 391 2477 730 
Q 2766 1069 2766 1631 
L 2766 1759 
L 2194 1759 
z
M 3341 1997 
L 3341 0 
L 2766 0 
L 2766 531 
Q 2569 213 2275 61 
Q 1981 -91 1556 -91 
Q 1019 -91 701 211 
Q 384 513 384 1019 
Q 384 1609 779 1909 
Q 1175 2209 1959 2209 
L 2766 2209 
L 2766 2266 
Q 2766 2663 2505 2880 
Q 2244 3097 1772 3097 
Q 1472 3097 1187 3025 
Q 903 2953 641 2809 
L 641 3341 
Q 956 3463 1253 3523 
Q 1550 3584 1831 3584 
Q 2591 3584 2966 3190 
Q 3341 2797 3341 1997 
z
" transform="scale(0.015625)"/>
       <path id="DejaVuSans-6e" d="M 3513 2113 
L 3513 0 
L 2938 0 
L 2938 2094 
Q 2938 2591 2744 2837 
Q 2550 3084 2163 3084 
Q 1697 3084 1428 2787 
Q 1159 2491 1159 1978 
L 1159 0 
L 581 0 
L 581 3500 
L 1159 3500 
L 1159 2956 
Q 1366 3272 1645 3428 
Q 1925 3584 2291 3584 
Q 2894 3584 3203 3211 
Q 3513 2838 3513 2113 
z
" transform="scale(0.015625)"/>
       <path id="DejaVuSans-29" d="M 513 4856 
L 1013 4856 
Q 1481 4119 1714 3412 
Q 1947 2706 1947 2009 
Q 1947 1309 1714 600 
Q 1481 -109 1013 -844 
L 513 -844 
Q 928 -128 1133 580 
Q 1338 1288 1338 2009 
Q 1338 2731 1133 3434 
Q 928 4138 513 4856 
z
" transform="scale(0.015625)"/>
      </defs>
      <use xlink:href="#DejaVuSans-28"/>
      <use xlink:href="#DejaVuSans-67" x="39.013672"/>
      <use xlink:href="#DejaVuSans-6d" x="102.490234"/>
      <use xlink:href="#DejaVuSans-65" x="199.902344"/>
      <use xlink:href="#DejaVuSans-61" x="261.425781"/>
      <use xlink:href="#DejaVuSans-6e" x="322.705078"/>
      <use xlink:href="#DejaVuSans-29" x="386.083984"/>
     </g>
    </g>
   </g>
   <g id="matplotlib.axis_2">
    <g id="ytick_1">
     <g id="line2d_4">
      <defs>
       <path id="m6cbfe8aa74" d="M 0 0 
L -3.5 0 
" style="stroke: #000000; stroke-width: 0.8"/>
      </defs>
      <g>
       <use xlink:href="#m6cbfe8aa74" x="51.800938" y="182.485982" style="stroke: #000000; stroke-width: 0.8"/>
      </g>
     </g>
     <g id="text_5">
      <!-- 0 -->
      <g transform="translate(38.438438 186.285201)scale(0.1 -0.1)">
       <use xlink:href="#DejaVuSans-30"/>
      </g>
     </g>
    </g>
    <g id="ytick_2">
     <g id="line2d_5">
      <g>
       <use xlink:href="#m6cbfe8aa74" x="51.800938" y="153.364554" style="stroke: #000000; stroke-width: 0.8"/>
      </g>
     </g>
     <g id="text_6">
      <!-- 10 -->
      <g transform="translate(32.075938 157.163772)scale(0.1 -0.1)">
       <use xlink:href="#DejaVuSans-31"/>
       <use xlink:href="#DejaVuSans-30" x="63.623047"/>
      </g>
     </g>
    </g>
    <g id="ytick_3">
     <g id="line2d_6">
      <g>
       <use xlink:href="#m6cbfe8aa74" x="51.800938" y="124.243125" style="stroke: #000000; stroke-width: 0.8"/>
      </g>
     </g>
     <g id="text_7">
      <!-- 20 -->
      <g transform="translate(32.075938 128.042344)scale(0.1 -0.1)">
       <use xlink:href="#DejaVuSans-32"/>
       <use xlink:href="#DejaVuSans-30" x="63.623047"/>
      </g>
     </g>
    </g>
    <g id="ytick_4">
     <g id="line2d_7">
      <g>
       <use xlink:href="#m6cbfe8aa74" x="51.800938" y="95.121696" style="stroke: #000000; stroke-width: 0.8"/>
      </g>
     </g>
     <g id="text_8">
      <!-- 30 -->
      <g transform="translate(32.075938 98.920915)scale(0.1 -0.1)">
       <defs>
        <path id="DejaVuSans-33" d="M 2597 2516 
Q 3050 2419 3304 2112 
Q 3559 1806 3559 1356 
Q 3559 666 3084 287 
Q 2609 -91 1734 -91 
Q 1441 -91 1130 -33 
Q 819 25 488 141 
L 488 750 
Q 750 597 1062 519 
Q 1375 441 1716 441 
Q 2309 441 2620 675 
Q 2931 909 2931 1356 
Q 2931 1769 2642 2001 
Q 2353 2234 1838 2234 
L 1294 2234 
L 1294 2753 
L 1863 2753 
Q 2328 2753 2575 2939 
Q 2822 3125 2822 3475 
Q 2822 3834 2567 4026 
Q 2313 4219 1838 4219 
Q 1578 4219 1281 4162 
Q 984 4106 628 3988 
L 628 4550 
Q 988 4650 1302 4700 
Q 1616 4750 1894 4750 
Q 2613 4750 3031 4423 
Q 3450 4097 3450 3541 
Q 3450 3153 3228 2886 
Q 3006 2619 2597 2516 
z
" transform="scale(0.015625)"/>
       </defs>
       <use xlink:href="#DejaVuSans-33"/>
       <use xlink:href="#DejaVuSans-30" x="63.623047"/>
      </g>
     </g>
    </g>
    <g id="ytick_5">
     <g id="line2d_8">
      <g>
       <use xlink:href="#m6cbfe8aa74" x="51.800938" y="66.000268" style="stroke: #000000; stroke-width: 0.8"/>
      </g>
     </g>
     <g id="text_9">
      <!-- 40 -->
      <g transform="translate(32.075938 69.799487)scale(0.1 -0.1)">
       <use xlink:href="#DejaVuSans-34"/>
       <use xlink:href="#DejaVuSans-30" x="63.623047"/>
      </g>
     </g>
    </g>
    <g id="ytick_6">
     <g id="line2d_9">
      <g>
       <use xlink:href="#m6cbfe8aa74" x="51.800938" y="36.878839" style="stroke: #000000; stroke-width: 0.8"/>
      </g>
     </g>
     <g id="text_10">
      <!-- 50 -->
      <g transform="translate(32.075938 40.678058)scale(0.1 -0.1)">
       <use xlink:href="#DejaVuSans-35"/>
       <use xlink:href="#DejaVuSans-30" x="63.623047"/>
      </g>
     </g>
    </g>
    <g id="text_11">
     <!-- (%) iMN -->
     <g transform="translate(14.798438 123.543281)rotate(-90)scale(0.1 -0.1)">
      <defs>
       <path id="DejaVuSans-25" d="M 4653 2053 
Q 4381 2053 4226 1822 
Q 4072 1591 4072 1178 
Q 4072 772 4226 539 
Q 4381 306 4653 306 
Q 4919 306 5073 539 
Q 5228 772 5228 1178 
Q 5228 1588 5073 1820 
Q 4919 2053 4653 2053 
z
M 4653 2450 
Q 5147 2450 5437 2106 
Q 5728 1763 5728 1178 
Q 5728 594 5436 251 
Q 5144 -91 4653 -91 
Q 4153 -91 3862 251 
Q 3572 594 3572 1178 
Q 3572 1766 3864 2108 
Q 4156 2450 4653 2450 
z
M 1428 4353 
Q 1159 4353 1004 4120 
Q 850 3888 850 3481 
Q 850 3069 1003 2837 
Q 1156 2606 1428 2606 
Q 1700 2606 1854 2837 
Q 2009 3069 2009 3481 
Q 2009 3884 1853 4118 
Q 1697 4353 1428 4353 
z
M 4250 4750 
L 4750 4750 
L 1831 -91 
L 1331 -91 
L 4250 4750 
z
M 1428 4750 
Q 1922 4750 2215 4408 
Q 2509 4066 2509 3481 
Q 2509 2891 2217 2550 
Q 1925 2209 1428 2209 
Q 931 2209 642 2551 
Q 353 2894 353 3481 
Q 353 4063 643 4406 
Q 934 4750 1428 4750 
z
" transform="scale(0.015625)"/>
       <path id="DejaVuSans-4d" d="M 628 4666 
L 1569 4666 
L 2759 1491 
L 3956 4666 
L 4897 4666 
L 4897 0 
L 4281 0 
L 4281 4097 
L 3078 897 
L 2444 897 
L 1241 4097 
L 1241 0 
L 628 0 
L 628 4666 
z
" transform="scale(0.015625)"/>
       <path id="DejaVuSans-4e" d="M 628 4666 
L 1478 4666 
L 3547 763 
L 3547 4666 
L 4159 4666 
L 4159 0 
L 3309 0 
L 1241 3903 
L 1241 0 
L 628 0 
L 628 4666 
z
" transform="scale(0.015625)"/>
      </defs>
      <use xlink:href="#DejaVuSans-28"/>
      <use xlink:href="#DejaVuSans-25" x="39.013672"/>
      <use xlink:href="#DejaVuSans-29" x="134.033203"/>
      <use xlink:href="#DejaVuSans-20" x="173.046875"/>
      <use xlink:href="#DejaVuSans-69" x="204.833984"/>
      <use xlink:href="#DejaVuSans-4d" x="232.617188"/>
      <use xlink:href="#DejaVuSans-4e" x="318.896484"/>
     </g>
     <!-- of all cells -->
     <g transform="translate(25.99625 128.906563)rotate(-90)scale(0.1 -0.1)">
      <defs>
       <path id="DejaVuSans-6f" d="M 1959 3097 
Q 1497 3097 1228 2736 
Q 959 2375 959 1747 
Q 959 1119 1226 758 
Q 1494 397 1959 397 
Q 2419 397 2687 759 
Q 2956 1122 2956 1747 
Q 2956 2369 2687 2733 
Q 2419 3097 1959 3097 
z
M 1959 3584 
Q 2709 3584 3137 3096 
Q 3566 2609 3566 1747 
Q 3566 888 3137 398 
Q 2709 -91 1959 -91 
Q 1206 -91 779 398 
Q 353 888 353 1747 
Q 353 2609 779 3096 
Q 1206 3584 1959 3584 
z
" transform="scale(0.015625)"/>
       <path id="DejaVuSans-66" d="M 2375 4863 
L 2375 4384 
L 1825 4384 
Q 1516 4384 1395 4259 
Q 1275 4134 1275 3809 
L 1275 3500 
L 2222 3500 
L 2222 3053 
L 1275 3053 
L 1275 0 
L 697 0 
L 697 3053 
L 147 3053 
L 147 3500 
L 697 3500 
L 697 3744 
Q 697 4328 969 4595 
Q 1241 4863 1831 4863 
L 2375 4863 
z
" transform="scale(0.015625)"/>
       <path id="DejaVuSans-6c" d="M 603 4863 
L 1178 4863 
L 1178 0 
L 603 0 
L 603 4863 
z
" transform="scale(0.015625)"/>
       <path id="DejaVuSans-63" d="M 3122 3366 
L 3122 2828 
Q 2878 2963 2633 3030 
Q 2388 3097 2138 3097 
Q 1578 3097 1268 2742 
Q 959 2388 959 1747 
Q 959 1106 1268 751 
Q 1578 397 2138 397 
Q 2388 397 2633 464 
Q 2878 531 3122 666 
L 3122 134 
Q 2881 22 2623 -34 
Q 2366 -91 2075 -91 
Q 1284 -91 818 406 
Q 353 903 353 1747 
Q 353 2603 823 3093 
Q 1294 3584 2113 3584 
Q 2378 3584 2631 3529 
Q 2884 3475 3122 3366 
z
" transform="scale(0.015625)"/>
       <path id="DejaVuSans-73" d="M 2834 3397 
L 2834 2853 
Q 2591 2978 2328 3040 
Q 2066 3103 1784 3103 
Q 1356 3103 1142 2972 
Q 928 2841 928 2578 
Q 928 2378 1081 2264 
Q 1234 2150 1697 2047 
L 1894 2003 
Q 2506 1872 2764 1633 
Q 3022 1394 3022 966 
Q 3022 478 2636 193 
Q 2250 -91 1575 -91 
Q 1294 -91 989 -36 
Q 684 19 347 128 
L 347 722 
Q 666 556 975 473 
Q 1284 391 1588 391 
Q 1994 391 2212 530 
Q 2431 669 2431 922 
Q 2431 1156 2273 1281 
Q 2116 1406 1581 1522 
L 1381 1569 
Q 847 1681 609 1914 
Q 372 2147 372 2553 
Q 372 3047 722 3315 
Q 1072 3584 1716 3584 
Q 2034 3584 2315 3537 
Q 2597 3491 2834 3397 
z
" transform="scale(0.015625)"/>
      </defs>
      <use xlink:href="#DejaVuSans-6f"/>
      <use xlink:href="#DejaVuSans-66" x="61.181641"/>
      <use xlink:href="#DejaVuSans-20" x="96.386719"/>
      <use xlink:href="#DejaVuSans-61" x="128.173828"/>
      <use xlink:href="#DejaVuSans-6c" x="189.453125"/>
      <use xlink:href="#DejaVuSans-6c" x="217.236328"/>
      <use xlink:href="#DejaVuSans-20" x="245.019531"/>
      <use xlink:href="#DejaVuSans-63" x="276.806641"/>
      <use xlink:href="#DejaVuSans-65" x="331.787109"/>
      <use xlink:href="#DejaVuSans-6c" x="393.310547"/>
      <use xlink:href="#DejaVuSans-6c" x="421.09375"/>
      <use xlink:href="#DejaVuSans-73" x="448.876953"/>
     </g>
    </g>
   </g>
   <g id="line2d_10">
    <path d="M 77.157824 117.256857 
L 78.450915 117.060606 
L 79.744007 116.864354 
L 81.037099 116.668103 
L 82.330191 116.471852 
L 83.623282 116.2756 
L 84.916374 116.079349 
L 86.209466 115.883098 
L 87.502558 115.686846 
L 88.79565 115.490595 
L 90.088741 115.294344 
L 91.381833 115.098092 
L 92.674925 114.901841 
L 93.968017 114.70559 
L 95.261108 114.509338 
L 96.5542 114.313087 
L 97.847292 114.116836 
L 99.140384 113.920584 
L 100.433476 113.724333 
L 101.726567 113.528082 
L 103.019659 113.33183 
L 104.312751 113.135579 
L 105.605843 112.939328 
L 106.898934 112.743076 
L 108.192026 112.546825 
L 109.485118 112.350574 
L 110.77821 112.154322 
L 112.071302 111.958071 
L 113.364393 111.76182 
L 114.657485 111.565568 
L 115.950577 111.369317 
L 117.243669 111.173066 
L 118.53676 110.976814 
L 119.829852 110.780563 
L 121.122944 110.584312 
L 122.416036 110.38806 
L 123.709128 110.191809 
L 125.002219 109.995557 
L 126.295311 109.799306 
L 127.588403 109.603055 
L 128.881495 109.406803 
L 130.174586 109.210552 
L 131.467678 109.014301 
L 132.76077 108.818049 
L 134.053862 108.621798 
L 135.346954 108.425547 
L 136.640045 108.229295 
L 137.933137 108.033044 
L 139.226229 107.836793 
L 140.519321 107.640541 
L 141.812412 107.44429 
L 143.105504 107.248039 
L 144.398596 107.051787 
L 145.691688 106.855536 
L 146.98478 106.659285 
L 148.277871 106.463033 
L 149.570963 106.266782 
L 150.864055 106.070531 
L 152.157147 105.874279 
L 153.450238 105.678028 
L 154.74333 105.481777 
L 156.036422 105.285525 
L 157.329514 105.089274 
L 158.622606 104.893023 
L 159.915697 104.696771 
L 161.208789 104.50052 
L 162.501881 104.304269 
L 163.794973 104.108017 
L 165.088064 103.911766 
L 166.381156 103.715515 
L 167.674248 103.519263 
L 168.96734 103.323012 
L 170.260432 103.126761 
L 171.553523 102.930509 
L 172.846615 102.734258 
L 174.139707 102.538007 
L 175.432799 102.341755 
L 176.72589 102.145504 
L 178.018982 101.949253 
L 179.312074 101.753001 
L 180.605166 101.55675 
L 181.898258 101.360499 
L 183.191349 101.164247 
L 184.484441 100.967996 
L 185.777533 100.771745 
L 187.070625 100.575493 
L 188.363716 100.379242 
L 189.656808 100.182991 
L 190.9499 99.986739 
L 192.242992 99.790488 
L 193.536084 99.594237 
L 194.829175 99.397985 
L 196.122267 99.201734 
L 197.415359 99.005483 
L 198.708451 98.809231 
L 200.001542 98.61298 
L 201.294634 98.416729 
L 202.587726 98.220477 
L 203.880818 98.024226 
L 205.173909 97.827974 
" clip-path="url(#pc3c75f5765)" style="fill: none; stroke: #ec8063; stroke-width: 2.25; stroke-linecap: square"/>
   </g>
   <g id="LineCollection_1">
    <path d="M 161.387798 118.222669 
L 171.824037 118.222669 
" clip-path="url(#pc3c75f5765)" style="fill: none; stroke: #000000; stroke-width: 0.5"/>
    <path d="M 123.553411 125.916647 
L 138.634517 125.916647 
" clip-path="url(#pc3c75f5765)" style="fill: none; stroke: #000000; stroke-width: 0.5"/>
    <path d="M 184.248859 76.354396 
L 197.553511 76.354396 
" clip-path="url(#pc3c75f5765)" style="fill: none; stroke: #000000; stroke-width: 0.5"/>
    <path d="M 138.771177 77.571378 
L 148.203134 77.571378 
" clip-path="url(#pc3c75f5765)" style="fill: none; stroke: #000000; stroke-width: 0.5"/>
    <path d="M 88.658471 137.66987 
L 91.015665 137.66987 
" clip-path="url(#pc3c75f5765)" style="fill: none; stroke: #000000; stroke-width: 0.5"/>
    <path d="M 76.591518 117.673228 
L 77.72413 117.673228 
" clip-path="url(#pc3c75f5765)" style="fill: none; stroke: #000000; stroke-width: 0.5"/>
    <path d="M 102.529723 105.335391 
L 103.975706 105.335391 
" clip-path="url(#pc3c75f5765)" style="fill: none; stroke: #000000; stroke-width: 0.5"/>
    <path d="M 82.252446 82.607759 
L 86.229397 82.607759 
" clip-path="url(#pc3c75f5765)" style="fill: none; stroke: #000000; stroke-width: 0.5"/>
    <path d="M 124.381435 125.578337 
L 131.484475 125.578337 
" clip-path="url(#pc3c75f5765)" style="fill: none; stroke: #000000; stroke-width: 0.5"/>
    <path d="M 95.062411 118.40493 
L 97.736094 118.40493 
" clip-path="url(#pc3c75f5765)" style="fill: none; stroke: #000000; stroke-width: 0.5"/>
    <path d="M 144.632956 79.807017 
L 152.9498 79.807017 
" clip-path="url(#pc3c75f5765)" style="fill: none; stroke: #000000; stroke-width: 0.5"/>
    <path d="M 105.780246 84.043046 
L 109.211762 84.043046 
" clip-path="url(#pc3c75f5765)" style="fill: none; stroke: #000000; stroke-width: 0.5"/>
    <path d="M 124.661882 114.379259 
L 131.17453 114.379259 
" clip-path="url(#pc3c75f5765)" style="fill: none; stroke: #000000; stroke-width: 0.5"/>
    <path d="M 100.963211 126.899323 
L 105.015198 126.899323 
" clip-path="url(#pc3c75f5765)" style="fill: none; stroke: #000000; stroke-width: 0.5"/>
    <path d="M 182.237711 89.972096 
L 206.476255 89.972096 
" clip-path="url(#pc3c75f5765)" style="fill: none; stroke: #000000; stroke-width: 0.5"/>
    <path d="M 126.945058 79.292451 
L 134.984769 79.292451 
" clip-path="url(#pc3c75f5765)" style="fill: none; stroke: #000000; stroke-width: 0.5"/>
    <path d="M 116.666553 113.878137 
L 123.493041 113.878137 
" clip-path="url(#pc3c75f5765)" style="fill: none; stroke: #000000; stroke-width: 0.5"/>
    <path d="M 95.109722 121.591955 
L 99.288866 121.591955 
" clip-path="url(#pc3c75f5765)" style="fill: none; stroke: #000000; stroke-width: 0.5"/>
    <path d="M 164.38058 81.745223 
L 180.624616 81.745223 
" clip-path="url(#pc3c75f5765)" style="fill: none; stroke: #000000; stroke-width: 0.5"/>
    <path d="M 106.879367 86.482677 
L 112.083377 86.482677 
" clip-path="url(#pc3c75f5765)" style="fill: none; stroke: #000000; stroke-width: 0.5"/>
    <path d="M 138.043716 150.595429 
L 145.300658 150.595429 
" clip-path="url(#pc3c75f5765)" style="fill: none; stroke: #000000; stroke-width: 0.5"/>
    <path d="M 103.043844 146.982118 
L 105.86439 146.982118 
" clip-path="url(#pc3c75f5765)" style="fill: none; stroke: #000000; stroke-width: 0.5"/>
    <path d="M 198.755972 132.989115 
L 211.591847 132.989115 
" clip-path="url(#pc3c75f5765)" style="fill: none; stroke: #000000; stroke-width: 0.5"/>
    <path d="M 118.124584 131.178065 
L 128.020745 131.178065 
" clip-path="url(#pc3c75f5765)" style="fill: none; stroke: #000000; stroke-width: 0.5"/>
   </g>
   <g id="LineCollection_2">
    <path d="M 166.605918 119.781779 
L 166.605918 116.66356 
" clip-path="url(#pc3c75f5765)" style="fill: none; stroke: #000000; stroke-width: 0.5"/>
    <path d="M 131.093964 127.174923 
L 131.093964 124.658371 
" clip-path="url(#pc3c75f5765)" style="fill: none; stroke: #000000; stroke-width: 0.5"/>
    <path d="M 190.901185 80.664872 
L 190.901185 72.043921 
" clip-path="url(#pc3c75f5765)" style="fill: none; stroke: #000000; stroke-width: 0.5"/>
    <path d="M 143.487155 81.030238 
L 143.487155 74.112517 
" clip-path="url(#pc3c75f5765)" style="fill: none; stroke: #000000; stroke-width: 0.5"/>
    <path d="M 89.837068 139.597013 
L 89.837068 135.742727 
" clip-path="url(#pc3c75f5765)" style="fill: none; stroke: #000000; stroke-width: 0.5"/>
    <path d="M 77.157824 118.27374 
L 77.157824 117.072717 
" clip-path="url(#pc3c75f5765)" style="fill: none; stroke: #000000; stroke-width: 0.5"/>
    <path d="M 103.252714 109.662675 
L 103.252714 101.008108 
" clip-path="url(#pc3c75f5765)" style="fill: none; stroke: #000000; stroke-width: 0.5"/>
    <path d="M 84.240921 89.336656 
L 84.240921 75.878861 
" clip-path="url(#pc3c75f5765)" style="fill: none; stroke: #000000; stroke-width: 0.5"/>
    <path d="M 127.932955 126.590099 
L 127.932955 124.566575 
" clip-path="url(#pc3c75f5765)" style="fill: none; stroke: #000000; stroke-width: 0.5"/>
    <path d="M 96.399252 119.904702 
L 96.399252 116.905159 
" clip-path="url(#pc3c75f5765)" style="fill: none; stroke: #000000; stroke-width: 0.5"/>
    <path d="M 148.791378 88.290416 
L 148.791378 71.323619 
" clip-path="url(#pc3c75f5765)" style="fill: none; stroke: #000000; stroke-width: 0.5"/>
    <path d="M 107.496004 87.625171 
L 107.496004 80.460921 
" clip-path="url(#pc3c75f5765)" style="fill: none; stroke: #000000; stroke-width: 0.5"/>
    <path d="M 127.918206 116.729087 
L 127.918206 112.029431 
" clip-path="url(#pc3c75f5765)" style="fill: none; stroke: #000000; stroke-width: 0.5"/>
    <path d="M 102.989204 131.689574 
L 102.989204 122.109073 
" clip-path="url(#pc3c75f5765)" style="fill: none; stroke: #000000; stroke-width: 0.5"/>
    <path d="M 194.356983 91.609616 
L 194.356983 88.334576 
" clip-path="url(#pc3c75f5765)" style="fill: none; stroke: #000000; stroke-width: 0.5"/>
    <path d="M 130.964914 82.478014 
L 130.964914 76.106888 
" clip-path="url(#pc3c75f5765)" style="fill: none; stroke: #000000; stroke-width: 0.5"/>
    <path d="M 120.079797 115.079054 
L 120.079797 112.677219 
" clip-path="url(#pc3c75f5765)" style="fill: none; stroke: #000000; stroke-width: 0.5"/>
    <path d="M 97.199294 122.943416 
L 97.199294 120.240494 
" clip-path="url(#pc3c75f5765)" style="fill: none; stroke: #000000; stroke-width: 0.5"/>
    <path d="M 172.502598 91.639216 
L 172.502598 71.851231 
" clip-path="url(#pc3c75f5765)" style="fill: none; stroke: #000000; stroke-width: 0.5"/>
    <path d="M 109.481372 89.90611 
L 109.481372 83.059244 
" clip-path="url(#pc3c75f5765)" style="fill: none; stroke: #000000; stroke-width: 0.5"/>
    <path d="M 141.672187 152.835401 
L 141.672187 148.355456 
" clip-path="url(#pc3c75f5765)" style="fill: none; stroke: #000000; stroke-width: 0.5"/>
    <path d="M 104.454117 148.082798 
L 104.454117 145.881438 
" clip-path="url(#pc3c75f5765)" style="fill: none; stroke: #000000; stroke-width: 0.5"/>
    <path d="M 205.173909 139.720481 
L 205.173909 126.257748 
" clip-path="url(#pc3c75f5765)" style="fill: none; stroke: #000000; stroke-width: 0.5"/>
    <path d="M 123.072665 134.186907 
L 123.072665 128.169222 
" clip-path="url(#pc3c75f5765)" style="fill: none; stroke: #000000; stroke-width: 0.5"/>
   </g>
   <g id="LineCollection_3">
    <path d="M 63.607235 181.536914 
L 64.282901 181.536914 
" clip-path="url(#pc3c75f5765)" style="fill: none; stroke: #000000; stroke-width: 0.5"/>
    <path d="M 63.013052 180.034437 
L 63.256228 180.034437 
" clip-path="url(#pc3c75f5765)" style="fill: none; stroke: #000000; stroke-width: 0.5"/>
    <path d="M 62.172757 179.894499 
L 62.62446 179.894499 
" clip-path="url(#pc3c75f5765)" style="fill: none; stroke: #000000; stroke-width: 0.5"/>
    <path d="M 59.410028 175.885935 
L 59.659896 175.885935 
" clip-path="url(#pc3c75f5765)" style="fill: none; stroke: #000000; stroke-width: 0.5"/>
   </g>
   <g id="LineCollection_4">
    <path d="M 63.945068 181.663954 
L 63.945068 181.409875 
" clip-path="url(#pc3c75f5765)" style="fill: none; stroke: #000000; stroke-width: 0.5"/>
    <path d="M 63.13464 180.180064 
L 63.13464 179.888809 
" clip-path="url(#pc3c75f5765)" style="fill: none; stroke: #000000; stroke-width: 0.5"/>
    <path d="M 62.398608 179.924161 
L 62.398608 179.864837 
" clip-path="url(#pc3c75f5765)" style="fill: none; stroke: #000000; stroke-width: 0.5"/>
    <path d="M 59.534962 176.34268 
L 59.534962 175.42919 
" clip-path="url(#pc3c75f5765)" style="fill: none; stroke: #000000; stroke-width: 0.5"/>
   </g>
   <g id="line2d_11">
    <path d="M 166.605918 118.222669 
L 131.093964 125.916647 
L 190.901185 76.354396 
L 143.487155 77.571378 
L 89.837068 137.66987 
L 77.157824 117.673228 
L 103.252714 105.335391 
L 84.240921 82.607759 
L 127.932955 125.578337 
L 96.399252 118.40493 
L 148.791378 79.807017 
L 107.496004 84.043046 
L 127.918206 114.379259 
L 102.989204 126.899323 
L 194.356983 89.972096 
L 130.964914 79.292451 
L 120.079797 113.878137 
L 97.199294 121.591955 
L 172.502598 81.745223 
L 109.481372 86.482677 
L 141.672187 150.595429 
L 104.454117 146.982118 
L 205.173909 132.989115 
L 123.072665 131.178065 
" clip-path="url(#pc3c75f5765)" style="fill: none; stroke: #000000; stroke-opacity: 0; stroke-width: 1.5; stroke-linecap: square"/>
   </g>
   <g id="line2d_12">
    <path d="M 63.945068 181.536914 
L 63.13464 180.034437 
L 62.398608 179.894499 
L 59.534962 175.885935 
" clip-path="url(#pc3c75f5765)" style="fill: none; stroke: #000000; stroke-opacity: 0; stroke-width: 1.5; stroke-linecap: square"/>
   </g>
   <g id="patch_3">
    <path d="M 51.800938 185.398125 
L 51.800938 22.318125 
" style="fill: none; stroke: #000000; stroke-width: 0.8; stroke-linejoin: miter; stroke-linecap: square"/>
   </g>
   <g id="patch_4">
    <path d="M 219.200938 185.398125 
L 219.200938 22.318125 
" style="fill: none; stroke: #000000; stroke-width: 0.8; stroke-linejoin: miter; stroke-linecap: square"/>
   </g>
   <g id="patch_5">
    <path d="M 51.800938 185.398125 
L 219.200938 185.398125 
" style="fill: none; stroke: #000000; stroke-width: 0.8; stroke-linejoin: miter; stroke-linecap: square"/>
   </g>
   <g id="patch_6">
    <path d="M 51.800938 22.318125 
L 219.200938 22.318125 
" style="fill: none; stroke: #000000; stroke-width: 0.8; stroke-linejoin: miter; stroke-linecap: square"/>
   </g>
   <g id="text_12">
    <!-- No -->
    <g transform="translate(68.540938 166.046312)scale(0.1 -0.1)">
     <use xlink:href="#DejaVuSans-4e"/>
     <use xlink:href="#DejaVuSans-6f" x="74.804688"/>
    </g>
    <!-- Isl1 -->
    <g transform="translate(68.540938 177.244125)scale(0.1 -0.1)">
     <defs>
      <path id="DejaVuSans-49" d="M 628 4666 
L 1259 4666 
L 1259 0 
L 628 0 
L 628 4666 
z
" transform="scale(0.015625)"/>
     </defs>
     <use xlink:href="#DejaVuSans-49"/>
     <use xlink:href="#DejaVuSans-73" x="29.492188"/>
     <use xlink:href="#DejaVuSans-6c" x="81.591797"/>
     <use xlink:href="#DejaVuSans-31" x="109.375"/>
    </g>
   </g>
   <g id="text_13">
    <!-- r = 0.23 -->
    <g transform="translate(60.170938 38.626125)scale(0.1 -0.1)">
     <defs>
      <path id="DejaVuSans-72" d="M 2631 2963 
Q 2534 3019 2420 3045 
Q 2306 3072 2169 3072 
Q 1681 3072 1420 2755 
Q 1159 2438 1159 1844 
L 1159 0 
L 581 0 
L 581 3500 
L 1159 3500 
L 1159 2956 
Q 1341 3275 1631 3429 
Q 1922 3584 2338 3584 
Q 2397 3584 2469 3576 
Q 2541 3569 2628 3553 
L 2631 2963 
z
" transform="scale(0.015625)"/>
      <path id="DejaVuSans-3d" d="M 678 2906 
L 4684 2906 
L 4684 2381 
L 678 2381 
L 678 2906 
z
M 678 1631 
L 4684 1631 
L 4684 1100 
L 678 1100 
L 678 1631 
z
" transform="scale(0.015625)"/>
      <path id="DejaVuSans-2e" d="M 684 794 
L 1344 794 
L 1344 0 
L 684 0 
L 684 794 
z
" transform="scale(0.015625)"/>
     </defs>
     <use xlink:href="#DejaVuSans-72"/>
     <use xlink:href="#DejaVuSans-20" x="41.113281"/>
     <use xlink:href="#DejaVuSans-3d" x="72.900391"/>
     <use xlink:href="#DejaVuSans-20" x="156.689453"/>
     <use xlink:href="#DejaVuSans-30" x="188.476562"/>
     <use xlink:href="#DejaVuSans-2e" x="252.099609"/>
     <use xlink:href="#DejaVuSans-32" x="283.886719"/>
     <use xlink:href="#DejaVuSans-33" x="347.509766"/>
    </g>
   </g>
   <g id="text_14">
    <!-- Isl1 -->
    <g transform="translate(125.120938 16.318125)scale(0.12 -0.12)">
     <use xlink:href="#DejaVuSans-49"/>
     <use xlink:href="#DejaVuSans-73" x="29.492188"/>
     <use xlink:href="#DejaVuSans-6c" x="81.591797"/>
     <use xlink:href="#DejaVuSans-31" x="109.375"/>
    </g>
   </g>
  </g>
 </g>
 <defs>
  <clipPath id="pc3c75f5765">
   <rect x="51.800938" y="22.318125" width="167.4" height="163.08"/>
  </clipPath>
 </defs>
</svg>
