<?xml version="1.0" encoding="utf-8" standalone="no"?>
<!DOCTYPE svg PUBLIC "-//W3C//DTD SVG 1.1//EN"
  "http://www.w3.org/Graphics/SVG/1.1/DTD/svg11.dtd">
<svg xmlns:xlink="http://www.w3.org/1999/xlink" width="232.763438pt" height="234.152188pt" viewBox="0 0 232.763438 234.152188" xmlns="http://www.w3.org/2000/svg" version="1.1">
 <metadata>
  <rdf:RDF xmlns:dc="http://purl.org/dc/elements/1.1/" xmlns:cc="http://creativecommons.org/ns#" xmlns:rdf="http://www.w3.org/1999/02/22-rdf-syntax-ns#">
   <cc:Work>
    <dc:type rdf:resource="http://purl.org/dc/dcmitype/StillImage"/>
    <dc:date>2025-01-26T16:00:56.417647</dc:date>
    <dc:format>image/svg+xml</dc:format>
    <dc:creator>
     <cc:Agent>
      <dc:title>Matplotlib v3.5.2, https://matplotlib.org/</dc:title>
     </cc:Agent>
    </dc:creator>
   </cc:Work>
  </rdf:RDF>
 </metadata>
 <defs>
  <style type="text/css">*{stroke-linejoin: round; stroke-linecap: butt}</style>
 </defs>
 <g id="figure_1">
  <g id="patch_1">
   <path d="M 0 234.152188 
L 232.763438 234.152188 
L 232.763438 -0 
L 0 -0 
L 0 234.152188 
z
" style="fill: none"/>
  </g>
  <g id="axes_1">
   <g id="patch_2">
    <path d="M 58.163438 185.398125 
L 225.563438 185.398125 
L 225.563438 22.318125 
L 58.163438 22.318125 
z
" style="fill: #ffffff"/>
   </g>
   <g id="PathCollection_1">
    <defs>
     <path id="m493adeb8f5" d="M 0 3 
C 0.795609 3 1.55874 2.683901 2.12132 2.12132 
C 2.683901 1.55874 3 0.795609 3 0 
C 3 -0.795609 2.683901 -1.55874 2.12132 -2.12132 
C 1.55874 -2.683901 0.795609 -3 0 -3 
C -0.795609 -3 -1.55874 -2.683901 -2.12132 -2.12132 
C -2.683901 -1.55874 -3 -0.795609 -3 0 
C -3 0.795609 -2.683901 1.55874 -2.12132 2.12132 
C -1.55874 2.683901 -0.795609 3 0 3 
z
" style="stroke: #068583; stroke-opacity: 0.8"/>
    </defs>
    <g clip-path="url(#pbaf8cbef0e)">
     <use xlink:href="#m493adeb8f5" x="109.911117" y="88.454634" style="fill: #068583; fill-opacity: 0.8; stroke: #068583; stroke-opacity: 0.8"/>
     <use xlink:href="#m493adeb8f5" x="90.266631" y="90.800251" style="fill: #068583; fill-opacity: 0.8; stroke: #068583; stroke-opacity: 0.8"/>
     <use xlink:href="#m493adeb8f5" x="119.818379" y="65.493136" style="fill: #068583; fill-opacity: 0.8; stroke: #068583; stroke-opacity: 0.8"/>
     <use xlink:href="#m493adeb8f5" x="120.482948" y="40.633919" style="fill: #068583; fill-opacity: 0.8; stroke: #068583; stroke-opacity: 0.8"/>
     <use xlink:href="#m493adeb8f5" x="102.819987" y="86.686428" style="fill: #068583; fill-opacity: 0.8; stroke: #068583; stroke-opacity: 0.8"/>
     <use xlink:href="#m493adeb8f5" x="91.961313" y="112.040311" style="fill: #068583; fill-opacity: 0.8; stroke: #068583; stroke-opacity: 0.8"/>
     <use xlink:href="#m493adeb8f5" x="128.360109" y="70.756383" style="fill: #068583; fill-opacity: 0.8; stroke: #068583; stroke-opacity: 0.8"/>
     <use xlink:href="#m493adeb8f5" x="119.566947" y="42.420113" style="fill: #068583; fill-opacity: 0.8; stroke: #068583; stroke-opacity: 0.8"/>
     <use xlink:href="#m493adeb8f5" x="106.474656" y="104.836175" style="fill: #068583; fill-opacity: 0.8; stroke: #068583; stroke-opacity: 0.8"/>
     <use xlink:href="#m493adeb8f5" x="86.045307" y="96.088681" style="fill: #068583; fill-opacity: 0.8; stroke: #068583; stroke-opacity: 0.8"/>
     <use xlink:href="#m493adeb8f5" x="123.200217" y="66.131705" style="fill: #068583; fill-opacity: 0.8; stroke: #068583; stroke-opacity: 0.8"/>
     <use xlink:href="#m493adeb8f5" x="115.358812" y="39.428732" style="fill: #068583; fill-opacity: 0.8; stroke: #068583; stroke-opacity: 0.8"/>
     <use xlink:href="#m493adeb8f5" x="99.137209" y="88.015731" style="fill: #068583; fill-opacity: 0.8; stroke: #068583; stroke-opacity: 0.8"/>
     <use xlink:href="#m493adeb8f5" x="84.02083" y="114.385928" style="fill: #068583; fill-opacity: 0.8; stroke: #068583; stroke-opacity: 0.8"/>
     <use xlink:href="#m493adeb8f5" x="118.331517" y="93.471447" style="fill: #068583; fill-opacity: 0.8; stroke: #068583; stroke-opacity: 0.8"/>
     <use xlink:href="#m493adeb8f5" x="100.81704" y="80.530984" style="fill: #068583; fill-opacity: 0.8; stroke: #068583; stroke-opacity: 0.8"/>
     <use xlink:href="#m493adeb8f5" x="91.649527" y="104.086081" style="fill: #068583; fill-opacity: 0.8; stroke: #068583; stroke-opacity: 0.8"/>
     <use xlink:href="#m493adeb8f5" x="82.92545" y="122.075736" style="fill: #068583; fill-opacity: 0.8; stroke: #068583; stroke-opacity: 0.8"/>
     <use xlink:href="#m493adeb8f5" x="120.149682" y="95.74871" style="fill: #068583; fill-opacity: 0.8; stroke: #068583; stroke-opacity: 0.8"/>
     <use xlink:href="#m493adeb8f5" x="95.534593" y="89.810919" style="fill: #068583; fill-opacity: 0.8; stroke: #068583; stroke-opacity: 0.8"/>
     <use xlink:href="#m493adeb8f5" x="109.026086" y="94.428401" style="fill: #068583; fill-opacity: 0.8; stroke: #068583; stroke-opacity: 0.8"/>
     <use xlink:href="#m493adeb8f5" x="89.091257" y="106.7249" style="fill: #068583; fill-opacity: 0.8; stroke: #068583; stroke-opacity: 0.8"/>
     <use xlink:href="#m493adeb8f5" x="136.835361" y="66.356553" style="fill: #068583; fill-opacity: 0.8; stroke: #068583; stroke-opacity: 0.8"/>
     <use xlink:href="#m493adeb8f5" x="80.199916" y="86.893288" style="fill: #068583; fill-opacity: 0.8; stroke: #068583; stroke-opacity: 0.8"/>
    </g>
   </g>
   <g id="PolyCollection_1">
    <path d="M 80.199916 99.701733 
L 80.199916 120.275315 
L 80.771991 119.444993 
L 81.344067 118.614671 
L 81.916142 117.801141 
L 82.488217 117.074691 
L 83.060292 116.264449 
L 83.632367 115.438318 
L 84.204443 114.694823 
L 84.776518 113.996028 
L 85.348593 113.286039 
L 85.920668 112.258095 
L 86.492743 111.566751 
L 87.064819 110.934693 
L 87.636894 110.26153 
L 88.208969 109.579122 
L 88.781044 108.770805 
L 89.353119 107.908974 
L 89.925195 107.240829 
L 90.49727 106.515891 
L 91.069345 105.836075 
L 91.64142 105.135742 
L 92.213495 104.453614 
L 92.785571 103.853729 
L 93.357646 103.078252 
L 93.929721 102.376985 
L 94.501796 101.684954 
L 95.073871 101.043597 
L 95.645947 100.42813 
L 96.218022 99.705018 
L 96.790097 99.097423 
L 97.362172 98.562289 
L 97.934247 98.009425 
L 98.506323 97.500193 
L 99.078398 97.006777 
L 99.650473 96.504196 
L 100.222548 96.022374 
L 100.794623 95.479494 
L 101.366699 94.962244 
L 101.938774 94.46679 
L 102.510849 93.949453 
L 103.082924 93.38863 
L 103.654999 92.90704 
L 104.227074 92.362512 
L 104.79915 91.914268 
L 105.371225 91.404091 
L 105.9433 90.922464 
L 106.515375 90.461762 
L 107.08745 90.017233 
L 107.659526 89.645405 
L 108.231601 89.13593 
L 108.803676 88.694103 
L 109.375751 88.20114 
L 109.947826 87.716538 
L 110.519902 87.279545 
L 111.091977 86.837082 
L 111.664052 86.418282 
L 112.236127 86.000119 
L 112.808202 85.550309 
L 113.380278 85.093817 
L 113.952353 84.601488 
L 114.524428 84.117648 
L 115.096503 83.640877 
L 115.668578 83.197063 
L 116.240654 82.723727 
L 116.812729 82.250285 
L 117.384804 81.872937 
L 117.956879 81.543074 
L 118.528954 81.202617 
L 119.10103 80.857106 
L 119.673105 80.512774 
L 120.24518 80.082418 
L 120.817255 79.649721 
L 121.38933 79.254592 
L 121.961406 78.833928 
L 122.533481 78.380802 
L 123.105556 77.92241 
L 123.677631 77.464018 
L 124.249706 77.065503 
L 124.821782 76.735575 
L 125.393857 76.317565 
L 125.965932 75.909092 
L 126.538007 75.552281 
L 127.110082 75.130453 
L 127.682157 74.706017 
L 128.254233 74.277361 
L 128.826308 73.857301 
L 129.398383 73.433594 
L 129.970458 73.009379 
L 130.542533 72.585165 
L 131.114609 72.16095 
L 131.686684 71.736735 
L 132.258759 71.312521 
L 132.830834 70.888306 
L 133.402909 70.464091 
L 133.974985 70.049098 
L 134.54706 69.679098 
L 135.119135 69.284536 
L 135.69121 68.873139 
L 136.263285 68.561478 
L 136.835361 68.204616 
L 136.835361 34.452749 
L 136.835361 34.452749 
L 136.263285 35.260731 
L 135.69121 36.10547 
L 135.119135 37.015073 
L 134.54706 37.924676 
L 133.974985 38.834279 
L 133.402909 39.743882 
L 132.830834 40.653485 
L 132.258759 41.557532 
L 131.686684 42.35237 
L 131.114609 43.14767 
L 130.542533 43.943071 
L 129.970458 44.738471 
L 129.398383 45.533872 
L 128.826308 46.329272 
L 128.254233 47.124673 
L 127.682157 47.920073 
L 127.110082 48.715801 
L 126.538007 49.512753 
L 125.965932 50.309938 
L 125.393857 51.108845 
L 124.821782 51.991245 
L 124.249706 52.78793 
L 123.677631 53.673466 
L 123.105556 54.430789 
L 122.533481 55.175958 
L 121.961406 55.965758 
L 121.38933 56.760073 
L 120.817255 57.554389 
L 120.24518 58.348704 
L 119.673105 59.14302 
L 119.10103 59.937854 
L 118.528954 60.73976 
L 117.956879 61.566714 
L 117.384804 62.349104 
L 116.812729 63.155188 
L 116.240654 63.928977 
L 115.668578 64.704493 
L 115.096503 65.521717 
L 114.524428 66.294805 
L 113.952353 67.023486 
L 113.380278 67.862253 
L 112.808202 68.675837 
L 112.236127 69.470341 
L 111.664052 70.171549 
L 111.091977 70.929808 
L 110.519902 71.768059 
L 109.947826 72.585412 
L 109.375751 73.273047 
L 108.803676 74.149031 
L 108.231601 74.796282 
L 107.659526 75.416638 
L 107.08745 76.001149 
L 106.515375 76.578179 
L 105.9433 77.171802 
L 105.371225 77.765941 
L 104.79915 78.357166 
L 104.227074 78.984756 
L 103.654999 79.770405 
L 103.082924 80.407411 
L 102.510849 81.011233 
L 101.938774 81.614889 
L 101.366699 82.218565 
L 100.794623 82.820925 
L 100.222548 83.351677 
L 99.650473 84.013252 
L 99.078398 84.560652 
L 98.506323 85.121492 
L 97.934247 85.578749 
L 97.362172 86.255321 
L 96.790097 86.817778 
L 96.218022 87.379259 
L 95.645947 87.903901 
L 95.073871 88.45037 
L 94.501796 88.989645 
L 93.929721 89.434356 
L 93.357646 89.876094 
L 92.785571 90.420284 
L 92.213495 90.88994 
L 91.64142 91.336144 
L 91.069345 91.828413 
L 90.49727 92.290026 
L 89.925195 92.690527 
L 89.353119 93.090144 
L 88.781044 93.489761 
L 88.208969 93.902907 
L 87.636894 94.406158 
L 87.064819 94.732816 
L 86.492743 95.146508 
L 85.920668 95.515134 
L 85.348593 95.975576 
L 84.776518 96.390109 
L 84.204443 96.791575 
L 83.632367 97.219588 
L 83.060292 97.580709 
L 82.488217 97.935251 
L 81.916142 98.370977 
L 81.344067 98.835701 
L 80.771991 99.293439 
L 80.199916 99.701733 
z
" clip-path="url(#pbaf8cbef0e)" style="fill: #068583; fill-opacity: 0.15"/>
   </g>
   <g id="PathCollection_2">
    <defs>
     <path id="m65acdc7514" d="M 0 3.162278 
C 0.838646 3.162278 1.643056 2.82908 2.236068 2.236068 
C 2.82908 1.643056 3.162278 0.838646 3.162278 0 
C 3.162278 -0.838646 2.82908 -1.643056 2.236068 -2.236068 
C 1.643056 -2.82908 0.838646 -3.162278 0 -3.162278 
C -0.838646 -3.162278 -1.643056 -2.82908 -2.236068 -2.236068 
C -2.82908 -1.643056 -3.162278 -0.838646 -3.162278 0 
C -3.162278 0.838646 -2.82908 1.643056 -2.236068 2.236068 
C -1.643056 2.82908 -0.838646 3.162278 0 3.162278 
z
" style="stroke: #068583; stroke-width: 2"/>
    </defs>
    <g clip-path="url(#pbaf8cbef0e)">
     <use xlink:href="#m65acdc7514" x="67.672153" y="177.449553" style="fill: #ffffff; stroke: #068583; stroke-width: 2"/>
     <use xlink:href="#m65acdc7514" x="66.380418" y="176.219184" style="fill: #ffffff; stroke: #068583; stroke-width: 2"/>
     <use xlink:href="#m65acdc7514" x="66.682579" y="177.877664" style="fill: #ffffff; stroke: #068583; stroke-width: 2"/>
     <use xlink:href="#m65acdc7514" x="65.789601" y="177.960408" style="fill: #ffffff; stroke: #068583; stroke-width: 2"/>
    </g>
   </g>
   <g id="PathCollection_3">
    <defs>
     <path id="ma340ec2230" d="M 0 3 
C 0.795609 3 1.55874 2.683901 2.12132 2.12132 
C 2.683901 1.55874 3 0.795609 3 0 
C 3 -0.795609 2.683901 -1.55874 2.12132 -2.12132 
C 1.55874 -2.683901 0.795609 -3 0 -3 
C -0.795609 -3 -1.55874 -2.683901 -2.12132 -2.12132 
C -2.683901 -1.55874 -3 -0.795609 -3 0 
C -3 0.795609 -2.683901 1.55874 -2.12132 2.12132 
C -1.55874 2.683901 -0.795609 3 0 3 
z
" style="stroke: #808080; stroke-opacity: 0.8"/>
    </defs>
    <g clip-path="url(#pbaf8cbef0e)">
     <use xlink:href="#ma340ec2230" x="153.511271" y="88.454634" style="fill: #808080; fill-opacity: 0.8; stroke: #808080; stroke-opacity: 0.8"/>
     <use xlink:href="#ma340ec2230" x="121.986071" y="90.800251" style="fill: #808080; fill-opacity: 0.8; stroke: #808080; stroke-opacity: 0.8"/>
     <use xlink:href="#ma340ec2230" x="125.989518" y="65.493136" style="fill: #808080; fill-opacity: 0.8; stroke: #808080; stroke-opacity: 0.8"/>
     <use xlink:href="#ma340ec2230" x="203.993072" y="40.633919" style="fill: #808080; fill-opacity: 0.8; stroke: #808080; stroke-opacity: 0.8"/>
     <use xlink:href="#ma340ec2230" x="140.837459" y="86.686428" style="fill: #808080; fill-opacity: 0.8; stroke: #808080; stroke-opacity: 0.8"/>
     <use xlink:href="#ma340ec2230" x="120.856876" y="112.040311" style="fill: #808080; fill-opacity: 0.8; stroke: #808080; stroke-opacity: 0.8"/>
     <use xlink:href="#ma340ec2230" x="132.977261" y="70.756383" style="fill: #808080; fill-opacity: 0.8; stroke: #808080; stroke-opacity: 0.8"/>
     <use xlink:href="#ma340ec2230" x="197.481888" y="42.420113" style="fill: #808080; fill-opacity: 0.8; stroke: #808080; stroke-opacity: 0.8"/>
     <use xlink:href="#ma340ec2230" x="147.289228" y="104.836175" style="fill: #808080; fill-opacity: 0.8; stroke: #808080; stroke-opacity: 0.8"/>
     <use xlink:href="#ma340ec2230" x="112.816414" y="96.088681" style="fill: #808080; fill-opacity: 0.8; stroke: #808080; stroke-opacity: 0.8"/>
     <use xlink:href="#ma340ec2230" x="124.307642" y="66.131705" style="fill: #808080; fill-opacity: 0.8; stroke: #808080; stroke-opacity: 0.8"/>
     <use xlink:href="#ma340ec2230" x="193.638159" y="39.428732" style="fill: #808080; fill-opacity: 0.8; stroke: #808080; stroke-opacity: 0.8"/>
     <use xlink:href="#ma340ec2230" x="135.721637" y="88.015731" style="fill: #808080; fill-opacity: 0.8; stroke: #808080; stroke-opacity: 0.8"/>
     <use xlink:href="#ma340ec2230" x="108.289852" y="114.385928" style="fill: #808080; fill-opacity: 0.8; stroke: #808080; stroke-opacity: 0.8"/>
     <use xlink:href="#ma340ec2230" x="120.333589" y="93.471447" style="fill: #808080; fill-opacity: 0.8; stroke: #808080; stroke-opacity: 0.8"/>
     <use xlink:href="#ma340ec2230" x="161.158804" y="80.530984" style="fill: #808080; fill-opacity: 0.8; stroke: #808080; stroke-opacity: 0.8"/>
     <use xlink:href="#ma340ec2230" x="126.95501" y="104.086081" style="fill: #808080; fill-opacity: 0.8; stroke: #808080; stroke-opacity: 0.8"/>
     <use xlink:href="#ma340ec2230" x="106.004965" y="122.075736" style="fill: #808080; fill-opacity: 0.8; stroke: #808080; stroke-opacity: 0.8"/>
     <use xlink:href="#ma340ec2230" x="117.26801" y="95.74871" style="fill: #808080; fill-opacity: 0.8; stroke: #808080; stroke-opacity: 0.8"/>
     <use xlink:href="#ma340ec2230" x="149.84233" y="89.810919" style="fill: #808080; fill-opacity: 0.8; stroke: #808080; stroke-opacity: 0.8"/>
     <use xlink:href="#ma340ec2230" x="155.058641" y="94.428401" style="fill: #808080; fill-opacity: 0.8; stroke: #808080; stroke-opacity: 0.8"/>
     <use xlink:href="#ma340ec2230" x="122.977768" y="106.7249" style="fill: #808080; fill-opacity: 0.8; stroke: #808080; stroke-opacity: 0.8"/>
     <use xlink:href="#ma340ec2230" x="103.71004" y="66.356553" style="fill: #808080; fill-opacity: 0.8; stroke: #808080; stroke-opacity: 0.8"/>
     <use xlink:href="#ma340ec2230" x="102.906721" y="86.893288" style="fill: #808080; fill-opacity: 0.8; stroke: #808080; stroke-opacity: 0.8"/>
    </g>
   </g>
   <g id="PolyCollection_2">
    <path d="M 102.906721 91.009711 
L 102.906721 114.70058 
L 103.927795 113.972814 
L 104.948869 113.245048 
L 105.969944 112.517282 
L 106.991018 111.789516 
L 108.012092 111.06175 
L 109.033166 110.333984 
L 110.054241 109.606218 
L 111.075315 108.878452 
L 112.096389 108.150686 
L 113.117463 107.477602 
L 114.138538 106.737623 
L 115.159612 105.971405 
L 116.180686 105.239621 
L 117.20176 104.588997 
L 118.222835 104.031864 
L 119.243909 103.295158 
L 120.264983 102.558452 
L 121.286057 101.821746 
L 122.307132 101.113072 
L 123.328206 100.382637 
L 124.34928 99.652203 
L 125.370354 99.029025 
L 126.391429 98.384598 
L 127.412503 97.844164 
L 128.433577 97.146316 
L 129.454651 96.527385 
L 130.475726 95.880273 
L 131.4968 95.300099 
L 132.517874 94.823219 
L 133.538948 94.148301 
L 134.560023 93.55627 
L 135.581097 92.893073 
L 136.602171 92.523956 
L 137.623245 91.916214 
L 138.64432 91.426053 
L 139.665394 90.878413 
L 140.686468 90.480599 
L 141.707542 89.951223 
L 142.728617 89.264519 
L 143.749691 88.732823 
L 144.770765 88.413722 
L 145.791839 88.102264 
L 146.812914 87.629097 
L 147.833988 87.333715 
L 148.855062 87.073611 
L 149.876137 86.734581 
L 150.897211 86.451451 
L 151.918285 86.143205 
L 152.939359 85.964377 
L 153.960434 85.810339 
L 154.981508 85.713582 
L 156.002582 85.490129 
L 157.023656 85.26824 
L 158.044731 85.094206 
L 159.065805 84.918475 
L 160.086879 84.600713 
L 161.107953 84.132282 
L 162.129028 83.714479 
L 163.150102 83.573929 
L 164.171176 83.641831 
L 165.19225 83.644623 
L 166.213325 83.319429 
L 167.234399 83.160587 
L 168.255473 83.072417 
L 169.276547 82.981486 
L 170.297622 82.888644 
L 171.318696 82.663181 
L 172.33977 82.347398 
L 173.360844 82.168426 
L 174.381919 82.027876 
L 175.402993 81.887325 
L 176.424067 81.746775 
L 177.445141 81.60461 
L 178.466216 81.394609 
L 179.48729 81.069363 
L 180.508364 80.744116 
L 181.529438 80.41793 
L 182.550513 80.089695 
L 183.571587 79.761459 
L 184.592661 79.547088 
L 185.613735 79.486952 
L 186.63481 79.426816 
L 187.655884 79.36668 
L 188.676958 79.193254 
L 189.698032 78.937426 
L 190.719107 78.676907 
L 191.740181 78.416388 
L 192.761255 78.155869 
L 193.782329 77.895351 
L 194.803404 77.634832 
L 195.824478 77.33439 
L 196.845552 77.026522 
L 197.866627 76.718653 
L 198.887701 76.410785 
L 199.908775 76.102917 
L 200.929849 75.795048 
L 201.950924 75.48718 
L 202.971998 75.179311 
L 203.993072 74.871443 
L 203.993072 39.121601 
L 203.993072 39.121601 
L 202.971998 39.809671 
L 201.950924 40.477554 
L 200.929849 41.145487 
L 199.908775 41.816065 
L 198.887701 42.486643 
L 197.866627 43.157221 
L 196.845552 43.8278 
L 195.824478 44.512156 
L 194.803404 45.183189 
L 193.782329 45.899839 
L 192.761255 46.626173 
L 191.740181 47.304473 
L 190.719107 48.016662 
L 189.698032 48.685567 
L 188.676958 49.367116 
L 187.655884 50.100061 
L 186.63481 50.833007 
L 185.613735 51.565953 
L 184.592661 52.298205 
L 183.571587 53.028369 
L 182.550513 53.71416 
L 181.529438 54.449119 
L 180.508364 55.14482 
L 179.48729 55.842678 
L 178.466216 56.53926 
L 177.445141 57.224899 
L 176.424067 57.853831 
L 175.402993 58.448244 
L 174.381919 59.031471 
L 173.360844 59.618232 
L 172.33977 60.193106 
L 171.318696 60.813341 
L 170.297622 61.468591 
L 169.276547 62.058424 
L 168.255473 62.69999 
L 167.234399 63.286184 
L 166.213325 63.821307 
L 165.19225 64.43764 
L 164.171176 65.079049 
L 163.150102 65.620215 
L 162.129028 66.155421 
L 161.107953 66.690627 
L 160.086879 67.235297 
L 159.065805 67.790215 
L 158.044731 68.40013 
L 157.023656 69.026778 
L 156.002582 69.512705 
L 154.981508 70.06783 
L 153.960434 70.648396 
L 152.939359 71.206056 
L 151.918285 71.77462 
L 150.897211 72.328644 
L 149.876137 72.913452 
L 148.855062 73.383174 
L 147.833988 73.903067 
L 146.812914 74.380166 
L 145.791839 74.955794 
L 144.770765 75.476563 
L 143.749691 75.992558 
L 142.728617 76.459275 
L 141.707542 76.884996 
L 140.686468 77.318678 
L 139.665394 77.755715 
L 138.64432 78.192001 
L 137.623245 78.693411 
L 136.602171 79.219496 
L 135.581097 79.702623 
L 134.560023 80.081311 
L 133.538948 80.541018 
L 132.517874 80.897515 
L 131.4968 81.275662 
L 130.475726 81.721568 
L 129.454651 82.221887 
L 128.433577 82.587765 
L 127.412503 82.917863 
L 126.391429 83.353942 
L 125.370354 83.831641 
L 124.34928 84.312243 
L 123.328206 84.811713 
L 122.307132 85.311183 
L 121.286057 85.740846 
L 120.264983 86.159106 
L 119.243909 86.318152 
L 118.222835 86.631774 
L 117.20176 86.749241 
L 116.180686 87.079896 
L 115.159612 87.425411 
L 114.138538 87.608233 
L 113.117463 87.846414 
L 112.096389 88.111741 
L 111.075315 88.413065 
L 110.054241 88.74547 
L 109.033166 89.118892 
L 108.012092 89.471938 
L 106.991018 89.827782 
L 105.969944 90.182435 
L 104.948869 90.336318 
L 103.927795 90.640708 
L 102.906721 91.009711 
z
" clip-path="url(#pbaf8cbef0e)" style="fill: #808080; fill-opacity: 0.15"/>
   </g>
   <g id="PathCollection_4">
    <defs>
     <path id="m893c0303b4" d="M 0 3.162278 
C 0.838646 3.162278 1.643056 2.82908 2.236068 2.236068 
C 2.82908 1.643056 3.162278 0.838646 3.162278 0 
C 3.162278 -0.838646 2.82908 -1.643056 2.236068 -2.236068 
C 1.643056 -2.82908 0.838646 -3.162278 0 -3.162278 
C -0.838646 -3.162278 -1.643056 -2.82908 -2.236068 -2.236068 
C -2.82908 -1.643056 -3.162278 -0.838646 -3.162278 0 
C -3.162278 0.838646 -2.82908 1.643056 -2.236068 2.236068 
C -1.643056 2.82908 -0.838646 3.162278 0 3.162278 
z
" style="stroke: #808080; stroke-width: 2"/>
    </defs>
    <g clip-path="url(#pbaf8cbef0e)">
     <use xlink:href="#m893c0303b4" x="81.635554" y="177.449553" style="fill: #ffffff; stroke: #808080; stroke-width: 2"/>
     <use xlink:href="#m893c0303b4" x="73.380146" y="176.219184" style="fill: #ffffff; stroke: #808080; stroke-width: 2"/>
     <use xlink:href="#m893c0303b4" x="76.657055" y="177.877664" style="fill: #ffffff; stroke: #808080; stroke-width: 2"/>
     <use xlink:href="#m893c0303b4" x="70.561306" y="177.960408" style="fill: #ffffff; stroke: #808080; stroke-width: 2"/>
    </g>
   </g>
   <g id="matplotlib.axis_1">
    <g id="xtick_1">
     <g id="line2d_1">
      <defs>
       <path id="m8c56760df1" d="M 0 0 
L 0 3.5 
" style="stroke: #000000; stroke-width: 0.8"/>
      </defs>
      <g>
       <use xlink:href="#m8c56760df1" x="62.479566" y="185.398125" style="stroke: #000000; stroke-width: 0.8"/>
      </g>
     </g>
     <g id="text_1">
      <!-- 0 -->
      <g transform="translate(59.298316 199.996563)scale(0.1 -0.1)">
       <defs>
        <path id="DejaVuSans-30" d="M 2034 4250 
Q 1547 4250 1301 3770 
Q 1056 3291 1056 2328 
Q 1056 1369 1301 889 
Q 1547 409 2034 409 
Q 2525 409 2770 889 
Q 3016 1369 3016 2328 
Q 3016 3291 2770 3770 
Q 2525 4250 2034 4250 
z
M 2034 4750 
Q 2819 4750 3233 4129 
Q 3647 3509 3647 2328 
Q 3647 1150 3233 529 
Q 2819 -91 2034 -91 
Q 1250 -91 836 529 
Q 422 1150 422 2328 
Q 422 3509 836 4129 
Q 1250 4750 2034 4750 
z
" transform="scale(0.015625)"/>
       </defs>
       <use xlink:href="#DejaVuSans-30"/>
      </g>
     </g>
    </g>
    <g id="xtick_2">
     <g id="line2d_2">
      <g>
       <use xlink:href="#m8c56760df1" x="106.368035" y="185.398125" style="stroke: #000000; stroke-width: 0.8"/>
      </g>
     </g>
     <g id="text_2">
      <!-- 2000 -->
      <g transform="translate(93.643035 199.996563)scale(0.1 -0.1)">
       <defs>
        <path id="DejaVuSans-32" d="M 1228 531 
L 3431 531 
L 3431 0 
L 469 0 
L 469 531 
Q 828 903 1448 1529 
Q 2069 2156 2228 2338 
Q 2531 2678 2651 2914 
Q 2772 3150 2772 3378 
Q 2772 3750 2511 3984 
Q 2250 4219 1831 4219 
Q 1534 4219 1204 4116 
Q 875 4013 500 3803 
L 500 4441 
Q 881 4594 1212 4672 
Q 1544 4750 1819 4750 
Q 2544 4750 2975 4387 
Q 3406 4025 3406 3419 
Q 3406 3131 3298 2873 
Q 3191 2616 2906 2266 
Q 2828 2175 2409 1742 
Q 1991 1309 1228 531 
z
" transform="scale(0.015625)"/>
       </defs>
       <use xlink:href="#DejaVuSans-32"/>
       <use xlink:href="#DejaVuSans-30" x="63.623047"/>
       <use xlink:href="#DejaVuSans-30" x="127.246094"/>
       <use xlink:href="#DejaVuSans-30" x="190.869141"/>
      </g>
     </g>
    </g>
    <g id="xtick_3">
     <g id="line2d_3">
      <g>
       <use xlink:href="#m8c56760df1" x="150.256504" y="185.398125" style="stroke: #000000; stroke-width: 0.8"/>
      </g>
     </g>
     <g id="text_3">
      <!-- 4000 -->
      <g transform="translate(137.531504 199.996563)scale(0.1 -0.1)">
       <defs>
        <path id="DejaVuSans-34" d="M 2419 4116 
L 825 1625 
L 2419 1625 
L 2419 4116 
z
M 2253 4666 
L 3047 4666 
L 3047 1625 
L 3713 1625 
L 3713 1100 
L 3047 1100 
L 3047 0 
L 2419 0 
L 2419 1100 
L 313 1100 
L 313 1709 
L 2253 4666 
z
" transform="scale(0.015625)"/>
       </defs>
       <use xlink:href="#DejaVuSans-34"/>
       <use xlink:href="#DejaVuSans-30" x="63.623047"/>
       <use xlink:href="#DejaVuSans-30" x="127.246094"/>
       <use xlink:href="#DejaVuSans-30" x="190.869141"/>
      </g>
     </g>
    </g>
    <g id="xtick_4">
     <g id="line2d_4">
      <g>
       <use xlink:href="#m8c56760df1" x="194.144972" y="185.398125" style="stroke: #000000; stroke-width: 0.8"/>
      </g>
     </g>
     <g id="text_4">
      <!-- 6000 -->
      <g transform="translate(181.419972 199.996563)scale(0.1 -0.1)">
       <defs>
        <path id="DejaVuSans-36" d="M 2113 2584 
Q 1688 2584 1439 2293 
Q 1191 2003 1191 1497 
Q 1191 994 1439 701 
Q 1688 409 2113 409 
Q 2538 409 2786 701 
Q 3034 994 3034 1497 
Q 3034 2003 2786 2293 
Q 2538 2584 2113 2584 
z
M 3366 4563 
L 3366 3988 
Q 3128 4100 2886 4159 
Q 2644 4219 2406 4219 
Q 1781 4219 1451 3797 
Q 1122 3375 1075 2522 
Q 1259 2794 1537 2939 
Q 1816 3084 2150 3084 
Q 2853 3084 3261 2657 
Q 3669 2231 3669 1497 
Q 3669 778 3244 343 
Q 2819 -91 2113 -91 
Q 1303 -91 875 529 
Q 447 1150 447 2328 
Q 447 3434 972 4092 
Q 1497 4750 2381 4750 
Q 2619 4750 2861 4703 
Q 3103 4656 3366 4563 
z
" transform="scale(0.015625)"/>
       </defs>
       <use xlink:href="#DejaVuSans-36"/>
       <use xlink:href="#DejaVuSans-30" x="63.623047"/>
       <use xlink:href="#DejaVuSans-30" x="127.246094"/>
       <use xlink:href="#DejaVuSans-30" x="190.869141"/>
      </g>
     </g>
    </g>
    <g id="text_5">
     <!-- mRuby2, 4 dpi -->
     <g transform="translate(105.574375 213.674688)scale(0.1 -0.1)">
      <defs>
       <path id="DejaVuSans-6d" d="M 3328 2828 
Q 3544 3216 3844 3400 
Q 4144 3584 4550 3584 
Q 5097 3584 5394 3201 
Q 5691 2819 5691 2113 
L 5691 0 
L 5113 0 
L 5113 2094 
Q 5113 2597 4934 2840 
Q 4756 3084 4391 3084 
Q 3944 3084 3684 2787 
Q 3425 2491 3425 1978 
L 3425 0 
L 2847 0 
L 2847 2094 
Q 2847 2600 2669 2842 
Q 2491 3084 2119 3084 
Q 1678 3084 1418 2786 
Q 1159 2488 1159 1978 
L 1159 0 
L 581 0 
L 581 3500 
L 1159 3500 
L 1159 2956 
Q 1356 3278 1631 3431 
Q 1906 3584 2284 3584 
Q 2666 3584 2933 3390 
Q 3200 3197 3328 2828 
z
" transform="scale(0.015625)"/>
       <path id="DejaVuSans-52" d="M 2841 2188 
Q 3044 2119 3236 1894 
Q 3428 1669 3622 1275 
L 4263 0 
L 3584 0 
L 2988 1197 
Q 2756 1666 2539 1819 
Q 2322 1972 1947 1972 
L 1259 1972 
L 1259 0 
L 628 0 
L 628 4666 
L 2053 4666 
Q 2853 4666 3247 4331 
Q 3641 3997 3641 3322 
Q 3641 2881 3436 2590 
Q 3231 2300 2841 2188 
z
M 1259 4147 
L 1259 2491 
L 2053 2491 
Q 2509 2491 2742 2702 
Q 2975 2913 2975 3322 
Q 2975 3731 2742 3939 
Q 2509 4147 2053 4147 
L 1259 4147 
z
" transform="scale(0.015625)"/>
       <path id="DejaVuSans-75" d="M 544 1381 
L 544 3500 
L 1119 3500 
L 1119 1403 
Q 1119 906 1312 657 
Q 1506 409 1894 409 
Q 2359 409 2629 706 
Q 2900 1003 2900 1516 
L 2900 3500 
L 3475 3500 
L 3475 0 
L 2900 0 
L 2900 538 
Q 2691 219 2414 64 
Q 2138 -91 1772 -91 
Q 1169 -91 856 284 
Q 544 659 544 1381 
z
M 1991 3584 
L 1991 3584 
z
" transform="scale(0.015625)"/>
       <path id="DejaVuSans-62" d="M 3116 1747 
Q 3116 2381 2855 2742 
Q 2594 3103 2138 3103 
Q 1681 3103 1420 2742 
Q 1159 2381 1159 1747 
Q 1159 1113 1420 752 
Q 1681 391 2138 391 
Q 2594 391 2855 752 
Q 3116 1113 3116 1747 
z
M 1159 2969 
Q 1341 3281 1617 3432 
Q 1894 3584 2278 3584 
Q 2916 3584 3314 3078 
Q 3713 2572 3713 1747 
Q 3713 922 3314 415 
Q 2916 -91 2278 -91 
Q 1894 -91 1617 61 
Q 1341 213 1159 525 
L 1159 0 
L 581 0 
L 581 4863 
L 1159 4863 
L 1159 2969 
z
" transform="scale(0.015625)"/>
       <path id="DejaVuSans-79" d="M 2059 -325 
Q 1816 -950 1584 -1140 
Q 1353 -1331 966 -1331 
L 506 -1331 
L 506 -850 
L 844 -850 
Q 1081 -850 1212 -737 
Q 1344 -625 1503 -206 
L 1606 56 
L 191 3500 
L 800 3500 
L 1894 763 
L 2988 3500 
L 3597 3500 
L 2059 -325 
z
" transform="scale(0.015625)"/>
       <path id="DejaVuSans-2c" d="M 750 794 
L 1409 794 
L 1409 256 
L 897 -744 
L 494 -744 
L 750 256 
L 750 794 
z
" transform="scale(0.015625)"/>
       <path id="DejaVuSans-20" transform="scale(0.015625)"/>
       <path id="DejaVuSans-64" d="M 2906 2969 
L 2906 4863 
L 3481 4863 
L 3481 0 
L 2906 0 
L 2906 525 
Q 2725 213 2448 61 
Q 2172 -91 1784 -91 
Q 1150 -91 751 415 
Q 353 922 353 1747 
Q 353 2572 751 3078 
Q 1150 3584 1784 3584 
Q 2172 3584 2448 3432 
Q 2725 3281 2906 2969 
z
M 947 1747 
Q 947 1113 1208 752 
Q 1469 391 1925 391 
Q 2381 391 2643 752 
Q 2906 1113 2906 1747 
Q 2906 2381 2643 2742 
Q 2381 3103 1925 3103 
Q 1469 3103 1208 2742 
Q 947 2381 947 1747 
z
" transform="scale(0.015625)"/>
       <path id="DejaVuSans-70" d="M 1159 525 
L 1159 -1331 
L 581 -1331 
L 581 3500 
L 1159 3500 
L 1159 2969 
Q 1341 3281 1617 3432 
Q 1894 3584 2278 3584 
Q 2916 3584 3314 3078 
Q 3713 2572 3713 1747 
Q 3713 922 3314 415 
Q 2916 -91 2278 -91 
Q 1894 -91 1617 61 
Q 1341 213 1159 525 
z
M 3116 1747 
Q 3116 2381 2855 2742 
Q 2594 3103 2138 3103 
Q 1681 3103 1420 2742 
Q 1159 2381 1159 1747 
Q 1159 1113 1420 752 
Q 1681 391 2138 391 
Q 2594 391 2855 752 
Q 3116 1113 3116 1747 
z
" transform="scale(0.015625)"/>
       <path id="DejaVuSans-69" d="M 603 3500 
L 1178 3500 
L 1178 0 
L 603 0 
L 603 3500 
z
M 603 4863 
L 1178 4863 
L 1178 4134 
L 603 4134 
L 603 4863 
z
" transform="scale(0.015625)"/>
      </defs>
      <use xlink:href="#DejaVuSans-6d"/>
      <use xlink:href="#DejaVuSans-52" x="97.412109"/>
      <use xlink:href="#DejaVuSans-75" x="162.394531"/>
      <use xlink:href="#DejaVuSans-62" x="225.773438"/>
      <use xlink:href="#DejaVuSans-79" x="289.25"/>
      <use xlink:href="#DejaVuSans-32" x="348.429688"/>
      <use xlink:href="#DejaVuSans-2c" x="412.052734"/>
      <use xlink:href="#DejaVuSans-20" x="443.839844"/>
      <use xlink:href="#DejaVuSans-34" x="475.626953"/>
      <use xlink:href="#DejaVuSans-20" x="539.25"/>
      <use xlink:href="#DejaVuSans-64" x="571.037109"/>
      <use xlink:href="#DejaVuSans-70" x="634.513672"/>
      <use xlink:href="#DejaVuSans-69" x="697.990234"/>
     </g>
     <!-- (gmean) -->
     <g transform="translate(120.607969 224.8725)scale(0.1 -0.1)">
      <defs>
       <path id="DejaVuSans-28" d="M 1984 4856 
Q 1566 4138 1362 3434 
Q 1159 2731 1159 2009 
Q 1159 1288 1364 580 
Q 1569 -128 1984 -844 
L 1484 -844 
Q 1016 -109 783 600 
Q 550 1309 550 2009 
Q 550 2706 781 3412 
Q 1013 4119 1484 4856 
L 1984 4856 
z
" transform="scale(0.015625)"/>
       <path id="DejaVuSans-67" d="M 2906 1791 
Q 2906 2416 2648 2759 
Q 2391 3103 1925 3103 
Q 1463 3103 1205 2759 
Q 947 2416 947 1791 
Q 947 1169 1205 825 
Q 1463 481 1925 481 
Q 2391 481 2648 825 
Q 2906 1169 2906 1791 
z
M 3481 434 
Q 3481 -459 3084 -895 
Q 2688 -1331 1869 -1331 
Q 1566 -1331 1297 -1286 
Q 1028 -1241 775 -1147 
L 775 -588 
Q 1028 -725 1275 -790 
Q 1522 -856 1778 -856 
Q 2344 -856 2625 -561 
Q 2906 -266 2906 331 
L 2906 616 
Q 2728 306 2450 153 
Q 2172 0 1784 0 
Q 1141 0 747 490 
Q 353 981 353 1791 
Q 353 2603 747 3093 
Q 1141 3584 1784 3584 
Q 2172 3584 2450 3431 
Q 2728 3278 2906 2969 
L 2906 3500 
L 3481 3500 
L 3481 434 
z
" transform="scale(0.015625)"/>
       <path id="DejaVuSans-65" d="M 3597 1894 
L 3597 1613 
L 953 1613 
Q 991 1019 1311 708 
Q 1631 397 2203 397 
Q 2534 397 2845 478 
Q 3156 559 3463 722 
L 3463 178 
Q 3153 47 2828 -22 
Q 2503 -91 2169 -91 
Q 1331 -91 842 396 
Q 353 884 353 1716 
Q 353 2575 817 3079 
Q 1281 3584 2069 3584 
Q 2775 3584 3186 3129 
Q 3597 2675 3597 1894 
z
M 3022 2063 
Q 3016 2534 2758 2815 
Q 2500 3097 2075 3097 
Q 1594 3097 1305 2825 
Q 1016 2553 972 2059 
L 3022 2063 
z
" transform="scale(0.015625)"/>
       <path id="DejaVuSans-61" d="M 2194 1759 
Q 1497 1759 1228 1600 
Q 959 1441 959 1056 
Q 959 750 1161 570 
Q 1363 391 1709 391 
Q 2188 391 2477 730 
Q 2766 1069 2766 1631 
L 2766 1759 
L 2194 1759 
z
M 3341 1997 
L 3341 0 
L 2766 0 
L 2766 531 
Q 2569 213 2275 61 
Q 1981 -91 1556 -91 
Q 1019 -91 701 211 
Q 384 513 384 1019 
Q 384 1609 779 1909 
Q 1175 2209 1959 2209 
L 2766 2209 
L 2766 2266 
Q 2766 2663 2505 2880 
Q 2244 3097 1772 3097 
Q 1472 3097 1187 3025 
Q 903 2953 641 2809 
L 641 3341 
Q 956 3463 1253 3523 
Q 1550 3584 1831 3584 
Q 2591 3584 2966 3190 
Q 3341 2797 3341 1997 
z
" transform="scale(0.015625)"/>
       <path id="DejaVuSans-6e" d="M 3513 2113 
L 3513 0 
L 2938 0 
L 2938 2094 
Q 2938 2591 2744 2837 
Q 2550 3084 2163 3084 
Q 1697 3084 1428 2787 
Q 1159 2491 1159 1978 
L 1159 0 
L 581 0 
L 581 3500 
L 1159 3500 
L 1159 2956 
Q 1366 3272 1645 3428 
Q 1925 3584 2291 3584 
Q 2894 3584 3203 3211 
Q 3513 2838 3513 2113 
z
" transform="scale(0.015625)"/>
       <path id="DejaVuSans-29" d="M 513 4856 
L 1013 4856 
Q 1481 4119 1714 3412 
Q 1947 2706 1947 2009 
Q 1947 1309 1714 600 
Q 1481 -109 1013 -844 
L 513 -844 
Q 928 -128 1133 580 
Q 1338 1288 1338 2009 
Q 1338 2731 1133 3434 
Q 928 4138 513 4856 
z
" transform="scale(0.015625)"/>
      </defs>
      <use xlink:href="#DejaVuSans-28"/>
      <use xlink:href="#DejaVuSans-67" x="39.013672"/>
      <use xlink:href="#DejaVuSans-6d" x="102.490234"/>
      <use xlink:href="#DejaVuSans-65" x="199.902344"/>
      <use xlink:href="#DejaVuSans-61" x="261.425781"/>
      <use xlink:href="#DejaVuSans-6e" x="322.705078"/>
      <use xlink:href="#DejaVuSans-29" x="386.083984"/>
     </g>
    </g>
   </g>
   <g id="matplotlib.axis_2">
    <g id="ytick_1">
     <g id="line2d_5">
      <defs>
       <path id="mb861e539e9" d="M 0 0 
L -3.5 0 
" style="stroke: #000000; stroke-width: 0.8"/>
      </defs>
      <g>
       <use xlink:href="#mb861e539e9" x="58.163438" y="178.012573" style="stroke: #000000; stroke-width: 0.8"/>
      </g>
     </g>
     <g id="text_6">
      <!-- 0 -->
      <g transform="translate(44.800938 181.811792)scale(0.1 -0.1)">
       <use xlink:href="#DejaVuSans-30"/>
      </g>
     </g>
    </g>
    <g id="ytick_2">
     <g id="line2d_6">
      <g>
       <use xlink:href="#mb861e539e9" x="58.163438" y="151.030789" style="stroke: #000000; stroke-width: 0.8"/>
      </g>
     </g>
     <g id="text_7">
      <!-- 50 -->
      <g transform="translate(38.438437 154.830007)scale(0.1 -0.1)">
       <defs>
        <path id="DejaVuSans-35" d="M 691 4666 
L 3169 4666 
L 3169 4134 
L 1269 4134 
L 1269 2991 
Q 1406 3038 1543 3061 
Q 1681 3084 1819 3084 
Q 2600 3084 3056 2656 
Q 3513 2228 3513 1497 
Q 3513 744 3044 326 
Q 2575 -91 1722 -91 
Q 1428 -91 1123 -41 
Q 819 9 494 109 
L 494 744 
Q 775 591 1075 516 
Q 1375 441 1709 441 
Q 2250 441 2565 725 
Q 2881 1009 2881 1497 
Q 2881 1984 2565 2268 
Q 2250 2553 1709 2553 
Q 1456 2553 1204 2497 
Q 953 2441 691 2322 
L 691 4666 
z
" transform="scale(0.015625)"/>
       </defs>
       <use xlink:href="#DejaVuSans-35"/>
       <use xlink:href="#DejaVuSans-30" x="63.623047"/>
      </g>
     </g>
    </g>
    <g id="ytick_3">
     <g id="line2d_7">
      <g>
       <use xlink:href="#mb861e539e9" x="58.163438" y="124.049004" style="stroke: #000000; stroke-width: 0.8"/>
      </g>
     </g>
     <g id="text_8">
      <!-- 100 -->
      <g transform="translate(32.075937 127.848223)scale(0.1 -0.1)">
       <defs>
        <path id="DejaVuSans-31" d="M 794 531 
L 1825 531 
L 1825 4091 
L 703 3866 
L 703 4441 
L 1819 4666 
L 2450 4666 
L 2450 531 
L 3481 531 
L 3481 0 
L 794 0 
L 794 531 
z
" transform="scale(0.015625)"/>
       </defs>
       <use xlink:href="#DejaVuSans-31"/>
       <use xlink:href="#DejaVuSans-30" x="63.623047"/>
       <use xlink:href="#DejaVuSans-30" x="127.246094"/>
      </g>
     </g>
    </g>
    <g id="ytick_4">
     <g id="line2d_8">
      <g>
       <use xlink:href="#mb861e539e9" x="58.163438" y="97.06722" style="stroke: #000000; stroke-width: 0.8"/>
      </g>
     </g>
     <g id="text_9">
      <!-- 150 -->
      <g transform="translate(32.075937 100.866439)scale(0.1 -0.1)">
       <use xlink:href="#DejaVuSans-31"/>
       <use xlink:href="#DejaVuSans-35" x="63.623047"/>
       <use xlink:href="#DejaVuSans-30" x="127.246094"/>
      </g>
     </g>
    </g>
    <g id="ytick_5">
     <g id="line2d_9">
      <g>
       <use xlink:href="#mb861e539e9" x="58.163438" y="70.085436" style="stroke: #000000; stroke-width: 0.8"/>
      </g>
     </g>
     <g id="text_10">
      <!-- 200 -->
      <g transform="translate(32.075937 73.884654)scale(0.1 -0.1)">
       <use xlink:href="#DejaVuSans-32"/>
       <use xlink:href="#DejaVuSans-30" x="63.623047"/>
       <use xlink:href="#DejaVuSans-30" x="127.246094"/>
      </g>
     </g>
    </g>
    <g id="ytick_6">
     <g id="line2d_10">
      <g>
       <use xlink:href="#mb861e539e9" x="58.163438" y="43.103651" style="stroke: #000000; stroke-width: 0.8"/>
      </g>
     </g>
     <g id="text_11">
      <!-- 250 -->
      <g transform="translate(32.075937 46.90287)scale(0.1 -0.1)">
       <use xlink:href="#DejaVuSans-32"/>
       <use xlink:href="#DejaVuSans-35" x="63.623047"/>
       <use xlink:href="#DejaVuSans-30" x="127.246094"/>
      </g>
     </g>
    </g>
    <g id="text_12">
     <!-- (%) iMN yield -->
     <g transform="translate(14.798437 137.120625)rotate(-90)scale(0.1 -0.1)">
      <defs>
       <path id="DejaVuSans-25" d="M 4653 2053 
Q 4381 2053 4226 1822 
Q 4072 1591 4072 1178 
Q 4072 772 4226 539 
Q 4381 306 4653 306 
Q 4919 306 5073 539 
Q 5228 772 5228 1178 
Q 5228 1588 5073 1820 
Q 4919 2053 4653 2053 
z
M 4653 2450 
Q 5147 2450 5437 2106 
Q 5728 1763 5728 1178 
Q 5728 594 5436 251 
Q 5144 -91 4653 -91 
Q 4153 -91 3862 251 
Q 3572 594 3572 1178 
Q 3572 1766 3864 2108 
Q 4156 2450 4653 2450 
z
M 1428 4353 
Q 1159 4353 1004 4120 
Q 850 3888 850 3481 
Q 850 3069 1003 2837 
Q 1156 2606 1428 2606 
Q 1700 2606 1854 2837 
Q 2009 3069 2009 3481 
Q 2009 3884 1853 4118 
Q 1697 4353 1428 4353 
z
M 4250 4750 
L 4750 4750 
L 1831 -91 
L 1331 -91 
L 4250 4750 
z
M 1428 4750 
Q 1922 4750 2215 4408 
Q 2509 4066 2509 3481 
Q 2509 2891 2217 2550 
Q 1925 2209 1428 2209 
Q 931 2209 642 2551 
Q 353 2894 353 3481 
Q 353 4063 643 4406 
Q 934 4750 1428 4750 
z
" transform="scale(0.015625)"/>
       <path id="DejaVuSans-4d" d="M 628 4666 
L 1569 4666 
L 2759 1491 
L 3956 4666 
L 4897 4666 
L 4897 0 
L 4281 0 
L 4281 4097 
L 3078 897 
L 2444 897 
L 1241 4097 
L 1241 0 
L 628 0 
L 628 4666 
z
" transform="scale(0.015625)"/>
       <path id="DejaVuSans-4e" d="M 628 4666 
L 1478 4666 
L 3547 763 
L 3547 4666 
L 4159 4666 
L 4159 0 
L 3309 0 
L 1241 3903 
L 1241 0 
L 628 0 
L 628 4666 
z
" transform="scale(0.015625)"/>
       <path id="DejaVuSans-6c" d="M 603 4863 
L 1178 4863 
L 1178 0 
L 603 0 
L 603 4863 
z
" transform="scale(0.015625)"/>
      </defs>
      <use xlink:href="#DejaVuSans-28"/>
      <use xlink:href="#DejaVuSans-25" x="39.013672"/>
      <use xlink:href="#DejaVuSans-29" x="134.033203"/>
      <use xlink:href="#DejaVuSans-20" x="173.046875"/>
      <use xlink:href="#DejaVuSans-69" x="204.833984"/>
      <use xlink:href="#DejaVuSans-4d" x="232.617188"/>
      <use xlink:href="#DejaVuSans-4e" x="318.896484"/>
      <use xlink:href="#DejaVuSans-20" x="393.701172"/>
      <use xlink:href="#DejaVuSans-79" x="425.488281"/>
      <use xlink:href="#DejaVuSans-69" x="484.667969"/>
      <use xlink:href="#DejaVuSans-65" x="512.451172"/>
      <use xlink:href="#DejaVuSans-6c" x="573.974609"/>
      <use xlink:href="#DejaVuSans-64" x="601.757812"/>
     </g>
     <!-- per MEF plated -->
     <g transform="translate(25.99625 141.53)rotate(-90)scale(0.1 -0.1)">
      <defs>
       <path id="DejaVuSans-72" d="M 2631 2963 
Q 2534 3019 2420 3045 
Q 2306 3072 2169 3072 
Q 1681 3072 1420 2755 
Q 1159 2438 1159 1844 
L 1159 0 
L 581 0 
L 581 3500 
L 1159 3500 
L 1159 2956 
Q 1341 3275 1631 3429 
Q 1922 3584 2338 3584 
Q 2397 3584 2469 3576 
Q 2541 3569 2628 3553 
L 2631 2963 
z
" transform="scale(0.015625)"/>
       <path id="DejaVuSans-45" d="M 628 4666 
L 3578 4666 
L 3578 4134 
L 1259 4134 
L 1259 2753 
L 3481 2753 
L 3481 2222 
L 1259 2222 
L 1259 531 
L 3634 531 
L 3634 0 
L 628 0 
L 628 4666 
z
" transform="scale(0.015625)"/>
       <path id="DejaVuSans-46" d="M 628 4666 
L 3309 4666 
L 3309 4134 
L 1259 4134 
L 1259 2759 
L 3109 2759 
L 3109 2228 
L 1259 2228 
L 1259 0 
L 628 0 
L 628 4666 
z
" transform="scale(0.015625)"/>
       <path id="DejaVuSans-74" d="M 1172 4494 
L 1172 3500 
L 2356 3500 
L 2356 3053 
L 1172 3053 
L 1172 1153 
Q 1172 725 1289 603 
Q 1406 481 1766 481 
L 2356 481 
L 2356 0 
L 1766 0 
Q 1100 0 847 248 
Q 594 497 594 1153 
L 594 3053 
L 172 3053 
L 172 3500 
L 594 3500 
L 594 4494 
L 1172 4494 
z
" transform="scale(0.015625)"/>
      </defs>
      <use xlink:href="#DejaVuSans-70"/>
      <use xlink:href="#DejaVuSans-65" x="63.476562"/>
      <use xlink:href="#DejaVuSans-72" x="125"/>
      <use xlink:href="#DejaVuSans-20" x="166.113281"/>
      <use xlink:href="#DejaVuSans-4d" x="197.900391"/>
      <use xlink:href="#DejaVuSans-45" x="284.179688"/>
      <use xlink:href="#DejaVuSans-46" x="347.363281"/>
      <use xlink:href="#DejaVuSans-20" x="404.882812"/>
      <use xlink:href="#DejaVuSans-70" x="436.669922"/>
      <use xlink:href="#DejaVuSans-6c" x="500.146484"/>
      <use xlink:href="#DejaVuSans-61" x="527.929688"/>
      <use xlink:href="#DejaVuSans-74" x="589.208984"/>
      <use xlink:href="#DejaVuSans-65" x="628.417969"/>
      <use xlink:href="#DejaVuSans-64" x="689.941406"/>
     </g>
    </g>
   </g>
   <g id="line2d_11">
    <path d="M 80.199916 109.19763 
L 80.771991 108.647341 
L 81.344067 108.097052 
L 81.916142 107.546764 
L 82.488217 106.996475 
L 83.060292 106.446187 
L 83.632367 105.895898 
L 84.204443 105.345609 
L 84.776518 104.795321 
L 85.348593 104.245032 
L 85.920668 103.694744 
L 86.492743 103.144455 
L 87.064819 102.594166 
L 87.636894 102.043878 
L 88.208969 101.493589 
L 88.781044 100.943301 
L 89.353119 100.393012 
L 89.925195 99.842723 
L 90.49727 99.292435 
L 91.069345 98.742146 
L 91.64142 98.191858 
L 92.213495 97.641569 
L 92.785571 97.09128 
L 93.357646 96.540992 
L 93.929721 95.990703 
L 94.501796 95.440415 
L 95.073871 94.890126 
L 95.645947 94.339837 
L 96.218022 93.789549 
L 96.790097 93.23926 
L 97.362172 92.688972 
L 97.934247 92.138683 
L 98.506323 91.588394 
L 99.078398 91.038106 
L 99.650473 90.487817 
L 100.222548 89.937529 
L 100.794623 89.38724 
L 101.366699 88.836951 
L 101.938774 88.286663 
L 102.510849 87.736374 
L 103.082924 87.186086 
L 103.654999 86.635797 
L 104.227074 86.085508 
L 104.79915 85.53522 
L 105.371225 84.984931 
L 105.9433 84.434643 
L 106.515375 83.884354 
L 107.08745 83.334065 
L 107.659526 82.783777 
L 108.231601 82.233488 
L 108.803676 81.6832 
L 109.375751 81.132911 
L 109.947826 80.582622 
L 110.519902 80.032334 
L 111.091977 79.482045 
L 111.664052 78.931757 
L 112.236127 78.381468 
L 112.808202 77.831179 
L 113.380278 77.280891 
L 113.952353 76.730602 
L 114.524428 76.180314 
L 115.096503 75.630025 
L 115.668578 75.079736 
L 116.240654 74.529448 
L 116.812729 73.979159 
L 117.384804 73.428871 
L 117.956879 72.878582 
L 118.528954 72.328293 
L 119.10103 71.778005 
L 119.673105 71.227716 
L 120.24518 70.677428 
L 120.817255 70.127139 
L 121.38933 69.57685 
L 121.961406 69.026562 
L 122.533481 68.476273 
L 123.105556 67.925985 
L 123.677631 67.375696 
L 124.249706 66.825407 
L 124.821782 66.275119 
L 125.393857 65.72483 
L 125.965932 65.174542 
L 126.538007 64.624253 
L 127.110082 64.073964 
L 127.682157 63.523676 
L 128.254233 62.973387 
L 128.826308 62.423099 
L 129.398383 61.87281 
L 129.970458 61.322521 
L 130.542533 60.772233 
L 131.114609 60.221944 
L 131.686684 59.671656 
L 132.258759 59.121367 
L 132.830834 58.571078 
L 133.402909 58.02079 
L 133.974985 57.470501 
L 134.54706 56.920213 
L 135.119135 56.369924 
L 135.69121 55.819635 
L 136.263285 55.269347 
L 136.835361 54.719058 
" clip-path="url(#pbaf8cbef0e)" style="fill: none; stroke: #068583; stroke-width: 2.25; stroke-linecap: square"/>
   </g>
   <g id="LineCollection_1">
    <path d="M 105.360674 88.454634 
L 114.461559 88.454634 
" clip-path="url(#pbaf8cbef0e)" style="fill: none; stroke: #000000; stroke-width: 0.5"/>
    <path d="M 87.721616 90.800251 
L 92.811645 90.800251 
" clip-path="url(#pbaf8cbef0e)" style="fill: none; stroke: #000000; stroke-width: 0.5"/>
    <path d="M 115.595112 65.493136 
L 124.041646 65.493136 
" clip-path="url(#pbaf8cbef0e)" style="fill: none; stroke: #000000; stroke-width: 0.5"/>
    <path d="M 114.601449 40.633919 
L 126.364447 40.633919 
" clip-path="url(#pbaf8cbef0e)" style="fill: none; stroke: #000000; stroke-width: 0.5"/>
    <path d="M 99.807994 86.686428 
L 105.83198 86.686428 
" clip-path="url(#pbaf8cbef0e)" style="fill: none; stroke: #000000; stroke-width: 0.5"/>
    <path d="M 91.085188 112.040311 
L 92.837438 112.040311 
" clip-path="url(#pbaf8cbef0e)" style="fill: none; stroke: #000000; stroke-width: 0.5"/>
    <path d="M 123.424062 70.756383 
L 133.296156 70.756383 
" clip-path="url(#pbaf8cbef0e)" style="fill: none; stroke: #000000; stroke-width: 0.5"/>
    <path d="M 113.408798 42.420113 
L 125.725097 42.420113 
" clip-path="url(#pbaf8cbef0e)" style="fill: none; stroke: #000000; stroke-width: 0.5"/>
    <path d="M 104.103951 104.836175 
L 108.845362 104.836175 
" clip-path="url(#pbaf8cbef0e)" style="fill: none; stroke: #000000; stroke-width: 0.5"/>
    <path d="M 83.561306 96.088681 
L 88.529308 96.088681 
" clip-path="url(#pbaf8cbef0e)" style="fill: none; stroke: #000000; stroke-width: 0.5"/>
    <path d="M 119.454835 66.131705 
L 126.945598 66.131705 
" clip-path="url(#pbaf8cbef0e)" style="fill: none; stroke: #000000; stroke-width: 0.5"/>
    <path d="M 106.819518 39.428732 
L 123.898106 39.428732 
" clip-path="url(#pbaf8cbef0e)" style="fill: none; stroke: #000000; stroke-width: 0.5"/>
    <path d="M 97.970441 88.015731 
L 100.303976 88.015731 
" clip-path="url(#pbaf8cbef0e)" style="fill: none; stroke: #000000; stroke-width: 0.5"/>
    <path d="M 81.833501 114.385928 
L 86.20816 114.385928 
" clip-path="url(#pbaf8cbef0e)" style="fill: none; stroke: #000000; stroke-width: 0.5"/>
    <path d="M 113.819775 93.471447 
L 122.843259 93.471447 
" clip-path="url(#pbaf8cbef0e)" style="fill: none; stroke: #000000; stroke-width: 0.5"/>
    <path d="M 96.863952 80.530984 
L 104.770128 80.530984 
" clip-path="url(#pbaf8cbef0e)" style="fill: none; stroke: #000000; stroke-width: 0.5"/>
    <path d="M 89.003841 104.086081 
L 94.295213 104.086081 
" clip-path="url(#pbaf8cbef0e)" style="fill: none; stroke: #000000; stroke-width: 0.5"/>
    <path d="M 79.922992 122.075736 
L 85.927908 122.075736 
" clip-path="url(#pbaf8cbef0e)" style="fill: none; stroke: #000000; stroke-width: 0.5"/>
    <path d="M 118.305964 95.74871 
L 121.9934 95.74871 
" clip-path="url(#pbaf8cbef0e)" style="fill: none; stroke: #000000; stroke-width: 0.5"/>
    <path d="M 90.936201 89.810919 
L 100.132984 89.810919 
" clip-path="url(#pbaf8cbef0e)" style="fill: none; stroke: #000000; stroke-width: 0.5"/>
    <path d="M 104.29036 94.428401 
L 113.761812 94.428401 
" clip-path="url(#pbaf8cbef0e)" style="fill: none; stroke: #000000; stroke-width: 0.5"/>
    <path d="M 86.768632 106.7249 
L 91.413882 106.7249 
" clip-path="url(#pbaf8cbef0e)" style="fill: none; stroke: #000000; stroke-width: 0.5"/>
    <path d="M 135.266243 66.356553 
L 138.404478 66.356553 
" clip-path="url(#pbaf8cbef0e)" style="fill: none; stroke: #000000; stroke-width: 0.5"/>
    <path d="M 78.461775 86.893288 
L 81.938058 86.893288 
" clip-path="url(#pbaf8cbef0e)" style="fill: none; stroke: #000000; stroke-width: 0.5"/>
   </g>
   <g id="LineCollection_2">
    <path d="M 109.911117 92.237677 
L 109.911117 84.671592 
" clip-path="url(#pbaf8cbef0e)" style="fill: none; stroke: #000000; stroke-width: 0.5"/>
    <path d="M 90.266631 95.779304 
L 90.266631 85.821198 
" clip-path="url(#pbaf8cbef0e)" style="fill: none; stroke: #000000; stroke-width: 0.5"/>
    <path d="M 119.818379 67.914164 
L 119.818379 63.072107 
" clip-path="url(#pbaf8cbef0e)" style="fill: none; stroke: #000000; stroke-width: 0.5"/>
    <path d="M 120.482948 47.957102 
L 120.482948 33.310735 
" clip-path="url(#pbaf8cbef0e)" style="fill: none; stroke: #000000; stroke-width: 0.5"/>
    <path d="M 102.819987 95.220878 
L 102.819987 78.151978 
" clip-path="url(#pbaf8cbef0e)" style="fill: none; stroke: #000000; stroke-width: 0.5"/>
    <path d="M 91.961313 115.636624 
L 91.961313 108.443999 
" clip-path="url(#pbaf8cbef0e)" style="fill: none; stroke: #000000; stroke-width: 0.5"/>
    <path d="M 128.360109 75.157647 
L 128.360109 66.355118 
" clip-path="url(#pbaf8cbef0e)" style="fill: none; stroke: #000000; stroke-width: 0.5"/>
    <path d="M 119.566947 46.00831 
L 119.566947 38.831915 
" clip-path="url(#pbaf8cbef0e)" style="fill: none; stroke: #000000; stroke-width: 0.5"/>
    <path d="M 106.474656 109.08201 
L 106.474656 100.59034 
" clip-path="url(#pbaf8cbef0e)" style="fill: none; stroke: #000000; stroke-width: 0.5"/>
    <path d="M 86.045307 112.90278 
L 86.045307 79.274581 
" clip-path="url(#pbaf8cbef0e)" style="fill: none; stroke: #000000; stroke-width: 0.5"/>
    <path d="M 123.200217 66.60312 
L 123.200217 65.660289 
" clip-path="url(#pbaf8cbef0e)" style="fill: none; stroke: #000000; stroke-width: 0.5"/>
    <path d="M 115.358812 49.126612 
L 115.358812 29.730852 
" clip-path="url(#pbaf8cbef0e)" style="fill: none; stroke: #000000; stroke-width: 0.5"/>
    <path d="M 99.137209 90.625798 
L 99.137209 85.405663 
" clip-path="url(#pbaf8cbef0e)" style="fill: none; stroke: #000000; stroke-width: 0.5"/>
    <path d="M 84.02083 124.432971 
L 84.02083 104.338885 
" clip-path="url(#pbaf8cbef0e)" style="fill: none; stroke: #000000; stroke-width: 0.5"/>
    <path d="M 118.331517 99.183005 
L 118.331517 87.75989 
" clip-path="url(#pbaf8cbef0e)" style="fill: none; stroke: #000000; stroke-width: 0.5"/>
    <path d="M 100.81704 86.455368 
L 100.81704 74.606599 
" clip-path="url(#pbaf8cbef0e)" style="fill: none; stroke: #000000; stroke-width: 0.5"/>
    <path d="M 91.649527 105.307715 
L 91.649527 102.864448 
" clip-path="url(#pbaf8cbef0e)" style="fill: none; stroke: #000000; stroke-width: 0.5"/>
    <path d="M 82.92545 130.19798 
L 82.92545 113.953493 
" clip-path="url(#pbaf8cbef0e)" style="fill: none; stroke: #000000; stroke-width: 0.5"/>
    <path d="M 120.149682 99.49844 
L 120.149682 91.998981 
" clip-path="url(#pbaf8cbef0e)" style="fill: none; stroke: #000000; stroke-width: 0.5"/>
    <path d="M 95.534593 92.010917 
L 95.534593 87.61092 
" clip-path="url(#pbaf8cbef0e)" style="fill: none; stroke: #000000; stroke-width: 0.5"/>
    <path d="M 109.026086 98.491132 
L 109.026086 90.365671 
" clip-path="url(#pbaf8cbef0e)" style="fill: none; stroke: #000000; stroke-width: 0.5"/>
    <path d="M 89.091257 115.471273 
L 89.091257 97.978527 
" clip-path="url(#pbaf8cbef0e)" style="fill: none; stroke: #000000; stroke-width: 0.5"/>
    <path d="M 136.835361 67.108688 
L 136.835361 65.604417 
" clip-path="url(#pbaf8cbef0e)" style="fill: none; stroke: #000000; stroke-width: 0.5"/>
    <path d="M 80.199916 93.16973 
L 80.199916 80.616846 
" clip-path="url(#pbaf8cbef0e)" style="fill: none; stroke: #000000; stroke-width: 0.5"/>
   </g>
   <g id="LineCollection_3">
    <path d="M 67.639774 177.449553 
L 67.704533 177.449553 
" clip-path="url(#pbaf8cbef0e)" style="fill: none; stroke: #000000; stroke-width: 0.5"/>
    <path d="M 66.352161 176.219184 
L 66.408674 176.219184 
" clip-path="url(#pbaf8cbef0e)" style="fill: none; stroke: #000000; stroke-width: 0.5"/>
    <path d="M 66.635367 177.877664 
L 66.729791 177.877664 
" clip-path="url(#pbaf8cbef0e)" style="fill: none; stroke: #000000; stroke-width: 0.5"/>
    <path d="M 65.772528 177.960408 
L 65.806674 177.960408 
" clip-path="url(#pbaf8cbef0e)" style="fill: none; stroke: #000000; stroke-width: 0.5"/>
   </g>
   <g id="LineCollection_4">
    <path d="M 67.672153 177.506691 
L 67.672153 177.392415 
" clip-path="url(#pbaf8cbef0e)" style="fill: none; stroke: #000000; stroke-width: 0.5"/>
    <path d="M 66.380418 176.694557 
L 66.380418 175.743811 
" clip-path="url(#pbaf8cbef0e)" style="fill: none; stroke: #000000; stroke-width: 0.5"/>
    <path d="M 66.682579 177.90771 
L 66.682579 177.847618 
" clip-path="url(#pbaf8cbef0e)" style="fill: none; stroke: #000000; stroke-width: 0.5"/>
    <path d="M 65.789601 177.985398 
L 65.789601 177.935419 
" clip-path="url(#pbaf8cbef0e)" style="fill: none; stroke: #000000; stroke-width: 0.5"/>
   </g>
   <g id="line2d_12">
    <path d="M 102.906721 103.505188 
L 103.927795 102.957431 
L 104.948869 102.409674 
L 105.969944 101.861917 
L 106.991018 101.314161 
L 108.012092 100.766404 
L 109.033166 100.218647 
L 110.054241 99.67089 
L 111.075315 99.123134 
L 112.096389 98.575377 
L 113.117463 98.02762 
L 114.138538 97.479863 
L 115.159612 96.932106 
L 116.180686 96.38435 
L 117.20176 95.836593 
L 118.222835 95.288836 
L 119.243909 94.741079 
L 120.264983 94.193323 
L 121.286057 93.645566 
L 122.307132 93.097809 
L 123.328206 92.550052 
L 124.34928 92.002295 
L 125.370354 91.454539 
L 126.391429 90.906782 
L 127.412503 90.359025 
L 128.433577 89.811268 
L 129.454651 89.263511 
L 130.475726 88.715755 
L 131.4968 88.167998 
L 132.517874 87.620241 
L 133.538948 87.072484 
L 134.560023 86.524728 
L 135.581097 85.976971 
L 136.602171 85.429214 
L 137.623245 84.881457 
L 138.64432 84.3337 
L 139.665394 83.785944 
L 140.686468 83.238187 
L 141.707542 82.69043 
L 142.728617 82.142673 
L 143.749691 81.594917 
L 144.770765 81.04716 
L 145.791839 80.499403 
L 146.812914 79.951646 
L 147.833988 79.403889 
L 148.855062 78.856133 
L 149.876137 78.308376 
L 150.897211 77.760619 
L 151.918285 77.212862 
L 152.939359 76.665105 
L 153.960434 76.117349 
L 154.981508 75.569592 
L 156.002582 75.021835 
L 157.023656 74.474078 
L 158.044731 73.926322 
L 159.065805 73.378565 
L 160.086879 72.830808 
L 161.107953 72.283051 
L 162.129028 71.735294 
L 163.150102 71.187538 
L 164.171176 70.639781 
L 165.19225 70.092024 
L 166.213325 69.544267 
L 167.234399 68.996511 
L 168.255473 68.448754 
L 169.276547 67.900997 
L 170.297622 67.35324 
L 171.318696 66.805483 
L 172.33977 66.257727 
L 173.360844 65.70997 
L 174.381919 65.162213 
L 175.402993 64.614456 
L 176.424067 64.066699 
L 177.445141 63.518943 
L 178.466216 62.971186 
L 179.48729 62.423429 
L 180.508364 61.875672 
L 181.529438 61.327916 
L 182.550513 60.780159 
L 183.571587 60.232402 
L 184.592661 59.684645 
L 185.613735 59.136888 
L 186.63481 58.589132 
L 187.655884 58.041375 
L 188.676958 57.493618 
L 189.698032 56.945861 
L 190.719107 56.398104 
L 191.740181 55.850348 
L 192.761255 55.302591 
L 193.782329 54.754834 
L 194.803404 54.207077 
L 195.824478 53.659321 
L 196.845552 53.111564 
L 197.866627 52.563807 
L 198.887701 52.01605 
L 199.908775 51.468293 
L 200.929849 50.920537 
L 201.950924 50.37278 
L 202.971998 49.825023 
L 203.993072 49.277266 
" clip-path="url(#pbaf8cbef0e)" style="fill: none; stroke: #808080; stroke-width: 2.25; stroke-linecap: square"/>
   </g>
   <g id="LineCollection_5">
    <path d="M 143.902628 88.454634 
L 163.119915 88.454634 
" clip-path="url(#pbaf8cbef0e)" style="fill: none; stroke: #000000; stroke-width: 0.5"/>
    <path d="M 115.567283 90.800251 
L 128.404859 90.800251 
" clip-path="url(#pbaf8cbef0e)" style="fill: none; stroke: #000000; stroke-width: 0.5"/>
    <path d="M 122.473011 65.493136 
L 129.506025 65.493136 
" clip-path="url(#pbaf8cbef0e)" style="fill: none; stroke: #000000; stroke-width: 0.5"/>
    <path d="M 190.031798 40.633919 
L 217.954347 40.633919 
" clip-path="url(#pbaf8cbef0e)" style="fill: none; stroke: #000000; stroke-width: 0.5"/>
    <path d="M 135.41892 86.686428 
L 146.255999 86.686428 
" clip-path="url(#pbaf8cbef0e)" style="fill: none; stroke: #000000; stroke-width: 0.5"/>
    <path d="M 118.323244 112.040311 
L 123.390507 112.040311 
" clip-path="url(#pbaf8cbef0e)" style="fill: none; stroke: #000000; stroke-width: 0.5"/>
    <path d="M 128.944352 70.756383 
L 137.010169 70.756383 
" clip-path="url(#pbaf8cbef0e)" style="fill: none; stroke: #000000; stroke-width: 0.5"/>
    <path d="M 186.41398 42.420113 
L 208.549797 42.420113 
" clip-path="url(#pbaf8cbef0e)" style="fill: none; stroke: #000000; stroke-width: 0.5"/>
    <path d="M 143.054037 104.836175 
L 151.524419 104.836175 
" clip-path="url(#pbaf8cbef0e)" style="fill: none; stroke: #000000; stroke-width: 0.5"/>
    <path d="M 108.015907 96.088681 
L 117.616921 96.088681 
" clip-path="url(#pbaf8cbef0e)" style="fill: none; stroke: #000000; stroke-width: 0.5"/>
    <path d="M 120.73955 66.131705 
L 127.875735 66.131705 
" clip-path="url(#pbaf8cbef0e)" style="fill: none; stroke: #000000; stroke-width: 0.5"/>
    <path d="M 177.011266 39.428732 
L 210.265053 39.428732 
" clip-path="url(#pbaf8cbef0e)" style="fill: none; stroke: #000000; stroke-width: 0.5"/>
    <path d="M 133.769629 88.015731 
L 137.673644 88.015731 
" clip-path="url(#pbaf8cbef0e)" style="fill: none; stroke: #000000; stroke-width: 0.5"/>
    <path d="M 102.997898 114.385928 
L 113.581807 114.385928 
" clip-path="url(#pbaf8cbef0e)" style="fill: none; stroke: #000000; stroke-width: 0.5"/>
    <path d="M 117.432507 93.471447 
L 123.234671 93.471447 
" clip-path="url(#pbaf8cbef0e)" style="fill: none; stroke: #000000; stroke-width: 0.5"/>
    <path d="M 148.956127 80.530984 
L 173.36148 80.530984 
" clip-path="url(#pbaf8cbef0e)" style="fill: none; stroke: #000000; stroke-width: 0.5"/>
    <path d="M 120.720645 104.086081 
L 133.189374 104.086081 
" clip-path="url(#pbaf8cbef0e)" style="fill: none; stroke: #000000; stroke-width: 0.5"/>
    <path d="M 100.392106 122.075736 
L 111.617823 122.075736 
" clip-path="url(#pbaf8cbef0e)" style="fill: none; stroke: #000000; stroke-width: 0.5"/>
    <path d="M 114.57535 95.74871 
L 119.960669 95.74871 
" clip-path="url(#pbaf8cbef0e)" style="fill: none; stroke: #000000; stroke-width: 0.5"/>
    <path d="M 141.10502 89.810919 
L 158.57964 89.810919 
" clip-path="url(#pbaf8cbef0e)" style="fill: none; stroke: #000000; stroke-width: 0.5"/>
    <path d="M 145.68891 94.428401 
L 164.428373 94.428401 
" clip-path="url(#pbaf8cbef0e)" style="fill: none; stroke: #000000; stroke-width: 0.5"/>
    <path d="M 115.74895 106.7249 
L 130.206586 106.7249 
" clip-path="url(#pbaf8cbef0e)" style="fill: none; stroke: #000000; stroke-width: 0.5"/>
    <path d="M 101.084317 66.356553 
L 106.335763 66.356553 
" clip-path="url(#pbaf8cbef0e)" style="fill: none; stroke: #000000; stroke-width: 0.5"/>
    <path d="M 99.835944 86.893288 
L 105.977497 86.893288 
" clip-path="url(#pbaf8cbef0e)" style="fill: none; stroke: #000000; stroke-width: 0.5"/>
   </g>
   <g id="LineCollection_6">
    <path d="M 153.511271 92.237677 
L 153.511271 84.671592 
" clip-path="url(#pbaf8cbef0e)" style="fill: none; stroke: #000000; stroke-width: 0.5"/>
    <path d="M 121.986071 95.779304 
L 121.986071 85.821198 
" clip-path="url(#pbaf8cbef0e)" style="fill: none; stroke: #000000; stroke-width: 0.5"/>
    <path d="M 125.989518 67.914164 
L 125.989518 63.072107 
" clip-path="url(#pbaf8cbef0e)" style="fill: none; stroke: #000000; stroke-width: 0.5"/>
    <path d="M 203.993072 47.957102 
L 203.993072 33.310735 
" clip-path="url(#pbaf8cbef0e)" style="fill: none; stroke: #000000; stroke-width: 0.5"/>
    <path d="M 140.837459 95.220878 
L 140.837459 78.151978 
" clip-path="url(#pbaf8cbef0e)" style="fill: none; stroke: #000000; stroke-width: 0.5"/>
    <path d="M 120.856876 115.636624 
L 120.856876 108.443999 
" clip-path="url(#pbaf8cbef0e)" style="fill: none; stroke: #000000; stroke-width: 0.5"/>
    <path d="M 132.977261 75.157647 
L 132.977261 66.355118 
" clip-path="url(#pbaf8cbef0e)" style="fill: none; stroke: #000000; stroke-width: 0.5"/>
    <path d="M 197.481888 46.00831 
L 197.481888 38.831915 
" clip-path="url(#pbaf8cbef0e)" style="fill: none; stroke: #000000; stroke-width: 0.5"/>
    <path d="M 147.289228 109.08201 
L 147.289228 100.59034 
" clip-path="url(#pbaf8cbef0e)" style="fill: none; stroke: #000000; stroke-width: 0.5"/>
    <path d="M 112.816414 112.90278 
L 112.816414 79.274581 
" clip-path="url(#pbaf8cbef0e)" style="fill: none; stroke: #000000; stroke-width: 0.5"/>
    <path d="M 124.307642 66.60312 
L 124.307642 65.660289 
" clip-path="url(#pbaf8cbef0e)" style="fill: none; stroke: #000000; stroke-width: 0.5"/>
    <path d="M 193.638159 49.126612 
L 193.638159 29.730852 
" clip-path="url(#pbaf8cbef0e)" style="fill: none; stroke: #000000; stroke-width: 0.5"/>
    <path d="M 135.721637 90.625798 
L 135.721637 85.405663 
" clip-path="url(#pbaf8cbef0e)" style="fill: none; stroke: #000000; stroke-width: 0.5"/>
    <path d="M 108.289852 124.432971 
L 108.289852 104.338885 
" clip-path="url(#pbaf8cbef0e)" style="fill: none; stroke: #000000; stroke-width: 0.5"/>
    <path d="M 120.333589 99.183005 
L 120.333589 87.75989 
" clip-path="url(#pbaf8cbef0e)" style="fill: none; stroke: #000000; stroke-width: 0.5"/>
    <path d="M 161.158804 86.455368 
L 161.158804 74.606599 
" clip-path="url(#pbaf8cbef0e)" style="fill: none; stroke: #000000; stroke-width: 0.5"/>
    <path d="M 126.95501 105.307715 
L 126.95501 102.864448 
" clip-path="url(#pbaf8cbef0e)" style="fill: none; stroke: #000000; stroke-width: 0.5"/>
    <path d="M 106.004965 130.19798 
L 106.004965 113.953493 
" clip-path="url(#pbaf8cbef0e)" style="fill: none; stroke: #000000; stroke-width: 0.5"/>
    <path d="M 117.26801 99.49844 
L 117.26801 91.998981 
" clip-path="url(#pbaf8cbef0e)" style="fill: none; stroke: #000000; stroke-width: 0.5"/>
    <path d="M 149.84233 92.010917 
L 149.84233 87.61092 
" clip-path="url(#pbaf8cbef0e)" style="fill: none; stroke: #000000; stroke-width: 0.5"/>
    <path d="M 155.058641 98.491132 
L 155.058641 90.365671 
" clip-path="url(#pbaf8cbef0e)" style="fill: none; stroke: #000000; stroke-width: 0.5"/>
    <path d="M 122.977768 115.471273 
L 122.977768 97.978527 
" clip-path="url(#pbaf8cbef0e)" style="fill: none; stroke: #000000; stroke-width: 0.5"/>
    <path d="M 103.71004 67.108688 
L 103.71004 65.604417 
" clip-path="url(#pbaf8cbef0e)" style="fill: none; stroke: #000000; stroke-width: 0.5"/>
    <path d="M 102.906721 93.16973 
L 102.906721 80.616846 
" clip-path="url(#pbaf8cbef0e)" style="fill: none; stroke: #000000; stroke-width: 0.5"/>
   </g>
   <g id="LineCollection_7">
    <path d="M 80.989289 177.449553 
L 82.281819 177.449553 
" clip-path="url(#pbaf8cbef0e)" style="fill: none; stroke: #000000; stroke-width: 0.5"/>
    <path d="M 73.197398 176.219184 
L 73.562894 176.219184 
" clip-path="url(#pbaf8cbef0e)" style="fill: none; stroke: #000000; stroke-width: 0.5"/>
    <path d="M 76.594732 177.877664 
L 76.719378 177.877664 
" clip-path="url(#pbaf8cbef0e)" style="fill: none; stroke: #000000; stroke-width: 0.5"/>
    <path d="M 70.406915 177.960408 
L 70.715697 177.960408 
" clip-path="url(#pbaf8cbef0e)" style="fill: none; stroke: #000000; stroke-width: 0.5"/>
   </g>
   <g id="LineCollection_8">
    <path d="M 81.635554 177.506691 
L 81.635554 177.392415 
" clip-path="url(#pbaf8cbef0e)" style="fill: none; stroke: #000000; stroke-width: 0.5"/>
    <path d="M 73.380146 176.694557 
L 73.380146 175.743811 
" clip-path="url(#pbaf8cbef0e)" style="fill: none; stroke: #000000; stroke-width: 0.5"/>
    <path d="M 76.657055 177.90771 
L 76.657055 177.847618 
" clip-path="url(#pbaf8cbef0e)" style="fill: none; stroke: #000000; stroke-width: 0.5"/>
    <path d="M 70.561306 177.985398 
L 70.561306 177.935419 
" clip-path="url(#pbaf8cbef0e)" style="fill: none; stroke: #000000; stroke-width: 0.5"/>
   </g>
   <g id="line2d_13">
    <path d="M 109.911117 88.454634 
L 90.266631 90.800251 
L 119.818379 65.493136 
L 120.482948 40.633919 
L 102.819987 86.686428 
L 91.961313 112.040311 
L 128.360109 70.756383 
L 119.566947 42.420113 
L 106.474656 104.836175 
L 86.045307 96.088681 
L 123.200217 66.131705 
L 115.358812 39.428732 
L 99.137209 88.015731 
L 84.02083 114.385928 
L 118.331517 93.471447 
L 100.81704 80.530984 
L 91.649527 104.086081 
L 82.92545 122.075736 
L 120.149682 95.74871 
L 95.534593 89.810919 
L 109.026086 94.428401 
L 89.091257 106.7249 
L 136.835361 66.356553 
L 80.199916 86.893288 
" clip-path="url(#pbaf8cbef0e)" style="fill: none; stroke: #000000; stroke-opacity: 0; stroke-width: 1.5; stroke-linecap: square"/>
   </g>
   <g id="line2d_14">
    <path d="M 67.672153 177.449553 
L 66.380418 176.219184 
L 66.682579 177.877664 
L 65.789601 177.960408 
" clip-path="url(#pbaf8cbef0e)" style="fill: none; stroke: #000000; stroke-opacity: 0; stroke-width: 1.5; stroke-linecap: square"/>
   </g>
   <g id="line2d_15">
    <path d="M 153.511271 88.454634 
L 121.986071 90.800251 
L 125.989518 65.493136 
L 203.993072 40.633919 
L 140.837459 86.686428 
L 120.856876 112.040311 
L 132.977261 70.756383 
L 197.481888 42.420113 
L 147.289228 104.836175 
L 112.816414 96.088681 
L 124.307642 66.131705 
L 193.638159 39.428732 
L 135.721637 88.015731 
L 108.289852 114.385928 
L 120.333589 93.471447 
L 161.158804 80.530984 
L 126.95501 104.086081 
L 106.004965 122.075736 
L 117.26801 95.74871 
L 149.84233 89.810919 
L 155.058641 94.428401 
L 122.977768 106.7249 
L 103.71004 66.356553 
L 102.906721 86.893288 
" clip-path="url(#pbaf8cbef0e)" style="fill: none; stroke: #000000; stroke-opacity: 0; stroke-width: 1.5; stroke-linecap: square"/>
   </g>
   <g id="line2d_16">
    <path d="M 81.635554 177.449553 
L 73.380146 176.219184 
L 76.657055 177.877664 
L 70.561306 177.960408 
" clip-path="url(#pbaf8cbef0e)" style="fill: none; stroke: #000000; stroke-opacity: 0; stroke-width: 1.5; stroke-linecap: square"/>
   </g>
   <g id="patch_3">
    <path d="M 58.163438 185.398125 
L 58.163438 22.318125 
" style="fill: none; stroke: #000000; stroke-width: 0.8; stroke-linejoin: miter; stroke-linecap: square"/>
   </g>
   <g id="patch_4">
    <path d="M 225.563438 185.398125 
L 225.563438 22.318125 
" style="fill: none; stroke: #000000; stroke-width: 0.8; stroke-linejoin: miter; stroke-linecap: square"/>
   </g>
   <g id="patch_5">
    <path d="M 58.163438 185.398125 
L 225.563438 185.398125 
" style="fill: none; stroke: #000000; stroke-width: 0.8; stroke-linejoin: miter; stroke-linecap: square"/>
   </g>
   <g id="patch_6">
    <path d="M 58.163438 22.318125 
L 225.563438 22.318125 
" style="fill: none; stroke: #000000; stroke-width: 0.8; stroke-linejoin: miter; stroke-linecap: square"/>
   </g>
   <g id="text_13">
    <!-- No -->
    <g transform="translate(74.903438 157.892313)scale(0.1 -0.1)">
     <defs>
      <path id="DejaVuSans-6f" d="M 1959 3097 
Q 1497 3097 1228 2736 
Q 959 2375 959 1747 
Q 959 1119 1226 758 
Q 1494 397 1959 397 
Q 2419 397 2687 759 
Q 2956 1122 2956 1747 
Q 2956 2369 2687 2733 
Q 2419 3097 1959 3097 
z
M 1959 3584 
Q 2709 3584 3137 3096 
Q 3566 2609 3566 1747 
Q 3566 888 3137 398 
Q 2709 -91 1959 -91 
Q 1206 -91 779 398 
Q 353 888 353 1747 
Q 353 2609 779 3096 
Q 1206 3584 1959 3584 
z
" transform="scale(0.015625)"/>
     </defs>
     <use xlink:href="#DejaVuSans-4e"/>
     <use xlink:href="#DejaVuSans-6f" x="74.804688"/>
    </g>
    <!-- Ngn2x3HA -->
    <g transform="translate(74.903438 169.090125)scale(0.1 -0.1)">
     <defs>
      <path id="DejaVuSans-78" d="M 3513 3500 
L 2247 1797 
L 3578 0 
L 2900 0 
L 1881 1375 
L 863 0 
L 184 0 
L 1544 1831 
L 300 3500 
L 978 3500 
L 1906 2253 
L 2834 3500 
L 3513 3500 
z
" transform="scale(0.015625)"/>
      <path id="DejaVuSans-33" d="M 2597 2516 
Q 3050 2419 3304 2112 
Q 3559 1806 3559 1356 
Q 3559 666 3084 287 
Q 2609 -91 1734 -91 
Q 1441 -91 1130 -33 
Q 819 25 488 141 
L 488 750 
Q 750 597 1062 519 
Q 1375 441 1716 441 
Q 2309 441 2620 675 
Q 2931 909 2931 1356 
Q 2931 1769 2642 2001 
Q 2353 2234 1838 2234 
L 1294 2234 
L 1294 2753 
L 1863 2753 
Q 2328 2753 2575 2939 
Q 2822 3125 2822 3475 
Q 2822 3834 2567 4026 
Q 2313 4219 1838 4219 
Q 1578 4219 1281 4162 
Q 984 4106 628 3988 
L 628 4550 
Q 988 4650 1302 4700 
Q 1616 4750 1894 4750 
Q 2613 4750 3031 4423 
Q 3450 4097 3450 3541 
Q 3450 3153 3228 2886 
Q 3006 2619 2597 2516 
z
" transform="scale(0.015625)"/>
      <path id="DejaVuSans-48" d="M 628 4666 
L 1259 4666 
L 1259 2753 
L 3553 2753 
L 3553 4666 
L 4184 4666 
L 4184 0 
L 3553 0 
L 3553 2222 
L 1259 2222 
L 1259 0 
L 628 0 
L 628 4666 
z
" transform="scale(0.015625)"/>
      <path id="DejaVuSans-41" d="M 2188 4044 
L 1331 1722 
L 3047 1722 
L 2188 4044 
z
M 1831 4666 
L 2547 4666 
L 4325 0 
L 3669 0 
L 3244 1197 
L 1141 1197 
L 716 0 
L 50 0 
L 1831 4666 
z
" transform="scale(0.015625)"/>
     </defs>
     <use xlink:href="#DejaVuSans-4e"/>
     <use xlink:href="#DejaVuSans-67" x="74.804688"/>
     <use xlink:href="#DejaVuSans-6e" x="138.28125"/>
     <use xlink:href="#DejaVuSans-32" x="201.660156"/>
     <use xlink:href="#DejaVuSans-78" x="265.283203"/>
     <use xlink:href="#DejaVuSans-33" x="324.462891"/>
     <use xlink:href="#DejaVuSans-48" x="388.085938"/>
     <use xlink:href="#DejaVuSans-41" x="463.28125"/>
    </g>
   </g>
   <g id="text_14">
    <!-- Ngn2x3HA -->
    <g transform="translate(109.960313 16.318125)scale(0.12 -0.12)">
     <use xlink:href="#DejaVuSans-4e"/>
     <use xlink:href="#DejaVuSans-67" x="74.804688"/>
     <use xlink:href="#DejaVuSans-6e" x="138.28125"/>
     <use xlink:href="#DejaVuSans-32" x="201.660156"/>
     <use xlink:href="#DejaVuSans-78" x="265.283203"/>
     <use xlink:href="#DejaVuSans-33" x="324.462891"/>
     <use xlink:href="#DejaVuSans-48" x="388.085938"/>
     <use xlink:href="#DejaVuSans-41" x="463.28125"/>
    </g>
   </g>
  </g>
 </g>
 <defs>
  <clipPath id="pbaf8cbef0e">
   <rect x="58.163438" y="22.318125" width="167.4" height="163.08"/>
  </clipPath>
 </defs>
</svg>
