<?xml version="1.0" encoding="utf-8" standalone="no"?>
<!DOCTYPE svg PUBLIC "-//W3C//DTD SVG 1.1//EN"
  "http://www.w3.org/Graphics/SVG/1.1/DTD/svg11.dtd">
<svg xmlns:xlink="http://www.w3.org/1999/xlink" width="226.400937pt" height="234.152188pt" viewBox="0 0 226.400937 234.152188" xmlns="http://www.w3.org/2000/svg" version="1.1">
 <metadata>
  <rdf:RDF xmlns:dc="http://purl.org/dc/elements/1.1/" xmlns:cc="http://creativecommons.org/ns#" xmlns:rdf="http://www.w3.org/1999/02/22-rdf-syntax-ns#">
   <cc:Work>
    <dc:type rdf:resource="http://purl.org/dc/dcmitype/StillImage"/>
    <dc:date>2025-01-26T16:01:17.489339</dc:date>
    <dc:format>image/svg+xml</dc:format>
    <dc:creator>
     <cc:Agent>
      <dc:title>Matplotlib v3.5.2, https://matplotlib.org/</dc:title>
     </cc:Agent>
    </dc:creator>
   </cc:Work>
  </rdf:RDF>
 </metadata>
 <defs>
  <style type="text/css">*{stroke-linejoin: round; stroke-linecap: butt}</style>
 </defs>
 <g id="figure_1">
  <g id="patch_1">
   <path d="M 0 234.152188 
L 226.400937 234.152188 
L 226.400937 -0 
L 0 -0 
L 0 234.152188 
z
" style="fill: none"/>
  </g>
  <g id="axes_1">
   <g id="patch_2">
    <path d="M 51.800938 185.398125 
L 219.200938 185.398125 
L 219.200938 22.318125 
L 51.800938 22.318125 
z
" style="fill: #ffffff"/>
   </g>
   <g id="PathCollection_1">
    <defs>
     <path id="me6090423ec" d="M 0 3 
C 0.795609 3 1.55874 2.683901 2.12132 2.12132 
C 2.683901 1.55874 3 0.795609 3 0 
C 3 -0.795609 2.683901 -1.55874 2.12132 -2.12132 
C 1.55874 -2.683901 0.795609 -3 0 -3 
C -0.795609 -3 -1.55874 -2.683901 -2.12132 -2.12132 
C -2.683901 -1.55874 -3 -0.795609 -3 0 
C -3 0.795609 -2.683901 1.55874 -2.12132 2.12132 
C -1.55874 2.683901 -0.795609 3 0 3 
z
" style="stroke: #068583; stroke-opacity: 0.8"/>
    </defs>
    <g clip-path="url(#p7daa8fb5eb)">
     <use xlink:href="#me6090423ec" x="151.891238" y="102.117343" style="fill: #068583; fill-opacity: 0.8; stroke: #068583; stroke-opacity: 0.8"/>
     <use xlink:href="#me6090423ec" x="110.731203" y="93.601776" style="fill: #068583; fill-opacity: 0.8; stroke: #068583; stroke-opacity: 0.8"/>
     <use xlink:href="#me6090423ec" x="172.649392" y="48.51737" style="fill: #068583; fill-opacity: 0.8; stroke: #068583; stroke-opacity: 0.8"/>
     <use xlink:href="#me6090423ec" x="174.041828" y="41.330342" style="fill: #068583; fill-opacity: 0.8; stroke: #068583; stroke-opacity: 0.8"/>
     <use xlink:href="#me6090423ec" x="137.033575" y="100.990037" style="fill: #068583; fill-opacity: 0.8; stroke: #068583; stroke-opacity: 0.8"/>
     <use xlink:href="#me6090423ec" x="114.281981" y="111.676947" style="fill: #068583; fill-opacity: 0.8; stroke: #068583; stroke-opacity: 0.8"/>
     <use xlink:href="#me6090423ec" x="190.54642" y="55.390541" style="fill: #068583; fill-opacity: 0.8; stroke: #068583; stroke-opacity: 0.8"/>
     <use xlink:href="#me6090423ec" x="172.12258" y="43.687951" style="fill: #068583; fill-opacity: 0.8; stroke: #068583; stroke-opacity: 0.8"/>
     <use xlink:href="#me6090423ec" x="144.691008" y="112.784135" style="fill: #068583; fill-opacity: 0.8; stroke: #068583; stroke-opacity: 0.8"/>
     <use xlink:href="#me6090423ec" x="101.886491" y="98.301656" style="fill: #068583; fill-opacity: 0.8; stroke: #068583; stroke-opacity: 0.8"/>
     <use xlink:href="#me6090423ec" x="179.735175" y="53.958012" style="fill: #068583; fill-opacity: 0.8; stroke: #068583; stroke-opacity: 0.8"/>
     <use xlink:href="#me6090423ec" x="163.305501" y="35.539861" style="fill: #068583; fill-opacity: 0.8; stroke: #068583; stroke-opacity: 0.8"/>
     <use xlink:href="#me6090423ec" x="129.317249" y="103.341179" style="fill: #068583; fill-opacity: 0.8; stroke: #068583; stroke-opacity: 0.8"/>
     <use xlink:href="#me6090423ec" x="97.644714" y="108.597805" style="fill: #068583; fill-opacity: 0.8; stroke: #068583; stroke-opacity: 0.8"/>
     <use xlink:href="#me6090423ec" x="169.53405" y="76.442028" style="fill: #068583; fill-opacity: 0.8; stroke: #068583; stroke-opacity: 0.8"/>
     <use xlink:href="#me6090423ec" x="132.836908" y="65.347933" style="fill: #068583; fill-opacity: 0.8; stroke: #068583; stroke-opacity: 0.8"/>
     <use xlink:href="#me6090423ec" x="113.628711" y="117.27311" style="fill: #068583; fill-opacity: 0.8; stroke: #068583; stroke-opacity: 0.8"/>
     <use xlink:href="#me6090423ec" x="95.349622" y="122.500707" style="fill: #068583; fill-opacity: 0.8; stroke: #068583; stroke-opacity: 0.8"/>
     <use xlink:href="#me6090423ec" x="173.343554" y="77.52758" style="fill: #068583; fill-opacity: 0.8; stroke: #068583; stroke-opacity: 0.8"/>
     <use xlink:href="#me6090423ec" x="121.768881" y="72.101865" style="fill: #068583; fill-opacity: 0.8; stroke: #068583; stroke-opacity: 0.8"/>
     <use xlink:href="#me6090423ec" x="150.036881" y="96.036772" style="fill: #068583; fill-opacity: 0.8; stroke: #068583; stroke-opacity: 0.8"/>
     <use xlink:href="#me6090423ec" x="108.268506" y="103.084385" style="fill: #068583; fill-opacity: 0.8; stroke: #068583; stroke-opacity: 0.8"/>
     <use xlink:href="#me6090423ec" x="208.304158" y="54.993786" style="fill: #068583; fill-opacity: 0.8; stroke: #068583; stroke-opacity: 0.8"/>
     <use xlink:href="#me6090423ec" x="89.638958" y="90.706013" style="fill: #068583; fill-opacity: 0.8; stroke: #068583; stroke-opacity: 0.8"/>
    </g>
   </g>
   <g id="PolyCollection_1">
    <path d="M 89.638958 103.435119 
L 89.638958 126.19622 
L 90.837597 125.217675 
L 92.036235 124.239129 
L 93.234873 123.260584 
L 94.433512 122.323384 
L 95.63215 121.409413 
L 96.830789 120.583719 
L 98.029427 119.758025 
L 99.228065 118.849891 
L 100.426704 118.03917 
L 101.625342 117.092274 
L 102.823981 116.159638 
L 104.022619 115.30862 
L 105.221257 114.457436 
L 106.419896 113.623682 
L 107.618534 112.780775 
L 108.817172 111.878624 
L 110.015811 110.940557 
L 111.214449 109.984216 
L 112.413088 109.014751 
L 113.611726 108.178483 
L 114.810364 107.274919 
L 116.009003 106.499837 
L 117.207641 105.542348 
L 118.40628 104.691582 
L 119.604918 103.932222 
L 120.803556 103.105427 
L 122.002195 102.278435 
L 123.200833 101.543524 
L 124.399471 100.624451 
L 125.59811 99.824491 
L 126.796748 99.048059 
L 127.995387 98.314981 
L 129.194025 97.493924 
L 130.392663 96.71829 
L 131.591302 95.884677 
L 132.78994 95.189877 
L 133.988579 94.601188 
L 135.187217 93.970072 
L 136.385855 93.235426 
L 137.584494 92.599524 
L 138.783132 91.81705 
L 139.98177 91.277198 
L 141.180409 90.687932 
L 142.379047 89.940192 
L 143.577686 89.23156 
L 144.776324 88.593053 
L 145.974962 87.816067 
L 147.173601 87.019451 
L 148.372239 86.402038 
L 149.570878 85.789581 
L 150.769516 85.171628 
L 151.968154 84.522567 
L 153.166793 83.935619 
L 154.365431 83.321778 
L 155.564069 82.630386 
L 156.762708 82.06672 
L 157.961346 81.521668 
L 159.159985 81.004661 
L 160.358623 80.419885 
L 161.557261 79.832769 
L 162.7559 79.218801 
L 163.954538 78.654145 
L 165.153177 78.02602 
L 166.351815 77.38951 
L 167.550453 76.806555 
L 168.749092 76.222165 
L 169.94773 75.671289 
L 171.146368 75.133418 
L 172.345007 74.54711 
L 173.543645 73.951921 
L 174.742284 73.360966 
L 175.940922 72.582536 
L 177.13956 72.029385 
L 178.338199 71.551647 
L 179.536837 71.060388 
L 180.735476 70.618029 
L 181.934114 69.98847 
L 183.132752 69.336989 
L 184.331391 68.764886 
L 185.530029 68.295111 
L 186.728667 67.824226 
L 187.927306 67.352703 
L 189.125944 66.803118 
L 190.324583 66.202528 
L 191.523221 65.5999 
L 192.721859 64.997112 
L 193.920498 64.394324 
L 195.119136 63.791536 
L 196.317775 63.199189 
L 197.516413 62.684185 
L 198.715051 62.231378 
L 199.91369 61.77857 
L 201.112328 61.325763 
L 202.310967 60.861584 
L 203.509605 60.306247 
L 204.708243 59.749439 
L 205.906882 59.170357 
L 207.10552 58.583716 
L 208.304158 57.997075 
L 208.304158 28.248478 
L 208.304158 28.248478 
L 207.10552 29.207964 
L 205.906882 30.168437 
L 204.708243 31.14869 
L 203.509605 32.139037 
L 202.310967 33.129384 
L 201.112328 34.119731 
L 199.91369 35.110078 
L 198.715051 36.011148 
L 197.516413 36.990298 
L 196.317775 37.848252 
L 195.119136 38.801386 
L 193.920498 39.587174 
L 192.721859 40.372962 
L 191.523221 41.246652 
L 190.324583 42.192324 
L 189.125944 43.080331 
L 187.927306 43.989543 
L 186.728667 44.868328 
L 185.530029 45.818515 
L 184.331391 46.770339 
L 183.132752 47.629131 
L 181.934114 48.598463 
L 180.735476 49.46373 
L 179.536837 50.349499 
L 178.338199 51.195762 
L 177.13956 52.041377 
L 175.940922 52.896676 
L 174.742284 53.851512 
L 173.543645 54.663227 
L 172.345007 55.437044 
L 171.146368 56.131151 
L 169.94773 56.949027 
L 168.749092 57.767426 
L 167.550453 58.585825 
L 166.351815 59.404224 
L 165.153177 60.222624 
L 163.954538 61.057522 
L 162.7559 61.896218 
L 161.557261 62.734915 
L 160.358623 63.573612 
L 159.159985 64.377862 
L 157.961346 65.144771 
L 156.762708 65.963326 
L 155.564069 66.731995 
L 154.365431 67.572513 
L 153.166793 68.303062 
L 151.968154 69.025628 
L 150.769516 69.748591 
L 149.570878 70.521711 
L 148.372239 71.282656 
L 147.173601 72.012281 
L 145.974962 72.739218 
L 144.776324 73.497108 
L 143.577686 74.255157 
L 142.379047 74.953935 
L 141.180409 75.610981 
L 139.98177 76.333525 
L 138.783132 77.028174 
L 137.584494 77.718834 
L 136.385855 78.496991 
L 135.187217 79.271315 
L 133.988579 80.013099 
L 132.78994 80.595057 
L 131.591302 81.315728 
L 130.392663 82.042228 
L 129.194025 82.834173 
L 127.995387 83.705589 
L 126.796748 84.392767 
L 125.59811 85.165385 
L 124.399471 85.736025 
L 123.200833 86.405824 
L 122.002195 87.132454 
L 120.803556 87.798605 
L 119.604918 88.411996 
L 118.40628 89.012491 
L 117.207641 89.704515 
L 116.009003 90.259502 
L 114.810364 90.836476 
L 113.611726 91.468087 
L 112.413088 92.166072 
L 111.214449 92.867272 
L 110.015811 93.475407 
L 108.817172 94.045332 
L 107.618534 94.63802 
L 106.419896 95.313707 
L 105.221257 95.904433 
L 104.022619 96.492423 
L 102.823981 97.041589 
L 101.625342 97.671012 
L 100.426704 98.30542 
L 99.228065 98.916475 
L 98.029427 99.438148 
L 96.830789 100.024634 
L 95.63215 100.61112 
L 94.433512 101.197858 
L 93.234873 101.788116 
L 92.036235 102.284903 
L 90.837597 102.800259 
L 89.638958 103.435119 
z
" clip-path="url(#p7daa8fb5eb)" style="fill: #068583; fill-opacity: 0.15"/>
   </g>
   <g id="PathCollection_2">
    <defs>
     <path id="mcb1163cdb1" d="M 0 3.162278 
C 0.838646 3.162278 1.643056 2.82908 2.236068 2.236068 
C 2.82908 1.643056 3.162278 0.838646 3.162278 0 
C 3.162278 -0.838646 2.82908 -1.643056 2.236068 -2.236068 
C 1.643056 -2.82908 0.838646 -3.162278 0 -3.162278 
C -0.838646 -3.162278 -1.643056 -2.82908 -2.236068 -2.236068 
C -2.82908 -1.643056 -3.162278 -0.838646 -3.162278 0 
C -3.162278 0.838646 -2.82908 1.643056 -2.236068 2.236068 
C -1.643056 2.82908 -0.838646 3.162278 0 3.162278 
z
" style="stroke: #068583; stroke-width: 2"/>
    </defs>
    <g clip-path="url(#p7daa8fb5eb)">
     <use xlink:href="#mcb1163cdb1" x="63.39021" y="181.488496" style="fill: #ffffff; stroke: #068583; stroke-width: 2"/>
     <use xlink:href="#mcb1163cdb1" x="60.683706" y="179.376242" style="fill: #ffffff; stroke: #068583; stroke-width: 2"/>
     <use xlink:href="#mcb1163cdb1" x="61.316809" y="182.183844" style="fill: #ffffff; stroke: #068583; stroke-width: 2"/>
     <use xlink:href="#mcb1163cdb1" x="59.4458" y="182.38961" style="fill: #ffffff; stroke: #068583; stroke-width: 2"/>
    </g>
   </g>
   <g id="matplotlib.axis_1">
    <g id="xtick_1">
     <g id="line2d_1">
      <defs>
       <path id="ma00df26afa" d="M 0 0 
L 0 3.5 
" style="stroke: #000000; stroke-width: 0.8"/>
      </defs>
      <g>
       <use xlink:href="#ma00df26afa" x="52.510461" y="185.398125" style="stroke: #000000; stroke-width: 0.8"/>
      </g>
     </g>
     <g id="text_1">
      <!-- 0 -->
      <g transform="translate(49.329211 199.996563)scale(0.1 -0.1)">
       <defs>
        <path id="DejaVuSans-30" d="M 2034 4250 
Q 1547 4250 1301 3770 
Q 1056 3291 1056 2328 
Q 1056 1369 1301 889 
Q 1547 409 2034 409 
Q 2525 409 2770 889 
Q 3016 1369 3016 2328 
Q 3016 3291 2770 3770 
Q 2525 4250 2034 4250 
z
M 2034 4750 
Q 2819 4750 3233 4129 
Q 3647 3509 3647 2328 
Q 3647 1150 3233 529 
Q 2819 -91 2034 -91 
Q 1250 -91 836 529 
Q 422 1150 422 2328 
Q 422 3509 836 4129 
Q 1250 4750 2034 4750 
z
" transform="scale(0.015625)"/>
       </defs>
       <use xlink:href="#DejaVuSans-30"/>
      </g>
     </g>
    </g>
    <g id="xtick_2">
     <g id="line2d_2">
      <g>
       <use xlink:href="#ma00df26afa" x="98.489035" y="185.398125" style="stroke: #000000; stroke-width: 0.8"/>
      </g>
     </g>
     <g id="text_2">
      <!-- 1000 -->
      <g transform="translate(85.764035 199.996563)scale(0.1 -0.1)">
       <defs>
        <path id="DejaVuSans-31" d="M 794 531 
L 1825 531 
L 1825 4091 
L 703 3866 
L 703 4441 
L 1819 4666 
L 2450 4666 
L 2450 531 
L 3481 531 
L 3481 0 
L 794 0 
L 794 531 
z
" transform="scale(0.015625)"/>
       </defs>
       <use xlink:href="#DejaVuSans-31"/>
       <use xlink:href="#DejaVuSans-30" x="63.623047"/>
       <use xlink:href="#DejaVuSans-30" x="127.246094"/>
       <use xlink:href="#DejaVuSans-30" x="190.869141"/>
      </g>
     </g>
    </g>
    <g id="xtick_3">
     <g id="line2d_3">
      <g>
       <use xlink:href="#ma00df26afa" x="144.467609" y="185.398125" style="stroke: #000000; stroke-width: 0.8"/>
      </g>
     </g>
     <g id="text_3">
      <!-- 2000 -->
      <g transform="translate(131.742609 199.996563)scale(0.1 -0.1)">
       <defs>
        <path id="DejaVuSans-32" d="M 1228 531 
L 3431 531 
L 3431 0 
L 469 0 
L 469 531 
Q 828 903 1448 1529 
Q 2069 2156 2228 2338 
Q 2531 2678 2651 2914 
Q 2772 3150 2772 3378 
Q 2772 3750 2511 3984 
Q 2250 4219 1831 4219 
Q 1534 4219 1204 4116 
Q 875 4013 500 3803 
L 500 4441 
Q 881 4594 1212 4672 
Q 1544 4750 1819 4750 
Q 2544 4750 2975 4387 
Q 3406 4025 3406 3419 
Q 3406 3131 3298 2873 
Q 3191 2616 2906 2266 
Q 2828 2175 2409 1742 
Q 1991 1309 1228 531 
z
" transform="scale(0.015625)"/>
       </defs>
       <use xlink:href="#DejaVuSans-32"/>
       <use xlink:href="#DejaVuSans-30" x="63.623047"/>
       <use xlink:href="#DejaVuSans-30" x="127.246094"/>
       <use xlink:href="#DejaVuSans-30" x="190.869141"/>
      </g>
     </g>
    </g>
    <g id="xtick_4">
     <g id="line2d_4">
      <g>
       <use xlink:href="#ma00df26afa" x="190.446183" y="185.398125" style="stroke: #000000; stroke-width: 0.8"/>
      </g>
     </g>
     <g id="text_4">
      <!-- 3000 -->
      <g transform="translate(177.721183 199.996563)scale(0.1 -0.1)">
       <defs>
        <path id="DejaVuSans-33" d="M 2597 2516 
Q 3050 2419 3304 2112 
Q 3559 1806 3559 1356 
Q 3559 666 3084 287 
Q 2609 -91 1734 -91 
Q 1441 -91 1130 -33 
Q 819 25 488 141 
L 488 750 
Q 750 597 1062 519 
Q 1375 441 1716 441 
Q 2309 441 2620 675 
Q 2931 909 2931 1356 
Q 2931 1769 2642 2001 
Q 2353 2234 1838 2234 
L 1294 2234 
L 1294 2753 
L 1863 2753 
Q 2328 2753 2575 2939 
Q 2822 3125 2822 3475 
Q 2822 3834 2567 4026 
Q 2313 4219 1838 4219 
Q 1578 4219 1281 4162 
Q 984 4106 628 3988 
L 628 4550 
Q 988 4650 1302 4700 
Q 1616 4750 1894 4750 
Q 2613 4750 3031 4423 
Q 3450 4097 3450 3541 
Q 3450 3153 3228 2886 
Q 3006 2619 2597 2516 
z
" transform="scale(0.015625)"/>
       </defs>
       <use xlink:href="#DejaVuSans-33"/>
       <use xlink:href="#DejaVuSans-30" x="63.623047"/>
       <use xlink:href="#DejaVuSans-30" x="127.246094"/>
       <use xlink:href="#DejaVuSans-30" x="190.869141"/>
      </g>
     </g>
    </g>
    <g id="text_5">
     <!-- mRuby2, 4 dpi -->
     <g transform="translate(99.211875 213.674688)scale(0.1 -0.1)">
      <defs>
       <path id="DejaVuSans-6d" d="M 3328 2828 
Q 3544 3216 3844 3400 
Q 4144 3584 4550 3584 
Q 5097 3584 5394 3201 
Q 5691 2819 5691 2113 
L 5691 0 
L 5113 0 
L 5113 2094 
Q 5113 2597 4934 2840 
Q 4756 3084 4391 3084 
Q 3944 3084 3684 2787 
Q 3425 2491 3425 1978 
L 3425 0 
L 2847 0 
L 2847 2094 
Q 2847 2600 2669 2842 
Q 2491 3084 2119 3084 
Q 1678 3084 1418 2786 
Q 1159 2488 1159 1978 
L 1159 0 
L 581 0 
L 581 3500 
L 1159 3500 
L 1159 2956 
Q 1356 3278 1631 3431 
Q 1906 3584 2284 3584 
Q 2666 3584 2933 3390 
Q 3200 3197 3328 2828 
z
" transform="scale(0.015625)"/>
       <path id="DejaVuSans-52" d="M 2841 2188 
Q 3044 2119 3236 1894 
Q 3428 1669 3622 1275 
L 4263 0 
L 3584 0 
L 2988 1197 
Q 2756 1666 2539 1819 
Q 2322 1972 1947 1972 
L 1259 1972 
L 1259 0 
L 628 0 
L 628 4666 
L 2053 4666 
Q 2853 4666 3247 4331 
Q 3641 3997 3641 3322 
Q 3641 2881 3436 2590 
Q 3231 2300 2841 2188 
z
M 1259 4147 
L 1259 2491 
L 2053 2491 
Q 2509 2491 2742 2702 
Q 2975 2913 2975 3322 
Q 2975 3731 2742 3939 
Q 2509 4147 2053 4147 
L 1259 4147 
z
" transform="scale(0.015625)"/>
       <path id="DejaVuSans-75" d="M 544 1381 
L 544 3500 
L 1119 3500 
L 1119 1403 
Q 1119 906 1312 657 
Q 1506 409 1894 409 
Q 2359 409 2629 706 
Q 2900 1003 2900 1516 
L 2900 3500 
L 3475 3500 
L 3475 0 
L 2900 0 
L 2900 538 
Q 2691 219 2414 64 
Q 2138 -91 1772 -91 
Q 1169 -91 856 284 
Q 544 659 544 1381 
z
M 1991 3584 
L 1991 3584 
z
" transform="scale(0.015625)"/>
       <path id="DejaVuSans-62" d="M 3116 1747 
Q 3116 2381 2855 2742 
Q 2594 3103 2138 3103 
Q 1681 3103 1420 2742 
Q 1159 2381 1159 1747 
Q 1159 1113 1420 752 
Q 1681 391 2138 391 
Q 2594 391 2855 752 
Q 3116 1113 3116 1747 
z
M 1159 2969 
Q 1341 3281 1617 3432 
Q 1894 3584 2278 3584 
Q 2916 3584 3314 3078 
Q 3713 2572 3713 1747 
Q 3713 922 3314 415 
Q 2916 -91 2278 -91 
Q 1894 -91 1617 61 
Q 1341 213 1159 525 
L 1159 0 
L 581 0 
L 581 4863 
L 1159 4863 
L 1159 2969 
z
" transform="scale(0.015625)"/>
       <path id="DejaVuSans-79" d="M 2059 -325 
Q 1816 -950 1584 -1140 
Q 1353 -1331 966 -1331 
L 506 -1331 
L 506 -850 
L 844 -850 
Q 1081 -850 1212 -737 
Q 1344 -625 1503 -206 
L 1606 56 
L 191 3500 
L 800 3500 
L 1894 763 
L 2988 3500 
L 3597 3500 
L 2059 -325 
z
" transform="scale(0.015625)"/>
       <path id="DejaVuSans-2c" d="M 750 794 
L 1409 794 
L 1409 256 
L 897 -744 
L 494 -744 
L 750 256 
L 750 794 
z
" transform="scale(0.015625)"/>
       <path id="DejaVuSans-20" transform="scale(0.015625)"/>
       <path id="DejaVuSans-34" d="M 2419 4116 
L 825 1625 
L 2419 1625 
L 2419 4116 
z
M 2253 4666 
L 3047 4666 
L 3047 1625 
L 3713 1625 
L 3713 1100 
L 3047 1100 
L 3047 0 
L 2419 0 
L 2419 1100 
L 313 1100 
L 313 1709 
L 2253 4666 
z
" transform="scale(0.015625)"/>
       <path id="DejaVuSans-64" d="M 2906 2969 
L 2906 4863 
L 3481 4863 
L 3481 0 
L 2906 0 
L 2906 525 
Q 2725 213 2448 61 
Q 2172 -91 1784 -91 
Q 1150 -91 751 415 
Q 353 922 353 1747 
Q 353 2572 751 3078 
Q 1150 3584 1784 3584 
Q 2172 3584 2448 3432 
Q 2725 3281 2906 2969 
z
M 947 1747 
Q 947 1113 1208 752 
Q 1469 391 1925 391 
Q 2381 391 2643 752 
Q 2906 1113 2906 1747 
Q 2906 2381 2643 2742 
Q 2381 3103 1925 3103 
Q 1469 3103 1208 2742 
Q 947 2381 947 1747 
z
" transform="scale(0.015625)"/>
       <path id="DejaVuSans-70" d="M 1159 525 
L 1159 -1331 
L 581 -1331 
L 581 3500 
L 1159 3500 
L 1159 2969 
Q 1341 3281 1617 3432 
Q 1894 3584 2278 3584 
Q 2916 3584 3314 3078 
Q 3713 2572 3713 1747 
Q 3713 922 3314 415 
Q 2916 -91 2278 -91 
Q 1894 -91 1617 61 
Q 1341 213 1159 525 
z
M 3116 1747 
Q 3116 2381 2855 2742 
Q 2594 3103 2138 3103 
Q 1681 3103 1420 2742 
Q 1159 2381 1159 1747 
Q 1159 1113 1420 752 
Q 1681 391 2138 391 
Q 2594 391 2855 752 
Q 3116 1113 3116 1747 
z
" transform="scale(0.015625)"/>
       <path id="DejaVuSans-69" d="M 603 3500 
L 1178 3500 
L 1178 0 
L 603 0 
L 603 3500 
z
M 603 4863 
L 1178 4863 
L 1178 4134 
L 603 4134 
L 603 4863 
z
" transform="scale(0.015625)"/>
      </defs>
      <use xlink:href="#DejaVuSans-6d"/>
      <use xlink:href="#DejaVuSans-52" x="97.412109"/>
      <use xlink:href="#DejaVuSans-75" x="162.394531"/>
      <use xlink:href="#DejaVuSans-62" x="225.773438"/>
      <use xlink:href="#DejaVuSans-79" x="289.25"/>
      <use xlink:href="#DejaVuSans-32" x="348.429688"/>
      <use xlink:href="#DejaVuSans-2c" x="412.052734"/>
      <use xlink:href="#DejaVuSans-20" x="443.839844"/>
      <use xlink:href="#DejaVuSans-34" x="475.626953"/>
      <use xlink:href="#DejaVuSans-20" x="539.25"/>
      <use xlink:href="#DejaVuSans-64" x="571.037109"/>
      <use xlink:href="#DejaVuSans-70" x="634.513672"/>
      <use xlink:href="#DejaVuSans-69" x="697.990234"/>
     </g>
     <!-- (gmean) -->
     <g transform="translate(114.245469 224.8725)scale(0.1 -0.1)">
      <defs>
       <path id="DejaVuSans-28" d="M 1984 4856 
Q 1566 4138 1362 3434 
Q 1159 2731 1159 2009 
Q 1159 1288 1364 580 
Q 1569 -128 1984 -844 
L 1484 -844 
Q 1016 -109 783 600 
Q 550 1309 550 2009 
Q 550 2706 781 3412 
Q 1013 4119 1484 4856 
L 1984 4856 
z
" transform="scale(0.015625)"/>
       <path id="DejaVuSans-67" d="M 2906 1791 
Q 2906 2416 2648 2759 
Q 2391 3103 1925 3103 
Q 1463 3103 1205 2759 
Q 947 2416 947 1791 
Q 947 1169 1205 825 
Q 1463 481 1925 481 
Q 2391 481 2648 825 
Q 2906 1169 2906 1791 
z
M 3481 434 
Q 3481 -459 3084 -895 
Q 2688 -1331 1869 -1331 
Q 1566 -1331 1297 -1286 
Q 1028 -1241 775 -1147 
L 775 -588 
Q 1028 -725 1275 -790 
Q 1522 -856 1778 -856 
Q 2344 -856 2625 -561 
Q 2906 -266 2906 331 
L 2906 616 
Q 2728 306 2450 153 
Q 2172 0 1784 0 
Q 1141 0 747 490 
Q 353 981 353 1791 
Q 353 2603 747 3093 
Q 1141 3584 1784 3584 
Q 2172 3584 2450 3431 
Q 2728 3278 2906 2969 
L 2906 3500 
L 3481 3500 
L 3481 434 
z
" transform="scale(0.015625)"/>
       <path id="DejaVuSans-65" d="M 3597 1894 
L 3597 1613 
L 953 1613 
Q 991 1019 1311 708 
Q 1631 397 2203 397 
Q 2534 397 2845 478 
Q 3156 559 3463 722 
L 3463 178 
Q 3153 47 2828 -22 
Q 2503 -91 2169 -91 
Q 1331 -91 842 396 
Q 353 884 353 1716 
Q 353 2575 817 3079 
Q 1281 3584 2069 3584 
Q 2775 3584 3186 3129 
Q 3597 2675 3597 1894 
z
M 3022 2063 
Q 3016 2534 2758 2815 
Q 2500 3097 2075 3097 
Q 1594 3097 1305 2825 
Q 1016 2553 972 2059 
L 3022 2063 
z
" transform="scale(0.015625)"/>
       <path id="DejaVuSans-61" d="M 2194 1759 
Q 1497 1759 1228 1600 
Q 959 1441 959 1056 
Q 959 750 1161 570 
Q 1363 391 1709 391 
Q 2188 391 2477 730 
Q 2766 1069 2766 1631 
L 2766 1759 
L 2194 1759 
z
M 3341 1997 
L 3341 0 
L 2766 0 
L 2766 531 
Q 2569 213 2275 61 
Q 1981 -91 1556 -91 
Q 1019 -91 701 211 
Q 384 513 384 1019 
Q 384 1609 779 1909 
Q 1175 2209 1959 2209 
L 2766 2209 
L 2766 2266 
Q 2766 2663 2505 2880 
Q 2244 3097 1772 3097 
Q 1472 3097 1187 3025 
Q 903 2953 641 2809 
L 641 3341 
Q 956 3463 1253 3523 
Q 1550 3584 1831 3584 
Q 2591 3584 2966 3190 
Q 3341 2797 3341 1997 
z
" transform="scale(0.015625)"/>
       <path id="DejaVuSans-6e" d="M 3513 2113 
L 3513 0 
L 2938 0 
L 2938 2094 
Q 2938 2591 2744 2837 
Q 2550 3084 2163 3084 
Q 1697 3084 1428 2787 
Q 1159 2491 1159 1978 
L 1159 0 
L 581 0 
L 581 3500 
L 1159 3500 
L 1159 2956 
Q 1366 3272 1645 3428 
Q 1925 3584 2291 3584 
Q 2894 3584 3203 3211 
Q 3513 2838 3513 2113 
z
" transform="scale(0.015625)"/>
       <path id="DejaVuSans-29" d="M 513 4856 
L 1013 4856 
Q 1481 4119 1714 3412 
Q 1947 2706 1947 2009 
Q 1947 1309 1714 600 
Q 1481 -109 1013 -844 
L 513 -844 
Q 928 -128 1133 580 
Q 1338 1288 1338 2009 
Q 1338 2731 1133 3434 
Q 928 4138 513 4856 
z
" transform="scale(0.015625)"/>
      </defs>
      <use xlink:href="#DejaVuSans-28"/>
      <use xlink:href="#DejaVuSans-67" x="39.013672"/>
      <use xlink:href="#DejaVuSans-6d" x="102.490234"/>
      <use xlink:href="#DejaVuSans-65" x="199.902344"/>
      <use xlink:href="#DejaVuSans-61" x="261.425781"/>
      <use xlink:href="#DejaVuSans-6e" x="322.705078"/>
      <use xlink:href="#DejaVuSans-29" x="386.083984"/>
     </g>
    </g>
   </g>
   <g id="matplotlib.axis_2">
    <g id="ytick_1">
     <g id="line2d_5">
      <defs>
       <path id="m0816ea8e91" d="M 0 0 
L -3.5 0 
" style="stroke: #000000; stroke-width: 0.8"/>
      </defs>
      <g>
       <use xlink:href="#m0816ea8e91" x="51.800938" y="182.485982" style="stroke: #000000; stroke-width: 0.8"/>
      </g>
     </g>
     <g id="text_6">
      <!-- 0 -->
      <g transform="translate(38.438438 186.285201)scale(0.1 -0.1)">
       <use xlink:href="#DejaVuSans-30"/>
      </g>
     </g>
    </g>
    <g id="ytick_2">
     <g id="line2d_6">
      <g>
       <use xlink:href="#m0816ea8e91" x="51.800938" y="153.364554" style="stroke: #000000; stroke-width: 0.8"/>
      </g>
     </g>
     <g id="text_7">
      <!-- 10 -->
      <g transform="translate(32.075938 157.163772)scale(0.1 -0.1)">
       <use xlink:href="#DejaVuSans-31"/>
       <use xlink:href="#DejaVuSans-30" x="63.623047"/>
      </g>
     </g>
    </g>
    <g id="ytick_3">
     <g id="line2d_7">
      <g>
       <use xlink:href="#m0816ea8e91" x="51.800938" y="124.243125" style="stroke: #000000; stroke-width: 0.8"/>
      </g>
     </g>
     <g id="text_8">
      <!-- 20 -->
      <g transform="translate(32.075938 128.042344)scale(0.1 -0.1)">
       <use xlink:href="#DejaVuSans-32"/>
       <use xlink:href="#DejaVuSans-30" x="63.623047"/>
      </g>
     </g>
    </g>
    <g id="ytick_4">
     <g id="line2d_8">
      <g>
       <use xlink:href="#m0816ea8e91" x="51.800938" y="95.121696" style="stroke: #000000; stroke-width: 0.8"/>
      </g>
     </g>
     <g id="text_9">
      <!-- 30 -->
      <g transform="translate(32.075938 98.920915)scale(0.1 -0.1)">
       <use xlink:href="#DejaVuSans-33"/>
       <use xlink:href="#DejaVuSans-30" x="63.623047"/>
      </g>
     </g>
    </g>
    <g id="ytick_5">
     <g id="line2d_9">
      <g>
       <use xlink:href="#m0816ea8e91" x="51.800938" y="66.000268" style="stroke: #000000; stroke-width: 0.8"/>
      </g>
     </g>
     <g id="text_10">
      <!-- 40 -->
      <g transform="translate(32.075938 69.799487)scale(0.1 -0.1)">
       <use xlink:href="#DejaVuSans-34"/>
       <use xlink:href="#DejaVuSans-30" x="63.623047"/>
      </g>
     </g>
    </g>
    <g id="ytick_6">
     <g id="line2d_10">
      <g>
       <use xlink:href="#m0816ea8e91" x="51.800938" y="36.878839" style="stroke: #000000; stroke-width: 0.8"/>
      </g>
     </g>
     <g id="text_11">
      <!-- 50 -->
      <g transform="translate(32.075938 40.678058)scale(0.1 -0.1)">
       <defs>
        <path id="DejaVuSans-35" d="M 691 4666 
L 3169 4666 
L 3169 4134 
L 1269 4134 
L 1269 2991 
Q 1406 3038 1543 3061 
Q 1681 3084 1819 3084 
Q 2600 3084 3056 2656 
Q 3513 2228 3513 1497 
Q 3513 744 3044 326 
Q 2575 -91 1722 -91 
Q 1428 -91 1123 -41 
Q 819 9 494 109 
L 494 744 
Q 775 591 1075 516 
Q 1375 441 1709 441 
Q 2250 441 2565 725 
Q 2881 1009 2881 1497 
Q 2881 1984 2565 2268 
Q 2250 2553 1709 2553 
Q 1456 2553 1204 2497 
Q 953 2441 691 2322 
L 691 4666 
z
" transform="scale(0.015625)"/>
       </defs>
       <use xlink:href="#DejaVuSans-35"/>
       <use xlink:href="#DejaVuSans-30" x="63.623047"/>
      </g>
     </g>
    </g>
    <g id="text_12">
     <!-- (%) iMN -->
     <g transform="translate(14.798438 123.543281)rotate(-90)scale(0.1 -0.1)">
      <defs>
       <path id="DejaVuSans-25" d="M 4653 2053 
Q 4381 2053 4226 1822 
Q 4072 1591 4072 1178 
Q 4072 772 4226 539 
Q 4381 306 4653 306 
Q 4919 306 5073 539 
Q 5228 772 5228 1178 
Q 5228 1588 5073 1820 
Q 4919 2053 4653 2053 
z
M 4653 2450 
Q 5147 2450 5437 2106 
Q 5728 1763 5728 1178 
Q 5728 594 5436 251 
Q 5144 -91 4653 -91 
Q 4153 -91 3862 251 
Q 3572 594 3572 1178 
Q 3572 1766 3864 2108 
Q 4156 2450 4653 2450 
z
M 1428 4353 
Q 1159 4353 1004 4120 
Q 850 3888 850 3481 
Q 850 3069 1003 2837 
Q 1156 2606 1428 2606 
Q 1700 2606 1854 2837 
Q 2009 3069 2009 3481 
Q 2009 3884 1853 4118 
Q 1697 4353 1428 4353 
z
M 4250 4750 
L 4750 4750 
L 1831 -91 
L 1331 -91 
L 4250 4750 
z
M 1428 4750 
Q 1922 4750 2215 4408 
Q 2509 4066 2509 3481 
Q 2509 2891 2217 2550 
Q 1925 2209 1428 2209 
Q 931 2209 642 2551 
Q 353 2894 353 3481 
Q 353 4063 643 4406 
Q 934 4750 1428 4750 
z
" transform="scale(0.015625)"/>
       <path id="DejaVuSans-4d" d="M 628 4666 
L 1569 4666 
L 2759 1491 
L 3956 4666 
L 4897 4666 
L 4897 0 
L 4281 0 
L 4281 4097 
L 3078 897 
L 2444 897 
L 1241 4097 
L 1241 0 
L 628 0 
L 628 4666 
z
" transform="scale(0.015625)"/>
       <path id="DejaVuSans-4e" d="M 628 4666 
L 1478 4666 
L 3547 763 
L 3547 4666 
L 4159 4666 
L 4159 0 
L 3309 0 
L 1241 3903 
L 1241 0 
L 628 0 
L 628 4666 
z
" transform="scale(0.015625)"/>
      </defs>
      <use xlink:href="#DejaVuSans-28"/>
      <use xlink:href="#DejaVuSans-25" x="39.013672"/>
      <use xlink:href="#DejaVuSans-29" x="134.033203"/>
      <use xlink:href="#DejaVuSans-20" x="173.046875"/>
      <use xlink:href="#DejaVuSans-69" x="204.833984"/>
      <use xlink:href="#DejaVuSans-4d" x="232.617188"/>
      <use xlink:href="#DejaVuSans-4e" x="318.896484"/>
     </g>
     <!-- of all cells -->
     <g transform="translate(25.99625 128.906563)rotate(-90)scale(0.1 -0.1)">
      <defs>
       <path id="DejaVuSans-6f" d="M 1959 3097 
Q 1497 3097 1228 2736 
Q 959 2375 959 1747 
Q 959 1119 1226 758 
Q 1494 397 1959 397 
Q 2419 397 2687 759 
Q 2956 1122 2956 1747 
Q 2956 2369 2687 2733 
Q 2419 3097 1959 3097 
z
M 1959 3584 
Q 2709 3584 3137 3096 
Q 3566 2609 3566 1747 
Q 3566 888 3137 398 
Q 2709 -91 1959 -91 
Q 1206 -91 779 398 
Q 353 888 353 1747 
Q 353 2609 779 3096 
Q 1206 3584 1959 3584 
z
" transform="scale(0.015625)"/>
       <path id="DejaVuSans-66" d="M 2375 4863 
L 2375 4384 
L 1825 4384 
Q 1516 4384 1395 4259 
Q 1275 4134 1275 3809 
L 1275 3500 
L 2222 3500 
L 2222 3053 
L 1275 3053 
L 1275 0 
L 697 0 
L 697 3053 
L 147 3053 
L 147 3500 
L 697 3500 
L 697 3744 
Q 697 4328 969 4595 
Q 1241 4863 1831 4863 
L 2375 4863 
z
" transform="scale(0.015625)"/>
       <path id="DejaVuSans-6c" d="M 603 4863 
L 1178 4863 
L 1178 0 
L 603 0 
L 603 4863 
z
" transform="scale(0.015625)"/>
       <path id="DejaVuSans-63" d="M 3122 3366 
L 3122 2828 
Q 2878 2963 2633 3030 
Q 2388 3097 2138 3097 
Q 1578 3097 1268 2742 
Q 959 2388 959 1747 
Q 959 1106 1268 751 
Q 1578 397 2138 397 
Q 2388 397 2633 464 
Q 2878 531 3122 666 
L 3122 134 
Q 2881 22 2623 -34 
Q 2366 -91 2075 -91 
Q 1284 -91 818 406 
Q 353 903 353 1747 
Q 353 2603 823 3093 
Q 1294 3584 2113 3584 
Q 2378 3584 2631 3529 
Q 2884 3475 3122 3366 
z
" transform="scale(0.015625)"/>
       <path id="DejaVuSans-73" d="M 2834 3397 
L 2834 2853 
Q 2591 2978 2328 3040 
Q 2066 3103 1784 3103 
Q 1356 3103 1142 2972 
Q 928 2841 928 2578 
Q 928 2378 1081 2264 
Q 1234 2150 1697 2047 
L 1894 2003 
Q 2506 1872 2764 1633 
Q 3022 1394 3022 966 
Q 3022 478 2636 193 
Q 2250 -91 1575 -91 
Q 1294 -91 989 -36 
Q 684 19 347 128 
L 347 722 
Q 666 556 975 473 
Q 1284 391 1588 391 
Q 1994 391 2212 530 
Q 2431 669 2431 922 
Q 2431 1156 2273 1281 
Q 2116 1406 1581 1522 
L 1381 1569 
Q 847 1681 609 1914 
Q 372 2147 372 2553 
Q 372 3047 722 3315 
Q 1072 3584 1716 3584 
Q 2034 3584 2315 3537 
Q 2597 3491 2834 3397 
z
" transform="scale(0.015625)"/>
      </defs>
      <use xlink:href="#DejaVuSans-6f"/>
      <use xlink:href="#DejaVuSans-66" x="61.181641"/>
      <use xlink:href="#DejaVuSans-20" x="96.386719"/>
      <use xlink:href="#DejaVuSans-61" x="128.173828"/>
      <use xlink:href="#DejaVuSans-6c" x="189.453125"/>
      <use xlink:href="#DejaVuSans-6c" x="217.236328"/>
      <use xlink:href="#DejaVuSans-20" x="245.019531"/>
      <use xlink:href="#DejaVuSans-63" x="276.806641"/>
      <use xlink:href="#DejaVuSans-65" x="331.787109"/>
      <use xlink:href="#DejaVuSans-6c" x="393.310547"/>
      <use xlink:href="#DejaVuSans-6c" x="421.09375"/>
      <use xlink:href="#DejaVuSans-73" x="448.876953"/>
     </g>
    </g>
   </g>
   <g id="line2d_11">
    <path d="M 89.638958 113.690922 
L 90.837597 112.979421 
L 92.036235 112.26792 
L 93.234873 111.556419 
L 94.433512 110.844918 
L 95.63215 110.133417 
L 96.830789 109.421916 
L 98.029427 108.710415 
L 99.228065 107.998914 
L 100.426704 107.287412 
L 101.625342 106.575911 
L 102.823981 105.86441 
L 104.022619 105.152909 
L 105.221257 104.441408 
L 106.419896 103.729907 
L 107.618534 103.018406 
L 108.817172 102.306905 
L 110.015811 101.595404 
L 111.214449 100.883903 
L 112.413088 100.172402 
L 113.611726 99.460901 
L 114.810364 98.749399 
L 116.009003 98.037898 
L 117.207641 97.326397 
L 118.40628 96.614896 
L 119.604918 95.903395 
L 120.803556 95.191894 
L 122.002195 94.480393 
L 123.200833 93.768892 
L 124.399471 93.057391 
L 125.59811 92.34589 
L 126.796748 91.634389 
L 127.995387 90.922888 
L 129.194025 90.211386 
L 130.392663 89.499885 
L 131.591302 88.788384 
L 132.78994 88.076883 
L 133.988579 87.365382 
L 135.187217 86.653881 
L 136.385855 85.94238 
L 137.584494 85.230879 
L 138.783132 84.519378 
L 139.98177 83.807877 
L 141.180409 83.096376 
L 142.379047 82.384875 
L 143.577686 81.673373 
L 144.776324 80.961872 
L 145.974962 80.250371 
L 147.173601 79.53887 
L 148.372239 78.827369 
L 149.570878 78.115868 
L 150.769516 77.404367 
L 151.968154 76.692866 
L 153.166793 75.981365 
L 154.365431 75.269864 
L 155.564069 74.558363 
L 156.762708 73.846862 
L 157.961346 73.13536 
L 159.159985 72.423859 
L 160.358623 71.712358 
L 161.557261 71.000857 
L 162.7559 70.289356 
L 163.954538 69.577855 
L 165.153177 68.866354 
L 166.351815 68.154853 
L 167.550453 67.443352 
L 168.749092 66.731851 
L 169.94773 66.02035 
L 171.146368 65.308848 
L 172.345007 64.597347 
L 173.543645 63.885846 
L 174.742284 63.174345 
L 175.940922 62.462844 
L 177.13956 61.751343 
L 178.338199 61.039842 
L 179.536837 60.328341 
L 180.735476 59.61684 
L 181.934114 58.905339 
L 183.132752 58.193838 
L 184.331391 57.482337 
L 185.530029 56.770835 
L 186.728667 56.059334 
L 187.927306 55.347833 
L 189.125944 54.636332 
L 190.324583 53.924831 
L 191.523221 53.21333 
L 192.721859 52.501829 
L 193.920498 51.790328 
L 195.119136 51.078827 
L 196.317775 50.367326 
L 197.516413 49.655825 
L 198.715051 48.944324 
L 199.91369 48.232822 
L 201.112328 47.521321 
L 202.310967 46.80982 
L 203.509605 46.098319 
L 204.708243 45.386818 
L 205.906882 44.675317 
L 207.10552 43.963816 
L 208.304158 43.252315 
" clip-path="url(#p7daa8fb5eb)" style="fill: none; stroke: #068583; stroke-width: 2.25; stroke-linecap: square"/>
   </g>
   <g id="LineCollection_1">
    <path d="M 142.356941 102.117343 
L 161.425535 102.117343 
" clip-path="url(#p7daa8fb5eb)" style="fill: none; stroke: #000000; stroke-width: 0.5"/>
    <path d="M 105.398772 93.601776 
L 116.063634 93.601776 
" clip-path="url(#p7daa8fb5eb)" style="fill: none; stroke: #000000; stroke-width: 0.5"/>
    <path d="M 163.800608 48.51737 
L 181.498177 48.51737 
" clip-path="url(#p7daa8fb5eb)" style="fill: none; stroke: #000000; stroke-width: 0.5"/>
    <path d="M 161.718638 41.330342 
L 186.365017 41.330342 
" clip-path="url(#p7daa8fb5eb)" style="fill: none; stroke: #000000; stroke-width: 0.5"/>
    <path d="M 130.722709 100.990037 
L 143.344442 100.990037 
" clip-path="url(#p7daa8fb5eb)" style="fill: none; stroke: #000000; stroke-width: 0.5"/>
    <path d="M 112.446283 111.676947 
L 116.117678 111.676947 
" clip-path="url(#p7daa8fb5eb)" style="fill: none; stroke: #000000; stroke-width: 0.5"/>
    <path d="M 180.204186 55.390541 
L 200.888654 55.390541 
" clip-path="url(#p7daa8fb5eb)" style="fill: none; stroke: #000000; stroke-width: 0.5"/>
    <path d="M 159.219741 43.687951 
L 185.02542 43.687951 
" clip-path="url(#p7daa8fb5eb)" style="fill: none; stroke: #000000; stroke-width: 0.5"/>
    <path d="M 139.723796 112.784135 
L 149.65822 112.784135 
" clip-path="url(#p7daa8fb5eb)" style="fill: none; stroke: #000000; stroke-width: 0.5"/>
    <path d="M 96.681898 98.301656 
L 107.091085 98.301656 
" clip-path="url(#p7daa8fb5eb)" style="fill: none; stroke: #000000; stroke-width: 0.5"/>
    <path d="M 171.887678 53.958012 
L 187.582671 53.958012 
" clip-path="url(#p7daa8fb5eb)" style="fill: none; stroke: #000000; stroke-width: 0.5"/>
    <path d="M 145.413578 35.539861 
L 181.197424 35.539861 
" clip-path="url(#p7daa8fb5eb)" style="fill: none; stroke: #000000; stroke-width: 0.5"/>
    <path d="M 126.872583 103.341179 
L 131.761914 103.341179 
" clip-path="url(#p7daa8fb5eb)" style="fill: none; stroke: #000000; stroke-width: 0.5"/>
    <path d="M 93.06172 108.597805 
L 102.227707 108.597805 
" clip-path="url(#p7daa8fb5eb)" style="fill: none; stroke: #000000; stroke-width: 0.5"/>
    <path d="M 160.08084 76.442028 
L 178.987261 76.442028 
" clip-path="url(#p7daa8fb5eb)" style="fill: none; stroke: #000000; stroke-width: 0.5"/>
    <path d="M 124.554216 65.347933 
L 141.119601 65.347933 
" clip-path="url(#p7daa8fb5eb)" style="fill: none; stroke: #000000; stroke-width: 0.5"/>
    <path d="M 108.085348 117.27311 
L 119.172074 117.27311 
" clip-path="url(#p7daa8fb5eb)" style="fill: none; stroke: #000000; stroke-width: 0.5"/>
    <path d="M 89.058733 122.500707 
L 101.64051 122.500707 
" clip-path="url(#p7daa8fb5eb)" style="fill: none; stroke: #000000; stroke-width: 0.5"/>
    <path d="M 169.480511 77.52758 
L 177.206596 77.52758 
" clip-path="url(#p7daa8fb5eb)" style="fill: none; stroke: #000000; stroke-width: 0.5"/>
    <path d="M 112.134119 72.101865 
L 131.403643 72.101865 
" clip-path="url(#p7daa8fb5eb)" style="fill: none; stroke: #000000; stroke-width: 0.5"/>
    <path d="M 140.114369 96.036772 
L 159.959393 96.036772 
" clip-path="url(#p7daa8fb5eb)" style="fill: none; stroke: #000000; stroke-width: 0.5"/>
    <path d="M 103.402034 103.084385 
L 113.134977 103.084385 
" clip-path="url(#p7daa8fb5eb)" style="fill: none; stroke: #000000; stroke-width: 0.5"/>
    <path d="M 205.01647 54.993786 
L 211.591847 54.993786 
" clip-path="url(#p7daa8fb5eb)" style="fill: none; stroke: #000000; stroke-width: 0.5"/>
    <path d="M 85.997123 90.706013 
L 93.280793 90.706013 
" clip-path="url(#p7daa8fb5eb)" style="fill: none; stroke: #000000; stroke-width: 0.5"/>
   </g>
   <g id="LineCollection_2">
    <path d="M 151.891238 106.425458 
L 151.891238 97.809228 
" clip-path="url(#p7daa8fb5eb)" style="fill: none; stroke: #000000; stroke-width: 0.5"/>
    <path d="M 110.731203 97.313246 
L 110.731203 89.890305 
" clip-path="url(#p7daa8fb5eb)" style="fill: none; stroke: #000000; stroke-width: 0.5"/>
    <path d="M 172.649392 53.020719 
L 172.649392 44.014021 
" clip-path="url(#p7daa8fb5eb)" style="fill: none; stroke: #000000; stroke-width: 0.5"/>
    <path d="M 174.041828 44.326186 
L 174.041828 38.334499 
" clip-path="url(#p7daa8fb5eb)" style="fill: none; stroke: #000000; stroke-width: 0.5"/>
    <path d="M 137.033575 104.62422 
L 137.033575 97.355853 
" clip-path="url(#p7daa8fb5eb)" style="fill: none; stroke: #000000; stroke-width: 0.5"/>
    <path d="M 114.281981 114.210702 
L 114.281981 109.143191 
" clip-path="url(#p7daa8fb5eb)" style="fill: none; stroke: #000000; stroke-width: 0.5"/>
    <path d="M 190.54642 57.85068 
L 190.54642 52.930403 
" clip-path="url(#p7daa8fb5eb)" style="fill: none; stroke: #000000; stroke-width: 0.5"/>
    <path d="M 172.12258 46.34931 
L 172.12258 41.026591 
" clip-path="url(#p7daa8fb5eb)" style="fill: none; stroke: #000000; stroke-width: 0.5"/>
    <path d="M 144.691008 114.687755 
L 144.691008 110.880515 
" clip-path="url(#p7daa8fb5eb)" style="fill: none; stroke: #000000; stroke-width: 0.5"/>
    <path d="M 101.886491 107.966491 
L 101.886491 88.636821 
" clip-path="url(#p7daa8fb5eb)" style="fill: none; stroke: #000000; stroke-width: 0.5"/>
    <path d="M 179.735175 57.442939 
L 179.735175 50.473084 
" clip-path="url(#p7daa8fb5eb)" style="fill: none; stroke: #000000; stroke-width: 0.5"/>
    <path d="M 163.305501 40.186485 
L 163.305501 30.893237 
" clip-path="url(#p7daa8fb5eb)" style="fill: none; stroke: #000000; stroke-width: 0.5"/>
    <path d="M 129.317249 106.362657 
L 129.317249 100.319701 
" clip-path="url(#p7daa8fb5eb)" style="fill: none; stroke: #000000; stroke-width: 0.5"/>
    <path d="M 97.644714 114.327662 
L 97.644714 102.867948 
" clip-path="url(#p7daa8fb5eb)" style="fill: none; stroke: #000000; stroke-width: 0.5"/>
    <path d="M 169.53405 85.0853 
L 169.53405 67.798756 
" clip-path="url(#p7daa8fb5eb)" style="fill: none; stroke: #000000; stroke-width: 0.5"/>
    <path d="M 132.836908 69.647951 
L 132.836908 61.047916 
" clip-path="url(#p7daa8fb5eb)" style="fill: none; stroke: #000000; stroke-width: 0.5"/>
    <path d="M 113.628711 118.716531 
L 113.628711 115.82969 
" clip-path="url(#p7daa8fb5eb)" style="fill: none; stroke: #000000; stroke-width: 0.5"/>
    <path d="M 95.349622 127.662759 
L 95.349622 117.338655 
" clip-path="url(#p7daa8fb5eb)" style="fill: none; stroke: #000000; stroke-width: 0.5"/>
    <path d="M 173.343554 82.206366 
L 173.343554 72.848795 
" clip-path="url(#p7daa8fb5eb)" style="fill: none; stroke: #000000; stroke-width: 0.5"/>
    <path d="M 121.768881 74.177513 
L 121.768881 70.026218 
" clip-path="url(#p7daa8fb5eb)" style="fill: none; stroke: #000000; stroke-width: 0.5"/>
    <path d="M 150.036881 99.623061 
L 150.036881 92.450484 
" clip-path="url(#p7daa8fb5eb)" style="fill: none; stroke: #000000; stroke-width: 0.5"/>
    <path d="M 108.268506 111.791971 
L 108.268506 94.376799 
" clip-path="url(#p7daa8fb5eb)" style="fill: none; stroke: #000000; stroke-width: 0.5"/>
    <path d="M 208.304158 60.420338 
L 208.304158 49.567233 
" clip-path="url(#p7daa8fb5eb)" style="fill: none; stroke: #000000; stroke-width: 0.5"/>
    <path d="M 89.638958 94.945933 
L 89.638958 86.466093 
" clip-path="url(#p7daa8fb5eb)" style="fill: none; stroke: #000000; stroke-width: 0.5"/>
   </g>
   <g id="LineCollection_3">
    <path d="M 63.322367 181.488496 
L 63.458053 181.488496 
" clip-path="url(#p7daa8fb5eb)" style="fill: none; stroke: #000000; stroke-width: 0.5"/>
    <path d="M 60.624502 179.376242 
L 60.742911 179.376242 
" clip-path="url(#p7daa8fb5eb)" style="fill: none; stroke: #000000; stroke-width: 0.5"/>
    <path d="M 61.217888 182.183844 
L 61.41573 182.183844 
" clip-path="url(#p7daa8fb5eb)" style="fill: none; stroke: #000000; stroke-width: 0.5"/>
    <path d="M 59.410028 182.38961 
L 59.481572 182.38961 
" clip-path="url(#p7daa8fb5eb)" style="fill: none; stroke: #000000; stroke-width: 0.5"/>
   </g>
   <g id="LineCollection_4">
    <path d="M 63.39021 181.584275 
L 63.39021 181.392718 
" clip-path="url(#p7daa8fb5eb)" style="fill: none; stroke: #000000; stroke-width: 0.5"/>
    <path d="M 60.683706 179.858507 
L 60.683706 178.893976 
" clip-path="url(#p7daa8fb5eb)" style="fill: none; stroke: #000000; stroke-width: 0.5"/>
    <path d="M 61.316809 182.259384 
L 61.316809 182.108304 
" clip-path="url(#p7daa8fb5eb)" style="fill: none; stroke: #000000; stroke-width: 0.5"/>
    <path d="M 59.4458 182.435933 
L 59.4458 182.343288 
" clip-path="url(#p7daa8fb5eb)" style="fill: none; stroke: #000000; stroke-width: 0.5"/>
   </g>
   <g id="line2d_12">
    <path d="M 151.891238 102.117343 
L 110.731203 93.601776 
L 172.649392 48.51737 
L 174.041828 41.330342 
L 137.033575 100.990037 
L 114.281981 111.676947 
L 190.54642 55.390541 
L 172.12258 43.687951 
L 144.691008 112.784135 
L 101.886491 98.301656 
L 179.735175 53.958012 
L 163.305501 35.539861 
L 129.317249 103.341179 
L 97.644714 108.597805 
L 169.53405 76.442028 
L 132.836908 65.347933 
L 113.628711 117.27311 
L 95.349622 122.500707 
L 173.343554 77.52758 
L 121.768881 72.101865 
L 150.036881 96.036772 
L 108.268506 103.084385 
L 208.304158 54.993786 
L 89.638958 90.706013 
" clip-path="url(#p7daa8fb5eb)" style="fill: none; stroke: #000000; stroke-opacity: 0; stroke-width: 1.5; stroke-linecap: square"/>
   </g>
   <g id="line2d_13">
    <path d="M 63.39021 181.488496 
L 60.683706 179.376242 
L 61.316809 182.183844 
L 59.4458 182.38961 
" clip-path="url(#p7daa8fb5eb)" style="fill: none; stroke: #000000; stroke-opacity: 0; stroke-width: 1.5; stroke-linecap: square"/>
   </g>
   <g id="patch_3">
    <path d="M 51.800938 185.398125 
L 51.800938 22.318125 
" style="fill: none; stroke: #000000; stroke-width: 0.8; stroke-linejoin: miter; stroke-linecap: square"/>
   </g>
   <g id="patch_4">
    <path d="M 219.200938 185.398125 
L 219.200938 22.318125 
" style="fill: none; stroke: #000000; stroke-width: 0.8; stroke-linejoin: miter; stroke-linecap: square"/>
   </g>
   <g id="patch_5">
    <path d="M 51.800938 185.398125 
L 219.200938 185.398125 
" style="fill: none; stroke: #000000; stroke-width: 0.8; stroke-linejoin: miter; stroke-linecap: square"/>
   </g>
   <g id="patch_6">
    <path d="M 51.800938 22.318125 
L 219.200938 22.318125 
" style="fill: none; stroke: #000000; stroke-width: 0.8; stroke-linejoin: miter; stroke-linecap: square"/>
   </g>
   <g id="text_13">
    <!-- No -->
    <g transform="translate(68.540938 166.046312)scale(0.1 -0.1)">
     <use xlink:href="#DejaVuSans-4e"/>
     <use xlink:href="#DejaVuSans-6f" x="74.804688"/>
    </g>
    <!-- Ngn2x3HA -->
    <g transform="translate(68.540938 177.244125)scale(0.1 -0.1)">
     <defs>
      <path id="DejaVuSans-78" d="M 3513 3500 
L 2247 1797 
L 3578 0 
L 2900 0 
L 1881 1375 
L 863 0 
L 184 0 
L 1544 1831 
L 300 3500 
L 978 3500 
L 1906 2253 
L 2834 3500 
L 3513 3500 
z
" transform="scale(0.015625)"/>
      <path id="DejaVuSans-48" d="M 628 4666 
L 1259 4666 
L 1259 2753 
L 3553 2753 
L 3553 4666 
L 4184 4666 
L 4184 0 
L 3553 0 
L 3553 2222 
L 1259 2222 
L 1259 0 
L 628 0 
L 628 4666 
z
" transform="scale(0.015625)"/>
      <path id="DejaVuSans-41" d="M 2188 4044 
L 1331 1722 
L 3047 1722 
L 2188 4044 
z
M 1831 4666 
L 2547 4666 
L 4325 0 
L 3669 0 
L 3244 1197 
L 1141 1197 
L 716 0 
L 50 0 
L 1831 4666 
z
" transform="scale(0.015625)"/>
     </defs>
     <use xlink:href="#DejaVuSans-4e"/>
     <use xlink:href="#DejaVuSans-67" x="74.804688"/>
     <use xlink:href="#DejaVuSans-6e" x="138.28125"/>
     <use xlink:href="#DejaVuSans-32" x="201.660156"/>
     <use xlink:href="#DejaVuSans-78" x="265.283203"/>
     <use xlink:href="#DejaVuSans-33" x="324.462891"/>
     <use xlink:href="#DejaVuSans-48" x="388.085938"/>
     <use xlink:href="#DejaVuSans-41" x="463.28125"/>
    </g>
   </g>
   <g id="text_14">
    <!-- r = 0.74 -->
    <g transform="translate(60.170938 38.626125)scale(0.1 -0.1)">
     <defs>
      <path id="DejaVuSans-72" d="M 2631 2963 
Q 2534 3019 2420 3045 
Q 2306 3072 2169 3072 
Q 1681 3072 1420 2755 
Q 1159 2438 1159 1844 
L 1159 0 
L 581 0 
L 581 3500 
L 1159 3500 
L 1159 2956 
Q 1341 3275 1631 3429 
Q 1922 3584 2338 3584 
Q 2397 3584 2469 3576 
Q 2541 3569 2628 3553 
L 2631 2963 
z
" transform="scale(0.015625)"/>
      <path id="DejaVuSans-3d" d="M 678 2906 
L 4684 2906 
L 4684 2381 
L 678 2381 
L 678 2906 
z
M 678 1631 
L 4684 1631 
L 4684 1100 
L 678 1100 
L 678 1631 
z
" transform="scale(0.015625)"/>
      <path id="DejaVuSans-2e" d="M 684 794 
L 1344 794 
L 1344 0 
L 684 0 
L 684 794 
z
" transform="scale(0.015625)"/>
      <path id="DejaVuSans-37" d="M 525 4666 
L 3525 4666 
L 3525 4397 
L 1831 0 
L 1172 0 
L 2766 4134 
L 525 4134 
L 525 4666 
z
" transform="scale(0.015625)"/>
     </defs>
     <use xlink:href="#DejaVuSans-72"/>
     <use xlink:href="#DejaVuSans-20" x="41.113281"/>
     <use xlink:href="#DejaVuSans-3d" x="72.900391"/>
     <use xlink:href="#DejaVuSans-20" x="156.689453"/>
     <use xlink:href="#DejaVuSans-30" x="188.476562"/>
     <use xlink:href="#DejaVuSans-2e" x="252.099609"/>
     <use xlink:href="#DejaVuSans-37" x="283.886719"/>
     <use xlink:href="#DejaVuSans-34" x="347.509766"/>
    </g>
   </g>
   <g id="text_15">
    <!-- Ngn2x3HA -->
    <g transform="translate(103.597813 16.318125)scale(0.12 -0.12)">
     <use xlink:href="#DejaVuSans-4e"/>
     <use xlink:href="#DejaVuSans-67" x="74.804688"/>
     <use xlink:href="#DejaVuSans-6e" x="138.28125"/>
     <use xlink:href="#DejaVuSans-32" x="201.660156"/>
     <use xlink:href="#DejaVuSans-78" x="265.283203"/>
     <use xlink:href="#DejaVuSans-33" x="324.462891"/>
     <use xlink:href="#DejaVuSans-48" x="388.085938"/>
     <use xlink:href="#DejaVuSans-41" x="463.28125"/>
    </g>
   </g>
  </g>
 </g>
 <defs>
  <clipPath id="p7daa8fb5eb">
   <rect x="51.800938" y="22.318125" width="167.4" height="163.08"/>
  </clipPath>
 </defs>
</svg>
